<svg width="140" height="140" viewBox="0 0 140 140" fill="none" xmlns="http://www.w3.org/2000/svg">
<rect width="140" height="140" rx="60" fill="#F2F3F8"/>
<path d="M99.9185 37.9849V122.247C99.9185 125.551 97.2406 128.229 93.9368 128.229H24.533C21.2292 128.229 18.5513 125.551 18.5513 122.247V37.9849C18.5513 34.6811 21.2292 32.0032 24.533 32.0032H93.9368C97.2403 32.0034 99.9185 34.6814 99.9185 37.9849Z" fill="#3D9AE2"/>
<path d="M99.9187 37.9849V120.436H31.1453C27.8415 120.436 25.1636 117.758 25.1636 114.454V32.0034H93.9369C97.2405 32.0034 99.9187 34.6814 99.9187 37.9849Z" fill="#5AAAE7"/>
<path d="M117.197 104.118L50.783 124.262C47.6211 125.22 44.2819 123.435 43.3231 120.275L18.8651 39.6379C17.904 36.4783 19.6892 33.1368 22.8514 32.178L24.143 31.7859L89.2658 12.0323C92.4277 11.0735 95.7669 12.8587 96.7257 16.0209L120.631 94.8281L121.186 96.6583C122.145 99.8179 120.36 103.159 117.197 104.118Z" fill="#96C8EF"/>
<path d="M120.631 94.8281L55.506 114.58C52.344 115.538 49.0049 113.753 48.0461 110.593L24.1436 31.7861L89.266 12.0323C92.428 11.0735 95.7671 12.8587 96.726 16.0209L120.631 94.8281Z" fill="#C2DFF6"/>
<path d="M69.6208 57.9615L64.7843 41.7607C64.7739 41.7258 64.8194 41.6552 64.9208 41.5488C65.0309 41.4399 65.1916 41.3253 65.403 41.2052C65.6205 41.0737 65.8428 40.9741 66.0698 40.9063C66.646 40.7343 67.2002 40.759 67.7323 40.9805C68.2644 41.2021 68.7053 41.7076 69.0551 42.497C69.2448 41.6036 69.6426 40.8334 70.2483 40.1867C70.854 39.5399 71.6458 39.0705 72.6237 38.7786C74.4136 38.2442 76.058 38.4332 77.5571 39.3456C79.0536 40.2491 80.1107 41.7356 80.7284 43.8049C81.3357 45.8393 81.2634 47.6676 80.5115 49.29C79.7596 50.9123 78.48 51.9932 76.6727 52.5328C75.7122 52.8195 74.7945 52.851 73.9194 52.6273C73.0504 52.3922 72.3327 51.9788 71.7662 51.3872L73.3927 56.8355C73.755 58.0491 73.3817 58.8215 72.2728 59.1525L71.8799 59.2698C71.3298 59.434 70.8647 59.4207 70.4844 59.2299C70.1041 59.0392 69.8163 58.6164 69.6208 57.9615ZM70.6871 47.7725C70.9739 48.6378 71.512 49.2617 72.3014 49.6441C73.0968 50.0153 73.9486 50.0653 74.8566 49.7942C75.8782 49.4892 76.589 48.8919 76.989 48.0022C77.3952 47.1012 77.4263 46.0744 77.0822 44.9219C76.7434 43.7869 76.1584 42.9582 75.3274 42.4361C74.4937 41.9052 73.5792 41.7883 72.5838 42.0855C71.8068 42.3174 71.1918 42.7102 70.739 43.2638C70.2835 43.8087 70.0121 44.4603 69.9247 45.2186L70.6871 47.7725Z" fill="#143A5A"/>
<path d="M51.5627 57.3899L47.6568 44.3062C47.4509 43.6165 47.4696 43.0261 47.7129 42.535C47.9623 42.0326 48.4101 41.685 49.0562 41.4921L54.1902 39.9595C56.4341 39.2896 58.2704 39.2454 59.6993 39.8268C61.1342 40.3969 62.1162 41.5682 62.6454 43.3406C63.065 44.7464 63.0192 46.0105 62.508 47.1331C61.9968 48.2556 61.053 49.1555 59.6766 49.8327L65.8084 53.936C65.8311 53.9482 65.8476 53.9718 65.858 54.0067C65.8685 54.0417 65.8728 54.0879 65.8709 54.1455C65.8673 54.2607 65.8221 54.4121 65.7355 54.5996C65.655 54.7758 65.5469 54.9555 65.4114 55.1385C65.2733 55.3129 65.0732 55.4868 64.8111 55.6601C64.5578 55.8308 64.2739 55.9631 63.9596 56.0569C63.4096 56.2211 62.9059 56.2384 62.4488 56.1086C62.0004 55.9762 61.4749 55.6813 60.8724 55.2241L55.7873 51.6642L54.2811 52.1138L55.6183 56.5929C55.7877 57.1604 55.7709 57.6457 55.5679 58.0486C55.3736 58.449 54.997 58.7325 54.4382 58.8994L53.8751 59.0675C53.3425 59.2265 52.8761 59.1613 52.4758 58.8718C52.0756 58.5824 51.7713 58.0884 51.5627 57.3899ZM53.3647 49.235L56.39 48.3319C57.429 48.0217 58.1427 47.5614 58.5311 46.951C58.9255 46.3292 59.0002 45.608 58.7552 44.7872C58.5024 43.9403 58.0388 43.375 57.3646 43.0913C56.6903 42.8076 55.8206 42.8248 54.7553 43.1428L51.8086 44.0225L53.3647 49.235Z" fill="#143A5A"/>
<path d="M100.088 121.232C99.1176 121.111 98.2345 121.801 98.114 122.771C97.8543 124.873 96.0595 126.458 93.9365 126.458H24.5327C22.2114 126.458 20.3221 124.571 20.3221 122.247V50.5458L29.9547 82.3029C30.186 83.0679 30.8899 83.5615 31.6478 83.5615C31.8178 83.5615 31.9926 83.5355 32.1625 83.4837C33.1 83.2003 33.629 82.2108 33.3433 81.2757L24.5067 52.1398C25.7111 55.1365 28.6488 57.2595 32.0751 57.2595C36.5713 57.2595 40.2316 53.5992 40.2316 49.103C40.2316 45.9565 40.2316 31.1916 40.2316 28.7588C52.0331 25.1771 66.206 20.8803 79.3377 16.8971C80.2729 16.6114 80.8019 15.6242 80.5185 14.6867C80.2328 13.7515 79.2433 13.2225 78.3081 13.5059L45.5425 23.4453C43.6509 19.7377 39.7947 17.1945 35.3528 17.1945C29.0477 17.1945 23.9186 22.3235 23.9186 28.6287V30.0054L22.3363 30.4847C19.0446 31.4815 16.8342 34.4618 16.8342 37.9001L16.7798 39.9971V122.247C16.7798 126.524 20.2581 130 24.5324 130H93.9363C97.8445 130 101.151 127.079 101.63 123.206C101.751 122.235 101.059 121.35 100.088 121.232ZM27.4612 28.6289C27.4612 24.2768 31.001 20.7368 35.3533 20.7368C38.1918 20.7368 40.6856 22.2434 42.074 24.4988L39.0182 25.4246C36.2097 22.1942 30.8744 23.7994 30.3445 28.0552C30.2821 28.5436 30.3039 45.5925 30.3044 46.2457C30.3044 47.2233 31.0978 48.0169 32.0756 48.0169C33.0531 48.0169 33.8467 47.2235 33.8467 46.2457C33.8467 44.9414 33.8467 29.4483 33.8467 28.6739C33.8467 27.8899 34.4842 27.2522 35.2685 27.2522C36.0524 27.2522 36.6902 27.8897 36.6902 28.6739C36.6902 31.1014 36.6902 46.4023 36.6902 49.103C36.6902 51.6462 34.6192 53.7174 32.0758 53.7174C29.5324 53.7174 27.4614 51.6464 27.4614 49.103C27.4612 44.7314 27.4612 33.053 27.4612 28.6289ZM21.6093 34.9364C21.6117 34.9317 21.614 34.9294 21.6163 34.9317C21.7778 34.8211 22.5557 34.0128 23.9188 33.8194C23.9763 49.7356 23.7892 49.3153 24.0888 50.7631L20.5586 39.1256C20.0915 37.5689 20.556 35.9963 21.6093 34.9364Z" fill="#143A5A"/>
<path d="M98.4209 15.5059C97.1414 11.289 92.7478 9.11497 88.7529 10.3391L85.088 11.4491C84.1528 11.7348 83.6239 12.722 83.9072 13.6595C84.1906 14.5947 85.1801 15.1236 86.1153 14.8403C89.5885 13.8365 89.9698 13.5463 91.006 13.5463C92.8409 13.5463 94.4986 14.7742 95.0323 16.536L100.121 33.3168L101.689 38.4838L119.49 97.1713C120.186 99.4457 118.838 101.77 116.685 102.423C45.739 123.943 49.9948 122.751 49.0446 122.751C47.2074 122.751 45.552 121.523 45.0183 119.761L35.4 88.0534C35.1167 87.1183 34.1271 86.5893 33.192 86.8726C32.2545 87.1583 31.7278 88.1479 32.0112 89.083L41.6271 120.791C42.626 124.082 45.6061 126.293 49.0446 126.293C49.805 126.293 50.5632 126.179 51.2975 125.957L98.1469 111.746V115.907C98.1469 116.885 98.9379 117.678 99.9181 117.678C100.896 117.678 101.689 116.885 101.689 115.907V110.672L117.712 105.812C121.004 104.813 123.216 101.833 123.216 98.3964C123.216 96.2411 124.09 100.529 98.4209 15.5059Z" fill="#143A5A"/>
<path d="M95.4809 61.1882L44.9923 76.5029C44.0565 76.787 43.5277 77.7761 43.8115 78.7119C44.0942 79.6436 45.0797 80.1777 46.0205 79.8927L96.5091 64.5779C97.445 64.2939 97.9737 63.3048 97.6899 62.369C97.4058 61.4329 96.4163 60.9046 95.4809 61.1882Z" fill="#143A5A"/>
<path d="M98.4282 70.9063L98.1472 70.9914L47.9398 86.2206C47.0047 86.5063 46.4757 87.4935 46.7591 88.431C47.0441 89.3701 48.0383 89.8925 48.9694 89.6117C48.9971 89.6035 99.3559 74.3284 99.4578 74.2974C100.393 74.0117 100.922 73.0222 100.639 72.0871C100.353 71.1519 99.3631 70.6229 98.4282 70.9063Z" fill="#143A5A"/>
<path d="M101.378 80.6237L98.1476 81.6036L50.8873 95.9401C48.9466 96.5282 49.376 99.4068 51.4019 99.4068C51.5719 99.4068 51.7444 99.3808 51.9166 99.329C63.1556 95.92 90.4732 87.6339 102.405 84.0147C103.34 83.7313 103.869 82.7418 103.586 81.8043C103.307 80.8876 102.338 80.3399 101.378 80.6237Z" fill="#143A5A"/>
<path d="M54.3489 109.124C54.7478 109.124 51.7804 109.992 105.352 93.7324C106.29 93.449 106.819 92.4595 106.533 91.5243C106.25 90.5892 105.26 90.0602 104.325 90.3435L101.69 91.1442C57.0501 104.683 53.9906 105.611 53.8413 105.656C53.8408 105.656 53.8406 105.657 53.8401 105.657L53.8408 105.656C53.8391 105.657 53.8377 105.657 53.8368 105.658L53.8375 105.657C53.837 105.657 53.8366 105.658 53.8366 105.658C51.8917 106.246 52.3265 109.124 54.3489 109.124Z" fill="#143A5A"/>
<path d="M53.846 105.655C53.8453 105.655 53.8432 105.656 53.8408 105.657H53.8413C53.8441 105.656 53.846 105.655 53.846 105.655Z" fill="#143A5A"/>
</svg>
