<svg width="140" height="140" viewBox="0 0 140 140" fill="none" xmlns="http://www.w3.org/2000/svg">
<rect width="140" height="140" rx="60" fill="#F2F3F8"/>
<g clip-path="url(#clip0_543_3377)">
<path d="M30.1075 46.8585C25.8941 46.8585 22.0101 47.0275 18.909 44.6308C14.5633 41.272 11.7573 36.0128 11.7573 30.108C11.7576 19.9898 19.9893 11.7578 30.1075 11.7578C40.2257 11.7578 48.4576 19.9898 48.4576 30.108C48.4576 36.0128 45.6517 41.272 41.3059 44.6308C38.2049 47.0275 34.3211 46.8585 30.1075 46.8585Z" fill="#BDC6ED"/>
<path d="M34.8619 37.9562C33.4821 42.385 25.9673 41.9875 25.353 37.9562L25.6507 37.873C26.2219 37.7148 26.6161 37.1973 26.6161 36.6046V31.6143H33.599V36.6048C33.599 37.1975 33.9933 37.715 34.5644 37.8732L34.8619 37.9562Z" fill="#E2DEE2"/>
<path d="M41.3061 43.3544V44.6308C38.2062 47.0308 34.3205 48.4575 30.1076 48.4575C25.8947 48.4575 22.0093 47.0308 18.9092 44.6308V43.3544C18.9092 42.7188 19.0353 42.0968 19.2764 41.5228C19.515 40.9462 19.8692 40.4208 20.3196 39.9729C20.8988 39.4017 21.6122 38.9887 22.3953 38.7743L25.3531 37.9563C27.4903 41.5497 32.7249 41.5497 34.8619 37.9563L37.8197 38.7743C38.6028 38.9887 39.316 39.4017 39.8953 39.9729C40.7993 40.8658 41.3061 42.0834 41.3061 43.3544Z" fill="#F2F0F3"/>
<path d="M27.2069 33.9593L28.0183 34.4198C29.3141 35.1555 30.9015 35.1555 32.1974 34.4198L33.0088 33.9593C35.2351 32.6955 36.6107 30.3328 36.6107 27.7727V25.9657C36.6107 23.4098 35.1112 21.0916 32.7801 20.0435C31.0806 19.2794 29.1351 19.2794 27.4356 20.0435C25.1045 21.0916 23.605 23.4096 23.605 25.9657V27.7727C23.605 30.3328 24.9805 32.6953 27.2069 33.9593Z" fill="#F2F0F3"/>
<path d="M98.9113 70.0005C98.9113 74.6871 97.7961 79.1133 95.8168 83.028C94.1786 83.9203 94.0255 84.6243 94.1882 85.8429C89.301 93.2894 81.0676 98.3433 71.6261 98.8666C71.0877 98.8964 70.5454 98.2479 69.9997 98.2479C69.4539 98.2479 68.9118 98.8966 68.3734 98.8666C58.9318 98.343 50.6989 93.289 45.812 85.8424C45.5153 85.3903 46.0164 84.2343 45.745 83.7651C45.4733 83.2959 44.4289 83.5132 44.1836 83.0276C42.2043 79.1128 41.0889 74.6871 41.0889 70.0005C41.0889 65.3137 42.204 60.8876 44.1836 56.9725C45.5936 56.2139 45.7466 55.6322 45.8122 54.1577C50.6994 46.7114 58.9323 41.6575 68.3739 41.134C68.9122 41.1042 69.4543 42.1005 70.0002 42.1005C70.5458 42.1005 71.0884 41.1042 71.6265 41.134C81.0681 41.6575 89.3012 46.7111 94.1884 54.1575C94.0872 55.6322 94.2404 56.7037 95.8171 56.9723C97.7961 60.8873 98.9113 65.3137 98.9113 70.0005Z" fill="#FFE177"/>
<path d="M88.1886 70.0004C88.1886 81.02 81.0196 88.951 69.9999 88.951C63.8014 88.951 58.2634 87.1267 54.6036 82.6923C51.7571 79.2432 50.0474 74.8215 50.0474 70.0004C50.0474 58.9808 58.9806 50.0476 70.0002 50.0476C73.8505 50.0476 77.4463 51.1382 80.495 53.0275C85.168 58.2547 88.1886 62.8311 88.1886 70.0004Z" fill="#FFD15B"/>
<path d="M71.0215 75.9307V65.0586C71.0215 65.0352 71.0625 65 71.1445 64.9531C71.2324 64.9062 71.3525 64.8652 71.5049 64.8301C71.6631 64.7891 71.8184 64.7686 71.9707 64.7686C72.3574 64.7686 72.6943 64.8857 72.9814 65.1201C73.2686 65.3545 73.4473 65.7471 73.5176 66.2979C73.7988 65.7822 74.1855 65.3809 74.6777 65.0938C75.1699 64.8066 75.7441 64.6631 76.4004 64.6631C77.6016 64.6631 78.5801 65.082 79.3359 65.9199C80.0918 66.752 80.4697 67.8623 80.4697 69.251C80.4697 70.6162 80.0889 71.7295 79.3271 72.5908C78.5654 73.4521 77.5781 73.8828 76.3652 73.8828C75.7207 73.8828 75.1494 73.7334 74.6514 73.4346C74.1592 73.1299 73.793 72.7432 73.5527 72.2744V75.9307C73.5527 76.7451 73.1807 77.1523 72.4365 77.1523H72.1729C71.8037 77.1523 71.5195 77.0586 71.3203 76.8711C71.1211 76.6836 71.0215 76.3701 71.0215 75.9307ZM73.5527 69.8486C73.5703 70.4346 73.7871 70.918 74.2031 71.2988C74.625 71.6738 75.1406 71.8613 75.75 71.8613C76.4355 71.8613 76.9834 71.624 77.3936 71.1494C77.8096 70.6689 78.0176 70.042 78.0176 69.2686C78.0176 68.5068 77.8096 67.8887 77.3936 67.4141C76.9775 66.9336 76.4355 66.6934 75.7676 66.6934C75.2461 66.6934 74.7949 66.8223 74.4141 67.0801C74.0332 67.332 73.7461 67.6836 73.5527 68.1348V69.8486Z" fill="#143A5A"/>
<path d="M60 72.2568V63.4766C60 63.0137 60.1201 62.6533 60.3604 62.3955C60.6064 62.1318 60.9463 62 61.3799 62H64.8252C66.3311 62 67.4707 62.3105 68.2441 62.9316C69.0234 63.5469 69.4131 64.4492 69.4131 65.6387C69.4131 66.582 69.1523 67.3525 68.6309 67.9502C68.1094 68.5479 67.3623 68.9287 66.3896 69.0928L69.4131 72.749C69.4248 72.7607 69.4307 72.7783 69.4307 72.8018C69.4307 72.8252 69.4248 72.8545 69.4131 72.8896C69.3896 72.96 69.334 73.0449 69.2461 73.1445C69.1641 73.2383 69.0645 73.3291 68.9473 73.417C68.8301 73.499 68.6748 73.5693 68.4814 73.6279C68.2939 73.6865 68.0947 73.7158 67.8838 73.7158C67.5146 73.7158 67.2012 73.6338 66.9434 73.4697C66.6914 73.3057 66.4219 73.0273 66.1348 72.6348L63.6562 69.5059H62.6455V72.5117C62.6455 72.8926 62.5459 73.1885 62.3467 73.3994C62.1533 73.6104 61.8691 73.7158 61.4941 73.7158H61.1162C60.7588 73.7158 60.4834 73.5898 60.29 73.3379C60.0967 73.0859 60 72.7256 60 72.2568ZM62.6104 67.5635H64.6406C65.3379 67.5635 65.8623 67.4111 66.2139 67.1064C66.5713 66.7959 66.75 66.3652 66.75 65.8145C66.75 65.2461 66.5684 64.8125 66.2051 64.5137C65.8418 64.2148 65.3027 64.0654 64.5879 64.0654H62.6104V67.5635Z" fill="#143A5A"/>
<path d="M89.9526 70.0011C89.9526 81.0196 81.0203 89.9539 69.9997 89.9539C63.0929 89.9539 57.0037 86.443 53.4233 81.1084C56.4702 82.9993 60.0655 84.0901 63.9168 84.0901C74.9373 84.0901 83.8696 75.1578 83.8696 64.1373C83.8696 60.0257 82.6248 56.2049 80.4932 53.03C86.1728 56.5452 89.9526 62.8318 89.9526 70.0011Z" fill="#FFC344"/>
<path d="M109.893 128.242C120.027 128.242 128.242 120.027 128.242 109.892C128.242 99.7582 120.027 91.5427 109.893 91.5427C99.7584 91.5427 91.543 99.7582 91.543 109.892C91.543 120.027 99.7584 128.242 109.893 128.242Z" fill="#F28CC4"/>
<path d="M30.1075 128.242C40.2418 128.242 48.4572 120.027 48.4572 109.892C48.4572 99.7582 40.2418 91.5427 30.1075 91.5427C19.9732 91.5427 11.7578 99.7582 11.7578 109.892C11.7578 120.027 19.9732 128.242 30.1075 128.242Z" fill="#E2DEE2"/>
<path d="M109.893 48.4572C120.027 48.4572 128.242 40.2418 128.242 30.1075C128.242 19.9732 120.027 11.7578 109.893 11.7578C99.7584 11.7578 91.543 19.9732 91.543 30.1075C91.543 40.2418 99.7584 48.4572 109.893 48.4572Z" fill="#C8EA88"/>
<path d="M106.531 119.204C103.171 117.055 101.139 113.341 101.139 109.352V102.307C101.139 101.971 101.376 101.683 101.704 101.617L101.884 101.582C104.546 101.051 107.082 100.079 109.42 98.6931L109.534 98.6258C109.755 98.4948 110.03 98.4948 110.251 98.6258L110.365 98.6931C112.703 100.079 115.239 101.051 117.901 101.582L118.08 101.617C118.409 101.683 118.646 101.971 118.646 102.307V109.374C118.646 113.353 116.624 117.059 113.277 119.211L110.298 121.128C110.067 121.277 109.77 121.277 109.539 121.129L106.531 119.204Z" fill="#F2F0F3"/>
<path d="M118.709 37.6611H101.076C100.263 37.6611 99.6035 37.002 99.6035 36.1889V33.5499L100.583 31.7921L99.6035 30.0343V24.0258C99.6035 23.2128 100.263 22.5537 101.076 22.5537H118.709C119.522 22.5537 120.181 23.2128 120.181 24.0258V30.0343L119.113 31.7921L120.181 33.5499V36.1892C120.181 37.002 119.522 37.6611 118.709 37.6611Z" fill="#A79BA7"/>
<path d="M21.2368 107.814H38.9778V116.242H21.2368V107.814Z" fill="#CBC4CC"/>
<path d="M19.3755 106.88L24.0065 100.486C24.2709 100.121 24.6946 99.9045 25.1453 99.9045H35.069C35.5199 99.9045 35.9435 100.121 36.2078 100.486L40.8388 106.88H19.3755Z" fill="#CBC4CC"/>
<path d="M100.67 69.9999C100.67 53.0883 86.9115 39.3296 69.9999 39.3296C53.0883 39.3296 39.3296 53.0883 39.3296 69.9999C39.3296 86.9115 53.0883 100.67 69.9999 100.67C74.7099 100.67 79.2272 99.6308 83.427 97.5812C84.2996 97.1553 84.6617 96.1027 84.2358 95.2306C83.8102 94.358 82.7576 93.9959 81.8853 94.4218C78.695 95.979 75.2954 96.8747 71.7577 97.0976V91.639C78.4217 91.1026 84.2452 87.5433 87.8537 82.3374L92.5829 85.0676C91.3627 86.899 89.9171 88.5912 88.2633 90.0952C87.5452 90.7484 87.4922 91.8601 88.1454 92.5784C88.7991 93.297 89.9108 93.3495 90.6287 92.6963C97.0102 86.8934 100.67 78.6207 100.67 69.9999ZM92.5803 54.9333L87.8537 57.6622C84.2452 52.4562 78.4217 48.8972 71.7577 48.3605V42.9033C80.4322 43.4607 88.0109 48.1079 92.5803 54.9333ZM68.2421 42.9036V48.3608C61.5781 48.8972 55.7548 52.4565 52.1462 57.6624L47.4195 54.9336C51.9889 48.1079 59.5676 43.4607 68.2421 42.9036ZM45.6575 57.9755L50.3829 60.7039C49.0414 63.5234 48.2893 66.6753 48.2893 69.9999C48.2893 73.3245 49.0414 76.4764 50.3829 79.2959L45.6575 82.0243C43.8587 78.3976 42.8452 74.3152 42.8452 69.9999C42.8452 65.6846 43.8587 61.6022 45.6575 57.9755ZM47.4197 85.0662L52.1464 82.3374C55.7548 87.5433 61.5781 91.1023 68.2423 91.639V97.0962C59.5676 96.5391 51.9889 91.8919 47.4197 85.0662ZM69.9999 88.1949C59.9672 88.1949 51.8049 80.0328 51.8049 69.9999C51.8049 59.967 59.9672 51.8049 69.9999 51.8049C80.0328 51.8049 88.1949 59.967 88.1949 69.9999C88.1949 80.0328 80.0328 88.1949 69.9999 88.1949ZM89.6169 79.2959C90.9584 76.4764 91.7105 73.3245 91.7105 69.9999C91.7105 66.6753 90.9584 63.5234 89.6169 60.7039L94.3426 57.9755C96.1414 61.6022 97.1548 65.6846 97.1548 69.9999C97.1548 74.2062 96.1688 78.3179 94.3395 82.0226L89.6169 79.2959Z" fill="#143A5A"/>
<path d="M16.356 79.9725C15.8781 80.8175 16.1755 81.8902 17.0207 82.3681L23.4878 86.0257C23.7543 86.1764 24.0529 86.2535 24.3534 86.2535C24.523 86.2535 24.6932 86.2292 24.8587 86.1795C25.3176 86.0417 25.7003 85.7227 25.9183 85.2959L29.4046 78.4772C29.8466 77.6129 29.504 76.5539 28.6396 76.1119C27.7755 75.6706 26.7163 76.0123 26.2743 76.8769L24.9946 79.3798C23.3695 71.6269 23.773 63.6197 26.1965 56.0391C26.4923 55.1145 25.9823 54.125 25.0574 53.8294C24.133 53.5329 23.1435 54.0436 22.848 54.9682C20.1437 63.4266 19.7748 72.3771 21.7523 81.005L18.7516 79.3076C17.9064 78.8302 16.8339 79.1274 16.356 79.9725Z" fill="#143A5A"/>
<path d="M85.2962 114.082L78.4776 110.596C77.6139 110.154 76.5543 110.496 76.1123 111.361C75.6702 112.225 76.0126 113.284 76.8773 113.726L79.3801 115.006C71.6277 116.631 63.6203 116.227 56.0392 113.804C55.1146 113.507 54.1253 114.018 53.8295 114.943C53.534 115.867 54.044 116.857 54.9686 117.152C59.8609 118.716 64.9176 119.5 69.9815 119.5C73.6724 119.5 77.3673 119.083 81.0048 118.249L79.3082 121.249C78.8303 122.094 79.1277 123.166 79.9729 123.644C80.2464 123.799 80.5436 123.872 80.8368 123.872C81.4497 123.872 82.045 123.551 82.3684 122.98L86.0261 116.513C86.2619 116.096 86.3172 115.6 86.1796 115.141C86.0418 114.683 85.7228 114.3 85.2962 114.082Z" fill="#143A5A"/>
<path d="M123.644 60.0273C124.122 59.1823 123.825 58.1096 122.98 57.6317L116.513 53.9741C116.095 53.7385 115.601 53.6827 115.141 53.8206C114.683 53.9584 114.3 54.2773 114.082 54.7041L110.595 61.5228C110.153 62.3872 110.496 63.4461 111.36 63.8881C111.617 64.0191 111.89 64.0813 112.159 64.0813C112.798 64.0813 113.415 63.7313 113.726 63.1231L115.005 60.6202C116.631 68.3729 116.227 76.3801 113.804 83.9609C113.508 84.8858 114.018 85.8751 114.942 86.1706C115.121 86.2276 115.301 86.2545 115.478 86.2545C116.222 86.2545 116.913 85.7783 117.152 85.0316C119.856 76.573 120.225 67.6222 118.248 58.9946L121.249 60.692C122.094 61.1691 123.166 60.8724 123.644 60.0273Z" fill="#143A5A"/>
<path d="M54.704 25.918L61.5224 29.4043C61.7786 29.5354 62.0519 29.5975 62.3214 29.5975C62.9606 29.5975 63.577 29.2476 63.888 28.6393C64.33 27.775 63.9876 26.7161 63.1232 26.274L60.6203 24.9943C68.3732 23.3692 76.3802 23.7728 83.9613 26.1962C84.861 26.4915 85.8775 25.9904 86.171 25.0574C86.4667 24.1326 85.9567 23.1433 85.0321 22.8477C76.5738 20.1437 67.623 19.7748 58.9954 21.752L60.6927 18.7513C61.1706 17.9064 60.8732 16.8336 60.0281 16.3558C59.1831 15.8783 58.1106 16.1755 57.6325 17.0204L53.9749 23.4876C53.7391 23.9045 53.6835 24.3997 53.8213 24.8586C53.9587 25.3173 54.2774 25.6998 54.704 25.918Z" fill="#143A5A"/>
<path d="M30.107 50.2141C34.9771 50.2141 39.6754 48.4511 43.3368 45.2493C46.9631 42.0787 49.3326 37.7188 50.009 32.973C50.1459 32.0118 49.4779 31.1216 48.517 30.9848C47.5558 30.8465 46.6656 31.5161 46.5288 32.4768C46.0626 35.7473 44.6348 38.6924 42.5594 41.0437C42.254 40.0105 41.6929 39.0562 40.9199 38.2919C40.1425 37.5238 39.175 36.9639 38.1217 36.6728L35.2818 35.8884V33.3477C37.1305 31.7111 38.2284 29.338 38.2284 26.8171V25.049C38.2284 21.862 36.3501 18.9583 33.4431 17.6512C31.3237 16.6989 28.8923 16.6982 26.7721 17.6514C23.8654 18.9583 21.9871 21.8622 21.9871 25.049V26.8171C21.9871 29.338 23.0852 31.7113 24.9337 33.3477V35.8886L22.0938 36.673C21.0405 36.9641 20.0727 37.5241 19.2955 38.2923C18.5205 39.0585 17.9584 40.0162 17.6537 41.0523C15.081 38.1288 13.5156 34.2984 13.5156 30.107C13.5156 20.9584 20.9584 13.5156 30.107 13.5156C37.3593 13.5156 43.7118 18.1534 45.9145 25.0562C46.2095 25.9809 47.1986 26.4906 48.1234 26.1965C49.0483 25.9012 49.559 24.9123 49.2637 23.9873C46.5939 15.621 38.8956 10 30.107 10C19.0199 10 10 19.0199 10 30.107C10 41.1941 19.0199 50.2141 30.107 50.2141ZM28.4493 36.2453V35.3758C28.99 35.533 29.5485 35.6146 30.1077 35.6146C30.667 35.6146 31.2255 35.533 31.7662 35.3758V36.2453C31.7662 36.7319 31.8848 37.1976 32.0948 37.6131C31.5834 38.1449 30.8814 38.4484 30.1077 38.4484C29.3341 38.4484 28.6323 38.1449 28.1207 37.6131C28.3307 37.1978 28.4493 36.7321 28.4493 36.2453ZM25.5027 25.049C25.5027 23.2434 26.567 21.598 28.2138 20.8577C29.4175 20.3165 30.7982 20.3167 32.0015 20.8574C33.6484 21.598 34.7127 23.2434 34.7127 25.049V26.8171C34.7127 28.6855 33.7033 30.4192 32.0786 31.3417L31.2843 31.7924C30.5587 32.2042 29.657 32.2045 28.9309 31.7924L28.1369 31.3417C26.5122 30.419 25.5027 28.6855 25.5027 26.8171V25.049ZM21.7668 40.7929C22.1179 40.446 22.5545 40.1931 23.0301 40.0619L25.1097 39.4874C26.287 41.0343 28.1223 41.9645 30.108 41.9645C32.0936 41.9645 33.929 41.0345 35.106 39.4877L37.1854 40.0621C37.6607 40.1936 38.0978 40.4462 38.4487 40.7929C38.9948 41.3327 39.3079 42.0827 39.3079 42.8505V43.8883C36.6538 45.6658 33.4778 46.6987 30.1073 46.6987C26.7065 46.6987 23.5424 45.6686 20.9078 43.9066V42.8507C20.9076 42.0824 21.2207 41.3324 21.7668 40.7929Z" fill="#143A5A"/>
<path d="M109.893 89.7859C98.806 89.7859 89.7861 98.8058 89.7861 109.893C89.7861 120.98 98.806 130 109.893 130C118.338 130 125.94 124.666 128.808 116.727C129.138 115.814 128.665 114.806 127.752 114.476C126.84 114.147 125.832 114.619 125.502 115.532C123.135 122.083 116.862 126.484 109.893 126.484C100.745 126.484 93.3018 119.042 93.3018 109.893C93.3018 100.744 100.745 93.3015 109.893 93.3015C118.399 93.3015 125.491 99.6688 126.389 108.112C126.492 109.078 127.357 109.776 128.323 109.674C129.288 109.572 129.988 108.706 129.885 107.741C128.796 97.5048 120.201 89.7859 109.893 89.7859Z" fill="#143A5A"/>
<path d="M30.107 89.7859C19.0199 89.7859 10 98.8058 10 109.893C10 114.461 11.5738 118.933 14.4318 122.487C17.2462 125.986 21.1916 128.469 25.5416 129.481C26.4869 129.7 27.4319 129.112 27.6517 128.167C27.8716 127.221 27.2833 126.277 26.3376 126.057C22.75 125.222 19.4948 123.172 17.1712 120.283C14.7798 117.309 13.5156 113.717 13.5156 109.893C13.5156 100.744 20.9584 93.3015 30.107 93.3015C39.2556 93.3015 46.6984 100.744 46.6984 109.893C46.6984 113.684 45.3873 117.39 43.0066 120.328C40.6586 123.226 37.3741 125.27 33.7579 126.082C32.8105 126.294 32.2152 127.235 32.4278 128.182C32.6113 128.999 33.337 129.555 34.1413 129.555C34.2688 129.555 34.3984 129.541 34.528 129.512C38.913 128.527 42.8943 126.051 45.7382 122.541C48.6245 118.979 50.2143 114.487 50.2143 109.893C50.2141 98.8058 41.1941 89.7859 30.107 89.7859Z" fill="#143A5A"/>
<path d="M109.892 50.2152C120.98 50.2152 130 41.1951 130 30.1075C130 19.0202 120.98 10 109.892 10C98.8048 10 89.7847 19.0202 89.7847 30.1075C89.7847 41.1951 98.8048 50.2152 109.892 50.2152ZM109.892 13.5156C119.041 13.5156 126.484 20.9587 126.484 30.1075C126.484 39.2563 119.041 46.6996 109.892 46.6996C100.744 46.6996 93.3003 39.2563 93.3003 30.1075C93.3003 20.9587 100.744 13.5156 109.892 13.5156Z" fill="#143A5A"/>
<path d="M118.245 99.8575C115.778 99.366 113.428 98.4655 111.261 97.1809L110.789 96.9011C110.236 96.5734 109.548 96.5732 108.996 96.9011L108.524 97.1807C106.356 98.4656 104.006 99.366 101.54 99.8575L100.795 100.006C99.9726 100.169 99.3804 100.891 99.3804 101.73V109.352C99.3804 113.963 101.7 118.2 105.584 120.685L108.971 122.852C109.26 123.037 109.589 123.13 109.919 123.13C110.249 123.13 110.58 123.036 110.87 122.85L114.228 120.69C118.095 118.202 120.404 113.972 120.404 109.374V101.73C120.404 100.891 119.812 100.169 118.989 100.006L118.245 99.8575ZM102.896 109.352V103.163C104.707 102.752 106.459 102.148 108.135 101.36V118.143L107.478 117.724C104.609 115.888 102.896 112.758 102.896 109.352ZM116.888 109.374C116.888 112.771 115.183 115.896 112.326 117.733L111.65 118.168V101.36C113.325 102.148 115.078 102.752 116.888 103.163V109.374Z" fill="#143A5A"/>
<path d="M101.075 39.4189H118.709C120.49 39.4189 121.939 37.97 121.939 36.1892V24.0258C121.939 22.2448 120.49 20.7961 118.709 20.7961H101.075C99.2944 20.7961 97.8457 22.245 97.8457 24.0258V36.1892C97.8457 37.9702 99.2944 39.4189 101.075 39.4189ZM101.361 35.9033V33.5494H118.423V35.9033H101.361ZM118.423 24.3115V30.0338H101.361V24.3115H118.423Z" fill="#143A5A"/>
<path d="M17.7441 116.88C17.7441 117.851 18.5312 118.638 19.502 118.638H40.7129C41.6837 118.638 42.4707 117.851 42.4707 116.88C42.4707 115.917 41.6959 115.136 40.7359 115.124V108.637C41.6961 108.624 42.4707 107.843 42.4707 106.88C42.4707 105.909 41.6837 105.122 40.7129 105.122H40.3801L36.4927 99.7554C36.162 99.299 35.6328 99.0286 35.0691 99.0286H25.1457C24.582 99.0286 24.0526 99.2988 23.7221 99.7554L19.835 105.122H19.5022C18.5314 105.122 17.7444 105.909 17.7444 106.88C17.7444 107.843 18.5192 108.624 19.4792 108.637V115.124C18.519 115.136 17.7441 115.917 17.7441 116.88ZM22.9948 108.638H25.393V115.123H22.9948V108.638ZM37.2202 108.638V115.123H34.8221V108.638H37.2202ZM31.3065 115.123H28.9086V108.638H31.3065V115.123ZM26.0431 102.544H34.172L36.0392 105.122H24.1759L26.0431 102.544Z" fill="#143A5A"/>
</g>
<defs>
<clipPath id="clip0_543_3377">
<rect width="120" height="120" fill="white" transform="translate(10 10)"/>
</clipPath>
</defs>
</svg>
