<svg width="140" height="140" viewBox="0 0 140 140" fill="none" xmlns="http://www.w3.org/2000/svg">
<rect width="140" height="140" rx="60" fill="#F2F3F8"/>
<g clip-path="url(#clip0_543_3402)">
<path d="M125.763 114.702H38.6306C37.2606 114.702 36.1499 113.591 36.1499 112.221V59.1074C36.1499 57.7374 37.2606 56.6267 38.6306 56.6267H125.763C127.133 56.6267 128.244 57.7374 128.244 59.1074V112.221C128.243 113.591 127.133 114.702 125.763 114.702Z" fill="#A6D786"/>
<path d="M38.6306 56.6267C37.2606 56.6267 36.1499 57.7372 36.1499 59.1074V87.614H101.369C105.32 87.614 108.534 84.3998 108.534 80.4489V56.6267H38.6306Z" fill="#94CF6F"/>
<path d="M121.217 100.892V70.4367C117.47 70.4367 114.433 67.3997 114.433 63.6536H49.9599C49.9599 67.3997 46.9229 70.4367 43.1768 70.4367V100.892C46.9229 100.892 49.9599 103.929 49.9599 107.675H114.433C114.433 103.929 117.47 100.892 121.217 100.892Z" fill="#DFF0D3"/>
<path d="M49.9599 63.6536C49.9599 67.3997 46.9229 70.4367 43.1768 70.4367V87.6139H101.37C105.32 87.6139 108.535 84.3997 108.535 80.4488V63.6536H49.9599Z" fill="#C9E7B4"/>
<path d="M82.1966 100.27C90.2628 100.27 96.8018 93.7306 96.8018 85.6643C96.8018 77.5981 90.2628 71.0591 82.1966 71.0591C74.1303 71.0591 67.5913 77.5981 67.5913 85.6643C67.5913 93.7306 74.1303 100.27 82.1966 100.27Z" fill="#C9E7B4"/>
<path d="M82.1966 71.0591C74.1304 71.0591 67.5913 77.5981 67.5913 85.6643C67.5913 86.3258 67.6396 86.9757 67.7246 87.6138H96.6683C96.7535 86.9755 96.8016 86.3258 96.8016 85.6643C96.8018 77.5981 90.2627 71.0591 82.1966 71.0591Z" fill="#B8DE9C"/>
<path d="M101.37 82.9293H14.2375C12.8675 82.9293 11.7568 81.8186 11.7568 80.4486V27.3347C11.7568 25.9647 12.8675 24.854 14.2375 24.854H101.37C102.74 24.854 103.85 25.9647 103.85 27.3347V80.4486C103.85 81.8188 102.74 82.9293 101.37 82.9293Z" fill="#B8DE9C"/>
<path d="M27.922 76.4076C24.9216 76.4076 22.4892 73.9751 22.4892 70.9747V24.8542H14.2375C12.8675 24.8542 11.7568 25.9647 11.7568 27.3349V80.4489C11.7568 81.8188 12.8675 82.9295 14.2375 82.9295H101.37C102.74 82.9295 103.85 81.8188 103.85 80.4489V76.4076H27.922Z" fill="#A6D786"/>
<path d="M96.8237 69.1194V38.664C93.0775 38.664 90.0406 35.627 90.0406 31.8809H25.5668C25.5668 35.627 22.5299 38.664 18.7837 38.664V69.1194C22.5299 69.1194 25.5668 72.1563 25.5668 75.9025H90.0406C90.0406 72.1563 93.0773 69.1194 96.8237 69.1194Z" fill="#DFF0D3"/>
<path d="M22.4893 37.5613C21.4239 38.2579 20.1516 38.664 18.7837 38.664V69.1194C20.1516 69.1194 21.4239 69.5258 22.4893 70.2221V37.5613Z" fill="#C9E7B4"/>
<path d="M57.8035 68.4971C65.8697 68.4971 72.4087 61.9581 72.4087 53.8919C72.4087 45.8256 65.8697 39.2866 57.8035 39.2866C49.7372 39.2866 43.1982 45.8256 43.1982 53.8919C43.1982 61.9581 49.7372 68.4971 57.8035 68.4971Z" fill="#C9E7B4"/>
<path d="M105.607 80.4489V27.3348C105.607 24.9984 103.706 23.0977 101.37 23.0977H28.8077C27.8375 23.0977 27.051 23.8839 27.051 24.8543C27.051 25.8247 27.8375 26.611 28.8077 26.611H101.369C101.769 26.611 102.093 26.9356 102.093 27.3348V80.4489C102.093 80.8481 101.769 81.1729 101.369 81.1729H14.2373C13.8382 81.1729 13.5134 80.8481 13.5134 80.4489V27.3348C13.5134 26.9356 13.8382 26.611 14.2373 26.611H21.3214C22.2916 26.611 23.0781 25.8247 23.0781 24.8543C23.0781 23.8839 22.2916 23.0977 21.3214 23.0977H14.2373C11.901 23.0977 10 24.9984 10 27.3348V80.4489C10 82.7856 11.901 84.6863 14.2373 84.6863H101.369C103.706 84.686 105.607 82.7853 105.607 80.4489Z" fill="#143A5A"/>
<path d="M18.7835 36.9074C17.8134 36.9074 17.0269 37.6937 17.0269 38.6641V69.1194C17.0269 70.0898 17.8134 70.8761 18.7835 70.8761C21.5551 70.8761 23.81 73.131 23.81 75.9026C23.81 76.8729 24.5965 77.6592 25.5666 77.6592H90.0404C91.0106 77.6592 91.7971 76.8729 91.7971 75.9026C91.7971 73.131 94.052 70.8761 96.8236 70.8761C97.7937 70.8761 98.5802 70.0898 98.5802 69.1194V38.6641C98.5802 37.6937 97.7937 36.9074 96.8236 36.9074C94.052 36.9074 91.7971 34.6525 91.7971 31.8809C91.7971 30.9106 91.0106 30.1243 90.0404 30.1243H25.5666C24.5965 30.1243 23.81 30.9106 23.81 31.8809C23.81 34.6525 21.5551 36.9074 18.7835 36.9074ZM27.1418 33.6376H88.4653C89.1584 36.9399 91.7646 39.5461 95.0669 40.2392V67.5445C91.7646 68.2376 89.1584 70.8438 88.4653 74.1461H27.1418C26.4487 70.8438 23.8425 68.2376 20.5402 67.5445V40.2392C23.8425 39.5461 26.4487 36.9399 27.1418 33.6376Z" fill="#143A5A"/>
<path d="M125.763 55.314H110.877C109.907 55.314 109.12 56.1003 109.12 57.0706C109.12 58.041 109.907 58.8273 110.877 58.8273H125.763C126.162 58.8273 126.487 59.1522 126.487 59.5513V91.286C126.487 92.2564 127.273 93.0427 128.243 93.0427C129.213 93.0427 130 92.2564 130 91.286V59.5513C130 57.2147 128.099 55.314 125.763 55.314Z" fill="#143A5A"/>
<path d="M128.243 97.0159C127.273 97.0159 126.487 97.8022 126.487 98.7725V112.665C126.487 113.064 126.162 113.389 125.763 113.389H38.6302C38.2311 113.389 37.9064 113.064 37.9064 112.665V89.9561C37.9064 88.9858 37.1199 88.1995 36.1497 88.1995C35.1796 88.1995 34.3931 88.9858 34.3931 89.9561V112.665C34.3931 115.002 36.2938 116.902 38.6302 116.902H125.763C128.099 116.902 130 115.002 130 112.665V98.7725C130 97.8024 129.213 97.0159 128.243 97.0159Z" fill="#143A5A"/>
<path d="M43.1766 88.1993C42.2064 88.1993 41.4199 88.9856 41.4199 89.956V101.336C41.4199 102.306 42.2064 103.093 43.1766 103.093C45.9482 103.093 48.203 105.348 48.203 108.119C48.203 109.089 48.9896 109.876 49.9597 109.876H114.434C115.404 109.876 116.19 109.089 116.19 108.119C116.19 105.348 118.445 103.093 121.217 103.093C122.187 103.093 122.973 102.306 122.973 101.336V70.8806C122.973 69.9102 122.187 69.1239 121.217 69.1239C118.445 69.1239 116.19 66.8691 116.19 64.0973C116.19 63.1269 115.404 62.3406 114.434 62.3406H110.877C109.907 62.3406 109.12 63.1269 109.12 64.0973C109.12 65.0676 109.907 65.8539 110.877 65.8539H112.858C113.551 69.1562 116.158 71.7627 119.46 72.4558V99.7611C116.158 100.454 113.552 103.061 112.858 106.362H51.5349C50.8416 103.061 48.2354 100.454 44.9333 99.7611V89.9562C44.9333 88.9858 44.1468 88.1993 43.1766 88.1993Z" fill="#143A5A"/>
<path d="M82.1964 102.47C89.5559 102.47 96.0468 97.5141 97.9805 90.4179C98.2356 89.4819 97.6835 88.5162 96.7473 88.2611C95.8109 88.0063 94.8457 88.5584 94.5906 89.4943C93.0723 95.0656 87.9756 98.9567 82.1962 98.9567C76.4167 98.9567 71.32 95.0656 69.8018 89.4943C69.5467 88.5581 68.5808 88.0063 67.645 88.2611C66.7088 88.5162 66.1568 89.4819 66.4118 90.4179C68.3458 97.5141 74.8366 102.47 82.1964 102.47Z" fill="#143A5A"/>
<path d="M110.517 38.3986H113.303C116.125 38.3986 118.421 40.6947 118.421 43.5169V46.6819L117.466 45.7865C116.758 45.1229 115.647 45.1588 114.983 45.8666C114.32 46.5744 114.355 47.6863 115.063 48.3498L118.976 52.0185C119.314 52.3354 119.746 52.4935 120.178 52.4935C120.609 52.4935 121.041 52.3351 121.379 52.0185L125.292 48.3498C126 47.6863 126.036 46.5746 125.372 45.8666C124.709 45.159 123.597 45.1229 122.889 45.7865L121.934 46.6819V43.5169C121.934 38.7574 118.062 34.8853 113.303 34.8853H110.516C109.546 34.8853 108.76 35.6715 108.76 36.6419C108.76 37.6123 109.547 38.3986 110.517 38.3986Z" fill="#143A5A"/>
<path d="M29.8947 103.699H27.1086C24.2865 103.699 21.9904 101.403 21.9904 98.5803V95.4152L22.9455 96.3107C23.2845 96.6283 23.7161 96.7857 24.1466 96.7857C24.6151 96.7857 25.0828 96.5992 25.4286 96.2306C26.0921 95.5228 26.0563 94.4109 25.3484 93.7473L21.4353 90.0787C20.7595 89.4451 19.7081 89.4451 19.0324 90.0787L15.1192 93.7473C14.4114 94.4109 14.3755 95.5225 15.0391 96.2306C15.7027 96.9379 16.8143 96.974 17.5221 96.3107L18.4773 95.4152V98.5803C18.4773 103.34 22.3495 107.212 27.1089 107.212H29.8947C30.8649 107.212 31.6514 106.426 31.6514 105.455C31.6514 104.485 30.8649 103.699 29.8947 103.699Z" fill="#143A5A"/>
<path d="M70.444 46.5796C67.917 42.2207 63.2042 39.2866 57.803 39.2866C49.7368 39.2866 43.1978 45.8257 43.1978 53.8919C43.1978 61.9581 49.7368 68.4971 57.803 68.4971C65.8692 68.4971 72.4082 61.9581 72.4082 53.8919C72.4082 53.8717 72.4068 53.8518 72.4066 53.8314" stroke="#143A5A" stroke-width="3.5" stroke-miterlimit="10" stroke-linecap="round" stroke-linejoin="round"/>
</g>
<defs>
<clipPath id="clip0_543_3402">
<rect width="120" height="120" fill="white" transform="translate(10 10)"/>
</clipPath>
</defs>
</svg>
