<svg width="140" height="140" viewBox="0 0 140 140" fill="none" xmlns="http://www.w3.org/2000/svg">
<rect width="140" height="140" rx="60" fill="#F2F3F8"/>
<g clip-path="url(#clip0_543_3185)">
<path d="M123.507 93.6756H52.4802C49.865 93.6756 47.7451 91.5557 47.7451 88.9405V51.0592C47.7451 48.444 49.865 46.3241 52.4802 46.3241H123.507C126.122 46.3241 128.242 48.444 128.242 51.0592V88.9403C128.242 91.5554 126.122 93.6756 123.507 93.6756Z" fill="#A2E62E"/>
<path d="M123.507 46.3241H115.694C118.309 46.3241 120.429 48.444 120.429 51.0592V88.9403C120.429 91.5554 118.309 93.6754 115.694 93.6754H123.507C126.122 93.6754 128.242 91.5554 128.242 88.9403V51.0592C128.242 48.4443 126.122 46.3241 123.507 46.3241Z" fill="#8BC727"/>
<path d="M54.8477 69.9998L33.5395 53.4269V62.8973H11.7578V77.1025H33.5395V86.5729L54.8477 69.9998Z" fill="#62DBFB"/>
<path d="M54.8475 69.9998L33.5393 53.4269V62.897H28.3814C26.91 68.3432 24.0411 73.2149 20.1807 77.1025H33.5393V86.5729L54.8475 69.9998Z" fill="#01D0FB"/>
<path d="M91.2782 29.7512L69.97 13.1781V22.6485H36.3506V36.854H69.97V46.3241L91.2782 29.7512Z" fill="#62DBFB"/>
<path d="M91.2782 29.7512L69.97 13.1781V22.6485H63.4604C61.4237 28.2871 57.8509 33.1902 53.2471 36.854H69.97V46.3241L91.2782 29.7512Z" fill="#01D0FB"/>
<path d="M91.2782 110.248L69.97 126.821V117.351H36.3506V103.146H69.97V93.6755L91.2782 110.248Z" fill="#62DBFB"/>
<path d="M91.2784 110.248L69.9702 93.6755V103.146H61.7882C60.3168 108.592 57.4478 113.464 53.5874 117.351H69.9702V126.821L91.2784 110.248Z" fill="#01D0FB"/>
<path d="M114.8 111.307C113.138 111.524 111.488 111.142 110.109 110.239L103.311 105.79C100.955 104.248 99.5361 101.623 99.5361 98.8077V82.1043C99.5361 81.3922 99.9878 80.7585 100.661 80.5264L113.781 76.0025C113.816 75.9906 113.852 75.9843 113.889 75.9843C113.927 75.9843 113.963 75.9903 113.998 76.0025L127.118 80.5264C127.791 80.7585 128.243 81.3922 128.243 82.1043V98.8077C128.243 101.623 126.823 104.248 124.468 105.79L117.751 110.187C116.86 110.77 115.855 111.17 114.8 111.307Z" fill="#FFE177"/>
<path d="M127.117 80.5264L121.139 78.4651V91.7049C121.139 94.52 119.72 97.1455 117.365 98.6872L110.647 103.084C109.757 103.667 108.752 104.067 107.697 104.205C106.035 104.422 104.385 104.04 103.006 103.137L99.853 101.073C100.393 102.987 101.605 104.673 103.311 105.79L110.109 110.24C111.488 111.143 113.138 111.524 114.8 111.308C115.855 111.17 116.86 110.77 117.75 110.187L124.467 105.79C126.823 104.248 128.242 101.623 128.242 98.8077V82.1042C128.242 81.3922 127.79 80.7587 127.117 80.5264Z" fill="#FFC344"/>
<path d="M112.511 92.2947L111.254 91.0378C109.948 89.7318 107.831 89.7318 106.525 91.0378C105.219 92.3437 105.219 94.4608 106.525 95.7667L110.147 99.3883C111.453 100.694 113.57 100.694 114.876 99.3883L121.185 93.0794C122.491 91.7735 122.491 89.6564 121.185 88.3504C119.879 87.0445 117.762 87.0445 116.456 88.3504L112.511 92.2947Z" fill="#F2FBFF"/>
<path d="M123.508 44.5656H108.055C107.085 44.5656 106.298 45.3524 106.298 46.3234C106.298 47.2944 107.085 48.0812 108.055 48.0812H123.508C125.149 48.0812 126.484 49.4174 126.484 51.0601V78.4492L122.897 77.2122V60.5296C122.897 59.5586 122.11 58.7718 121.139 58.7718C118.192 58.7718 115.795 56.3741 115.795 53.4269C115.795 52.4558 115.007 51.6691 114.037 51.6691H61.9502C60.9794 51.6691 60.1923 52.4558 60.1923 53.4269C60.1923 56.3739 57.7947 58.7718 54.8474 58.7718C53.8766 58.7718 53.0896 59.5586 53.0896 60.5296V66.4058L49.5013 63.6154V51.0601C49.5013 49.4174 50.8377 48.0812 52.4802 48.0812H99.8521C100.823 48.0812 101.61 47.2944 101.61 46.3234C101.61 45.3524 100.823 44.5656 99.8521 44.5656H75.0941L92.3573 31.1387C92.7855 30.8057 93.036 30.2938 93.036 29.7512C93.036 29.2087 92.7857 28.6968 92.3573 28.3637L71.0493 11.7906C70.5194 11.3786 69.8008 11.3041 69.198 11.5991C68.5949 11.8942 68.2124 12.5069 68.2124 13.1781V20.8907H31.5885C30.6177 20.8907 29.8307 21.6775 29.8307 22.6485C29.8307 23.6195 30.6177 24.4063 31.5885 24.4063H34.5927V27.9934H22.6321C21.6613 27.9934 20.8743 28.7802 20.8743 29.7512C20.8743 30.7223 21.6613 31.5091 22.6321 31.5091H34.5927V35.0962H31.0298C30.059 35.0962 29.272 35.883 29.272 36.854C29.272 37.825 30.059 38.6118 31.0298 38.6118H68.2124V44.5656H52.4805C48.8995 44.5656 45.9859 47.4791 45.9859 51.0601V60.8812L34.6176 52.0398C34.0877 51.6276 33.3693 51.5533 32.766 51.8483C32.163 52.1434 31.7805 52.7561 31.7805 53.4273V61.1406H26.732C25.7612 61.1406 24.9742 61.9274 24.9742 62.8984C24.9742 63.8694 25.7612 64.6562 26.732 64.6562H33.5383C34.5091 64.6562 35.2961 63.8694 35.2961 62.8984V57.0212L51.9843 70L35.2961 82.9787V77.1015C35.2961 76.1305 34.5091 75.3437 33.5383 75.3437H13.5156V64.6562H18.5336C19.5044 64.6562 20.2914 63.8694 20.2914 62.8984C20.2914 61.9274 19.5044 61.1406 18.5336 61.1406H11.7578C10.787 61.1406 10 61.9274 10 62.8984V77.1015C10 78.0726 10.787 78.8594 11.7578 78.8594H31.7805V86.5726C31.7805 87.2439 32.1627 87.8568 32.766 88.1516C33.0112 88.2716 33.2753 88.3305 33.538 88.3305C33.922 88.3305 34.3028 88.2048 34.6173 87.9602L45.9869 79.1179V88.9408C45.9869 92.5209 48.8997 95.4337 52.4798 95.4337H68.2115V101.387L31.0295 101.388C30.0588 101.388 29.2717 102.175 29.2717 103.146C29.2717 104.117 30.0588 104.904 31.0295 104.904H34.5927V108.491H22.6321C21.6613 108.491 20.8743 109.278 20.8743 110.249C20.8743 111.22 21.6613 112.007 22.6321 112.007H34.593V115.594H31.5885C30.6177 115.594 29.8307 116.38 29.8307 117.351C29.8307 118.322 30.6177 119.109 31.5885 119.109L53.5867 119.109C54.5575 119.109 55.3445 118.322 55.3445 117.351C55.3445 116.38 54.5575 115.593 53.5867 115.593H38.1086V104.903H69.9695C70.9403 104.903 71.7273 104.117 71.7273 103.146V97.2707L88.4155 110.25L71.7273 123.228V117.351C71.7273 116.38 70.9403 115.593 69.9695 115.593H61.7898C60.8191 115.593 60.032 116.38 60.032 117.351C60.032 118.322 60.8191 119.109 61.7898 119.109H68.2117V126.822C68.2117 127.493 68.594 128.106 69.1973 128.401C69.7975 128.695 70.5175 128.623 71.0488 128.209L92.3582 111.637C92.7864 111.304 93.0369 110.792 93.0369 110.249C93.0369 109.707 92.7864 109.195 92.3582 108.862L75.0923 95.4334H97.7779V98.8077C97.7779 102.227 99.4863 105.387 102.348 107.26L109.146 111.71C110.561 112.637 112.215 113.124 113.898 113.124C115.601 113.126 117.237 112.62 118.713 111.657L125.43 107.26C128.292 105.388 130 102.227 130 98.8077V51.0601C130 47.4791 127.088 44.5656 123.508 44.5656ZM38.1084 35.0962V24.4063H69.97C70.9408 24.4063 71.7278 23.6195 71.7278 22.6485V16.7723L88.4148 29.7512L71.7278 42.73V36.854C71.7278 35.883 70.9408 35.0962 69.97 35.0962H38.1084ZM63.5329 55.1849H112.454C113.157 58.663 115.904 61.4097 119.382 62.1126V76L114.572 74.3413C114.131 74.189 113.643 74.1899 113.207 74.3411L100.087 78.865C98.7058 79.3415 97.7777 80.6432 97.7777 82.1045V84.8151H63.5329C62.83 81.3369 60.0834 78.5903 56.6052 77.8874V62.1123C60.0834 61.4094 62.83 58.6628 63.5329 55.1849ZM52.48 91.9178C50.8384 91.9178 49.5027 90.5823 49.5027 88.9405V76.3834L53.0898 73.5937V79.4699C53.0898 80.4409 53.8769 81.2277 54.8477 81.2277C57.7949 81.2277 60.1926 83.6254 60.1926 86.5726C60.1926 87.5437 60.9796 88.3305 61.9504 88.3305H97.7779V91.9178H52.48ZM126.484 98.8077C126.484 101.038 125.371 103.098 123.505 104.319L116.787 108.716C116.089 109.173 115.323 109.467 114.572 109.565C113.343 109.725 112.1 109.442 111.071 108.769L104.273 104.319C102.407 103.098 101.293 101.038 101.293 98.808V82.1678L113.889 77.8246L126.484 82.1676V98.8077Z" fill="#143A5A"/>
<path d="M87.9933 81.228C94.1846 81.228 99.2213 76.1913 99.2213 70C99.2213 63.8088 94.1844 58.772 87.9933 58.772C81.8021 58.772 76.7651 63.8088 76.7651 70C76.7651 76.1913 81.8021 81.228 87.9933 81.228ZM87.9933 62.2874C92.2461 62.2874 95.7057 65.7473 95.7057 69.9998C95.7057 74.2523 92.2458 77.7121 87.9933 77.7121C83.7406 77.7121 80.2808 74.2523 80.2808 69.9998C80.2808 65.7473 83.7406 62.2874 87.9933 62.2874Z" fill="#143A5A"/>
<path d="M16.4927 24.4063H24.0121C24.9829 24.4063 25.7699 23.6195 25.7699 22.6485C25.7699 21.6775 24.9829 20.8907 24.0121 20.8907H16.4927C15.5219 20.8907 14.7349 21.6775 14.7349 22.6485C14.7349 23.6195 15.5219 24.4063 16.4927 24.4063Z" fill="#143A5A"/>
<path d="M23.4534 35.0962H18.8604C17.8896 35.0962 17.1025 35.883 17.1025 36.854C17.1025 37.825 17.8896 38.6118 18.8604 38.6118H23.4534C24.4242 38.6118 25.2112 37.825 25.2112 36.854C25.2112 35.883 24.4242 35.0962 23.4534 35.0962Z" fill="#143A5A"/>
<path d="M11.7578 31.509H15.0559C16.0267 31.509 16.8137 30.7222 16.8137 29.7512C16.8137 28.7802 16.0267 27.9934 15.0559 27.9934H11.7578C10.787 27.9934 10 28.7802 10 29.7512C10 30.7222 10.787 31.509 11.7578 31.509Z" fill="#143A5A"/>
<path d="M41.8285 97.801C42.7993 97.801 43.5863 97.0142 43.5863 96.0432C43.5863 95.0722 42.7993 94.2854 41.8285 94.2854H37.0674C36.0966 94.2854 35.3096 95.0722 35.3096 96.0432C35.3096 97.0142 36.0966 97.801 37.0674 97.801H41.8285Z" fill="#143A5A"/>
<path d="M31.2485 96.0432C31.2485 95.0722 30.4614 94.2854 29.4906 94.2854H16.4927C15.5219 94.2854 14.7349 95.0722 14.7349 96.0432C14.7349 97.0142 15.5219 97.801 16.4927 97.801H29.4906C30.4614 97.801 31.2485 97.014 31.2485 96.0432Z" fill="#143A5A"/>
<path d="M11.7578 52.817H13.6354C14.6062 52.817 15.3932 52.0302 15.3932 51.0592C15.3932 50.0882 14.6062 49.3014 13.6354 49.3014H11.7578C10.787 49.3014 10 50.0882 10 51.0592C10 52.0302 10.787 52.817 11.7578 52.817Z" fill="#143A5A"/>
<path d="M19.4536 51.0592C19.4536 52.0302 20.2406 52.817 21.2114 52.817H27.147C28.1178 52.817 28.9048 52.0302 28.9048 51.0592C28.9048 50.0882 28.1178 49.3014 27.147 49.3014H21.2114C20.2406 49.3014 19.4536 50.0882 19.4536 51.0592Z" fill="#143A5A"/>
<path d="M24.0121 115.593H16.4927C15.5219 115.593 14.7349 116.38 14.7349 117.351C14.7349 118.322 15.5219 119.109 16.4927 119.109H24.0121C24.9829 119.109 25.7699 118.322 25.7699 117.351C25.7699 116.38 24.9829 115.593 24.0121 115.593Z" fill="#143A5A"/>
<path d="M18.8604 101.388C17.8896 101.388 17.1025 102.175 17.1025 103.146C17.1025 104.117 17.8896 104.904 18.8604 104.904H23.4534C24.4242 104.904 25.2112 104.117 25.2112 103.146C25.2112 102.175 24.4242 101.388 23.4534 101.388H18.8604Z" fill="#143A5A"/>
<path d="M16.8137 110.249C16.8137 109.278 16.0267 108.491 15.0559 108.491H11.7578C10.787 108.491 10 109.278 10 110.249C10 111.22 10.787 112.006 11.7578 112.006H15.0559C16.0267 112.006 16.8137 111.22 16.8137 110.249Z" fill="#143A5A"/>
<path d="M112.498 89.7949C111.534 88.8311 110.253 88.3002 108.89 88.3002C107.528 88.3002 106.246 88.8311 105.283 89.7946C104.319 90.7581 103.789 92.0392 103.789 93.4024C103.789 94.765 104.319 96.0461 105.283 97.0099L108.904 100.631C109.868 101.595 111.149 102.126 112.512 102.126C113.874 102.126 115.156 101.595 116.119 100.631L122.428 94.3223C123.392 93.3588 123.922 92.0777 123.922 90.7145C123.922 89.3519 123.392 88.0708 122.428 87.1073C121.465 86.1435 120.183 85.6127 118.82 85.6127C117.458 85.6127 116.176 86.1435 115.213 87.107L112.512 89.8084L112.498 89.7949ZM113.755 93.5376L117.699 89.5931C117.999 89.2935 118.397 89.1285 118.821 89.1285C119.244 89.1285 119.643 89.2935 119.942 89.5933C120.242 89.8926 120.407 90.2913 120.407 90.7145C120.407 91.1383 120.242 91.5367 119.942 91.836L113.633 98.1452C113.334 98.4447 112.935 98.6097 112.512 98.6097C112.088 98.6097 111.69 98.4447 111.39 98.1449L107.769 94.5236C107.469 94.2243 107.304 93.8256 107.304 93.4024C107.304 92.9786 107.469 92.5802 107.769 92.2806C108.068 91.9811 108.467 91.8161 108.89 91.8161C109.314 91.8161 109.712 91.9811 110.012 92.2809L111.269 93.5376C111.955 94.2238 113.068 94.2238 113.755 93.5376Z" fill="#143A5A"/>
</g>
<defs>
<clipPath id="clip0_543_3185">
<rect width="120" height="120" fill="white" transform="translate(10 10)"/>
</clipPath>
</defs>
</svg>
