<svg width="140" height="140" viewBox="0 0 140 140" fill="none" xmlns="http://www.w3.org/2000/svg">
<rect width="140" height="140" rx="60" fill="#F2F3F8"/>
<g clip-path="url(#clip0_543_3382)">
<path d="M85.6264 128.242H25.2523C23.6042 128.242 22.0236 127.587 20.8582 126.422C19.6929 125.256 19.0381 123.676 19.0381 122.028V17.9723C19.0381 16.3242 19.6927 14.7435 20.8582 13.5782C22.0236 12.4129 23.6042 11.7581 25.2523 11.7581H85.6264C87.2745 11.7581 88.8551 12.4127 90.0204 13.5782C91.1857 14.7435 91.8406 16.3242 91.8406 17.9723V122.028C91.8406 123.676 91.186 125.256 90.0204 126.422C88.8549 127.587 87.2745 128.242 85.6264 128.242Z" fill="#3E4F55"/>
<path d="M32.577 126.422C31.4117 125.256 30.7568 123.676 30.7568 122.028V17.9723C30.7568 16.3242 31.4114 14.7435 32.577 13.5782C33.7423 12.4129 35.3229 11.7581 36.9711 11.7581H25.2523C23.6042 11.7581 22.0236 12.4127 20.8582 13.5782C19.6929 14.7435 19.0381 16.3242 19.0381 17.9723V122.028C19.0381 123.676 19.6927 125.256 20.8582 126.422C22.0236 127.587 23.6042 128.242 25.2523 128.242H36.9711C35.3229 128.242 33.7423 127.587 32.577 126.422Z" fill="#303D42"/>
<path d="M84.5606 113.681H26.3188V19.0383H44.5195C46.5299 19.0383 48.1596 20.6682 48.1596 22.6784C48.1596 24.6889 49.7894 26.3185 51.7996 26.3185H59.0798C61.0903 26.3185 62.7199 24.6886 62.7199 22.6784C62.7199 20.6679 64.3497 19.0383 66.3599 19.0383H84.5606V113.681Z" fill="#77D4F5"/>
<path d="M26.3188 19.0383H30.7574V113.681H26.3188V19.0383Z" fill="#68B3F3"/>
<path d="M49.9791 55.4397H39.0589L33.5986 59.0798V69.4094C33.5986 76.2836 37.9974 82.3867 44.5189 84.5606C51.0404 82.3867 55.4391 76.2836 55.4391 69.4094V59.0798L49.9791 55.4397Z" fill="#82D65F"/>
<path d="M40.6299 69.4094V59.0798L46.0901 55.4397H39.0589L33.5986 59.0798V69.4094C33.5986 76.2836 37.9974 82.3867 44.5189 84.5606C45.7749 84.142 46.9521 83.5774 48.0345 82.8897C43.4975 80.0069 40.6299 74.9596 40.6299 69.4094Z" fill="#77BF51"/>
<path d="M118.149 91.8406H62.7197V48.1592H118.149C119.702 48.1592 120.961 49.4185 120.961 50.9717V89.0281C120.961 90.5813 119.702 91.8406 118.149 91.8406Z" fill="#FFE07D"/>
<path d="M62.7197 48.1592H69.751V91.8406H62.7197V48.1592Z" fill="#FFD064"/>
<path d="M62.7197 55.4397H120.961V62.7199H62.7197V55.4397Z" fill="#D7E4F7"/>
<path d="M62.7197 55.4395H69.751V62.7196H62.7197V55.4395Z" fill="#BED2EE"/>
<path d="M99.1206 70H113.681V77.2802H99.1206V70Z" fill="#FF5576"/>
<path d="M55.4395 20.7961C54.4687 20.7961 53.6816 20.0091 53.6816 19.0383C53.6816 18.0675 54.4687 17.2805 55.4395 17.2805C56.4102 17.2805 57.1973 18.0675 57.1973 19.0383C57.1973 20.0091 56.4102 20.7961 55.4395 20.7961Z" fill="#143A5A"/>
<path d="M62.7197 122.719C63.6905 122.719 64.4775 121.932 64.4775 120.962C64.4775 119.991 63.6905 119.204 62.7197 119.204H48.1592C47.1884 119.204 46.4014 119.991 46.4014 120.962C46.4014 121.932 47.1884 122.719 48.1592 122.719H62.7197Z" fill="#143A5A"/>
<path d="M57.1971 69.4094V59.0798C57.1971 58.492 56.9035 57.9431 56.4143 57.6173L50.9541 53.9772C50.6654 53.7848 50.326 53.6819 49.9791 53.6819H39.0589C38.712 53.6819 38.3726 53.7845 38.0839 53.9772L32.6236 57.6173C32.1347 57.9433 31.8408 58.492 31.8408 59.0798V69.4094C31.8408 77.0524 36.7125 83.8113 43.9632 86.2281C44.3337 86.3484 44.7043 86.3484 45.0748 86.2281C52.3257 83.8113 57.1971 77.0521 57.1971 69.4094ZM44.5189 82.6949C39.0143 80.6052 35.3564 75.3393 35.3564 69.4094V60.0206L39.5909 57.1975H49.4468L53.6815 60.0206V69.4094C53.6815 75.3391 50.0236 80.6052 44.5189 82.6949Z" fill="#143A5A"/>
<path d="M50.21 64.5597C49.4403 63.9676 48.3367 64.1118 47.7451 64.8817L43.3674 70.5747L41.1432 68.3505C40.4567 67.664 39.3437 67.664 38.6574 68.3505C37.971 69.0369 37.971 70.15 38.6574 70.8362L42.2975 74.4763C43.041 75.2198 44.2815 75.1532 44.934 74.305L50.5321 67.0248C51.1236 66.2549 50.9795 65.1515 50.21 64.5597Z" fill="#143A5A"/>
<path d="M120.963 71.568C121.933 71.568 122.72 70.7809 122.72 69.8102V50.9711C122.72 48.4511 120.67 46.4008 118.15 46.4008H93.5993V17.9734C93.5993 13.6309 89.9707 10 85.6259 10H59.2704C58.2996 10 57.5126 10.787 57.5126 11.7578C57.5126 12.7286 58.2996 13.5156 59.2704 13.5156H85.6259C88.0812 13.5156 90.0837 15.6391 90.0837 17.9734V46.4008H86.3173V19.0375C86.3173 18.0667 85.5303 17.2797 84.5595 17.2797H66.3603C63.0701 17.5891 61.2708 19.3891 60.9626 22.6797C60.9626 23.7175 60.1184 24.5617 59.0806 24.5617H51.7985C50.652 24.4537 50.0246 23.8265 49.9165 22.6797C49.9165 19.7022 47.4949 17.2797 44.5188 17.2797H26.3196C25.3488 17.2797 24.5618 18.0667 24.5618 19.0375V113.68C24.5618 114.651 25.3488 115.438 26.3196 115.438H40.6892C41.6599 115.438 42.447 114.651 42.447 113.68C42.447 112.71 41.6599 111.923 40.6892 111.923H28.0774V20.7953H44.5188C45.5567 20.7953 46.4009 21.6407 46.4009 22.6797C46.71 25.9689 48.5091 27.7682 51.7985 28.0773H59.0806C62.0569 28.0773 64.4782 25.656 64.4782 22.6797C64.5853 21.5315 65.2128 20.9034 66.3603 20.7953H82.8017V46.4008H64.4775V40.8791C64.4775 39.9084 63.6905 39.1213 62.7197 39.1213C61.7489 39.1213 60.9619 39.9084 60.9619 40.8791V99.1209C60.9619 100.092 61.7489 100.879 62.7197 100.879C63.6905 100.879 64.4775 100.092 64.4775 99.1209V93.5992H82.8017V111.923H48.3485C47.3778 111.923 46.5907 112.71 46.5907 113.68C46.5907 114.651 47.3778 115.438 48.3485 115.438H84.5595C85.5303 115.438 86.3173 114.651 86.3173 113.68V93.5992H90.0837V122.027C90.0837 124.483 87.9605 126.484 85.6259 126.484H25.2532C22.7972 126.484 20.7954 124.361 20.7954 122.027V17.9734C20.7954 15.5174 22.9186 13.5156 25.2532 13.5156H51.6087C52.5795 13.5156 53.3665 12.7286 53.3665 11.7578C53.3665 10.787 52.5795 10 51.6087 10H25.2532C20.9049 10 17.2798 13.627 17.2798 17.9734V122.027C17.2798 126.369 20.9084 130 25.2532 130H85.6259C89.9742 130 93.5993 126.373 93.5993 122.027V93.5992H118.15C120.67 93.5992 122.72 91.5489 122.72 89.0289V77.4695C122.72 76.4987 121.933 75.7117 120.963 75.7117C119.992 75.7117 119.205 76.4987 119.205 77.4695V89.0289C119.205 89.6104 118.732 90.0836 118.15 90.0836H64.4782V64.4777H119.205V69.8102C119.205 70.7809 119.992 71.568 120.963 71.568ZM118.15 49.9164C118.732 49.9164 119.205 50.3896 119.205 50.9711V53.6819H64.4782V49.9164H118.15ZM64.4782 60.962V57.1975H119.205V60.962H64.4782Z" fill="#143A5A"/>
<path d="M99.1211 68.2422C98.1503 68.2422 97.3633 69.0292 97.3633 70V77.2802C97.3633 78.2509 98.1503 79.038 99.1211 79.038H113.682C114.652 79.038 115.439 78.2509 115.439 77.2802V70C115.439 69.0292 114.652 68.2422 113.682 68.2422H99.1211ZM111.924 75.5223H100.879V71.7578H111.924V75.5223Z" fill="#143A5A"/>
</g>
<defs>
<clipPath id="clip0_543_3382">
<rect width="120" height="120" fill="white" transform="translate(10 10)"/>
</clipPath>
</defs>
</svg>
