<svg width="140" height="140" viewBox="0 0 140 140" fill="none" xmlns="http://www.w3.org/2000/svg">
<rect width="140" height="140" rx="60" fill="#F2F3F8"/>
<g clip-path="url(#clip0_543_3281)">
<path d="M70 91.9141C92.1345 91.9141 110.078 73.9705 110.078 51.8359C110.078 29.7014 92.1345 11.7578 70 11.7578C47.8655 11.7578 29.9219 29.7014 29.9219 51.8359C29.9219 73.9705 47.8655 91.9141 70 91.9141Z" fill="#E4F6FF"/>
<path d="M46.5534 128.242H15.8685C13.5981 128.242 11.7578 126.402 11.7578 124.131V119.141C11.7578 113.575 16.2705 109.062 21.8371 109.062H40.5845C46.1512 109.062 50.6638 113.575 50.6638 119.141V124.131C50.6641 126.402 48.8235 128.242 46.5534 128.242Z" fill="#61A2F9"/>
<path d="M40.585 109.062H33.5537C39.1204 109.062 43.633 113.574 43.633 119.141V124.131C43.633 126.402 41.7925 128.242 39.5221 128.242H46.5533C48.8237 128.242 50.6643 126.401 50.6643 124.131V119.141C50.6643 113.574 46.1516 109.062 40.585 109.062Z" fill="#5490F9"/>
<path d="M21.6113 101.482V96.6341L31.1394 92.6875L40.6672 96.6341V101.446C40.6672 106.718 36.3934 110.992 31.1213 110.992C25.8692 110.992 21.6113 106.734 21.6113 101.482Z" fill="#FFDDCE"/>
<path d="M33.6356 93.7216V101.446C33.6356 105.475 31.1386 108.918 27.6089 110.319C28.6959 110.752 29.88 110.992 31.1212 110.992C36.3933 110.992 40.6671 106.718 40.6671 101.446V96.6339L33.6356 93.7216Z" fill="#FFCBBE"/>
<path d="M31.1391 85.2107C25.877 85.2107 21.6113 89.4766 21.6113 94.7385V96.6339H40.667V94.7385C40.667 89.4766 36.4011 85.2107 31.1391 85.2107Z" fill="#3D6B73"/>
<path d="M31.1392 85.2107C29.897 85.2107 28.7117 85.4509 27.6235 85.8834C31.145 87.2826 33.6357 90.7185 33.6357 94.7385V96.6339H40.667V94.7385C40.667 89.4766 36.4011 85.2107 31.1392 85.2107Z" fill="#2E5459"/>
<path d="M124.131 128.242H93.4466C91.1763 128.242 89.3359 126.402 89.3359 124.131V119.141C89.3359 113.575 93.8486 109.062 99.4152 109.062H118.163C123.729 109.062 128.242 113.575 128.242 119.141V124.131C128.242 126.402 126.402 128.242 124.131 128.242Z" fill="#61A2F9"/>
<path d="M118.163 109.062H111.132C116.698 109.062 121.211 113.574 121.211 119.141V124.131C121.211 126.402 119.371 128.242 117.1 128.242H124.131C126.402 128.242 128.242 126.401 128.242 124.131V119.141C128.242 113.574 123.73 109.062 118.163 109.062Z" fill="#5490F9"/>
<path d="M99.1895 101.482V96.6341L108.717 92.6875L118.245 96.6341V101.446C118.245 106.718 113.971 110.992 108.699 110.992C103.447 110.992 99.1895 106.734 99.1895 101.482Z" fill="#FFDDCE"/>
<path d="M111.214 93.7216V101.446C111.214 105.475 108.717 108.918 105.187 110.319C106.274 110.752 107.458 110.992 108.699 110.992C113.971 110.992 118.245 106.718 118.245 101.446V96.6339L111.214 93.7216Z" fill="#FFCBBE"/>
<path d="M108.717 85.2107C103.455 85.2107 99.1895 89.4766 99.1895 94.7385V96.6339H118.245V94.7385C118.245 89.4766 113.979 85.2107 108.717 85.2107Z" fill="#3D6B73"/>
<path d="M108.717 85.2107C107.475 85.2107 106.29 85.4509 105.202 85.8834C108.723 87.2826 111.214 90.7185 111.214 94.7385V96.6339H118.245V94.7385C118.245 89.4766 113.979 85.2107 108.717 85.2107Z" fill="#2E5459"/>
<path d="M84.2969 66.307H55.7031C53.8909 66.307 52.4219 64.8379 52.4219 63.0258V39.1195C52.4219 37.3073 53.8909 35.8383 55.7031 35.8383H84.2969C86.1091 35.8383 87.5781 37.3073 87.5781 39.1195V63.0258C87.5781 64.8379 86.1091 66.307 84.2969 66.307Z" fill="#B7E445"/>
<path d="M84.2969 35.8384H77.2656C79.0778 35.8384 80.5469 37.3074 80.5469 39.1196V63.0259C80.5469 64.8381 79.0778 66.3071 77.2656 66.3071H84.2969C86.1091 66.3071 87.5781 64.8381 87.5781 63.0259V39.1196C87.5781 37.3074 86.1091 35.8384 84.2969 35.8384Z" fill="#AAD540"/>
<path d="M40.7823 107.309C41.8241 105.599 42.4248 103.591 42.4248 101.446V94.7388C42.4248 88.5156 37.3621 83.4531 31.1392 83.4531C24.9163 83.4531 19.8536 88.5156 19.8536 94.7388V101.482C19.8536 103.615 20.4494 105.611 21.4827 107.313C15.1195 107.501 10 112.733 10 119.141V124.131C10 127.368 12.6327 130 15.8688 130H21.172C22.1427 130 22.9298 129.213 22.9298 128.242C22.9298 127.271 22.1427 126.484 21.172 126.484H15.8688C14.5713 126.484 13.5156 125.429 13.5156 124.131V119.141C13.5156 114.553 17.2488 110.819 21.8371 110.819H24.8207C26.6202 112.038 28.7891 112.75 31.1209 112.75C33.4565 112.75 35.6287 112.038 37.4322 110.819H40.5843C45.1729 110.819 48.9058 114.553 48.9058 119.141V124.131C48.9058 125.429 47.8502 126.484 46.5527 126.484H29.5312C28.5604 126.484 27.7734 127.271 27.7734 128.242C27.7734 129.213 28.5604 130 29.5312 130H46.5531C49.7891 130 52.4219 127.368 52.4219 124.131V119.141C52.4219 112.68 47.2183 107.415 40.7823 107.309ZM31.1392 86.9685C35.4236 86.9685 38.9092 90.4541 38.9092 94.7385V94.8761H23.3692V94.7385C23.3692 90.4541 26.8548 86.9685 31.1392 86.9685ZM23.3692 101.482V98.3917H38.9092V101.446C38.9092 105.74 35.4156 109.234 31.1212 109.234C26.8466 109.234 23.3692 105.757 23.3692 101.482Z" fill="#143A5A"/>
<path d="M25.2112 118.274H20.0366C19.0658 118.274 18.2788 119.061 18.2788 120.032C18.2788 121.003 19.0658 121.79 20.0366 121.79H25.2112C26.1819 121.79 26.969 121.003 26.969 120.032C26.969 119.061 26.1819 118.274 25.2112 118.274Z" fill="#143A5A"/>
<path d="M118.36 107.309C119.402 105.599 120.003 103.591 120.003 101.446V94.7388C120.003 88.5156 114.94 83.4531 108.717 83.4531C102.494 83.4531 97.4317 88.5156 97.4317 94.7388V101.482C97.4317 103.615 98.0275 105.611 99.0609 107.313C92.6976 107.501 87.5781 112.733 87.5781 119.141V124.131C87.5781 127.368 90.2109 130 93.4469 130H124.131C127.367 130 130 127.368 130 124.131V119.141C130 112.68 124.796 107.415 118.36 107.309ZM100.947 101.482V98.3917H116.487V101.446C116.487 105.74 112.994 109.234 108.699 109.234C104.425 109.234 100.947 105.757 100.947 101.482ZM108.717 86.9685C113.001 86.9685 116.487 90.4541 116.487 94.7385V94.8761H100.947V94.7385C100.947 90.4541 104.433 86.9685 108.717 86.9685ZM126.484 124.131C126.484 125.429 125.429 126.484 124.131 126.484H93.4469C92.1494 126.484 91.0938 125.429 91.0938 124.131V119.141C91.0938 114.553 94.8269 110.819 99.4152 110.819H102.399C104.198 112.038 106.367 112.75 108.699 112.75C111.035 112.75 113.207 112.038 115.01 110.819H118.162C122.751 110.819 126.484 114.553 126.484 119.141V124.131H126.484Z" fill="#143A5A"/>
<path d="M102.789 118.274H97.6147C96.644 118.274 95.8569 119.061 95.8569 120.032C95.8569 121.003 96.644 121.79 97.6147 121.79H102.789C103.76 121.79 104.547 121.003 104.547 120.032C104.547 119.061 103.76 118.274 102.789 118.274Z" fill="#143A5A"/>
<path d="M88.1641 102.109C88.1641 101.138 87.377 100.352 86.4062 100.352H71.7578V93.6323C94.0138 92.7074 111.836 74.3151 111.836 51.8359C111.836 43.4523 109.365 35.3636 104.69 28.4439C104.147 27.6393 103.054 27.4281 102.249 27.9712C101.445 28.5147 101.233 29.6073 101.777 30.4117C103.362 32.7583 104.669 35.2525 105.688 37.8524C103.908 36.0098 101.76 34.2958 99.2666 32.7475C98.0591 31.998 96.7909 31.3005 95.4695 30.6564C94.2557 27.7213 92.7808 24.9805 91.0612 22.4959C89.7306 20.5736 88.2909 18.8601 86.7625 17.361C90.4037 19.1348 93.7755 21.4966 96.7523 24.3995C97.4472 25.0776 98.5598 25.0633 99.2378 24.3684C99.9156 23.6734 99.9018 22.5604 99.2066 21.8828C91.3499 14.2202 80.9772 10 70 10C46.9314 10 28.1641 28.7676 28.1641 51.8359C28.1641 74.3151 45.9862 92.7074 68.2422 93.6323V100.352H53.5938C52.623 100.352 51.8359 101.138 51.8359 102.109C51.8359 103.08 52.623 103.867 53.5938 103.867H86.4062C87.377 103.867 88.1641 103.08 88.1641 102.109ZM77.1958 25.5831C74.8417 25.3265 72.4366 25.1952 69.9998 25.1952C67.5627 25.1952 65.1566 25.3267 62.8023 25.5834C64.9152 17.6312 67.7437 13.5156 70 13.5156C72.2481 13.5156 75.0803 17.631 77.1958 25.5831ZM108.208 53.5938C107.53 58.9588 103.757 63.9977 97.4123 67.9373C97.3476 67.9773 97.2812 68.0162 97.2161 68.0561C98.5567 63.5146 99.3264 58.6323 99.4717 53.5935H108.208V53.5938ZM92.7147 70.4238C89.3685 71.9284 85.6771 73.0792 81.7612 73.8452C82.1125 72.0105 82.4195 70.078 82.6806 68.0648H84.2969C87.0754 68.0648 89.3359 65.8042 89.3359 63.0257V53.5938H95.9549C95.7677 59.6781 94.6136 65.3966 92.7147 70.4238ZM76.6783 88.8707C77.2626 87.9194 77.8225 86.8295 78.3562 85.5984C79.3436 83.3205 80.2164 80.6137 80.9568 77.5642C84.3534 76.9855 87.6112 76.1369 90.6648 75.0367C87.2163 81.7016 82.3223 86.6552 76.6783 88.8707ZM84.2969 37.596C85.1369 37.596 85.8203 38.2795 85.8203 39.1195V63.0257C85.8203 63.8657 85.1369 64.5491 84.2969 64.5491H55.7031C54.8631 64.5491 54.1797 63.8657 54.1797 63.0257V39.1195C54.1797 38.2795 54.8631 37.596 55.7031 37.596H84.2969ZM79.1362 68.0648C78.8275 70.3638 78.4612 72.4919 78.0517 74.4463C75.4345 74.7855 72.7401 74.961 70 74.961C67.2597 74.961 64.5653 74.7855 61.9483 74.4463C61.5388 72.4919 61.1725 70.3635 60.8638 68.0648H79.1362ZM89.3359 50.0781V39.1195C89.3359 36.3409 87.0754 34.0804 84.2969 34.0804H82.4711C82.2587 32.6139 82.0225 31.1922 81.7607 29.8267C85.6769 30.5927 89.3685 31.7434 92.7149 33.2481C94.6138 38.2752 95.7679 43.9938 95.9552 50.0781H89.3359ZM78.9189 34.0804H61.0813C61.3396 32.3573 61.6284 30.738 61.9429 29.226C64.5616 28.8864 67.2578 28.7109 69.9998 28.7109C72.7415 28.7109 75.437 28.8866 78.0555 29.226C78.3707 30.7384 78.6604 32.3566 78.9189 34.0804ZM63.3231 14.8005C62.8117 15.6323 62.3193 16.5695 61.8466 17.6153C60.779 19.9776 59.837 22.8452 59.0451 26.107C55.6478 26.6856 52.3893 27.5345 49.3352 28.6347C52.784 21.9695 57.6784 17.0158 63.3231 14.8005ZM58.24 29.8265C57.9782 31.1929 57.7405 32.613 57.5282 34.0804H55.7031C52.9246 34.0804 50.6641 36.3409 50.6641 39.1195V50.0781H44.0451C44.2323 43.9938 45.3864 38.2752 47.2853 33.2481C50.632 31.7432 54.3238 30.5924 58.24 29.8265ZM40.5283 50.0781H31.7917C32.47 44.713 36.2423 39.6742 42.5877 35.7346C42.6524 35.6945 42.7188 35.6556 42.7839 35.6158C41.4433 40.1573 40.6736 45.0393 40.5283 50.0781ZM40.5283 53.5938C40.6738 58.6326 41.4433 63.5146 42.7839 68.0563C42.7188 68.0165 42.6524 67.9776 42.5877 67.9375C36.2423 63.9977 32.47 58.9588 31.7917 53.5938H40.5283ZM44.0451 53.5938H50.6641V63.0257C50.6641 65.8042 52.9246 68.0648 55.7031 68.0648H57.3194C57.5805 70.0778 57.8873 72.0105 58.2388 73.8452C54.3229 73.0792 50.6317 71.9284 47.2853 70.4238C45.3864 65.3966 44.2323 59.6781 44.0451 53.5938ZM59.0432 77.5645C59.7836 80.6137 60.6564 83.3205 61.6438 85.5984C62.1775 86.8295 62.7374 87.9194 63.3217 88.8707C57.6777 86.6552 52.7838 81.7016 49.3352 75.0369C52.3888 76.1371 55.6466 76.986 59.0432 77.5645ZM62.8138 78.0899C65.1646 78.3459 67.5667 78.4766 69.9998 78.4766C72.433 78.4766 74.8349 78.3456 77.1859 78.0899C75.0719 85.9865 72.2352 90.1562 70 90.1562C67.7648 90.1562 64.9279 85.9865 62.8138 78.0899ZM86.8049 86.2689C88.3173 84.7797 89.743 83.0802 91.0612 81.1757C92.781 78.6911 94.2557 75.9503 95.4695 73.0152C96.7907 72.3712 98.0591 71.6737 99.2666 70.9241C101.753 69.3805 103.895 67.6717 105.672 65.8354C102.154 74.7684 95.3727 82.0705 86.8049 86.2689ZM97.4123 35.7346C103.757 39.6742 107.53 44.713 108.208 50.0781H99.4717C99.3262 45.0393 98.5567 40.1573 97.2161 35.6155C97.2812 35.6556 97.3476 35.6943 97.4123 35.7346ZM90.6648 28.6349C87.6107 27.5348 84.3524 26.6859 80.9556 26.1072C80.1536 22.8034 79.1973 19.9059 78.1138 17.5279C77.6533 16.517 77.1737 15.6088 76.6766 14.8002C82.3211 17.0155 87.2158 21.9695 90.6648 28.6349ZM53.1948 17.4027C51.6824 18.892 50.2567 20.5914 48.9386 22.4959C47.2188 24.9805 45.7441 27.7213 44.5302 30.6564C43.2091 31.3005 41.9406 31.998 40.7331 32.7475C38.2466 34.2913 36.1047 35.9999 34.3274 37.8363C37.8454 28.9035 44.627 21.6013 53.1948 17.4027ZM34.3274 65.8354C36.1047 67.6717 38.2466 69.3805 40.7331 70.9241C41.9406 71.6737 43.2088 72.3712 44.5302 73.0152C45.7441 75.9503 47.219 78.6911 48.9386 81.1757C50.2567 83.0802 51.6824 84.7797 53.1948 86.2689C44.627 82.0705 37.8454 74.7684 34.3274 65.8354Z" fill="#143A5A"/>
<path d="M70.5635 59.2852V48.4131C70.5635 48.3896 70.6045 48.3545 70.6865 48.3076C70.7744 48.2607 70.8945 48.2197 71.0469 48.1846C71.2051 48.1436 71.3604 48.123 71.5127 48.123C71.8994 48.123 72.2363 48.2402 72.5234 48.4746C72.8105 48.709 72.9893 49.1016 73.0596 49.6523C73.3408 49.1367 73.7275 48.7354 74.2197 48.4482C74.7119 48.1611 75.2861 48.0176 75.9424 48.0176C77.1436 48.0176 78.1221 48.4365 78.8779 49.2744C79.6338 50.1064 80.0117 51.2168 80.0117 52.6055C80.0117 53.9707 79.6309 55.084 78.8691 55.9453C78.1074 56.8066 77.1201 57.2373 75.9072 57.2373C75.2627 57.2373 74.6914 57.0879 74.1934 56.7891C73.7012 56.4844 73.335 56.0977 73.0947 55.6289V59.2852C73.0947 60.0996 72.7227 60.5068 71.9785 60.5068H71.7148C71.3457 60.5068 71.0615 60.4131 70.8623 60.2256C70.6631 60.0381 70.5635 59.7246 70.5635 59.2852ZM73.0947 53.2031C73.1123 53.7891 73.3291 54.2725 73.7451 54.6533C74.167 55.0283 74.6826 55.2158 75.292 55.2158C75.9775 55.2158 76.5254 54.9785 76.9355 54.5039C77.3516 54.0234 77.5596 53.3965 77.5596 52.623C77.5596 51.8613 77.3516 51.2432 76.9355 50.7686C76.5195 50.2881 75.9775 50.0479 75.3096 50.0479C74.7881 50.0479 74.3369 50.1768 73.9561 50.4346C73.5752 50.6865 73.2881 51.0381 73.0947 51.4893V53.2031Z" fill="#143A5A"/>
<path d="M59.542 55.6113V46.8311C59.542 46.3682 59.6621 46.0078 59.9023 45.75C60.1484 45.4863 60.4883 45.3545 60.9219 45.3545H64.3672C65.873 45.3545 67.0127 45.665 67.7861 46.2861C68.5654 46.9014 68.9551 47.8037 68.9551 48.9932C68.9551 49.9365 68.6943 50.707 68.1729 51.3047C67.6514 51.9023 66.9043 52.2832 65.9316 52.4473L68.9551 56.1035C68.9668 56.1152 68.9727 56.1328 68.9727 56.1562C68.9727 56.1797 68.9668 56.209 68.9551 56.2441C68.9316 56.3145 68.876 56.3994 68.7881 56.499C68.7061 56.5928 68.6064 56.6836 68.4893 56.7715C68.3721 56.8535 68.2168 56.9238 68.0234 56.9824C67.8359 57.041 67.6367 57.0703 67.4258 57.0703C67.0566 57.0703 66.7432 56.9883 66.4854 56.8242C66.2334 56.6602 65.9639 56.3818 65.6768 55.9893L63.1982 52.8604H62.1875V55.8662C62.1875 56.2471 62.0879 56.543 61.8887 56.7539C61.6953 56.9648 61.4111 57.0703 61.0361 57.0703H60.6582C60.3008 57.0703 60.0254 56.9443 59.832 56.6924C59.6387 56.4404 59.542 56.0801 59.542 55.6113ZM62.1523 50.918H64.1826C64.8799 50.918 65.4043 50.7656 65.7559 50.4609C66.1133 50.1504 66.292 49.7197 66.292 49.1689C66.292 48.6006 66.1104 48.167 65.7471 47.8682C65.3838 47.5693 64.8447 47.4199 64.1299 47.4199H62.1523V50.918Z" fill="#143A5A"/>
</g>
<defs>
<clipPath id="clip0_543_3281">
<rect width="120" height="120" fill="white" transform="translate(10 10)"/>
</clipPath>
</defs>
</svg>
