<svg width="140" height="140" viewBox="0 0 140 140" fill="none" xmlns="http://www.w3.org/2000/svg">
<rect width="140" height="140" rx="60" fill="#F2F3F8"/>
<g clip-path="url(#clip0_543_3397)">
<path d="M72.6013 11.7578V57.9346H19.5449V51.8453V11.7578L26.1759 15.9766L32.807 11.7578L39.4389 15.9766L46.0708 11.7578L52.7031 15.9766L59.3352 11.7578L65.9683 15.9766L72.6013 11.7578Z" fill="#E7EEF3"/>
<path d="M104.504 128.242H59.4228C55.0179 128.242 51.4472 124.671 51.4472 120.267V61.3405L43.4717 47.2932H93.424C99.5431 47.2932 104.504 52.2538 104.504 58.3728V128.242Z" fill="#F4F8F9"/>
<path d="M59.4228 128.242C55.018 128.242 51.4473 124.672 51.4473 120.267V103.8H67.3984V120.267C67.3984 124.672 63.8277 128.242 59.4228 128.242Z" fill="#F4F8F9"/>
<path d="M27.5205 71.7357C23.1156 71.7357 19.5449 68.165 19.5449 63.7602V47.2932H35.496V63.7602C35.496 68.165 31.9253 71.7357 27.5205 71.7357Z" fill="#E7EEF3"/>
<path d="M43.4716 47.2932C39.0668 47.2932 35.4961 50.8639 35.4961 55.2688V63.7599C35.4961 68.1648 31.9254 71.7355 27.5205 71.7355H51.4471V55.2685C51.4471 50.8642 47.8764 47.2932 43.4716 47.2932Z" fill="#B2C5D1"/>
<path d="M113.822 110.146L107.188 105.928L100.556 110.146L93.924 105.928L87.2919 110.146L80.66 105.928L74.0289 110.146L67.3979 105.928V120.267C67.3979 124.671 63.8272 128.242 59.4224 128.242H112.812C117.032 128.242 120.454 124.82 120.454 120.599V105.927L113.822 110.146Z" fill="#E7EEF3"/>
<path d="M94.0287 56.5664L97.906 57.5587H103.1L112.098 51.5224L114.361 46.1039L111.994 35.628L106.911 30.7055L105.294 30.1624C104.578 30.0562 103.846 29.9998 103.1 29.9998C94.9074 29.9998 88.2661 36.641 88.2661 44.8336C88.2661 49.6083 90.5245 53.8533 94.0287 56.5664Z" fill="#6CE79A"/>
<path d="M105.294 30.1624C108.798 32.8757 111.057 37.1205 111.057 41.8954C111.057 50.088 104.416 56.7292 96.223 56.7292C95.4772 56.7292 94.7451 56.6727 94.0288 56.5666C96.5371 58.5086 99.6824 59.6676 103.1 59.6676C111.293 59.6676 117.934 53.0263 117.934 44.8338C117.934 37.3867 112.446 31.2229 105.294 30.1624Z" fill="#00D8A2"/>
<path d="M121.301 104.387C120.739 104.079 120.053 104.1 119.511 104.445L113.822 108.063L108.132 104.445C107.562 104.082 106.834 104.079 106.261 104.435V61.123C113.903 59.643 119.692 52.9016 119.692 44.8335C119.692 35.6847 112.249 28.2416 103.1 28.2416C99.6541 28.2416 96.3461 29.2926 93.5338 31.281C92.7412 31.8416 92.5527 32.9383 93.1134 33.7312C93.6738 34.5238 94.7701 34.7123 95.5635 34.1516C97.7788 32.5851 100.385 31.7573 103.1 31.7573C110.311 31.7573 116.176 37.6232 116.176 44.8335C116.176 52.0438 110.311 57.9095 103.1 57.9095C95.89 57.9095 90.0243 52.0438 90.0243 44.8335C90.0243 42.6707 90.5636 40.5276 91.5838 38.6359C92.0448 37.7814 91.7256 36.7152 90.8713 36.2544C90.0163 35.793 88.9506 36.1129 88.4898 36.967C87.1937 39.37 86.5087 42.0899 86.5087 44.8335C86.5087 45.0686 86.5136 45.3027 86.5234 45.5355H74.3591V11.7578C74.3591 11.1163 74.0097 10.5257 73.4472 10.217C72.8856 9.90883 72.1996 9.93039 71.6577 10.2747L65.9683 13.8932L60.2786 10.2747C59.7027 9.90859 58.967 9.90859 58.3916 10.2747L52.7031 13.8932L47.0141 10.2747C46.4383 9.90859 45.7026 9.90859 45.1272 10.2747L39.4387 13.8932L33.7504 10.2747C33.1745 9.90859 32.4391 9.90859 31.8632 10.2747L26.1759 13.8932L20.4887 10.2747C19.9471 9.93015 19.2611 9.90836 18.6991 10.217C18.1368 10.5257 17.7871 11.1163 17.7871 11.7578V29.2248C17.7871 30.1959 18.5739 30.9827 19.5449 30.9827C20.5159 30.9827 21.3027 30.1959 21.3027 29.2248V14.9596L25.2323 17.4597C25.8081 17.8258 26.5438 17.8258 27.1197 17.4597L32.8068 13.8412L38.4953 17.4597C39.0712 17.8258 39.8069 17.8258 40.3823 17.4597L46.0708 13.8412L51.7595 17.4597C52.3354 17.8258 53.0706 17.8258 53.6465 17.4597L59.335 13.8412L65.0245 17.4597C65.6003 17.8258 66.3355 17.8258 66.9114 17.4597L70.843 14.9589V45.5355H43.4716C38.1046 45.5355 33.7382 49.9019 33.7382 55.2688V63.76C33.7382 67.1884 30.9489 69.9775 27.5205 69.9775C24.092 69.9775 21.303 67.1884 21.303 63.76V36.022C21.303 35.0509 20.5162 34.2641 19.5452 34.2641C18.5741 34.2641 17.7873 35.0509 17.7873 36.022V63.7605C17.7873 69.1272 22.1537 73.4936 27.5207 73.4936H49.6895V120.267C49.6895 125.634 54.0559 130 59.4227 130H90.6304C91.6014 130 92.3882 129.213 92.3882 128.242C92.3882 127.271 91.6014 126.484 90.6304 126.484H66.9055C68.3102 124.797 69.156 122.629 69.156 120.267V109.13L73.0855 111.63C73.6614 111.996 74.3973 111.996 74.9727 111.63L80.6605 108.011L86.3491 111.63C86.9249 111.996 87.6606 111.996 88.236 111.63L93.9245 108.011L99.6133 111.63C100.189 111.996 100.924 111.996 101.5 111.63L107.189 108.011L112.878 111.63C113.454 111.996 114.189 111.996 114.765 111.63L118.697 109.129V120.599C118.697 123.844 116.057 126.484 112.812 126.484H97.4273C96.4562 126.484 95.6694 127.271 95.6694 128.242C95.6694 129.213 96.4562 130 97.4273 130H112.812C117.996 130 122.212 125.783 122.212 120.599V105.928C122.212 105.286 121.863 104.696 121.301 104.387ZM35.0034 69.978C36.408 68.2905 37.2538 66.1225 37.2538 63.7605V55.2693C37.2538 51.8409 40.0431 49.0516 43.4716 49.0516C46.9 49.0516 49.6893 51.8409 49.6893 55.2693V69.9782L35.0034 69.978ZM100.557 108.063L94.8679 104.445C94.292 104.079 93.5568 104.079 92.9809 104.445L87.2924 108.063L81.6039 104.445C81.0285 104.079 80.2923 104.079 79.7169 104.445L74.0291 108.063L68.3418 104.445C67.7999 104.1 67.1141 104.079 66.5521 104.387C65.9898 104.696 65.6402 105.287 65.6402 105.928V120.267C65.6402 123.695 62.8509 126.485 59.4224 126.485C55.994 126.485 53.2049 123.695 53.2049 120.267V55.2691C53.2049 52.907 52.3591 50.7388 50.9545 49.0513H87.0515C88.8934 56.0545 95.2096 61.2627 102.745 61.4216V106.671L100.557 108.063Z" fill="#143A5A"/>
<path d="M101.343 50.5779C101.352 50.5779 101.362 50.5779 101.373 50.5777C101.854 50.5695 102.311 50.3639 102.637 50.0091L109.961 42.0359C110.618 41.3211 110.571 40.2089 109.855 39.5522C109.14 38.8955 108.029 38.9424 107.372 39.6577L101.299 46.2687L98.7867 43.7147C98.1058 43.0219 96.9925 43.0135 96.3011 43.6941C95.609 44.3747 95.5996 45.4875 96.2805 46.1797L100.09 50.0522C100.42 50.389 100.872 50.5779 101.343 50.5779Z" fill="#143A5A"/>
<path d="M30.7622 27.4656H61.3838C62.3548 27.4656 63.1416 26.6788 63.1416 25.7078C63.1416 24.7367 62.3548 23.95 61.3838 23.95H30.7622C29.7912 23.95 29.0044 24.7367 29.0044 25.7078C29.0044 26.6788 29.7912 27.4656 30.7622 27.4656Z" fill="#143A5A"/>
<path d="M30.7622 36.1021H61.3838C62.3548 36.1021 63.1416 35.3153 63.1416 34.3442C63.1416 33.3732 62.3548 32.5864 61.3838 32.5864H30.7622C29.7912 32.5864 29.0044 33.3732 29.0044 34.3442C29.0044 35.3153 29.7912 36.1021 30.7622 36.1021Z" fill="#143A5A"/>
<path d="M92.0053 61.4258H61.3838C60.4128 61.4258 59.626 62.2126 59.626 63.1836C59.626 64.1546 60.4128 64.9414 61.3838 64.9414H92.0053C92.9764 64.9414 93.7632 64.1546 93.7632 63.1836C93.7632 62.2126 92.9764 61.4258 92.0053 61.4258Z" fill="#143A5A"/>
<path d="M92.0053 70.0627H61.3838C60.4128 70.0627 59.626 70.8495 59.626 71.8206C59.626 72.7916 60.4128 73.5784 61.3838 73.5784H92.0053C92.9764 73.5784 93.7632 72.7916 93.7632 71.8206C93.7632 70.8495 92.9764 70.0627 92.0053 70.0627Z" fill="#143A5A"/>
<path d="M92.0053 78.6995H61.3838C60.4128 78.6995 59.626 79.4863 59.626 80.4573C59.626 81.4283 60.4128 82.2151 61.3838 82.2151H92.0053C92.9764 82.2151 93.7632 81.4283 93.7632 80.4573C93.7632 79.4863 92.9764 78.6995 92.0053 78.6995Z" fill="#143A5A"/>
<path d="M92.0053 87.3364H61.3838C60.4128 87.3364 59.626 88.1232 59.626 89.0942C59.626 90.0653 60.4128 90.8521 61.3838 90.8521H92.0053C92.9764 90.8521 93.7632 90.0653 93.7632 89.0942C93.7632 88.1232 92.9764 87.3364 92.0053 87.3364Z" fill="#143A5A"/>
<path d="M92.0053 95.9734H61.3838C60.4128 95.9734 59.626 96.7602 59.626 97.7312C59.626 98.7022 60.4128 99.489 61.3838 99.489H92.0053C92.9764 99.489 93.7632 98.7022 93.7632 97.7312C93.7632 96.7602 92.9764 95.9734 92.0053 95.9734Z" fill="#143A5A"/>
</g>
<defs>
<clipPath id="clip0_543_3397">
<rect width="120" height="120" fill="white" transform="translate(10 10)"/>
</clipPath>
</defs>
</svg>
