<svg width="140" height="140" viewBox="0 0 140 140" fill="none" xmlns="http://www.w3.org/2000/svg">
<rect width="140" height="140" rx="60" fill="#F2F3F8"/>
<g clip-path="url(#clip0_543_3407)">
<path d="M26.3481 42.5991H113.652V90.0469H26.3481V42.5991Z" fill="#7FD061"/>
<path d="M26.3481 90.0469H113.652V97.1641H26.3481V90.0469Z" fill="#51BE26"/>
<path d="M26.3481 90.0469H113.652V93.6054H26.3481V90.0469Z" fill="#49A61F"/>
<path d="M106.535 76.0498C102.735 76.0498 99.6549 79.1299 99.6549 82.9296H40.5824C40.5824 79.1299 37.5022 76.0498 33.7025 76.0498H33.4653V56.5962H33.7025C37.5022 56.5962 40.5824 53.516 40.5824 49.7163H99.6549C99.6549 53.516 102.735 56.5962 106.535 56.5962V76.0498Z" fill="#ACDF91"/>
<path d="M108.907 42.5991H113.652V90.0469H108.907V42.5991Z" fill="#51BE26"/>
<path d="M69.6441 73.4401C73.5749 73.4401 76.7614 70.2536 76.7614 66.3228C76.7614 62.3921 73.5749 59.2056 69.6441 59.2056C65.7134 59.2056 62.5269 62.3921 62.5269 66.3228C62.5269 70.2536 65.7134 73.4401 69.6441 73.4401Z" fill="#51BE26"/>
<path d="M73.1375 11.7578C61.0009 11.7578 49.4825 15.4326 39.6713 22.4097L36.6568 18.411L31.4321 35.1257L48.9392 34.7022L45.388 29.9922C53.5388 24.2643 63.0833 21.2474 73.1375 21.2474C83.9701 21.2474 94.2118 24.7473 102.755 31.3691L108.568 23.8684C98.346 15.9456 86.0942 11.7578 73.1375 11.7578Z" fill="#97E4F9"/>
<path d="M105.746 21.8124L103.424 24.9842C102.695 25.9808 101.32 26.2541 100.27 25.6037C92.1388 20.5656 82.8603 17.9263 73.1378 17.9263C62.4381 17.9263 52.1823 21.159 43.4788 27.275L41.6654 28.5491C41.1205 28.932 41.001 29.6905 41.402 30.2223C41.8885 30.8675 41.5958 31.7999 40.8278 32.0511L31.4321 35.1259L48.9392 34.7024L45.388 29.9924C53.5388 24.2645 63.0833 21.2476 73.1375 21.2476C83.9701 21.2476 94.2118 24.7475 102.755 31.3693L108.568 23.8686C107.644 23.1521 106.703 22.4675 105.746 21.8124Z" fill="#0ACEFA"/>
<path d="M66.8628 128.242C78.9995 128.242 90.5178 124.568 100.329 117.591L103.344 121.589L108.568 104.875L91.0611 105.298L94.6121 110.008C86.4612 115.736 76.9168 118.753 66.8626 118.753C56.03 118.753 45.7883 115.253 37.2448 108.631L31.4316 116.132C41.6544 124.055 53.9061 128.242 66.8628 128.242Z" fill="#FB636F"/>
<path d="M101.477 113.596C101.235 113.275 100.782 113.204 100.454 113.437C97.4694 115.561 83.3755 124.921 66.8626 124.921C56.3783 124.921 43.8528 121.123 33.2701 113.76L31.4316 116.132C41.6541 124.055 53.9061 128.242 66.8626 128.242C78.9992 128.242 90.5176 124.568 100.329 117.591L103.343 121.589L108.568 104.875L102.685 113.565C102.4 113.987 101.784 114.003 101.477 113.596Z" fill="#FA2A3B"/>
<path d="M113.652 40.8408H44.0261C43.0553 40.8408 42.2683 41.6279 42.2683 42.5986C42.2683 43.5694 43.0553 44.3564 44.0261 44.3564H111.894V88.2886H103.181C102.21 88.2886 101.423 89.0757 101.423 90.0464C101.423 91.0172 102.21 91.8043 103.181 91.8043H111.894V95.4059H28.1055V91.8043H94.9501C95.9209 91.8043 96.708 91.0172 96.708 90.0464C96.708 89.0757 95.9209 88.2886 94.9501 88.2886H28.1055V44.3564H35.8145C36.7853 44.3564 37.5723 43.5694 37.5723 42.5986C37.5723 41.6279 36.7853 40.8408 35.8145 40.8408H26.3477C25.3769 40.8408 24.5898 41.6279 24.5898 42.5986V97.1637C24.5898 98.1345 25.3769 98.9215 26.3477 98.9215H113.652C114.622 98.9215 115.409 98.1345 115.409 97.1637V42.5986C115.41 41.6279 114.623 40.8408 113.652 40.8408Z" fill="#143A5A"/>
<path d="M33.7025 54.8383H33.4653C32.4946 54.8383 31.7075 55.6254 31.7075 56.5962V76.0498C31.7075 77.0205 32.4946 77.8076 33.4653 77.8076H33.7025C36.527 77.8076 38.8246 80.1054 38.8246 82.9296C38.8246 83.9004 39.6116 84.6874 40.5824 84.6874H99.6547C100.625 84.6874 101.413 83.9004 101.413 82.9296C101.413 80.1051 103.71 77.8076 106.535 77.8076C107.505 77.8076 108.292 77.0205 108.292 76.0498V56.5962C108.292 55.6254 107.505 54.8383 106.535 54.8383C103.71 54.8383 101.413 52.5405 101.413 49.7163C101.413 48.7455 100.625 47.9585 99.6547 47.9585H40.5826C39.6118 47.9585 38.8248 48.7455 38.8248 49.7163C38.8248 52.5405 36.527 54.8383 33.7025 54.8383ZM42.1606 51.4739H98.0771C98.7735 54.8292 101.422 57.4779 104.777 58.174V74.4715C101.422 75.1678 98.7732 77.8162 98.0771 81.1715H42.1606C41.4479 77.7375 38.6905 75.0438 35.2231 74.4255V58.2194C38.6905 57.6016 41.4479 54.908 42.1606 51.4739Z" fill="#143A5A"/>
<path d="M69.6439 75.1979C74.5376 75.1979 78.519 71.2166 78.519 66.3228C78.519 61.4291 74.5376 57.4478 69.6439 57.4478C64.7504 57.4478 60.769 61.4291 60.769 66.3228C60.769 71.2166 64.7504 75.1979 69.6439 75.1979ZM69.6439 60.9636C72.5991 60.9636 75.0033 63.3678 75.0033 66.3231C75.0033 69.2783 72.5991 71.6825 69.6439 71.6825C66.6889 71.6825 64.2847 69.2783 64.2847 66.3231C64.2847 63.3678 66.6889 60.9636 69.6439 60.9636Z" fill="#143A5A"/>
<path d="M84.2341 68.0806H91.3514C92.3222 68.0806 93.1092 67.2935 93.1092 66.3228C93.1092 65.352 92.3222 64.5649 91.3514 64.5649H84.2344C83.2636 64.5649 82.4766 65.352 82.4766 66.3228C82.4766 67.2935 83.2634 68.0806 84.2341 68.0806Z" fill="#143A5A"/>
<path d="M48.6484 68.0806H55.7655C56.7363 68.0806 57.5233 67.2935 57.5233 66.3228C57.5233 65.352 56.7363 64.5649 55.7655 64.5649H48.6484C47.6777 64.5649 46.8906 65.352 46.8906 66.3228C46.8906 67.2935 47.6777 68.0806 48.6484 68.0806Z" fill="#143A5A"/>
<path d="M31.4314 36.8838C31.4457 36.8838 31.4598 36.8838 31.4741 36.8833L48.9814 36.4595C49.6402 36.4436 50.2346 36.0606 50.5215 35.4674C50.8083 34.8742 50.7392 34.1704 50.3424 33.6442L47.9068 30.4138C55.4159 25.5613 64.1 23.0055 73.137 23.0055C83.5763 23.0055 93.4454 26.3781 101.678 32.7587C102.046 33.0445 102.513 33.1727 102.976 33.1134C103.438 33.0548 103.859 32.8148 104.144 32.4463L109.957 24.9459C110.552 24.1785 110.412 23.0744 109.645 22.4798C99.1114 14.3153 86.4872 10 73.1372 10C61.2497 10 49.8512 13.454 40.0601 20.0057L38.06 17.3528C37.6634 16.8266 37.006 16.567 36.3563 16.679C35.7071 16.7915 35.1751 17.2577 34.9787 17.8865L29.754 34.6012C29.5848 35.1421 29.6869 35.7313 30.028 36.1839C30.3605 36.6252 30.8806 36.8838 31.4314 36.8838ZM37.313 22.202L38.2674 23.4679C38.8405 24.228 39.9141 24.3937 40.6897 23.8422C50.1898 17.0866 61.4098 13.5156 73.1372 13.5156C85.1115 13.5156 96.4658 17.2049 106.086 24.2022L102.424 28.9265C93.8619 22.746 83.7746 19.4894 73.137 19.4894C62.7608 19.4894 52.8158 22.6239 44.3771 28.5538C43.9873 28.8276 43.7253 29.248 43.6512 29.7187C43.5772 30.1893 43.6972 30.6698 43.984 31.0502L45.4749 33.0276L33.841 33.3091L37.313 22.202Z" fill="#143A5A"/>
<path d="M108.526 103.117L91.0182 103.541C90.3594 103.557 89.765 103.94 89.4781 104.533C89.1913 105.126 89.2604 105.83 89.6572 106.356L92.0928 109.586C84.5837 114.439 75.8996 116.995 66.8626 116.995C56.4233 116.995 46.5542 113.622 38.3218 107.241C37.9534 106.956 37.4867 106.828 37.0239 106.887C36.5612 106.945 36.141 107.185 35.8555 107.554L30.0423 115.054C29.4477 115.822 29.5876 116.926 30.3547 117.52C40.8885 125.685 53.5126 130 66.8626 130C78.7501 130 90.1487 126.546 99.9397 119.994L101.94 122.647C102.337 123.174 102.994 123.433 103.644 123.321C104.293 123.209 104.825 122.743 105.021 122.114L110.246 105.399C110.415 104.858 110.313 104.269 109.972 103.816C109.631 103.363 109.092 103.101 108.526 103.117ZM102.687 117.798L101.732 116.532C101.16 115.772 100.086 115.607 99.3102 116.158C89.81 122.914 78.59 126.485 66.8626 126.485C54.8884 126.485 43.5341 122.795 33.9142 115.798L37.5758 111.074C46.138 117.254 56.2253 120.511 66.8628 120.511C77.2391 120.511 87.1841 117.376 95.6228 111.446C96.0125 111.173 96.2746 110.752 96.3486 110.282C96.4227 109.811 96.3027 109.33 96.0158 108.95L94.5249 106.973L106.159 106.691L102.687 117.798Z" fill="#143A5A"/>
</g>
<defs>
<clipPath id="clip0_543_3407">
<rect width="120" height="120" fill="white" transform="translate(10 10)"/>
</clipPath>
</defs>
</svg>
