<svg width="140" height="140" viewBox="0 0 140 140" fill="none" xmlns="http://www.w3.org/2000/svg">
<rect width="140" height="140" rx="60" fill="#F2F3F8"/>
<g clip-path="url(#clip0_543_3412)">
<path d="M124.425 82.0376H81.9836C79.8825 82.0376 78.1792 80.3343 78.1792 78.2331V15.5618C78.1792 13.4606 79.8825 11.7573 81.9836 11.7573H124.425C126.526 11.7573 128.229 13.4606 128.229 15.5618V78.2331C128.229 80.3343 126.526 82.0376 124.425 82.0376Z" fill="#FAF7F8"/>
<path d="M107.638 71.8966C106.519 70.699 105.285 69.629 103.961 68.6972C102.902 67.9523 102.271 66.7408 102.271 65.4464V43.4782C102.271 39.9217 99.388 37.0386 95.8315 37.0386H78.1792V78.2331C78.1792 80.3342 79.8825 82.0375 81.9836 82.0375H113.264C112.271 78.2853 110.361 74.8132 107.638 71.8966Z" fill="#F0EEF0"/>
<path d="M95.4464 119.589H13.9935C12.7664 119.589 11.7715 118.595 11.7715 117.367V43.4784C11.7715 42.2513 12.7664 41.2563 13.9935 41.2563H95.4464C96.6736 41.2563 97.6685 42.2513 97.6685 43.4784V117.367C97.6685 118.595 96.6738 119.589 95.4464 119.589Z" fill="#FAF7F8"/>
<path d="M95.8315 41.2563H90.1689C91.3961 41.2563 92.391 42.2513 92.391 43.4784V117.367C92.391 118.595 91.3963 119.589 90.1689 119.589H95.8315C97.0587 119.589 98.0536 118.595 98.0536 117.367V43.4784C98.0536 42.2513 97.0587 41.2563 95.8315 41.2563Z" fill="#F0EEF0"/>
<path d="M98.0535 53.568H41.8927L30.5778 61.4965H11.7715V43.4784C11.7715 42.2513 12.7664 41.2563 13.9935 41.2563H95.8314C97.0585 41.2563 98.0535 42.2513 98.0535 43.4784V53.568Z" fill="#FFAB56"/>
<path d="M97.6685 53.568H41.8927L30.5778 61.4965H11.7715V43.4784C11.7715 42.2513 12.7664 41.2563 13.9935 41.2563H95.4464C96.6736 41.2563 97.6685 42.2513 97.6685 43.4784V53.568Z" fill="#FFAB56"/>
<path d="M95.8315 41.2563H90.1689C91.3961 41.2563 92.391 42.2513 92.391 43.4784V53.568H98.0536V43.4784C98.0536 42.2513 97.0587 41.2563 95.8315 41.2563Z" fill="#FF982A"/>
<path d="M125.412 125.854C121.612 129.403 115.59 128.94 112.377 124.853L92.8906 100.064L101.903 91.6479L125.303 112.782C129.161 116.266 129.211 122.306 125.412 125.854Z" fill="#6C5E69"/>
<path d="M100.526 109.777C102.761 108.899 104.871 107.593 106.733 105.854C108.595 104.115 110.042 102.099 111.071 99.9288L101.903 91.6479L92.8901 100.064L100.526 109.777Z" fill="#574D56"/>
<path d="M90.2161 107.787C101.052 107.787 109.836 99.0025 109.836 88.1668C109.836 77.331 101.052 68.5469 90.2161 68.5469C79.3803 68.5469 70.5962 77.331 70.5962 88.1668C70.5962 99.0025 79.3803 107.787 90.2161 107.787Z" fill="#0C90DB"/>
<path d="M79.3828 71.8071C85.985 70.2824 93.1979 72.2228 98.1552 77.5314C105.551 85.4507 105.126 97.8662 97.2069 105.262C96.398 106.017 95.5416 106.689 94.649 107.282C97.8962 106.532 100.996 104.945 103.607 102.506C111.526 95.1105 111.951 82.6951 104.555 74.7757C97.915 67.6653 87.2288 66.5982 79.3828 71.8071Z" fill="#0074D2"/>
<path d="M90.216 100.204C96.8638 100.204 102.253 94.8144 102.253 88.1667C102.253 81.5189 96.8638 76.1299 90.216 76.1299C83.5683 76.1299 78.1792 81.5189 78.1792 88.1667C78.1792 94.8144 83.5683 100.204 90.216 100.204Z" fill="#F0EEF0"/>
<path d="M90.2163 96.3574C94.7398 96.3574 98.4068 92.6905 98.4068 88.167C98.4068 83.6435 94.7398 79.9766 90.2163 79.9766C85.6929 79.9766 82.0259 83.6435 82.0259 88.167C82.0259 92.6905 85.6929 96.3574 90.2163 96.3574Z" fill="#FAF7F8"/>
<path d="M29.0811 98.9831H22.9963C21.9339 98.9831 21.0728 98.1219 21.0728 97.0595V86.8415C21.0728 85.7791 21.9339 84.918 22.9963 84.918H29.0811C30.1435 84.918 31.0047 85.7791 31.0047 86.8415V97.0595C31.0047 98.1219 30.1433 98.9831 29.0811 98.9831Z" fill="#FF6470"/>
<path d="M29.6839 84.918H25.8872C26.9496 84.918 27.8107 85.7791 27.8107 86.8415V97.0595C27.8107 98.1219 26.9496 98.9831 25.8872 98.9831H29.6837C30.7461 98.9831 31.6072 98.1219 31.6072 97.0595V86.8415C31.6074 85.7793 30.7461 84.918 29.6839 84.918Z" fill="#FF4555"/>
<path d="M44.4634 84.9967H38.3786C37.3162 84.9967 36.4551 84.1356 36.4551 83.0732V72.8552C36.4551 71.7928 37.3162 70.9316 38.3786 70.9316H44.4634C45.5259 70.9316 46.387 71.7928 46.387 72.8552V83.0732C46.387 84.1356 45.5256 84.9967 44.4634 84.9967Z" fill="#6CE79A"/>
<path d="M45.066 70.9316H41.2695C42.3319 70.9316 43.1931 71.7928 43.1931 72.8552V83.0732C43.1931 84.1356 42.3319 84.9967 41.2695 84.9967H45.066C46.1284 84.9967 46.9895 84.1356 46.9895 83.0732V72.8552C46.9898 71.7928 46.1284 70.9316 45.066 70.9316Z" fill="#00D8A2"/>
<path d="M59.5616 97.9933H53.4768C52.4144 97.9933 51.5532 97.1322 51.5532 96.0698V85.8518C51.5532 84.7894 52.4144 83.9282 53.4768 83.9282H59.5616C60.624 83.9282 61.4851 84.7894 61.4851 85.8518V96.0698C61.4851 97.1322 60.6238 97.9933 59.5616 97.9933Z" fill="#FF6470"/>
<path d="M60.1641 83.9282H56.3677C57.4301 83.9282 58.2912 84.7894 58.2912 85.8518V96.0698C58.2912 97.1322 57.4301 97.9933 56.3677 97.9933H60.1641C61.2265 97.9933 62.0877 97.1322 62.0877 96.0698V85.8518C62.0879 84.7894 61.2265 83.9282 60.1641 83.9282Z" fill="#FF4555"/>
<path d="M114.775 23.2139H92.8751C91.9043 23.2139 91.1177 24.0005 91.1177 24.9713C91.1177 25.9421 91.9043 26.7287 92.8751 26.7287H114.775C115.746 26.7287 116.532 25.9421 116.532 24.9713C116.532 24.0005 115.746 23.2139 114.775 23.2139Z" fill="#143A5A"/>
<path d="M114.775 33.0054H92.8751C91.9043 33.0054 91.1177 33.792 91.1177 34.7628C91.1177 35.7336 91.9043 36.5202 92.8751 36.5202H114.775C115.746 36.5202 116.532 35.7336 116.532 34.7628C116.532 33.792 115.746 33.0054 114.775 33.0054Z" fill="#143A5A"/>
<path d="M129.986 119.279C129.961 116.311 128.683 113.467 126.48 111.477L109.91 96.5111C110.918 94.13 111.49 91.559 111.581 88.8971C111.64 87.1625 111.493 85.4521 111.15 83.7948H124.424C127.491 83.7948 129.986 81.3 129.986 78.2332V32.9379C129.986 31.9671 129.199 31.1805 128.228 31.1805C127.258 31.1805 126.471 31.9671 126.471 32.9379V78.2332C126.471 79.3617 125.553 80.28 124.424 80.28H110.097C109.125 77.8306 107.692 75.5601 105.84 73.5763C104.083 71.6952 102.044 70.1735 99.8107 69.0511V65.8948H114.775C115.746 65.8948 116.533 65.1082 116.533 64.1374C116.533 63.1666 115.746 62.38 114.775 62.38H99.8107V56.1033H114.775C115.746 56.1033 116.533 55.3167 116.533 54.3459C116.533 53.3751 115.746 52.5885 114.775 52.5885H99.8107V46.3117H114.775C115.746 46.3117 116.533 45.5251 116.533 44.5543C116.533 43.5835 115.746 42.7969 114.775 42.7969H99.7521C99.4281 40.9263 97.7932 39.4991 95.8312 39.4991H79.9363V15.5616C79.9363 14.4331 80.8547 13.5148 81.9834 13.5148H124.424C125.553 13.5148 126.471 14.4331 126.471 15.5616V26.1423C126.471 27.1131 127.258 27.8997 128.228 27.8997C129.199 27.8997 129.986 27.1131 129.986 26.1423V15.5616C129.986 12.4948 127.491 10 124.424 10H81.9836C78.9168 10 76.4218 12.4948 76.4218 15.5616V39.4986H13.9934C11.7992 39.4986 10.0142 41.2837 10.0142 43.4778V117.367C10.0142 119.561 11.7992 121.346 13.9934 121.346H95.8312C98.0254 121.346 99.8105 119.561 99.8105 117.367V111.711L104.4 117.549C104.746 117.99 105.262 118.22 105.782 118.22C106.162 118.22 106.545 118.097 106.867 117.844C107.63 117.244 107.763 116.139 107.163 115.377L100.505 106.907C102.031 106.07 103.477 105.031 104.806 103.79C106.123 102.561 107.264 101.192 108.214 99.7164L124.124 114.085C125.621 115.437 126.454 117.292 126.471 119.308C126.488 121.325 125.685 123.193 124.211 124.569C122.738 125.946 120.82 126.621 118.808 126.464C116.798 126.31 115.004 125.352 113.757 123.766L111.392 120.757C110.792 119.993 109.688 119.861 108.924 120.461C108.161 121.061 108.029 122.165 108.629 122.929L110.994 125.938C112.829 128.272 115.579 129.741 118.539 129.968C121.468 130.194 124.42 129.183 126.61 127.138C128.78 125.112 130.011 122.248 129.986 119.279ZM95.8312 117.831H13.9934C13.7373 117.831 13.529 117.623 13.529 117.367V63.2536H17.6748C18.6454 63.2536 19.4322 62.4669 19.4322 61.4962C19.4322 60.5254 18.6454 59.7388 17.6748 59.7388H13.529V43.4781C13.529 43.222 13.7373 43.0137 13.9934 43.0137H95.8312C96.0874 43.0137 96.2957 43.2222 96.2957 43.4781V51.8103H41.8925C41.5317 51.8103 41.1797 51.9213 40.884 52.1283L30.0233 59.7388H24.4701C23.4995 59.7388 22.7127 60.5254 22.7127 61.4962C22.7127 62.4669 23.4995 63.2536 24.4701 63.2536H30.5777C30.9385 63.2536 31.2907 63.1425 31.5862 62.9356L42.4469 55.3251H96.2959V67.6632C94.5776 67.1569 92.7837 66.8649 90.9464 66.8021C85.2451 66.609 79.7988 68.646 75.6253 72.5432C67.0103 80.5886 66.5468 94.1426 74.5922 102.757C78.7954 107.258 84.5023 109.534 90.223 109.534C92.2682 109.534 94.3152 109.243 96.2959 108.659V117.367C96.2959 117.623 96.0874 117.831 95.8312 117.831ZM102.407 101.222C98.9695 104.432 94.5917 106.021 90.2218 106.021C85.4422 106.02 80.6728 104.119 77.161 100.358C70.4386 93.1597 70.826 81.8342 78.0245 75.1118C81.4979 71.8681 86.0357 70.1522 90.8266 70.3146C95.5951 70.4777 100.015 72.4879 103.271 75.9751C106.527 79.4622 108.231 84.0085 108.068 88.7772C107.905 93.5456 105.895 97.9651 102.407 101.222Z" fill="#143A5A"/>
<path d="M80.801 78.085C75.242 83.2766 74.9432 92.0226 80.1343 97.5817C82.8466 100.486 86.5289 101.954 90.2204 101.954C93.5942 101.954 96.9761 100.727 99.6307 98.2483C102.324 95.7336 103.876 92.3205 104.002 88.6381C104.128 84.9558 102.812 81.4447 100.297 78.7519C95.106 73.1931 86.3595 72.8934 80.801 78.085ZM100.489 88.5181C100.396 91.2623 99.2385 93.8053 97.2318 95.6794C93.0892 99.5481 86.5718 99.3252 82.7032 95.1827C78.8346 91.0401 79.0574 84.5227 83.2 80.6539C85.1783 78.8063 87.6977 77.8922 90.2125 77.8922C92.9629 77.8922 95.7077 78.9869 97.7288 81.1509C99.6029 83.1576 100.583 85.774 100.489 88.5181Z" fill="#143A5A"/>
<path d="M120.086 121.909C120.516 121.909 120.946 121.753 121.285 121.436C121.995 120.774 122.033 119.662 121.37 118.952L119.988 117.472C119.326 116.762 118.213 116.724 117.504 117.386C116.794 118.049 116.756 119.161 117.419 119.87L118.801 121.351C119.147 121.722 119.616 121.909 120.086 121.909Z" fill="#143A5A"/>
<path d="M26.3397 51.9098C27.3102 51.9098 28.0971 51.1232 28.0971 50.1524C28.0971 49.1816 27.3102 48.395 26.3397 48.395H20.5138C19.5432 48.395 18.7563 49.1816 18.7563 50.1524C18.7563 51.1232 19.5432 51.9098 20.5138 51.9098H26.3397Z" fill="#143A5A"/>
<path d="M29.6834 100.74C31.7131 100.74 33.3643 99.089 33.3643 97.0593V86.8416C33.3643 84.8119 31.7131 83.1606 29.6834 83.1606H28.097V78.0958C28.097 77.125 27.3102 76.3384 26.3396 76.3384C25.3691 76.3384 24.5822 77.125 24.5822 78.0958V83.1606H22.9959C20.9662 83.1606 19.3149 84.8119 19.3149 86.8416V97.0593C19.3149 99.089 20.9662 100.74 22.9959 100.74H24.5822V101.959C24.5822 102.929 25.3691 103.716 26.3396 103.716C27.3102 103.716 28.097 102.929 28.097 101.959V100.74H29.6834ZM22.8297 97.0593V86.8416C22.8297 86.7499 22.9043 86.6754 22.9959 86.6754H29.6834C29.775 86.6754 29.8495 86.7499 29.8495 86.8416V97.0593C29.8495 97.151 29.775 97.2255 29.6834 97.2255H22.9959C22.9043 97.2255 22.8297 97.151 22.8297 97.0593Z" fill="#143A5A"/>
<path d="M38.3782 86.7544H39.9646V87.9724C39.9646 88.9432 40.7514 89.7298 41.722 89.7298C42.6925 89.7298 43.4794 88.9432 43.4794 87.9724V86.7544H45.0657C47.0954 86.7544 48.7467 85.1032 48.7467 83.0735V72.8555C48.7467 70.8258 47.0954 69.1745 45.0657 69.1745H43.4794V64.1095C43.4794 63.1387 42.6925 62.3521 41.722 62.3521C40.7514 62.3521 39.9646 63.1387 39.9646 64.1095V69.1743H38.3782C36.3485 69.1743 34.6973 70.8255 34.6973 72.8552V83.0733C34.6973 85.1032 36.3485 86.7544 38.3782 86.7544ZM38.2121 72.8552C38.2121 72.7636 38.2866 72.6891 38.3782 72.6891H45.0657C45.1573 72.6891 45.2318 72.7636 45.2318 72.8552V83.0733C45.2318 83.1649 45.1573 83.2394 45.0657 83.2394H38.3782C38.2866 83.2394 38.2121 83.1649 38.2121 83.0733V72.8552Z" fill="#143A5A"/>
<path d="M60.1639 82.1709H58.5775V77.106C58.5775 76.1352 57.7907 75.3486 56.8201 75.3486C55.8496 75.3486 55.0627 76.1352 55.0627 77.106V82.1709H53.4764C51.4467 82.1709 49.7954 83.8221 49.7954 85.8518V96.0696C49.7954 98.0993 51.4467 99.7505 53.4764 99.7505H55.0627V100.969C55.0627 101.94 55.8496 102.726 56.8201 102.726C57.7907 102.726 58.5775 101.94 58.5775 100.969V99.7505H60.1639C62.1935 99.7505 63.8448 98.0993 63.8448 96.0696V85.8518C63.8446 83.8221 62.1935 82.1709 60.1639 82.1709ZM60.3298 96.0696C60.3298 96.1612 60.2552 96.2357 60.1636 96.2357H53.4761C53.3845 96.2357 53.31 96.1612 53.31 96.0696V85.8518C53.31 85.7602 53.3845 85.6857 53.4761 85.6857H60.1636C60.2552 85.6857 60.3298 85.7602 60.3298 85.8518V96.0696Z" fill="#143A5A"/>
<path d="M54.72 108.188H29.9556C28.9851 108.188 28.1982 108.975 28.1982 109.945C28.1982 110.916 28.9851 111.703 29.9556 111.703H54.72C55.6906 111.703 56.4775 110.916 56.4775 109.945C56.4775 108.975 55.6906 108.188 54.72 108.188Z" fill="#143A5A"/>
<path d="M56.5186 63.2536H81.2833C82.2541 63.2536 83.0407 62.467 83.0407 61.4962C83.0407 60.5254 82.2541 59.7388 81.2833 59.7388H56.5186C55.5481 59.7388 54.7612 60.5254 54.7612 61.4962C54.7612 62.467 55.5481 63.2536 56.5186 63.2536Z" fill="#143A5A"/>
</g>
<defs>
<clipPath id="clip0_543_3412">
<rect width="120" height="120" fill="white" transform="translate(10 10)"/>
</clipPath>
</defs>
</svg>
