<svg width="140" height="140" viewBox="0 0 140 140" fill="none" xmlns="http://www.w3.org/2000/svg">
<rect width="140" height="140" rx="60" fill="#F2F3F8"/>
<g clip-path="url(#clip0_33_679)">
<path d="M112.963 54.2081L58.6567 108.514C56.203 110.968 52.2241 110.968 49.7696 108.514L17.8131 76.5571C15.3585 74.1026 15.3585 70.1237 17.8131 67.6701L72.1186 13.3637C74.5731 10.91 78.552 10.91 81.0056 13.3637L112.963 45.3211C115.417 47.7747 115.417 51.7536 112.963 54.2081Z" fill="#8CBAFA"/>
<path d="M112.963 45.3211L108.974 41.3322C111.159 43.5175 110.942 47.2785 108.488 49.733L54.1815 104.039C51.7279 106.493 47.9669 106.711 45.7815 104.526L49.7695 108.514C52.2241 110.968 56.203 110.968 58.6566 108.514L112.963 54.2082C115.417 51.7536 115.417 47.7747 112.963 45.3211Z" fill="#5692D8"/>
<path d="M71.2313 25.7416L65.9103 31.0627C63.8174 33.1546 63.8174 36.5458 65.9103 38.6377C68.0022 40.7297 71.3934 40.7297 73.4853 38.6377L78.8064 33.3167C80.8984 31.2247 80.8984 27.8336 78.8064 25.7416C76.7144 23.6496 73.3233 23.6496 71.2313 25.7416Z" fill="#FFCD34"/>
<path d="M118.091 70.2463H41.2908C37.82 70.2463 35.0066 73.0598 35.0066 76.5296V121.724C35.0066 125.195 37.82 128.008 41.2908 128.008H118.091C121.561 128.008 124.374 125.195 124.374 121.724V76.5296C124.374 73.0598 121.561 70.2463 118.091 70.2463Z" fill="#FFCD34"/>
<path d="M118.091 70.2463H112.466C115.936 70.2463 118.749 73.0598 118.749 76.5296V121.724C118.749 125.195 115.936 128.008 112.466 128.008H118.091C121.561 128.008 124.374 125.195 124.374 121.724V76.5296C124.374 73.0598 121.561 70.2463 118.091 70.2463Z" fill="#E69012"/>
<path d="M35.0066 84.4435H124.374V95.3007H35.0066V84.4435Z" fill="#575B7A"/>
<path d="M118.749 84.4435H124.374V95.3007H118.749V84.4435Z" fill="#252D4C"/>
<path d="M102.41 112.649V119.345C102.41 119.864 102.829 120.283 103.347 120.283H113.998C114.517 120.283 114.936 119.864 114.936 119.345V112.649C114.936 112.131 114.517 111.712 113.998 111.712H103.347C102.829 111.712 102.41 112.131 102.41 112.649Z" fill="#E9E9EA"/>
<path d="M70.2957 112.649V119.345C70.2957 119.864 70.7159 120.283 71.2332 120.283H93.7616C94.2798 120.283 94.6991 119.864 94.6991 119.345V112.649C94.6991 112.131 94.2798 111.712 93.7616 111.712H71.2332C70.7159 111.712 70.2957 112.131 70.2957 112.649Z" fill="#E9E9EA"/>
<path d="M19.0564 75.3147C17.2913 73.5496 17.2913 70.6776 19.0564 68.9134L62.1311 25.8386C62.8178 25.152 62.8178 24.0387 62.1311 23.353C61.4445 22.6654 60.3312 22.6663 59.6455 23.353L16.5698 66.4277C13.4351 69.5625 13.4351 74.6647 16.5698 77.8004L27.4198 88.6494C27.7622 88.9918 28.2126 89.164 28.6621 89.164C29.1126 89.164 29.5621 88.9928 29.9054 88.6494C30.5921 87.9628 30.5921 86.8495 29.9054 86.1638L19.0564 75.3147Z" fill="#143A5A"/>
<path d="M53.6121 44.7727L27.0123 71.3725C26.3257 72.0592 26.3257 73.1724 27.0123 73.8591C27.3556 74.2015 27.8051 74.3736 28.2556 74.3736C28.7051 74.3736 29.1546 74.2024 29.498 73.8591L56.0977 47.2593C56.7844 46.5727 56.7844 45.4594 56.0977 44.7727C55.412 44.087 54.2987 44.087 53.6121 44.7727Z" fill="#143A5A"/>
<path d="M69.6978 41.962C71.5197 41.962 73.3416 41.269 74.7287 39.882L80.0497 34.5609C82.8238 31.7869 82.8238 27.2733 80.0497 24.4992C77.2757 21.7252 72.7621 21.7252 69.9881 24.4992L64.667 29.8203C63.323 31.1643 62.5833 32.9505 62.5833 34.8511C62.5833 36.7509 63.323 38.538 64.667 39.882C66.054 41.269 67.8759 41.962 69.6978 41.962ZM67.1527 32.306L72.4737 26.9849C73.8772 25.5814 76.1605 25.5814 77.5631 26.9849C78.9666 28.3884 78.9666 30.6717 77.5631 32.0743L72.2421 37.3954C70.8395 38.7989 68.5562 38.7989 67.1527 37.3954C66.4733 36.7161 66.0989 35.8124 66.0989 34.8511C66.0989 33.8898 66.4733 32.9853 67.1527 32.306Z" fill="#143A5A"/>
<path d="M118.09 68.4886H101.169L114.206 55.4514C117.342 52.3158 117.342 47.2135 114.206 44.0778L82.2488 12.1213C80.73 10.6024 78.7103 9.76562 76.5625 9.76562C74.4146 9.76562 72.395 10.6024 70.8752 12.1213L64.613 18.3835C63.9272 19.0701 63.9272 20.1825 64.613 20.8692C65.2996 21.5558 66.4129 21.5558 67.0986 20.8692L73.3618 14.6069C74.216 13.7518 75.3531 13.2813 76.5625 13.2813C77.771 13.2813 78.9081 13.7518 79.7632 14.6069L111.72 46.5635C113.485 48.3286 113.485 51.1997 111.72 52.9649L96.1969 68.4877H51.7745L64.5516 55.7105C65.2383 55.0248 65.2383 53.9115 64.5516 53.2249C63.865 52.5382 62.7517 52.5382 62.066 53.2249L46.8032 68.4886H41.2908C36.856 68.4886 33.2488 72.0958 33.2488 76.5297V121.724C33.2488 126.158 36.856 129.766 41.2908 129.766H118.09C122.525 129.766 126.132 126.158 126.132 121.724V115.227C126.132 114.256 125.346 113.469 124.374 113.469C123.404 113.469 122.616 114.256 122.616 115.227V121.724C122.616 124.22 120.587 126.25 118.09 126.25H41.2908C38.7951 126.25 36.7644 124.22 36.7644 121.724V97.0586H122.616V108.196C122.616 109.166 123.403 109.954 124.374 109.954C125.346 109.954 126.132 109.166 126.132 108.196V76.5306C126.132 72.0958 122.525 68.4886 118.09 68.4886ZM41.2908 72.0042H118.09C120.586 72.0042 122.616 74.0349 122.616 76.5306V82.6866H36.7644V76.5306C36.7644 74.0349 38.7951 72.0042 41.2908 72.0042ZM36.7644 93.543V86.2022H122.616V93.543H36.7644Z" fill="#143A5A"/>
<path d="M103.347 109.954C101.861 109.954 100.652 111.163 100.652 112.649V119.345C100.652 120.832 101.861 122.041 103.347 122.041H113.998C115.484 122.041 116.694 120.832 116.694 119.345V112.649C116.694 111.163 115.484 109.954 113.998 109.954H103.347ZM113.178 118.525H104.167V113.469H113.178V118.525Z" fill="#143A5A"/>
<path d="M71.2332 109.954C69.7473 109.954 68.5378 111.163 68.5378 112.649V119.345C68.5378 120.832 69.7473 122.041 71.2332 122.041H93.7616C95.2475 122.041 96.4569 120.832 96.4569 119.345V112.649C96.4569 111.163 95.2475 109.954 93.7616 109.954H71.2332ZM92.9413 118.525H72.0535V113.469H92.9413V118.525Z" fill="#143A5A"/>
<path d="M49.8887 118.525C48.9182 118.525 48.1309 119.312 48.1309 120.283C48.1309 121.254 48.9182 122.041 49.8887 122.041H61.1131C62.0835 122.041 62.8709 121.254 62.8709 120.283C62.8709 119.312 62.0835 118.525 61.1131 118.525H49.8887Z" fill="#143A5A"/>
</g>
<defs>
<clipPath id="clip0_33_679">
<rect width="120" height="120" fill="white" transform="translate(10 10)"/>
</clipPath>
</defs>
</svg>
