<svg width="140" height="140" viewBox="0 0 140 140" fill="none" xmlns="http://www.w3.org/2000/svg">
<rect width="140" height="140" rx="60" fill="#F2F3F8"/>
<g clip-path="url(#clip0_543_3346)">
<path d="M102.143 36.1823H109.659V83.1516H102.143V36.1823Z" fill="#F4DBB3"/>
<path d="M102.143 43.6969H109.659V83.1516H102.143V43.6969Z" fill="#F9EAC7"/>
<path d="M83.356 36.1823H90.8706V83.1516H83.356V36.1823Z" fill="#F4DBB3"/>
<path d="M83.356 43.6969H90.8706V83.1516H83.356V43.6969Z" fill="#F9EAC7"/>
<path d="M49.5381 36.1823H57.0527V83.1516H49.5381V36.1823Z" fill="#F4DBB3"/>
<path d="M49.5381 43.6969H57.0527V83.1516H49.5381V43.6969Z" fill="#F9EAC7"/>
<path d="M30.7495 36.1823H38.2651V83.1516H30.7495V36.1823Z" fill="#F4DBB3"/>
<path d="M30.7495 43.6969H38.2651V83.1516H30.7495V43.6969Z" fill="#F9EAC7"/>
<path d="M113.416 32.424L70.2042 11.7578L26.9922 32.424V38.061H113.416V32.424Z" fill="#F9EAC7"/>
<path d="M39.1402 32.6337C39.1787 32.804 39.36 33.3643 40.0558 33.3643H100.352C101.048 33.3643 101.23 32.804 101.268 32.6337C101.306 32.4616 101.385 31.8775 100.758 31.5772L73.0404 18.3213C71.2387 17.4588 69.1687 17.4588 67.3678 18.3213L39.6502 31.5772C39.0221 31.8775 39.1009 32.4616 39.1402 32.6337Z" fill="#F4DBB3"/>
<path d="M85.2346 128.242H55.1741C52.0613 128.242 49.5381 125.719 49.5381 122.606V58.7272C49.5381 55.6144 52.0613 53.0912 55.1741 53.0912H85.2346C88.3473 53.0912 90.8705 55.6144 90.8705 58.7272V122.606C90.8705 125.719 88.3473 128.242 85.2346 128.242Z" fill="white"/>
<path d="M79.5985 118.848H60.8101C58.7355 118.848 57.0527 117.166 57.0527 115.091V105.697C57.0527 103.622 58.7355 101.939 60.8101 101.939H79.5985C81.6731 101.939 83.3559 103.622 83.3559 105.697V115.091C83.3559 117.166 81.6731 118.848 79.5985 118.848Z" fill="#FFE07D"/>
<path d="M79.5985 111.333H60.8101C58.7355 111.333 57.0527 109.651 57.0527 107.576V98.1819C57.0527 96.1064 58.7355 94.4246 60.8101 94.4246H79.5985C81.6731 94.4246 83.3559 96.1064 83.3559 98.1819V107.576C83.3559 109.651 81.6731 111.333 79.5985 111.333Z" fill="#CCF49F"/>
<path d="M62.6887 100.061V94.4246H60.8101C58.7355 94.4246 57.0527 96.1064 57.0527 98.1819V107.576C57.0527 109.651 58.7355 111.333 60.8101 111.333H79.5976C81.6731 111.333 83.3559 109.651 83.3559 107.576V105.697H68.3256C65.2128 105.697 62.6887 103.173 62.6887 100.061Z" fill="#B3E59F"/>
<path d="M60.8101 118.848C58.7355 118.848 57.0527 117.166 57.0527 115.091V53.0912H55.1741C52.0613 53.0912 49.5381 55.6144 49.5381 58.7272V122.606C49.5381 125.719 52.0613 128.242 55.1741 128.242H85.2346C88.3473 128.242 90.8705 125.718 90.8705 122.606V118.848H60.8101Z" fill="#ECEAEC"/>
<path d="M75.8403 60.6058H64.5674C62.4928 60.6058 60.8101 58.924 60.8101 56.8485V53.0912H79.5976V56.8485C79.5985 58.924 77.9158 60.6058 75.8403 60.6058Z" fill="#5D5360"/>
<path d="M68.4463 85.0303C68.4463 86.0007 69.2336 86.7881 70.2041 86.7881C71.1746 86.7881 71.9619 86.0007 71.9619 85.0303V85.012C71.9619 84.0406 71.1746 83.2633 70.2041 83.2633C69.2336 83.2633 68.4463 84.0598 68.4463 85.0303Z" fill="#143A5A"/>
<path d="M78.9218 74.5512C79.4702 74.5512 80.0104 74.2958 80.3537 73.8151C80.9177 73.0259 80.7346 71.9273 79.9445 71.3633C77.0789 69.3153 73.7107 68.2332 70.2042 68.2332C66.6977 68.2332 63.3295 69.3153 60.463 71.3633C59.6729 71.9273 59.4907 73.0259 60.0546 73.8151C60.6186 74.6052 61.7163 74.7883 62.5064 74.2235C64.7733 72.6048 67.4347 71.7488 70.2042 71.7488C72.9727 71.7488 75.6342 72.6048 77.901 74.2235C78.2114 74.445 78.5675 74.5512 78.9218 74.5512Z" fill="#143A5A"/>
<path d="M75.2651 81.2565C75.7411 81.2565 76.2145 81.0652 76.5614 80.6862C77.217 79.9711 77.1694 78.8588 76.4534 78.2033C74.7267 76.6203 72.5075 75.7478 70.204 75.7478C67.9005 75.7478 65.6813 76.6194 63.9546 78.2033C63.2387 78.8588 63.1901 79.9711 63.8466 80.6862C64.503 81.4021 65.6145 81.4506 66.3304 80.7942C67.4071 79.8073 68.7822 79.2634 70.204 79.2634C71.6249 79.2634 73.0009 79.8073 74.0776 80.7942C74.4154 81.1036 74.8412 81.2565 75.2651 81.2565Z" fill="#143A5A"/>
<path d="M85.2346 51.3334H55.1741C51.0963 51.3334 47.7803 54.6503 47.7803 58.7272V122.606C47.7803 126.683 51.0963 130 55.1741 130H85.2346C89.3114 130 92.6284 126.683 92.6284 122.606V68.1205C92.6284 67.15 91.8419 66.3627 90.8705 66.3627C89.9001 66.3627 89.1127 67.15 89.1127 68.1205V122.606C89.1127 124.745 87.3732 126.485 85.2346 126.485H55.1741C53.0354 126.485 51.2959 124.745 51.2959 122.606V58.7272C51.2959 56.5885 53.0354 54.849 55.1741 54.849H59.0523V56.8485C59.0523 59.8899 61.5269 62.3637 64.5674 62.3637H75.8403C78.8817 62.3637 81.3555 59.8899 81.3555 56.8485V54.849H85.2346C87.3732 54.849 89.1127 56.5885 89.1127 58.7272V60.6058C89.1127 61.5772 89.9001 62.3637 90.8705 62.3637C91.841 62.3637 92.6284 61.5772 92.6284 60.6058V58.7272C92.6284 54.6503 89.3114 51.3334 85.2346 51.3334ZM77.8407 56.8485C77.8407 57.9517 76.9435 58.848 75.8403 58.848H64.5683C63.4651 58.848 62.5679 57.9508 62.5679 56.8485V54.849H77.8407V56.8485Z" fill="#143A5A"/>
<path d="M113.416 39.8188C114.387 39.8188 115.174 39.0314 115.174 38.0609V32.424C115.174 31.7475 114.785 31.1304 114.174 30.8383L70.9623 10.1721C70.4835 9.94231 69.925 9.94231 69.4453 10.1721L26.2332 30.8383C25.6235 31.1304 25.2344 31.7475 25.2344 32.424V38.0609C25.2344 39.0314 26.0217 39.8188 26.9922 39.8188H28.9917V81.3938H26.9922C26.0217 81.3938 25.2344 82.1803 25.2344 83.1516C25.2344 84.1221 26.0217 84.9095 26.9922 84.9095H42.0224C42.9929 84.9095 43.7802 84.1221 43.7802 83.1516C43.7802 82.1803 42.9929 81.3938 42.0224 81.3938H40.022V39.8188H47.7793V47.4552C47.7793 48.4256 48.5666 49.213 49.5371 49.213C50.5085 49.213 51.2949 48.4256 51.2949 47.4552V39.8188H55.2948V45.5756C55.2948 46.547 56.0813 47.3334 57.0527 47.3334C58.0231 47.3334 58.8105 46.547 58.8105 45.5756V39.8188H81.5971V45.5756C81.5971 46.547 82.3844 47.3334 83.3549 47.3334C84.3263 47.3334 85.1127 46.547 85.1127 45.5756V39.8188H89.1126V47.4552C89.1126 48.4256 89.8991 49.213 90.8705 49.213C91.8409 49.213 92.6283 48.4256 92.6283 47.4552V39.8188H100.386V81.3938H98.3851C97.4147 81.3938 96.6273 82.1812 96.6273 83.1516C96.6273 84.1221 97.4147 84.9095 98.3851 84.9095H113.415C114.387 84.9095 115.173 84.1221 115.173 83.1516C115.173 82.1812 114.387 81.3938 113.415 81.3938H111.416V39.8188H113.416ZM28.75 33.5318L70.2042 13.706L111.658 33.5318V36.3031H28.75V33.5318ZM36.5073 81.3938H32.5073V39.8188H36.5064V81.3938H36.5073ZM107.901 81.3938H103.901V39.8188H107.901V81.3938Z" fill="#143A5A"/>
<path d="M55.2949 98.1819V115.091C55.2949 118.132 57.7696 120.607 60.8101 120.607H79.5976C82.639 120.607 85.1137 118.132 85.1137 115.091V98.1819C85.1137 95.1405 82.639 92.6667 79.5976 92.6667H60.8101C57.7696 92.6667 55.2949 95.1405 55.2949 98.1819ZM79.5985 117.09H60.8101C59.7078 117.09 58.8106 116.193 58.8106 115.091V112.714C59.4313 112.957 60.1051 113.091 60.8101 113.091H79.5985C80.3035 113.091 80.9773 112.957 81.5981 112.714V115.091C81.5981 116.194 80.7008 117.09 79.5985 117.09ZM58.8106 98.1819C58.8106 97.0796 59.7078 96.1824 60.8101 96.1824H79.5976C80.7008 96.1824 81.5981 97.0796 81.5981 98.1819V107.576C81.5981 108.678 80.7008 109.576 79.5976 109.576H60.8101C59.7078 109.576 58.8106 108.678 58.8106 107.576V98.1819Z" fill="#143A5A"/>
<path d="M64.5684 103.697H66.447C67.4175 103.697 68.2048 102.911 68.2048 101.939C68.2048 100.969 67.4175 100.181 66.447 100.181H64.5684C63.597 100.181 62.8105 100.969 62.8105 101.939C62.8105 102.911 63.597 103.697 64.5684 103.697Z" fill="#143A5A"/>
<path d="M75.877 31.3266V23.4066C75.877 22.991 75.9942 22.6634 76.2286 22.4236C76.4684 22.1838 76.7774 22.064 77.1557 22.064H79.833C81.6072 22.064 83.0004 22.5302 84.0128 23.4626C85.0251 24.3949 85.5312 25.679 85.5312 27.3147C85.5312 28.961 85.0117 30.2637 83.9728 31.2227C82.9392 32.1764 81.5326 32.6533 79.753 32.6533H77.2196C76.8466 32.6533 76.5296 32.5254 76.2686 32.2697C76.0075 32.0086 75.877 31.6943 75.877 31.3266ZM78.2665 30.5914H79.7371C80.7973 30.5914 81.6258 30.3063 82.2226 29.7362C82.8246 29.1608 83.1256 28.359 83.1256 27.3307C83.1256 26.3237 82.8273 25.5378 82.2306 24.973C81.6338 24.4083 80.8133 24.1259 79.769 24.1259H78.2665V30.5914Z" fill="#143A5A"/>
<path d="M65.8232 31.6223V23.0949C65.8232 22.365 66.1616 22 66.8382 22H67.1819C67.8905 22 68.2448 22.365 68.2448 23.0949V26.8751L71.7133 22.7832C72.1076 22.2611 72.5498 22 73.04 22C73.2105 22 73.373 22.0293 73.5275 22.0879C73.6873 22.1465 73.8179 22.2184 73.9191 22.3037C74.0256 22.3889 74.1162 22.4795 74.1908 22.5754C74.2707 22.666 74.3267 22.7486 74.3586 22.8232C74.3906 22.8924 74.3986 22.9404 74.3826 22.967L70.7942 27.2507L74.5105 31.7662C74.5158 31.7768 74.5185 31.7875 74.5185 31.7981C74.5185 31.8248 74.5078 31.8647 74.4865 31.918C74.4545 31.9926 74.3959 32.0752 74.3107 32.1658C74.2308 32.251 74.1349 32.3363 74.023 32.4215C73.9111 32.5014 73.7726 32.5707 73.6074 32.6293C73.4422 32.6879 73.2691 32.7172 73.0879 32.7172C72.5658 32.7172 72.1236 32.4668 71.7613 31.966L68.2448 27.7462V31.6223C68.2448 32.3522 67.8905 32.7172 67.1819 32.7172H66.8382C66.5079 32.7172 66.2548 32.624 66.079 32.4375C65.9085 32.251 65.8232 31.9793 65.8232 31.6223Z" fill="#143A5A"/>
<path d="M57 31.3266V23.0949C57 22.365 57.3383 22 58.015 22H58.3586C59.0673 22 59.4216 22.365 59.4216 23.0949V30.5274H63.3856C64.1262 30.5274 64.4964 30.8657 64.4964 31.5424V31.6063C64.4964 32.3043 64.1262 32.6533 63.3856 32.6533H58.2547C57.8605 32.6533 57.5514 32.5387 57.3277 32.3096C57.1092 32.0752 57 31.7475 57 31.3266Z" fill="#143A5A"/>
</g>
<defs>
<clipPath id="clip0_543_3346">
<rect width="120" height="120" fill="white" transform="translate(10 10)"/>
</clipPath>
</defs>
</svg>
