<svg width="140" height="140" viewBox="0 0 140 140" fill="none" xmlns="http://www.w3.org/2000/svg">
<rect width="140" height="140" rx="60" fill="#F2F3F8"/>
<g clip-path="url(#clip0_596_213)">
<path d="M112.151 21.4648H50.8218C48.1251 21.4648 45.939 23.651 45.939 26.3477V59.5039H52.0837C54.7126 59.5039 56.8515 61.6428 56.8515 64.2717V104.369H71.8489V84.398H91.1237V104.37H112.151C114.848 104.37 117.034 102.183 117.034 99.4867V26.3477C117.034 23.651 114.848 21.4648 112.151 21.4648Z" fill="#E1D3CE"/>
<path d="M112.151 21.4648H101.837C104.534 21.4648 106.72 23.651 106.72 26.3477V29.6918C107.977 30.0215 108.906 31.1619 108.906 32.5225V74.7338C108.906 76.0943 107.977 77.2348 106.72 77.5645V99.4865C106.72 102.183 104.534 104.369 101.837 104.369H112.151C114.848 104.369 117.034 102.183 117.034 99.4865V26.3477C117.034 23.651 114.848 21.4648 112.151 21.4648Z" fill="#CDBFBA"/>
<path d="M105.976 29.5928H56.9966C55.3786 29.5928 54.0669 30.9045 54.0669 32.5225V59.9377C55.7083 60.6918 56.8515 62.3502 56.8515 64.2717V77.6561C56.8999 77.6584 56.9476 77.6635 56.9966 77.6635H105.976C107.594 77.6635 108.906 76.3518 108.906 74.7338V32.5225C108.906 30.9045 107.594 29.5928 105.976 29.5928Z" fill="#8379C1"/>
<path d="M100.815 74.7337C100.815 76.3517 99.5037 77.6634 97.8857 77.6634H105.976C107.594 77.6634 108.905 76.3517 108.905 74.7337V66.7488H100.815V74.7337Z" fill="#6E61B6"/>
<path d="M105.976 29.5928H56.9966C55.3786 29.5928 54.0669 30.9045 54.0669 32.5225V59.9377C55.7083 60.6918 56.8515 62.3502 56.8515 64.2717V66.7488H108.906V32.5225C108.906 30.9045 107.594 29.5928 105.976 29.5928Z" fill="#54469C"/>
<path d="M101.446 29.5925V66.7486H61.5274V29.5925H101.446Z" fill="#8379C1"/>
<path d="M95.27 29.5928H101.445V36.4062H95.27V29.5928Z" fill="#6E61B6"/>
<path d="M101.446 36.4062V66.7488H61.5274V36.4062H101.446Z" fill="white"/>
<path d="M95.27 36.4062H101.445V66.7488H95.27V36.4062Z" fill="#FAF7F7"/>
<path d="M71.849 84.3981H66.1387C65.06 84.3981 64.1855 85.2725 64.1855 86.3512V92.8951C64.1855 93.9739 65.06 94.8483 66.1387 94.8483H71.849V84.3981Z" fill="#B9ACAC"/>
<path d="M96.8339 84.3981H91.1235V94.8483H96.8339C97.9126 94.8483 98.787 93.9739 98.787 92.8951V86.3512C98.787 85.2725 97.9126 84.3981 96.8339 84.3981Z" fill="#B9ACAC"/>
<path d="M96.8338 84.3981H92.8516C93.9303 84.3981 94.8047 85.2725 94.8047 86.3512V92.8951C94.8047 93.9739 93.9303 94.8483 92.8516 94.8483H96.8338C97.9125 94.8483 98.7869 93.9739 98.7869 92.8951V86.3512C98.7869 85.2725 97.9125 84.3981 96.8338 84.3981Z" fill="#9E9797"/>
<path d="M90.1469 111.104H72.8252C72.2859 111.104 71.8486 110.667 71.8486 110.127V84.3981H91.1234V110.127C91.1234 110.667 90.6863 111.104 90.1469 111.104Z" fill="#0ED2B3"/>
<path d="M89.2656 84.3981C89.2656 87.3 87.6732 89.8256 85.3178 91.1627V104.713C85.3178 104.923 85.2059 105.106 85.0391 105.209V110.128C85.0391 110.667 84.6018 111.104 84.0625 111.104H90.1469C90.6861 111.104 91.1234 110.667 91.1234 110.128V84.3981H89.2656Z" fill="#0AB69F"/>
<path d="M81.4864 91.9823C80.0894 91.9823 78.78 91.6018 77.6548 90.9401V104.712C77.6548 105.036 77.9171 105.298 78.2407 105.298H84.7323C85.056 105.298 85.3183 105.036 85.3183 104.712V90.9401C84.1929 91.6016 82.8833 91.9823 81.4864 91.9823Z" fill="white"/>
<path d="M81.4861 91.9823C81.433 91.9823 81.3811 91.978 81.3281 91.977V104.713C81.3281 105.036 81.0658 105.299 80.7422 105.299H84.7318C85.0555 105.299 85.3178 105.036 85.3178 104.713V90.9403C84.1926 91.6016 82.883 91.9823 81.4861 91.9823Z" fill="#FAF7F7"/>
<path d="M73.707 84.3981C73.707 88.6946 77.19 92.1776 81.4865 92.1776C85.783 92.1776 89.266 88.6946 89.266 84.3981H73.707Z" fill="#A2E62E"/>
<path d="M83.0861 84.3981C83.0861 87.5963 81.1555 90.3428 78.3965 91.5383C79.3438 91.9489 80.3881 92.1776 81.4863 92.1776C85.7828 92.1776 89.2658 88.6946 89.2658 84.3981H83.0861Z" fill="#97D729"/>
<path d="M52.0836 118.535H27.9299C25.1889 118.535 22.9668 116.313 22.9668 113.572V64.2717C22.9668 61.5307 25.1889 59.3086 27.9299 59.3086H52.0838C54.8248 59.3086 57.0469 61.5307 57.0469 64.2717V113.572C57.0467 116.313 54.8246 118.535 52.0836 118.535Z" fill="#DFF6FD"/>
<path d="M52.0836 59.3086H45.0156C47.7566 59.3086 49.9787 61.5307 49.9787 64.2717V109.592H57.0467V64.2717C57.0467 61.5307 54.8246 59.3086 52.0836 59.3086Z" fill="#C8EFFE"/>
<path d="M22.9668 113.572C22.9668 116.313 25.1889 118.535 27.9299 118.535H52.0838C54.8248 118.535 57.0469 116.313 57.0469 113.572V109.592H22.9668V113.572Z" fill="#8379C1"/>
<path d="M57.0467 113.572V109.592H49.9787V113.572C49.9787 116.313 47.7566 118.535 45.0156 118.535H52.0836C54.8246 118.535 57.0467 116.313 57.0467 113.572Z" fill="#6E61B6"/>
<path d="M112.151 20H50.8217C47.3217 20 44.474 22.8477 44.474 26.3477V36.0156C44.474 36.8246 45.1299 37.4805 45.9389 37.4805C46.7479 37.4805 47.4037 36.8246 47.4037 36.0156V26.3477C47.4037 24.4631 48.9371 22.9297 50.8217 22.9297H112.151C114.035 22.9297 115.569 24.4631 115.569 26.3477V99.4865C115.569 101.371 114.035 102.904 112.151 102.904H92.5885V96.3129H96.834C98.7186 96.3129 100.252 94.7795 100.252 92.8949V86.3512C100.252 84.4666 98.7186 82.9332 96.834 82.9332H66.1387C64.2541 82.9332 62.7207 84.4666 62.7207 86.3512V92.8949C62.7207 94.7795 64.2541 96.3129 66.1387 96.3129H70.3842V102.904H58.5115V79.1283H89.3361C90.1453 79.1283 90.801 78.4725 90.801 77.6635C90.801 76.8545 90.1453 76.1986 89.3361 76.1986H58.5115V68.2137H107.441V74.7338C107.441 75.5414 106.784 76.1986 105.976 76.1986H96.1721C95.3629 76.1986 94.7072 76.8545 94.7072 77.6635C94.7072 78.4725 95.3629 79.1283 96.1721 79.1283H105.976C108.399 79.1283 110.371 77.157 110.371 74.7338V32.5225C110.371 30.0992 108.399 28.1279 105.976 28.1279H56.9965C54.5732 28.1279 52.602 30.0992 52.602 32.5225V57.8666C52.4307 57.8529 52.2582 57.8439 52.0836 57.8439H47.4037V42.8516C47.4037 42.0426 46.7479 41.3867 45.9389 41.3867C45.1299 41.3867 44.474 42.0426 44.474 42.8516V57.8438H27.9299C24.3855 57.8438 21.502 60.7273 21.502 64.2717V113.572C21.5018 117.116 24.3854 120 27.9299 120H52.0836C55.6279 120 58.5115 117.116 58.5115 113.572V105.834H70.3842V110.127C70.3842 111.474 71.4793 112.569 72.8256 112.569H90.1473C91.4936 112.569 92.5887 111.474 92.5887 110.127V105.834H112.151C115.651 105.834 118.499 102.987 118.499 99.4865V26.3477C118.499 22.8477 115.651 20 112.151 20ZM92.5885 85.8629H96.834C97.1033 85.8629 97.3223 86.082 97.3223 86.3512V92.8949C97.3223 93.1641 97.1033 93.3832 96.834 93.3832H92.5885V85.8629ZM102.91 31.0576H105.976C106.077 31.0576 106.176 31.0678 106.271 31.0875C106.938 31.2244 107.441 31.8158 107.441 32.5225V65.284H102.91V31.0576ZM62.992 31.0576H99.9807V34.9414H62.992V31.0576ZM62.992 37.8711H99.9807V65.284H62.992V37.8711ZM55.5818 108.127H37.5783C36.7693 108.127 36.1135 108.783 36.1135 109.592C36.1135 110.401 36.7693 111.057 37.5783 111.057H55.5818V113.572C55.5818 115.501 54.0125 117.07 52.0836 117.07H27.9299C26.001 117.07 24.4316 115.501 24.4316 113.572V111.057H30.7424C31.5514 111.057 32.2072 110.401 32.2072 109.592C32.2072 108.783 31.5514 108.127 30.7424 108.127H24.4314V64.2717C24.4314 62.3428 26.0008 60.7734 27.9297 60.7734H52.0834C54.0123 60.7734 55.5816 62.3428 55.5816 64.2717L55.5818 108.127ZM55.5316 58.8512V32.5225C55.5316 31.8158 56.0348 31.2242 56.7016 31.0875C56.7969 31.068 56.8955 31.0576 56.9965 31.0576H60.0623V65.284H58.5115V64.2717C58.5115 61.9957 57.3213 59.9936 55.5316 58.8512ZM66.1387 93.3832C65.8695 93.3832 65.6504 93.1641 65.6504 92.8949V86.3512C65.6504 86.082 65.8695 85.8629 66.1387 85.8629H70.3842V93.3832H66.1387ZM87.6297 85.8629C86.9672 88.6408 84.4643 90.7127 81.4863 90.7127C78.5086 90.7127 76.0055 88.6408 75.3432 85.8629H87.6297ZM83.8531 93.334V103.833H79.1193V93.334C79.8752 93.5344 80.6682 93.6424 81.4861 93.6424C82.3041 93.6424 83.0973 93.5344 83.8531 93.334ZM89.6588 109.639H73.3137V88.7127C74.0029 90.0115 74.9926 91.1277 76.1897 91.9678V104.712C76.1897 105.843 77.1096 106.763 78.2404 106.763H84.7318C85.8627 106.763 86.7826 105.843 86.7826 104.712V91.968C87.9797 91.1279 88.9695 90.0117 89.6588 88.7127V109.639Z" fill="#143A5A"/>
<path d="M94.6098 51.359H68.3633C67.5543 51.359 66.8984 52.0149 66.8984 52.8239C66.8984 53.6328 67.5543 54.2887 68.3633 54.2887H94.6098C95.4189 54.2887 96.0746 53.6328 96.0746 52.8239C96.0746 52.0149 95.4189 51.359 94.6098 51.359Z" fill="#143A5A"/>
<path d="M83.2497 57.609H82.7661C81.9569 57.609 81.3013 58.2649 81.3013 59.0739C81.3013 59.8828 81.9569 60.5387 82.7661 60.5387H83.2497C84.0589 60.5387 84.7146 59.8828 84.7146 59.0739C84.7146 58.2649 84.0587 57.609 83.2497 57.609Z" fill="#143A5A"/>
<path d="M88.9297 57.609H88.4463C87.6371 57.609 86.9814 58.2649 86.9814 59.0739C86.9814 59.8828 87.6371 60.5387 88.4463 60.5387H88.9297C89.7389 60.5387 90.3945 59.8828 90.3945 59.0739C90.3945 58.2649 89.7389 57.609 88.9297 57.609Z" fill="#143A5A"/>
<path d="M94.6094 57.609H94.126C93.3168 57.609 92.6611 58.2649 92.6611 59.0739C92.6611 59.8828 93.3168 60.5387 94.126 60.5387H94.6094C95.4186 60.5387 96.0742 59.8828 96.0742 59.0739C96.0742 58.2649 95.4186 57.609 94.6094 57.609Z" fill="#143A5A"/>
<path d="M94.6098 45.0977H68.3633C67.5543 45.0977 66.8984 45.7535 66.8984 46.5625C66.8984 47.3715 67.5543 48.0273 68.3633 48.0273H94.6098C95.4189 48.0273 96.0746 47.3715 96.0746 46.5625C96.0746 45.7535 95.4189 45.0977 94.6098 45.0977Z" fill="#143A5A"/>
<path d="M29.1322 78.1197C28.5601 78.6918 28.5601 79.6193 29.1322 80.1912C29.7042 80.7633 30.6318 80.7633 31.2037 80.1912C36.058 75.3373 43.9556 75.3375 48.8093 80.1912C49.0953 80.4771 49.4703 80.6203 49.8451 80.6203C50.2199 80.6203 50.5949 80.4773 50.8808 80.1912C51.4529 79.6191 51.4529 78.6916 50.8808 78.1197C44.8849 72.1236 35.1285 72.1234 29.1322 78.1197Z" fill="#143A5A"/>
<path d="M47.6867 83.2145C43.4517 78.9797 36.5613 78.9799 32.3265 83.2145C31.7544 83.7865 31.7544 84.7139 32.3265 85.2859C32.8984 85.858 33.8259 85.858 34.398 85.2859C37.4906 82.1936 42.5226 82.1936 45.615 85.2859C45.9009 85.5719 46.2759 85.715 46.6507 85.715C47.0255 85.715 47.4005 85.5721 47.6865 85.2859C48.2589 84.7139 48.2589 83.7865 47.6867 83.2145Z" fill="#143A5A"/>
<path d="M40.0069 86.3809C38.3124 86.3809 36.7194 87.0406 35.5213 88.2389C34.9493 88.8109 34.9493 89.7385 35.5213 90.3104C36.0934 90.8826 37.0209 90.8824 37.5928 90.3104C38.2377 89.6654 39.095 89.3104 40.0069 89.3104C40.9188 89.3104 41.7762 89.6654 42.4209 90.3104C42.7069 90.5965 43.0819 90.7395 43.4567 90.7395C43.8315 90.7395 44.2065 90.5965 44.4924 90.3104C45.0645 89.7383 45.0645 88.8109 44.4924 88.2389C43.2946 87.0408 41.7014 86.3809 40.0069 86.3809Z" fill="#143A5A"/>
<path d="M31.7285 97.3313H31.2451C30.4361 97.3313 29.7803 97.9872 29.7803 98.7961C29.7803 99.6051 30.4361 100.261 31.2451 100.261H31.7285C32.5375 100.261 33.1934 99.6051 33.1934 98.7961C33.1934 97.9872 32.5375 97.3313 31.7285 97.3313Z" fill="#143A5A"/>
<path d="M37.4082 97.3313H36.9248C36.1158 97.3313 35.46 97.9872 35.46 98.7961C35.46 99.6051 36.1158 100.261 36.9248 100.261H37.4082C38.2172 100.261 38.873 99.6051 38.873 98.7961C38.873 97.9872 38.2172 97.3313 37.4082 97.3313Z" fill="#143A5A"/>
<path d="M43.0884 97.3313H42.605C41.796 97.3313 41.1401 97.9872 41.1401 98.7961C41.1401 99.6051 41.796 100.261 42.605 100.261H43.0884C43.8974 100.261 44.5532 99.6051 44.5532 98.7961C44.5532 97.9872 43.8974 97.3313 43.0884 97.3313Z" fill="#143A5A"/>
<path d="M48.7686 97.3313H48.2852C47.4762 97.3313 46.8203 97.9872 46.8203 98.7961C46.8203 99.6051 47.4762 100.261 48.2852 100.261H48.7686C49.5775 100.261 50.2334 99.6051 50.2334 98.7961C50.2334 97.9872 49.5777 97.3313 48.7686 97.3313Z" fill="#143A5A"/>
<path d="M34.063 65.8914H45.9501C46.7591 65.8914 47.4149 65.2355 47.4149 64.4265C47.4149 63.6175 46.7591 62.9617 45.9501 62.9617H34.063C33.254 62.9617 32.5981 63.6175 32.5981 64.4265C32.5981 65.2355 33.254 65.8914 34.063 65.8914Z" fill="#143A5A"/>
<path d="M35.6208 38.3114C36.7258 35.9309 35.6918 33.1055 33.3113 32.0006C30.9309 30.8957 28.1055 31.9297 27.0006 34.3101C25.8957 36.6905 26.9297 39.5159 29.3101 40.6209C31.6905 41.7258 34.5159 40.6918 35.6208 38.3114Z" fill="#FFC250"/>
<path d="M32.6267 30.2243C29.4406 29.3291 26.1192 31.194 25.2242 34.3809C24.3293 37.5676 26.1939 40.8884 29.3808 41.7833C32.5219 42.6657 35.9011 40.7687 36.7832 37.6269C37.6667 34.4814 35.7644 31.1052 32.6267 30.2243ZM34.4721 36.9778C33.9352 38.89 31.9427 40.0088 30.0297 39.472C28.1174 38.9351 26.9986 36.9421 27.5355 35.0298C28.0726 33.1175 30.0648 31.9984 31.9779 32.5355C33.8579 33.0634 35.0036 35.0844 34.4721 36.9778Z" fill="#143A5A"/>
</g>
<defs>
<clipPath id="clip0_596_213">
<rect width="100" height="100" fill="white" transform="translate(20 20)"/>
</clipPath>
</defs>
</svg>
