<svg width="140" height="140" viewBox="0 0 140 140" fill="none" xmlns="http://www.w3.org/2000/svg">
<rect width="140" height="140" rx="60" fill="#F2F3F8"/>
<g clip-path="url(#clip0_543_3387)">
<path d="M95.2449 66.9824H122.653C125.726 66.9824 128.218 69.4745 128.218 72.547V122.809C128.218 125.882 125.726 128.372 122.653 128.372H17.3455C14.2729 128.372 11.7827 125.882 11.7827 122.809V72.547C11.7827 69.4745 14.2729 66.9824 17.3455 66.9824H60.2269" fill="#FFF5D7"/>
<path d="M111.942 30.58C106.501 25.1381 89.9825 32.8341 75.0475 47.7691C60.1125 62.7031 52.4175 79.222 57.8585 84.6639C63.3004 90.1058 79.8192 82.4099 94.7542 67.4749C109.689 52.5399 117.384 36.0219 111.942 30.58Z" fill="#FC445F"/>
<path d="M57.8592 84.6632C52.4191 79.2222 60.1123 62.7043 75.0482 47.7684C89.9823 32.8343 106.503 25.1383 111.943 30.5793C109.929 28.5642 96.1877 39.0388 81.2537 53.9729C66.3177 68.9088 55.845 82.649 57.8592 84.6632Z" fill="#DB0E35"/>
<path d="M60.5013 86.1288L56.5462 90.0839C55.4118 91.2182 53.5735 91.2182 52.4391 90.0839C51.3048 88.9495 51.3048 87.1111 52.4391 85.9768L56.3942 82.0217" fill="#3E4C56"/>
<path d="M108.003 54.2281C122.937 39.2931 130.633 22.7742 125.191 17.3323C119.749 11.8905 103.23 19.5855 88.2949 34.5205L108.003 54.2281Z" fill="#FC445F"/>
<path d="M125.191 17.3315C123.176 15.3174 109.435 25.7919 94.5004 40.726L88.2959 34.5206C103.23 19.5874 119.75 11.8915 125.191 17.3315Z" fill="#DB0E35"/>
<path d="M60.3785 43.3079C57.9688 42.4308 55.3028 43.6732 54.4248 46.0829C53.5468 48.4935 54.7892 51.1595 57.1998 52.0365C59.6104 52.9145 62.2755 51.6722 63.1535 49.2625C64.0315 46.8519 62.7891 44.1859 60.3785 43.3079Z" fill="#FC445F"/>
<path d="M122.653 65.1998H99.3903C102.224 62.0925 104.807 58.8845 107.025 55.7167C107.321 55.9108 107.662 56.0088 108.003 56.0088C108.459 56.0088 108.915 55.8348 109.263 55.4869C112.715 52.0345 115.855 48.4328 118.598 44.7817C119.189 43.9943 119.03 42.8774 118.243 42.286C117.455 41.6954 116.339 41.8538 115.748 42.6412C113.44 45.7146 110.836 48.7532 107.993 51.6957L90.8255 34.5305C97.5409 28.0376 104.675 22.8722 111.055 19.8995C117.113 17.0769 121.927 16.5889 123.93 18.593C126.563 21.2252 124.89 28.4121 119.671 36.9017C119.155 37.7394 119.417 38.8372 120.255 39.3526C121.094 39.868 122.191 39.6062 122.707 38.7685C129.105 28.3635 130.47 20.0917 126.451 16.0726C123.286 12.9058 117.379 13.0806 109.803 16.5541C108.788 14.8458 106.771 12.1953 103.493 10.9383C100.384 9.74537 96.9211 10.0695 93.2013 11.9005C88.382 14.2745 83.5086 21.921 78.3478 30.017C74.1492 36.606 69.5981 43.7444 65.2209 47.6345C65.2155 46.7208 65.015 45.8107 64.6176 44.9584C63.8925 43.402 62.6044 42.2219 60.9912 41.6341C59.3781 41.0463 57.6331 41.1223 56.0767 41.8474C54.5203 42.5725 53.3401 43.8607 52.7524 45.4729C52.1655 47.0861 52.2406 48.832 52.9657 50.3875C53.6908 51.9439 54.9789 53.1249 56.5921 53.7117C56.6104 53.7191 57.4838 53.9727 57.8445 54.0267C58.3243 54.1109 58.8022 54.153 59.2773 54.153C67.193 54.1521 74.3808 42.8746 81.3544 31.9332C86.0226 24.6062 90.8511 17.0311 94.7751 15.0985C97.5565 13.7288 100.052 13.4459 102.192 14.2571C104.382 15.0875 105.828 16.9094 106.606 18.1591C100.246 21.6225 93.4045 26.8886 87.0334 33.2598C86.7001 33.5939 86.5125 34.0471 86.5125 34.5205C86.5125 34.8702 86.6159 35.2098 86.8054 35.4982C82.4182 38.5698 77.9523 42.3436 73.7866 46.5075C67.7084 52.5856 62.6355 59.0914 59.1757 65.1998H17.3453C13.295 65.1998 10 68.4957 10 72.5469V122.809C10 126.859 13.295 130.154 17.3453 130.154H27.9691C28.9532 130.154 29.7516 129.356 29.7516 128.372C29.7516 127.388 28.9532 126.59 27.9691 126.59H17.3453C15.2606 126.59 13.5641 124.894 13.5641 122.809V72.5469C13.5641 70.4613 15.2606 68.7639 17.3453 68.7639H57.3199C57.2797 68.85 57.2366 68.937 57.1973 69.023C54.902 73.9486 53.9911 78.1783 54.4699 81.4257L51.1786 84.7161C49.3521 86.5435 49.3521 89.5162 51.1795 91.3436C52.0923 92.2564 53.2925 92.7132 54.4928 92.7132C55.6921 92.7132 56.8924 92.2564 57.8061 91.3436L61.0956 88.0532C61.655 88.1356 62.2409 88.1786 62.8571 88.1786C65.8188 88.1786 69.4223 87.2255 73.5001 85.3258C80.643 81.9979 88.6273 76.1165 95.9854 68.7639H122.653C124.738 68.7639 126.436 70.4613 126.436 72.5469V122.809C126.436 124.894 124.738 126.59 122.653 126.59H35.0983C34.1141 126.59 33.3157 127.388 33.3157 128.372C33.3157 129.356 34.1141 130.154 35.0983 130.154H122.653C126.704 130.154 130 126.859 130 122.809V72.5469C130 68.4957 126.704 65.1998 122.653 65.1998ZM56.1023 46.6942C56.3641 45.9755 56.8896 45.4015 57.5827 45.0783C57.9672 44.8998 58.3783 44.8092 58.7903 44.8092C59.1208 44.8092 59.4522 44.8668 59.7717 44.984C60.4904 45.2449 61.0635 45.7714 61.3867 46.4644C61.7099 47.1575 61.7438 47.9348 61.4819 48.6535C61.2201 49.3712 60.6946 49.9453 60.0015 50.2684C59.3085 50.5916 58.5312 50.6246 57.8125 50.3627C57.0938 50.1018 56.5207 49.5754 56.1975 48.8823C55.8743 48.1893 55.8405 47.412 56.1023 46.6942ZM55.2856 88.8231C54.8489 89.2607 54.1376 89.2607 53.7 88.8231C53.2623 88.3864 53.2623 87.6751 53.7 87.2374L55.8725 85.064C56.0922 85.3688 56.333 85.6572 56.5994 85.9237C56.8658 86.1901 57.1533 86.4318 57.4582 86.6515L55.2856 88.8231ZM71.9949 82.0958C65.9369 84.9184 61.124 85.4073 59.1199 83.4032C57.1167 81.4 57.6056 76.5871 60.4272 70.5281C63.5886 63.7432 69.2273 56.1077 76.3071 49.0288C80.4837 44.854 84.9625 41.0939 89.3359 38.0819L104.441 53.1853C101.432 57.5579 97.6718 62.0366 93.4952 66.2142C86.4163 73.294 78.7808 78.9345 71.9949 82.0958Z" fill="#143A5A"/>
<path d="M22.4666 99.4213H117.533C118.517 99.4213 119.315 98.6239 119.315 97.6397C119.315 96.6555 118.517 95.8572 117.533 95.8572H22.4666C21.4824 95.8572 20.6841 96.6555 20.6841 97.6397C20.6841 98.6239 21.4824 99.4213 22.4666 99.4213Z" fill="#143A5A"/>
<path d="M22.4666 81.152H43.1493C44.1335 81.152 44.9318 80.3536 44.9318 79.3694C44.9318 78.3853 44.1335 77.5869 43.1493 77.5869H22.4666C21.4824 77.5869 20.6841 78.3853 20.6841 79.3694C20.6841 80.3536 21.4824 81.152 22.4666 81.152Z" fill="#143A5A"/>
<path d="M22.4666 107.783H117.533C118.517 107.783 119.315 106.985 119.315 106C119.315 105.016 118.517 104.219 117.533 104.219H22.4666C21.4824 104.219 20.6841 105.016 20.6841 106C20.6841 106.985 21.4824 107.783 22.4666 107.783Z" fill="#143A5A"/>
<path d="M117.533 112.579H78.7606C77.7764 112.579 76.978 113.377 76.978 114.361C76.978 115.345 77.7764 116.143 78.7606 116.143H117.533C118.517 116.143 119.315 115.345 119.315 114.361C119.315 113.377 118.517 112.579 117.533 112.579Z" fill="#143A5A"/>
</g>
<defs>
<clipPath id="clip0_543_3387">
<rect width="120" height="120" fill="white" transform="translate(10 10)"/>
</clipPath>
</defs>
</svg>
