<svg width="140" height="140" viewBox="0 0 140 140" fill="none" xmlns="http://www.w3.org/2000/svg">
<rect width="140" height="140" rx="60" fill="#F2F3F8"/>
<g clip-path="url(#clip0_596_519)">
<path d="M99.5943 108.276H40.4053V25.4107C40.4053 23.2314 42.1719 21.4648 44.3512 21.4648H95.6484C97.8277 21.4648 99.5943 23.2314 99.5943 25.4107V108.276Z" fill="#DFF6FD"/>
<path d="M95.6484 21.4648H89.335C91.5143 21.4648 93.2809 23.2314 93.2809 25.4107V108.276H99.5943V25.4107C99.5943 23.2314 97.8277 21.4648 95.6484 21.4648Z" fill="#C8EFFE"/>
<path d="M40.4053 114.589C40.4053 116.769 42.1719 118.535 44.3512 118.535H95.6484C97.8277 118.535 99.5943 116.769 99.5943 114.589V108.276H40.4053V114.589Z" fill="#1F3596"/>
<path d="M93.2809 108.276V114.589C93.2809 116.769 91.5143 118.535 89.335 118.535H95.6484C97.8277 118.535 99.5943 116.769 99.5943 114.589V108.276H93.2809Z" fill="#192A7D"/>
<path d="M54.2163 21.4648L55.67 26.117C55.9788 27.1055 56.8942 27.7783 57.9298 27.7783H82.0702C83.1058 27.7783 84.0212 27.1053 84.33 26.117L85.7839 21.4648H54.2163Z" fill="#1F3596"/>
<path d="M79.8648 21.4648L78.4111 26.117C78.1023 27.1053 77.1869 27.7783 76.1514 27.7783H82.0703C83.1059 27.7783 84.0213 27.1053 84.3301 26.117L85.7838 21.4648H79.8648Z" fill="#192A7D"/>
<path d="M51.5605 64.4756C48.9063 64.4756 46.6697 62.3035 46.7197 59.6498L46.7188 59.649V87.3623C46.7188 92.5926 50.9588 96.8326 56.1891 96.8326H89.335C91.5143 96.8326 93.2809 95.066 93.2809 92.8867V68.4219C93.2809 66.2426 91.5143 64.476 89.335 64.476H51.5605V64.4756Z" fill="#B87D72"/>
<path d="M89.335 64.4756H81.2717C81.065 80.6801 69.1039 94.0508 53.5215 96.4488C54.3678 96.6969 55.2623 96.8322 56.1889 96.8322H89.3348C91.5141 96.8322 93.2807 95.0656 93.2807 92.8863V68.4215C93.2809 66.2424 91.5143 64.4756 89.335 64.4756Z" fill="#AB695D"/>
<path d="M51.4538 55.0055C48.8692 55.0055 46.7682 57.0762 46.7196 59.649C46.6692 62.3033 48.9057 64.4758 51.5604 64.4758H88.151V58.9514C88.151 56.7721 86.3844 55.0055 84.2051 55.0055H51.4538Z" fill="#9B5E5E"/>
<path d="M84.2052 83.811C85.9486 83.811 87.362 82.3976 87.362 80.6542C87.362 78.9107 85.9486 77.4973 84.2052 77.4973C82.4617 77.4973 81.0483 78.9107 81.0483 80.6542C81.0483 82.3976 82.4617 83.811 84.2052 83.811Z" fill="#FFE177"/>
<path d="M70 64.4756C76.9737 64.4756 82.627 58.8223 82.627 51.8486C82.627 44.875 76.9737 39.2217 70 39.2217C63.0263 39.2217 57.373 44.875 57.373 51.8486C57.373 58.8223 63.0263 64.4756 70 64.4756Z" fill="#FFD15B"/>
<path d="M76.2506 40.8789C77.3033 42.7223 77.9078 44.8547 77.9078 47.1295C77.9078 54.1031 72.2545 59.7564 65.2809 59.7564C63.0061 59.7564 60.8738 59.152 59.0303 58.0992C61.2047 61.907 65.3012 64.4758 70 64.4758C76.9736 64.4758 82.627 58.8225 82.627 51.8488C82.627 47.1498 80.0584 43.0533 76.2506 40.8789Z" fill="#FFC344"/>
<path d="M69.9997 58.5568C73.7045 58.5568 76.7079 55.5534 76.7079 51.8486C76.7079 48.1437 73.7045 45.1404 69.9997 45.1404C66.2949 45.1404 63.2915 48.1437 63.2915 51.8486C63.2915 55.5534 66.2949 58.5568 69.9997 58.5568Z" fill="#F6AB31"/>
<path d="M95.6484 20H44.3516C41.3684 20 38.9414 22.427 38.9414 25.4102V77.4973C38.9414 78.3064 39.5973 78.9621 40.4062 78.9621C41.2152 78.9621 41.8711 78.3064 41.8711 77.4973V25.4102C41.8711 24.0424 42.9838 22.9297 44.3516 22.9297H53.1393L54.2719 26.5541C54.7746 28.1625 56.2447 29.2434 57.9299 29.2434H82.0703C83.7555 29.2434 85.2256 28.1627 85.7283 26.5541L86.8607 22.9297H95.6484C97.0162 22.9297 98.1289 24.0424 98.1289 25.4102V46.0631C98.1289 46.8723 98.7848 47.5279 99.5937 47.5279C100.403 47.5279 101.059 46.8723 101.059 46.0631V25.4102C101.059 22.427 98.6316 20 95.6484 20ZM82.9318 25.6801C82.8135 26.0588 82.4672 26.3135 82.0701 26.3135H57.9299C57.5328 26.3135 57.1865 26.0588 57.0682 25.6801L56.2088 22.9297H83.7914L82.9318 25.6801Z" fill="#143A5A"/>
<path d="M99.5937 51.4342C98.7848 51.4342 98.1289 52.0899 98.1289 52.899V106.811H41.8711V84.3332C41.8711 83.524 41.2152 82.8684 40.4062 82.8684C39.5973 82.8684 38.9414 83.524 38.9414 84.3332V114.59C38.9414 117.573 41.3684 120 44.3516 120H95.6484C98.6316 120 101.059 117.573 101.059 114.59V52.899C101.059 52.0901 100.403 51.4342 99.5937 51.4342ZM95.6484 117.07H44.3516C42.9838 117.07 41.8711 115.958 41.8711 114.59V109.741H98.1289V114.59C98.1289 115.958 97.0162 117.07 95.6484 117.07Z" fill="#143A5A"/>
<path d="M45.2564 59.6131C45.2563 59.625 45.2539 59.6366 45.2539 59.6485V87.3614C45.2539 93.3913 50.1596 98.2969 56.1895 98.2969H70.8281C71.6371 98.2969 72.293 97.6413 72.293 96.8321C72.293 96.0229 71.6371 95.3672 70.8281 95.3672H56.1895C51.775 95.3672 48.1836 91.7758 48.1836 87.3614V64.961C49.1906 65.5934 50.3662 65.9415 51.5605 65.9415H89.3359C90.7037 65.9415 91.8164 67.0541 91.8164 68.4219V92.8868C91.8164 94.2545 90.7037 95.3672 89.3359 95.3672H77.6641C76.8551 95.3672 76.1992 96.0229 76.1992 96.8321C76.1992 97.6413 76.8551 98.2969 77.6641 98.2969H89.3359C92.3191 98.2969 94.7461 95.8698 94.7461 92.8868V68.4219C94.7461 65.5325 92.4691 63.1647 89.6152 63.0188V58.9512C89.6152 55.9682 87.1883 53.5413 84.2051 53.5413H83.9867C84.0535 52.986 84.092 52.4219 84.092 51.8489C84.092 44.0786 77.7703 37.7571 70.0002 37.7571C62.2301 37.7571 55.9084 44.0786 55.9084 51.8489C55.9084 52.4219 55.9469 52.986 56.0137 53.5413H51.4531C48.1023 53.5411 45.3242 56.2645 45.2564 59.6131ZM84.2051 56.4708C85.5729 56.4708 86.6855 57.5834 86.6855 58.951V63.0116H78.5859C80.7385 61.352 82.3984 59.0862 83.3094 56.4708H84.2051ZM70 40.6866C76.1549 40.6866 81.1621 45.694 81.1621 51.8487C81.1621 58.0034 76.1547 63.0108 70 63.0108C63.8453 63.0108 58.8379 58.0034 58.8379 51.8487C58.8379 45.694 63.8451 40.6866 70 40.6866ZM61.4141 63.0118H51.5605C50.6527 63.0118 49.7631 62.6358 49.1201 61.9803C48.501 61.3493 48.1689 60.5317 48.1854 59.6786C48.1854 59.6778 48.1854 59.6772 48.1854 59.6764C48.2189 57.9088 49.685 56.4709 51.4531 56.4709H56.6906C57.6016 59.0862 59.2615 61.3522 61.4141 63.0118Z" fill="#143A5A"/>
<path d="M88.8273 80.6542C88.8273 78.1057 86.7541 76.0325 84.2057 76.0325C81.6572 76.0325 79.584 78.1057 79.584 80.6542C79.584 83.2024 81.6572 85.2756 84.2057 85.2756C86.7541 85.2756 88.8273 83.2024 88.8273 80.6542ZM82.5137 80.6542C82.5137 79.7213 83.2727 78.9622 84.2057 78.9622C85.1387 78.9622 85.8977 79.7213 85.8977 80.6542C85.8977 81.587 85.1387 82.3459 84.2057 82.3459C83.2727 82.3459 82.5137 81.587 82.5137 80.6542Z" fill="#143A5A"/>
<path d="M70.0002 60.0214C74.5068 60.0214 78.1732 56.3552 78.1732 51.8486C78.1732 47.3419 74.5068 43.6755 70.0002 43.6755C65.4936 43.6755 61.8271 47.3417 61.8271 51.8486C61.8271 56.3552 65.4936 60.0214 70.0002 60.0214ZM70.0002 46.6054C72.8914 46.6054 75.2436 48.9576 75.2436 51.8488C75.2436 54.7398 72.8914 57.0919 70.0002 57.0919C67.109 57.0919 64.7568 54.7398 64.7568 51.8488C64.7568 48.9576 67.109 46.6054 70.0002 46.6054Z" fill="#143A5A"/>
<path d="M72.3675 111.941H67.6323C66.8233 111.941 66.1675 112.597 66.1675 113.406C66.1675 114.215 66.8233 114.87 67.6323 114.87H72.3675C73.1765 114.87 73.8323 114.215 73.8323 113.406C73.8323 112.597 73.1765 111.941 72.3675 111.941Z" fill="#143A5A"/>
<path d="M55.7944 114.87C56.6034 114.87 57.2593 114.215 57.2593 113.406C57.2593 112.597 56.6034 111.941 55.7944 111.941C54.9854 111.941 54.3296 112.597 54.3296 113.406C54.3296 114.215 54.9854 114.87 55.7944 114.87Z" fill="#143A5A"/>
<path d="M84.2056 114.87C85.0146 114.87 85.6704 114.215 85.6704 113.406C85.6704 112.597 85.0146 111.941 84.2056 111.941C83.3966 111.941 82.7407 112.597 82.7407 113.406C82.7407 114.215 83.3966 114.87 84.2056 114.87Z" fill="#143A5A"/>
</g>
<defs>
<clipPath id="clip0_596_519">
<rect width="100" height="100" fill="white" transform="translate(20 20)"/>
</clipPath>
</defs>
</svg>
