<svg width="64" height="58" viewBox="0 0 64 58" fill="none" xmlns="http://www.w3.org/2000/svg">
<path d="M31.9995 9.74323C32.6898 9.74323 33.2495 9.18348 33.2495 8.49323V2.12573C33.2495 1.43548 32.6899 0.875732 31.9995 0.875732C31.3091 0.875732 30.7495 1.43536 30.7495 2.12573V8.49323C30.7496 9.18348 31.3093 9.74323 31.9995 9.74323Z" fill="#BF212F"/>
<path d="M22.6017 11.7966C22.8394 12.1738 23.2452 12.3803 23.6604 12.3803C23.8881 12.3803 24.1187 12.318 24.3256 12.1876C24.9096 11.8196 25.0846 11.0478 24.7166 10.4636L21.3861 5.17926C21.018 4.59526 20.2461 4.42013 19.6622 4.78826C19.0782 5.15626 18.9032 5.92813 19.2712 6.51226L22.6017 11.7966Z" fill="#BF212F"/>
<path d="M39.6774 12.188C39.8843 12.3181 40.1147 12.3802 40.3422 12.3802C40.7574 12.3802 41.1635 12.1735 41.4012 11.7961L44.7282 6.51172C45.0959 5.92747 44.9206 5.15585 44.3363 4.78785C43.7518 4.42022 42.9804 4.59572 42.6126 5.17972L39.2856 10.4641C38.9178 11.0485 39.0933 11.8201 39.6774 12.188Z" fill="#BF212F"/>
<path d="M63.5971 30.304L61.4252 26.4671C61.0849 25.8661 60.3222 25.6549 59.7218 25.9951C59.1209 26.3353 58.9097 27.0979 59.2498 27.6985L61.4207 31.5338C61.5294 31.7265 61.5012 31.9124 61.4747 32.006C61.4492 32.0961 61.3789 32.2625 61.1952 32.364L57.8479 34.2181C57.5506 34.3824 57.1624 34.2786 57.0003 33.9926L56.1499 32.4884C56.1464 32.4816 56.1424 32.4754 56.1388 32.4688L47.3476 16.9195C47.2389 16.7281 47.2664 16.5446 47.2924 16.4523C47.3176 16.3629 47.3873 16.1978 47.5711 16.0961L50.9223 14.2416C51.2234 14.0749 51.6021 14.1761 51.7667 14.4679L53.7259 17.9295C54.0661 18.5304 54.8289 18.7415 55.4294 18.4016C56.0303 18.0616 56.2416 17.2989 55.9016 16.6981L53.9432 13.238C53.1079 11.7573 51.2102 11.2261 49.7124 12.054L46.3613 13.9085C45.6362 14.3093 45.1123 14.9716 44.8863 15.774C44.6731 16.5305 44.7493 17.3203 45.0984 18.0134L43.2524 18.5484C42.4661 18.7759 41.9888 18.8993 41.7239 18.8993C41.7228 18.8993 41.7218 18.8993 41.7208 18.8993C41.5384 18.8986 41.3396 18.829 40.7719 18.614C40.5144 18.5165 40.1938 18.395 39.7997 18.2575L36.5291 17.1141C34.7202 16.4824 33.9043 16.5164 32.7223 16.6243L27.1453 17.1234C24.6029 17.3486 22.9821 17.9221 22.0873 18.9168L18.9091 17.9959C19.2511 17.3058 19.3244 16.5236 19.1132 15.774C18.8872 14.9721 18.3637 14.3099 17.6393 13.9091L14.2901 12.0538C12.7911 11.2251 10.8922 11.7565 10.0568 13.2369L0.406309 30.3023C-0.00681561 31.0296 -0.109066 31.8756 0.118684 32.6845C0.344934 33.4878 0.868684 34.1508 1.59243 34.551L4.94168 36.4061C5.42056 36.6709 5.94081 36.7966 6.45418 36.7966C7.54481 36.7966 8.60506 36.2293 9.17493 35.2231L9.52881 34.5971C10.4946 35.0223 11.3054 35.6399 11.8581 36.3711C11.3183 37.0019 10.9783 37.7803 10.8829 38.6269C10.7569 39.7465 11.0732 40.845 11.7734 41.7206C12.4677 42.5888 13.4604 43.1365 14.5706 43.2655C14.4531 44.3756 14.7706 45.4634 15.4654 46.3293C16.1837 47.2273 17.1988 47.7511 18.2607 47.8748C18.1437 48.9833 18.4601 50.07 19.1528 50.9364C19.8467 51.8064 20.8397 52.3553 21.9509 52.4843C21.8333 53.5953 22.1508 54.6836 22.8457 55.5496C23.6739 56.5851 24.8967 57.1243 26.1311 57.1241C27.0526 57.1241 27.9806 56.8236 28.7553 56.2049L31.3726 54.1106C31.5804 53.9448 31.7693 53.7614 31.9392 53.5639L33.4342 54.7581C34.2073 55.3751 35.1332 55.6749 36.0534 55.6748C37.2884 55.6746 38.5132 55.1349 39.3426 54.0984C39.7797 53.5519 40.0564 52.9281 40.1814 52.2843C40.6186 52.4355 41.0801 52.5136 41.5506 52.5135C41.7083 52.5135 41.8671 52.5048 42.0263 52.4871C43.1463 52.3628 44.1478 51.812 44.8437 50.9393C45.5398 50.072 45.8573 48.9844 45.7399 47.8744C46.8011 47.7505 47.8167 47.2268 48.5371 46.3291C49.2546 45.432 49.5426 44.3275 49.4298 43.2653C50.5393 43.136 51.5316 42.5884 52.2242 41.7223C52.9249 40.849 53.2426 39.7521 53.1184 38.6334C53.0242 37.7841 52.6839 37.0031 52.1432 36.3706C52.6942 35.6396 53.5034 35.0213 54.4698 34.5964L54.8244 35.2236C55.3939 36.2294 56.4537 36.7965 57.5446 36.7965C58.0582 36.7964 58.5789 36.6706 59.0583 36.4056L62.4057 34.5514C63.1292 34.1514 63.6527 33.4894 63.8798 32.6875C64.1088 31.8794 64.0087 31.0334 63.5971 30.304ZM6.99918 33.992C6.83668 34.279 6.44831 34.3825 6.15218 34.2186L2.80306 32.3636C2.62018 32.2624 2.55043 32.0966 2.52493 32.0068C2.49881 31.9136 2.47093 31.7288 2.58118 31.535L12.2332 14.4663C12.3437 14.2704 12.5519 14.1606 12.7682 14.1606C12.8734 14.1606 12.9804 14.1865 13.0792 14.2411L16.4274 16.0959C16.4278 16.0961 16.4282 16.0964 16.4286 16.0965C16.6118 16.1979 16.6814 16.363 16.7067 16.4524C16.7327 16.5448 16.7602 16.7283 16.6503 16.9218L6.99918 33.992ZM16.1209 40.4245C15.7684 40.7069 15.3233 40.8345 14.8684 40.7839C14.4133 40.7334 14.0077 40.5116 13.7259 40.1594C13.4436 39.8063 13.3163 39.3613 13.3674 38.9065C13.4183 38.4536 13.6402 38.05 13.9944 37.7681L18.6742 34.0274C19.4087 33.441 20.4838 33.5616 21.0708 34.2948C21.3531 34.6476 21.4804 35.0919 21.4294 35.5453C21.3787 35.9971 21.1567 36.4004 20.8044 36.6806C20.7967 36.6868 20.7901 36.6936 20.7826 36.7L16.1221 40.4236C16.1217 40.4239 16.1213 40.4243 16.1209 40.4245ZM17.4164 44.7663C17.1343 44.4146 17.0068 43.9715 17.0572 43.5185C17.1076 43.0651 17.3297 42.6596 17.6824 42.3768L17.6828 42.3765C17.6831 42.3764 17.6833 42.3761 17.6836 42.376C17.6837 42.376 17.6837 42.3759 17.6838 42.3758L24.4246 36.9903C25.1589 36.4038 26.2343 36.5235 26.8212 37.2576C27.1031 37.61 27.2304 38.0538 27.1801 38.507C27.1296 38.9608 26.9068 39.3663 26.5532 39.6488L19.8142 45.0323C19.0789 45.619 18.0039 45.5006 17.4164 44.7663ZM22.2487 50.0025C21.7937 49.952 21.3884 49.73 21.1063 49.3763C20.8244 49.0239 20.6971 48.5801 20.7474 48.1269C20.7979 47.6735 21.0203 47.2684 21.3734 46.9859C21.3737 46.9856 21.3741 46.9854 21.3743 46.9851L26.0391 43.2586C26.0446 43.2544 26.0506 43.2508 26.0561 43.2464C26.7886 42.66 27.8636 42.7794 28.4511 43.5116C28.7334 43.8646 28.8608 44.3096 28.8097 44.7644C28.7587 45.2173 28.5368 45.6209 28.1827 45.9028L23.5031 49.6434C23.1494 49.9258 22.7038 50.0528 22.2487 50.0025ZM30.4384 51.0173C30.3878 51.4706 30.1657 51.8753 29.8119 52.1578L27.1946 54.2524C26.4592 54.8393 25.3842 54.7211 24.7969 53.9866C24.5148 53.6353 24.3872 53.1918 24.4376 52.7379C24.4879 52.284 24.7098 51.8791 25.0619 51.5979C25.0623 51.5976 25.0628 51.5973 25.0632 51.597L27.6799 49.5053C27.6813 49.5041 27.6828 49.5033 27.6842 49.5023C28.4188 48.916 29.4939 49.0361 30.0809 49.7696C30.3621 50.1214 30.4892 50.5643 30.4384 51.0173ZM50.2732 40.1593C49.9914 40.5115 49.5857 40.7334 49.1307 40.7839C48.6761 40.835 48.2307 40.707 47.8782 40.4245C47.8781 40.4244 47.8778 40.4243 47.8776 40.4241C47.8774 40.424 47.8772 40.4239 47.8771 40.4238L44.5323 37.7514C43.9928 37.3204 43.2063 37.4084 42.7756 37.9476C42.3447 38.4869 42.4326 39.2735 42.9718 39.7044L46.3154 42.3759C47.0489 42.9633 47.1698 44.0363 46.5861 44.7661C45.9971 45.5001 44.9219 45.6195 44.1879 45.0316L40.5598 42.1364C40.0203 41.7059 39.2338 41.7943 38.8032 42.3338C38.3727 42.8733 38.4609 43.6598 39.0006 44.0904L42.6269 46.9843C42.9803 47.2673 43.2027 47.673 43.2532 48.1269C43.3036 48.5799 43.1761 49.0231 42.8916 49.3775C42.6104 49.73 42.2052 49.9519 41.7503 50.0025C41.2949 50.0526 40.8493 49.9255 40.4971 49.6444L38.6918 48.2006C38.6887 48.1981 38.6859 48.1955 38.6828 48.193L37.1576 46.9736L36.8724 46.7456C36.3331 46.3144 35.5466 46.402 35.1156 46.941C35.0617 47.0085 35.0158 47.0798 34.9781 47.1538C34.7971 47.5075 34.8001 47.9224 34.9699 48.2703C35.0486 48.4314 35.1618 48.5785 35.3111 48.6979L37.1262 50.1495C37.8548 50.7379 37.9739 51.8073 37.3906 52.5366C36.8034 53.2705 35.7282 53.3904 34.9941 52.8048L32.9347 51.1595C33.0204 50.0896 32.7034 49.0463 32.0329 48.2079C31.6162 47.687 31.0993 47.2925 30.5317 47.0279C30.9477 46.4508 31.2118 45.7728 31.2938 45.0438C31.4198 43.9243 31.1036 42.8258 30.4021 41.9486C29.9852 41.4291 29.4689 41.0355 28.9024 40.7715C29.3192 40.1926 29.5833 39.5133 29.6646 38.7833C29.7889 37.6663 29.4724 36.5699 28.7734 35.6958C27.5707 34.192 25.5367 33.7349 23.8438 34.4534C23.7083 33.8311 23.4314 33.2441 23.0227 32.733C21.5754 30.9245 18.9252 30.6286 17.1138 32.0739L13.7668 34.7493C13.0099 33.7834 11.9811 32.9824 10.7646 32.4111L17.6494 20.2335L21.3152 21.2956C21.3319 21.4918 21.3637 21.698 21.4168 21.9165C22.3042 25.565 25.6634 27.265 30.1838 26.3541C33.9926 25.5878 35.5606 26.7294 38.6834 29.0035C39.0074 29.2394 39.3441 29.4845 39.6964 29.7369C41.9423 31.3481 44.3423 33.242 45.9514 34.5256L50.0089 37.7684C50.3614 38.0496 50.5833 38.4546 50.6337 38.9089C50.6841 39.3628 50.5566 39.8063 50.2732 40.1593ZM50.2343 34.7485L47.5114 32.5724C45.8801 31.271 43.4462 29.3506 41.1531 27.7054C40.8056 27.4565 40.4742 27.2151 40.1552 26.9829C36.9169 24.6248 34.5766 22.921 29.6906 23.9036C28.1951 24.205 24.6321 24.5574 23.8462 21.3264C23.7354 20.8703 23.8479 20.7135 23.8958 20.6466C24.0629 20.4136 24.7354 19.8465 27.3666 19.6135L32.9494 19.1139C33.8592 19.0309 34.3156 18.9891 35.7041 19.4741L38.9751 20.6176C39.3387 20.7446 39.6294 20.8546 39.8861 20.9519C41.4611 21.5485 41.8784 21.5484 43.9476 20.9495L46.3591 20.2508L53.2347 32.4119C52.0178 32.9828 50.9899 33.7831 50.2343 34.7485Z" fill="#BF212F"/>
<path d="M57.5713 23.4499C58.2615 23.4499 58.8213 22.8884 58.8213 22.198C58.8213 21.5076 58.2615 20.948 57.5713 20.948C56.881 20.948 56.3213 21.5077 56.3213 22.198V22.2015C56.3213 22.8919 56.881 23.4499 57.5713 23.4499Z" fill="#BF212F"/>
</svg>
