<svg width="64" height="58" viewBox="0 0 64 58" fill="none" xmlns="http://www.w3.org/2000/svg">
<path d="M49.7498 0.375122C47.9887 0.375122 46.4746 1.45199 45.8306 2.98174L40.7848 6.26147C40.206 6.63772 40.0417 7.41197 40.418 7.99072C40.7942 8.56959 41.5685 8.73371 42.1472 8.35759L45.4998 6.17847V44.5716L27.9999 33.1966V17.5534L32.7155 14.4883C33.2944 14.1121 33.4586 13.3378 33.0824 12.7591C32.7061 12.1802 31.9316 12.0161 31.3531 12.3922L26.3794 15.6251H10.125C8.22109 15.6251 6.61522 16.9218 6.14198 18.6783L0.796872 20.7569C0.316499 20.9438 0 21.4064 0 21.9219V28.8281C0 29.3436 0.316499 29.8063 0.796872 29.9931L6.14198 32.0717C6.6151 33.8282 8.22109 35.125 10.125 35.125H11.535L18.1829 53.6774C19.0291 56.0385 21.2825 57.6249 23.7907 57.6249C25.7265 57.6249 27.5475 56.6798 28.6618 55.0969C29.7761 53.5139 30.0515 51.4809 29.3985 49.6586L24.1907 35.125H26.3794L45.8306 47.7683C46.4744 49.2981 47.9886 50.3749 49.7498 50.3749C52.0933 50.3749 53.9998 48.4684 53.9998 46.1249V4.62511C53.9998 2.28161 52.0933 0.375122 49.7498 0.375122ZM2.49999 22.777L5.99998 21.4159V29.3343L2.49999 27.9731V22.777ZM8.49997 31V19.75C8.49997 18.854 9.22896 18.1251 10.125 18.1251H25.4999V32.625H10.125C9.22896 32.625 8.49997 31.896 8.49997 31ZM27.045 50.5018C27.4296 51.5752 27.2739 52.7255 26.6175 53.6579C25.9613 54.5902 24.9309 55.1249 23.7907 55.1249C22.3352 55.1249 21.0274 54.2043 20.5364 52.834L18.4907 47.1249H20.1249C20.8153 47.1249 21.3749 46.5653 21.3749 45.8749C21.3749 45.1846 20.8153 44.6249 20.1249 44.6249H17.5948L16.3407 41.125H17.9583C18.6487 41.125 19.2083 40.5653 19.2083 39.875C19.2083 39.1846 18.6487 38.625 17.9583 38.625H15.4448L14.1907 35.125H21.535L27.045 50.5018ZM51.4998 46.1249C51.4998 47.0899 50.7148 47.8749 49.7498 47.8749C48.7848 47.8749 47.9998 47.0899 47.9998 46.1249V4.62511C47.9998 3.66011 48.7848 2.87511 49.7498 2.87511C50.7148 2.87511 51.4998 3.66011 51.4998 4.62511V46.1249Z" fill="#BF212F"/>
<path d="M62.75 28.5625C63.4404 28.5625 64 28.0029 64 27.3125C64 26.6221 63.4404 26.0625 62.75 26.0625H57.75C57.0596 26.0625 56.5 26.6221 56.5 27.3125C56.5 28.0029 57.0596 28.5625 57.75 28.5625H62.75Z" fill="#BF212F"/>
<path d="M58.4208 20.0594C58.6328 20.0594 58.8478 20.0054 59.0447 19.8918L63.3748 17.3918C63.9727 17.0467 64.1775 16.2822 63.8323 15.6843C63.4872 15.0863 62.7225 14.8814 62.1248 15.2268L57.7947 17.7268C57.1968 18.0719 56.9919 18.8364 57.3372 19.4343C57.5687 19.8353 57.9888 20.0594 58.4208 20.0594Z" fill="#BF212F"/>
<path d="M63.3748 37.2333L59.0447 34.7333C58.4468 34.3883 57.6823 34.593 57.3372 35.1908C56.9919 35.7886 57.1968 36.5531 57.7947 36.8983L62.1248 39.3983C62.3217 39.5119 62.5365 39.5659 62.7487 39.5659C63.1807 39.5659 63.6008 39.3418 63.8323 38.9408C64.1775 38.3429 63.9727 37.5784 63.3748 37.2333Z" fill="#BF212F"/>
<path d="M36.75 11.6251C37.0788 11.6251 37.4013 11.4913 37.6338 11.2588C37.8663 11.0263 38 10.7038 38 10.3751C38 10.0463 37.8663 9.72381 37.6338 9.49131C37.4013 9.25881 37.0788 9.12506 36.75 9.12506C36.4212 9.12506 36.0987 9.25881 35.8662 9.49131C35.6337 9.72381 35.5 10.0463 35.5 10.3751C35.5 10.7038 35.6337 11.0263 35.8662 11.2588C36.0987 11.4913 36.4212 11.6251 36.75 11.6251Z" fill="#BF212F"/>
</svg>
