<svg width="64" height="60" viewBox="0 0 64 60" fill="none" xmlns="http://www.w3.org/2000/svg">
<path d="M57.75 0.5H37.625C36.9347 0.5 36.375 1.05975 36.375 1.75C36.375 2.44025 36.9347 3 37.625 3H57.75C59.8177 3 61.5 4.68225 61.5 6.75V35.4041H36.998C39.102 32.8107 40.3649 29.5086 40.3649 25.9167C40.3649 17.5999 33.5985 10.8335 25.2816 10.8335C16.9648 10.8335 10.1984 17.5999 10.1984 25.9167C10.1984 28.3991 10.8016 30.7432 11.8685 32.8107L9.17925 35.5H2.5V6.75C2.5 4.68225 4.18225 3 6.25 3H26.375C27.0654 3 27.625 2.44025 27.625 1.75C27.625 1.05975 27.0654 0.5 26.375 0.5H6.25C2.80375 0.5 0 3.30375 0 6.75V40.75C0 41.8619 0.30175 42.9565 0.859125 43.9096C-0.427625 45.7091 -0.264625 48.2332 1.35012 49.8483C2.22088 50.7189 3.37837 51.1984 4.60962 51.1984C5.841 51.1984 6.9985 50.7189 7.86925 49.8483L10.7175 47H22.807L21.6418 51.5H20.25C18.0444 51.5 16.25 53.2944 16.25 55.5C16.25 57.7056 18.0444 59.5 20.25 59.5H43.75C45.9556 59.5 47.75 57.7056 47.75 55.5C47.75 53.2944 45.9556 51.5 43.75 51.5H42.3582L41.193 47H57.75C61.1963 47 64 44.1963 64 40.75V6.75C64 3.30375 61.1963 0.5 57.75 0.5ZM25.2816 13.3335C32.2201 13.3335 37.8649 18.9783 37.8649 25.9167C37.8649 32.8553 32.2201 38.5 25.2816 38.5C18.3431 38.5 12.6984 32.8553 12.6984 25.9167C12.6984 18.9783 18.3431 13.3335 25.2816 13.3335ZM6.67925 38L2.70375 41.9755C2.56937 41.5864 2.5 41.1745 2.5 40.75V38H6.67925ZM6.1015 48.0805C5.27925 48.9031 3.94075 48.9031 3.118 48.0806C2.2955 47.258 2.2955 45.9195 3.118 45.097L13.2339 34.9811C14.0845 36.109 15.0895 37.114 16.2174 37.9646L6.1015 48.0805ZM45.25 55.5C45.25 56.3271 44.5771 57 43.75 57H20.25C19.4229 57 18.75 56.3271 18.75 55.5C18.75 54.6729 19.4229 54 20.25 54H43.75C44.5771 54 45.25 54.6729 45.25 55.5ZM39.7757 51.5H24.2243L25.3894 47H38.6106L39.7757 51.5ZM57.75 44.5H13.2175L18.3876 39.3299C20.4551 40.3969 22.7991 41 25.2816 41C28.7165 41 31.8863 39.845 34.4248 37.9041H61.5V40.75C61.5 42.8177 59.8177 44.5 57.75 44.5Z" fill="#BF212F"/>
<path d="M25.2816 32.4584C29.4249 32.4584 33.1911 30.1734 35.1108 26.4951C35.2999 26.1327 35.2999 25.7007 35.1108 25.3384C33.1913 21.6601 29.425 19.3751 25.2816 19.3751C21.1383 19.3751 17.372 21.6601 15.4524 25.3384C15.2633 25.7007 15.2633 26.1326 15.4524 26.4951C17.372 30.1734 21.1383 32.4584 25.2816 32.4584ZM25.2816 23.875C26.4075 23.875 27.3234 24.7909 27.3234 25.9167C27.3234 27.0426 26.4075 27.9585 25.2816 27.9585C24.1558 27.9585 23.2399 27.0426 23.2399 25.9167C23.2399 24.7909 24.1558 23.875 25.2816 23.875ZM32.564 25.9167C31.508 27.6112 29.918 28.8595 28.0775 29.492C29.1391 28.6599 29.8234 27.3671 29.8234 25.9167C29.8234 24.4664 29.1391 23.1736 28.0775 22.3415C29.918 22.974 31.508 24.2222 32.564 25.9167ZM22.4858 22.3415C21.424 23.1736 20.7399 24.4664 20.7399 25.9167C20.7399 27.367 21.4241 28.6599 22.4858 29.492C20.6451 28.8596 19.0551 27.6112 17.9991 25.9167C19.0553 24.2222 20.6453 22.974 22.4858 22.3415Z" fill="#BF212F"/>
<path d="M43.4243 15.8947C43.4243 16.585 43.9839 17.1447 44.6743 17.1447H57.2498C57.9401 17.1447 58.4998 16.585 58.4998 15.8947C58.4998 15.2044 57.9401 14.6447 57.2498 14.6447H44.6743C43.9839 14.6447 43.4243 15.2044 43.4243 15.8947Z" fill="#BF212F"/>
<path d="M57.25 11.1447C57.9403 11.1447 58.5 10.5849 58.5 9.89465C58.5 9.2044 57.9403 8.64465 57.25 8.64465H50.0137C49.3234 8.64465 48.7637 9.2044 48.7637 9.89465C48.7637 10.5849 49.3234 11.1447 50.0137 11.1447H57.25Z" fill="#BF212F"/>
<path d="M44.5686 8.64502C44.2398 8.64502 43.9173 8.77864 43.6848 9.01127C43.4525 9.24377 43.3198 9.56614 43.3198 9.89502C43.3198 10.2238 43.4523 10.5463 43.6848 10.7786C43.9186 11.0111 44.2411 11.145 44.5686 11.145C44.8986 11.145 45.2198 11.0113 45.4523 10.7786C45.6861 10.5463 45.8198 10.2238 45.8198 9.89502C45.8198 9.56614 45.6862 9.24377 45.4523 9.01127C45.2211 8.77864 44.8986 8.64502 44.5686 8.64502Z" fill="#BF212F"/>
<path d="M58.1336 22.7788C58.3661 22.5464 58.5 22.2238 58.5 21.8951C58.5 21.5663 58.3663 21.2439 58.1336 21.0114C57.9013 20.7789 57.5788 20.6451 57.25 20.6451C56.9199 20.6451 56.5987 20.7788 56.3662 21.0114C56.1337 21.2439 56 21.5663 56 21.8951C56 22.2239 56.1336 22.545 56.3662 22.7788C56.5987 23.0113 56.9212 23.1451 57.25 23.1451C57.5788 23.1451 57.9013 23.0113 58.1336 22.7788Z" fill="#BF212F"/>
<path d="M50.9624 23.145C51.2912 23.145 51.6137 23.0113 51.846 22.7786C52.0785 22.5463 52.2124 22.2236 52.2124 21.895C52.2124 21.5661 52.0787 21.2438 51.846 21.0113C51.6137 20.7788 51.2912 20.645 50.9624 20.645C50.6323 20.645 50.3098 20.7786 50.0787 21.0113C49.8462 21.2438 49.7124 21.565 49.7124 21.895C49.7124 22.2238 49.846 22.5463 50.0787 22.7786C50.3098 23.0113 50.6324 23.145 50.9624 23.145Z" fill="#BF212F"/>
<path d="M45.5586 22.7788C45.7911 22.5464 45.9236 22.2238 45.9236 21.8951C45.9236 21.565 45.7912 21.2439 45.5586 21.0114C45.3261 20.7789 45.0037 20.6451 44.6748 20.6451C44.3448 20.6451 44.0223 20.7788 43.7898 21.0114C43.5574 21.2439 43.4248 21.5651 43.4248 21.8951C43.4248 22.2239 43.5574 22.5464 43.7898 22.7788C44.0236 23.0113 44.3448 23.1451 44.6748 23.1451C45.0036 23.145 45.3259 23.0113 45.5586 22.7788Z" fill="#BF212F"/>
<path d="M44.6743 29.1447H48.6873C49.3776 29.1447 49.9373 28.585 49.9373 27.8947C49.9373 27.2044 49.3776 26.6447 48.6873 26.6447H44.6743C43.9839 26.6447 43.4243 27.2044 43.4243 27.8947C43.4243 28.585 43.9839 29.1447 44.6743 29.1447Z" fill="#BF212F"/>
<path d="M52.9375 27.8947C52.9375 28.585 53.4973 29.1447 54.1875 29.1447H58.305C58.9953 29.1447 59.555 28.585 59.555 27.8947C59.555 27.2044 58.9953 26.6447 58.305 26.6447H54.1875C53.4973 26.6447 52.9375 27.2044 52.9375 27.8947Z" fill="#BF212F"/>
<path d="M32 3C32.3288 3 32.6513 2.86625 32.8836 2.63363C33.1163 2.40125 33.25 2.07875 33.25 1.75C33.25 1.42125 33.1163 1.09875 32.8836 0.86625C32.6513 0.633625 32.3288 0.5 32 0.5C31.6712 0.5 31.3487 0.633625 31.1162 0.86625C30.8837 1.09875 30.75 1.42125 30.75 1.75C30.75 2.07875 30.8836 2.40125 31.1162 2.63363C31.3487 2.86625 31.6712 3 32 3Z" fill="#BF212F"/>
</svg>
