<svg width="1024" height="174" viewBox="0 0 1024 174" fill="none" xmlns="http://www.w3.org/2000/svg">
<path fill-rule="evenodd" clip-rule="evenodd" d="M809.058 24.9609C809.058 11.7061 819.803 0.960938 833.058 0.960938H885.058C898.313 0.960938 909.058 11.7061 909.058 24.9609V48.0268C909.058 49.6387 910.475 50.8742 912.087 50.8742V50.8742H964.087C977.341 50.8742 988.087 61.6193 988.087 74.8742V126.874V126.874C988.087 128.074 989.213 129.025 990.4 128.85C991.369 128.708 992.359 128.634 993.367 128.634C1004.51 128.634 1013.54 137.665 1013.54 148.804C1013.54 159.944 1004.51 168.975 993.367 168.975C985.568 168.975 978.802 164.548 975.446 158.07C973.383 154.087 968.572 150.874 964.087 150.874V150.874H912.087C898.832 150.874 888.087 140.129 888.087 126.874V103.808C888.087 102.196 886.67 100.961 885.058 100.961V100.961H833.058V100.961C826.625 100.961 811.247 107.914 811.247 114.347V129.007C811.247 142.262 800.502 153.007 787.247 153.007H735.247C721.992 153.007 711.247 142.262 711.247 129.007V102.361C711.247 97.0172 705.243 93.3887 699.899 93.3887V93.3887H664.384C663.668 93.3887 662.96 93.3574 662.261 93.2961C662.146 93.2861 662.048 93.3766 662.048 93.4917V93.4917V144.975C662.048 158.23 651.302 168.975 638.048 168.975H586.564C579.207 168.975 572.624 165.665 568.221 160.453C562.885 154.135 556.336 147.195 548.066 147.195H351.561C348.543 147.195 345.635 148.178 342.82 149.266C340.135 150.305 337.217 150.874 334.166 150.874H282.166C268.911 150.874 258.166 140.129 258.166 126.874V103.809C258.166 102.197 256.749 100.961 255.137 100.961V100.961H203.137V100.961C196.703 100.961 181.326 107.914 181.326 114.347V129.007C181.326 142.262 170.581 153.007 157.326 153.007H105.326C92.0713 153.007 81.3262 142.262 81.3262 129.007V102.361C81.3262 97.0172 75.3223 93.3887 69.9785 93.3887V93.3887H34.4629C21.2081 93.3887 10.4629 82.6435 10.4629 69.3887V33.873C10.4629 20.6182 21.2081 9.87305 34.4629 9.87305H69.9785C83.2333 9.87305 93.9785 20.6182 93.9785 33.873V44.035C93.9785 49.3788 99.9824 53.0073 105.326 53.0073V53.0073H157.326V53.0073C163.76 53.0073 179.137 46.0544 179.137 39.621V24.9609C179.137 11.7061 189.882 0.960938 203.137 0.960938H255.137C268.392 0.960938 279.137 11.7061 279.137 24.9609V48.0262C279.137 49.6384 280.554 50.874 282.166 50.874V50.874H304.092C311.931 50.874 318.253 44.6201 323.482 38.7803C327.876 33.8719 334.261 30.7831 341.368 30.7831H569.307C582.562 30.7831 593.307 41.5282 593.307 54.7831V54.7831C593.307 62.9064 599.892 69.4917 608.015 69.4917H638.048C638.763 69.4917 639.471 69.523 640.17 69.5843C640.285 69.5943 640.384 69.5038 640.384 69.3887V69.3887V33.8731C640.384 20.6182 651.129 9.87305 664.384 9.87305H699.899C713.154 9.87305 723.899 20.6182 723.899 33.873V44.0349C723.899 49.3787 729.903 53.0072 735.247 53.0072V53.0072H787.247V53.0072C793.68 53.0072 809.058 46.0538 809.058 39.6208V24.9609Z" fill="url(#paint0_linear_839_13009)"/>
<defs>
<linearGradient id="paint0_linear_839_13009" x1="512.001" y1="0.960937" x2="512.001" y2="168.975" gradientUnits="userSpaceOnUse">
<stop stop-color="#FDFFAA" stop-opacity="0"/>
<stop offset="1" stop-color="#FDFFAA"/>
</linearGradient>
</defs>
</svg>
