<svg width="1024" height="174" viewBox="0 0 1024 174" fill="none" xmlns="http://www.w3.org/2000/svg">
<path fill-rule="evenodd" clip-rule="evenodd" d="M198.197 24.2861C198.197 11.0313 208.942 0.286133 222.197 0.286133H450.136C463.391 0.286133 474.136 11.0313 474.136 24.2861V41.9526C474.136 50.7891 481.299 57.9526 490.136 57.9526H630.643C630.898 57.9526 631.152 57.9565 631.406 57.9645C641.169 58.2695 653.329 58.0769 661.726 53.0863C669.039 48.7401 677.57 46.2412 686.632 46.2412C709.27 46.2412 728.592 61.835 733.889 82.8671C734.469 85.17 736.605 86.786 738.979 86.786V86.786C742.353 86.786 745.63 87.2431 748.748 88.0988C749.613 88.3363 750.486 87.6832 750.486 86.786V86.786C750.486 54.4809 776.92 28.2924 809.527 28.2924C842.134 28.2924 868.567 54.4809 868.567 86.786C868.567 119.091 842.134 145.28 809.527 145.28C804.4 145.28 799.426 144.632 794.683 143.415C783.978 140.669 770.39 145.333 761.658 152.109C755.377 156.983 747.487 159.89 738.979 159.89C729.801 159.89 721.341 156.506 714.845 150.919C708.362 145.342 699.356 141.81 690.836 142.544C689.449 142.663 688.047 142.724 686.632 142.724C681.019 142.724 675.61 141.765 670.568 140.003C663.727 137.612 654.643 142.039 654.643 149.286V149.286C654.643 162.541 643.897 173.286 630.643 173.286H411.348C398.093 173.286 387.348 162.541 387.348 149.286V131.62C387.348 122.783 380.184 115.62 371.348 115.62H263.267C256.017 115.62 249.9 120.653 246.374 126.988C237.736 142.507 221.061 153.02 201.908 153.02C183.786 153.02 167.883 143.609 158.907 129.45C153.215 120.474 137.255 113.404 126.626 113.404V113.404V113.404C113.872 113.404 91.6765 119.25 79.0871 121.292C77.7682 121.505 76.4168 121.617 75.0417 121.617C61.2542 121.617 49.8438 110.44 49.8438 96.652C49.8438 82.8644 61.2542 71.6874 75.0417 71.6874V71.6874C81.6566 71.6874 90.4166 67.2177 93.2813 61.2554C99.2326 48.8695 112.018 40.3002 126.626 40.3002C134.637 40.3002 142.099 42.8772 148.187 47.2473C157.311 53.7968 175.154 58.5821 185.816 55.0526V55.0526C192.418 52.8673 198.197 47.2174 198.197 40.2638V24.2861ZM27.3777 34.7597C14.9463 34.7597 4.6582 44.8374 4.6582 57.2688C4.6582 69.7002 14.9463 79.7778 27.3777 79.7778C39.8091 79.7778 50.0972 69.7002 50.0972 57.2688C50.0972 44.8374 39.8091 34.7597 27.3777 34.7597ZM250.965 143.816C250.965 131.385 261.253 121.307 273.684 121.307C286.116 121.307 296.404 131.385 296.404 143.816C296.404 156.247 286.116 166.325 273.684 166.325C261.253 166.325 250.965 156.247 250.965 143.816ZM991.875 76.689C1007.04 76.689 1019.34 64.5065 1019.34 49.4786C1019.34 34.4506 1007.04 22.2681 991.875 22.2681C976.707 22.2681 964.41 34.4506 964.41 49.4786C964.41 52.2394 964.825 54.9042 965.597 57.4151C966.217 59.4324 964.061 62.0785 961.95 62.0785V62.0785C952.26 62.0785 944.404 69.8613 944.404 79.4619C944.404 89.0625 952.26 96.8453 961.95 96.8453C971.641 96.8453 979.496 89.0625 979.496 79.4619V79.4619C979.496 77.3001 982.18 75.0359 984.259 75.6291C986.677 76.3193 989.232 76.689 991.875 76.689ZM911.385 130.02C911.385 128.595 909.427 127.374 908.197 128.091C904.116 130.472 899.36 131.837 894.281 131.837C879.113 131.837 866.816 119.655 866.816 104.627C866.816 89.5991 879.113 77.4166 894.281 77.4166C909.45 77.4166 921.746 89.5991 921.746 104.627C921.746 104.998 921.739 105.366 921.724 105.733C921.602 108.747 925.915 112.637 928.931 112.637V112.637C938.621 112.637 946.477 120.419 946.477 130.02C946.477 139.621 938.621 147.403 928.931 147.403C919.24 147.403 911.385 139.621 911.385 130.02V130.02ZM493.26 53.6824C501.414 53.6824 508.024 47.1335 508.024 39.055C508.024 30.9765 501.414 24.4276 493.26 24.4276C485.106 24.4276 478.496 30.9765 478.496 39.055C478.496 47.1335 485.106 53.6824 493.26 53.6824Z" fill="url(#paint0_linear_839_13008)"/>
<defs>
<linearGradient id="paint0_linear_839_13008" x1="511.999" y1="0.286133" x2="511.999" y2="173.286" gradientUnits="userSpaceOnUse">
<stop stop-color="#FDFFAA" stop-opacity="0"/>
<stop offset="1" stop-color="#FDFFAA"/>
</linearGradient>
</defs>
</svg>
