<svg width="1024" height="173" viewBox="0 0 1024 173" fill="none" xmlns="http://www.w3.org/2000/svg">
<path fill-rule="evenodd" clip-rule="evenodd" d="M391.821 64.9534C391.497 65.5143 390.687 65.5143 390.363 64.9534L366.719 24C360.561 13.3333 345.165 13.3333 339.006 24L331.019 37.8347C328.161 42.7851 322.879 45.8347 317.162 45.8347L216.462 45.8346C206.729 45.8346 200.646 56.3706 205.513 64.7993V64.7993C207.771 68.7111 207.771 73.5306 205.513 77.4424L196.775 92.576C191.286 102.083 177.564 102.083 172.075 92.576L169.975 88.9378C165.42 81.0477 154.031 81.0478 149.476 88.9378V88.9378C144.921 96.8279 133.532 96.8279 128.977 88.9378L117.947 69.8337C111.789 59.167 96.3928 59.167 90.2344 69.8337L80.0202 87.5252C73.8618 98.1918 58.4658 98.1918 52.3074 87.5252L51.7235 86.5139C45.5651 75.8472 30.1691 75.8472 24.0107 86.5139L13.8569 104.101C7.69851 114.767 15.3965 128.101 27.7133 128.101H75.2183C75.4474 128.101 75.5906 127.853 75.476 127.654V127.654C75.3615 127.456 75.5047 127.208 75.7337 127.208H112.744C119.249 127.208 123.315 134.25 120.062 139.884V139.884C116.81 145.517 120.875 152.559 127.381 152.559H195.566C200.517 152.559 203.612 147.199 201.136 142.911V142.911C198.66 138.623 201.755 133.262 206.707 133.262H235.802C241.518 133.262 246.801 136.312 249.659 141.262L254.251 149.216C260.409 159.883 275.805 159.883 281.964 149.216L316.513 89.3742C319.372 84.4238 324.654 81.3742 330.37 81.3742H354.627C366.944 81.3742 374.642 94.7076 368.484 105.374L359.424 121.066C353.266 131.732 360.964 145.066 373.281 145.066H408.487C412.163 145.066 414.46 149.045 412.623 152.228V152.228C410.785 155.411 413.082 159.39 416.758 159.39H487.366C494.07 159.39 498.26 152.132 494.908 146.326V146.326C491.556 140.52 495.746 133.262 502.45 133.262H531.844C537.56 133.262 542.842 136.312 545.7 141.262L550.293 149.216C556.451 159.883 571.847 159.883 578.005 149.216L597.692 115.119C600.55 110.168 605.832 107.119 611.548 107.119H650.258C658.54 107.119 663.716 116.084 659.575 123.257V123.257C655.434 130.429 660.611 139.395 668.893 139.395H748.769C754.485 139.395 759.767 142.444 762.625 147.395L766.887 154.776C773.045 165.443 788.441 165.443 794.6 154.776L797.471 149.804C800.329 144.853 805.611 141.804 811.327 141.804H860.441C872.757 141.804 880.455 128.47 874.297 117.804L855.028 84.4296C848.87 73.7629 833.474 73.7629 827.315 84.4296L814.268 107.028C811.41 111.979 806.128 115.028 800.412 115.028L767.333 115.028C761.617 115.028 756.335 111.979 753.477 107.028L725.067 57.8214C718.909 47.1548 703.513 47.1548 697.355 57.8214L691.962 67.1617C685.804 77.8283 670.408 77.8283 664.249 67.1617L653.379 48.3332C647.582 38.2938 633.092 38.2938 627.295 48.3332V48.3332C624.605 52.9925 619.634 55.8628 614.254 55.8628L513.214 55.8628C505.739 55.8628 501.067 63.9547 504.804 70.4283V70.4283C506.539 73.4327 506.539 77.1343 504.804 80.1386L493.39 99.9092C487.772 109.64 473.727 109.64 468.109 99.9092V99.9092C462.491 90.1787 448.447 90.1787 442.829 99.9092L441.807 101.68C435.734 112.197 420.554 112.197 414.482 101.68L393.278 64.9534C392.954 64.3925 392.145 64.3925 391.821 64.9534V64.9534ZM874.771 60.2704C862.454 60.2704 854.756 73.6037 860.915 84.2704L880.183 117.645C886.342 128.311 901.738 128.311 907.896 117.645L927.165 84.2704C933.323 73.6037 925.625 60.2704 913.308 60.2704L874.771 60.2704ZM943.302 102.016C949.461 91.3489 964.857 91.3489 971.015 102.016L990.284 135.39C996.442 146.056 988.744 159.39 976.427 159.39H937.89C925.573 159.39 917.875 146.056 924.034 135.39L943.302 102.016Z" fill="url(#paint0_linear_839_13011)"/>
<defs>
<linearGradient id="paint0_linear_839_13011" x1="502.07" y1="16" x2="502.07" y2="162.776" gradientUnits="userSpaceOnUse">
<stop stop-color="#FDFFAA" stop-opacity="0"/>
<stop offset="1" stop-color="#FDFFAA"/>
</linearGradient>
</defs>
</svg>
