<svg width="1024" height="173" viewBox="0 0 1024 173" fill="none" xmlns="http://www.w3.org/2000/svg">
<path fill-rule="evenodd" clip-rule="evenodd" d="M228.355 0C215.101 0 204.355 10.7452 204.355 24V24C204.355 30.4333 199.14 35.6485 192.707 35.6485H24C10.7452 35.6485 0 46.3937 0 59.6485V126.982C0 140.237 10.7452 150.982 24 150.982H251.435C264.69 150.982 275.435 140.237 275.435 126.982V126.982C275.435 120.548 280.651 115.333 287.084 115.333H377.16C385.997 115.333 393.16 122.497 393.16 131.333V149C393.16 162.255 403.905 173 417.16 173H753.44C766.695 173 777.44 162.255 777.44 149V143.915C777.44 135.078 784.603 127.915 793.44 127.915H999.999C1013.25 127.915 1024 117.17 1024 103.915V47.0665C1024 33.8117 1013.25 23.0665 999.998 23.0665H663.719C650.464 23.0665 639.719 33.8116 639.719 47.0665V47.0665C639.719 52.9208 634.973 57.6667 629.118 57.6667H495.791C486.954 57.6667 479.791 50.5033 479.791 41.6667V24C479.791 10.7452 469.046 0 455.791 0H228.355Z" fill="url(#paint0_linear_839_13007)"/>
<defs>
<linearGradient id="paint0_linear_839_13007" x1="511.999" y1="0" x2="511.999" y2="173" gradientUnits="userSpaceOnUse">
<stop stop-color="#FDFFAA" stop-opacity="0"/>
<stop offset="1" stop-color="#FDFFAA"/>
</linearGradient>
</defs>
</svg>
