<svg width="1024" height="174" viewBox="0 0 1024 174" fill="none" xmlns="http://www.w3.org/2000/svg">
<path fill-rule="evenodd" clip-rule="evenodd" d="M654.154 42.4834C654.154 54.4012 644.402 64.0625 632.373 64.0625C620.343 64.0625 610.592 54.4012 610.592 42.4834C610.592 30.5656 620.343 20.9043 632.373 20.9043C644.402 20.9043 654.154 30.5656 654.154 42.4834ZM991.875 77.3833C1007.04 77.3833 1019.34 65.2008 1019.34 50.1728C1019.34 35.1449 1007.04 22.9624 991.875 22.9624C976.707 22.9624 964.41 35.1449 964.41 50.1728C964.41 52.9337 964.825 55.5985 965.597 58.1094C966.217 60.1267 964.061 62.7728 961.95 62.7728V62.7728C952.26 62.7728 944.404 70.5556 944.404 80.1562C944.404 89.7568 952.26 97.5396 961.95 97.5396C971.641 97.5396 979.496 89.7568 979.496 80.1562V80.1562C979.496 77.9944 982.18 75.7302 984.259 76.3234C986.677 77.0135 989.232 77.3833 991.875 77.3833ZM27.3777 35.454C14.9463 35.454 4.6582 45.5317 4.6582 57.963C4.6582 70.3944 14.9463 80.4721 27.3777 80.4721C39.8091 80.4721 50.0972 70.3944 50.0972 57.963C50.0972 45.5317 39.8091 35.454 27.3777 35.454ZM126.626 40.9945C112.018 40.9945 99.2326 49.5638 93.2813 61.9497C90.4166 67.912 81.6566 72.3817 75.0417 72.3817V72.3817C61.2542 72.3817 49.8438 83.5587 49.8438 97.3463C49.8438 111.134 61.2542 122.311 75.0417 122.311C76.4168 122.311 77.7682 122.2 79.0871 121.986C91.6765 119.944 113.872 114.098 126.626 114.098V114.098V114.098C137.255 114.098 153.215 121.168 158.907 130.145C167.883 144.303 183.786 153.715 201.908 153.715C215.828 153.715 228.439 148.162 237.607 139.17C247.448 129.518 269.932 121.666 283.632 123.193C285.514 123.403 287.428 123.511 289.367 123.511C317.392 123.511 340.111 101.002 340.111 73.2365C340.111 45.4709 317.392 22.9624 289.367 22.9624C275.447 22.9624 262.836 28.5153 253.668 37.5072C243.827 47.1595 221.343 55.0108 207.644 53.4839C205.761 53.2741 203.847 53.1663 201.908 53.1663C198.436 53.1663 195.045 53.5119 191.769 54.1701C178.478 56.8404 155.302 51.0005 143.188 44.917C138.192 42.4082 132.559 40.9945 126.626 40.9945ZM637.939 95.1769C637.939 68.5339 659.989 46.9355 686.632 46.9355C709.27 46.9355 728.592 62.5293 733.889 83.5614C734.469 85.8643 736.605 87.4803 738.979 87.4803V87.4803C742.353 87.4803 745.63 87.9374 748.748 88.7931C749.613 89.0306 750.486 88.3775 750.486 87.4803V87.4803C750.486 55.1751 776.92 28.9866 809.527 28.9866C842.134 28.9866 868.567 55.1751 868.567 87.4803C868.567 119.785 842.134 145.974 809.527 145.974C804.4 145.974 799.426 145.327 794.683 144.11C783.978 141.363 770.39 146.027 761.658 152.803C755.377 157.677 747.487 160.584 738.979 160.584C729.801 160.584 721.341 157.201 714.845 151.613C708.362 146.037 699.356 142.504 690.836 143.238C689.449 143.357 688.047 143.418 686.632 143.418C659.989 143.418 637.939 121.82 637.939 95.1769ZM250.965 144.51C250.965 132.079 261.253 122.001 273.684 122.001C286.116 122.001 296.404 132.079 296.404 144.51C296.404 156.942 286.116 167.019 273.684 167.019C261.253 167.019 250.965 156.942 250.965 144.51ZM911.385 130.714C911.385 129.29 909.427 128.068 908.197 128.786C904.116 131.166 899.36 132.532 894.281 132.532C879.113 132.532 866.816 120.349 866.816 105.321C866.816 90.2934 879.113 78.1109 894.281 78.1109C909.45 78.1109 921.746 90.2934 921.746 105.321C921.746 105.692 921.739 106.061 921.724 106.428C921.602 109.441 925.915 113.331 928.931 113.331V113.331C938.621 113.331 946.477 121.114 946.477 130.714C946.477 140.315 938.621 148.098 928.931 148.098C919.24 148.098 911.385 140.315 911.385 130.714V130.714ZM493.26 54.3767C501.414 54.3767 508.024 47.8278 508.024 39.7493C508.024 31.6708 501.414 25.1219 493.26 25.1219C485.106 25.1219 478.496 31.6708 478.496 39.7493C478.496 47.8278 485.106 54.3767 493.26 54.3767ZM386.783 167.019C414.808 167.019 437.527 144.511 437.527 116.745V116.745C437.527 115.228 439.528 114.318 440.698 115.285C447.036 120.525 455.193 123.678 464.093 123.678C472.4 123.678 480.06 120.932 486.197 116.305C487.065 115.651 488.451 116.383 488.451 117.47V117.47C488.451 129.388 498.203 139.049 510.232 139.049C522.261 139.049 532.013 129.388 532.013 117.47V117.47C532.013 116.726 532.977 116.29 533.514 116.805C542.044 124.984 553.667 130.018 566.476 130.018C592.655 130.018 613.877 108.992 613.877 83.0556C613.877 57.119 592.655 36.0933 566.476 36.0933C540.297 36.0933 519.074 57.119 519.074 83.0556C519.074 84.4646 519.137 85.8591 519.26 87.2366C519.614 91.2143 514.225 95.891 510.232 95.891V95.891C510.146 95.891 510.061 95.8915 509.975 95.8925C505.99 95.9381 500.629 91.466 500.629 87.4805V87.4805C500.629 67.4889 484.272 51.2825 464.093 51.2825C460.732 51.2825 457.478 51.732 454.387 52.5737C439.686 56.577 402.626 66.6517 387.391 66.4747C387.188 66.4723 386.986 66.4712 386.783 66.4712C358.758 66.4712 336.039 88.9796 336.039 116.745C336.039 144.511 358.758 167.019 386.783 167.019Z" fill="url(#paint0_linear_844_13064)"/>
<defs>
<linearGradient id="paint0_linear_844_13064" x1="511.999" y1="20.9043" x2="511.999" y2="167.019" gradientUnits="userSpaceOnUse">
<stop stop-color="#FDFFAA" stop-opacity="0"/>
<stop offset="1" stop-color="#FDFFAA"/>
</linearGradient>
</defs>
</svg>
