<svg width="1024" height="173" viewBox="0 0 1024 173" fill="none" xmlns="http://www.w3.org/2000/svg">
<path fill-rule="evenodd" clip-rule="evenodd" d="M834.406 64.9538C834.082 65.5148 833.272 65.5148 832.948 64.9537L809.303 24C803.145 13.3333 787.749 13.3333 781.591 24L773.603 37.8347C770.745 42.7851 765.463 45.8347 759.747 45.8347L659.046 45.8347C649.314 45.8347 643.231 56.3708 648.097 64.7997V64.7997C650.356 68.7115 650.356 73.5311 648.097 77.443L639.36 92.5759C633.871 102.083 620.149 102.083 614.66 92.5758L612.56 88.9376C608.004 81.0476 596.616 81.0476 592.061 88.9376V88.9376C587.505 96.8276 576.117 96.8276 571.562 88.9376L560.532 69.8335C554.374 59.1668 538.978 59.1668 532.819 69.8335L522.605 87.5254C516.447 98.1921 501.05 98.1921 494.892 87.5254L492.639 83.6224C487.222 74.2407 473.681 74.2407 468.264 83.6224V83.6224C462.848 93.0041 449.307 93.0041 443.89 83.6224L443.288 82.5802C437.604 72.7353 423.395 72.7353 417.711 82.5802L403.596 107.028C400.738 111.978 395.456 115.028 389.739 115.028L356.66 115.028C350.944 115.028 345.661 111.978 342.803 107.028L314.394 57.8208C308.235 47.1541 292.839 47.1541 286.681 57.8208L281.288 67.1608C275.13 77.8275 259.734 77.8275 253.576 67.1608L243.52 49.7441C237.362 39.0775 221.966 39.0775 215.807 49.7441L196.539 83.1184C190.38 93.7851 198.078 107.118 210.395 107.118H239.584C247.866 107.118 253.043 116.084 248.902 123.256V123.256C244.761 130.429 249.937 139.394 258.219 139.394H338.096C343.812 139.394 349.094 142.444 351.952 147.394L356.214 154.776C362.373 165.443 377.769 165.443 383.927 154.776L391.135 142.292C391.309 141.99 391.632 141.803 391.98 141.803V141.803C392.732 141.803 393.202 142.617 392.826 143.268L388.595 150.596C386.339 154.504 389.159 159.389 393.672 159.389H467.328C471.841 159.389 474.661 154.504 472.405 150.596L469.866 146.2C468.738 144.246 470.148 141.803 472.405 141.803V141.803C474.661 141.803 476.071 139.361 474.943 137.407L473.525 134.952C471.767 131.907 473.965 128.101 477.481 128.101H517.803C518.032 128.101 518.175 127.853 518.06 127.654V127.654C517.946 127.456 518.089 127.208 518.318 127.208H555.329C561.834 127.208 565.9 134.25 562.647 139.884V139.884C559.394 145.517 563.46 152.559 569.965 152.559H638.15C643.102 152.559 646.197 147.199 643.721 142.911V142.911C641.245 138.623 644.34 133.262 649.292 133.262H678.386C684.103 133.262 689.385 136.312 692.243 141.262L696.835 149.216C702.993 159.883 718.389 159.883 724.548 149.216L759.098 89.3743C761.956 84.4238 767.238 81.3743 772.954 81.3743H797.213C809.529 81.3743 817.227 94.7076 811.069 105.374L802.01 121.066C795.851 131.732 803.549 145.066 815.866 145.066H854.403C866.72 145.066 874.418 131.732 868.26 121.066L835.863 64.9538C835.539 64.3927 834.73 64.3927 834.406 64.9538V64.9538ZM940.728 91.6753C946.886 81.0086 962.282 81.0086 968.44 91.6753L978.594 109.262C984.753 119.929 977.055 133.262 964.738 133.262H944.43C932.113 133.262 924.415 119.929 930.574 109.262L940.728 91.6753ZM907.897 117.644C901.738 128.311 886.342 128.311 880.184 117.644L860.915 84.2699C854.757 73.6032 862.455 60.2699 874.772 60.2699L913.309 60.2699C925.626 60.2699 933.324 73.6032 927.165 84.2699L907.897 117.644ZM64.065 159.389C76.3818 159.389 84.0799 146.056 77.9214 135.389L58.6528 102.015C52.4944 91.3485 37.0984 91.3485 30.94 102.015L11.6714 135.389C5.51297 146.056 13.211 159.389 25.5278 159.389H64.065ZM150.062 149.216C143.904 159.882 128.508 159.882 122.349 149.216L82.3079 79.8623C76.1495 69.1956 83.8475 55.8623 96.1643 55.8623L176.247 55.8623C188.564 55.8623 196.262 69.1957 190.103 79.8623L150.062 149.216Z" fill="url(#paint0_linear_844_13045)"/>
<defs>
<linearGradient id="paint0_linear_844_13045" x1="495.133" y1="16" x2="495.133" y2="162.776" gradientUnits="userSpaceOnUse">
<stop stop-color="#FDFFAA" stop-opacity="0"/>
<stop offset="1" stop-color="#FDFFAA"/>
</linearGradient>
</defs>
</svg>
