<svg width="1024" height="174" viewBox="0 0 1024 174" fill="none" xmlns="http://www.w3.org/2000/svg">
<path fill-rule="evenodd" clip-rule="evenodd" d="M809.058 24.0195C809.058 10.7647 819.803 0.0195312 833.058 0.0195312H885.058C898.313 0.0195312 909.058 10.7647 909.058 24.0195V47.0854C909.058 48.6973 910.475 49.9328 912.087 49.9328V49.9328H964.087C977.341 49.9328 988.087 60.6779 988.087 73.9328V125.933V125.933C988.087 127.133 989.213 128.084 990.4 127.909C991.369 127.766 992.359 127.692 993.367 127.692C1004.51 127.692 1013.54 136.723 1013.54 147.863C1013.54 159.003 1004.51 168.034 993.367 168.034C985.568 168.034 978.802 163.607 975.446 157.128C973.383 153.146 968.572 149.933 964.087 149.933V149.933H912.087C898.832 149.933 888.087 139.188 888.087 125.933V102.867C888.087 101.255 886.67 100.02 885.058 100.02V100.02H833.058V100.02C826.625 100.02 811.247 106.973 811.247 113.406V128.066C811.247 141.321 800.502 152.066 787.247 152.066H735.247C721.992 152.066 711.247 141.321 711.247 128.066V101.42C711.247 96.0758 705.243 92.4473 699.899 92.4473V92.4473H664.384C663.668 92.4473 662.96 92.416 662.261 92.3547C662.146 92.3446 662.048 92.4352 662.048 92.5503V92.5503V144.034C662.048 157.289 651.302 168.034 638.048 168.034H586.564C573.309 168.034 562.564 157.289 562.564 144.034V144.034C562.564 141.165 558.682 139.543 556.174 140.936C552.728 142.848 548.762 143.938 544.542 143.938H504.036C490.781 143.938 480.036 133.193 480.036 119.938V119.938C480.036 118.705 478.096 118.198 477.347 119.178C472.962 124.917 466.046 128.62 458.265 128.62H417.759C415.944 128.62 414.177 128.418 412.477 128.036C410.433 127.577 408.197 129.36 408.197 131.456V131.456V144.034C408.197 157.289 397.452 168.034 384.197 168.034H371.619C358.364 168.034 347.619 157.289 347.619 144.034V144.034C347.619 141.733 344.984 140.3 342.839 141.131C340.149 142.174 337.224 142.746 334.166 142.746H289.353C285.488 142.746 281.836 141.832 278.602 140.209C275.578 138.692 270.8 140.651 270.8 144.034V144.034C270.8 157.289 260.054 168.034 246.8 168.034H194.8C181.545 168.034 170.8 157.289 170.8 144.034V117.771C170.8 111.691 163.407 107.601 157.326 107.601V107.601H105.326V107.601C99.9824 107.601 93.9785 111.229 93.9785 116.573V121.249C93.9785 134.504 83.2334 145.249 69.9785 145.249H34.4629C21.2081 145.249 10.4629 134.504 10.4629 121.249V85.7339C10.4629 72.479 21.2081 61.7339 34.4629 61.7339H69.9785V61.7339C75.3223 61.7339 81.3262 58.1053 81.3262 52.7615V31.6009C81.3262 18.3461 92.0713 7.60089 105.326 7.60089H157.326C170.581 7.60089 181.326 18.3461 181.326 31.6009V57.8634C181.326 63.9439 188.719 68.0337 194.8 68.0337V68.0337H246.8C253.24 68.0337 259.088 70.5708 263.399 74.7001C264.097 75.3688 265.353 74.8993 265.353 73.9326V73.9326C265.353 60.6778 276.098 49.9326 289.353 49.9326H334.166C347.421 49.9326 358.166 60.6778 358.166 73.9326V97.296C358.166 103.37 365.545 107.456 371.619 107.456V107.456H384.197C386.012 107.456 387.78 107.657 389.479 108.039C391.524 108.498 393.759 106.715 393.759 104.62V104.62V68.4194C393.759 55.1646 404.504 44.4194 417.759 44.4194H423.9C432.737 44.4194 439.9 37.256 439.9 28.4194V26.3193C439.9 13.0645 450.646 2.31934 463.9 2.31934H504.406C517.661 2.31934 528.406 13.0645 528.406 26.3193V43.7375C528.406 52.574 535.705 59.7375 544.542 59.7375V59.7375C547.973 59.7375 551.237 60.4576 554.189 61.755C562.341 65.3375 577.66 68.5503 586.564 68.5503V68.5503H638.048C638.763 68.5503 639.471 68.5816 640.17 68.6429C640.285 68.6529 640.384 68.5624 640.384 68.4473V68.4473V32.9316C640.384 19.6768 651.129 8.93164 664.384 8.93164H699.899C713.154 8.93164 723.899 19.6768 723.899 32.9316V43.0935C723.899 48.4373 729.903 52.0658 735.247 52.0658V52.0658H787.247V52.0658C793.68 52.0658 809.058 45.1124 809.058 38.6794V24.0195Z" fill="url(#paint0_linear_844_13087)"/>
<defs>
<linearGradient id="paint0_linear_844_13087" x1="512.001" y1="0.0195312" x2="512.001" y2="168.034" gradientUnits="userSpaceOnUse">
<stop stop-color="#FDFFAA" stop-opacity="0"/>
<stop offset="1" stop-color="#FDFFAA"/>
</linearGradient>
</defs>
</svg>
