<svg width="517" height="518" viewBox="0 0 517 518" fill="none" xmlns="http://www.w3.org/2000/svg">
<path fill-rule="evenodd" clip-rule="evenodd" d="M482.131 130.656C482.131 117.402 471.386 106.656 458.131 106.656H348.79C341.601 106.656 335.773 112.484 335.773 119.673V119.673C335.773 126.861 329.946 132.689 322.757 132.689H195.202C181.947 132.689 171.202 143.434 171.202 156.689V163.463C171.202 176.718 160.457 187.463 147.202 187.463H119.639C111.251 187.463 104.452 194.263 104.452 202.65V202.65C104.452 211.037 97.6529 217.836 89.2656 217.836H65.6543C52.3995 217.836 41.6543 228.582 41.6543 241.836V390.648C41.6543 403.903 52.3995 414.648 65.6543 414.648H102.181C109.14 414.648 114.782 409.006 114.782 402.046V402.046C114.782 395.087 120.424 389.445 127.384 389.445H147.202C160.457 389.445 171.202 400.19 171.202 413.445V416.718C171.202 429.973 181.947 440.718 195.202 440.718H327.945C341.2 440.718 351.945 429.973 351.945 416.718V367.125C351.945 353.87 362.69 343.125 375.945 343.125H458.131C471.386 343.125 482.131 332.379 482.131 319.125V130.656Z" fill="url(#paint0_linear_137_15011)"/>
<path d="M274.433 419.233V408.29L264.332 417.55L260.965 388.509L234.449 407.448L231.083 394.822L221.823 404.081V388.93L210.459 402.398L200.358 372.095L187.732 403.261L169.213 380.091L155.324 411.657V396.505L147.327 411.236L141.856 391.455L126.704 415.024L103.556 385.983L96.4009 414.603L89.6667 406.607L84.6162 426.43H279.063L280.746 418.812L274.433 419.233Z" fill="#F6F6F6"/>
<path d="M73.6543 426.43H291.708" stroke="#07294A" stroke-width="0.7755"/>
<path d="M306.144 275.952L237.544 303.82V125.889L306.144 98.0198V275.952Z" fill="#F0F8FF"/>
<path d="M374.744 303.82L306.144 275.952V98.0198L374.744 125.889V303.82Z" fill="#DFEFFF"/>
<path d="M306.143 275.952L237.543 303.82" stroke="#07294A" stroke-width="0.7755"/>
<path d="M374.744 303.82L306.144 275.952" stroke="#07294A" stroke-width="0.7755"/>
<path d="M443.344 275.952L374.744 303.82V125.889L443.344 98.0198V275.952Z" fill="#79C9E7"/>
<path d="M232.175 417.034C232.175 417.034 224.641 265.577 217.232 224.534L168.351 231.102L193.827 424.744H237.007L232.175 417.034Z" fill="#DFEFFF"/>
<path d="M217.395 326.449C212.035 317.166 196.308 315.94 180.421 322.854L186.45 368.679C189.78 367.455 192.999 365.945 196.07 364.168C213.923 353.861 223.471 336.973 217.395 326.449Z" fill="#07294A"/>
<path d="M152.755 240.381C152.755 240.381 147.262 297.699 180.799 313.022L111.788 351.919L126.522 387.869L131.826 375.493C131.826 375.493 218.461 361.938 223.175 327.756C227.89 293.573 195.916 229.773 195.916 229.773" fill="#F0F8FF"/>
<path d="M131.827 375.493C131.827 375.493 218.462 361.938 223.176 327.756C227.891 293.573 195.917 229.773 195.917 229.773" stroke="#07294A" stroke-width="0.7755"/>
<path d="M175.074 126.945V143.77L195.917 148.893V120.5L175.074 115.377V126.945Z" fill="#F0F8FF"/>
<path d="M186.848 132.766C187.156 132.766 187.406 132.517 187.406 132.209C187.406 131.901 187.156 131.652 186.848 131.652C186.541 131.652 186.291 131.901 186.291 132.209C186.291 132.517 186.541 132.766 186.848 132.766Z" fill="#07294A"/>
<path d="M178.288 132.766C178.596 132.766 178.845 132.517 178.845 132.209C178.845 131.901 178.596 131.652 178.288 131.652C177.98 131.652 177.73 131.901 177.73 132.209C177.73 132.517 177.98 132.766 178.288 132.766Z" fill="#07294A"/>
<path d="M180.8 135.533V126.945H176.497" stroke="#07294A" stroke-width="0.7755"/>
<path d="M187.897 126.945H183.595" stroke="#07294A" stroke-width="0.7755"/>
<path d="M194.543 131.346V134.328C195.316 134.328 196.056 134.021 196.603 133.475C197.149 132.928 197.456 132.188 197.456 131.415C197.456 131.326 197.452 131.237 197.444 131.15C197.281 129.341 194.543 129.529 194.543 131.346Z" fill="#F0F8FF"/>
<path d="M194.543 134.328C195.316 134.328 196.056 134.021 196.603 133.475C197.149 132.929 197.456 132.188 197.456 131.415" stroke="#07294A" stroke-width="0.7755"/>
<path d="M182.681 137.65C184.309 137.65 185.629 136.33 185.629 134.702" stroke="#79C9E7" stroke-width="0.7755" stroke-linecap="round" stroke-linejoin="round"/>
<path d="M175.074 143.77L195.917 148.893" stroke="#07294A" stroke-width="0.7755"/>
<path d="M180.8 135.54L182.682 136.003" stroke="#07294A" stroke-width="0.7755" stroke-linecap="round"/>
<path d="M175.074 126.945L173.575 112.275L198.526 114.829L196 129.885" stroke="#07294A" stroke-width="0.7755"/>
<path d="M176.497 118.725C176.497 118.725 182.908 124.554 191.486 123.375C191.486 123.375 192.035 129.072 194.544 130.382" stroke="#07294A" stroke-width="0.7755"/>
<path d="M217.231 179.021V224.534L152.756 240.381V189.692C152.756 171.718 165.026 156.067 182.48 151.777H182.48C190.851 149.72 199.702 151.624 206.486 156.942C213.269 162.261 217.231 170.402 217.231 179.021L217.231 179.021Z" fill="#79C9E7"/>
<path d="M165.22 161.092C165.22 161.092 137.918 185.456 138.311 218.461C138.64 246.104 203.647 223.31 224.761 215.173C228.905 213.575 232.181 210.302 233.783 206.16L236.131 200.098L242.828 197.375V193.708L177.739 202.09L185.746 183.23" stroke="#07294A" stroke-width="0.7755"/>
<path d="M155.041 231.644C160.099 234.064 166.959 235.554 174.521 235.554C189.085 235.554 201.065 230.037 202.527 222.964C186.942 227.868 168.234 232.488 155.041 231.644Z" fill="#07294A"/>
<path d="M241.4 191.915C246.689 180.906 255.383 163.807 259.591 161.092C263.313 158.675 267.753 157.613 272.165 158.083V161.092L267.45 163.846C267.45 163.846 270.593 172.49 264.306 176.157C264.306 176.157 262.884 256.67 217.23 224.534" stroke="#07294A" stroke-width="0.7755"/>
<path d="M213.423 164.884L232.82 194.84" stroke="#07294A" stroke-width="0.7755"/>
<path d="M306.144 322.524C322.508 322.524 335.774 309.258 335.774 292.894C335.774 276.53 322.508 263.265 306.144 263.265C289.78 263.265 276.515 276.53 276.515 292.894C276.515 309.258 289.78 322.524 306.144 322.524Z" fill="#79C9E7"/>
<path d="M335.773 292.894C335.773 309.258 322.507 322.524 306.144 322.524" stroke="#07294A" stroke-width="0.7755"/>
<path d="M283.549 292.894C283.549 286.902 285.929 281.155 290.167 276.918C294.404 272.68 300.151 270.3 306.143 270.3" stroke="white" stroke-width="0.7755"/>
<path d="M306.144 322.524V426.43" stroke="#07294A" stroke-width="0.7755"/>
<path d="M272.932 426.43H339.356" stroke="#07294A" stroke-width="0.7755"/>
<defs>
<linearGradient id="paint0_linear_137_15011" x1="261.893" y1="106.656" x2="261.893" y2="440.718" gradientUnits="userSpaceOnUse">
<stop stop-color="#FDFFAA" stop-opacity="0"/>
<stop offset="1" stop-color="#FDFFAA"/>
</linearGradient>
</defs>
</svg>
