<svg width="49" height="49" viewBox="0 0 49 49" fill="none" xmlns="http://www.w3.org/2000/svg">
<circle cx="10.5996" cy="10.0067" r="10" fill="#79C9E7"/>
<path d="M24.971 10.2616C24.7326 10.1662 24.4666 10.1662 24.2282 10.2616L12.2922 15.036L17.0996 16.959L29.407 12.036L24.971 10.2616ZM32.0996 13.113L19.7922 18.036L24.5996 19.959L36.907 15.036L32.0996 13.113ZM38.5996 16.513L25.5996 21.713V37.559L38.5996 32.359V16.513ZM23.5996 37.559V21.713L10.5996 16.513V32.359L23.5996 37.559ZM23.4854 8.40463C24.2007 8.11854 24.9985 8.11854 25.7138 8.40463L39.971 14.1075C40.3507 14.2594 40.5996 14.6271 40.5996 15.036V32.359C40.5996 33.1768 40.1017 33.9122 39.3424 34.2159L24.971 39.9645C24.7326 40.0598 24.4666 40.0598 24.2282 39.9645L9.85683 34.2159C9.09751 33.9122 8.59961 33.1768 8.59961 32.359V15.036C8.59961 14.6271 8.84856 14.2594 9.22822 14.1075L23.4854 8.40463Z" fill="#0071CB"/>
</svg>
