<svg width="48" height="49" viewBox="0 0 48 49" fill="none" xmlns="http://www.w3.org/2000/svg">
<circle cx="10" cy="10.0067" r="10" fill="#79C9E7"/>
<path d="M32.2724 8.68712C34.1658 8.21376 36 9.64583 36 11.5975V14.036H37C38.6569 14.036 40 15.3791 40 17.036V35.036C40 36.6928 38.6569 38.036 37 38.036H11C9.34315 38.036 8 36.6928 8 35.036V17.036C8 15.4244 9.27077 14.1096 10.865 14.039L32.2724 8.68712ZM19.1231 14.036H34V11.5975C34 10.947 33.3886 10.4696 32.7575 10.6274L19.1231 14.036ZM11 16.036C10.4477 16.036 10 16.4837 10 17.036V35.036C10 35.5883 10.4477 36.036 11 36.036H37C37.5523 36.036 38 35.5883 38 35.036V17.036C38 16.4837 37.5523 16.036 37 16.036H11Z" fill="#0071CB"/>
</svg>
