<svg width="49" height="49" viewBox="0 0 49 49" fill="none" xmlns="http://www.w3.org/2000/svg">
<circle cx="10.7998" cy="10.5068" r="10" fill="#79C9E7"/>
<path fill-rule="evenodd" clip-rule="evenodd" d="M30.7998 38.5361C35.2181 38.5361 38.7998 34.9544 38.7998 30.5361C38.7998 26.1179 35.2181 22.5361 30.7998 22.5361C26.3815 22.5361 22.7998 26.1179 22.7998 30.5361C22.7998 34.9544 26.3815 38.5361 30.7998 38.5361ZM40.7998 30.5361C40.7998 36.059 36.3227 40.5361 30.7998 40.5361C25.277 40.5361 20.7998 36.059 20.7998 30.5361C20.7998 25.0133 25.277 20.5361 30.7998 20.5361C36.3227 20.5361 40.7998 25.0133 40.7998 30.5361Z" fill="#0071CB"/>
<path d="M27.6748 32.4249C27.7702 33.6168 28.7112 34.5459 30.4024 34.6559V35.5361H31.1527V34.6498C32.9012 34.5276 33.9248 33.5924 33.9248 32.2354C33.9248 31.0007 33.1428 30.365 31.744 30.0349L31.1527 29.8943V27.4982C31.9029 27.5838 32.3798 27.9933 32.4942 28.5618H33.8104C33.715 27.4127 32.7295 26.5141 31.1527 26.4163V25.5361H30.4024V26.4347C28.9083 26.5814 27.891 27.4799 27.891 28.7513C27.891 29.876 28.6476 30.5911 29.9065 30.8845L30.4024 31.0068V33.5496C29.6331 33.4334 29.1244 33.0117 29.01 32.4249H27.6748ZM30.3961 29.7171C29.6585 29.5459 29.258 29.1975 29.258 28.6718C29.258 28.085 29.6903 27.6449 30.4024 27.5166V29.7171H30.3961ZM31.2608 31.2085C32.1573 31.4163 32.5705 31.7525 32.5705 32.3454C32.5705 33.0239 32.0555 33.4885 31.1527 33.574V31.1841L31.2608 31.2085Z" fill="#0071CB"/>
<path d="M10.7998 8.53613C9.69524 8.53613 8.7998 9.43156 8.7998 10.5361V26.5361C8.7998 27.6407 9.69524 28.5361 10.7998 28.5361H18.9657C19.0812 27.8478 19.2553 27.1794 19.4826 26.5361H14.7998C14.7998 24.327 13.0089 22.5361 10.7998 22.5361V14.5361C13.0089 14.5361 14.7998 12.7453 14.7998 10.5361H34.7998C34.7998 12.7453 36.5907 14.5361 38.7998 14.5361V21.5917C39.56 22.2721 40.233 23.048 40.7998 23.9005V10.5361C40.7998 9.43156 39.9044 8.53613 38.7998 8.53613H10.7998Z" fill="#0071CB"/>
<path d="M28.7964 18.7026C28.7987 18.6474 28.7998 18.5919 28.7998 18.5361C28.7998 16.327 27.0089 14.5361 24.7998 14.5361C22.5907 14.5361 20.7998 16.327 20.7998 18.5361C20.7998 19.9051 21.4876 21.1135 22.5364 21.8346C24.2295 20.2262 26.3916 19.1068 28.7964 18.7026Z" fill="#0071CB"/>
</svg>
