<svg width="49" height="49" viewBox="0 0 49 49" fill="none" xmlns="http://www.w3.org/2000/svg">
<circle cx="10.3999" cy="10.5068" r="10" fill="#79C9E7"/>
<path d="M12.107 38.2432L38.107 12.2432C38.4975 11.8527 38.4975 11.2196 38.107 10.829C37.7165 10.4385 37.0833 10.4385 36.6928 10.829L10.6928 36.829C10.3023 37.2196 10.3023 37.8527 10.6928 38.2432C11.0833 38.6338 11.7165 38.6338 12.107 38.2432Z" fill="#0071CB"/>
<path d="M16.3999 10.5361C16.9522 10.5361 17.3999 10.9838 17.3999 11.5361V15.5361H21.3999C21.9522 15.5361 22.3999 15.9838 22.3999 16.5361C22.3999 17.0884 21.9522 17.5361 21.3999 17.5361H17.3999V21.5361C17.3999 22.0884 16.9522 22.5361 16.3999 22.5361C15.8476 22.5361 15.3999 22.0884 15.3999 21.5361V17.5361H11.3999C10.8476 17.5361 10.3999 17.0884 10.3999 16.5361C10.3999 15.9838 10.8476 15.5361 11.3999 15.5361H15.3999V11.5361C15.3999 10.9838 15.8476 10.5361 16.3999 10.5361Z" fill="#0071CB"/>
<path d="M26.3999 32.5361C26.3999 31.9838 26.8476 31.5361 27.3999 31.5361H37.3999C37.9522 31.5361 38.3999 31.9838 38.3999 32.5361C38.3999 33.0884 37.9522 33.5361 37.3999 33.5361H27.3999C26.8476 33.5361 26.3999 33.0884 26.3999 32.5361Z" fill="#0071CB"/>
</svg>
