<svg width="49" height="49" viewBox="0 0 49 49" fill="none" xmlns="http://www.w3.org/2000/svg">
<circle cx="10.3999" cy="10.0067" r="10" fill="#79C9E7"/>
<path fill-rule="evenodd" clip-rule="evenodd" d="M23.6928 8.3289C24.0833 7.93838 24.7165 7.93838 25.107 8.3289L29.107 12.3289C29.4975 12.7194 29.4975 13.3526 29.107 13.7431C28.7165 14.1336 28.0833 14.1336 27.6928 13.7431L25.3999 11.4502V19.036C25.3999 19.5883 24.9522 20.036 24.3999 20.036C23.8476 20.036 23.3999 19.5883 23.3999 19.036V11.4502L21.107 13.7431C20.7165 14.1336 20.0833 14.1336 19.6928 13.7431C19.3023 13.3526 19.3023 12.7194 19.6928 12.3289L23.6928 8.3289ZM24.3999 28.036C24.9522 28.036 25.3999 28.4837 25.3999 29.036V36.6218L27.6928 34.3289C28.0833 33.9384 28.7165 33.9384 29.107 34.3289C29.4975 34.7194 29.4975 35.3526 29.107 35.7431L25.107 39.7431C24.7165 40.1336 24.0833 40.1336 23.6928 39.7431L19.6928 35.7431C19.3023 35.3526 19.3023 34.7194 19.6928 34.3289C20.0833 33.9384 20.7165 33.9384 21.107 34.3289L23.3999 36.6218V29.036C23.3999 28.4837 23.8476 28.036 24.3999 28.036Z" fill="#0071CB"/>
<path fill-rule="evenodd" clip-rule="evenodd" d="M8.6928 24.7431C8.30227 24.3526 8.30227 23.7194 8.6928 23.3289L12.6928 19.3289C13.0833 18.9384 13.7165 18.9384 14.107 19.3289C14.4975 19.7194 14.4975 20.3526 14.107 20.7431L11.8141 23.036L19.3999 23.036C19.9522 23.036 20.3999 23.4837 20.3999 24.036C20.3999 24.5883 19.9522 25.036 19.3999 25.036L11.8141 25.036L14.107 27.3289C14.4975 27.7194 14.4975 28.3526 14.107 28.7431C13.7165 29.1336 13.0833 29.1336 12.6928 28.7431L8.6928 24.7431ZM28.3999 24.036C28.3999 23.4837 28.8476 23.036 29.3999 23.036L36.9857 23.036L34.6928 20.7431C34.3023 20.3526 34.3023 19.7194 34.6928 19.3289C35.0833 18.9384 35.7165 18.9384 36.107 19.3289L40.107 23.3289C40.4975 23.7194 40.4975 24.3526 40.107 24.7431L36.107 28.7431C35.7165 29.1336 35.0833 29.1336 34.6928 28.7431C34.3023 28.3526 34.3023 27.7194 34.6928 27.3289L36.9857 25.036L29.3999 25.036C28.8476 25.036 28.3999 24.5883 28.3999 24.036Z" fill="#0071CB"/>
</svg>
