<svg width="48" height="49" viewBox="0 0 48 49" fill="none" xmlns="http://www.w3.org/2000/svg">
<circle cx="10" cy="10.5068" r="10" fill="#79C9E7"/>
<path d="M17.9999 21.0361C17.9999 21.8646 17.3283 22.5361 16.4999 22.5361C15.6715 22.5361 14.9999 21.8646 14.9999 21.0361C14.9999 20.2077 15.6715 19.5361 16.4999 19.5361C17.3283 19.5361 17.9999 20.2077 17.9999 21.0361Z" fill="#0071CB"/>
<path d="M20.2761 18.0432C21.4176 17.7153 22.6462 17.5361 23.9284 17.5361C25.2604 17.5361 26.5346 17.7294 27.7133 18.0821C28.2424 18.2404 28.7997 17.9398 28.958 17.4107C29.1163 16.8816 28.8157 16.3244 28.2866 16.166C26.9212 15.7575 25.4539 15.5361 23.9284 15.5361C22.46 15.5361 21.0454 15.7413 19.7238 16.121C19.193 16.2735 18.8863 16.8275 19.0388 17.3583C19.1914 17.8891 19.7453 18.1958 20.2761 18.0432Z" fill="#0071CB"/>
<path fill-rule="evenodd" clip-rule="evenodd" d="M23.9286 11.5908C17.9734 11.5908 12.7854 14.9982 11.2871 19.8408H10.189C8.94742 19.8408 8.00585 20.9603 8.21859 22.1835L8.72665 25.1048C8.97655 26.5418 10.2237 27.5908 11.6823 27.5908H12.2077C12.8065 28.6168 13.5836 29.5468 14.4988 30.3545L13.0408 35.3085C12.9518 35.6108 13.0105 35.9375 13.1994 36.1898C13.3882 36.4422 13.6849 36.5908 14.0001 36.5908H18.0001C18.4229 36.5908 18.8 36.3249 18.942 35.9266L19.9057 33.2236C21.175 33.5707 22.5273 33.7575 23.9286 33.7575C25.3416 33.7575 26.7047 33.5676 27.9832 33.2149L29.0704 35.9591C29.2214 36.3404 29.59 36.5908 30.0001 36.5908H34.0001C34.3168 36.5908 34.6148 36.4408 34.8035 36.1863C34.9921 35.9318 35.049 35.6031 34.9569 35.3L33.4334 30.2876C35.6198 28.3254 37 25.6536 37 22.6742C37 22.3833 36.9871 22.0956 36.9617 21.8115C37.4827 21.5916 37.9757 21.2801 38.37 20.9237C38.9999 21.5361 39.9999 21.5361 39.9999 20.0909C39.9999 20.5361 38.9999 20.5361 39.0775 20.0376C39.1608 19.8748 39.2233 19.7042 39.2568 19.5278C39.3436 19.0701 39.2253 18.6092 38.8535 18.2374C38.42 17.8039 37.8575 17.815 37.4402 18.0426C37.0472 18.257 36.7387 18.6784 36.6899 19.1662C36.6414 19.6516 36.8546 20.1268 37.3302 20.4735C37.1681 20.586 36.9937 20.6894 36.8128 20.7797C35.7446 15.452 30.2446 11.5908 23.9286 11.5908ZM13.0329 21.0556C13.9415 16.9239 18.3662 13.5908 23.9286 13.5908C30.2192 13.5908 35 17.8186 35 22.6742C35 25.1831 33.7522 27.4932 31.6603 29.1701C31.3412 29.4258 31.21 29.85 31.3289 30.2411L32.651 34.5908H30.6795L29.5011 31.6164C29.3037 31.1181 28.7486 30.864 28.2425 31.0403C26.9196 31.5012 25.4625 31.7575 23.9286 31.7575C22.3947 31.7575 20.9376 31.5012 19.6147 31.0403C19.0959 30.8596 18.5284 31.1313 18.3438 31.6489L17.295 34.5908H15.3368L16.6027 30.2898C16.718 29.8979 16.5834 29.4752 16.2626 29.2223C15.1561 28.3497 14.2799 27.2993 13.6943 26.14C13.5242 25.8032 13.179 25.5908 12.8017 25.5908H11.6823C11.1961 25.5908 10.7804 25.2411 10.6971 24.7622L10.189 21.8408H12.0563C12.5258 21.8408 12.9321 21.5142 13.0329 21.0556ZM38.2743 19.3415C38.2518 19.4601 38.1888 19.6037 38.0776 19.7625C38.0459 19.746 38.0166 19.7293 37.9894 19.7125C37.6988 19.5329 37.6753 19.3621 37.6849 19.2657C37.6987 19.1285 37.7964 18.9874 37.919 18.9205C38.0174 18.8669 38.0799 18.878 38.1464 18.9445C38.2745 19.0726 38.3021 19.1951 38.2743 19.3415Z" fill="#0071CB"/>
</svg>
