<svg width="49" height="49" viewBox="0 0 49 49" fill="none" xmlns="http://www.w3.org/2000/svg">
<circle cx="10.1997" cy="10.0067" r="10" fill="#79C9E7"/>
<path d="M13.1997 18.036C13.752 18.036 14.1997 17.5883 14.1997 17.036C14.1997 16.4837 13.752 16.036 13.1997 16.036C12.6474 16.036 12.1997 16.4837 12.1997 17.036C12.1997 17.5883 12.6474 18.036 13.1997 18.036Z" fill="#0071CB"/>
<path d="M16.1997 18.036C16.752 18.036 17.1997 17.5883 17.1997 17.036C17.1997 16.4837 16.752 16.036 16.1997 16.036C15.6474 16.036 15.1997 16.4837 15.1997 17.036C15.1997 17.5883 15.6474 18.036 16.1997 18.036Z" fill="#0071CB"/>
<path d="M20.1997 17.036C20.1997 17.5883 19.752 18.036 19.1997 18.036C18.6474 18.036 18.1997 17.5883 18.1997 17.036C18.1997 16.4837 18.6474 16.036 19.1997 16.036C19.752 16.036 20.1997 16.4837 20.1997 17.036Z" fill="#0071CB"/>
<path d="M8.19971 16.036C8.19971 13.8269 9.99057 12.036 12.1997 12.036H34.1997C36.4088 12.036 38.1997 13.8269 38.1997 16.036V24.036C38.1997 24.5883 37.752 25.036 37.1997 25.036C36.6474 25.036 36.1997 24.5883 36.1997 24.036V22.036H10.1997V32.036C10.1997 33.1406 11.0951 34.036 12.1997 34.036H23.1997C23.752 34.036 24.1997 34.4837 24.1997 35.036C24.1997 35.5883 23.752 36.036 23.1997 36.036H12.1997C9.99057 36.036 8.19971 34.2451 8.19971 32.036V16.036ZM10.1997 20.036H36.1997V16.036C36.1997 14.9314 35.3043 14.036 34.1997 14.036H12.1997C11.0951 14.036 10.1997 14.9314 10.1997 16.036V20.036Z" fill="#0071CB"/>
<path d="M40.1997 33.036C40.1997 36.902 37.0657 40.036 33.1997 40.036C29.3337 40.036 26.1997 36.902 26.1997 33.036C26.1997 29.17 29.3337 26.036 33.1997 26.036C37.0657 26.036 40.1997 29.17 40.1997 33.036ZM33.1997 29.036C32.6474 29.036 32.1997 29.4837 32.1997 30.036V32.036H30.1997C29.6474 32.036 29.1997 32.4837 29.1997 33.036C29.1997 33.5883 29.6474 34.036 30.1997 34.036H32.1997V36.036C32.1997 36.5883 32.6474 37.036 33.1997 37.036C33.752 37.036 34.1997 36.5883 34.1997 36.036V34.036H36.1997C36.752 34.036 37.1997 33.5883 37.1997 33.036C37.1997 32.4837 36.752 32.036 36.1997 32.036H34.1997V30.036C34.1997 29.4837 33.752 29.036 33.1997 29.036Z" fill="#0071CB"/>
</svg>
