<svg width="49" height="49" viewBox="0 0 49 49" fill="none" xmlns="http://www.w3.org/2000/svg">
<circle cx="10.1997" cy="10.5068" r="10" fill="#79C9E7"/>
<path d="M18.8756 11.7178C16.7036 12.3066 14.504 13.0026 13.2021 13.4274C12.844 13.5443 12.5925 13.8545 12.5452 14.2089C11.4375 22.5219 13.997 28.5894 17.051 32.5847C18.5843 34.5906 20.2434 36.0742 21.6264 37.0496C22.3185 37.5376 22.9304 37.8905 23.4111 38.1168C23.6518 38.2302 23.8487 38.3065 23.9982 38.3528C24.1213 38.391 24.1847 38.4 24.1997 38.4021C24.2148 38.4 24.2781 38.391 24.4012 38.3528C24.5507 38.3065 24.7476 38.2301 24.9883 38.1168C25.4691 37.8905 26.0809 37.5376 26.773 37.0496C28.1561 36.0742 29.8151 34.5906 31.3484 32.5847C34.4024 28.5894 36.9619 22.5219 35.8542 14.2089C35.807 13.8545 35.5555 13.5443 35.1973 13.4274C33.8954 13.0026 31.6958 12.3066 29.5238 11.7178C27.3031 11.1158 25.2614 10.6695 24.1997 10.6695C23.138 10.6695 21.0963 11.1158 18.8756 11.7178ZM18.343 9.65544C20.5145 9.06682 22.8207 8.53613 24.1997 8.53613C25.5787 8.53613 27.8849 9.06682 30.0564 9.65544C32.2766 10.2573 34.5134 10.9653 35.8292 11.3947C36.9272 11.753 37.7577 12.7233 37.9173 13.9203C39.1105 22.875 36.3436 29.5099 32.9877 33.9001C31.3161 36.087 29.4992 37.7169 27.9535 38.8069C27.1812 39.3515 26.4655 39.7692 25.8576 40.0554C25.296 40.3197 24.6951 40.5361 24.1997 40.5361C23.7043 40.5361 23.1034 40.3197 22.5418 40.0554C21.934 39.7692 21.2182 39.3515 20.4459 38.8069C18.9002 37.7169 17.0834 36.087 15.4117 33.9001C12.0558 29.5099 9.28892 22.875 10.4822 13.9203C10.6417 12.7233 11.4722 11.753 12.5703 11.3947C13.886 10.9654 16.1228 10.2573 18.343 9.65544Z" fill="#0071CB"/>
<path d="M29.9068 18.829C30.2973 19.2196 30.2973 19.8527 29.9068 20.2432L23.9068 26.2432C23.7193 26.4308 23.4649 26.5361 23.1997 26.5361C22.9345 26.5361 22.6801 26.4308 22.4926 26.2432L19.4926 23.2432C19.1021 22.8527 19.1021 22.2195 19.4926 21.829C19.8831 21.4385 20.5163 21.4385 20.9068 21.829L23.1997 24.1219L28.4926 18.829C28.8831 18.4385 29.5163 18.4385 29.9068 18.829Z" fill="#0071CB"/>
</svg>
