<svg width="49" height="49" viewBox="0 0 49 49" fill="none" xmlns="http://www.w3.org/2000/svg">
<circle cx="10.7998" cy="10.0067" r="10" fill="#79C9E7"/>
<path d="M24.7999 8.03601L38.0195 14.036H39.7999C40.3522 14.036 40.7999 14.4837 40.7999 15.036L40.7998 19.036C40.7998 19.5883 40.3521 20.036 39.7998 20.036H38.7998L38.7999 34.036C39.2587 34.036 39.6587 34.3508 39.77 34.796L40.77 38.796C40.8447 39.0948 40.7776 39.4133 40.5881 39.656C40.3986 39.8987 40.1078 40.036 39.7999 40.036H9.79988C9.49194 40.036 9.20118 39.8987 9.01167 39.656C8.82216 39.4133 8.75505 39.0948 8.82973 38.796L9.82973 34.796C9.94102 34.3508 10.341 34.036 10.7999 34.036L10.7998 20.036H9.7998C9.24752 20.036 8.7998 19.5883 8.7998 19.036L8.79988 15.036C8.79988 14.4837 9.24759 14.036 9.79988 14.036H11.5802L24.7999 8.03601ZM16.3528 14.036H33.2469L24.7999 10.036L16.3528 14.036ZM12.7998 20.036L12.7999 34.036H14.7999L14.7998 20.036H12.7998ZM16.7998 20.036L16.7999 34.036H21.7999L21.7998 20.036H16.7998ZM23.7998 20.036L23.7999 34.036H25.7999L25.7998 20.036H23.7998ZM27.7998 20.036L27.7999 34.036H32.7999L32.7998 20.036H27.7998ZM34.7998 20.036L34.7999 34.036H36.7998V20.036H34.7998ZM38.7999 18.036V16.036H10.7999V18.036H38.7999ZM38.0191 36.036H11.5807L11.0807 38.036H38.5191L38.0191 36.036Z" fill="#0071CB"/>
</svg>
