<svg width="1200" height="200" viewBox="0 0 1200 200" fill="none" xmlns="http://www.w3.org/2000/svg">
<g clip-path="url(#clip0_985_58900)">
<path fill-rule="evenodd" clip-rule="evenodd" d="M250.419 30.374C250.419 15.608 262.389 3.6377 277.155 3.6377H531.083C545.849 3.6377 557.819 15.608 557.819 30.3741V50.0548C557.819 59.8989 565.799 67.879 575.643 67.879H732.17C732.454 67.879 732.737 67.8835 733.02 67.8923C743.896 68.232 757.443 68.0175 766.797 62.4578C774.943 57.6161 784.447 54.8323 794.542 54.8323C819.762 54.8323 841.287 72.2041 847.188 95.6344C847.834 98.1998 850.213 100 852.859 100V100C856.617 100 860.267 100.509 863.741 101.462C864.704 101.727 865.677 100.999 865.677 100V100C865.677 64.0116 895.124 34.8372 931.449 34.8372C967.774 34.8372 997.221 64.0116 997.221 100C997.221 135.988 967.774 165.163 931.449 165.163C925.738 165.163 920.197 164.442 914.913 163.086C902.987 160.026 887.85 165.222 878.123 172.77C871.125 178.2 862.336 181.439 852.859 181.439C842.633 181.439 833.209 177.669 825.972 171.445C818.75 165.233 808.717 161.297 799.226 162.115C797.681 162.248 796.119 162.316 794.542 162.316C788.29 162.316 782.264 161.248 776.647 159.284C769.026 156.62 758.906 161.552 758.906 169.626V169.626C758.906 184.392 746.936 196.362 732.17 196.362H487.872C473.106 196.362 461.135 184.392 461.135 169.626V149.945C461.135 140.101 453.155 132.121 443.311 132.121H322.907C314.832 132.121 308.017 137.729 304.089 144.785C294.466 162.074 275.89 173.786 254.553 173.786C234.365 173.786 216.649 163.301 206.649 147.529C200.309 137.529 182.528 129.653 170.688 129.653V129.653V129.653C156.48 129.653 131.753 136.166 117.729 138.44C116.259 138.678 114.754 138.802 113.222 138.802C97.8625 138.802 85.1511 126.35 85.1511 110.991C85.1511 95.6313 97.8625 83.1799 113.222 83.1799V83.1799C120.591 83.1799 130.35 78.2006 133.541 71.5585C140.171 57.7604 154.414 48.2141 170.688 48.2141C179.612 48.2141 187.925 51.0849 194.707 55.9533C204.872 63.2494 224.748 68.5804 236.626 64.6484V64.6484C243.98 62.214 250.419 55.92 250.419 48.1735V30.374ZM60.1236 42.0418C46.2748 42.0418 34.8137 53.2685 34.8137 67.1172C34.8137 80.966 46.2748 92.1926 60.1236 92.1926C73.9723 92.1926 85.4334 80.966 85.4334 67.1172C85.4334 53.2685 73.9723 42.0418 60.1236 42.0418ZM309.203 163.532C309.203 149.684 320.664 138.457 334.513 138.457C348.362 138.457 359.823 149.684 359.823 163.532C359.823 177.381 348.362 188.608 334.513 188.608C320.664 188.608 309.203 177.381 309.203 163.532ZM1134.59 88.7516C1151.49 88.7516 1165.18 75.18 1165.18 58.4387C1165.18 41.6974 1151.49 28.1259 1134.59 28.1259C1117.69 28.1259 1103.99 41.6974 1103.99 58.4387C1103.99 61.5144 1104.45 64.483 1105.31 67.2802C1106 69.5276 1103.6 72.4754 1101.25 72.4754V72.4754C1090.46 72.4754 1081.7 81.1456 1081.7 91.8408C1081.7 102.536 1090.46 111.206 1101.25 111.206C1112.05 111.206 1120.8 102.536 1120.8 91.8408V91.8408C1120.8 89.4324 1123.79 86.91 1126.1 87.5709C1128.8 88.3397 1131.64 88.7516 1134.59 88.7516ZM1044.92 148.163C1044.92 146.576 1042.74 145.215 1041.37 146.015C1036.82 148.667 1031.52 150.188 1025.87 150.188C1008.97 150.188 995.271 136.616 995.271 119.875C995.271 103.134 1008.97 89.5621 1025.87 89.5621C1042.76 89.5621 1056.46 103.134 1056.46 119.875C1056.46 120.288 1056.45 120.699 1056.44 121.108C1056.3 124.465 1061.11 128.798 1064.47 128.798V128.798C1075.26 128.798 1084.01 137.468 1084.01 148.163C1084.01 158.858 1075.26 167.529 1064.47 167.529C1053.67 167.529 1044.92 158.858 1044.92 148.163V148.163ZM579.124 63.1221C588.207 63.1221 595.571 55.8265 595.571 46.8269C595.571 37.8274 588.207 30.5318 579.124 30.5318C570.04 30.5318 562.676 37.8274 562.676 46.8269C562.676 55.8265 570.04 63.1221 579.124 63.1221Z" fill="url(#paint0_linear_985_58900)"/>
<path d="M1056.21 195.543V189.055L1050.22 194.545L1048.22 177.329L1032.51 188.556L1030.51 181.072L1025.02 186.561V177.579L1018.28 185.563L1012.3 167.599L1004.81 186.074L993.834 172.339L985.601 191.052V182.07L980.861 190.802L977.617 179.076L968.635 193.047L954.913 175.832L950.672 192.798L946.68 188.058L943.686 199.809H1058.95L1059.95 195.293L1056.21 195.543V195.543Z" fill="#F6F6F6"/>
<path d="M937.188 199.809H1066.45" stroke="#07294A" stroke-width="0.459712"/>
<path d="M1075.01 110.606L1034.34 127.126V21.6494L1075.01 5.12891V110.606V110.606Z" fill="#F0F8FF"/>
<path d="M1115.67 127.126L1075.01 110.606V5.12891L1115.67 21.6494V127.126V127.126Z" fill="#DFEFFF"/>
<path d="M1075.01 110.606L1034.34 127.126" stroke="#07294A" stroke-width="0.459712"/>
<path d="M1115.67 127.126L1075.01 110.606" stroke="#07294A" stroke-width="0.459712"/>
<path d="M1156.34 110.606L1115.67 127.126V21.6494L1156.34 5.12891V110.606V110.606Z" fill="#79C9E7"/>
<path d="M1031.16 194.239C1031.16 194.239 1026.69 104.456 1022.3 80.126L993.323 84.0195L1008.42 198.809H1034.02L1031.16 194.239Z" fill="#DFEFFF"/>
<path d="M1022.4 140.54C1019.22 135.037 1009.9 134.311 1000.48 138.409L1004.05 165.574C1006.03 164.848 1007.93 163.954 1009.76 162.9C1020.34 156.79 1026 146.779 1022.4 140.54Z" fill="#07294A"/>
<path d="M984.079 89.5199C984.079 89.5199 980.822 123.498 1000.7 132.581L959.793 155.639L968.528 176.95L971.672 169.614C971.672 169.614 1023.03 161.578 1025.82 141.315C1028.62 121.052 1009.66 83.2314 1009.66 83.2314" fill="#F0F8FF"/>
<path d="M971.672 169.614C971.672 169.614 1023.03 161.578 1025.82 141.315C1028.62 121.052 1009.66 83.2314 1009.66 83.2314" stroke="#07294A" stroke-width="0.459712"/>
<path d="M997.309 22.2759V32.2496L1009.66 35.2863V18.4552L997.309 15.4185V22.2759V22.2759Z" fill="#F0F8FF"/>
<path d="M1004.29 25.7266C1004.47 25.7266 1004.62 25.5787 1004.62 25.3963C1004.62 25.2138 1004.47 25.0659 1004.29 25.0659C1004.11 25.0659 1003.96 25.2138 1003.96 25.3963C1003.96 25.5787 1004.11 25.7266 1004.29 25.7266Z" fill="#07294A"/>
<path d="M999.214 25.7266C999.396 25.7266 999.544 25.5787 999.544 25.3963C999.544 25.2138 999.396 25.0659 999.214 25.0659C999.031 25.0659 998.884 25.2138 998.884 25.3963C998.884 25.5787 999.031 25.7266 999.214 25.7266Z" fill="#07294A"/>
<path d="M1000.7 27.3669V22.2759H998.152" stroke="#07294A" stroke-width="0.459712"/>
<path d="M1004.91 22.2759H1002.36" stroke="#07294A" stroke-width="0.459712"/>
<path d="M1008.85 24.8842V26.6521C1009.31 26.6521 1009.75 26.4702 1010.07 26.1463C1010.39 25.8225 1010.58 25.3833 1010.58 24.9253C1010.58 24.8723 1010.57 24.82 1010.57 24.7682C1010.47 23.6959 1008.85 23.8075 1008.85 24.8842Z" fill="#F0F8FF"/>
<path d="M1008.85 26.6521C1009.31 26.6521 1009.75 26.4701 1010.07 26.1463C1010.39 25.8225 1010.58 25.3833 1010.58 24.9253" stroke="#07294A" stroke-width="0.459712"/>
<path d="M1001.82 28.6217C1002.78 28.6217 1003.57 27.8393 1003.57 26.874" stroke="#79C9E7" stroke-width="0.459712" stroke-linecap="round" stroke-linejoin="round"/>
<path d="M997.309 32.2495L1009.66 35.2862" stroke="#07294A" stroke-width="0.459712"/>
<path d="M1000.7 27.3708L1001.82 27.645" stroke="#07294A" stroke-width="0.459712" stroke-linecap="round"/>
<path d="M997.309 22.2755L996.42 13.5791L1011.21 15.0931L1009.71 24.018" stroke="#07294A" stroke-width="0.459712"/>
<path d="M998.152 17.4028C998.152 17.4028 1001.95 20.8578 1007.04 20.1591C1007.04 20.1591 1007.36 23.5364 1008.85 24.3128" stroke="#07294A" stroke-width="0.459712"/>
<path d="M1022.3 53.146V80.1259L984.079 89.5199V59.4716C984.079 48.817 991.352 39.539 1001.7 36.9959H1001.7C1006.66 35.7764 1011.91 36.9054 1015.93 40.0579C1019.95 43.2104 1022.3 48.0364 1022.3 53.146L1022.3 53.146Z" fill="#79C9E7"/>
<path d="M991.467 42.5176C991.467 42.5176 975.283 56.9606 975.516 76.526C975.711 92.9125 1014.25 79.4 1026.76 74.5766C1029.22 73.6293 1031.16 71.6891 1032.11 69.234L1033.5 65.6399L1037.47 64.0259V61.852L998.888 66.821L1003.64 55.6408" stroke="#07294A" stroke-width="0.459712"/>
<path d="M985.434 84.3404C988.432 85.775 992.499 86.6583 996.981 86.6583C1005.61 86.6583 1012.72 83.3881 1013.58 79.1953C1004.34 82.1023 993.254 84.8408 985.434 84.3404Z" fill="#07294A"/>
<path d="M1036.63 60.7891C1039.76 54.263 1044.92 44.1274 1047.41 42.5176C1049.62 41.0852 1052.25 40.4554 1054.86 40.7339V42.5176L1052.07 44.15C1052.07 44.15 1053.93 49.2743 1050.21 51.4482C1050.21 51.4482 1049.36 99.176 1022.3 80.1258" stroke="#07294A" stroke-width="0.459712"/>
<path d="M1020.04 44.7656L1031.54 62.5233" stroke="#07294A" stroke-width="0.459712"/>
<path d="M1075.01 138.213C1084.71 138.213 1092.57 130.35 1092.57 120.649C1092.57 110.949 1084.71 103.085 1075.01 103.085C1065.31 103.085 1057.44 110.949 1057.44 120.649C1057.44 130.35 1065.31 138.213 1075.01 138.213Z" fill="#79C9E7"/>
<path d="M1092.57 120.649C1092.57 130.35 1084.71 138.214 1075.01 138.214" stroke="#07294A" stroke-width="0.459712"/>
<path d="M1061.61 120.65C1061.61 117.097 1063.02 113.691 1065.54 111.179C1068.05 108.667 1071.45 107.256 1075.01 107.256" stroke="white" stroke-width="0.459712"/>
<path d="M1075.01 138.213V199.808" stroke="#07294A" stroke-width="0.459712"/>
<path d="M1055.32 199.809H1094.69" stroke="#07294A" stroke-width="0.459712"/>
<path d="M199.247 67.792H119.802V94.5638H199.247L206.975 81.1779L199.247 67.792V67.792Z" fill="#79C9E7"/>
<path d="M119.802 94.5641H199.247L206.975 81.1782" fill="#79C9E7"/>
<path d="M111.953 139.476H191.398V112.705H111.953L104.224 126.09L111.953 139.476V139.476Z" fill="#07294A"/>
<path d="M191.398 112.705H111.953L104.224 126.09" fill="#07294A"/>
<path d="M155.6 55.8894C158.028 55.8894 159.996 53.9213 159.996 51.4935C159.996 49.0658 158.028 47.0977 155.6 47.0977C153.172 47.0977 151.204 49.0658 151.204 51.4935C151.204 53.9213 153.172 55.8894 155.6 55.8894Z" fill="#F0F8FF"/>
<path d="M82.146 199.891H229.053" stroke="#07294A" stroke-width="0.292077" stroke-linecap="round" stroke-linejoin="round"/>
<path d="M155.6 55.8896V199.892" stroke="#07294A" stroke-width="0.292077" stroke-linecap="round" stroke-linejoin="round"/>
<path fill-rule="evenodd" clip-rule="evenodd" d="M155.6 55.8894C158.028 55.8894 159.996 53.9213 159.996 51.4935C159.996 49.0658 158.028 47.0977 155.6 47.0977C153.172 47.0977 151.204 49.0658 151.204 51.4935C151.204 53.9213 153.172 55.8894 155.6 55.8894Z" stroke="#07294A" stroke-width="0.292077" stroke-linecap="round" stroke-linejoin="round"/>
<path d="M529.827 86.4532C404.392 91.7803 275.978 164.191 229.207 200H284.017C284.017 200 414.107 134.124 511.951 134.124C641.517 134.124 698.379 200 698.379 200H911.041C837.306 155.576 674.725 80.2996 529.827 86.4532Z" fill="white"/>
<path d="M253.579 201.374C253.579 201.374 369.783 127.109 516.809 109.812C663.835 92.5146 806.536 207.108 806.536 207.108" stroke="#E7E7E7" stroke-width="4" stroke-dasharray="12 16"/>
</g>
<defs>
<linearGradient id="paint0_linear_985_58900" x1="34.8137" y1="100" x2="1165.18" y2="100" gradientUnits="userSpaceOnUse">
<stop stop-color="#FFF2C5"/>
<stop offset="0.2" stop-color="#FFF4BF"/>
<stop offset="0.4" stop-color="#FFF7BA"/>
<stop offset="0.6" stop-color="#FFF9B4"/>
<stop offset="0.8" stop-color="#FFFCAF"/>
<stop offset="1" stop-color="#FDFFAA"/>
</linearGradient>
<clipPath id="clip0_985_58900">
<rect width="1200" height="200" fill="white"/>
</clipPath>
</defs>
</svg>
