<svg width="1200" height="200" viewBox="0 0 1200 200" fill="none" xmlns="http://www.w3.org/2000/svg">
<g clip-path="url(#clip0_981_57123)">
<g opacity="0.5">
<path fill-rule="evenodd" clip-rule="evenodd" d="M930.926 30.3741C930.926 15.608 942.897 3.6377 957.663 3.6377H1015.59C1030.36 3.6377 1042.33 15.608 1042.33 30.3741V56.0696C1042.33 57.8653 1043.91 59.2416 1045.7 59.2416V59.2416H1103.63C1118.4 59.2416 1130.37 71.2119 1130.37 85.978V143.907V143.907C1130.37 145.244 1131.62 146.304 1132.94 146.109C1134.02 145.95 1135.13 145.867 1136.25 145.867C1148.66 145.867 1158.72 155.928 1158.72 168.338C1158.72 180.748 1148.66 190.808 1136.25 190.808C1127.56 190.808 1120.02 185.876 1116.29 178.659C1113.99 174.222 1108.63 170.643 1103.63 170.643V170.643H1045.7C1030.94 170.643 1018.97 158.673 1018.97 143.907V118.211C1018.97 116.415 1017.39 115.039 1015.59 115.039V115.039H957.663V115.039C950.496 115.039 933.365 122.785 933.365 129.952V146.283C933.365 161.049 921.395 173.02 906.629 173.02H848.7C833.934 173.02 821.964 161.049 821.964 146.283V116.599C821.964 110.646 815.275 106.604 809.322 106.604V106.604H769.757C768.96 106.604 768.172 106.569 767.392 106.5C767.265 106.489 767.155 106.59 767.155 106.718V106.718V164.072C767.155 178.838 755.184 190.808 740.418 190.808H683.065C668.299 190.808 656.329 178.838 656.329 164.072V164.072C656.329 160.875 652.004 159.069 649.209 160.62C645.371 162.751 640.953 163.964 636.252 163.964H591.128C576.362 163.964 564.391 151.994 564.391 137.228V137.228C564.391 135.855 562.23 135.29 561.396 136.381C556.511 142.775 548.806 146.9 540.138 146.9H495.014C492.992 146.9 491.023 146.676 489.129 146.25C486.852 145.739 484.362 147.725 484.362 150.059V150.059V164.072C484.362 178.838 472.392 190.808 457.625 190.808H443.613C428.847 190.808 416.877 178.838 416.877 164.072V164.072C416.877 161.508 413.941 159.912 411.551 160.838C408.555 162 405.297 162.637 401.89 162.637H351.967C347.661 162.637 343.593 161.619 339.99 159.811C336.622 158.121 331.299 160.303 331.299 164.072V164.072C331.299 178.838 319.328 190.808 304.562 190.808H246.634C231.868 190.808 219.897 178.838 219.897 164.072V134.815C219.897 128.041 211.661 123.485 204.888 123.485V123.485H146.959V123.485C141.006 123.485 134.317 127.527 134.317 133.48V138.69C134.317 153.456 122.347 165.426 107.581 165.426H68.0162C53.2501 165.426 41.2798 153.456 41.2798 138.69V99.1248C41.2798 84.3587 53.2501 72.3884 68.0161 72.3884H107.581V72.3884C113.534 72.3884 120.223 68.3462 120.223 62.3931V38.82C120.223 24.0539 132.193 12.0836 146.959 12.0836H204.888C219.654 12.0836 231.624 24.0539 231.624 38.82V68.0766C231.624 74.8504 239.86 79.4065 246.634 79.4065V79.4065H304.562C311.737 79.4065 318.252 82.2329 323.055 86.833C323.832 87.578 325.231 87.0549 325.231 85.978V85.978C325.231 71.2119 337.201 59.2416 351.967 59.2416H401.89C416.656 59.2416 428.626 71.2119 428.626 85.978V112.005C428.626 118.772 436.847 123.323 443.613 123.323V123.323H457.625C459.647 123.323 461.617 123.547 463.51 123.973C465.787 124.484 468.278 122.498 468.278 120.164V120.164V79.8362C468.278 65.0701 480.248 53.0998 495.014 53.0998H501.855C511.699 53.0998 519.68 45.1197 519.68 35.2756V32.9361C519.68 18.17 531.65 6.19971 546.416 6.19971H591.54C606.306 6.19971 618.276 18.17 618.276 32.9361V52.34C618.276 62.184 626.408 70.1642 636.252 70.1642V70.1642C640.075 70.1642 643.71 70.9665 646.999 72.4118C656.08 76.4029 673.145 79.982 683.065 79.982V79.982H740.418C741.262 79.982 742.096 80.021 742.919 80.0974C742.974 80.1025 743.021 80.0593 743.021 80.0043V80.0043C743.021 79.9586 743.021 79.9129 743.021 79.8672V40.3023C743.021 25.5362 754.991 13.5659 769.757 13.5659H809.322C824.088 13.5659 836.058 25.5362 836.058 40.3023V51.6229C836.058 57.5759 842.747 61.6181 848.7 61.6181V61.6181H906.629V61.6181C913.795 61.6181 930.926 53.872 930.926 46.7055V30.3741Z" fill="url(#paint0_linear_981_57123)"/>
</g>
<path d="M350.842 193.453L378.018 230.251L386.554 232.077L358.754 252.62L304.229 201.021" fill="#F0F8FF"/>
<path d="M260.291 20.3755V26.7332C260.291 31.6492 263.647 35.9301 268.421 37.1034L278.538 39.5901V14.7327L270.126 12.6651C267.757 12.0829 265.252 12.6219 263.332 14.1269C261.413 15.632 260.291 17.936 260.291 20.3755V20.3755Z" fill="#F0F8FF"/>
<path d="M260.291 26.7329C260.291 31.6489 263.647 35.9298 268.421 37.1032L278.538 39.5898" stroke="#07294A" stroke-width="0.432886" stroke-linecap="round" stroke-linejoin="round"/>
<path d="M270.599 25.4714C270.329 25.4714 270.111 25.253 270.111 24.9835C270.111 24.714 270.329 24.4956 270.599 24.4956C270.868 24.4956 271.087 24.714 271.087 24.9835C271.087 25.253 270.868 25.4714 270.599 25.4714Z" fill="#07294A"/>
<path d="M263.105 25.4714C262.836 25.4714 262.617 25.253 262.617 24.9835C262.617 24.714 262.836 24.4956 263.105 24.4956C263.375 24.4956 263.593 24.714 263.593 24.9835C263.593 25.253 263.375 25.4714 263.105 25.4714Z" fill="#07294A"/>
<path d="M265.304 27.8942V20.3755H261.537" stroke="#07294A" stroke-width="0.432886" stroke-linecap="round" stroke-linejoin="round"/>
<path d="M271.518 20.3751H267.751" stroke="#07294A" stroke-width="0.432886" stroke-linecap="round" stroke-linejoin="round"/>
<path d="M277.337 24.2278V26.8389C278.745 26.8389 279.887 25.6971 279.887 24.2887C279.887 24.2104 279.883 24.133 279.876 24.0565C279.734 22.4729 277.337 22.6378 277.337 24.2278Z" fill="#F0F8FF"/>
<path d="M277.337 26.8388C278.745 26.8388 279.887 25.697 279.887 24.2886" stroke="#07294A" stroke-width="0.432886" stroke-linecap="round" stroke-linejoin="round"/>
<path d="M267.363 28.7725C267.68 29.0892 268.109 29.2671 268.557 29.2671C269.005 29.2671 269.435 29.0892 269.751 28.7725" stroke="#79C9E7" stroke-width="0.432886" stroke-linecap="round" stroke-linejoin="round"/>
<path d="M265.304 27.8999L266.951 28.3048" stroke="#07294A" stroke-width="0.432886" stroke-linecap="round" stroke-linejoin="round"/>
<path d="M277.337 22.9487C277.337 22.9487 265.854 23.9576 262.617 16.791C262.617 16.791 262.119 20.747 260.291 21.3776" stroke="#07294A" stroke-width="0.432886" stroke-linecap="round" stroke-linejoin="round"/>
<path d="M260.291 24.9834C260.291 24.9834 255.081 18.3961 259.782 11.7455C264.484 5.09493 274.459 8.19088 274.459 8.19088C274.459 8.19088 285.811 12.888 302.208 12.4314C308.803 12.2478 312.133 14.2274 313.758 16.66C316.683 20.9516 320.993 24.1082 325.968 25.6016C329.303 26.6406 331.716 28.8024 330.187 33.1612C326.517 43.6224 285.467 38.4625 277.899 34.2199" stroke="#07294A" stroke-width="0.432886" stroke-linecap="round" stroke-linejoin="round"/>
<path d="M243.484 65.967V105.813L299.931 119.687V75.3092C299.931 59.5736 289.189 45.8711 273.908 42.1154H273.908C266.58 40.3142 258.83 41.9817 252.892 46.6375C246.953 51.2934 243.484 58.4207 243.484 65.967V65.967Z" fill="#F0F8FF"/>
<path d="M243.484 105.813L299.931 119.687L355.298 193.453L253.16 226.045C253.16 226.045 239.684 137.617 243.484 105.813Z" fill="#79C9E7"/>
<path d="M355.298 193.453L253.16 226.045" stroke="#07294A" stroke-width="0.432886" stroke-linecap="round" stroke-linejoin="round"/>
<path d="M243.484 105.813L299.931 119.687" stroke="#07294A" stroke-width="0.432886" stroke-linecap="round" stroke-linejoin="round"/>
<path d="M286.516 48.1579L311.58 70.503C311.58 70.503 352.317 40.0681 371.122 42.82V46.0112L364.93 50.3879C364.93 50.3879 366.077 59.3318 356.904 60.7078C356.904 60.7078 332.496 110.702 299.931 95.1073" stroke="#07294A" stroke-width="0.432886" stroke-linecap="round" stroke-linejoin="round"/>
<path d="M253.789 45.9688C253.789 45.9688 216.783 76.9902 235.588 104.739C254.393 132.488 295.902 93.2726 295.902 93.2726C295.902 93.2726 303.699 90.5207 302.552 84.3288L307.598 79.0542L304.846 75.1556L256.228 87.9981L265.304 76.9902" stroke="#07294A" stroke-width="0.432886" stroke-linecap="round" stroke-linejoin="round"/>
<path d="M292.575 96.187C293.154 103.903 286.383 112.85 275.668 117.624C263.624 122.989 250.991 121.126 246.714 113.566C262.981 118.985 284.433 102.998 292.575 96.187Z" fill="#07294A"/>
<path d="M688.986 283.519L695.372 109.962L738.518 115.541L720.93 292.851H683.602L688.986 283.519Z" fill="#DFEFFF"/>
<path d="M704.112 109.08L753.78 106.201V160.047V292.85H714.745L718.873 285.454L704.112 109.08Z" fill="#F0F8FF"/>
<path d="M714.745 292.85L718.873 285.454L704.112 109.08" stroke="#07294A" stroke-width="0.450544" stroke-linecap="round" stroke-linejoin="round"/>
<path d="M695.372 68.3857V109.961L754.269 124.437V78.1334C754.269 61.7149 743.06 47.4175 727.116 43.4987H727.116C719.47 41.6194 711.384 43.3593 705.188 48.2172C698.991 53.0752 695.372 60.5119 695.372 68.3857V68.3857Z" fill="#79C9E7"/>
<path d="M747.197 114.823C747.528 115.126 750.603 123.384 754.048 132.83L753.78 155.561C750.917 133.846 731.439 91.6646 731.439 91.6646V91.6646C737.129 100.157 746.65 114.322 747.197 114.823Z" fill="#07294A"/>
<path d="M738.956 20.8149V27.4486C738.956 32.578 735.454 37.0447 730.473 38.269L719.917 40.8636V14.9272L728.694 12.7698C731.166 12.1623 733.78 12.7247 735.783 14.2951C737.786 15.8655 738.956 18.2695 738.956 20.8148V20.8149Z" fill="#F0F8FF"/>
<path d="M738.956 27.4487C738.956 32.5782 735.454 37.0449 730.473 38.2692L719.917 40.8638" stroke="#07294A" stroke-width="0.450544" stroke-linecap="round" stroke-linejoin="round"/>
<path d="M728.201 26.1324C727.92 26.1324 727.692 25.9045 727.692 25.6233C727.692 25.3422 727.92 25.1143 728.201 25.1143C728.482 25.1143 728.71 25.3422 728.71 25.6233C728.71 25.9045 728.482 26.1324 728.201 26.1324Z" fill="#07294A"/>
<path d="M736.02 26.1324C735.739 26.1324 735.511 25.9045 735.511 25.6233C735.511 25.3422 735.739 25.1143 736.02 25.1143C736.301 25.1143 736.529 25.3422 736.529 25.6233C736.529 25.9045 736.301 26.1324 736.02 26.1324Z" fill="#07294A"/>
<path d="M733.726 28.66V20.8149H737.656" stroke="#07294A" stroke-width="0.450544" stroke-linecap="round" stroke-linejoin="round"/>
<path d="M727.242 20.8152H731.172" stroke="#07294A" stroke-width="0.450544" stroke-linecap="round" stroke-linejoin="round"/>
<path d="M721.171 24.8346V27.559C719.701 27.559 718.51 26.3677 718.51 24.8981C718.51 24.8164 718.513 24.7357 718.52 24.6559C718.67 23.0035 721.171 23.1756 721.171 24.8346Z" fill="#F0F8FF"/>
<path d="M721.171 27.5589C719.701 27.5589 718.51 26.3675 718.51 24.8979" stroke="#07294A" stroke-width="0.450544" stroke-linecap="round" stroke-linejoin="round"/>
<path d="M731.577 29.5771C731.247 29.9076 730.798 30.0932 730.331 30.0932C729.864 30.0932 729.416 29.9076 729.085 29.5771" stroke="#79C9E7" stroke-width="0.450544" stroke-linecap="round" stroke-linejoin="round"/>
<path d="M733.726 28.6665L732.007 29.089" stroke="#07294A" stroke-width="0.450544" stroke-linecap="round" stroke-linejoin="round"/>
<path d="M721.171 25.1144C721.171 25.1144 732.659 23.3564 734.633 15.1011C734.633 15.1011 734.186 20.4252 738.956 21.2028" stroke="#07294A" stroke-width="0.450544" stroke-linecap="round" stroke-linejoin="round"/>
<path d="M719.84 33.3467C719.84 33.3467 711.303 22.519 716.029 14.8021C720.755 7.08513 734.155 4.45299 739.957 13.486C745.76 22.519 750.426 25.2708 753.238 27.1253C755.488 28.6093 762.105 33.0049 763.616 38.6871C764.363 41.428 765.85 43.9105 767.913 45.8631C769.625 47.5056 770.942 49.9052 769.748 53.0877C767.236 59.7877 736.065 53.9434 732.866 37.3793" stroke="#07294A" stroke-width="0.450544" stroke-linecap="round" stroke-linejoin="round"/>
<path d="M747.197 56.8184C747.197 56.8184 774.41 92.2107 780.153 135.282C785.896 178.353 773.752 177.456 771.24 177.815C768.727 178.174 765.138 168.483 765.138 168.483C765.138 168.483 760.532 168.603 761.728 166.688C762.925 164.774 764.181 160.945 764.181 160.945C764.181 160.945 747.981 115.541 747.197 114.823C746.414 114.105 727.242 85.3911 727.242 85.3911" stroke="#07294A" stroke-width="0.450544" stroke-linecap="round" stroke-linejoin="round"/>
<path d="M805.278 187.327L796.664 223.219H740.312L731.339 187.327H805.278Z" fill="#79C9E7"/>
<path d="M787.093 187.327C787.093 187.327 789.488 168.781 780.992 165.132" stroke="#07294A" stroke-width="0.450544" stroke-linecap="round" stroke-linejoin="round"/>
<path d="M762.231 168.075C762.231 168.075 756.943 172.491 757.661 187.327" stroke="#07294A" stroke-width="0.450544" stroke-linecap="round" stroke-linejoin="round"/>
<path d="M789.007 197.616L785.896 211.016" stroke="#FDFEFF" stroke-width="0.450544"/>
<path d="M778.774 197.616L775.664 211.016" stroke="#FDFEFF" stroke-width="0.450544"/>
<path d="M768.542 197.616L765.431 211.016" stroke="#FDFEFF" stroke-width="0.450544"/>
<path d="M701.48 51.7743C701.48 51.7743 688.77 63.0991 680.874 77.0973C680.874 77.0973 680.73 52.7289 681.448 49.319C681.448 49.319 685.037 46.0887 685.217 43.7557C685.396 41.4226 682.884 42.7461 682.884 42.7461C682.884 42.7461 686.653 36.936 684.678 35.6798C682.704 34.4235 674.449 39.3726 666.732 56.8186C659.015 74.2645 654.558 125.053 695.372 106.927" stroke="#07294A" stroke-width="0.450544" stroke-linecap="round" stroke-linejoin="round"/>
<path d="M802.174 277.912C808.11 215.844 844.973 124.009 844.973 124.009L877.196 104.121L873.634 153.776L868.832 201.172L828.08 292.847L790.839 281.15L802.174 277.912Z" fill="#DFEFFF"/>
<path d="M854.575 111.856C854.575 111.856 847.311 230.416 867.827 286.55L863.541 292.847H900.032C900.032 292.847 904.019 142.045 904.019 109.496L854.575 111.856Z" fill="#F0F8FF"/>
<path d="M867.529 20.1251V35.5328L886.616 40.2243V14.2224L867.529 9.53125V20.1251Z" fill="#F0F8FF"/>
<path d="M878.311 25.4558C878.029 25.4558 877.801 25.2273 877.801 24.9454C877.801 24.6636 878.029 24.4351 878.311 24.4351C878.593 24.4351 878.822 24.6636 878.822 24.9454C878.822 25.2273 878.593 25.4558 878.311 25.4558Z" fill="#07294A"/>
<path d="M870.473 25.4558C870.191 25.4558 869.962 25.2273 869.962 24.9454C869.962 24.6636 870.191 24.4351 870.473 24.4351C870.754 24.4351 870.983 24.6636 870.983 24.9454C870.983 25.2273 870.754 25.4558 870.473 25.4558Z" fill="#07294A"/>
<path d="M872.772 27.9899V20.125H868.832" stroke="#07294A" stroke-width="0.450544" stroke-linecap="round" stroke-linejoin="round"/>
<path d="M879.273 20.1252H875.333" stroke="#07294A" stroke-width="0.450544" stroke-linecap="round" stroke-linejoin="round"/>
<path d="M885.359 24.1549V26.8861C886.833 26.8861 888.027 25.6918 888.027 24.2185C888.027 24.1366 888.023 24.0557 888.016 23.9757C887.866 22.3192 885.359 22.4916 885.359 24.1549Z" fill="#F0F8FF"/>
<path d="M885.359 26.8864C886.833 26.8864 888.027 25.692 888.027 24.2188" stroke="#07294A" stroke-width="0.450544" stroke-linecap="round" stroke-linejoin="round"/>
<path d="M874.496 29.929C875.212 29.929 875.898 29.6445 876.405 29.1382C876.911 28.6318 877.196 27.9451 877.196 27.229" stroke="#79C9E7" stroke-width="0.450544" stroke-linecap="round" stroke-linejoin="round"/>
<path d="M867.529 35.5332L886.616 40.2246" stroke="#07294A" stroke-width="0.450544" stroke-linecap="round" stroke-linejoin="round"/>
<path d="M872.772 27.9966L874.496 28.4201" stroke="#07294A" stroke-width="0.450544" stroke-linecap="round" stroke-linejoin="round"/>
<path d="M866.881 13.437C866.881 13.437 871.634 16.9754 881.11 15.8959C881.11 15.8959 881.11 22.1437 884.468 24.0574" stroke="#07294A" stroke-width="0.450544" stroke-linecap="round" stroke-linejoin="round"/>
<path d="M866.881 21.4733C866.881 21.4733 859.14 11.3979 870.335 8.57925C881.53 5.76056 886.687 11.278 886.687 11.278C886.687 11.278 897.277 13.0172 886.045 32.3882" stroke="#07294A" stroke-width="0.450544" stroke-linecap="round" stroke-linejoin="round"/>
<path d="M904.019 67.8156V109.496L844.973 124.009V77.5879C844.973 61.1279 856.21 46.7945 872.194 42.8658H872.194C879.86 40.9818 887.966 42.726 894.178 47.5962C900.39 52.4664 904.019 59.9219 904.019 67.8156V67.8156Z" fill="#79C9E7"/>
<path d="M854.575 111.856C854.575 111.856 847.311 230.417 867.827 286.551" stroke="#07294A" stroke-width="0.450544" stroke-linecap="round" stroke-linejoin="round"/>
<path d="M897.82 51.0742C897.82 51.0742 929.989 93.754 916.768 118.928C903.547 144.102 839.764 106.214 839.044 99.4972C838.325 92.7803 853.326 96.3786 853.326 96.3786C853.326 96.3786 851.518 84.1443 859.195 96.1387L888.027 99.2573L878.672 76.7077" stroke="#07294A" stroke-width="0.450544" stroke-linecap="round" stroke-linejoin="round"/>
<path d="M884.889 91.6934L888.027 99.2574L866.414 96.9196C871.437 94.2864 877.805 92.4295 884.889 91.6934Z" fill="#07294A"/>
<path d="M903.84 127.196C903.791 130.416 903.733 133.89 903.667 137.576C888.435 137.451 868.629 129.214 859.689 120.392L859.685 120.393C859.571 120.281 859.462 120.168 859.352 120.055C859.322 120.025 859.292 119.995 859.263 119.965C859.113 119.811 858.967 119.656 858.823 119.501C858.798 119.473 858.771 119.445 858.745 119.417C858.601 119.26 858.461 119.102 858.324 118.944C858.302 118.919 858.279 118.893 858.257 118.868C858.119 118.708 857.985 118.547 857.855 118.387C857.836 118.364 857.817 118.342 857.799 118.319C857.667 118.155 857.539 117.991 857.415 117.827C857.401 117.808 857.386 117.79 857.373 117.771C857.247 117.603 857.125 117.436 857.009 117.268C856.999 117.253 856.988 117.238 856.978 117.223C856.859 117.052 856.746 116.881 856.637 116.711C856.63 116.699 856.622 116.688 856.615 116.676C856.504 116.502 856.399 116.327 856.299 116.153L856.286 116.131C856.184 115.954 856.088 115.777 855.997 115.6L855.99 115.586C855.898 115.406 855.812 115.227 855.732 115.049L855.729 115.044C855.31 114.143 855.049 113.176 854.959 112.186C869.164 120.463 889.824 129.088 903.84 127.196Z" fill="#07294A"/>
<path d="M862.146 96.4579L861.67 95.0023C860.517 91.4767 857.503 88.8823 853.845 88.2673L834.035 84.9366C830.834 84.3984 827.67 86.0759 826.32 89.0275V89.0275C826.255 89.1697 826.104 89.2518 825.949 89.2287L784.589 83.06L784.067 81.2873C783.85 80.5497 783.128 80.0799 782.366 80.1799L773.993 81.2779C773.262 81.3738 772.715 81.9971 772.715 82.7347V83.7435C772.715 84.3472 773.084 84.8894 773.646 85.1106L780.702 87.8889C781.658 88.2655 782.748 87.975 783.39 87.1724L784.23 86.1234L825.621 93.2907C825.728 93.3092 825.82 93.376 825.871 93.4718L826.027 93.7649C828.719 98.8261 833.574 102.381 839.212 103.42L843.018 104.121" stroke="#07294A" stroke-width="0.450544" stroke-linecap="round" stroke-linejoin="round"/>
<path d="M864.274 45.8408C864.274 45.8408 847.38 53.019 822.552 88.2424" stroke="#07294A" stroke-width="0.450544" stroke-linecap="round" stroke-linejoin="round"/>
<path d="M844.973 113.171C844.973 113.171 816.255 123.246 808.339 115.81C800.422 108.373 798.023 88.2422 798.023 88.2422" stroke="#07294A" stroke-width="0.450544" stroke-linecap="round" stroke-linejoin="round"/>
<path d="M798.023 85.0637C798.023 85.0637 796.284 67.7719 796.464 62.7342C796.464 62.7342 793.491 64.3535 790.839 63.4539C790.839 63.4539 789.087 66.3326 787.828 66.1527C786.569 65.9727 787.108 60.0355 791.966 53.9183C796.824 47.8012 818.463 47.8407 824.826 85.0637" stroke="#07294A" stroke-width="0.450544" stroke-linecap="round" stroke-linejoin="round"/>
<path d="M1003.14 107.475L961.25 112.715C961.25 112.715 910.233 196.991 908.177 260.737L901.972 264.578L934.605 277.509L964.073 207.412C964.073 207.412 1000.99 182.709 1003.14 153.125C1005.3 123.542 1003.14 107.475 1003.14 107.475Z" fill="#79C9E7"/>
<path d="M1000.09 165.967C996.204 154.093 989.853 146.357 982.676 146.357C970.843 146.357 961.25 167.386 961.25 193.327C961.236 199.11 961.735 204.883 962.742 210.578L964.073 207.413C964.073 207.413 990.793 189.526 1000.09 165.967Z" fill="#07294A"/>
<path d="M970.674 115.032C970.674 115.032 963.545 231.391 983.68 286.483L979.474 292.662H1015.29C1015.29 292.662 1019.2 144.66 1019.2 112.715L970.674 115.032Z" fill="#79C9E7"/>
<path d="M981.111 177.109C977.996 170.203 981.068 162.08 987.973 158.965L1050.31 130.841C1057.22 127.726 1065.34 130.798 1068.46 137.704L1070.44 142.099C1073.55 149.004 1070.48 157.127 1063.58 160.242L1001.24 188.366C994.332 191.481 986.209 188.409 983.094 181.504L981.111 177.109Z" fill="#F0F8FF"/>
<path d="M1069.45 139.901C1073.11 148.02 1069.5 157.571 1061.38 161.233L1003.43 187.374" stroke="#07294A" stroke-width="0.450544" stroke-linecap="round" stroke-linejoin="round"/>
<path d="M997.884 25.003V40.1247L979.151 44.7291V19.2099L997.884 14.6055V25.003Z" fill="#F0F8FF"/>
<path d="M987.302 30.2352C987.579 30.2352 987.803 30.0109 987.803 29.7343C987.803 29.4577 987.579 29.2334 987.302 29.2334C987.025 29.2334 986.801 29.4577 986.801 29.7343C986.801 30.0109 987.025 30.2352 987.302 30.2352Z" fill="#07294A"/>
<path d="M994.995 30.2352C995.272 30.2352 995.496 30.0109 995.496 29.7343C995.496 29.4577 995.272 29.2334 994.995 29.2334C994.718 29.2334 994.494 29.4577 994.494 29.7343C994.494 30.0109 994.718 30.2352 994.995 30.2352Z" fill="#07294A"/>
<path d="M992.738 32.7218V25.0029H996.605" stroke="#07294A" stroke-width="0.450544" stroke-linecap="round" stroke-linejoin="round"/>
<path d="M986.358 25.0032H990.225" stroke="#07294A" stroke-width="0.450544" stroke-linecap="round" stroke-linejoin="round"/>
<path d="M980.385 28.9582V31.6387C978.939 31.6387 977.767 30.4666 977.767 29.0206C977.767 28.9403 977.77 28.8608 977.777 28.7823C977.924 27.1565 980.385 27.3258 980.385 28.9582Z" fill="#F0F8FF"/>
<path d="M980.385 31.6386C978.939 31.6386 977.767 30.4665 977.767 29.0205" stroke="#07294A" stroke-width="0.450544" stroke-linecap="round" stroke-linejoin="round"/>
<path d="M991.047 34.625C990.344 34.625 989.67 34.3458 989.173 33.8488C988.676 33.3519 988.397 32.6779 988.397 31.9751" stroke="#79C9E7" stroke-width="0.450544" stroke-linecap="round" stroke-linejoin="round"/>
<path d="M997.884 40.125L979.151 44.7293" stroke="#07294A" stroke-width="0.450544" stroke-linecap="round" stroke-linejoin="round"/>
<path d="M992.738 32.728L991.047 33.1437" stroke="#07294A" stroke-width="0.450544" stroke-linecap="round" stroke-linejoin="round"/>
<path d="M961.25 71.8083V112.715L1019.2 126.958V81.3992C1019.2 65.2448 1008.17 51.1775 992.484 47.3218H992.484C984.961 45.4727 977.005 47.1846 970.908 51.9643C964.812 56.7441 961.25 64.0612 961.25 71.8083V71.8083Z" fill="#F0F8FF"/>
<path d="M970.674 115.031C970.674 115.031 963.545 231.39 983.68 286.482" stroke="#07294A" stroke-width="0.450544" stroke-linecap="round" stroke-linejoin="round"/>
<path d="M980.022 28.0383C980.022 28.0383 981.894 26.7258 982.659 23.7393C982.659 23.7393 986.293 23.578 986.801 21.3414C986.801 21.3414 989.257 22.2243 990.225 20.7528C990.225 20.7528 992.724 22.5774 993.96 20.7528C993.96 20.7528 995.923 22.4597 996.903 20.7528C996.903 20.7528 998.963 21.518 999.081 19.0459" stroke="#07294A" stroke-width="0.450544" stroke-linecap="round" stroke-linejoin="round"/>
<path d="M977.924 27.7558C977.924 27.7558 978.562 12.9242 999.221 16.8089L998.761 14.4978C998.608 13.7358 997.994 13.1512 997.226 13.0359C993.037 12.3988 979.883 11.3234 976.384 22.165C976.473 23.4536 976.748 24.7224 977.201 25.932" stroke="#79C9E7" stroke-width="0.450544" stroke-linecap="round" stroke-linejoin="round"/>
<path d="M977.279 20.014C977.279 20.014 977.121 19.5329 976.917 18.9081C976.481 17.6644 975.596 16.629 974.435 16.0061C973.811 15.6521 973.33 14.8899 973.713 13.2775C974.537 9.80487 990.303 3.02516 996.605 12.9483" stroke="#79C9E7" stroke-width="0.450544" stroke-linecap="round" stroke-linejoin="round"/>
<path d="M1007.07 54.8584C1007.07 54.8584 1038.52 83.4959 1040.64 131.525C1042.75 179.554 1022.27 188.382 1021.21 185.557C1020.15 182.732 1019.2 172.844 1019.2 172.844C1019.2 172.844 1014.15 176.375 1014.5 173.55C1014.86 170.725 1018.4 163.684 1018.4 163.684L1014.96 129.94C1013.97 120.21 1010.18 110.975 1004.05 103.354L994.325 91.2653" stroke="#07294A" stroke-width="0.450544" stroke-linecap="round" stroke-linejoin="round"/>
<path d="M966.706 56.1372C966.706 56.1372 956.198 66.3095 953.037 88.6759C949.875 111.042 948.934 135.017 948.934 135.017" stroke="#07294A" stroke-width="0.450544" stroke-linecap="round" stroke-linejoin="round"/>
<path d="M196.046 96.1973V149.839H67.2014" stroke="#07294A" stroke-width="0.522342" stroke-linecap="round" stroke-linejoin="round"/>
<path d="M222.52 199.649V102.465" stroke="#07294A" stroke-width="0.522342" stroke-linecap="round" stroke-linejoin="round"/>
<path d="M0.26123 199.65H262.986" stroke="#07294A" stroke-width="0.522342" stroke-linecap="round" stroke-linejoin="round"/>
<path d="M65.739 32.4744H171.159" stroke="#07294A" stroke-width="0.522342" stroke-linecap="round" stroke-linejoin="round"/>
<path d="M131.624 32.4746V149.839" stroke="#07294A" stroke-width="0.522342" stroke-linecap="round" stroke-linejoin="round"/>
<path d="M131.624 91.157H197.509" stroke="#07294A" stroke-width="0.522342" stroke-linecap="round" stroke-linejoin="round"/>
<rect x="74.6384" y="116.412" width="4.92251" height="33.4018" fill="#F0F8FF"/>
<path d="M79.561 149.814H74.6384V116.412" stroke="#07294A" stroke-width="0.522342" stroke-linecap="round" stroke-linejoin="round"/>
<path d="M75.9275 122.66H79.5609" stroke="#07294A" stroke-width="0.522342" stroke-linecap="round" stroke-linejoin="round"/>
<path d="M75.9275 124.006H79.5609" stroke="#07294A" stroke-width="0.522342" stroke-linecap="round" stroke-linejoin="round"/>
<path d="M75.9275 125.351H79.5609" stroke="#07294A" stroke-width="0.522342" stroke-linecap="round" stroke-linejoin="round"/>
<rect x="80.6965" y="116.412" width="4.92251" height="33.4018" fill="#D1D1D1"/>
<path d="M85.6188 149.814H80.6963V116.412" stroke="#07294A" stroke-width="0.522342" stroke-linecap="round" stroke-linejoin="round"/>
<path d="M81.9856 122.66H85.619" stroke="#07294A" stroke-width="0.522342" stroke-linecap="round" stroke-linejoin="round"/>
<path d="M81.9856 124.006H85.619" stroke="#07294A" stroke-width="0.522342" stroke-linecap="round" stroke-linejoin="round"/>
<path d="M81.9856 125.351H85.619" stroke="#07294A" stroke-width="0.522342" stroke-linecap="round" stroke-linejoin="round"/>
<rect x="86.7544" y="116.412" width="4.92251" height="33.4018" fill="#F0F8FF"/>
<path d="M91.6769 149.814H86.7544V116.412" stroke="#07294A" stroke-width="0.522342" stroke-linecap="round" stroke-linejoin="round"/>
<path d="M88.0437 122.66H91.6771" stroke="#07294A" stroke-width="0.522342" stroke-linecap="round" stroke-linejoin="round"/>
<path d="M88.0437 124.006H91.6771" stroke="#07294A" stroke-width="0.522342" stroke-linecap="round" stroke-linejoin="round"/>
<path d="M88.0437 125.351H91.6771" stroke="#07294A" stroke-width="0.522342" stroke-linecap="round" stroke-linejoin="round"/>
<rect x="92.8125" y="116.412" width="4.92251" height="33.4018" fill="#D1D1D1"/>
<path d="M97.7351 149.814H92.8125V116.412" stroke="#07294A" stroke-width="0.522342" stroke-linecap="round" stroke-linejoin="round"/>
<path d="M94.1016 122.66H97.735" stroke="#07294A" stroke-width="0.522342" stroke-linecap="round" stroke-linejoin="round"/>
<path d="M94.1016 124.006H97.735" stroke="#07294A" stroke-width="0.522342" stroke-linecap="round" stroke-linejoin="round"/>
<path d="M94.1016 125.351H97.735" stroke="#07294A" stroke-width="0.522342" stroke-linecap="round" stroke-linejoin="round"/>
<rect x="98.8706" y="116.412" width="4.92251" height="33.4018" fill="#F0F8FF"/>
<path d="M103.793 149.814H98.8706V116.412" stroke="#07294A" stroke-width="0.522342" stroke-linecap="round" stroke-linejoin="round"/>
<path d="M100.16 122.66H103.793" stroke="#07294A" stroke-width="0.522342" stroke-linecap="round" stroke-linejoin="round"/>
<path d="M100.16 124.006H103.793" stroke="#07294A" stroke-width="0.522342" stroke-linecap="round" stroke-linejoin="round"/>
<path d="M100.16 125.351H103.793" stroke="#07294A" stroke-width="0.522342" stroke-linecap="round" stroke-linejoin="round"/>
<rect x="104.429" y="117.756" width="4.92251" height="33.4018" transform="rotate(-16.1509 104.429 117.756)" fill="#D1D1D1"/>
<path d="M118.449 148.47L113.721 149.84L104.429 117.756" stroke="#07294A" stroke-width="0.522342" stroke-linecap="round" stroke-linejoin="round"/>
<path d="M107.406 123.399L110.896 122.388" stroke="#07294A" stroke-width="0.522342" stroke-linecap="round" stroke-linejoin="round"/>
<path d="M107.78 124.691L111.27 123.681" stroke="#07294A" stroke-width="0.522342" stroke-linecap="round" stroke-linejoin="round"/>
<path d="M108.154 125.983L111.644 124.973" stroke="#07294A" stroke-width="0.522342" stroke-linecap="round" stroke-linejoin="round"/>
<rect x="420.484" y="96.7861" width="45.8619" height="8.62205" fill="#07294A"/>
<rect x="420.484" y="153.196" width="45.8619" height="8.62205" fill="#07294A"/>
<path d="M454.972 199.718H431.858V70.0044L454.972 56.0166V199.718V199.718Z" fill="#F0F8FF"/>
<path d="M443.415 102.381C444.125 102.381 444.699 101.806 444.699 101.097C444.699 100.388 444.125 99.813 443.415 99.813C442.706 99.813 442.131 100.388 442.131 101.097C442.131 101.806 442.706 102.381 443.415 102.381Z" fill="#79C9E7"/>
<path d="M443.415 158.791C444.125 158.791 444.699 158.216 444.699 157.507C444.699 156.798 444.125 156.223 443.415 156.223C442.706 156.223 442.131 156.798 442.131 157.507C442.131 158.216 442.706 158.791 443.415 158.791Z" fill="#79C9E7"/>
<path d="M454.972 56.0166V199.718" stroke="#07294A" stroke-width="0.412758" stroke-linecap="round" stroke-linejoin="round"/>
<rect x="459.282" y="96.7861" width="45.8619" height="8.62205" fill="#07294A"/>
<rect x="459.282" y="153.196" width="45.8619" height="8.62205" fill="#07294A"/>
<path d="M493.77 199.718H470.655V70.0044L493.77 56.0166V199.718V199.718Z" fill="#F0F8FF"/>
<path d="M482.213 102.381C482.922 102.381 483.497 101.806 483.497 101.097C483.497 100.388 482.922 99.813 482.213 99.813C481.503 99.813 480.928 100.388 480.928 101.097C480.928 101.806 481.503 102.381 482.213 102.381Z" fill="#79C9E7"/>
<path d="M482.213 158.791C482.922 158.791 483.497 158.216 483.497 157.507C483.497 156.798 482.922 156.223 482.213 156.223C481.503 156.223 480.928 156.798 480.928 157.507C480.928 158.216 481.503 158.791 482.213 158.791Z" fill="#79C9E7"/>
<path d="M493.77 56.0166V199.718" stroke="#07294A" stroke-width="0.412758" stroke-linecap="round" stroke-linejoin="round"/>
<rect x="498.079" y="96.7861" width="45.8619" height="8.62205" fill="#07294A"/>
<rect x="498.079" y="153.196" width="45.8619" height="8.62205" fill="#07294A"/>
<path d="M532.567 199.718H509.453V70.0044L532.567 56.0166V199.718V199.718Z" fill="#F0F8FF"/>
<path d="M521.01 102.381C521.719 102.381 522.294 101.806 522.294 101.097C522.294 100.388 521.719 99.813 521.01 99.813C520.301 99.813 519.726 100.388 519.726 101.097C519.726 101.806 520.301 102.381 521.01 102.381Z" fill="#79C9E7"/>
<path d="M521.01 158.791C521.719 158.791 522.294 158.216 522.294 157.507C522.294 156.798 521.719 156.223 521.01 156.223C520.301 156.223 519.726 156.798 519.726 157.507C519.726 158.216 520.301 158.791 521.01 158.791Z" fill="#79C9E7"/>
<path d="M532.567 56.0166V199.718" stroke="#07294A" stroke-width="0.412758" stroke-linecap="round" stroke-linejoin="round"/>
<rect x="536.876" y="96.7861" width="45.8619" height="8.62205" fill="#07294A"/>
<rect x="536.876" y="153.196" width="45.8619" height="8.62205" fill="#07294A"/>
<path d="M571.364 199.718H548.25V70.0044L571.364 56.0166V199.718V199.718Z" fill="#F0F8FF"/>
<path d="M559.807 102.381C560.516 102.381 561.091 101.806 561.091 101.097C561.091 100.388 560.516 99.813 559.807 99.813C559.098 99.813 558.523 100.388 558.523 101.097C558.523 101.806 559.098 102.381 559.807 102.381Z" fill="#79C9E7"/>
<path d="M559.807 158.791C560.516 158.791 561.091 158.216 561.091 157.507C561.091 156.798 560.516 156.223 559.807 156.223C559.098 156.223 558.523 156.798 558.523 157.507C558.523 158.216 559.098 158.791 559.807 158.791Z" fill="#79C9E7"/>
<path d="M571.364 56.0166V199.718" stroke="#07294A" stroke-width="0.412758" stroke-linecap="round" stroke-linejoin="round"/>
<rect x="575.673" y="96.7861" width="45.8619" height="8.62205" fill="#07294A"/>
<rect x="575.673" y="153.196" width="45.8619" height="8.62205" fill="#07294A"/>
<path d="M610.162 199.718H587.047V70.0044L610.162 56.0166V199.718V199.718Z" fill="#F0F8FF"/>
<path d="M598.604 102.381C599.314 102.381 599.888 101.806 599.888 101.097C599.888 100.388 599.314 99.813 598.604 99.813C597.895 99.813 597.32 100.388 597.32 101.097C597.32 101.806 597.895 102.381 598.604 102.381Z" fill="#79C9E7"/>
<path d="M598.604 158.791C599.314 158.791 599.888 158.216 599.888 157.507C599.888 156.798 599.314 156.223 598.604 156.223C597.895 156.223 597.32 156.798 597.32 157.507C597.32 158.216 597.895 158.791 598.604 158.791Z" fill="#79C9E7"/>
<path d="M610.162 56.0166V199.718" stroke="#07294A" stroke-width="0.412758" stroke-linecap="round" stroke-linejoin="round"/>
<path d="M417.207 199.718H624.813" stroke="#07294A" stroke-width="0.412758" stroke-linecap="round" stroke-linejoin="round"/>
</g>
<defs>
<linearGradient id="paint0_linear_981_57123" x1="41.2798" y1="97.2228" x2="1158.72" y2="97.2228" gradientUnits="userSpaceOnUse">
<stop stop-color="#79C9E7"/>
<stop offset="0.2" stop-color="#74DAE1"/>
<stop offset="0.4" stop-color="#82E8D3"/>
<stop offset="0.6" stop-color="#A3F3C1"/>
<stop offset="0.8" stop-color="#CDFBB1"/>
<stop offset="1" stop-color="#FDFFAA"/>
</linearGradient>
<clipPath id="clip0_981_57123">
<rect width="1200" height="200" fill="white"/>
</clipPath>
</defs>
</svg>
