<svg width="170" height="262" viewBox="0 0 170 262" fill="none" xmlns="http://www.w3.org/2000/svg">
<g clip-path="url(#clip0_838_12907)">
<path fill-rule="evenodd" clip-rule="evenodd" d="M-40.2375 303.348C-88.0561 218.803 -58.81 111.308 25.5588 62.5973C70.4599 36.6737 104.567 32.7772 139.301 35.7847C199.242 85.1846 216.501 172.066 176.376 241.563C132.539 317.491 36.4853 344.477 -40.2375 303.348Z" fill="url(#paint0_linear_838_12907)"/>
<path d="M94.8039 137.154L58.6793 139.471L100.342 213.44L69.0814 299.738L109.185 325.288L108.794 312.507C108.794 312.507 136.006 283.007 156.7 216.522C177.394 150.038 94.8039 137.154 94.8039 137.154Z" fill="#DFEFFF"/>
<path d="M125.293 204.635L100.636 200.232L94.4143 202.915L100.342 213.44L93.9016 231.221V231.221C93.9016 231.221 120.258 241.933 135.049 271.019C136.271 268.574 137.505 266.014 138.753 263.342C134.771 241.666 125.293 204.635 125.293 204.635Z" fill="#07294A"/>
<path d="M240.327 124.892H125.366L133.251 55.9264H248.212L240.327 124.892Z" fill="#F0F8FF"/>
<path fill-rule="evenodd" clip-rule="evenodd" d="M235.762 119.009H120.801L128.686 50.0436H243.647L235.762 119.009Z" stroke="#07294A" stroke-width="0.554071" stroke-linecap="round" stroke-linejoin="round"/>
<path d="M186.146 145.156L189.136 119.009H170.75L167.761 145.156H186.146Z" fill="#07294A"/>
<path d="M188.401 297.977C188.401 297.977 180.341 141.929 73.3414 142.428L22.5548 154.911C22.5548 154.911 9.92871 224.16 115.594 220.197L153.898 319.259L195.504 304.73L188.401 297.977Z" fill="#F0F8FF"/>
<path d="M188.401 297.977C188.401 297.977 180.341 141.929 73.3414 142.428" stroke="#07294A" stroke-width="0.554071" stroke-linecap="round" stroke-linejoin="round"/>
<path d="M22.5548 154.911C22.5548 154.911 9.92871 224.16 115.594 220.197L153.898 319.259" stroke="#07294A" stroke-width="0.554071" stroke-linecap="round" stroke-linejoin="round"/>
<path d="M70.3572 27.7981V46.6515L47.0017 52.3921V20.576L70.3572 14.8354V27.7981Z" fill="#F0F8FF"/>
<path d="M57.1639 34.3212C57.5088 34.3212 57.7884 34.0416 57.7884 33.6967C57.7884 33.3519 57.5088 33.0723 57.1639 33.0723C56.819 33.0723 56.5394 33.3519 56.5394 33.6967C56.5394 34.0416 56.819 34.3212 57.1639 34.3212Z" fill="#07294A"/>
<path d="M66.7553 34.3212C67.1002 34.3212 67.3798 34.0416 67.3798 33.6967C67.3798 33.3519 67.1002 33.0723 66.7553 33.0723C66.4104 33.0723 66.1309 33.3519 66.1309 33.6967C66.1309 34.0416 66.4104 34.3212 66.7553 34.3212Z" fill="#07294A"/>
<path d="M63.9413 37.4221V27.7981H68.7625" stroke="#07294A" stroke-width="0.554071" stroke-linecap="round" stroke-linejoin="round"/>
<path d="M55.9874 27.7983H60.8086" stroke="#07294A" stroke-width="0.554071" stroke-linecap="round" stroke-linejoin="round"/>
<path d="M48.5399 32.7293V36.0712C46.7372 36.0712 45.2758 34.6098 45.2758 32.8071C45.2758 32.7069 45.2802 32.6079 45.2891 32.51C45.472 30.4831 48.5399 30.6941 48.5399 32.7293Z" fill="#F0F8FF"/>
<path d="M48.5399 36.0712C46.7372 36.0712 45.2758 34.6098 45.2758 32.8071" stroke="#07294A" stroke-width="0.554071" stroke-linecap="round" stroke-linejoin="round"/>
<path d="M61.8328 39.7944C60.0082 39.7944 58.5291 38.3153 58.5291 36.4907" stroke="#79C9E7" stroke-width="0.554071" stroke-linecap="round" stroke-linejoin="round"/>
<path d="M70.3571 46.6516L47.0016 52.392" stroke="#07294A" stroke-width="0.554071" stroke-linecap="round" stroke-linejoin="round"/>
<path d="M63.9414 37.4297L61.8328 37.9479" stroke="#07294A" stroke-width="0.554071" stroke-linecap="round" stroke-linejoin="round"/>
<path d="M94.804 86.1531V137.154L22.5548 154.911V98.1106C22.5548 77.97 36.3046 60.4315 55.8631 55.6244H55.8632C65.2428 53.319 75.1615 55.4533 82.7627 61.4125C90.364 67.3718 94.804 76.4944 94.804 86.1531V86.1531Z" fill="#79C9E7"/>
<path d="M48.5399 31.0921C50.3314 28.8928 51.6076 26.3202 52.2748 23.5632C52.2748 23.5632 66.1308 28.1312 71.8129 20.4811C74.3883 17.0136 73.1901 13.63 71.9816 11.6312C71.7992 11.3142 71.464 11.116 71.0984 11.1087C70.7327 11.1018 70.3901 11.2868 70.1955 11.5965C69.633 12.5808 68.3089 13.3882 65.2084 12.2256C59.9834 10.2662 49.1093 10.9047 47.3765 17.5091C47.3765 17.5091 39.6713 19.6555 46.29 31.1863" stroke="#07294A" stroke-width="0.554071" stroke-linecap="round" stroke-linejoin="round"/>
<path d="M87.9916 145.156H245.307" stroke="#07294A" stroke-width="0.554071" stroke-linecap="round" stroke-linejoin="round"/>
<path d="M39.8628 63.2539C39.8628 63.2539 10.0819 87.711 2.59687 127.24C-4.88814 166.769 54.4618 157.271 82.7306 145.635" stroke="#07294A" stroke-width="0.554071" stroke-linecap="round" stroke-linejoin="round"/>
<path d="M34.078 124.892C34.078 124.892 101.223 113.023 105.846 142.428" stroke="#07294A" stroke-width="0.554071" stroke-linecap="round" stroke-linejoin="round"/>
<path d="M84.9044 63.2539C84.9044 63.2539 105.977 84.998 111.534 124.892C111.534 124.892 132.907 125.627 133.762 142.428" stroke="#07294A" stroke-width="0.554071" stroke-linecap="round" stroke-linejoin="round"/>
<path d="M27.431 76.1399C27.431 76.1399 17.8541 56.2551 9.92879 73.4266C2.00348 90.5981 -32.6267 203.754 3.91781 222.687C40.4623 241.619 93.9016 231.221 93.9016 231.221" stroke="#07294A" stroke-width="0.554071" stroke-linecap="round" stroke-linejoin="round"/>
<path d="M53.516 234.07V361.503H9.92896" stroke="#07294A" stroke-width="0.554071" stroke-linecap="round" stroke-linejoin="round"/>
</g>
<defs>
<linearGradient id="paint0_linear_838_12907" x1="127.691" y1="294.748" x2="1.63351" y2="76.4105" gradientUnits="userSpaceOnUse">
<stop stop-color="#FDFFAA" stop-opacity="0"/>
<stop offset="1" stop-color="#FDFFAA"/>
</linearGradient>
<clipPath id="clip0_838_12907">
<rect width="169.42" height="261" fill="white" transform="translate(0 0.0360107)"/>
</clipPath>
</defs>
</svg>
