<svg width="1200" height="200" viewBox="0 0 1200 200" fill="none" xmlns="http://www.w3.org/2000/svg">
<g clip-path="url(#clip0_928_15998)">
<path fill-rule="evenodd" clip-rule="evenodd" d="M1092.54 108.521C1092.05 109.378 1090.81 109.378 1090.32 108.521L1054.19 45.9551C1044.79 29.6595 1021.27 29.6595 1011.86 45.9552L999.655 67.0907C995.289 74.6535 987.219 79.3125 978.486 79.3125L824.644 79.3124C809.775 79.3124 800.482 95.4087 807.917 108.286V108.286C811.367 114.262 811.367 121.625 807.917 127.601L794.569 150.72C786.184 165.244 765.22 165.244 756.835 150.72L753.626 145.161C746.667 133.108 729.269 133.108 722.309 145.161V145.161C715.35 157.215 697.952 157.215 690.993 145.161L674.143 115.976C664.734 99.6802 641.214 99.6802 631.805 115.976L616.2 143.004C606.792 159.3 583.271 159.3 573.863 143.004L570.421 137.041C562.146 122.709 541.458 122.709 533.183 137.041V137.041C524.909 151.374 504.221 151.374 495.946 137.041L495.027 135.449C486.344 120.409 464.635 120.409 455.951 135.449L434.388 172.798C430.021 180.361 421.952 185.02 413.219 185.02L362.683 185.02C353.95 185.02 345.88 180.361 341.514 172.798L298.112 97.6238C288.704 81.3281 265.183 81.3281 255.775 97.6238L247.536 111.893C238.128 128.188 214.607 128.188 205.199 111.893L189.837 85.2849C180.429 68.9893 156.908 68.9893 147.5 85.2849L118.063 136.271C108.654 152.567 120.415 172.937 139.231 172.937H183.825C196.477 172.937 204.385 186.633 198.059 197.591V197.591C191.732 208.548 199.64 222.245 212.293 222.245H334.322C343.055 222.245 351.125 226.904 355.491 234.467L362.002 245.744C371.41 262.04 394.931 262.04 404.339 245.744L415.351 226.672C415.617 226.21 416.11 225.926 416.643 225.926V225.926C417.791 225.926 418.509 227.169 417.935 228.164L411.471 239.359C408.024 245.329 412.333 252.792 419.227 252.792H531.753C538.647 252.792 542.956 245.329 539.509 239.359L535.631 232.642C533.907 229.657 536.062 225.926 539.508 225.926V225.926C542.955 225.926 545.109 222.194 543.386 219.209L541.221 215.459C538.535 210.807 541.892 204.992 547.264 204.992H608.864C609.214 204.992 609.433 204.613 609.258 204.31V204.31C609.083 204.006 609.302 203.628 609.652 203.628H666.193C676.131 203.628 682.343 214.386 677.373 222.993V222.993C672.404 231.599 678.616 242.358 688.554 242.358H792.721C800.286 242.358 805.014 234.169 801.232 227.617V227.617C797.449 221.066 802.177 212.877 809.742 212.877H854.19C862.923 212.877 870.992 217.536 875.359 225.099L882.375 237.25C891.783 253.546 915.304 253.546 924.712 237.25L977.494 145.829C981.861 138.266 989.93 133.607 998.663 133.607H1035.72C1054.54 133.607 1066.3 153.976 1056.89 170.272L1043.05 194.244C1033.64 210.54 1045.4 230.909 1064.22 230.909H1123.09C1141.91 230.909 1153.67 210.54 1144.26 194.244L1094.77 108.521C1094.28 107.664 1093.04 107.664 1092.54 108.521V108.521ZM1254.97 149.344C1264.38 133.048 1287.9 133.048 1297.31 149.344L1312.82 176.212C1322.23 192.508 1310.47 212.877 1291.66 212.877H1260.63C1241.81 212.877 1230.05 192.508 1239.46 176.212L1254.97 149.344ZM1204.82 189.017C1195.41 205.313 1171.89 205.313 1162.48 189.017L1133.04 138.03C1123.63 121.735 1135.4 101.365 1154.21 101.365L1213.09 101.365C1231.9 101.365 1243.66 121.735 1234.25 138.03L1204.82 189.017ZM-84.3197 252.792C-65.5031 252.792 -53.7428 232.422 -63.1511 216.127L-92.5881 165.14C-101.996 148.845 -125.517 148.845 -134.926 165.14L-164.363 216.127C-173.771 232.422 -162.01 252.792 -143.194 252.792H-84.3197ZM47.0592 237.25C37.6509 253.545 14.1301 253.545 4.72179 237.25L-56.45 131.297C-65.8583 115.001 -54.098 94.6317 -35.2814 94.6317L87.0623 94.6317C105.879 94.6318 117.639 115.001 108.231 131.297L47.0592 237.25Z" fill="url(#paint0_linear_928_15998)"/>
<path d="M772.569 151.374C772.569 151.374 735.644 181.389 737.604 216.664C739.564 251.938 786.335 288.911 786.335 288.911L789.624 300.538L810.112 264.088L785.812 222.151L803.449 202.162L798.354 127.302" fill="#79C9E7"/>
<path d="M785.812 222.151L803.449 202.162L802.028 181.289C801.204 181.096 800.36 180.998 799.513 180.998C790.197 180.998 782.644 192.721 782.644 207.183C782.644 215.471 785.128 222.855 789 227.653L785.812 222.151Z" fill="#07294A"/>
<path d="M782.644 134.604L828.536 131.461L836.88 134.859L840.802 335.275H798.177L802.684 327.198L782.644 134.604Z" fill="#79C9E7"/>
<path d="M793.468 38.2218V45.4655C793.468 51.0667 797.291 55.9442 802.731 57.281L814.258 60.1142V31.7926L804.673 29.4368C801.974 28.7734 799.12 29.3876 796.932 31.1024C794.745 32.8172 793.468 35.4424 793.468 38.2218Z" fill="#F0F8FF"/>
<path d="M793.468 45.4656C793.468 51.0667 797.291 55.9442 802.731 57.2811L814.258 60.1143" stroke="#07294A" stroke-width="0.491359" stroke-linecap="round" stroke-linejoin="round"/>
<path d="M805.212 44.0283C805.519 44.0283 805.768 43.7794 805.768 43.4724C805.768 43.1654 805.519 42.9165 805.212 42.9165C804.905 42.9165 804.656 43.1654 804.656 43.4724C804.656 43.7794 804.905 44.0283 805.212 44.0283Z" fill="#07294A"/>
<path d="M796.674 44.0283C796.981 44.0283 797.229 43.7794 797.229 43.4724C797.229 43.1654 796.981 42.9165 796.674 42.9165C796.367 42.9165 796.118 43.1654 796.118 43.4724C796.118 43.7794 796.367 44.0283 796.674 44.0283Z" fill="#07294A"/>
<path d="M799.178 46.7882V38.2217H794.887" stroke="#07294A" stroke-width="0.491359" stroke-linecap="round" stroke-linejoin="round"/>
<path d="M806.259 38.2218H801.967" stroke="#07294A" stroke-width="0.491359" stroke-linecap="round" stroke-linejoin="round"/>
<path d="M801.525 47.7893C801.886 48.1501 802.375 48.3528 802.885 48.3528C803.396 48.3528 803.885 48.1501 804.246 47.7893" stroke="#79C9E7" stroke-width="0.491359" stroke-linecap="round" stroke-linejoin="round"/>
<path d="M799.178 46.7954L801.056 47.2568" stroke="#07294A" stroke-width="0.491359" stroke-linecap="round" stroke-linejoin="round"/>
<path d="M836.882 90.1674V135.567L772.569 151.374V100.812C772.569 82.883 784.808 67.2708 802.219 62.9917H802.219C810.568 60.9395 819.397 62.8394 826.164 68.1441C832.93 73.4488 836.882 81.5695 836.882 90.1674V90.1674Z" fill="#F0F8FF"/>
<path d="M802.684 327.198L782.644 134.604" stroke="#07294A" stroke-width="0.491359" stroke-linecap="round" stroke-linejoin="round"/>
<path d="M812.888 41.8601C812.888 41.8601 800.213 40.0964 797.6 33.3682C797.6 33.3682 795.901 39.4432 793.027 38.8553" stroke="#07294A" stroke-width="0.491359" stroke-linecap="round" stroke-linejoin="round"/>
<path d="M793.467 44.0283C793.467 44.0283 787.442 39.1167 790.479 30.788C793.517 22.4594 814.628 20.5 823.206 39.0187C829.379 52.3445 853.906 65.9747 839.014 76.7425C824.123 87.5104 809.625 61.8636 812.888 43.37" stroke="#07294A" stroke-width="0.491359" stroke-linecap="round" stroke-linejoin="round"/>
<path d="M834.701 79.2942C834.701 79.2942 858.712 115.936 839.115 135.794C819.518 155.652 781.892 129.001 781.109 124.559C780.325 120.117 778.692 100.259 782.644 104.439C785.208 107.206 787.542 110.177 789.624 113.323L828.141 114.368" stroke="#07294A" stroke-width="0.491359" stroke-linecap="round" stroke-linejoin="round"/>
<path d="M788.605 69.3152C788.605 69.3152 752.105 100.259 754.718 125.604C757.331 150.949 781.782 130.492 781.109 124.559C780.436 118.625 780.586 106.007 779.018 104.962C777.451 103.917 775.36 112.539 775.36 112.539L763.602 113.323" stroke="#07294A" stroke-width="0.491359" stroke-linecap="round" stroke-linejoin="round"/>
<path d="M392.61 151.891C392.61 151.891 531.847 283.346 320.744 292.728L313.707 301.524L303.738 255.785L377.038 233.679L365.817 141.438" fill="#DFEFFF"/>
<path d="M382.178 138.687C382.178 138.687 390.07 267.5 367.779 328.489L372.436 335.33H332.789C332.789 335.33 328.458 171.487 328.458 136.123L382.178 138.687Z" fill="#F0F8FF"/>
<path d="M369.57 39.0229V55.7635L348.832 60.8607V32.6102L369.57 27.5129V39.0229Z" fill="#F0F8FF"/>
<path d="M357.855 44.815C358.161 44.815 358.409 44.5668 358.409 44.2605C358.409 43.9543 358.161 43.7061 357.855 43.7061C357.549 43.7061 357.3 43.9543 357.3 44.2605C357.3 44.5668 357.549 44.815 357.855 44.815Z" fill="#07294A"/>
<path d="M366.371 44.815C366.678 44.815 366.926 44.5668 366.926 44.2605C366.926 43.9543 366.678 43.7061 366.371 43.7061C366.065 43.7061 365.817 43.9543 365.817 44.2605C365.817 44.5668 366.065 44.815 366.371 44.815Z" fill="#07294A"/>
<path d="M363.873 47.5684V39.0229H368.153" stroke="#07294A" stroke-width="0.491359" stroke-linecap="round" stroke-linejoin="round"/>
<path d="M356.811 39.0231H361.091" stroke="#07294A" stroke-width="0.491359" stroke-linecap="round" stroke-linejoin="round"/>
<path d="M368.82 37.6239H368.82" stroke="#07294A" stroke-width="0.491359" stroke-linecap="round" stroke-linejoin="round"/>
<path d="M350.198 43.4015V46.3689C348.597 46.3689 347.299 45.0713 347.299 43.4706C347.299 43.3816 347.303 43.2937 347.311 43.2068C347.474 41.407 350.198 41.5944 350.198 43.4015Z" fill="#F0F8FF"/>
<path d="M350.198 46.3688C348.597 46.3688 347.299 45.0712 347.299 43.4705" stroke="#07294A" stroke-width="0.491359" stroke-linecap="round" stroke-linejoin="round"/>
<path d="M362.001 49.6747C361.223 49.6747 360.477 49.3656 359.927 48.8155C359.376 48.2654 359.067 47.5192 359.067 46.7412" stroke="#79C9E7" stroke-width="0.491359" stroke-linecap="round" stroke-linejoin="round"/>
<path d="M353.164 59.7957L348.832 60.8605" stroke="#07294A" stroke-width="0.491359" stroke-linecap="round" stroke-linejoin="round"/>
<path d="M363.873 47.575L362 48.0351" stroke="#07294A" stroke-width="0.491359" stroke-linecap="round" stroke-linejoin="round"/>
<path d="M328.458 90.838V136.123L392.61 151.891V101.455C392.61 83.572 380.401 67.999 363.034 63.7306H363.034C354.706 61.6836 345.899 63.5787 339.149 68.8701C332.4 74.1614 328.458 82.2617 328.458 90.838V90.838Z" fill="#79C9E7"/>
<path d="M382.178 138.687C382.178 138.687 390.07 267.5 367.779 328.489" stroke="#07294A" stroke-width="0.491359" stroke-linecap="round" stroke-linejoin="round"/>
<path d="M352.748 39.0229C352.748 39.0229 350.337 47.8176 353.172 49.6746C356.006 51.5317 359.717 45.9486 365.656 48.9745C372.836 52.6322 369.57 40.3562 369.57 40.3562" stroke="#07294A" stroke-width="0.491359" stroke-linecap="round" stroke-linejoin="round"/>
<path d="M350.198 47.1581C350.198 47.1581 346.727 57.7957 355.295 60.8605C363.863 63.9252 375.01 58.9458 371.417 46.7412" stroke="#07294A" stroke-width="0.491359" stroke-linecap="round" stroke-linejoin="round"/>
<path d="M351.478 39.023C351.478 39.023 357.855 41.3663 363.873 34.3943C363.873 34.3943 366.338 37.8561 370.311 37.6238" stroke="#07294A" stroke-width="0.491359" stroke-linecap="round" stroke-linejoin="round"/>
<path d="M370.934 40.9844C370.934 40.9844 375.389 26.1361 363.873 24.8463C352.357 23.5565 347.442 30.7583 345.415 36.2859C343.388 41.8136 346.001 47.6246 348.748 50.0625" stroke="#07294A" stroke-width="0.491359" stroke-linecap="round" stroke-linejoin="round"/>
<path d="M338.927 69.0493C338.927 69.0493 305.939 99.4877 308.025 137.28C310.11 175.072 385.694 143.796 388.039 131.285C390.385 118.775 375.657 126.333 375.657 126.333C375.657 126.333 377.09 120.469 375.657 121.511C374.223 122.554 370.699 126.463 370.699 126.463L337.997 126.854L344.695 108.349" stroke="#07294A" stroke-width="0.491359" stroke-linecap="round" stroke-linejoin="round"/>
<path d="M365.817 126.522C365.817 126.522 365.644 103.658 392.61 98.7059C392.61 98.7059 388.033 91.8971 390.707 89.4372C392.316 87.9577 394.867 89.8433 396.644 91.5811C397.617 92.5307 399.15 92.593 400.197 91.7255C401.209 90.8975 402.785 90.3071 405.111 91.0824C406.87 91.6688 407.557 92.6401 407.729 93.6251C407.944 95.0763 409.283 96.0867 410.738 95.8942C412.687 95.6091 414.427 95.9014 413.321 98.315C411.17 103.006 407.065 103.006 407.065 103.006C407.065 103.006 435.605 162.921 376.571 155.346" stroke="#07294A" stroke-width="0.491359" stroke-linecap="round" stroke-linejoin="round"/>
<path d="M412.41 141.438C412.41 141.438 413.907 160.867 403.938 167.122" stroke="#07294A" stroke-width="0.491359" stroke-linecap="round" stroke-linejoin="round"/>
<path d="M90.6602 17.22V230.673H115.839V217.207H250.965V230.673H276.144V17.22H90.6602V17.22Z" fill="#F0F8FF"/>
<path d="M276.144 230.673V17.22" stroke="#07294A" stroke-width="0.4775" stroke-linecap="round" stroke-linejoin="round"/>
<rect x="112.059" y="36.5015" width="43.887" height="43.887" fill="#D1D1D1"/>
<rect x="131.968" y="56.4109" width="4.06821" height="4.06821" fill="#07294A"/>
<path d="M155.946 36.5015V80.3885H112.059" stroke="#07294A" stroke-width="0.4775" stroke-linecap="round" stroke-linejoin="round"/>
<rect x="161.459" y="36.5015" width="43.887" height="43.887" fill="#D1D1D1"/>
<rect x="181.368" y="56.4109" width="4.06821" height="4.06821" fill="#07294A"/>
<path d="M205.346 36.5015V80.3885H161.459" stroke="#07294A" stroke-width="0.4775" stroke-linecap="round" stroke-linejoin="round"/>
<rect x="210.859" y="36.5015" width="43.887" height="43.887" fill="#D1D1D1"/>
<rect x="230.768" y="56.4109" width="4.06821" height="4.06821" fill="#07294A"/>
<path d="M254.746 36.5015V80.3885H210.859" stroke="#07294A" stroke-width="0.4775" stroke-linecap="round" stroke-linejoin="round"/>
<rect x="112.059" y="90.1111" width="43.887" height="43.887" fill="#D1D1D1"/>
<rect x="131.968" y="110.021" width="4.06821" height="4.06821" fill="#07294A"/>
<path d="M155.946 90.1111V133.998H112.059" stroke="#07294A" stroke-width="0.4775" stroke-linecap="round" stroke-linejoin="round"/>
<rect x="161.459" y="90.1111" width="43.887" height="43.887" fill="#D1D1D1"/>
<rect x="181.368" y="110.021" width="4.06821" height="4.06821" fill="#07294A"/>
<path d="M205.346 90.1111V133.998H161.459" stroke="#07294A" stroke-width="0.4775" stroke-linecap="round" stroke-linejoin="round"/>
<rect x="210.859" y="90.1111" width="43.887" height="43.887" fill="#D1D1D1"/>
<rect x="230.768" y="110.021" width="4.06821" height="4.06821" fill="#07294A"/>
<path d="M254.746 90.1111V133.998H210.859" stroke="#07294A" stroke-width="0.4775" stroke-linecap="round" stroke-linejoin="round"/>
<rect x="112.059" y="143.721" width="43.887" height="43.887" fill="#D1D1D1"/>
<rect x="131.968" y="163.63" width="4.06821" height="4.06821" fill="#07294A"/>
<path d="M155.946 143.721V187.608H112.059" stroke="#07294A" stroke-width="0.4775" stroke-linecap="round" stroke-linejoin="round"/>
<rect x="161.459" y="143.721" width="43.887" height="43.887" fill="#D1D1D1"/>
<rect x="181.368" y="163.63" width="4.06821" height="4.06821" fill="#07294A"/>
<path d="M205.346 143.721V187.608H161.459" stroke="#07294A" stroke-width="0.4775" stroke-linecap="round" stroke-linejoin="round"/>
<rect x="210.859" y="143.721" width="43.887" height="43.887" fill="#D1D1D1"/>
<rect x="230.768" y="163.63" width="4.06821" height="4.06821" fill="#07294A"/>
<path d="M254.746 143.721V187.608H210.859" stroke="#07294A" stroke-width="0.4775" stroke-linecap="round" stroke-linejoin="round"/>
<path d="M1100.31 53.9019V116.646H949.604" stroke="#07294A" stroke-width="0.610972" stroke-linecap="round" stroke-linejoin="round"/>
<path d="M1131.28 174.908V61.2332" stroke="#07294A" stroke-width="0.610972" stroke-linecap="round" stroke-linejoin="round"/>
<path d="M871.305 174.908H1178.61" stroke="#07294A" stroke-width="0.610972" stroke-linecap="round" stroke-linejoin="round"/>
<path d="M1024.96 -20.6331V116.646" stroke="#07294A" stroke-width="0.610972" stroke-linecap="round" stroke-linejoin="round"/>
<path d="M1024.96 48.0064H1102.02" stroke="#07294A" stroke-width="0.610972" stroke-linecap="round" stroke-linejoin="round"/>
<rect x="958.303" y="77.5464" width="5.75775" height="39.0694" fill="#F0F8FF"/>
<path d="M964.061 116.616H958.303V77.5464" stroke="#07294A" stroke-width="0.610972" stroke-linecap="round" stroke-linejoin="round"/>
<path d="M959.81 84.8553H964.06" stroke="#07294A" stroke-width="0.610972" stroke-linecap="round" stroke-linejoin="round"/>
<path d="M959.81 86.4288H964.06" stroke="#07294A" stroke-width="0.610972" stroke-linecap="round" stroke-linejoin="round"/>
<path d="M959.81 88.0022H964.06" stroke="#07294A" stroke-width="0.610972" stroke-linecap="round" stroke-linejoin="round"/>
<rect x="965.388" y="77.5464" width="5.75775" height="39.0694" fill="#D1D1D1"/>
<path d="M971.146 116.616H965.388V77.5464" stroke="#07294A" stroke-width="0.610972" stroke-linecap="round" stroke-linejoin="round"/>
<path d="M966.896 84.8553H971.146" stroke="#07294A" stroke-width="0.610972" stroke-linecap="round" stroke-linejoin="round"/>
<path d="M966.896 86.4288H971.146" stroke="#07294A" stroke-width="0.610972" stroke-linecap="round" stroke-linejoin="round"/>
<path d="M966.896 88.0022H971.146" stroke="#07294A" stroke-width="0.610972" stroke-linecap="round" stroke-linejoin="round"/>
<rect x="972.474" y="77.5464" width="5.75775" height="39.0694" fill="#F0F8FF"/>
<path d="M978.232 116.616H972.474V77.5464" stroke="#07294A" stroke-width="0.610972" stroke-linecap="round" stroke-linejoin="round"/>
<path d="M973.982 84.8553H978.232" stroke="#07294A" stroke-width="0.610972" stroke-linecap="round" stroke-linejoin="round"/>
<path d="M973.982 86.4288H978.232" stroke="#07294A" stroke-width="0.610972" stroke-linecap="round" stroke-linejoin="round"/>
<path d="M973.982 88.0022H978.232" stroke="#07294A" stroke-width="0.610972" stroke-linecap="round" stroke-linejoin="round"/>
<rect x="979.56" y="77.5464" width="5.75775" height="39.0694" fill="#D1D1D1"/>
<path d="M985.318 116.616H979.56V77.5464" stroke="#07294A" stroke-width="0.610972" stroke-linecap="round" stroke-linejoin="round"/>
<path d="M981.068 84.8553H985.318" stroke="#07294A" stroke-width="0.610972" stroke-linecap="round" stroke-linejoin="round"/>
<path d="M981.068 86.4288H985.318" stroke="#07294A" stroke-width="0.610972" stroke-linecap="round" stroke-linejoin="round"/>
<path d="M981.068 88.0022H985.318" stroke="#07294A" stroke-width="0.610972" stroke-linecap="round" stroke-linejoin="round"/>
<rect x="986.646" y="77.5464" width="5.75775" height="39.0694" fill="#F0F8FF"/>
<path d="M992.404 116.616H986.646V77.5464" stroke="#07294A" stroke-width="0.610972" stroke-linecap="round" stroke-linejoin="round"/>
<path d="M988.154 84.8553H992.404" stroke="#07294A" stroke-width="0.610972" stroke-linecap="round" stroke-linejoin="round"/>
<path d="M988.154 86.4288H992.404" stroke="#07294A" stroke-width="0.610972" stroke-linecap="round" stroke-linejoin="round"/>
<path d="M988.154 88.0022H992.404" stroke="#07294A" stroke-width="0.610972" stroke-linecap="round" stroke-linejoin="round"/>
<rect x="993.148" y="79.1182" width="5.75775" height="39.0694" transform="rotate(-16.1509 993.148 79.1182)" fill="#D1D1D1"/>
<path d="M1009.55 115.044L1004.02 116.646L993.148 79.1182" stroke="#07294A" stroke-width="0.610972" stroke-linecap="round" stroke-linejoin="round"/>
<path d="M996.63 85.7193L1000.71 84.5371" stroke="#07294A" stroke-width="0.610972" stroke-linecap="round" stroke-linejoin="round"/>
<path d="M997.068 87.2305L1001.15 86.0483" stroke="#07294A" stroke-width="0.610972" stroke-linecap="round" stroke-linejoin="round"/>
<path d="M997.505 88.7418L1001.59 87.5596" stroke="#07294A" stroke-width="0.610972" stroke-linecap="round" stroke-linejoin="round"/>
<path d="M537.921 102.739C555.137 102.739 569.093 88.783 569.093 71.5671C569.093 54.3513 555.137 40.395 537.921 40.395C520.705 40.395 506.749 54.3513 506.749 71.5671C506.749 88.783 520.705 102.739 537.921 102.739Z" fill="#F0F8FF"/>
<rect x="528.191" y="40.395" width="8.84218" height="62.3442" fill="#F0F8FF"/>
<path d="M528.191 102.739C545.407 102.739 559.363 88.783 559.363 71.5671C559.363 54.3513 545.407 40.395 528.191 40.395C510.975 40.395 497.019 54.3513 497.019 71.5671C497.019 88.783 510.975 102.739 528.191 102.739Z" fill="#79C9E7"/>
<path d="M528.191 71.5669C524.615 71.5669 521.391 69.4126 520.022 66.1085C518.653 62.8044 519.41 59.0012 521.939 56.4724C524.468 53.9436 528.271 53.1871 531.575 54.5557C534.879 55.9243 537.033 59.1484 537.033 62.7248" stroke="white" stroke-width="0.794118"/>
<path d="M528.192 71.5669C531.768 71.5669 534.992 73.7212 536.361 77.0253C537.73 80.3294 536.973 84.1326 534.444 86.6614C531.915 89.1903 528.112 89.9468 524.808 88.5782C521.504 87.2096 519.35 83.9854 519.35 80.4091" stroke="white" stroke-width="0.794118"/>
<path d="M528.191 48.8052V94.3289" stroke="white" stroke-width="0.794118"/>
<rect x="589.14" y="185.503" width="61.1616" height="12.7205" fill="#79C9E7"/>
<path d="M650.301 185.503V198.224H589.14" stroke="#07294A" stroke-width="0.794118"/>
<rect x="589.14" y="169.518" width="61.1616" height="12.7205" fill="#79C9E7"/>
<path d="M650.301 169.518V182.238H589.14" stroke="#07294A" stroke-width="0.794118"/>
<rect x="589.14" y="153.532" width="61.1616" height="12.7205" fill="#79C9E7"/>
<path d="M650.301 153.532V166.253H589.14" stroke="#07294A" stroke-width="0.794118"/>
<rect x="589.14" y="137.547" width="61.1616" height="12.7205" fill="#79C9E7"/>
<path d="M650.301 137.547V150.267H589.14" stroke="#07294A" stroke-width="0.794118"/>
<rect x="589.14" y="121.562" width="61.1616" height="12.7205" fill="#79C9E7"/>
<path d="M650.301 121.561V134.282H589.14" stroke="#07294A" stroke-width="0.794118"/>
<rect x="589.14" y="105.576" width="61.1616" height="12.7205" fill="#79C9E7"/>
<path d="M650.301 105.576V118.297H589.14" stroke="#07294A" stroke-width="0.794118"/>
<rect x="589.14" y="89.5906" width="61.1616" height="12.7205" fill="#79C9E7"/>
<path d="M650.301 89.5906V102.311H589.14" stroke="#07294A" stroke-width="0.794118"/>
<rect x="589.14" y="73.6052" width="61.1616" height="12.7205" fill="#79C9E7"/>
<path d="M650.301 73.6052V86.3256H589.14" stroke="#07294A" stroke-width="0.794118"/>
<rect x="521.031" y="185.503" width="61.1616" height="12.7205" fill="#79C9E7"/>
<path d="M582.192 185.503V198.224H521.031" stroke="#07294A" stroke-width="0.794118"/>
<rect x="521.031" y="169.518" width="61.1616" height="12.7205" fill="#79C9E7"/>
<path d="M582.192 169.518V182.238H521.031" stroke="#07294A" stroke-width="0.794118"/>
<rect x="521.031" y="153.532" width="61.1616" height="12.7205" fill="#79C9E7"/>
<path d="M582.192 153.532V166.253H521.031" stroke="#07294A" stroke-width="0.794118"/>
<rect x="521.031" y="137.547" width="61.1616" height="12.7205" fill="#79C9E7"/>
<path d="M582.192 137.547V150.267H521.031" stroke="#07294A" stroke-width="0.794118"/>
<rect x="521.031" y="121.562" width="61.1616" height="12.7205" fill="#79C9E7"/>
<path d="M582.192 121.561V134.282H521.031" stroke="#07294A" stroke-width="0.794118"/>
</g>
<defs>
<linearGradient id="paint0_linear_928_15998" x1="574.231" y1="33.7334" x2="574.231" y2="257.966" gradientUnits="userSpaceOnUse">
<stop stop-color="#FDFFAA" stop-opacity="0"/>
<stop offset="1" stop-color="#FDFFAA"/>
</linearGradient>
<clipPath id="clip0_928_15998">
<rect width="1200" height="200" fill="white"/>
</clipPath>
</defs>
</svg>
