<svg width="1200" height="200" viewBox="0 0 1200 200" fill="none" xmlns="http://www.w3.org/2000/svg">
<g clip-path="url(#clip0_928_15564)">
<path fill-rule="evenodd" clip-rule="evenodd" d="M817.171 31.2571C817.171 49.4642 802.273 64.2239 783.896 64.2239C765.518 64.2239 750.621 49.4642 750.621 31.2571C750.621 13.05 765.518 -1.70972 783.896 -1.70972C802.273 -1.70972 817.171 13.05 817.171 31.2571ZM1333.11 84.5743C1356.29 84.5743 1375.07 65.9628 1375.07 43.0044C1375.07 20.046 1356.29 1.43449 1333.11 1.43449C1309.94 1.43449 1291.16 20.046 1291.16 43.0044C1291.16 47.2221 1291.79 51.2931 1292.97 55.129C1293.92 58.211 1290.62 62.2535 1287.4 62.2535V62.2535C1272.59 62.2535 1260.59 74.1434 1260.59 88.8104C1260.59 103.477 1272.59 115.367 1287.4 115.367C1302.2 115.367 1314.2 103.477 1314.2 88.8104V88.8104C1314.2 85.5077 1318.3 82.0488 1321.48 82.9551C1325.17 84.0094 1329.08 84.5743 1333.11 84.5743ZM-140.367 20.5183C-159.358 20.5183 -175.076 35.9141 -175.076 54.9058C-175.076 73.8975 -159.358 89.2933 -140.367 89.2933C-121.375 89.2933 -105.658 73.8975 -105.658 54.9058C-105.658 35.9141 -121.375 20.5183 -140.367 20.5183ZM11.2568 28.9823C-11.0602 28.9823 -30.5928 42.0739 -39.6846 60.9963C-44.0611 70.1051 -57.4438 76.9335 -67.5494 76.9335V76.9335C-88.6129 76.9335 -106.045 94.0089 -106.045 115.072C-106.045 136.136 -88.6129 153.211 -67.5494 153.211C-65.4485 153.211 -63.3838 153.041 -61.3689 152.715C-42.136 149.596 -8.22734 140.664 11.2568 140.664V140.664V140.664C27.4942 140.664 51.878 151.465 60.5725 165.179C74.2861 186.809 98.5817 201.187 126.267 201.187C147.533 201.187 166.798 192.704 180.805 178.967C195.839 164.221 230.188 152.226 251.117 154.559C253.993 154.879 256.917 155.044 259.88 155.044C302.694 155.044 337.402 120.657 337.402 78.2392C337.402 35.8211 302.694 1.43449 259.88 1.43449C238.614 1.43449 219.348 9.91775 205.342 23.6548C190.307 38.4007 155.959 50.3952 135.029 48.0627C132.153 47.7421 129.229 47.5775 126.267 47.5775C120.962 47.5775 115.782 48.1054 110.777 49.111C90.4723 53.1904 55.0662 44.2687 36.5586 34.9748C28.926 31.142 20.3211 28.9823 11.2568 28.9823ZM792.4 111.758C792.4 71.055 826.085 38.0587 866.788 38.0587C901.374 38.0587 930.892 61.8815 938.984 94.0127C939.87 97.5309 943.133 99.9996 946.761 99.9996V99.9996C951.915 99.9996 956.921 100.698 961.684 102.005C963.006 102.368 964.34 101.37 964.34 99.9996V99.9996C964.34 50.6464 1004.72 10.6377 1054.54 10.6377C1104.35 10.6377 1144.73 50.6464 1144.73 99.9996C1144.73 149.353 1104.35 189.361 1054.54 189.361C1046.71 189.361 1039.11 188.372 1031.86 186.513C1015.51 182.317 994.747 189.443 981.407 199.794C971.811 207.241 959.758 211.681 946.761 211.681C932.738 211.681 919.815 206.513 909.89 197.977C899.986 189.457 886.227 184.061 873.211 185.182C871.093 185.364 868.951 185.457 866.788 185.457C826.085 185.457 792.4 152.461 792.4 111.758ZM201.212 187.125C201.212 168.134 216.929 152.738 235.921 152.738C254.913 152.738 270.63 168.134 270.63 187.125C270.63 206.117 254.913 221.513 235.921 221.513C216.929 221.513 201.212 206.117 201.212 187.125ZM1210.15 166.049C1210.15 163.873 1207.16 162.006 1205.28 163.103C1199.04 166.74 1191.78 168.826 1184.02 168.826C1160.85 168.826 1142.06 150.214 1142.06 127.256C1142.06 104.297 1160.85 85.6858 1184.02 85.6858C1207.19 85.6858 1225.98 104.297 1225.98 127.256C1225.98 127.822 1225.97 128.385 1225.94 128.946C1225.76 133.55 1232.35 139.492 1236.95 139.492V139.492C1251.76 139.492 1263.76 151.382 1263.76 166.049C1263.76 180.716 1251.76 192.606 1236.95 192.606C1222.15 192.606 1210.15 180.716 1210.15 166.049V166.049ZM571.371 49.4266C583.828 49.4266 593.926 39.4217 593.926 27.08C593.926 14.7384 583.828 4.73348 571.371 4.73348C558.914 4.73348 548.816 14.7384 548.816 27.08C548.816 39.4217 558.914 49.4266 571.371 49.4266ZM408.704 221.513C451.519 221.513 486.227 187.126 486.227 144.708V144.708C486.227 142.39 489.283 141.001 491.07 142.478C500.753 150.483 513.214 155.3 526.812 155.3C539.503 155.3 551.204 151.104 560.58 144.036C561.906 143.037 564.024 144.155 564.024 145.816V145.816C564.024 164.023 578.922 178.783 597.299 178.783C615.676 178.783 630.574 164.023 630.574 145.816V145.816C630.574 144.679 632.046 144.013 632.867 144.8C645.9 157.295 663.655 164.985 683.223 164.985C723.218 164.985 755.639 132.864 755.639 93.24C755.639 53.6162 723.218 21.4948 683.223 21.4948C643.229 21.4948 610.808 53.6162 610.808 93.24C610.808 95.3926 610.903 97.5231 611.091 99.6275C611.632 105.704 603.4 112.849 597.299 112.849V112.849C597.168 112.849 597.037 112.85 596.907 112.851C590.819 112.921 582.629 106.089 582.629 100V100C582.629 69.4584 557.639 44.6996 526.812 44.6996C521.678 44.6996 516.705 45.3863 511.984 46.6722C489.525 52.788 432.907 68.1796 409.632 67.9091C409.323 67.9055 409.014 67.9037 408.704 67.9037C365.889 67.9037 331.181 102.29 331.181 144.708C331.181 187.126 365.889 221.513 408.704 221.513Z" fill="url(#paint0_linear_928_15564)"/>
<path d="M858.188 171.204C858.188 171.204 1000.83 305.869 784.567 315.481L777.358 324.492L767.146 277.636L842.236 254.989L830.741 160.496" fill="#DFEFFF"/>
<path d="M847.501 157.678C847.501 157.678 855.586 289.637 832.751 352.115L837.521 359.123H796.907C796.907 359.123 792.469 191.279 792.469 155.052L847.501 157.678Z" fill="#F0F8FF"/>
<path d="M834.586 55.5799V72.7293L813.341 77.951V49.0105L834.586 43.7888V55.5799Z" fill="#F0F8FF"/>
<path d="M822.585 61.5135C822.898 61.5135 823.153 61.2592 823.153 60.9455C823.153 60.6318 822.898 60.3774 822.585 60.3774C822.271 60.3774 822.016 60.6318 822.016 60.9455C822.016 61.2592 822.271 61.5135 822.585 61.5135Z" fill="#07294A"/>
<path d="M831.309 61.5135C831.623 61.5135 831.877 61.2592 831.877 60.9455C831.877 60.6318 831.623 60.3774 831.309 60.3774C830.995 60.3774 830.741 60.6318 830.741 60.9455C830.741 61.2592 830.995 61.5135 831.309 61.5135Z" fill="#07294A"/>
<path d="M828.749 64.3339V55.5798H833.135" stroke="#07294A" stroke-width="0.503358" stroke-linecap="round" stroke-linejoin="round"/>
<path d="M821.514 55.5801H825.9" stroke="#07294A" stroke-width="0.503358" stroke-linecap="round" stroke-linejoin="round"/>
<path d="M833.817 54.1468H833.817" stroke="#07294A" stroke-width="0.503358" stroke-linecap="round" stroke-linejoin="round"/>
<path d="M814.74 60.0654V63.1053C813.1 63.1053 811.771 61.776 811.771 60.1362C811.771 60.0451 811.775 59.955 811.783 59.8659C811.949 58.0222 814.74 58.2142 814.74 60.0654Z" fill="#F0F8FF"/>
<path d="M814.74 63.1053C813.1 63.1053 811.771 61.776 811.771 60.1362" stroke="#07294A" stroke-width="0.503358" stroke-linecap="round" stroke-linejoin="round"/>
<path d="M826.831 66.4919C826.034 66.4919 825.27 66.1753 824.706 65.6118C824.143 65.0482 823.826 64.2838 823.826 63.4868" stroke="#79C9E7" stroke-width="0.503358" stroke-linecap="round" stroke-linejoin="round"/>
<path d="M817.779 76.8601L813.341 77.9509" stroke="#07294A" stroke-width="0.503358" stroke-linecap="round" stroke-linejoin="round"/>
<path d="M828.749 64.3408L826.831 64.8122" stroke="#07294A" stroke-width="0.503358" stroke-linecap="round" stroke-linejoin="round"/>
<path d="M792.469 108.661V155.052L858.188 171.204V119.537C858.188 101.217 845.681 85.2638 827.891 80.8912H827.891C819.359 78.7942 810.337 80.7356 803.422 86.1562C796.508 91.5768 792.469 99.8748 792.469 108.661V108.661Z" fill="#79C9E7"/>
<path d="M847.501 157.678C847.501 157.678 855.586 289.637 832.751 352.115" stroke="#07294A" stroke-width="0.503358" stroke-linecap="round" stroke-linejoin="round"/>
<path d="M817.353 55.5801C817.353 55.5801 814.883 64.5895 817.787 66.4919C820.691 68.3943 824.492 62.6749 830.576 65.7746C837.931 69.5217 834.585 56.9459 834.585 56.9459" stroke="#07294A" stroke-width="0.503358" stroke-linecap="round" stroke-linejoin="round"/>
<path d="M814.74 63.9138C814.74 63.9138 811.185 74.8113 819.962 77.9509C828.739 81.0905 840.159 75.9895 836.478 63.4868" stroke="#07294A" stroke-width="0.503358" stroke-linecap="round" stroke-linejoin="round"/>
<path d="M816.052 55.5802C816.052 55.5802 822.585 57.9806 828.75 50.8384C828.75 50.8384 831.275 54.3847 835.345 54.1468" stroke="#07294A" stroke-width="0.503358" stroke-linecap="round" stroke-linejoin="round"/>
<path d="M835.983 57.5893C835.983 57.5893 840.547 42.3783 828.749 41.057C816.952 39.7357 811.917 47.1134 809.841 52.776C807.765 58.4386 810.441 64.3916 813.255 66.889" stroke="#07294A" stroke-width="0.503358" stroke-linecap="round" stroke-linejoin="round"/>
<path d="M803.195 86.3396C803.195 86.3396 769.401 117.521 771.537 156.236C773.673 194.951 851.103 162.911 853.506 150.095C855.909 137.279 840.821 145.022 840.821 145.022C840.821 145.022 842.289 139.015 840.821 140.083C839.352 141.151 835.742 145.156 835.742 145.156L802.242 145.556L809.103 126.599" stroke="#07294A" stroke-width="0.503358" stroke-linecap="round" stroke-linejoin="round"/>
<path d="M830.741 145.216C830.741 145.216 830.564 121.793 858.188 116.72C858.188 116.72 853.5 109.745 856.24 107.225C857.888 105.71 860.5 107.641 862.321 109.422C863.318 110.394 864.888 110.458 865.961 109.57C866.997 108.721 868.612 108.117 870.994 108.911C872.797 109.511 873.501 110.506 873.677 111.516C873.897 113.002 875.269 114.037 876.759 113.84C878.756 113.548 880.538 113.847 879.405 116.32C877.202 121.126 872.997 121.126 872.997 121.126C872.997 121.126 902.233 182.503 841.758 174.743" stroke="#07294A" stroke-width="0.503358" stroke-linecap="round" stroke-linejoin="round"/>
<path d="M878.472 160.496C878.472 160.496 880.005 180.4 869.793 186.808" stroke="#07294A" stroke-width="0.503358" stroke-linecap="round" stroke-linejoin="round"/>
<path d="M701.189 175.167C701.189 175.167 758.77 255.219 702.978 342.225L701.628 359.508L667.921 341.547L686.734 270.999L660.475 225.238L679.406 164.099" fill="#DFEFFF"/>
<path d="M693.401 158.838L638.664 159.8L639.164 214.492V359.508H681.789L677.283 351.432L693.401 158.838Z" fill="#F0F8FF"/>
<path d="M660.426 62.455V79.2377L681.216 84.3474V56.0257L660.426 50.916V62.455Z" fill="#F0F8FF"/>
<path d="M672.17 68.2614C671.863 68.2614 671.614 68.0126 671.614 67.7055C671.614 67.3985 671.863 67.1497 672.17 67.1497C672.477 67.1497 672.726 67.3985 672.726 67.7055C672.726 68.0126 672.477 68.2614 672.17 68.2614Z" fill="#07294A"/>
<path d="M663.632 68.2614C663.325 68.2614 663.076 68.0126 663.076 67.7055C663.076 67.3985 663.325 67.1497 663.632 67.1497C663.939 67.1497 664.188 67.3985 664.188 67.7055C664.188 68.0126 663.939 68.2614 663.632 68.2614Z" fill="#07294A"/>
<path d="M666.137 71.0216V62.4551H661.845" stroke="#07294A" stroke-width="0.491359" stroke-linecap="round" stroke-linejoin="round"/>
<path d="M673.218 62.455H668.926" stroke="#07294A" stroke-width="0.491359" stroke-linecap="round" stroke-linejoin="round"/>
<path d="M679.847 66.8443V69.8193C681.452 69.8193 682.753 68.5184 682.753 66.9136C682.753 66.8245 682.749 66.7363 682.741 66.6491C682.578 64.8448 679.847 65.0327 679.847 66.8443Z" fill="#F0F8FF"/>
<path d="M679.847 69.8192C681.452 69.8192 682.753 68.5183 682.753 66.9136" stroke="#07294A" stroke-width="0.491359" stroke-linecap="round" stroke-linejoin="round"/>
<path d="M668.014 73.1335C669.638 73.1335 670.955 71.8168 670.955 70.1926" stroke="#79C9E7" stroke-width="0.491359" stroke-linecap="round" stroke-linejoin="round"/>
<path d="M660.426 79.2375L681.216 84.3475" stroke="#07294A" stroke-width="0.491359" stroke-linecap="round" stroke-linejoin="round"/>
<path d="M666.137 71.0286L668.014 71.4899" stroke="#07294A" stroke-width="0.491359" stroke-linecap="round" stroke-linejoin="round"/>
<path d="M679.549 66.1468C679.549 66.1468 675.499 62.358 675.434 58.7C675.434 58.7 660.148 60.9863 657.862 60.333L659.495 57.1976C657.658 56.4822 655.888 55.6079 654.204 54.5846C654.204 54.5846 673.866 40.8669 682.815 55.3032C682.815 55.3032 688.804 58.1774 682.609 66.1468" stroke="#07294A" stroke-width="0.491359" stroke-linecap="round" stroke-linejoin="round"/>
<path d="M638.664 114.401V159.8L702.978 175.607V125.045C702.978 107.116 690.739 91.504 673.328 87.2248H673.328C664.979 85.1727 656.149 87.0725 649.383 92.3772C642.617 97.6819 638.664 105.803 638.664 114.401V114.401Z" fill="#79C9E7"/>
<path d="M648.913 144.599C657.78 154.796 677.036 153.679 695.774 147.912C692.148 155.055 682.348 160.177 670.821 160.177C656.21 160.177 644.366 151.951 644.366 141.804C644.366 140.856 644.47 139.91 644.676 138.984C645.953 140.954 647.369 142.83 648.913 144.599V144.599Z" fill="#07294A"/>
<path d="M677.282 351.432L693.4 158.837" stroke="#07294A" stroke-width="0.491359" stroke-linecap="round" stroke-linejoin="round"/>
<path d="M642.676 99.9387C642.676 99.9387 629.314 122.063 648.913 144.599C668.511 167.136 738.862 134.409 742.193 118.339C745.525 102.27 742.977 103.642 739.254 106.973C735.53 110.305 733.571 109.521 733.571 109.521C733.571 109.521 732.983 103.25 731.023 105.014C729.064 106.777 728.476 110.109 728.476 110.109L681.216 122.651L669.485 103.25" stroke="#07294A" stroke-width="0.491359" stroke-linecap="round" stroke-linejoin="round"/>
<path d="M683.964 91.582C683.964 91.582 701.415 102.446 708.576 115.39" stroke="#07294A" stroke-width="0.491359" stroke-linecap="round" stroke-linejoin="round"/>
<path d="M730.958 131.005C730.958 131.005 755.977 133.299 768.518 135.389C781.06 137.479 766.951 140.092 766.951 140.092C766.951 140.092 760.418 149.499 749.183 145.841C749.183 145.841 726.277 156.815 702.978 150.805" stroke="#07294A" stroke-width="0.491359" stroke-linecap="round" stroke-linejoin="round"/>
<path d="M548.63 161.433C548.63 161.433 595.001 265.187 585.095 338.029L592.98 343.486L560.346 353.392L516.163 234.514L528.823 151.765" fill="#DFEFFF"/>
<path d="M548.63 161.433C548.63 161.433 564.397 196.713 575.579 240.571C559.257 244.534 541.068 246.751 521.886 246.751C521.492 246.751 521.101 246.745 520.708 246.743L516.163 234.514L528.823 151.765L548.63 161.433Z" fill="#79C9E7"/>
<path d="M538.263 163.981C538.263 163.981 546.106 291.99 523.954 352.598L528.582 359.396H489.183C489.183 359.396 484.878 196.576 484.878 161.433L538.263 163.981Z" fill="#F0F8FF"/>
<path d="M538.263 163.981C538.263 163.981 546.106 291.99 523.954 352.598" stroke="#07294A" stroke-width="0.491359" stroke-linecap="round" stroke-linejoin="round"/>
<path d="M539.135 246.142C533.493 246.541 527.743 246.744 521.886 246.751C509.99 246.765 498.109 245.888 486.344 244.126C485.54 208.608 484.878 175.21 484.878 161.433L538.263 163.981C538.263 163.981 540.582 201.848 539.135 246.142Z" fill="#79C9E7"/>
<path d="M509.571 64.9391V81.5752L530.18 86.6406V58.5664L509.571 53.501V64.9391Z" fill="#F0F8FF"/>
<path d="M521.213 70.6948C520.909 70.6948 520.662 70.4481 520.662 70.1438C520.662 69.8395 520.909 69.5928 521.213 69.5928C521.518 69.5928 521.764 69.8395 521.764 70.1438C521.764 70.4481 521.518 70.6948 521.213 70.6948Z" fill="#07294A"/>
<path d="M512.75 70.6948C512.445 70.6948 512.199 70.4481 512.199 70.1438C512.199 69.8395 512.445 69.5928 512.75 69.5928C513.054 69.5928 513.301 69.8395 513.301 70.1438C513.301 70.4481 513.054 70.6948 512.75 70.6948Z" fill="#07294A"/>
<path d="M515.233 73.4307V64.939H510.979" stroke="#07294A" stroke-width="0.491359" stroke-linecap="round" stroke-linejoin="round"/>
<path d="M522.251 64.9391H517.997" stroke="#07294A" stroke-width="0.491359" stroke-linecap="round" stroke-linejoin="round"/>
<path d="M528.823 69.2901V72.239C530.414 72.239 531.703 70.9495 531.703 69.3588C531.703 69.2704 531.699 69.183 531.691 69.0966C531.53 67.3081 528.823 67.4943 528.823 69.2901Z" fill="#F0F8FF"/>
<path d="M528.823 72.2391C530.414 72.2391 531.703 70.9496 531.703 69.3589" stroke="#07294A" stroke-width="0.491359" stroke-linecap="round" stroke-linejoin="round"/>
<path d="M517.093 75.5243C518.703 75.5243 520.009 74.2191 520.009 72.6091" stroke="#79C9E7" stroke-width="0.491359" stroke-linecap="round" stroke-linejoin="round"/>
<path d="M509.572 81.575L530.18 86.6402" stroke="#07294A" stroke-width="0.491359" stroke-linecap="round" stroke-linejoin="round"/>
<path d="M515.233 73.4377L517.093 73.8951" stroke="#07294A" stroke-width="0.491359" stroke-linecap="round" stroke-linejoin="round"/>
<path d="M548.63 116.431V161.433L484.878 177.102V126.982C484.878 109.21 497.011 93.7342 514.269 89.4924H514.269C522.546 87.4582 531.298 89.3415 538.005 94.5998C544.712 99.8581 548.63 107.908 548.63 116.431V116.431Z" fill="#F0F8FF"/>
<path d="M530.18 75.5243C531.444 73.6284 532.542 71.6276 533.463 69.5438C536.335 62.8998 533.278 55.1851 526.635 52.3114C519.596 49.227 508.895 45.8755 506.426 52.6027C502.67 62.8335 526.24 61.6855 526.24 61.6855C526.24 61.6855 525.043 67.4401 528.183 67.8455" stroke="#07294A" stroke-width="0.491359" stroke-linecap="round" stroke-linejoin="round"/>
<path d="M496.581 99.2957C496.581 99.2957 459.865 129.917 461.937 170.581C464.009 211.245 504.285 210.986 504.285 210.986C504.285 210.986 507.866 203.604 509.572 193.114" stroke="#07294A" stroke-width="0.491359" stroke-linecap="round" stroke-linejoin="round"/>
<path d="M504.285 132.89L491.075 164.364L509.022 196.094" stroke="#07294A" stroke-width="0.491359" stroke-linecap="round" stroke-linejoin="round"/>
<path d="M539.611 97.7996C539.611 97.7996 558.029 109.915 563.209 155.141C563.209 155.141 579.785 116.189 587.555 109.196C595.326 102.203 603.096 99.2956 603.096 99.2956V104.793L597.916 109.714C597.916 109.714 604.65 123.024 594.031 126.47C594.031 126.47 590.129 202.428 561.258 193.757" stroke="#07294A" stroke-width="0.491359" stroke-linecap="round" stroke-linejoin="round"/>
<path d="M405.716 176.317C405.716 176.317 436.692 235.109 429.673 259.943C422.654 284.777 333.16 308.174 333.16 308.174L326.141 318.703L313.272 262.55L361.233 239.153L362.762 160.589" fill="#DFEFFF"/>
<path d="M395.31 163.147C395.31 163.147 403.182 291.637 380.948 352.473L385.592 359.296H346.045C346.045 359.296 341.725 195.864 341.725 160.589L395.31 163.147Z" fill="#F0F8FF"/>
<path d="M383.448 63.7324V80.431L362.762 85.5154V57.3357L383.448 52.2512V63.7324Z" fill="#F0F8FF"/>
<path d="M371.763 69.5098C372.068 69.5098 372.316 69.2621 372.316 68.9567C372.316 68.6512 372.068 68.4036 371.763 68.4036C371.457 68.4036 371.209 68.6512 371.209 68.9567C371.209 69.2621 371.457 69.5098 371.763 69.5098Z" fill="#07294A"/>
<path d="M380.258 69.5098C380.563 69.5098 380.811 69.2621 380.811 68.9567C380.811 68.6512 380.563 68.4036 380.258 68.4036C379.952 68.4036 379.705 68.6512 379.705 68.9567C379.705 69.2621 379.952 69.5098 380.258 69.5098Z" fill="#07294A"/>
<path d="M377.765 72.2564V63.7324H382.036" stroke="#07294A" stroke-width="0.491359" stroke-linecap="round" stroke-linejoin="round"/>
<path d="M370.721 63.7323H374.991" stroke="#07294A" stroke-width="0.491359" stroke-linecap="round" stroke-linejoin="round"/>
<path d="M364.124 68.0997V71.0597C362.528 71.0597 361.233 69.7654 361.233 68.1687C361.233 68.08 361.237 67.9922 361.245 67.9055C361.407 66.1103 364.124 66.2972 364.124 68.0997Z" fill="#F0F8FF"/>
<path d="M364.124 71.0598C362.528 71.0598 361.233 69.7654 361.233 68.1687" stroke="#07294A" stroke-width="0.491359" stroke-linecap="round" stroke-linejoin="round"/>
<path d="M375.898 74.3575C374.282 74.3575 372.972 73.0474 372.972 71.4314" stroke="#79C9E7" stroke-width="0.491359" stroke-linecap="round" stroke-linejoin="round"/>
<path d="M383.448 80.4309L362.762 85.5152" stroke="#07294A" stroke-width="0.491359" stroke-linecap="round" stroke-linejoin="round"/>
<path d="M377.765 72.2629L375.898 72.722" stroke="#07294A" stroke-width="0.491359" stroke-linecap="round" stroke-linejoin="round"/>
<path d="M362.001 66.7852C362.001 66.7852 355.711 52.4357 369.295 52.2513C369.295 52.2513 380.605 46.0872 385.219 49.987C389.834 53.8867 383.448 60.7762 383.448 60.7762" stroke="#07294A" stroke-width="0.491359" stroke-linecap="round" stroke-linejoin="round"/>
<path d="M364.059 67.6422C364.059 67.6422 366.241 65.7808 367.346 61.8161C367.346 61.8161 381.092 59.9962 383.448 55.7065" stroke="#07294A" stroke-width="0.491359" stroke-linecap="round" stroke-linejoin="round"/>
<path d="M341.725 115.418V160.589L405.716 176.317V126.009C405.716 108.17 393.538 92.6359 376.215 88.3782H376.215C367.907 86.3364 359.122 88.2267 352.39 93.5048C345.657 98.7829 341.725 106.863 341.725 115.418V115.418Z" fill="#79C9E7"/>
<path d="M395.31 163.147C395.31 163.147 403.182 291.637 380.948 352.473" stroke="#07294A" stroke-width="0.491359" stroke-linecap="round" stroke-linejoin="round"/>
<path d="M358.634 89.7646C358.634 89.7646 337.217 97.397 332.783 133.088C332.783 133.088 303.117 88.9907 290.481 91.3184C277.845 93.646 278.177 97.6363 280.838 98.3013C283.498 98.9663 287.488 97.9688 287.488 97.9688C287.488 97.9688 282.038 108.036 295.801 108.277C295.801 108.277 295.469 172.121 329.718 176.111C363.968 180.102 370.721 142.859 370.721 142.859" stroke="#07294A" stroke-width="0.491359" stroke-linecap="round" stroke-linejoin="round"/>
<path d="M396.663 101.116C396.663 101.116 408.688 117.396 414.928 133.088C414.928 133.088 419.087 89.7757 422.727 87.5601C426.367 85.3444 427.407 88.7241 427.407 88.7241C427.407 88.7241 441.186 82.0463 440.926 85.5152C440.666 88.9841 431.559 98.3483 431.559 98.3483C431.559 98.3483 442.745 143.06 433.646 155.019C424.547 166.978 405.716 167.238 405.716 167.238" stroke="#07294A" stroke-width="0.491359" stroke-linecap="round" stroke-linejoin="round"/>
<path d="M1075.66 44.4805H975.608V78.1974H1075.66L1085.4 61.339L1075.66 44.4805V44.4805Z" fill="#79C9E7"/>
<path d="M975.608 78.1973H1075.66L1085.4 61.3389" fill="#79C9E7"/>
<path d="M965.723 134.761H1065.78V101.044H965.723L955.99 117.903L965.723 134.761V134.761Z" fill="#07294A"/>
<path d="M1065.78 101.044H965.723L955.99 117.903" fill="#07294A"/>
<path d="M1020.69 29.4898C1023.75 29.4898 1026.23 27.0111 1026.23 23.9535C1026.23 20.8959 1023.75 18.4172 1020.69 18.4172C1017.64 18.4172 1015.16 20.8959 1015.16 23.9535C1015.16 27.0111 1017.64 29.4898 1020.69 29.4898Z" fill="#F0F8FF"/>
<path d="M1020.69 29.4897V210.849" stroke="#07294A" stroke-width="0.367848" stroke-linecap="round" stroke-linejoin="round"/>
<path fill-rule="evenodd" clip-rule="evenodd" d="M1020.69 29.4898C1023.75 29.4898 1026.23 27.0111 1026.23 23.9535C1026.23 20.8959 1023.75 18.4172 1020.69 18.4172C1017.64 18.4172 1015.16 20.8959 1015.16 23.9535C1015.16 27.0111 1017.64 29.4898 1020.69 29.4898Z" stroke="#07294A" stroke-width="0.367848" stroke-linecap="round" stroke-linejoin="round"/>
<path d="M-7.50366 199.495H125.65L74.5989 85.8564H-7.50366V199.495V199.495Z" fill="#79C9E7"/>
<rect x="180.728" y="199.495" width="86.839" height="16.2341" transform="rotate(-180 180.728 199.495)" fill="#F0F8FF"/>
<rect x="166.228" y="183.261" width="86.839" height="16.2341" transform="rotate(-180 166.228 183.261)" fill="#F0F8FF"/>
<rect x="151.728" y="167.027" width="86.839" height="16.2341" transform="rotate(-180 151.728 167.027)" fill="#F0F8FF"/>
<rect x="137.228" y="150.793" width="86.839" height="16.2341" transform="rotate(-180 137.228 150.793)" fill="#F0F8FF"/>
<rect x="122.728" y="134.559" width="86.839" height="16.2341" transform="rotate(-180 122.728 134.559)" fill="#F0F8FF"/>
<rect x="108.228" y="118.324" width="86.839" height="16.2341" transform="rotate(-180 108.228 118.324)" fill="#F0F8FF"/>
<rect x="93.7285" y="102.09" width="86.839" height="16.2341" transform="rotate(-180 93.7285 102.09)" fill="#F0F8FF"/>
<path d="M180.728 183.261H93.8889V199.495H180.728" stroke="#07294A" stroke-width="0.68888" stroke-linecap="round" stroke-linejoin="round"/>
<path d="M166.228 167.027H79.3889V183.261H166.228" stroke="#07294A" stroke-width="0.68888" stroke-linecap="round" stroke-linejoin="round"/>
<path d="M151.728 150.792H64.8889V167.027H151.728" stroke="#07294A" stroke-width="0.68888" stroke-linecap="round" stroke-linejoin="round"/>
<path d="M137.228 134.558H50.3894V150.792H137.228" stroke="#07294A" stroke-width="0.68888" stroke-linecap="round" stroke-linejoin="round"/>
<path d="M122.728 118.324H35.8894V134.558H122.728" stroke="#07294A" stroke-width="0.68888" stroke-linecap="round" stroke-linejoin="round"/>
<path d="M108.228 102.09H21.3894V118.324" stroke="#07294A" stroke-width="0.68888" stroke-linecap="round" stroke-linejoin="round"/>
<path d="M93.7287 85.8564H6.8894V102.09H93.7287" stroke="#07294A" stroke-width="0.68888" stroke-linecap="round" stroke-linejoin="round"/>
<path d="M185.88 199.495H-12.6555" stroke="#07294A" stroke-width="0.68888" stroke-linecap="round" stroke-linejoin="round"/>
<path d="M114.79 68.6868V85.8564H97.6199" stroke="#07294A" stroke-width="0.68888" stroke-linecap="round" stroke-linejoin="round"/>
<path d="M58.4351 29.502L114.789 85.8563" stroke="#07294A" stroke-width="0.68888" stroke-linecap="round" stroke-linejoin="round"/>
</g>
<defs>
<linearGradient id="paint0_linear_928_15564" x1="599.999" y1="-1.70972" x2="599.999" y2="221.513" gradientUnits="userSpaceOnUse">
<stop stop-color="#FDFFAA" stop-opacity="0"/>
<stop offset="1" stop-color="#FDFFAA"/>
</linearGradient>
<clipPath id="clip0_928_15564">
<rect width="1200" height="200" fill="white"/>
</clipPath>
</defs>
</svg>
