<svg width="1200" height="200" viewBox="0 0 1200 200" fill="none" xmlns="http://www.w3.org/2000/svg">
<g clip-path="url(#clip0_994_61191)">
<g opacity="0.5">
<path fill-rule="evenodd" clip-rule="evenodd" d="M250.419 30.374C250.419 15.608 262.39 3.6377 277.156 3.6377H531.083C545.849 3.6377 557.819 15.608 557.819 30.3741V50.0548C557.819 59.8989 565.799 67.879 575.643 67.879H732.169C732.454 67.879 732.737 67.8835 733.019 67.8923C743.896 68.232 757.443 68.0175 766.797 62.4578C774.943 57.6161 784.447 54.8323 794.542 54.8323C819.762 54.8323 841.287 72.2041 847.188 95.6344C847.834 98.1998 850.213 100 852.859 100V100C856.617 100 860.267 100.509 863.741 101.462C864.704 101.727 865.677 100.999 865.677 100V100C865.677 64.0116 895.124 34.8372 931.449 34.8372C967.774 34.8372 997.221 64.0116 997.221 100C997.221 135.988 967.774 165.163 931.449 165.163C925.738 165.163 920.197 164.442 914.913 163.086C902.987 160.026 887.85 165.222 878.123 172.77C871.125 178.2 862.336 181.439 852.859 181.439C842.633 181.439 833.209 177.669 825.972 171.445C818.75 165.233 808.717 161.297 799.226 162.115C797.681 162.248 796.119 162.316 794.542 162.316C788.29 162.316 782.264 161.248 776.647 159.284C769.025 156.62 758.906 161.552 758.906 169.626V169.626C758.906 184.392 746.935 196.362 732.169 196.362H487.872C473.105 196.362 461.135 184.392 461.135 169.626V149.945C461.135 140.101 453.155 132.121 443.311 132.121H322.908C314.832 132.121 308.017 137.729 304.089 144.785C294.467 162.074 275.89 173.786 254.553 173.786C234.365 173.786 216.649 163.301 206.649 147.529C200.309 137.529 182.528 129.653 170.688 129.653V129.653V129.653C156.48 129.653 131.754 136.166 117.729 138.44C116.26 138.678 114.754 138.802 113.222 138.802C97.8627 138.802 85.1513 126.35 85.1513 110.991C85.1513 95.6313 97.8627 83.1799 113.222 83.1799V83.1799C120.591 83.1799 130.35 78.2006 133.541 71.5585C140.171 57.7604 154.414 48.2141 170.688 48.2141C179.612 48.2141 187.925 51.0849 194.708 55.9533C204.872 63.2494 224.749 68.5804 236.627 64.6484V64.6484C243.981 62.214 250.419 55.92 250.419 48.1735V30.374ZM60.1238 42.0418C46.275 42.0418 34.814 53.2685 34.814 67.1172C34.814 80.966 46.275 92.1926 60.1238 92.1926C73.9726 92.1926 85.4336 80.966 85.4336 67.1172C85.4336 53.2685 73.9726 42.0418 60.1238 42.0418ZM309.203 163.532C309.203 149.684 320.664 138.457 334.513 138.457C348.362 138.457 359.823 149.684 359.823 163.532C359.823 177.381 348.362 188.608 334.513 188.608C320.664 188.608 309.203 177.381 309.203 163.532ZM1134.59 88.7516C1151.49 88.7516 1165.18 75.18 1165.18 58.4387C1165.18 41.6974 1151.49 28.1259 1134.59 28.1259C1117.69 28.1259 1103.99 41.6974 1103.99 58.4387C1103.99 61.5144 1104.45 64.4831 1105.31 67.2803C1106 69.5276 1103.6 72.4754 1101.25 72.4754V72.4754C1090.46 72.4754 1081.7 81.1456 1081.7 91.8408C1081.7 102.536 1090.46 111.206 1101.25 111.206C1112.05 111.206 1120.8 102.536 1120.8 91.8408V91.8408C1120.8 89.4324 1123.79 86.9101 1126.1 87.5709C1128.8 88.3397 1131.64 88.7516 1134.59 88.7516ZM1044.92 148.163C1044.92 146.576 1042.74 145.215 1041.37 146.015C1036.82 148.667 1031.52 150.188 1025.87 150.188C1008.97 150.188 995.271 136.616 995.271 119.875C995.271 103.134 1008.97 89.5621 1025.87 89.5621C1042.76 89.5621 1056.46 103.134 1056.46 119.875C1056.46 120.288 1056.45 120.699 1056.44 121.108C1056.3 124.465 1061.11 128.798 1064.47 128.798V128.798C1075.26 128.798 1084.01 137.468 1084.01 148.163C1084.01 158.858 1075.26 167.529 1064.47 167.529C1053.67 167.529 1044.92 158.858 1044.92 148.163V148.163ZM579.123 63.1221C588.207 63.1221 595.571 55.8265 595.571 46.8269C595.571 37.8274 588.207 30.5318 579.123 30.5318C570.04 30.5318 562.676 37.8274 562.676 46.8269C562.676 55.8265 570.04 63.1221 579.123 63.1221Z" fill="url(#paint0_linear_994_61191)"/>
</g>
<path d="M939.987 19.6454C935.731 19.6454 932.281 16.1956 932.281 11.9401C932.281 7.68463 935.731 4.23486 939.987 4.23486C944.242 4.23486 947.692 7.68463 947.692 11.9401C947.692 16.1956 944.242 19.6454 939.987 19.6454Z" fill="#F0F8FF"/>
<path d="M939.765 112.968C931.8 112.968 925.343 106.511 925.343 98.5463C925.343 90.5814 931.8 84.1245 939.765 84.1245C947.73 84.1245 954.187 90.5814 954.187 98.5463C954.187 106.511 947.73 112.968 939.765 112.968Z" fill="#07294A"/>
<path d="M939.765 12.1074H939.765C929.824 12.1074 920.29 16.0566 913.261 23.0861C906.231 30.1156 902.282 39.6497 902.282 49.591V91.2685H977.249V49.591C977.249 39.6497 973.3 30.1156 966.27 23.0861C959.241 16.0566 949.707 12.1074 939.765 12.1074Z" fill="#0071CB"/>
<path d="M894.837 91.2685V91.2685C898.949 91.2685 902.282 87.9356 902.282 83.8242V49.591C902.282 39.6497 906.231 30.1156 913.26 23.0861C920.29 16.0566 929.824 12.1074 939.765 12.1074H939.765C949.707 12.1074 959.241 16.0566 966.27 23.0861C973.3 30.1156 977.249 39.6497 977.249 49.591V83.8242C977.249 87.9356 980.582 91.2685 984.693 91.2685H984.693C987.159 91.2685 989.158 93.2676 989.158 95.7336V96.2618C989.158 98.7278 987.159 100.727 984.693 100.727H894.837C892.371 100.727 890.372 98.7278 890.372 96.2618V95.7337C890.372 94.5495 890.843 93.4137 891.68 92.5763C892.517 91.739 893.653 91.2685 894.837 91.2685V91.2685Z" fill="#DFEFFF"/>
<path d="M894.837 91.2684C898.949 91.2684 902.282 87.9354 902.282 83.824V49.5908" stroke="#07294A" stroke-width="0.529563"/>
<rect width="98.7863" height="9.45837" rx="4.70014" transform="matrix(-1 0 0 1 989.159 91.2686)" fill="#79C9E7"/>
<path d="M894.837 100.727H984.693" stroke="#07294A" stroke-width="0.529563"/>
<path d="M1107.62 90.7018C1105.32 90.7018 1103.47 88.8438 1103.47 86.5518C1103.47 84.2599 1105.32 82.4019 1107.62 82.4019C1109.91 82.4019 1111.77 84.2599 1111.77 86.5518C1111.77 88.8438 1109.91 90.7018 1107.62 90.7018Z" fill="#79C9E7"/>
<path d="M1107.62 22.251V74.6892" stroke="#07294A" stroke-width="0.529563"/>
<path d="M1107.62 63.187L1129.92 85.4931H1085.31L1107.62 63.187V63.187Z" fill="#F0F8FF"/>
<path d="M1129.92 85.4931H1085.31L1107.62 63.187" stroke="#07294A" stroke-width="0.529563"/>
<path d="M973.335 248.037C972.798 194.911 995.255 131.876 995.255 131.876L1011.43 122.735L1015.19 182.837L995.255 258.77L966.627 250.72L973.335 248.037Z" fill="#79C9E7"/>
<path d="M993.02 195.716C993.02 177.459 1001.44 161.785 1013.45 155.015L1015.19 182.837L1003.42 227.688C997.01 219.629 993.02 208.285 993.02 195.716Z" fill="#07294A"/>
<path d="M1002.41 122.814C1002.41 122.814 996.998 211.22 1012.3 253.076L1009.1 257.771H1036.31C1036.31 257.771 1039.28 145.325 1039.28 121.055L1002.41 122.814Z" fill="#79C9E7"/>
<path d="M1011.45 54.4146V65.9037L1025.68 69.4018V50.0136L1011.45 46.5151V54.4146V54.4146Z" fill="#F0F8FF"/>
<path d="M1019.49 58.3895C1019.28 58.3895 1019.11 58.2191 1019.11 58.009C1019.11 57.7988 1019.28 57.6284 1019.49 57.6284C1019.7 57.6284 1019.87 57.7988 1019.87 58.009C1019.87 58.2191 1019.7 58.3895 1019.49 58.3895Z" fill="#07294A"/>
<path d="M1013.64 58.3895C1013.43 58.3895 1013.26 58.2191 1013.26 58.009C1013.26 57.7988 1013.43 57.6284 1013.64 57.6284C1013.86 57.6284 1014.03 57.7988 1014.03 58.009C1014.03 58.2191 1013.86 58.3895 1013.64 58.3895Z" fill="#07294A"/>
<path d="M1015.36 60.2792V54.4146H1012.42" stroke="#07294A" stroke-width="0.529563"/>
<path d="M1020.21 54.4148H1017.27" stroke="#07294A" stroke-width="0.529563"/>
<path d="M1024.74 57.4196V59.4561C1025.84 59.4561 1026.73 58.5656 1026.73 57.467C1026.73 57.406 1026.73 57.3456 1026.73 57.2859C1026.61 56.0507 1024.74 56.1794 1024.74 57.4196Z" fill="#F0F8FF"/>
<path d="M1024.74 59.4559C1025.84 59.4559 1026.73 58.5654 1026.73 57.4668" stroke="#07294A" stroke-width="0.529563"/>
<path d="M1016.64 61.7247C1017.18 61.7247 1017.69 61.5126 1018.07 61.135C1018.45 60.7575 1018.66 60.2454 1018.66 59.7114" stroke="#79C9E7" stroke-width="0.529563" stroke-linecap="round" stroke-linejoin="round"/>
<path d="M1011.45 65.9038L1025.68 69.402" stroke="#07294A" stroke-width="0.529563"/>
<path d="M1015.36 60.2837L1016.64 60.5995" stroke="#07294A" stroke-width="0.529563" stroke-linecap="round"/>
<path d="M1039.28 89.9752V121.055L995.255 131.876V97.262C995.255 84.9885 1003.63 74.3007 1015.55 71.3712H1015.55C1021.27 69.9664 1027.31 71.267 1031.94 74.8985C1036.58 78.53 1039.28 84.0892 1039.28 89.9752L1039.28 89.9752Z" fill="#F0F8FF"/>
<path d="M1002.41 122.814C1002.41 122.814 996.998 211.22 1012.3 253.076" stroke="#07294A" stroke-width="0.529563"/>
<path d="M1024.75 57.4192C1024.75 57.4192 1020.47 55.8358 1021.27 50.9614H1011.08" stroke="#07294A" stroke-width="0.529563"/>
<path d="M1026.56 56.8117C1026.56 56.8117 1031.11 45.4165 1020.6 45.819C1010.09 46.2215 1009.42 46.4004 1009.06 48.2338C1008.71 50.0673 1011.45 52.0796 1011.45 52.0796" stroke="#07294A" stroke-width="0.529563"/>
<path d="M1026.73 71.9873C1026.73 71.9873 1054.36 81.4151 1058.66 107.71C1062.95 134.004 1029.68 154.664 1029.68 154.664L1020.38 141.517L1035.31 114.418L1020.38 98.0505" stroke="#07294A" stroke-width="0.529563"/>
<path d="M1029.68 154.664L1017.16 136.956" stroke="#07294A" stroke-width="0.529563"/>
<path d="M1004.43 77.134C1004.43 77.134 985.408 87.0496 982.725 105.831L976.286 81.415C976.286 81.415 978.969 76.0488 976.286 75.5122C976.286 75.5122 976.554 64.3644 969.31 69.4017C962.065 74.4389 956.433 142.322 993.19 138.029" stroke="#07294A" stroke-width="0.529563"/>
<path d="M1141.09 183.41V258.434H1126.81V250.801H1050.22V258.434H1035.95V183.41H1141.09V183.41Z" fill="#F0F8FF"/>
<path d="M1035.95 258.434V183.41" stroke="#07294A" stroke-width="0.529563"/>
<rect width="76.5929" height="17.3222" transform="matrix(-1 0 0 1 1126.81 196.599)" fill="#D1D1D1"/>
<path d="M1050.22 196.599V213.921H1126.81" stroke="#07294A" stroke-width="0.529563"/>
<rect width="6.40634" height="43.4704" transform="matrix(-1 0 0 1 1139.41 139.906)" fill="#D1D1D1"/>
<path d="M1133.01 183.376H1139.41V139.906" stroke="#07294A" stroke-width="0.529563"/>
<path d="M1137.74 148.039H1133.01" stroke="#07294A" stroke-width="0.529563"/>
<path d="M1137.74 149.789H1133.01" stroke="#07294A" stroke-width="0.529563"/>
<path d="M1137.74 151.54H1133.01" stroke="#07294A" stroke-width="0.529563"/>
<rect width="6.40634" height="43.4704" transform="matrix(-1 0 0 1 1131.53 139.906)" fill="#F0F8FF"/>
<path d="M1125.12 183.376H1131.53V139.906" stroke="#07294A" stroke-width="0.529563"/>
<path d="M1129.85 148.039H1125.12" stroke="#07294A" stroke-width="0.529563"/>
<path d="M1129.85 149.789H1125.12" stroke="#07294A" stroke-width="0.529563"/>
<path d="M1129.85 151.54H1125.12" stroke="#07294A" stroke-width="0.529563"/>
<rect width="6.40634" height="43.4704" transform="matrix(-1 0 0 1 1123.65 139.906)" fill="#D1D1D1"/>
<path d="M1117.24 183.376H1123.65V139.906" stroke="#07294A" stroke-width="0.529563"/>
<path d="M1121.97 148.039H1117.24" stroke="#07294A" stroke-width="0.529563"/>
<path d="M1121.97 149.789H1117.24" stroke="#07294A" stroke-width="0.529563"/>
<path d="M1121.97 151.54H1117.24" stroke="#07294A" stroke-width="0.529563"/>
<rect width="6.40634" height="43.4704" transform="matrix(-1 0 0 1 1115.76 139.906)" fill="#F0F8FF"/>
<path d="M1109.35 183.376H1115.76V139.906" stroke="#07294A" stroke-width="0.529563"/>
<path d="M1114.08 148.039H1109.36" stroke="#07294A" stroke-width="0.529563"/>
<path d="M1114.08 149.789H1109.36" stroke="#07294A" stroke-width="0.529563"/>
<path d="M1114.08 151.54H1109.36" stroke="#07294A" stroke-width="0.529563"/>
<rect width="6.40634" height="43.4704" transform="matrix(-1 0 0 1 1107.88 139.906)" fill="#D1D1D1"/>
<path d="M1101.47 183.376H1107.88V139.906" stroke="#07294A" stroke-width="0.529563"/>
<path d="M1106.2 148.039H1101.47" stroke="#07294A" stroke-width="0.529563"/>
<path d="M1106.2 149.789H1101.47" stroke="#07294A" stroke-width="0.529563"/>
<path d="M1106.2 151.54H1101.47" stroke="#07294A" stroke-width="0.529563"/>
<rect width="6.40634" height="43.4704" transform="matrix(-1 0 0 1 1099.99 139.906)" fill="#F0F8FF"/>
<path d="M1093.59 183.376H1099.99V139.906" stroke="#07294A" stroke-width="0.529563"/>
<path d="M1098.32 148.039H1093.59" stroke="#07294A" stroke-width="0.529563"/>
<path d="M1098.32 149.789H1093.59" stroke="#07294A" stroke-width="0.529563"/>
<path d="M1098.32 151.54H1093.59" stroke="#07294A" stroke-width="0.529563"/>
<rect width="6.40634" height="43.4704" transform="matrix(-1 0 0 1 1092.11 139.906)" fill="#D1D1D1"/>
<path d="M1085.7 183.376H1092.11V139.906" stroke="#07294A" stroke-width="0.529563"/>
<path d="M1090.43 148.039H1085.7" stroke="#07294A" stroke-width="0.529563"/>
<path d="M1090.43 149.789H1085.7" stroke="#07294A" stroke-width="0.529563"/>
<path d="M1090.43 151.54H1085.7" stroke="#07294A" stroke-width="0.529563"/>
<rect width="6.40634" height="43.4704" transform="matrix(-1 0 0 1 1084.22 139.906)" fill="#F0F8FF"/>
<path d="M1077.82 183.376H1084.22V139.906" stroke="#07294A" stroke-width="0.529563"/>
<path d="M1082.55 148.039H1077.82" stroke="#07294A" stroke-width="0.529563"/>
<path d="M1082.55 149.789H1077.82" stroke="#07294A" stroke-width="0.529563"/>
<path d="M1082.55 151.54H1077.82" stroke="#07294A" stroke-width="0.529563"/>
<path d="M1076.99 141.655L1070.84 139.873L1058.74 181.628L1064.9 183.41L1076.99 141.655Z" fill="#D1D1D1"/>
<path d="M1058.74 181.628L1064.9 183.409L1076.99 141.655" stroke="#07294A" stroke-width="0.529563"/>
<path d="M1073.12 149L1068.57 147.685" stroke="#07294A" stroke-width="0.529563"/>
<path d="M1072.63 150.682L1068.09 149.366" stroke="#07294A" stroke-width="0.529563"/>
<path d="M1072.14 152.363L1067.6 151.047" stroke="#07294A" stroke-width="0.529563"/>
<path d="M250.745 126.038C219.705 126.038 194.542 100.875 194.542 69.835C194.542 38.7951 219.705 13.6323 250.745 13.6323C281.785 13.6323 306.948 38.7951 306.948 69.835C306.948 100.875 281.785 126.038 250.745 126.038Z" fill="#F0F8FF"/>
<path d="M250.745 12.165V127.504" stroke="#07294A" stroke-width="0.450544" stroke-linecap="round" stroke-linejoin="round"/>
<path d="M193.075 69.8348H308.415" stroke="#07294A" stroke-width="0.450544" stroke-linecap="round" stroke-linejoin="round"/>
<path d="M306.948 69.835C306.948 38.7951 281.785 13.6323 250.745 13.6323" stroke="#07294A" stroke-width="0.450544" stroke-linecap="round" stroke-linejoin="round"/>
<rect width="137.666" height="263.68" transform="matrix(-1 0 0 1 505.376 12.165)" fill="#79C9E7"/>
<path d="M401.028 144.005C397.433 144.005 394.519 141.091 394.519 137.496C394.519 133.901 397.433 130.986 401.028 130.986C404.623 130.986 407.538 133.901 407.538 137.496C407.538 141.091 404.623 144.005 401.028 144.005Z" fill="#F0F8FF"/>
<path d="M505.376 275.845V12.165H367.709" stroke="#07294A" stroke-width="0.450544" stroke-linecap="round" stroke-linejoin="round"/>
</g>
<defs>
<linearGradient id="paint0_linear_994_61191" x1="34.814" y1="100" x2="1165.18" y2="100" gradientUnits="userSpaceOnUse">
<stop stop-color="#FFF2C5"/>
<stop offset="0.2" stop-color="#FFF4BF"/>
<stop offset="0.4" stop-color="#FFF7BA"/>
<stop offset="0.6" stop-color="#FFF9B4"/>
<stop offset="0.8" stop-color="#FFFCAF"/>
<stop offset="1" stop-color="#FDFFAA"/>
</linearGradient>
<clipPath id="clip0_994_61191">
<rect width="1200" height="200" fill="white"/>
</clipPath>
</defs>
</svg>
