<svg width="950" height="159" viewBox="0 0 950 159" fill="none" xmlns="http://www.w3.org/2000/svg">
<g clip-path="url(#clip0_1039_21662)">
<g opacity="0.5">
<path fill-rule="evenodd" clip-rule="evenodd" d="M198.539 24.0207C198.539 12.3432 208.006 2.87671 219.683 2.87671H420.497C432.175 2.87671 441.641 12.3432 441.641 24.0207V39.5849C441.641 47.3699 447.952 53.6809 455.737 53.6809H579.522C579.747 53.6809 579.971 53.6844 580.194 53.6914C588.796 53.96 599.51 53.7905 606.908 49.3935C613.351 45.5646 620.866 43.3631 628.85 43.3631C648.795 43.3631 665.818 57.1019 670.484 75.632C670.995 77.66 672.875 79.0831 674.967 79.0831V79.0831C677.939 79.0831 680.827 79.4859 683.574 80.24C684.336 80.4493 685.106 79.8738 685.106 79.0831V79.0831C685.106 50.6223 708.394 27.5502 737.121 27.5502C765.848 27.5502 789.135 50.6223 789.135 79.0831C789.135 107.544 765.848 130.616 737.121 130.616C732.604 130.616 728.221 130.046 724.043 128.974C714.611 126.554 702.639 130.663 694.946 136.632C689.412 140.927 682.462 143.487 674.967 143.487C666.88 143.487 659.427 140.507 653.704 135.584C647.992 130.671 640.059 127.559 632.553 128.206C631.332 128.311 630.097 128.364 628.85 128.364C623.905 128.364 619.139 127.52 614.697 125.967C608.67 123.86 600.666 127.761 600.666 134.146V134.146C600.666 145.823 591.199 155.29 579.522 155.29H386.323C374.645 155.29 365.179 145.823 365.179 134.146V118.582C365.179 110.797 358.868 104.486 351.083 104.486H255.864C249.477 104.486 244.087 108.92 240.981 114.501C233.371 128.173 218.681 137.436 201.807 137.436C185.841 137.436 171.83 129.144 163.922 116.67C158.908 108.762 144.848 102.534 135.485 102.534V102.534V102.534C124.249 102.534 104.692 107.685 93.6008 109.483C92.4391 109.671 91.2487 109.769 90.0374 109.769C77.8906 109.769 67.838 99.922 67.838 87.7751C67.838 75.6283 77.8906 65.7813 90.0374 65.7813V65.7813C95.8655 65.7813 103.584 61.843 106.109 56.59C111.352 45.6784 122.616 38.1292 135.485 38.1292C142.542 38.1292 149.117 40.3995 154.48 44.2495C162.519 50.0196 178.237 54.2353 187.63 51.1258V51.1258C193.447 49.2004 198.539 44.2225 198.539 38.0957V24.0207ZM48.0471 33.248C37.0951 33.248 28.0312 42.1264 28.0312 53.0784C28.0312 64.0305 37.0951 72.9089 48.0471 72.9089C58.9992 72.9089 68.063 64.0305 68.063 53.0784C68.063 42.1264 58.9992 33.248 48.0471 33.248ZM245.026 129.327C245.026 118.375 254.09 109.496 265.042 109.496C275.994 109.496 285.057 118.375 285.057 129.327C285.057 140.279 275.994 149.157 265.042 149.157C254.09 149.157 245.026 140.279 245.026 129.327ZM897.768 70.1877C911.131 70.1877 921.964 59.4549 921.964 46.2153C921.964 32.9757 911.131 22.2429 897.768 22.2429C884.404 22.2429 873.571 32.9757 873.571 46.2153C873.571 48.6481 873.937 50.9962 874.617 53.2087C875.163 54.9856 873.264 57.3159 871.406 57.3159V57.3159C862.868 57.3159 855.948 64.1725 855.948 72.6306C855.948 81.0888 862.868 87.9454 871.406 87.9454C879.943 87.9454 886.864 81.0888 886.864 72.6306V72.6306C886.864 70.7261 889.227 68.7318 891.059 69.2543C893.189 69.8621 895.44 70.1877 897.768 70.1877ZM826.857 117.172C826.857 115.917 825.132 114.84 824.048 115.473C820.453 117.57 816.262 118.773 811.788 118.773C798.424 118.773 787.591 108.041 787.591 94.8011C787.591 81.5615 798.424 70.8287 811.788 70.8287C825.151 70.8287 835.984 81.5615 835.984 94.8011C835.984 95.1272 835.977 95.4518 835.964 95.7747C835.857 98.4295 839.658 101.857 842.315 101.857V101.857C850.853 101.857 857.773 108.714 857.773 117.172C857.773 125.63 850.853 132.487 842.315 132.487C833.778 132.487 826.857 125.63 826.857 117.172V117.172ZM458.488 49.9188C465.672 49.9188 471.495 44.1493 471.495 37.0321C471.495 29.9149 465.672 24.1454 458.488 24.1454C451.304 24.1454 445.481 29.9149 445.481 37.0321C445.481 44.1493 451.304 49.9188 458.488 49.9188Z" fill="#F6F6F6"/>
</g>
<path d="M333.051 139.437C366.339 139.437 393.324 112.452 393.324 79.1636C393.324 45.8756 366.339 18.8903 333.051 18.8903C299.763 18.8903 272.777 45.8756 272.777 79.1636C272.777 112.452 299.763 139.437 333.051 139.437Z" fill="white"/>
<path d="M333.052 17.317V141.01" stroke="#07294A" stroke-width="0.483177" stroke-linecap="round" stroke-linejoin="round"/>
<path d="M394.896 79.1636H271.203" stroke="#07294A" stroke-width="0.483177" stroke-linecap="round" stroke-linejoin="round"/>
<path d="M272.777 79.1636C272.777 45.8756 299.763 18.8903 333.051 18.8903" stroke="#07294A" stroke-width="0.483177" stroke-linecap="round" stroke-linejoin="round"/>
<path d="M472.645 51.9838C472.645 51.9838 459.554 62.5226 457.281 65.791C457.281 65.791 449.181 53.1437 445.344 54.8489C441.507 56.5542 437.528 60.2489 438.807 60.5331C440.086 60.8173 442.076 60.1068 442.076 60.1068C442.076 60.1068 442.485 64.6542 444.767 64.37" stroke="#07294A" stroke-width="0.356305" stroke-linecap="round" stroke-linejoin="round"/>
<path d="M500.451 101.605C500.451 101.605 506.189 195.249 489.984 239.585L493.369 244.558H464.548C464.548 244.558 461.399 125.45 461.399 99.7413L500.451 101.605Z" fill="#79C9E7"/>
<path d="M485.484 162.424L484.123 95.4957L508.036 99.7414C508.036 99.7414 531.304 170.523 510.842 188.001C490.38 205.479 454.145 208.037 454.145 208.037L449.456 215.284L444.767 183.312L485.484 162.424Z" fill="#79C9E7"/>
<path d="M508.036 99.7413C508.036 99.7413 531.304 170.523 510.842 188.001C490.38 205.479 454.145 208.037 454.145 208.037" stroke="#07294A" stroke-width="0.356305" stroke-linecap="round" stroke-linejoin="round"/>
<path d="M479.983 29.1526V41.3221L495.059 45.0277V24.4904L479.983 20.7852V29.1526Z" fill="#F0F8FF"/>
<path d="M488.499 33.3631C488.277 33.3631 488.096 33.1826 488.096 32.96C488.096 32.7374 488.277 32.5569 488.499 32.5569C488.722 32.5569 488.902 32.7374 488.902 32.96C488.902 33.1826 488.722 33.3631 488.499 33.3631Z" fill="#07294A"/>
<path d="M482.308 33.3631C482.085 33.3631 481.905 33.1826 481.905 32.96C481.905 32.7374 482.085 32.5569 482.308 32.5569C482.53 32.5569 482.711 32.7374 482.711 32.96C482.711 33.1826 482.53 33.3631 482.308 33.3631Z" fill="#07294A"/>
<path d="M484.121 35.3646V29.1526H481.009" stroke="#07294A" stroke-width="0.356305" stroke-linecap="round" stroke-linejoin="round"/>
<path d="M489.258 29.1525H486.146" stroke="#07294A" stroke-width="0.356305" stroke-linecap="round" stroke-linejoin="round"/>
<path d="M494.065 32.3355V34.4927C495.229 34.4927 496.172 33.5494 496.172 32.3857C496.172 32.3211 496.169 32.2572 496.163 32.194C496.045 30.8856 494.065 31.0218 494.065 32.3355Z" fill="#F0F8FF"/>
<path d="M494.065 34.4927C495.229 34.4927 496.172 33.5494 496.172 32.3857" stroke="#07294A" stroke-width="0.356305" stroke-linecap="round" stroke-linejoin="round"/>
<path d="M485.485 36.896C486.662 36.896 487.617 35.9412 487.617 34.7634" stroke="#79C9E7" stroke-width="0.356305" stroke-linecap="round" stroke-linejoin="round"/>
<path d="M479.983 41.3223L495.059 45.0277" stroke="#07294A" stroke-width="0.356305" stroke-linecap="round" stroke-linejoin="round"/>
<path d="M484.123 35.3695L485.484 35.704" stroke="#07294A" stroke-width="0.356305" stroke-linecap="round" stroke-linejoin="round"/>
<path d="M494.062 32.3354C494.062 32.3354 491.999 30.4069 492.094 25.4806H479.979" stroke="#07294A" stroke-width="0.356305" stroke-linecap="round" stroke-linejoin="round"/>
<path d="M479.983 27.7069C479.983 27.7069 476.987 26.0491 478.692 19.7491C478.692 19.7491 491.955 16.8122 495.887 23.728L496.597 21.2175C496.597 21.2175 503.042 32.4438 495.059 37.9859" stroke="#07294A" stroke-width="0.356305" stroke-linecap="round" stroke-linejoin="round"/>
<path d="M508.035 66.8204V99.7412L461.398 111.204V74.5389C461.398 61.5382 470.274 50.2171 482.899 47.1141H482.899C488.953 45.626 495.356 47.0037 500.263 50.8504C505.169 54.697 508.035 60.5857 508.035 66.8204V66.8204Z" fill="#F0F8FF"/>
<path d="M465.617 82.6098L458.986 56.2227C458.986 56.2227 445.912 57.549 443.07 65.6963C443.07 65.6963 436.818 61.3384 430.565 63.0437L440.986 91.2752L457.727 94.9717" fill="#79C9E7"/>
<path d="M502.768 53.1779C502.768 53.1779 519.048 67.0225 509.006 96.7698C498.964 126.517 445.978 91.6307 446.669 82.1804C447.119 76.0225 454.144 80.8443 454.144 80.8443C454.144 80.8443 454.319 77.1082 455.645 79.2909C456.972 81.4737 457.327 82.5574 457.327 82.5574L487.616 82.7488L487.701 69.1068" stroke="#07294A" stroke-width="0.356305" stroke-linecap="round" stroke-linejoin="round"/>
<path d="M444.767 82.9857C444.767 82.9857 443.07 105.865 461.828 103.875" stroke="#07294A" stroke-width="0.356305" stroke-linecap="round" stroke-linejoin="round"/>
<path d="M580.969 36.0194C580.969 49.9959 569.639 61.3261 555.662 61.3261C541.686 61.3261 530.355 49.9959 530.355 36.0194C530.355 22.043 541.686 10.7128 555.662 10.7128C569.639 10.7128 580.969 22.043 580.969 36.0194ZM547.742 29.7963H550.35C550.787 29.7963 551.134 29.4401 551.193 29.0073C551.474 26.9318 552.899 25.4189 555.438 25.4189C557.607 25.4189 559.595 26.5032 559.595 29.1135C559.595 31.1215 558.41 32.0452 556.543 33.4508C554.414 34.9969 552.727 36.8041 552.848 39.7357L552.857 40.4216C552.863 40.8541 553.216 41.2016 553.648 41.2016H556.214C556.65 41.2016 557.004 40.8475 557.004 40.4107V40.0771C557.004 37.8081 557.868 37.1454 560.197 35.3784C562.125 33.9126 564.133 32.2861 564.133 28.8726C564.133 24.0936 560.097 21.7844 555.679 21.7844C551.671 21.7844 547.278 23.6527 546.979 29.0163C546.955 29.4472 547.311 29.7963 547.742 29.7963ZM555.097 50.1772C557.025 50.1772 558.35 48.9323 558.35 47.2456C558.35 45.4986 557.025 44.2738 555.097 44.2738C553.25 44.2738 551.904 45.4986 551.904 47.2456C551.904 48.9323 553.25 50.1772 555.097 50.1772Z" fill="#79C9E7"/>
</g>
<defs>
<clipPath id="clip0_1039_21662">
<rect width="949" height="158.167" fill="white" transform="translate(0.5)"/>
</clipPath>
</defs>
</svg>
