<svg width="1200" height="200" viewBox="0 0 1200 200" fill="none" xmlns="http://www.w3.org/2000/svg">
<g clip-path="url(#clip0_976_16427)">
<g opacity="0.5">
<path fill-rule="evenodd" clip-rule="evenodd" d="M250.419 30.374C250.419 15.608 262.39 3.6377 277.156 3.6377H531.083C545.849 3.6377 557.819 15.608 557.819 30.3741V50.0548C557.819 59.8989 565.799 67.879 575.643 67.879H732.169C732.454 67.879 732.737 67.8835 733.019 67.8923C743.896 68.232 757.443 68.0175 766.797 62.4578C774.943 57.6161 784.447 54.8323 794.542 54.8323C819.762 54.8323 841.287 72.2041 847.188 95.6344C847.834 98.1998 850.213 100 852.859 100V100C856.617 100 860.267 100.509 863.741 101.462C864.704 101.727 865.677 100.999 865.677 100V100C865.677 64.0116 895.124 34.8372 931.449 34.8372C967.774 34.8372 997.221 64.0116 997.221 100C997.221 135.988 967.774 165.163 931.449 165.163C925.738 165.163 920.197 164.442 914.913 163.086C902.987 160.026 887.85 165.222 878.123 172.77C871.125 178.2 862.336 181.439 852.859 181.439C842.633 181.439 833.209 177.669 825.972 171.445C818.75 165.233 808.717 161.297 799.226 162.115C797.681 162.248 796.119 162.316 794.542 162.316C788.29 162.316 782.264 161.248 776.647 159.284C769.025 156.62 758.906 161.552 758.906 169.626V169.626C758.906 184.392 746.935 196.362 732.169 196.362H487.872C473.105 196.362 461.135 184.392 461.135 169.626V149.945C461.135 140.101 453.155 132.121 443.311 132.121H322.908C314.832 132.121 308.017 137.729 304.089 144.785C294.467 162.074 275.89 173.786 254.553 173.786C234.365 173.786 216.649 163.301 206.649 147.529C200.309 137.529 182.528 129.653 170.688 129.653V129.653V129.653C156.48 129.653 131.754 136.166 117.729 138.44C116.26 138.678 114.754 138.802 113.222 138.802C97.8627 138.802 85.1513 126.35 85.1513 110.991C85.1513 95.6313 97.8627 83.1799 113.222 83.1799V83.1799C120.591 83.1799 130.35 78.2006 133.541 71.5585C140.171 57.7604 154.414 48.2141 170.688 48.2141C179.612 48.2141 187.925 51.0849 194.708 55.9533C204.872 63.2494 224.749 68.5804 236.627 64.6484V64.6484C243.981 62.214 250.419 55.92 250.419 48.1735V30.374ZM60.1238 42.0418C46.275 42.0418 34.814 53.2685 34.814 67.1172C34.814 80.966 46.275 92.1926 60.1238 92.1926C73.9726 92.1926 85.4336 80.966 85.4336 67.1172C85.4336 53.2685 73.9726 42.0418 60.1238 42.0418ZM309.203 163.532C309.203 149.684 320.664 138.457 334.513 138.457C348.362 138.457 359.823 149.684 359.823 163.532C359.823 177.381 348.362 188.608 334.513 188.608C320.664 188.608 309.203 177.381 309.203 163.532ZM1134.59 88.7516C1151.49 88.7516 1165.18 75.18 1165.18 58.4387C1165.18 41.6974 1151.49 28.1259 1134.59 28.1259C1117.69 28.1259 1103.99 41.6974 1103.99 58.4387C1103.99 61.5144 1104.45 64.4831 1105.31 67.2803C1106 69.5276 1103.6 72.4754 1101.25 72.4754V72.4754C1090.46 72.4754 1081.7 81.1456 1081.7 91.8408C1081.7 102.536 1090.46 111.206 1101.25 111.206C1112.05 111.206 1120.8 102.536 1120.8 91.8408V91.8408C1120.8 89.4324 1123.79 86.9101 1126.1 87.5709C1128.8 88.3397 1131.64 88.7516 1134.59 88.7516ZM1044.92 148.163C1044.92 146.576 1042.74 145.215 1041.37 146.015C1036.82 148.667 1031.52 150.188 1025.87 150.188C1008.97 150.188 995.271 136.616 995.271 119.875C995.271 103.134 1008.97 89.5621 1025.87 89.5621C1042.76 89.5621 1056.46 103.134 1056.46 119.875C1056.46 120.288 1056.45 120.699 1056.44 121.108C1056.3 124.465 1061.11 128.798 1064.47 128.798V128.798C1075.26 128.798 1084.01 137.468 1084.01 148.163C1084.01 158.858 1075.26 167.529 1064.47 167.529C1053.67 167.529 1044.92 158.858 1044.92 148.163V148.163ZM579.123 63.1221C588.207 63.1221 595.571 55.8265 595.571 46.8269C595.571 37.8274 588.207 30.5318 579.123 30.5318C570.04 30.5318 562.676 37.8274 562.676 46.8269C562.676 55.8265 570.04 63.1221 579.123 63.1221Z" fill="url(#paint0_linear_976_16427)"/>
</g>
<path d="M600.102 176.317C642.194 176.317 676.317 142.194 676.317 100.102C676.317 58.0093 642.194 23.8867 600.102 23.8867C558.009 23.8867 523.887 58.0093 523.887 100.102C523.887 142.194 558.009 176.317 600.102 176.317Z" fill="#F0F8FF"/>
<path d="M600.102 21.8975V178.306" stroke="#07294A" stroke-width="0.610972" stroke-linecap="round" stroke-linejoin="round"/>
<path d="M678.306 100.102H521.897" stroke="#07294A" stroke-width="0.610972" stroke-linecap="round" stroke-linejoin="round"/>
<path d="M523.887 100.102C523.887 58.0093 558.009 23.8867 600.102 23.8867" stroke="#07294A" stroke-width="0.610972" stroke-linecap="round" stroke-linejoin="round"/>
<path d="M605.695 301.911C604.082 245.991 629.088 141.032 629.088 141.032L663.241 117.484V227.172L631.064 309.234H600.953L605.695 301.911Z" fill="#79C9E7"/>
<path d="M629.088 227.412C629.088 185.687 641.498 151.863 656.807 151.863C659.106 151.902 661.343 152.615 663.241 153.913V227.172L639.775 287.017C633.271 273.192 629.088 251.634 629.088 227.412Z" fill="#07294A"/>
<path d="M639.234 128.925C639.234 128.925 631.998 247.039 652.437 302.961L648.167 309.234H684.52C684.52 309.234 688.492 159 688.492 126.574L639.234 128.925Z" fill="#79C9E7"/>
<path d="M648.992 37.5398V52.8897L668.008 57.5632V31.6593L648.992 26.9858V37.5398Z" fill="#F0F8FF"/>
<path d="M659.734 42.8504C659.453 42.8504 659.225 42.6227 659.225 42.3419C659.225 42.0611 659.453 41.8335 659.734 41.8335C660.015 41.8335 660.242 42.0611 660.242 42.3419C660.242 42.6227 660.015 42.8504 659.734 42.8504Z" fill="#07294A"/>
<path d="M651.925 42.8504C651.644 42.8504 651.416 42.6227 651.416 42.3419C651.416 42.0611 651.644 41.8335 651.925 41.8335C652.205 41.8335 652.433 42.0611 652.433 42.3419C652.433 42.6227 652.205 42.8504 651.925 42.8504Z" fill="#07294A"/>
<path d="M654.216 45.3748V37.5396H650.29" stroke="#07294A" stroke-width="0.450544" stroke-linecap="round" stroke-linejoin="round"/>
<path d="M660.692 37.5396H656.766" stroke="#07294A" stroke-width="0.450544" stroke-linecap="round" stroke-linejoin="round"/>
<path d="M666.755 41.5541V44.2751C668.223 44.2751 669.413 43.0853 669.413 41.6175C669.413 41.536 669.409 41.4553 669.402 41.3756C669.253 39.7253 666.755 39.8972 666.755 41.5541Z" fill="#F0F8FF"/>
<path d="M666.755 44.2753C668.223 44.2753 669.413 43.0854 669.413 41.6177" stroke="#07294A" stroke-width="0.450544" stroke-linecap="round" stroke-linejoin="round"/>
<path d="M655.933 47.3065C656.646 47.3065 657.33 47.0231 657.834 46.5187C658.339 46.0142 658.622 45.3301 658.622 44.6167" stroke="#79C9E7" stroke-width="0.450544" stroke-linecap="round" stroke-linejoin="round"/>
<path d="M663.241 56.3916L668.008 57.5631" stroke="#07294A" stroke-width="0.450544" stroke-linecap="round" stroke-linejoin="round"/>
<path d="M654.216 45.3813L655.932 45.8033" stroke="#07294A" stroke-width="0.450544" stroke-linecap="round" stroke-linejoin="round"/>
<path d="M666.004 44.2752C666.004 44.2752 667.618 57.052 657.939 57.291C648.26 57.53 647.454 51.0177 648.992 43.1909" stroke="#07294A" stroke-width="0.450544" stroke-linecap="round" stroke-linejoin="round"/>
<path d="M668.949 40.4939C668.949 40.4939 672.517 30.2857 667.438 26.1034C662.36 21.9212 646.527 25.506 647.125 29.6285C647.722 33.7509 662.001 34.0497 662.001 34.0497C662.001 34.0497 662.3 37.9929 664.332 38.6501C664.332 38.6501 664.571 42.5174 663.734 44.6166" stroke="#07294A" stroke-width="0.450544" stroke-linecap="round" stroke-linejoin="round"/>
<path d="M687.912 85.0508V126.574L629.088 141.032V94.7863C629.088 78.3883 640.283 64.1089 656.207 60.1951H656.207C663.844 58.3181 671.919 60.0558 678.108 64.9076C684.297 69.7595 687.912 77.1869 687.912 85.0508V85.0508Z" fill="#F0F8FF"/>
<path d="M642.27 109.047L637.991 93.4971L621.972 95.4687L629.088 119.487L644.018 117.484" fill="#79C9E7"/>
<path d="M639.234 128.925C639.234 128.925 631.998 247.039 652.437 302.961" stroke="#07294A" stroke-width="0.450544" stroke-linecap="round" stroke-linejoin="round"/>
<path d="M679.404 65.9961C679.404 65.9961 709.022 99.1876 702.808 126.574C696.595 153.96 633.56 129.043 632.097 117.484C630.635 105.924 641.867 113.333 641.867 113.333C641.867 113.333 641.158 107.149 643.308 109.539C645.458 111.929 647.087 113.85 647.087 113.85L672.457 110.943L666.105 96.8427" stroke="#07294A" stroke-width="0.450544" stroke-linecap="round" stroke-linejoin="round"/>
<path d="M621.971 91.941C627.886 94.8658 629.088 90.0917 629.088 90.0917C630.11 90.4501 633.359 94.0673 632.995 90.0917C632.832 87.8207 631.273 85.8907 629.088 85.2522C629.088 85.2522 613.547 81.3464 612.293 100.237C611.038 119.128 620.009 131.191 629.088 127.911" stroke="#07294A" stroke-width="0.450544" stroke-linecap="round" stroke-linejoin="round"/>
<path d="M642.958 66.5752C636.249 71.4376 630.679 77.7035 626.637 84.9368" stroke="#07294A" stroke-width="0.450544" stroke-linecap="round" stroke-linejoin="round"/>
<path d="M108.038 127.645C74.9986 127.645 48.2151 100.862 48.2151 67.8226C48.2151 34.7835 74.9986 8 108.038 8C141.077 8 167.86 34.7835 167.86 67.8226C167.86 100.862 141.077 127.645 108.038 127.645Z" fill="#79C9E7"/>
<path d="M48.2155 67.8228C48.2155 100.862 74.999 127.645 108.038 127.645" stroke="#07294A" stroke-width="0.396957" stroke-linecap="round" stroke-linejoin="round"/>
<path d="M108.038 92.1548V213.149" stroke="#07294A" stroke-width="0.396957" stroke-linecap="round" stroke-linejoin="round"/>
<path d="M86.8924 71.0093L108.038 92.1546L129.183 71.0093" stroke="#07294A" stroke-width="0.396957" stroke-linecap="round" stroke-linejoin="round"/>
<path d="M151.924 175.87C137.474 175.87 125.759 164.156 125.759 149.705C125.759 135.254 137.474 123.54 151.924 123.54C166.375 123.54 178.089 135.254 178.089 149.705C178.089 164.156 166.375 175.87 151.924 175.87Z" fill="#79C9E7"/>
<path d="M125.759 149.705C125.759 164.156 137.474 175.87 151.924 175.87" stroke="#07294A" stroke-width="0.173619" stroke-linecap="round" stroke-linejoin="round"/>
<path d="M151.925 160.347V213.267" stroke="#07294A" stroke-width="0.173619" stroke-linecap="round" stroke-linejoin="round"/>
<path d="M142.676 151.099L151.924 160.348L161.173 151.099" stroke="#07294A" stroke-width="0.173619" stroke-linecap="round" stroke-linejoin="round"/>
<g filter="url(#filter0_d_976_16427)">
<path d="M900.803 76.5427C898.516 68.0072 903.581 59.2339 912.117 56.9468L992.463 35.418C1001 33.131 1009.77 38.1963 1012.06 46.7317L1039.55 149.329C1041.84 157.865 1036.77 166.638 1028.24 168.925L947.89 190.454C939.355 192.741 930.581 187.676 928.294 179.14L900.803 76.5427Z" fill="#79C9E7"/>
<path d="M983.36 90.8048L979.38 91.8712L980.738 72.6798L985.524 71.3973L996.286 87.3413L992.306 88.4077L984.275 76.0344L984.138 76.0712L983.36 90.8048ZM981.261 83.9667L990.662 81.4477L991.439 84.3469L982.038 86.8658L981.261 83.9667Z" fill="white"/>
<path d="M969.633 81.0701C969.379 80.3965 968.94 79.9379 968.317 79.6942C967.694 79.4505 966.937 79.4482 966.045 79.6872C965.439 79.8496 964.95 80.0726 964.578 80.356C964.205 80.6336 963.947 80.951 963.804 81.3081C963.666 81.6637 963.648 82.0302 963.749 82.4076C963.822 82.7252 963.961 82.982 964.167 83.1782C964.378 83.3728 964.636 83.5214 964.939 83.624C965.241 83.7209 965.577 83.787 965.948 83.8224C966.318 83.8521 966.706 83.8585 967.112 83.8416L968.791 83.7961C969.603 83.7624 970.368 83.8026 971.085 83.9169C971.802 84.0312 972.451 84.2343 973.032 84.5261C973.613 84.8179 974.107 85.2124 974.516 85.7095C974.931 86.2051 975.239 86.8182 975.441 87.5486C975.724 88.6251 975.699 89.6308 975.367 90.5654C975.04 91.4929 974.425 92.3103 973.524 93.0176C972.626 93.7177 971.463 94.2592 970.033 94.6423C968.615 95.0223 967.322 95.1359 966.153 94.9833C964.99 94.8291 964 94.4049 963.183 93.7107C962.37 93.0092 961.78 92.0304 961.413 90.7743L965.007 89.8114C965.204 90.3896 965.505 90.8362 965.908 91.1511C966.315 91.4587 966.797 91.6452 967.354 91.7105C967.915 91.7685 968.516 91.7118 969.156 91.5402C969.785 91.3716 970.307 91.1338 970.721 90.8267C971.141 90.5181 971.436 90.1663 971.606 89.7714C971.776 89.3765 971.804 88.9675 971.691 88.5444C971.585 88.1498 971.379 87.8495 971.072 87.6436C970.772 87.4361 970.373 87.2978 969.876 87.2286C969.386 87.1579 968.799 87.1311 968.117 87.1484L966.076 87.1805C964.498 87.2171 963.178 86.9672 962.115 86.4308C961.052 85.8944 960.349 84.9764 960.007 83.6768C959.717 82.6147 959.751 81.6097 960.109 80.6616C960.474 79.712 961.1 78.8794 961.987 78.1637C962.874 77.448 963.958 76.9185 965.238 76.5753C966.542 76.226 967.74 76.1441 968.831 76.3296C969.929 76.5136 970.856 76.9303 971.612 77.5796C972.368 78.2289 972.895 79.0744 973.192 80.1163L969.633 81.0701Z" fill="white"/>
<path d="M954.245 79.7783L958.951 97.3448L955.237 98.34L950.531 80.7734L954.245 79.7783Z" fill="white"/>
<path d="M934.187 85.1528L942.009 97.3616L942.171 97.3179L942.85 82.8315L946.967 81.7283L945.618 100.917L940.832 102.2L930.061 86.2583L934.187 85.1528Z" fill="white"/>
<path d="M1017.11 46.7317C1019.4 38.1962 1028.17 33.1309 1036.71 35.418L1117.05 56.9467C1125.59 59.2338 1130.65 68.0072 1128.37 76.5426L1100.88 179.14C1098.59 187.676 1089.82 192.741 1081.28 190.454L1000.93 168.925C992.399 166.638 987.334 157.865 989.621 149.329L1017.11 46.7317Z" fill="#0071CB"/>
<path d="M1081.48 100.361L1077.5 99.2946L1088.27 83.3529L1093.05 84.6354L1094.4 103.825L1090.42 102.758L1089.65 88.0268L1089.52 87.99L1081.48 100.361ZM1083.08 93.3895L1092.48 95.9085L1091.7 98.8076L1082.3 96.2887L1083.08 93.3895Z" fill="white"/>
<path d="M1074.46 85.0672C1074.57 84.3569 1074.42 83.7405 1074 83.2179C1073.59 82.6954 1072.93 82.3146 1072.04 82.0756C1071.43 81.9131 1070.9 81.8618 1070.44 81.9215C1069.97 81.9755 1069.59 82.1212 1069.29 82.3588C1068.99 82.598 1068.79 82.9062 1068.69 83.2836C1068.6 83.5951 1068.59 83.8872 1068.67 84.1599C1068.75 84.4342 1068.9 84.6916 1069.11 84.9321C1069.33 85.1669 1069.59 85.3924 1069.89 85.6086C1070.19 85.8191 1070.53 86.0185 1070.89 86.207L1072.36 87.0072C1073.08 87.3841 1073.73 87.8013 1074.29 88.2588C1074.85 88.7163 1075.31 89.2166 1075.67 89.7597C1076.03 90.3028 1076.26 90.8919 1076.37 91.5269C1076.48 92.1635 1076.44 92.8485 1076.25 93.582C1075.95 94.6555 1075.43 95.5141 1074.67 96.1576C1073.93 96.797 1072.99 97.1976 1071.85 97.3595C1070.72 97.5171 1069.45 97.4044 1068.02 97.0214C1066.6 96.6414 1065.42 96.0932 1064.49 95.3766C1063.56 94.6617 1062.91 93.7992 1062.55 92.7894C1062.2 91.7754 1062.18 90.6327 1062.49 89.3613L1066.08 90.3243C1065.96 90.924 1066 91.4609 1066.19 91.9352C1066.39 92.4052 1066.71 92.8077 1067.16 93.1427C1067.62 93.4735 1068.17 93.7247 1068.81 93.8963C1069.44 94.0648 1070.01 94.1197 1070.52 94.0608C1071.04 94.0035 1071.47 93.8463 1071.81 93.5893C1072.16 93.3323 1072.39 92.9922 1072.5 92.5691C1072.61 92.1745 1072.58 91.8114 1072.42 91.4799C1072.26 91.1498 1071.98 90.8307 1071.59 90.5225C1071.2 90.2158 1070.7 89.8994 1070.1 89.5734L1068.32 88.5806C1066.94 87.8235 1065.92 86.9469 1065.27 85.9508C1064.61 84.9547 1064.46 83.8084 1064.82 82.5119C1065.1 81.4468 1065.63 80.5934 1066.41 79.9518C1067.2 79.3117 1068.16 78.9035 1069.29 78.7271C1070.41 78.5508 1071.62 78.6342 1072.9 78.9774C1074.2 79.3268 1075.28 79.8547 1076.13 80.5612C1076.99 81.2692 1077.58 82.0934 1077.92 83.0338C1078.25 83.9742 1078.28 84.97 1078.02 86.021L1074.46 85.0672Z" fill="white"/>
<path d="M1061.78 76.2544L1057.07 93.821L1053.35 92.8258L1058.06 75.2593L1061.78 76.2544Z" fill="white"/>
<path d="M1041.72 70.8799L1042.39 85.364L1042.55 85.4077L1050.38 73.2012L1054.5 74.3044L1043.74 90.2483L1038.95 88.9659L1037.59 69.7744L1041.72 70.8799Z" fill="white"/>
</g>
</g>
<defs>
<filter id="filter0_d_976_16427" x="896.254" y="34.8687" width="236.663" height="164.134" filterUnits="userSpaceOnUse" color-interpolation-filters="sRGB">
<feFlood flood-opacity="0" result="BackgroundImageFix"/>
<feColorMatrix in="SourceAlpha" type="matrix" values="0 0 0 0 0 0 0 0 0 0 0 0 0 0 0 0 0 0 127 0" result="hardAlpha"/>
<feOffset dy="4"/>
<feGaussianBlur stdDeviation="2"/>
<feComposite in2="hardAlpha" operator="out"/>
<feColorMatrix type="matrix" values="0 0 0 0 0 0 0 0 0 0 0 0 0 0 0 0 0 0 0.25 0"/>
<feBlend mode="normal" in2="BackgroundImageFix" result="effect1_dropShadow_976_16427"/>
<feBlend mode="normal" in="SourceGraphic" in2="effect1_dropShadow_976_16427" result="shape"/>
</filter>
<linearGradient id="paint0_linear_976_16427" x1="34.814" y1="100" x2="1165.18" y2="100" gradientUnits="userSpaceOnUse">
<stop stop-color="#79C9E7"/>
<stop offset="0.2" stop-color="#74DAE1"/>
<stop offset="0.4" stop-color="#82E8D3"/>
<stop offset="0.6" stop-color="#A3F3C1"/>
<stop offset="0.8" stop-color="#CDFBB1"/>
<stop offset="1" stop-color="#FDFFAA"/>
</linearGradient>
<clipPath id="clip0_976_16427">
<rect width="1200" height="200" fill="white"/>
</clipPath>
</defs>
</svg>
