<svg width="949" height="159" viewBox="0 0 949 159" fill="none" xmlns="http://www.w3.org/2000/svg">
<g clip-path="url(#clip0_1039_21039)">
<g opacity="0.5">
<path fill-rule="evenodd" clip-rule="evenodd" d="M198.039 24.0207C198.039 12.3432 207.506 2.87671 219.183 2.87671H419.997C431.675 2.87671 441.141 12.3432 441.141 24.0207V39.5849C441.141 47.3699 447.452 53.6809 455.237 53.6809H579.022C579.247 53.6809 579.471 53.6844 579.694 53.6914C588.296 53.96 599.01 53.7905 606.408 49.3935C612.851 45.5646 620.366 43.3631 628.35 43.3631C648.295 43.3631 665.318 57.1019 669.984 75.632C670.495 77.66 672.375 79.0831 674.467 79.0831V79.0831C677.439 79.0831 680.327 79.4859 683.074 80.24C683.836 80.4493 684.606 79.8738 684.606 79.0831V79.0831C684.606 50.6223 707.894 27.5502 736.621 27.5502C765.348 27.5502 788.635 50.6223 788.635 79.0831C788.635 107.544 765.348 130.616 736.621 130.616C732.104 130.616 727.721 130.046 723.543 128.974C714.111 126.554 702.139 130.663 694.446 136.632C688.912 140.927 681.962 143.487 674.467 143.487C666.38 143.487 658.927 140.507 653.204 135.584C647.492 130.671 639.559 127.559 632.053 128.206C630.832 128.311 629.597 128.364 628.35 128.364C623.405 128.364 618.639 127.52 614.197 125.967C608.17 123.86 600.166 127.761 600.166 134.146V134.146C600.166 145.823 590.699 155.29 579.022 155.29H385.823C374.145 155.29 364.679 145.823 364.679 134.146V118.582C364.679 110.797 358.368 104.486 350.583 104.486H255.364C248.977 104.486 243.587 108.92 240.481 114.501C232.871 128.173 218.181 137.436 201.307 137.436C185.341 137.436 171.33 129.144 163.422 116.67C158.408 108.762 144.348 102.534 134.985 102.534V102.534V102.534C123.749 102.534 104.192 107.685 93.1008 109.483C91.9391 109.671 90.7487 109.769 89.5374 109.769C77.3906 109.769 67.338 99.922 67.338 87.7751C67.338 75.6283 77.3906 65.7813 89.5374 65.7813V65.7813C95.3655 65.7813 103.084 61.843 105.609 56.59C110.852 45.6784 122.116 38.1292 134.985 38.1292C142.042 38.1292 148.617 40.3995 153.98 44.2495C162.019 50.0196 177.737 54.2353 187.13 51.1258V51.1258C192.947 49.2004 198.039 44.2225 198.039 38.0957V24.0207ZM47.5471 33.248C36.5951 33.248 27.5312 42.1264 27.5312 53.0784C27.5312 64.0305 36.5951 72.9089 47.5471 72.9089C58.4992 72.9089 67.563 64.0305 67.563 53.0784C67.563 42.1264 58.4992 33.248 47.5471 33.248ZM244.526 129.327C244.526 118.375 253.59 109.496 264.542 109.496C275.494 109.496 284.557 118.375 284.557 129.327C284.557 140.279 275.494 149.157 264.542 149.157C253.59 149.157 244.526 140.279 244.526 129.327ZM897.268 70.1877C910.631 70.1877 921.464 59.4549 921.464 46.2153C921.464 32.9757 910.631 22.2429 897.268 22.2429C883.904 22.2429 873.071 32.9757 873.071 46.2153C873.071 48.6481 873.437 50.9962 874.117 53.2087C874.663 54.9856 872.764 57.3159 870.906 57.3159V57.3159C862.368 57.3159 855.448 64.1725 855.448 72.6306C855.448 81.0888 862.368 87.9454 870.906 87.9454C879.443 87.9454 886.364 81.0888 886.364 72.6306V72.6306C886.364 70.7261 888.727 68.7318 890.559 69.2543C892.689 69.8621 894.94 70.1877 897.268 70.1877ZM826.357 117.172C826.357 115.917 824.632 114.84 823.548 115.473C819.953 117.57 815.762 118.773 811.288 118.773C797.924 118.773 787.091 108.041 787.091 94.8011C787.091 81.5615 797.924 70.8287 811.288 70.8287C824.651 70.8287 835.484 81.5615 835.484 94.8011C835.484 95.1272 835.477 95.4518 835.464 95.7747C835.357 98.4295 839.158 101.857 841.815 101.857V101.857C850.353 101.857 857.273 108.714 857.273 117.172C857.273 125.63 850.353 132.487 841.815 132.487C833.278 132.487 826.357 125.63 826.357 117.172V117.172ZM457.988 49.9188C465.172 49.9188 470.995 44.1493 470.995 37.0321C470.995 29.9149 465.172 24.1454 457.988 24.1454C450.804 24.1454 444.981 29.9149 444.981 37.0321C444.981 44.1493 450.804 49.9188 457.988 49.9188Z" fill="#F6F6F6"/>
</g>
<path d="M332.551 139.437C365.839 139.437 392.824 112.452 392.824 79.1636C392.824 45.8756 365.839 18.8903 332.551 18.8903C299.263 18.8903 272.277 45.8756 272.277 79.1636C272.277 112.452 299.263 139.437 332.551 139.437Z" fill="white"/>
<path d="M332.552 17.317V141.01" stroke="#07294A" stroke-width="0.483177" stroke-linecap="round" stroke-linejoin="round"/>
<path d="M394.396 79.1636H270.703" stroke="#07294A" stroke-width="0.483177" stroke-linecap="round" stroke-linejoin="round"/>
<path d="M272.277 79.1636C272.277 45.8756 299.263 18.8903 332.551 18.8903" stroke="#07294A" stroke-width="0.483177" stroke-linecap="round" stroke-linejoin="round"/>
<path d="M468.433 111.299L471.271 96.8771L492.41 99.8507L501.265 238.812L507.32 244.486H476.703L465.524 187.012L468.433 111.299Z" fill="#79C9E7"/>
<path d="M486.422 183.838C486.422 203.576 481.668 221.109 474.31 232.184L465.524 187.012L467.791 127.989C478.742 137.214 486.422 158.746 486.422 183.838Z" fill="#07294A"/>
<path d="M473.44 238.636L485.113 99.1538" stroke="#07294A" stroke-width="0.356305" stroke-linecap="round" stroke-linejoin="round"/>
<path d="M485.113 99.1539L445.834 96.8771V139.46V244.486H476.704L473.44 238.637L485.113 99.1539Z" fill="#79C9E7"/>
<path d="M466.802 29.3507V41.5052L481.859 45.2061V24.6946L466.802 20.9938V29.3507Z" fill="#F0F8FF"/>
<path d="M475.308 33.5559C475.086 33.5559 474.906 33.3757 474.906 33.1533C474.906 32.931 475.086 32.7507 475.308 32.7507C475.531 32.7507 475.711 32.931 475.711 33.1533C475.711 33.3757 475.531 33.5559 475.308 33.5559Z" fill="#07294A"/>
<path d="M469.125 33.5559C468.902 33.5559 468.722 33.3757 468.722 33.1533C468.722 32.931 468.902 32.7507 469.125 32.7507C469.347 32.7507 469.527 32.931 469.527 33.1533C469.527 33.3757 469.347 33.5559 469.125 33.5559Z" fill="#07294A"/>
<path d="M470.938 35.555V29.3506H467.829" stroke="#07294A" stroke-width="0.356305" stroke-linecap="round" stroke-linejoin="round"/>
<path d="M476.066 29.3508H472.958" stroke="#07294A" stroke-width="0.356305" stroke-linecap="round" stroke-linejoin="round"/>
<path d="M480.868 32.5296V34.6841C482.031 34.6841 482.973 33.742 482.973 32.5798C482.973 32.5152 482.97 32.4514 482.964 32.3882C482.846 31.0815 480.868 31.2175 480.868 32.5296Z" fill="#F0F8FF"/>
<path d="M480.868 34.6842C482.031 34.6842 482.973 33.742 482.973 32.5798" stroke="#07294A" stroke-width="0.356305" stroke-linecap="round" stroke-linejoin="round"/>
<path d="M472.296 37.0845C473.472 37.0845 474.426 36.1309 474.426 34.9546" stroke="#79C9E7" stroke-width="0.356305" stroke-linecap="round" stroke-linejoin="round"/>
<path d="M466.802 41.5051L481.859 45.2059" stroke="#07294A" stroke-width="0.356305" stroke-linecap="round" stroke-linejoin="round"/>
<path d="M470.937 35.5599L472.297 35.8941" stroke="#07294A" stroke-width="0.356305" stroke-linecap="round" stroke-linejoin="round"/>
<path d="M480.867 31.4741C480.867 31.4741 477.694 28.525 478.049 25.2607L466.802 24.6221" stroke="#79C9E7" stroke-width="0.356305" stroke-linecap="round" stroke-linejoin="round"/>
<path d="M466.8 28.0481C466.8 28.0481 463.596 24.7456 467.345 20.9938C471.093 17.242 484.292 20.4353 484.292 20.4353C484.292 20.4353 488.789 31.5222 481.857 37.0845" stroke="#79C9E7" stroke-width="0.356305" stroke-linecap="round" stroke-linejoin="round"/>
<path d="M492.414 66.9713V99.8507L445.836 111.299V74.6801C445.836 61.6957 454.7 50.3889 467.309 47.2898H467.309C473.356 45.8036 479.751 47.1795 484.651 51.0213C489.552 54.8632 492.414 60.7444 492.414 66.9713V66.9713Z" fill="#F0F8FF"/>
<path d="M473.44 238.636L485.113 99.1538" stroke="#07294A" stroke-width="0.356305" stroke-linecap="round" stroke-linejoin="round"/>
<path d="M453.999 54.8325C453.999 54.8325 444.857 63.9151 441.42 81.2374C441.42 81.2374 441.539 63.9158 435.01 55.0652C428.481 46.2146 427.559 50.6259 429.546 54.8325C429.546 54.8325 426.281 57.478 429.546 62.0196C429.546 62.0196 415.542 124.893 455.66 97.8323" stroke="#07294A" stroke-width="0.356305" stroke-linecap="round" stroke-linejoin="round"/>
<path d="M487.864 54.1699C487.864 54.1699 495.779 63.2024 499.753 84.3967C499.753 84.3967 509.782 69.2579 515.459 66.6086C521.136 63.9593 522.65 66.4194 521.136 67.5548C520.093 68.2962 518.945 68.8787 517.73 69.2833C517.73 69.2833 520.947 73.9175 517.162 77.2648C517.162 77.2648 512.322 114.577 492.413 104.596" stroke="#07294A" stroke-width="0.356305" stroke-linecap="round" stroke-linejoin="round"/>
<path d="M580.469 36.0194C580.469 49.9959 569.139 61.3261 555.162 61.3261C541.186 61.3261 529.855 49.9959 529.855 36.0194C529.855 22.043 541.186 10.7128 555.162 10.7128C569.139 10.7128 580.469 22.043 580.469 36.0194ZM547.242 29.7963H549.85C550.287 29.7963 550.634 29.4401 550.693 29.0073C550.974 26.9318 552.399 25.4189 554.938 25.4189C557.107 25.4189 559.095 26.5032 559.095 29.1135C559.095 31.1215 557.91 32.0452 556.043 33.4508C553.914 34.9969 552.227 36.8041 552.348 39.7357L552.357 40.4216C552.363 40.8541 552.716 41.2016 553.148 41.2016H555.714C556.15 41.2016 556.504 40.8475 556.504 40.4107V40.0771C556.504 37.8081 557.368 37.1454 559.697 35.3784C561.625 33.9126 563.633 32.2861 563.633 28.8726C563.633 24.0936 559.597 21.7844 555.179 21.7844C551.171 21.7844 546.778 23.6527 546.479 29.0163C546.455 29.4472 546.811 29.7963 547.242 29.7963ZM554.597 50.1772C556.525 50.1772 557.85 48.9323 557.85 47.2456C557.85 45.4986 556.525 44.2738 554.597 44.2738C552.75 44.2738 551.404 45.4986 551.404 47.2456C551.404 48.9323 552.75 50.1772 554.597 50.1772Z" fill="#79C9E7"/>
</g>
<defs>
<clipPath id="clip0_1039_21039">
<rect width="949" height="158.167" fill="white"/>
</clipPath>
</defs>
</svg>
