<svg width="1200" height="200" viewBox="0 0 1200 200" fill="none" xmlns="http://www.w3.org/2000/svg">
<g clip-path="url(#clip0_994_17815)">
<g opacity="0.5">
<path fill-rule="evenodd" clip-rule="evenodd" d="M758.361 49.8724C758.361 63.1491 747.498 73.9119 734.097 73.9119C720.696 73.9119 709.833 63.1491 709.833 49.8724C709.833 36.5958 720.696 25.833 734.097 25.833C747.498 25.833 758.361 36.5958 758.361 49.8724ZM1134.59 88.7514C1151.49 88.7514 1165.18 75.1799 1165.18 58.4386C1165.18 41.6973 1151.49 28.1258 1134.59 28.1258C1117.69 28.1258 1103.99 41.6973 1103.99 58.4386C1103.99 61.5142 1104.45 64.4829 1105.31 67.2801C1106 69.5275 1103.6 72.4753 1101.25 72.4753V72.4753C1090.46 72.4753 1081.7 81.1455 1081.7 91.8406C1081.7 102.536 1090.46 111.206 1101.25 111.206C1112.05 111.206 1120.8 102.536 1120.8 91.8406V91.8406C1120.8 89.4322 1123.79 86.9099 1126.1 87.5708C1128.8 88.3395 1131.64 88.7514 1134.59 88.7514ZM60.1236 42.0417C46.2748 42.0417 34.8137 53.2683 34.8137 67.1171C34.8137 80.9659 46.2748 92.1925 60.1236 92.1925C73.9723 92.1925 85.4334 80.9659 85.4334 67.1171C85.4334 53.2683 73.9723 42.0417 60.1236 42.0417ZM170.688 48.2139C154.414 48.2139 140.171 57.7603 133.541 71.5584C130.35 78.2005 120.591 83.1797 113.222 83.1797V83.1797C97.8625 83.1797 85.1511 95.6311 85.1511 110.991C85.1511 126.35 97.8625 138.802 113.222 138.802C114.754 138.802 116.259 138.678 117.729 138.44C131.753 136.165 156.48 129.652 170.688 129.652V129.652V129.652C182.528 129.652 200.309 137.529 206.649 147.528C216.649 163.301 234.365 173.786 254.553 173.786C270.06 173.786 284.109 167.6 294.322 157.583C305.286 146.83 330.333 138.083 345.595 139.784C347.692 140.018 349.824 140.138 351.984 140.138C383.204 140.138 408.513 115.063 408.513 84.1319C408.513 53.2006 383.204 28.1258 351.984 28.1258C336.477 28.1258 322.428 34.3118 312.215 44.3289C301.251 55.0817 276.204 63.8282 260.942 62.1273C258.845 61.8936 256.713 61.7736 254.553 61.7736C250.685 61.7736 246.908 62.1585 243.258 62.8918C228.452 65.8665 202.633 59.3608 189.138 52.5837C183.572 49.7888 177.297 48.2139 170.688 48.2139ZM740.298 108.574C740.298 78.8931 764.862 54.8322 794.542 54.8322C819.762 54.8322 841.287 72.204 847.188 95.6342C847.834 98.1997 850.213 99.9999 852.859 99.9999V99.9999C856.617 99.9999 860.267 100.509 863.741 101.462C864.704 101.727 865.677 100.999 865.677 99.9998V99.9998C865.677 64.0114 895.124 34.8371 931.449 34.8371C967.774 34.8371 997.221 64.0114 997.221 99.9998C997.221 135.988 967.774 165.163 931.449 165.163C925.738 165.163 920.197 164.441 914.913 163.086C902.987 160.026 887.85 165.222 878.123 172.77C871.125 178.2 862.336 181.438 852.859 181.438C842.633 181.438 833.209 177.669 825.972 171.445C818.75 165.233 808.717 161.297 799.226 162.114C797.681 162.247 796.119 162.315 794.542 162.315C764.862 162.315 740.298 138.254 740.298 108.574ZM309.203 163.532C309.203 149.683 320.664 138.457 334.513 138.457C348.362 138.457 359.823 149.683 359.823 163.532C359.823 177.381 348.362 188.608 334.513 188.608C320.664 188.608 309.203 177.381 309.203 163.532ZM1044.92 148.163C1044.92 146.576 1042.74 145.215 1041.37 146.014C1036.82 148.666 1031.52 150.188 1025.87 150.188C1008.97 150.188 995.271 136.616 995.271 119.875C995.271 103.133 1008.97 89.5619 1025.87 89.5619C1042.76 89.5619 1056.46 103.133 1056.46 119.875C1056.46 120.288 1056.45 120.699 1056.44 121.108C1056.3 124.464 1061.11 128.798 1064.47 128.798V128.798C1075.26 128.798 1084.01 137.468 1084.01 148.163C1084.01 158.858 1075.26 167.528 1064.47 167.528C1053.67 167.528 1044.92 158.858 1044.92 148.163V148.163ZM579.124 63.122C588.207 63.122 595.571 55.8264 595.571 46.8268C595.571 37.8273 588.207 30.5317 579.124 30.5317C570.04 30.5317 562.676 37.8273 562.676 46.8268C562.676 55.8264 570.04 63.122 579.124 63.122ZM460.507 188.607C491.727 188.607 517.036 163.533 517.036 132.601V132.601C517.036 130.911 519.265 129.898 520.568 130.975C527.628 136.813 536.716 140.325 546.631 140.325C555.885 140.325 564.418 137.265 571.255 132.111C572.222 131.382 573.766 132.198 573.766 133.409V133.409C573.766 146.685 584.63 157.448 598.03 157.448C611.431 157.448 622.295 146.685 622.295 133.409V133.409C622.295 132.58 623.368 132.094 623.967 132.668C633.47 141.78 646.417 147.387 660.687 147.387C689.85 147.387 713.492 123.964 713.492 95.0704C713.492 66.1767 689.85 42.7537 660.687 42.7537C631.523 42.7537 607.881 66.1767 607.881 95.0704C607.881 96.6402 607.951 98.1937 608.087 99.7283C608.482 104.159 602.479 109.369 598.03 109.369V109.369C597.935 109.369 597.84 109.37 597.744 109.371C593.305 109.422 587.333 104.44 587.333 100V100C587.333 77.7292 569.11 59.675 546.631 59.675C542.887 59.675 539.261 60.1758 535.818 61.1135C519.441 65.5732 478.156 76.7965 461.184 76.5991C460.958 76.5965 460.733 76.5952 460.507 76.5952C429.286 76.5952 403.977 101.67 403.977 132.601C403.977 163.533 429.286 188.607 460.507 188.607Z" fill="url(#paint0_linear_994_17815)"/>
</g>
<path d="M519.247 196.643L599.995 42.6689L680.743 196.643" fill="#79C9E7"/>
<path d="M577.475 196.643H622.515L599.995 153.7L577.475 196.643V196.643Z" fill="#07294A"/>
<path d="M519.247 196.643L599.995 42.6689L680.743 196.643" stroke="#07294A" stroke-width="0.405908" stroke-linecap="round" stroke-linejoin="round"/>
<path fill-rule="evenodd" clip-rule="evenodd" d="M612.312 19.1831L599.995 42.6689L587.678 19.1831" fill="#FFFBEA"/>
<path d="M612.312 19.1831L599.995 42.6689L587.678 19.1831" stroke="#07294A" stroke-width="0.405908" stroke-linecap="round" stroke-linejoin="round"/>
<path d="M497.914 196.643H702.076" stroke="#07294A" stroke-width="0.405908" stroke-linecap="round" stroke-linejoin="round"/>
<path d="M599.995 7.67285V155.416" stroke="#07294A" stroke-width="0.405908" stroke-linecap="round" stroke-linejoin="round"/>
<path d="M708.671 285.499C707.058 229.579 732.064 124.62 732.064 124.62L766.217 101.072V210.76L734.039 292.821H703.929L708.671 285.499Z" fill="#79C9E7"/>
<path d="M732.064 211C732.064 169.275 744.474 135.451 759.783 135.451C762.082 135.49 764.319 136.203 766.217 137.501V210.76L742.751 270.605C736.247 256.78 732.064 235.222 732.064 211Z" fill="#07294A"/>
<path d="M742.21 112.513C742.21 112.513 734.974 230.626 755.413 286.549L751.143 292.822H787.496C787.496 292.822 791.468 142.588 791.468 110.162L742.21 112.513Z" fill="#79C9E7"/>
<path d="M751.968 21.1277V36.4776L770.983 41.1511V15.2472L751.968 10.5737V21.1277Z" fill="#FFFBEA"/>
<path d="M762.71 26.4382C762.429 26.4382 762.201 26.2106 762.201 25.9298C762.201 25.649 762.429 25.4214 762.71 25.4214C762.99 25.4214 763.218 25.649 763.218 25.9298C763.218 26.2106 762.99 26.4382 762.71 26.4382Z" fill="#07294A"/>
<path d="M754.9 26.4382C754.62 26.4382 754.392 26.2106 754.392 25.9298C754.392 25.649 754.62 25.4214 754.9 25.4214C755.181 25.4214 755.409 25.649 755.409 25.9298C755.409 26.2106 755.181 26.4382 754.9 26.4382Z" fill="#07294A"/>
<path d="M757.191 28.9627V21.1274H753.266" stroke="#07294A" stroke-width="0.450544" stroke-linecap="round" stroke-linejoin="round"/>
<path d="M763.667 21.1275H759.742" stroke="#07294A" stroke-width="0.450544" stroke-linecap="round" stroke-linejoin="round"/>
<path d="M769.731 25.142V27.863C771.199 27.863 772.388 26.6732 772.388 25.2054C772.388 25.1239 772.385 25.0432 772.378 24.9635C772.229 23.3132 769.731 23.4851 769.731 25.142Z" fill="#FFFBEA"/>
<path d="M769.731 27.8632C771.199 27.8632 772.388 26.6733 772.388 25.2056" stroke="#07294A" stroke-width="0.450544" stroke-linecap="round" stroke-linejoin="round"/>
<path d="M758.908 30.8944C759.622 30.8944 760.306 30.611 760.81 30.1066C761.315 29.6021 761.598 28.918 761.598 28.2046" stroke="#79C9E7" stroke-width="0.450544" stroke-linecap="round" stroke-linejoin="round"/>
<path d="M766.217 39.9795L770.983 41.1509" stroke="#07294A" stroke-width="0.450544" stroke-linecap="round" stroke-linejoin="round"/>
<path d="M757.191 28.9692L758.908 29.3912" stroke="#07294A" stroke-width="0.450544" stroke-linecap="round" stroke-linejoin="round"/>
<path d="M768.98 27.8631C768.98 27.8631 770.593 40.6399 760.915 40.8789C751.236 41.1179 750.43 34.6056 751.968 26.7788" stroke="#07294A" stroke-width="0.450544" stroke-linecap="round" stroke-linejoin="round"/>
<path d="M771.925 24.0818C771.925 24.0818 775.493 13.8736 770.414 9.69133C765.336 5.50909 749.503 9.09386 750.1 13.2163C750.698 17.3388 764.977 17.6376 764.977 17.6376C764.977 17.6376 765.276 21.5808 767.307 22.238C767.307 22.238 767.546 26.1053 766.71 28.2045" stroke="#07294A" stroke-width="0.450544" stroke-linecap="round" stroke-linejoin="round"/>
<path d="M790.887 68.6387V110.162L732.064 124.62V78.3742C732.064 61.9762 743.259 47.6968 759.183 43.783H759.183C766.819 41.906 774.895 43.6437 781.084 48.4955C787.272 53.3474 790.887 60.7748 790.887 68.6387V68.6387Z" fill="#FFFBEA"/>
<path d="M745.245 92.635L740.966 77.085L724.947 79.0566L732.064 103.075L746.994 101.072" fill="#79C9E7"/>
<path d="M742.21 112.513C742.21 112.513 734.974 230.626 755.413 286.549" stroke="#07294A" stroke-width="0.450544" stroke-linecap="round" stroke-linejoin="round"/>
<path d="M782.379 49.584C782.379 49.584 811.998 82.7755 805.784 110.162C799.57 137.548 736.535 112.631 735.073 101.071C733.611 89.512 744.843 96.9205 744.843 96.9205C744.843 96.9205 744.133 90.7369 746.283 93.1267C748.433 95.5166 750.063 97.4375 750.063 97.4375L775.433 94.5307L769.081 80.4306" stroke="#07294A" stroke-width="0.450544" stroke-linecap="round" stroke-linejoin="round"/>
<path d="M724.947 75.5289C730.862 78.4537 732.064 73.6796 732.064 73.6796C733.086 74.038 736.334 77.6552 735.97 73.6796C735.807 71.4086 734.249 69.4786 732.064 68.8401C732.064 68.8401 716.523 64.9343 715.268 83.8253C714.014 102.716 722.985 114.779 732.064 111.499" stroke="#07294A" stroke-width="0.450544" stroke-linecap="round" stroke-linejoin="round"/>
<path d="M745.934 50.1631C739.224 55.0255 733.655 61.2914 729.613 68.5247" stroke="#07294A" stroke-width="0.450544" stroke-linecap="round" stroke-linejoin="round"/>
<path d="M475.969 63.7167C475.969 63.7167 492.445 59.0092 499.325 62.6303C499.325 62.6303 500.231 76.3908 494.618 80.0119C489.005 83.6331 476.693 83.0899 479.409 68.0621C479.409 68.0621 473.253 68.9674 475.969 63.7167Z" fill="#79C9E7"/>
<path d="M447.727 108.097C447.727 108.097 478.267 195.872 450.024 221.4C421.78 246.928 370.181 236.608 370.181 236.608L361.491 240.953L366.379 202.933L411.749 194.242L417.427 105.992" fill="#DFEFFF"/>
<path d="M425.936 201.2C416.937 201.2 409.641 188.122 409.641 171.99C409.641 155.857 416.937 142.779 425.936 142.779C434.936 142.779 442.232 155.857 442.232 171.99C442.232 188.122 434.936 201.2 425.936 201.2Z" fill="#07294A"/>
<path d="M438.416 107.208L388.306 104.304V158.628V292.611H427.688L423.524 285.149L438.416 107.208Z" fill="#F0F8FF"/>
<path d="M436.636 18.159V24.8516C436.636 30.0266 433.103 34.533 428.077 35.7682L417.427 38.3858V12.219L426.283 10.0424C428.776 9.42951 431.413 9.99694 433.434 11.5813C435.455 13.1656 436.636 15.591 436.636 18.1589V18.159Z" fill="#FFFBEA"/>
<path d="M436.636 24.8516C436.636 30.0266 433.103 34.533 428.077 35.7681L417.427 38.3858" stroke="#07294A" stroke-width="0.450544" stroke-linecap="round" stroke-linejoin="round"/>
<path d="M425.785 23.5238C425.501 23.5238 425.271 23.2938 425.271 23.0102C425.271 22.7265 425.501 22.4966 425.785 22.4966C426.069 22.4966 426.299 22.7265 426.299 23.0102C426.299 23.2938 426.069 23.5238 425.785 23.5238Z" fill="#07294A"/>
<path d="M433.673 23.5238C433.39 23.5238 433.16 23.2938 433.16 23.0102C433.16 22.7265 433.39 22.4966 433.673 22.4966C433.957 22.4966 434.187 22.7265 434.187 23.0102C434.187 23.2938 433.957 23.5238 433.673 23.5238Z" fill="#07294A"/>
<path d="M431.359 26.074V18.1592" stroke="#07294A" stroke-width="0.450544" stroke-linecap="round" stroke-linejoin="round"/>
<path fill-rule="evenodd" clip-rule="evenodd" d="M424.817 18.1591H428.783Z" fill="#FFFBEA"/>
<path d="M424.817 18.1591H428.783" stroke="#07294A" stroke-width="0.450544" stroke-linecap="round" stroke-linejoin="round"/>
<path d="M429.191 26.9985C428.858 27.3319 428.406 27.5192 427.934 27.5192C427.463 27.5192 427.011 27.3319 426.677 26.9985" stroke="#79C9E7" stroke-width="0.450544" stroke-linecap="round" stroke-linejoin="round"/>
<path d="M431.359 26.0801L429.625 26.5063" stroke="#07294A" stroke-width="0.450544" stroke-linecap="round" stroke-linejoin="round"/>
<path d="M436.636 18.8145C436.636 18.8145 429.207 18.9352 427.934 13.9259C427.934 13.9259 426.361 18.9352 421.894 18.4524L421.109 34.5666L408.134 37.2221C408.134 37.2221 405.841 14.0102 420.221 8.70664C425.225 6.88262 430.817 7.7951 434.982 11.115C436.56 12.3375 437.841 13.9025 438.726 15.692C441.636 21.7758 441.57 31.6188 441.57 31.6188L436.636 32.0256" stroke="#79C9E7" stroke-width="0.450544" stroke-linecap="round" stroke-linejoin="round"/>
<path d="M447.727 66.1525V108.097L388.306 122.702V75.9868C388.306 59.4223 399.615 44.998 415.701 41.0444H415.701C423.415 39.1484 431.572 40.9037 437.824 45.8048C444.075 50.7059 447.727 58.2087 447.727 66.1524V66.1525Z" fill="#79C9E7"/>
<path d="M423.524 285.149L438.416 107.208" stroke="#07294A" stroke-width="0.450544" stroke-linecap="round" stroke-linejoin="round"/>
<path d="M400.835 48.6982C400.835 48.6982 375.12 68.741 371.257 107.208C367.394 145.676 403.123 150.021 403.123 150.021L409.159 136.019L392.163 114.775L413.361 74.4596" stroke="#07294A" stroke-width="0.450544" stroke-linecap="round" stroke-linejoin="round"/>
<path fill-rule="evenodd" clip-rule="evenodd" d="M403.123 150.022L412.041 129.332Z" fill="#FFFBEA"/>
<path d="M403.123 150.022L412.041 129.332" stroke="#07294A" stroke-width="0.450544" stroke-linecap="round" stroke-linejoin="round"/>
<path d="M439.873 47.5928C439.873 47.5928 456.234 60.3715 456.958 92.4792C456.958 92.4792 466.856 65.5277 474.339 61.9065C481.823 58.2853 481.823 58.7682 478.926 62.8721C476.029 66.9761 476.271 67.9418 476.271 67.9418C476.271 67.9418 475.546 72.6995 473.857 72.4933" stroke="#07294A" stroke-width="0.450544" stroke-linecap="round" stroke-linejoin="round"/>
<path d="M478.926 62.8717C478.926 62.8717 487.858 59.7334 489.065 64.5616C490.273 69.3898 478.926 77.5978 478.926 77.5978C478.926 77.5978 480.747 127.973 452.195 122.702" stroke="#07294A" stroke-width="0.450544" stroke-linecap="round" stroke-linejoin="round"/>
<path d="M1096.3 115.199L1128.07 118.211L1121.79 167.195L1201.36 191.329L1196.03 225.603L1189.85 220.886C1041.8 231.833 1096.3 115.199 1096.3 115.199Z" fill="#DFEFFF"/>
<path d="M1110.13 118.575L1153.33 111.558V163.699V292.298H1119.46L1122.94 285.136L1110.13 118.575Z" fill="#F0F8FF"/>
<path d="M1153.33 163.699V292.298H1119.46" stroke="#07294A" stroke-width="0.45" stroke-linecap="round" stroke-linejoin="round"/>
<path d="M1122.94 285.136L1110.13 118.575" stroke="#07294A" stroke-width="0.45" stroke-linecap="round" stroke-linejoin="round"/>
<path d="M1133.13 28.8749V35.2985C1133.13 40.2656 1129.74 44.5909 1124.92 45.7764L1114.7 48.2889V23.1735L1123.2 21.0845C1125.59 20.4962 1128.12 21.0408 1130.06 22.5615C1132 24.0822 1133.13 26.4101 1133.13 28.8748V28.8749Z" fill="#F0F8FF"/>
<path d="M1133.13 35.2983C1133.13 40.2654 1129.74 44.5907 1124.92 45.7762L1114.7 48.2887" stroke="#07294A" stroke-width="0.45" stroke-linecap="round" stroke-linejoin="round"/>
<path d="M1122.72 34.024C1122.45 34.024 1122.23 33.8033 1122.23 33.531C1122.23 33.2588 1122.45 33.0381 1122.72 33.0381C1122.99 33.0381 1123.21 33.2588 1123.21 33.531C1123.21 33.8033 1122.99 34.024 1122.72 34.024Z" fill="#07294A"/>
<path d="M1130.29 34.024C1130.02 34.024 1129.8 33.8033 1129.8 33.531C1129.8 33.2588 1130.02 33.0381 1130.29 33.0381C1130.56 33.0381 1130.78 33.2588 1130.78 33.531C1130.78 33.8033 1130.56 34.024 1130.29 34.024Z" fill="#07294A"/>
<path d="M1128.07 36.4712V28.8745H1131.88" stroke="#07294A" stroke-width="0.45" stroke-linecap="round" stroke-linejoin="round"/>
<path d="M1121.79 28.875H1125.6" stroke="#07294A" stroke-width="0.45" stroke-linecap="round" stroke-linejoin="round"/>
<path d="M1115.91 32.767V35.4051C1114.49 35.4051 1113.34 34.2515 1113.34 32.8284C1113.34 32.7494 1113.34 32.6712 1113.35 32.5939C1113.49 30.9939 1115.91 31.1604 1115.91 32.767Z" fill="#F0F8FF"/>
<path d="M1115.91 35.4053C1114.49 35.4053 1113.34 34.2517 1113.34 32.8286" stroke="#07294A" stroke-width="0.45" stroke-linecap="round" stroke-linejoin="round"/>
<path d="M1125.99 37.3594C1125.67 37.6794 1125.24 37.8591 1124.78 37.8591C1124.33 37.8591 1123.9 37.6794 1123.58 37.3594" stroke="#79C9E7" stroke-width="0.45" stroke-linecap="round" stroke-linejoin="round"/>
<path d="M1128.07 36.4775L1126.41 36.8867" stroke="#07294A" stroke-width="0.45" stroke-linecap="round" stroke-linejoin="round"/>
<path d="M1133.71 26.6725C1133.71 26.6725 1129.02 27.1938 1127.24 23.4575C1127.24 23.4575 1125.02 27.1989 1118.51 27.6308C1118.51 27.6308 1118.23 31.5859 1115.91 32.7672" stroke="#07294A" stroke-width="0.45" stroke-linecap="round" stroke-linejoin="round"/>
<path d="M1133.71 31.4748C1133.71 31.4748 1142.17 27.5662 1136.49 20.8487C1130.82 14.1312 1111.9 10.7714 1107.41 23.4575C1103.06 35.7522 1114.62 40.5461 1114.62 40.5461" stroke="#07294A" stroke-width="0.45" stroke-linecap="round" stroke-linejoin="round"/>
<path d="M1108.51 17.4619C1108.51 17.4619 1105.56 20.1555 1105.91 23.0229" stroke="#79C9E7" stroke-width="0.45" stroke-linecap="round" stroke-linejoin="round"/>
<path d="M1106.43 17.4621L1100.35 7.75928C1100.35 7.75928 1088.07 13.3203 1095.48 25.1375L1104.29 22.4728" stroke="#07294A" stroke-width="0.45" stroke-linecap="round" stroke-linejoin="round"/>
<path d="M1096.3 74.9396V115.199L1153.33 129.217V84.3787C1153.33 68.4799 1142.48 54.6352 1127.04 50.8405H1127.04C1119.63 49.0207 1111.8 50.7055 1105.8 55.4096C1099.8 60.1138 1096.3 67.3151 1096.3 74.9396V74.9396Z" fill="#79C9E7"/>
<path d="M1145.61 62.6113C1145.61 62.6113 1179.94 94.304 1174.84 118.575C1169.74 142.846 1148.19 153.736 1148.19 153.736C1148.19 153.736 1140.08 145.395 1138 136.821" stroke="#07294A" stroke-width="0.45" stroke-linecap="round" stroke-linejoin="round"/>
<path d="M1131.73 89.6641L1149.12 117.127L1140.24 142.628" stroke="#07294A" stroke-width="0.45" stroke-linecap="round" stroke-linejoin="round"/>
<path d="M1135.58 95.7476L1149.12 117.126L1142.68 135.61C1147.37 119.57 1135.59 95.7513 1135.58 95.7476Z" fill="#07294A"/>
<path d="M1099.77 62.2598L1081.11 95.7475C1081.11 95.7475 1071.15 70.2048 1049.43 64.8176L1048.39 68.2932L1050.3 70.3786C1050.3 70.3786 1048.21 77.6775 1052.56 79.9367C1052.56 79.9367 1064.09 142.151 1094.38 119.82" stroke="#07294A" stroke-width="0.45" stroke-linecap="round" stroke-linejoin="round"/>
<path d="M337.651 168.898C337.651 168.898 365.647 272.269 240.381 212.687L226.383 217.712L240.381 180.032L291.349 191.151" fill="#DFEFFF"/>
<path d="M332.029 113.324L283.9 106.078V159.924V292.727H322.935L318.808 285.331L332.029 113.324Z" fill="#F0F8FF"/>
<path d="M322.935 292.727L318.807 285.331L332.029 113.325" stroke="#07294A" stroke-width="0.450544" stroke-linecap="round" stroke-linejoin="round"/>
<path fill-rule="evenodd" clip-rule="evenodd" d="M283.9 159.924V292.727Z" fill="#FFFBEA"/>
<path d="M283.9 159.924V292.727" stroke="#07294A" stroke-width="0.450544" stroke-linecap="round" stroke-linejoin="round"/>
<path d="M282.628 124.314L267.016 174.123C267.016 174.123 307.285 184.891 341.525 177.354V97.1372L282.628 124.314Z" fill="#79C9E7"/>
<path d="M267.016 174.124C267.016 174.124 307.285 184.891 341.525 177.354" stroke="#07294A" stroke-width="0.450544" stroke-linecap="round" stroke-linejoin="round"/>
<path d="M328.137 20.6913V27.325C328.137 32.4545 324.636 36.9212 319.654 38.1455L309.098 40.74V14.8036L317.876 12.6462C320.347 12.0387 322.961 12.6012 324.964 14.1716C326.967 15.742 328.137 18.146 328.137 20.6913V20.6913Z" fill="#FFFBEA"/>
<path d="M328.137 27.3252C328.137 32.4546 324.636 36.9213 319.654 38.1456L309.098 40.7402" stroke="#07294A" stroke-width="0.450544" stroke-linecap="round" stroke-linejoin="round"/>
<path d="M317.382 26.0089C317.663 26.0089 317.891 25.7809 317.891 25.4998C317.891 25.2186 317.663 24.9907 317.382 24.9907C317.101 24.9907 316.873 25.2186 316.873 25.4998C316.873 25.7809 317.101 26.0089 317.382 26.0089Z" fill="#07294A"/>
<path d="M325.201 26.0089C325.482 26.0089 325.71 25.7809 325.71 25.4998C325.71 25.2186 325.482 24.9907 325.201 24.9907C324.92 24.9907 324.692 25.2186 324.692 25.4998C324.692 25.7809 324.92 26.0089 325.201 26.0089Z" fill="#07294A"/>
<path d="M322.907 28.5369V20.6914H326.837" stroke="#07294A" stroke-width="0.450544" stroke-linecap="round" stroke-linejoin="round"/>
<path d="M316.423 20.6912H320.353" stroke="#07294A" stroke-width="0.450544" stroke-linecap="round" stroke-linejoin="round"/>
<path d="M310.352 24.7111V27.4355C308.883 27.4355 307.691 26.2441 307.691 24.7745C307.691 24.6929 307.695 24.6122 307.702 24.5323C307.851 22.88 310.352 23.052 310.352 24.7111Z" fill="#F0F8FF"/>
<path d="M310.352 27.4353C308.883 27.4353 307.691 26.244 307.691 24.7744" stroke="#07294A" stroke-width="0.450544" stroke-linecap="round" stroke-linejoin="round"/>
<path d="M320.758 29.4531C320.428 29.7836 319.98 29.9692 319.513 29.9692C319.045 29.9692 318.597 29.7836 318.267 29.4531" stroke="#79C9E7" stroke-width="0.450544" stroke-linecap="round" stroke-linejoin="round"/>
<path fill-rule="evenodd" clip-rule="evenodd" d="M322.907 28.543L321.188 28.9655Z" fill="#FFFBEA"/>
<path d="M322.907 28.543L321.188 28.9655" stroke="#07294A" stroke-width="0.450544" stroke-linecap="round" stroke-linejoin="round"/>
<path d="M341.525 68.2622V109.838L282.628 124.314V78.0099C282.628 61.5913 293.837 47.294 309.781 43.3752H309.781C317.427 41.4959 325.513 43.2357 331.709 48.0937C337.906 52.9516 341.525 60.3884 341.525 68.2621V68.2622Z" fill="#F0F8FF"/>
<path d="M310.352 24.13C310.352 24.13 313.467 22.2158 313.587 18.7461C313.587 18.7461 321.451 11.6959 327.449 17.3746" stroke="#07294A" stroke-width="0.450544" stroke-linecap="round" stroke-linejoin="round"/>
<path d="M328.137 23.3766C328.137 23.3766 334.772 11.807 321.188 8.21776C307.605 4.62848 286.989 23.7713 309.022 35.9748" stroke="#07294A" stroke-width="0.450544" stroke-linecap="round" stroke-linejoin="round"/>
<path d="M298.213 27.5908C298.213 27.5908 299.92 33.9493 304.045 35.1073" stroke="#79C9E7" stroke-width="0.450544" stroke-linecap="round" stroke-linejoin="round"/>
<path d="M296.598 29.9692C296.598 29.9692 282.33 39.7733 287.176 52.8741C292.021 65.975 314.677 66.0647 316.226 56.3737C317.774 46.6826 313.254 41.099 307.691 40.4014C302.128 39.7038 302.7 35.9746 302.7 35.9746" stroke="#07294A" stroke-width="0.450544" stroke-linecap="round" stroke-linejoin="round"/>
<path d="M286.597 61.6567C286.597 61.6567 273.59 85.2677 286.597 103.932C299.604 122.596 341.525 118.648 359.904 91.9677L369.476 85.2678V80.7213L357.379 81.1245C357.379 81.1245 353.025 77.7255 348.239 83.4683C348.239 83.4683 321.537 92.0874 312.384 90.4722L309.296 69.8339" stroke="#07294A" stroke-width="0.450544" stroke-linecap="round" stroke-linejoin="round"/>
<path d="M286.597 103.932C286.442 103.708 286.293 103.484 286.145 103.259C285.376 104.46 284.958 105.852 284.94 107.278C284.94 114.958 297.607 121.184 313.232 121.184C328.145 121.184 340.354 115.512 341.438 108.319C321.446 119.157 296.178 117.679 286.597 103.932Z" fill="#07294A"/>
<path d="M336.203 52.6147L351.649 71.2694L372.467 45.0676C372.467 45.0676 375.697 36.0539 380.722 40.7402H392.567L393.404 44.4694L385.508 49.973C385.508 49.973 382.755 107.001 352.127 100.8" stroke="#07294A" stroke-width="0.450544" stroke-linecap="round" stroke-linejoin="round"/>
<path d="M245.419 280.514C244.366 223.131 221.126 113.939 221.126 113.939L199.537 116.137L186.362 189.613L221.126 292.779L250.091 285.953L245.419 280.514Z" fill="#79C9E7"/>
<path d="M191.283 162.17L186.362 189.614L204.756 244.201C209.58 234.915 212.403 223.693 212.403 211.605C212.403 190.678 203.949 172.346 191.283 162.17Z" fill="#07294A"/>
<path d="M212.403 113.078L171.307 110.263L163.834 113.306L160.322 292.78H198.493L194.457 285.547L212.403 113.078Z" fill="#79C9E7"/>
<path d="M181.812 26.7667V33.2535C181.812 38.2694 185.236 42.6372 190.107 43.8344L200.43 46.3715V21.0093L191.847 18.8997C189.43 18.3057 186.874 18.8557 184.915 20.3913C182.956 21.9269 181.812 24.2777 181.812 26.7667V26.7667Z" fill="#FFFBEA"/>
<path d="M181.812 33.2534C181.812 38.2693 185.236 42.6371 190.107 43.8343L200.43 46.3714" stroke="#07294A" stroke-width="0.450544" stroke-linecap="round" stroke-linejoin="round"/>
<path d="M192.329 31.9663C192.604 31.9663 192.827 31.7434 192.827 31.4685C192.827 31.1936 192.604 30.9707 192.329 30.9707C192.054 30.9707 191.831 31.1936 191.831 31.4685C191.831 31.7434 192.054 31.9663 192.329 31.9663Z" fill="#07294A"/>
<path d="M184.683 31.9663C184.958 31.9663 185.181 31.7434 185.181 31.4685C185.181 31.1936 184.958 30.9707 184.683 30.9707C184.408 30.9707 184.185 31.1936 184.185 31.4685C184.185 31.7434 184.408 31.9663 184.683 31.9663Z" fill="#07294A"/>
<path d="M186.926 34.438V26.7666H183.083" stroke="#07294A" stroke-width="0.450544" stroke-linecap="round" stroke-linejoin="round"/>
<path fill-rule="evenodd" clip-rule="evenodd" d="M193.267 26.7668H189.424Z" fill="#FFFBEA"/>
<path d="M193.267 26.7668H189.424" stroke="#07294A" stroke-width="0.450544" stroke-linecap="round" stroke-linejoin="round"/>
<path d="M199.204 30.6977V33.3617C200.641 33.3617 201.806 32.1968 201.806 30.7597C201.806 30.6799 201.802 30.6009 201.795 30.5229C201.649 28.9071 199.204 29.0753 199.204 30.6977Z" fill="#F0F8FF"/>
<path d="M199.204 33.3613C200.641 33.3613 201.806 32.1963 201.806 30.7593" stroke="#07294A" stroke-width="0.450544" stroke-linecap="round" stroke-linejoin="round"/>
<path d="M189.028 35.3345C189.351 35.6576 189.789 35.8391 190.246 35.8391C190.703 35.8391 191.141 35.6576 191.464 35.3345" stroke="#79C9E7" stroke-width="0.450544" stroke-linecap="round" stroke-linejoin="round"/>
<path d="M186.926 34.4443L188.607 34.8575" stroke="#07294A" stroke-width="0.450544" stroke-linecap="round" stroke-linejoin="round"/>
<path d="M221.126 73.2841V113.939L163.532 128.095V82.816C163.532 66.761 174.493 52.7802 190.084 48.9481H190.084C197.561 47.1104 205.468 48.8118 211.527 53.5622C217.587 58.3126 221.126 65.5847 221.126 73.2841Z" fill="#F0F8FF"/>
<path d="M181.812 30.7596C181.812 30.7596 171.307 17.6874 185.181 14.704C199.054 11.7207 202.389 13.5633 203.793 16.7222C205.197 19.881 207.421 34.6222 200.43 36.7281" stroke="#07294A" stroke-width="0.450544" stroke-linecap="round" stroke-linejoin="round"/>
<path fill-rule="evenodd" clip-rule="evenodd" d="M182.485 26.7667C186.731 26.441 190.687 24.4875 193.527 21.314C193.527 21.314 194.638 27.9826 198.616 28.5091L199.204 29.6205" fill="#FFFBEA"/>
<path d="M182.485 26.7667C186.731 26.441 190.687 24.4875 193.527 21.314C193.527 21.314 194.638 27.9826 198.616 28.5091L199.204 29.6205" stroke="#07294A" stroke-width="0.450544" stroke-linecap="round" stroke-linejoin="round"/>
<path d="M194.579 12.5104C194.579 12.5104 194.141 7.68443 200.985 7.77218C207.829 7.85992 215.179 16.9674 205.274 24.9612" stroke="#07294A" stroke-width="0.450544" stroke-linecap="round" stroke-linejoin="round"/>
<path d="M194.457 285.547L212.403 113.078" stroke="#07294A" stroke-width="0.450544" stroke-linecap="round" stroke-linejoin="round"/>
<path d="M180.543 52.8599C180.543 52.8599 149.367 68.7548 141.996 100.694C134.626 132.633 174.287 161.765 174.287 161.765L184.683 147.375L168.32 111.925L187.767 85.9529" stroke="#07294A" stroke-width="0.450544" stroke-linecap="round" stroke-linejoin="round"/>
<path d="M174.287 161.765L190.951 138.699" stroke="#07294A" stroke-width="0.450544" stroke-linecap="round" stroke-linejoin="round"/>
<path d="M212.403 54.2826C213.619 55.3968 230.795 69.808 232.198 97.5355L239.569 69.106C239.569 69.106 234.304 61.3844 239.569 60.3315C239.569 60.3315 238.516 47.8456 245.887 52.8601C253.257 57.8746 267.807 126.844 224.381 129.914" stroke="#07294A" stroke-width="0.450544" stroke-linecap="round" stroke-linejoin="round"/>
<path d="M131.412 278.302C132.13 207.235 102.089 122.911 102.089 122.911L80.4444 110.683L75.4194 191.083L102.089 292.66L140.385 281.892L131.412 278.302Z" fill="#79C9E7"/>
<path d="M105.078 208.312C105.078 183.889 93.8187 162.922 77.7455 153.865L75.4194 191.083L91.1723 251.082C99.7414 240.301 105.078 225.125 105.078 208.312Z" fill="#07294A"/>
<path d="M92.5112 110.79C92.5112 110.79 99.7569 229.051 79.2922 285.044L83.567 291.325H47.1682C47.1682 291.325 43.1917 140.902 43.1917 108.436L92.5112 110.79Z" fill="#79C9E7"/>
<path d="M80.4243 19.2889V34.6582L61.385 39.3379V13.4014L80.4243 8.72168V19.2889Z" fill="#FFFBEA"/>
<path d="M69.669 24.6065C69.9501 24.6065 70.1781 24.3786 70.1781 24.0974C70.1781 23.8163 69.9501 23.5884 69.669 23.5884C69.3878 23.5884 69.1599 23.8163 69.1599 24.0974C69.1599 24.3786 69.3878 24.6065 69.669 24.6065Z" fill="#07294A"/>
<path d="M77.4881 24.6065C77.7692 24.6065 77.9971 24.3786 77.9971 24.0974C77.9971 23.8163 77.7692 23.5884 77.4881 23.5884C77.2069 23.5884 76.979 23.8163 76.979 24.0974C76.979 24.3786 77.2069 24.6065 77.4881 24.6065Z" fill="#07294A"/>
<path d="M75.1941 27.1345V19.2891H79.1244" stroke="#07294A" stroke-width="0.450544" stroke-linecap="round" stroke-linejoin="round"/>
<path d="M68.71 19.2893H72.6402" stroke="#07294A" stroke-width="0.450544" stroke-linecap="round" stroke-linejoin="round"/>
<path d="M62.639 23.3088V26.0331C61.1694 26.0331 59.978 24.8418 59.978 23.3722C59.978 23.2906 59.9817 23.2098 59.9889 23.13C60.138 21.4777 62.639 21.6497 62.639 23.3088Z" fill="#FFFBEA"/>
<path d="M62.639 26.033C61.1694 26.033 59.978 24.8417 59.978 23.3721" stroke="#07294A" stroke-width="0.450544" stroke-linecap="round" stroke-linejoin="round"/>
<path d="M73.4752 29.0682C71.9878 29.0682 70.782 27.8624 70.782 26.375" stroke="#79C9E7" stroke-width="0.450544" stroke-linecap="round" stroke-linejoin="round"/>
<path d="M80.4244 34.6582L61.385 39.3378" stroke="#07294A" stroke-width="0.450544" stroke-linecap="round" stroke-linejoin="round"/>
<path d="M75.1943 27.1406L73.4753 27.5631" stroke="#07294A" stroke-width="0.450544" stroke-linecap="round" stroke-linejoin="round"/>
<path d="M43.1917 66.8598V108.436L102.089 122.912V76.6076C102.089 60.189 90.8802 45.8916 74.9361 41.9728H74.9361C67.2899 40.0935 59.2042 41.8334 53.0076 46.6913C46.8111 51.5493 43.1917 58.986 43.1917 66.8598V66.8598Z" fill="#F0F8FF"/>
<path d="M92.5113 110.79C92.5113 110.79 99.757 229.051 79.2922 285.044" stroke="#07294A" stroke-width="0.450544" stroke-linecap="round" stroke-linejoin="round"/>
<path fill-rule="evenodd" clip-rule="evenodd" d="M62.6389 23.3086C62.6389 23.3086 68.3606 21.1904 67.2838 14.6699H80.9231" fill="#FFFBEA"/>
<path d="M62.6389 23.3086C62.6389 23.3086 68.3606 21.1904 67.2838 14.6699H80.9231" stroke="#07294A" stroke-width="0.450544" stroke-linecap="round" stroke-linejoin="round"/>
<path d="M60.2075 22.496C60.2075 22.496 54.1232 7.2524 68.1812 7.79079C82.2392 8.32918 83.1365 8.56847 83.6151 11.0211C84.0937 13.4738 80.4243 16.1658 80.4243 16.1658" stroke="#07294A" stroke-width="0.450544" stroke-linecap="round" stroke-linejoin="round"/>
<path d="M59.978 42.7964C59.978 42.7964 23.0161 55.4083 17.2732 90.5832C11.5304 125.758 56.0375 153.396 56.0375 153.396L68.4741 135.808L48.5 99.5564L68.4741 77.6618" stroke="#07294A" stroke-width="0.450544" stroke-linecap="round" stroke-linejoin="round"/>
<path d="M56.0374 153.396L72.7887 129.707" stroke="#07294A" stroke-width="0.450544" stroke-linecap="round" stroke-linejoin="round"/>
<path d="M89.812 49.6814C89.812 49.6814 115.261 62.9458 118.85 88.0707L127.464 55.4083C127.464 55.4083 123.875 48.2297 127.464 47.5119C127.464 47.5119 127.105 32.5993 136.796 39.3377C146.487 46.0762 154.022 136.886 104.85 131.142" stroke="#07294A" stroke-width="0.450544" stroke-linecap="round" stroke-linejoin="round"/>
<path d="M817.554 77.2158C817.584 79.8506 817.772 82.4811 818.117 85.0934C822.033 89.6704 831.884 99.852 845.045 104.687C846.287 103.541 847.41 102.273 848.4 100.904L848.398 100.902C835.971 93.7503 823.613 83.0993 817.563 77.2227L817.554 77.2158Z" fill="#FFFBEA"/>
<path d="M812.551 66.4046L808.024 45.563H822.147L825.587 64.413" fill="#79C9E7"/>
<path d="M808.024 45.563H822.147L824.417 58.0017" stroke="#07294A" stroke-width="0.450544" stroke-linecap="round" stroke-linejoin="round"/>
<path d="M878.406 104.419L846.935 108.213C846.935 108.213 798.864 140.823 817.875 183.732C836.885 226.641 851.007 241.306 851.007 241.306V252.169L872.447 241.849L860.168 173.955L872.447 158.747L878.406 104.419Z" fill="#FFFBEA"/>
<path d="M856.246 107.323L906.355 104.419V158.743V292.726H866.974L871.138 285.265L856.246 107.323Z" fill="#79C9E7"/>
<path d="M871.138 285.265L856.246 107.324" stroke="#07294A" stroke-width="0.450544" stroke-linecap="round" stroke-linejoin="round"/>
<path d="M846.935 66.2677V108.213L906.356 122.817V76.102C906.356 59.5376 895.047 45.1132 878.961 41.1596H878.961C871.247 39.2636 863.09 41.0189 856.838 45.92C850.587 50.8211 846.935 58.3239 846.935 66.2677V66.2677Z" fill="#FFFBEA"/>
<path d="M860.169 18.2742V24.9668C860.169 30.1418 863.702 34.6482 868.727 35.8834L879.377 38.501V12.3342L870.522 10.1577C868.028 9.54474 865.391 10.1122 863.37 11.6965C861.349 13.2809 860.169 15.7063 860.169 18.2742V18.2742Z" fill="#FFFBEA"/>
<path d="M860.169 24.9668C860.167 30.1422 863.701 34.6493 868.727 35.8833L869.773 36.1404" stroke="#07294A" stroke-width="0.450544" stroke-linecap="round" stroke-linejoin="round"/>
<path d="M871.019 23.639C871.303 23.639 871.533 23.4091 871.533 23.1254C871.533 22.8418 871.303 22.6118 871.019 22.6118C870.736 22.6118 870.506 22.8418 870.506 23.1254C870.506 23.4091 870.736 23.639 871.019 23.639Z" fill="#07294A"/>
<path d="M863.131 23.639C863.415 23.639 863.644 23.4091 863.644 23.1254C863.644 22.8418 863.415 22.6118 863.131 22.6118C862.847 22.6118 862.617 22.8418 862.617 23.1254C862.617 23.4091 862.847 23.639 863.131 23.639Z" fill="#07294A"/>
<path d="M865.445 26.1891V18.2739H861.48" stroke="#07294A" stroke-width="0.450544" stroke-linecap="round" stroke-linejoin="round"/>
<path d="M871.987 18.2743H868.022" stroke="#07294A" stroke-width="0.450544" stroke-linecap="round" stroke-linejoin="round"/>
<path d="M878.112 22.3299V25.0785C879.595 25.0785 880.797 23.8766 880.797 22.3939C880.797 22.3115 880.793 22.2301 880.786 22.1496C880.635 20.4825 878.112 20.6561 878.112 22.3299Z" fill="#FFFBEA"/>
<path d="M878.112 25.0781C879.595 25.0781 880.797 23.8762 880.797 22.3936" stroke="#07294A" stroke-width="0.450544" stroke-linecap="round" stroke-linejoin="round"/>
<path fill-rule="evenodd" clip-rule="evenodd" d="M867.613 27.1138C867.947 27.4471 868.399 27.6344 868.87 27.6344C869.342 27.6344 869.794 27.4471 870.127 27.1138" fill="#FFFBEA"/>
<path d="M867.613 27.1138C867.947 27.4471 868.399 27.6344 868.87 27.6344C869.342 27.6344 869.794 27.4471 870.127 27.1138" stroke="#79C9E7" stroke-width="0.450544" stroke-linecap="round" stroke-linejoin="round"/>
<path d="M865.445 26.1953L867.179 26.6216" stroke="#07294A" stroke-width="0.450544" stroke-linecap="round" stroke-linejoin="round"/>
<path d="M860.169 20.9831C860.169 20.9831 868.778 20.5375 871.146 14.0189C871.199 13.8815 871.336 13.7949 871.482 13.8056C871.629 13.8163 871.752 13.9218 871.784 14.0655C872.319 16.3785 873.914 20.746 878.406 21.4719" stroke="#07294A" stroke-width="0.450544" stroke-linecap="round" stroke-linejoin="round"/>
<path d="M860.169 23.1254C860.169 23.1254 855.477 19.9933 858.193 14.2598C860.909 8.52629 871.289 5.44394 877.023 9.91222C877.023 9.91222 888.641 8.5154 887.464 24.967C886.287 41.4185 887.916 44.7681 883.48 45.4923C879.045 46.2166 867.58 41.2375 870.506 36.9826C873.432 32.7277 879.377 24.7619 879.377 24.7619" stroke="#07294A" stroke-width="0.450544" stroke-linecap="round" stroke-linejoin="round"/>
<path d="M859.324 22.3936C859.324 22.3936 854.089 35.0813 855.658 37.8575C857.227 40.6337 864.971 39.2456 864.971 39.2456" stroke="#07294A" stroke-width="0.450544" stroke-linecap="round" stroke-linejoin="round"/>
<path d="M902.355 73.7675C902.355 73.7675 892.372 100.531 874.593 107.324C856.814 114.116 819.095 79.5992 814.24 73.7675C810.282 69.0117 808.929 59.5243 814.24 59.7657C819.551 60.0071 824.38 63.6282 824.38 63.6282C824.38 63.6282 824.38 58.7899 826.311 59.7606C827.084 60.1489 827.856 61.0771 828.505 62.0512C829.984 64.2351 832.026 65.9773 834.416 67.0925L864.971 81.6085L876.645 57.3516" stroke="#07294A" stroke-width="0.450544" stroke-linecap="round" stroke-linejoin="round"/>
<path d="M874.593 107.323C867.794 109.921 858.078 106.474 848.4 100.904C852.218 107.707 860.819 112.453 870.825 112.453C884.376 112.453 895.361 103.753 895.361 93.0197C895.395 91.5676 895.157 90.1218 894.66 88.7568C889.957 96.0933 883.185 104.041 874.593 107.323Z" fill="#07294A"/>
<path d="M855.364 47.1675C855.364 47.1675 842.848 59.0412 840.192 70.629" stroke="#07294A" stroke-width="0.450544" stroke-linecap="round" stroke-linejoin="round"/>
<path d="M817.554 77.2158C817.554 77.2158 817.424 100.078 828.242 107.323C839.06 114.569 848.4 100.904 848.4 100.904" stroke="#07294A" stroke-width="0.450544" stroke-linecap="round" stroke-linejoin="round"/>
<path d="M833.674 66.4046C833.674 66.4046 833.312 52.8855 829.449 50.23C825.587 47.5745 822.57 47.8819 822.694 48.5614C822.818 49.241 825.345 51.6785 827.156 52.7648" stroke="#07294A" stroke-width="0.450544" stroke-linecap="round" stroke-linejoin="round"/>
<path d="M986.814 107.475L944.922 112.715C944.922 112.715 893.904 196.991 891.848 260.737L885.643 264.578L918.276 277.509L947.744 207.412C947.744 207.412 984.656 182.709 986.814 153.125C988.972 123.542 986.814 107.475 986.814 107.475Z" fill="#FFFBEA"/>
<path d="M983.763 165.967C979.875 154.093 973.524 146.357 966.347 146.357C954.514 146.357 944.921 167.386 944.921 193.327C944.907 199.11 945.406 204.883 946.413 210.578L947.744 207.413C947.744 207.413 974.464 189.526 983.763 165.967Z" fill="#07294A"/>
<path d="M954.345 115.032C954.345 115.032 947.216 231.391 967.352 286.483L963.146 292.662H998.959C998.959 292.662 1002.87 144.66 1002.87 112.715L954.345 115.032Z" fill="#79C9E7"/>
<path d="M964.782 177.109C961.667 170.203 964.739 162.08 971.644 158.965L1033.98 130.841C1040.89 127.726 1049.01 130.798 1052.13 137.704L1054.11 142.099C1057.22 149.004 1054.15 157.127 1047.25 160.242L984.908 188.366C978.003 191.481 969.88 188.409 966.765 181.504L964.782 177.109Z" fill="#FFFBEA"/>
<path fill-rule="evenodd" clip-rule="evenodd" d="M1053.12 139.901C1056.78 148.02 1053.17 157.571 1045.05 161.233L987.106 187.374" fill="#FFFBEA"/>
<path d="M1053.12 139.901C1056.78 148.02 1053.17 157.571 1045.05 161.233L987.106 187.374" stroke="#07294A" stroke-width="0.450544" stroke-linecap="round" stroke-linejoin="round"/>
<path d="M981.555 25.003V40.1247L962.822 44.7291V19.2099L981.555 14.6055V25.003Z" fill="#FFFBEA"/>
<path d="M970.973 30.2352C971.25 30.2352 971.474 30.0109 971.474 29.7343C971.474 29.4577 971.25 29.2334 970.973 29.2334C970.696 29.2334 970.472 29.4577 970.472 29.7343C970.472 30.0109 970.696 30.2352 970.973 30.2352Z" fill="#07294A"/>
<path d="M978.666 30.2352C978.943 30.2352 979.167 30.0109 979.167 29.7343C979.167 29.4577 978.943 29.2334 978.666 29.2334C978.39 29.2334 978.165 29.4577 978.165 29.7343C978.165 30.0109 978.39 30.2352 978.666 30.2352Z" fill="#07294A"/>
<path d="M976.409 32.7218V25.0029H980.276" stroke="#07294A" stroke-width="0.450544" stroke-linecap="round" stroke-linejoin="round"/>
<path fill-rule="evenodd" clip-rule="evenodd" d="M970.029 25.0032H973.896Z" fill="#FFFBEA"/>
<path d="M970.029 25.0032H973.896" stroke="#07294A" stroke-width="0.450544" stroke-linecap="round" stroke-linejoin="round"/>
<path d="M964.056 28.9582V31.6387C962.61 31.6387 961.438 30.4666 961.438 29.0206C961.438 28.9403 961.441 28.8608 961.448 28.7823C961.595 27.1565 964.056 27.3258 964.056 28.9582Z" fill="#FFFBEA"/>
<path d="M964.056 31.6386C962.61 31.6386 961.438 30.4665 961.438 29.0205" stroke="#07294A" stroke-width="0.450544" stroke-linecap="round" stroke-linejoin="round"/>
<path d="M974.718 34.625C974.015 34.625 973.341 34.3458 972.844 33.8488C972.347 33.3519 972.068 32.6779 972.068 31.9751" stroke="#79C9E7" stroke-width="0.450544" stroke-linecap="round" stroke-linejoin="round"/>
<path d="M981.555 40.125L962.822 44.7293" stroke="#07294A" stroke-width="0.450544" stroke-linecap="round" stroke-linejoin="round"/>
<path fill-rule="evenodd" clip-rule="evenodd" d="M976.409 32.728L974.718 33.1437Z" fill="#FFFBEA"/>
<path d="M976.409 32.728L974.718 33.1437" stroke="#07294A" stroke-width="0.450544" stroke-linecap="round" stroke-linejoin="round"/>
<path d="M944.922 71.8083V112.715L1002.87 126.958V81.3992C1002.87 65.2448 991.843 51.1775 976.155 47.3218H976.155C968.632 45.4727 960.676 47.1846 954.58 51.9643C948.483 56.7441 944.922 64.0612 944.922 71.8083V71.8083Z" fill="#FFFBEA"/>
<path fill-rule="evenodd" clip-rule="evenodd" d="M954.345 115.031C954.345 115.031 947.216 231.39 967.352 286.482Z" fill="#FFFBEA"/>
<path d="M954.345 115.031C954.345 115.031 947.216 231.39 967.352 286.482" stroke="#07294A" stroke-width="0.450544" stroke-linecap="round" stroke-linejoin="round"/>
<path d="M963.693 28.0383C963.693 28.0383 965.565 26.7258 966.331 23.7393C966.331 23.7393 969.964 23.578 970.472 21.3414C970.472 21.3414 972.928 22.2243 973.896 20.7528C973.896 20.7528 976.395 22.5774 977.632 20.7528C977.632 20.7528 979.594 22.4597 980.574 20.7528C980.574 20.7528 982.635 21.518 982.752 19.0459" stroke="#07294A" stroke-width="0.450544" stroke-linecap="round" stroke-linejoin="round"/>
<path d="M961.595 27.7558C961.595 27.7558 962.233 12.9242 982.893 16.8089L982.432 14.4978C982.279 13.7358 981.665 13.1512 980.897 13.0359C976.708 12.3988 963.554 11.3234 960.055 22.165C960.144 23.4536 960.419 24.7224 960.872 25.932" stroke="#79C9E7" stroke-width="0.450544" stroke-linecap="round" stroke-linejoin="round"/>
<path d="M960.95 20.014C960.95 20.014 960.792 19.5329 960.588 18.9081C960.153 17.6644 959.267 16.629 958.106 16.0061C957.482 15.6521 957.002 14.8899 957.384 13.2775C958.208 9.80487 973.974 3.02516 980.276 12.9483" stroke="#79C9E7" stroke-width="0.450544" stroke-linecap="round" stroke-linejoin="round"/>
<path d="M990.736 54.8584C990.736 54.8584 1022.19 83.4959 1024.31 131.525C1026.43 179.554 1005.94 188.382 1004.88 185.557C1003.82 182.732 1002.87 172.844 1002.87 172.844C1002.87 172.844 997.82 176.375 998.173 173.55C998.526 170.725 1002.07 163.684 1002.07 163.684L998.632 129.94C997.641 120.21 993.851 110.975 987.72 103.354L977.996 91.2653" stroke="#07294A" stroke-width="0.450544" stroke-linecap="round" stroke-linejoin="round"/>
<path d="M950.377 56.1372C950.377 56.1372 939.869 66.3095 936.708 88.6759C933.546 111.042 932.605 135.017 932.605 135.017" stroke="#07294A" stroke-width="0.450544" stroke-linecap="round" stroke-linejoin="round"/>
</g>
<defs>
<linearGradient id="paint0_linear_994_17815" x1="34.8137" y1="107.22" x2="1165.18" y2="107.22" gradientUnits="userSpaceOnUse">
<stop stop-color="#79C9E7"/>
<stop offset="0.2" stop-color="#74DAE1"/>
<stop offset="0.4" stop-color="#82E8D3"/>
<stop offset="0.6" stop-color="#A3F3C1"/>
<stop offset="0.8" stop-color="#CDFBB1"/>
<stop offset="1" stop-color="#FDFFAA"/>
</linearGradient>
<clipPath id="clip0_994_17815">
<rect width="1200" height="200" fill="white"/>
</clipPath>
</defs>
</svg>
