<svg width="170" height="261" viewBox="0 0 170 261" fill="none" xmlns="http://www.w3.org/2000/svg">
<g clip-path="url(#clip0_838_13051)">
<path fill-rule="evenodd" clip-rule="evenodd" d="M-40.2376 303.312C-88.0561 218.767 -58.81 111.272 25.5588 62.5614C70.4599 36.6377 104.567 32.7413 139.301 35.7488C199.242 85.1487 216.501 172.03 176.376 241.527C132.539 317.456 36.4853 344.441 -40.2376 303.312Z" fill="url(#paint0_linear_838_13051)"/>
<path d="M41.289 138.613L69.475 109.84L83.4487 325.945H41.289L47.5164 317.449C47.1171 284.311 41.289 138.613 41.289 138.613Z" fill="#DFEFFF"/>
<path d="M51.3798 121.531L98.1274 118.328L106.628 121.79L110.623 325.945H67.2024L71.7934 317.718L51.3798 121.531Z" fill="#F0F8FF"/>
<path d="M67.2024 325.945L71.7933 317.718L51.3798 121.531" stroke="#07294A" stroke-width="0.501787" stroke-linecap="round" stroke-linejoin="round"/>
<path d="M88.7828 23.3503V30.7292C88.7828 36.4348 84.8876 41.4033 79.3469 42.7651L67.6046 45.6512V16.8012L77.3682 14.4015C80.1176 13.7257 83.0251 14.3513 85.2532 16.0981C87.4814 17.8449 88.7828 20.519 88.7828 23.3503V23.3503Z" fill="#F0F8FF"/>
<path d="M88.7828 30.7292C88.7828 36.4348 84.8876 41.4033 79.3469 42.7651L67.6046 45.6512" stroke="#07294A" stroke-width="0.501787" stroke-linecap="round" stroke-linejoin="round"/>
<path d="M76.8195 29.2651C76.5067 29.2651 76.2532 29.0115 76.2532 28.6988C76.2532 28.3861 76.5067 28.1325 76.8195 28.1325C77.1322 28.1325 77.3857 28.3861 77.3857 28.6988C77.3857 29.0115 77.1322 29.2651 76.8195 29.2651Z" fill="#07294A"/>
<path d="M85.5168 29.2651C85.204 29.2651 84.9505 29.0115 84.9505 28.6988C84.9505 28.3861 85.204 28.1325 85.5168 28.1325C85.8295 28.1325 86.083 28.3861 86.083 28.6988C86.083 29.0115 85.8295 29.2651 85.5168 29.2651Z" fill="#07294A"/>
<path d="M82.9651 32.0768V23.3504H87.3369" stroke="#07294A" stroke-width="0.501787" stroke-linecap="round" stroke-linejoin="round"/>
<path d="M75.7528 23.3503H80.1245" stroke="#07294A" stroke-width="0.501787" stroke-linecap="round" stroke-linejoin="round"/>
<path d="M68.9995 27.8215V30.852C67.3648 30.852 66.0397 29.5268 66.0397 27.8921C66.0397 27.8013 66.0437 27.7115 66.0518 27.6227C66.2176 25.7847 68.9995 25.9761 68.9995 27.8215Z" fill="#F0F8FF"/>
<path d="M68.9995 30.852C67.3648 30.852 66.0397 29.5268 66.0397 27.8921" stroke="#07294A" stroke-width="0.501787" stroke-linecap="round" stroke-linejoin="round"/>
<path d="M80.575 33.0964C80.2074 33.4639 79.7089 33.6704 79.1891 33.6704C78.6693 33.6704 78.1708 33.4639 77.8032 33.0964" stroke="#79C9E7" stroke-width="0.501787" stroke-linecap="round" stroke-linejoin="round"/>
<path d="M82.9652 32.0837L81.0531 32.5537" stroke="#07294A" stroke-width="0.501787" stroke-linecap="round" stroke-linejoin="round"/>
<path d="M106.803 76.2649V122.511L41.2891 138.613V87.1077C41.2891 68.8447 53.757 52.9412 71.4922 48.5822H71.4923C79.9974 46.4918 88.9914 48.4271 95.8841 53.8308C102.777 59.2344 106.803 67.5066 106.803 76.2649V76.2649Z" fill="#79C9E7"/>
<path d="M67.5196 39.306C67.5196 39.306 70.2237 46.559 63.6194 50.8842C57.3929 54.962 52.2585 40.8233 55.4571 30.7753C55.6437 30.1923 55.736 29.5832 55.7304 28.971C55.6907 25.032 56.7955 9.73978 76.2532 8.69698C89.251 8.00037 99.938 17.4914 89.2314 28.1325" stroke="#07294A" stroke-width="0.501787" stroke-linecap="round" stroke-linejoin="round"/>
<path d="M88.7828 23.3503C88.7828 23.3503 84.6465 24.068 82.6502 18.4785C82.6502 18.4785 76.3759 27.1955 68.9995 25.8646L68.4739 26.6777" stroke="#07294A" stroke-width="0.501787" stroke-linecap="round" stroke-linejoin="round"/>
<path d="M55.8991 51.12C55.8991 51.12 55.687 54.8329 63.1127 53.4538" stroke="#79C9E7" stroke-width="0.501787" stroke-linecap="round" stroke-linejoin="round"/>
<path d="M54.4774 54.7436C54.4774 54.7436 50.3112 71.3124 58.2962 69.1165C66.2811 66.9207 61.0909 56.9395 61.0909 56.9395" stroke="#07294A" stroke-width="0.501787" stroke-linecap="round" stroke-linejoin="round"/>
<path d="M136.962 35.0448L121.622 32.0836L170.33 8.63052L149.769 45.6512L144.978 40.4458L141.411 46.7587L139.155 38.7706" fill="#79C9E7"/>
<path d="M86.9366 49.1528C86.9366 49.1528 106.597 55.1428 119.173 87.5383C119.173 87.5383 130.335 41.0977 133.001 38.3744C137.126 34.1601 142.915 31.1879 141.052 35.4466C139.189 39.7052 137.326 40.4459 137.326 40.4459C137.326 40.4459 142.383 44.6052 138.923 47.7447" stroke="#07294A" stroke-width="0.501787" stroke-linecap="round" stroke-linejoin="round"/>
<path d="M144.267 32.0767C144.778 31.5872 151.832 47.291 142.915 56.2075C142.915 56.2075 158.885 179.974 81.0531 105.448" stroke="#07294A" stroke-width="0.501787" stroke-linecap="round" stroke-linejoin="round"/>
<path d="M85.3507 109.449C85.3507 109.449 91.1036 146.965 106.803 158.346V125.13C106.803 125.13 86.7451 110.736 85.3507 109.449Z" fill="#07294A"/>
<path d="M47.6724 65.5296C47.6724 65.5296 13.1031 113.034 41.2891 162.541" stroke="#07294A" stroke-width="0.501787" stroke-linecap="round" stroke-linejoin="round"/>
</g>
<defs>
<linearGradient id="paint0_linear_838_13051" x1="127.691" y1="294.712" x2="1.63351" y2="76.3745" gradientUnits="userSpaceOnUse">
<stop stop-color="#FDFFAA" stop-opacity="0"/>
<stop offset="1" stop-color="#FDFFAA"/>
</linearGradient>
<clipPath id="clip0_838_13051">
<rect width="169.42" height="261" fill="white"/>
</clipPath>
</defs>
</svg>
