<svg width="1200" height="200" viewBox="0 0 1200 200" fill="none" xmlns="http://www.w3.org/2000/svg">
<g clip-path="url(#clip0_994_57790)">
<g opacity="0.5">
<path fill-rule="evenodd" clip-rule="evenodd" d="M930.926 30.3741C930.926 15.608 942.897 3.6377 957.663 3.6377H1015.59C1030.36 3.6377 1042.33 15.608 1042.33 30.3741V56.0696C1042.33 57.8653 1043.91 59.2416 1045.7 59.2416V59.2416H1103.63C1118.4 59.2416 1130.37 71.2119 1130.37 85.978V143.907V143.907C1130.37 145.244 1131.62 146.304 1132.94 146.109C1134.02 145.95 1135.13 145.867 1136.25 145.867C1148.66 145.867 1158.72 155.928 1158.72 168.338C1158.72 180.748 1148.66 190.808 1136.25 190.808C1127.56 190.808 1120.02 185.876 1116.29 178.659C1113.99 174.222 1108.63 170.643 1103.63 170.643V170.643H1045.7C1030.94 170.643 1018.97 158.673 1018.97 143.907V118.211C1018.97 116.415 1017.39 115.039 1015.59 115.039V115.039H957.663V115.039C950.496 115.039 933.365 122.785 933.365 129.952V146.283C933.365 161.049 921.395 173.02 906.629 173.02H848.7C833.934 173.02 821.964 161.049 821.964 146.283V116.599C821.964 110.646 815.275 106.604 809.322 106.604V106.604H769.757C768.96 106.604 768.172 106.569 767.392 106.5C767.265 106.489 767.155 106.59 767.155 106.718V106.718V164.072C767.155 178.838 755.184 190.808 740.418 190.808H683.065C668.299 190.808 656.329 178.838 656.329 164.072V164.072C656.329 160.875 652.004 159.069 649.209 160.62C645.371 162.751 640.953 163.964 636.252 163.964H591.128C576.362 163.964 564.391 151.994 564.391 137.228V137.228C564.391 135.855 562.23 135.29 561.396 136.381C556.51 142.775 548.806 146.9 540.138 146.9H495.014C492.992 146.9 491.023 146.676 489.129 146.25C486.852 145.739 484.362 147.725 484.362 150.059V150.059V164.072C484.362 178.838 472.392 190.808 457.625 190.808H443.613C428.847 190.808 416.877 178.838 416.877 164.072V164.072C416.877 161.508 413.941 159.912 411.551 160.838C408.555 162 405.297 162.637 401.89 162.637H351.967C347.661 162.637 343.593 161.619 339.99 159.811C336.622 158.121 331.299 160.303 331.299 164.072V164.072C331.299 178.838 319.328 190.808 304.562 190.808H246.634C231.868 190.808 219.897 178.838 219.897 164.072V134.815C219.897 128.041 211.661 123.485 204.888 123.485V123.485H146.959V123.485C141.006 123.485 134.317 127.527 134.317 133.48V138.69C134.317 153.456 122.347 165.426 107.581 165.426H68.0162C53.2501 165.426 41.2798 153.456 41.2798 138.69V99.1248C41.2798 84.3587 53.2501 72.3884 68.0161 72.3884H107.581V72.3884C113.534 72.3884 120.223 68.3462 120.223 62.3931V38.82C120.223 24.0539 132.193 12.0836 146.959 12.0836H204.888C219.654 12.0836 231.624 24.0539 231.624 38.82V68.0766C231.624 74.8504 239.86 79.4065 246.634 79.4065V79.4065H304.562C311.737 79.4065 318.252 82.2329 323.055 86.833C323.832 87.578 325.231 87.0549 325.231 85.978V85.978C325.231 71.2119 337.201 59.2416 351.967 59.2416H401.89C416.656 59.2416 428.626 71.2119 428.626 85.978V112.005C428.626 118.772 436.847 123.323 443.613 123.323V123.323H457.625C459.647 123.323 461.616 123.547 463.51 123.973C465.787 124.484 468.277 122.498 468.277 120.164V120.164V79.8362C468.277 65.0701 480.248 53.0998 495.014 53.0998H501.855C511.699 53.0998 519.68 45.1197 519.68 35.2756V32.9361C519.68 18.17 531.65 6.19971 546.416 6.19971H591.54C606.306 6.19971 618.276 18.17 618.276 32.9361V52.34C618.276 62.184 626.408 70.1642 636.252 70.1642V70.1642C640.075 70.1642 643.71 70.9665 646.999 72.4118C656.08 76.4029 673.145 79.982 683.065 79.982V79.982H740.418C741.215 79.982 742.004 80.0168 742.783 80.0851C742.911 80.0963 743.021 79.9954 743.021 79.8672V79.8672V40.3023C743.021 25.5362 754.991 13.5659 769.757 13.5659H809.322C824.088 13.5659 836.058 25.5362 836.058 40.3023V51.6229C836.058 57.5759 842.747 61.6181 848.7 61.6181V61.6181H906.629V61.6181C913.795 61.6181 930.926 53.872 930.926 46.7055V30.3741Z" fill="url(#paint0_linear_994_57790)"/>
</g>
<path d="M515.61 86.4541H565.289L586.233 112.62H536.555L515.61 86.4541V86.4541Z" fill="#07294A"/>
<rect x="536.56" y="112.62" width="77.2061" height="87.3802" fill="#F0F8FF"/>
<rect x="613.767" y="112.62" width="49.6785" height="87.3802" fill="#DFEFFF"/>
<path d="M663.446 112.62V200H536.561" stroke="#07294A" stroke-width="0.747296"/>
<path d="M684.389 86.4541H634.711L613.767 112.62H663.445L684.389 86.4541V86.4541Z" fill="#F0F8FF"/>
<path d="M663.445 112.62L684.389 86.4541H634.711" stroke="#07294A" stroke-width="0.747296"/>
<rect x="564.094" y="112.62" width="22.139" height="25.6321" fill="#79C9E7"/>
<path d="M583.131 12.6372V80.7383H635.428V31.3958L616.67 12.6372H583.131Z" fill="#D1D1D1"/>
<path d="M583.131 80.7385H635.428V31.396" stroke="#07294A" stroke-width="0.495672"/>
<path d="M592.437 41.5993H614.277" stroke="#07294A" stroke-width="0.495672"/>
<path d="M592.437 46.198H614.277" stroke="#07294A" stroke-width="0.495672"/>
<path d="M592.437 50.7966H614.277" stroke="#07294A" stroke-width="0.495672"/>
<path d="M592.437 55.3952H603.357" stroke="#07294A" stroke-width="0.495672"/>
<path d="M564.571 0V68.1011H616.868V18.7586L598.11 0H564.571V0Z" fill="#F0F8FF"/>
<path d="M564.571 68.1013H616.868V18.7588" stroke="#07294A" stroke-width="0.495672"/>
<path d="M616.868 18.7586L598.109 0V18.7586H616.868V18.7586Z" fill="#79C9E7"/>
<path d="M579.8 28.9621H601.64" stroke="#07294A" stroke-width="0.495672"/>
<path d="M579.8 33.5608H601.64" stroke="#07294A" stroke-width="0.495672"/>
<path d="M579.8 38.1594H601.64" stroke="#07294A" stroke-width="0.495672"/>
<path d="M579.8 42.758H590.72" stroke="#07294A" stroke-width="0.495672"/>
<rect x="554.729" y="156.06" width="40.8699" height="29.749" stroke="#07294A" stroke-width="0.5"/>
<rect x="554.979" y="156.31" width="40.3699" height="14.6245" fill="#E04141"/>
<rect x="554.979" y="170.934" width="40.3699" height="14.6245" fill="white"/>
<path d="M426.957 215.203V283.176L431.443 292.837H400.687L390.728 197.606L426.957 215.203Z" fill="#DFEFFF"/>
<path d="M420.124 116.177L372.378 113.41V165.172V292.837H404.655L400.687 285.727L420.124 116.177Z" fill="#F0F8FF"/>
<path d="M417.784 31.3268V37.7038C417.784 42.6348 414.418 46.9287 409.629 48.1056L399.481 50.5998V25.6669L407.919 23.593C410.296 23.009 412.808 23.5497 414.734 25.0593C416.659 26.569 417.784 28.88 417.784 31.3268V31.3268Z" fill="#F0F8FF"/>
<path d="M417.784 37.7041C417.784 42.6351 414.418 46.9289 409.629 48.1059L399.481 50.6" stroke="#07294A" stroke-width="0.450544" stroke-linecap="round" stroke-linejoin="round"/>
<path d="M407.445 36.4387C407.175 36.4387 406.956 36.2196 406.956 35.9493C406.956 35.6791 407.175 35.46 407.445 35.46C407.715 35.46 407.935 35.6791 407.935 35.9493C407.935 36.2196 407.715 36.4387 407.445 36.4387Z" fill="#07294A"/>
<path d="M414.962 36.4387C414.691 36.4387 414.472 36.2196 414.472 35.9493C414.472 35.6791 414.691 35.46 414.962 35.46C415.232 35.46 415.451 35.6791 415.451 35.9493C415.451 36.2196 415.232 36.4387 414.962 36.4387Z" fill="#07294A"/>
<path d="M412.757 38.8687V31.3271H416.534" stroke="#07294A" stroke-width="0.450544" stroke-linecap="round" stroke-linejoin="round"/>
<path d="M406.523 31.3273H410.301" stroke="#07294A" stroke-width="0.450544" stroke-linecap="round" stroke-linejoin="round"/>
<path d="M400.687 35.1912V37.8102C399.274 37.8102 398.129 36.6649 398.129 35.2522C398.129 35.1737 398.133 35.0961 398.139 35.0194C398.283 33.4309 400.687 33.5963 400.687 35.1912Z" fill="#F0F8FF"/>
<path d="M400.687 37.8099C399.274 37.8099 398.129 36.6647 398.129 35.252" stroke="#07294A" stroke-width="0.450544" stroke-linecap="round" stroke-linejoin="round"/>
<path d="M410.691 39.75C410.373 40.0677 409.942 40.2461 409.493 40.2461C409.044 40.2461 408.613 40.0677 408.295 39.75" stroke="#79C9E7" stroke-width="0.450544" stroke-linecap="round" stroke-linejoin="round"/>
<path d="M412.757 38.8745L411.104 39.2807" stroke="#07294A" stroke-width="0.450544" stroke-linecap="round" stroke-linejoin="round"/>
<path d="M417.418 28.9318C417.418 28.9318 417.137 24.7415 413.341 25.0003C409.546 25.2591 404.111 24.914 403.68 28.3644C403.249 31.8148 401.921 34.5751 400.687 34.5751" stroke="#07294A" stroke-width="0.450544" stroke-linecap="round" stroke-linejoin="round"/>
<path d="M417.784 33.908C417.784 33.908 431.222 9.55955 407.445 7.83436C383.668 6.10916 372.478 37.6228 399.408 42.4533" stroke="#07294A" stroke-width="0.450544" stroke-linecap="round" stroke-linejoin="round"/>
<path d="M398.841 39.6557C398.841 40.675 399.668 41.5013 400.687 41.5013C401.706 41.5013 402.533 40.675 402.533 39.6557C402.533 38.6364 401.706 37.8101 400.687 37.8101" stroke="#79C9E7" stroke-width="0.450544" stroke-linecap="round" stroke-linejoin="round"/>
<path d="M417.784 41.0712C418.409 41.5942 419.303 41.6453 419.984 41.1967C420.664 40.7482 420.97 39.9063 420.736 39.1255C420.502 38.3448 419.783 37.8101 418.968 37.8101" stroke="#79C9E7" stroke-width="0.450544" stroke-linecap="round" stroke-linejoin="round"/>
<path d="M372.378 77.0572V117.024L428.996 130.94V86.4277C428.996 70.6444 418.221 56.9003 402.894 53.1331H402.894C395.543 51.3265 387.771 52.9991 381.814 57.6691C375.857 62.339 372.378 69.488 372.378 77.0571V77.0572Z" fill="#F0F8FF"/>
<path d="M372.378 117.024L428.996 130.94V218.481L342.948 204.93L372.378 117.024Z" fill="#79C9E7"/>
<path d="M404.655 292.837L400.687 285.726L411.622 190.343" stroke="#07294A" stroke-width="0.450544" stroke-linecap="round" stroke-linejoin="round"/>
<path d="M380.498 58.7793C380.498 58.7793 353.464 82.1331 371.176 114.797C388.888 147.461 445.934 100.765 446.625 97.0848C447.315 93.4044 441.334 92.4843 436.273 95.2446C436.273 95.2446 436.963 91.478 434.203 92.5562C431.443 93.6345 430.063 96.8548 430.063 96.8548L391.188 98.465L396.251 77.0726" stroke="#07294A" stroke-width="0.450544" stroke-linecap="round" stroke-linejoin="round"/>
<path d="M417.123 97.3906L434.203 52.4092L473.308 63.0409L449.155 117.024L427.545 112.645" stroke="#07294A" stroke-width="0.450544" stroke-linecap="round" stroke-linejoin="round"/>
<path d="M421.313 116.4V116.4C421.313 116.4 399.502 144.691 367.253 132.332L372.483 116.962C382.984 132.586 404.241 126.03 421.313 116.4Z" fill="#07294A"/>
<path d="M417.418 60.7388L427.572 69.8718" stroke="#07294A" stroke-width="0.450544" stroke-linecap="round" stroke-linejoin="round"/>
<path d="M464.046 83.7417C464.046 83.7417 470.432 107.723 455.251 117.902C440.069 128.081 428.996 120.49 428.996 120.49" stroke="#07294A" stroke-width="0.450544" stroke-linecap="round" stroke-linejoin="round"/>
<path d="M777.826 54.5822L803.19 52.9072C805.105 63.9143 796.769 97.0939 796.769 97.0939L776.869 80.1857C786.44 62.9572 777.826 54.5822 777.826 54.5822Z" fill="#79C9E7"/>
<path d="M812.382 109.777C812.382 109.777 758.774 218.904 825.931 223.899C893.088 228.894 911.958 171.173 911.958 171.173L920.838 166.991L893.088 148.417L855.428 166.991L843.054 111.125" fill="#79C9E7"/>
<path d="M840.836 153.288C845.572 153.288 850.036 155.851 853.964 160.381L855.428 166.992L857.856 165.794C864.798 177.281 869.291 195.618 869.291 216.279C869.291 216.547 869.288 216.813 869.286 217.08C857.794 222.212 843.519 225.207 825.931 223.899C820.747 223.514 816.285 222.506 812.461 220.978C812.409 219.426 812.383 217.86 812.382 216.279C812.382 181.49 825.121 153.288 840.836 153.288Z" fill="#07294A"/>
<path d="M821.959 112.131C821.959 112.131 814.714 230.393 835.178 286.386L830.904 292.667H867.303C867.303 292.667 871.279 142.244 871.279 109.777L821.959 112.131Z" fill="#79C9E7"/>
<path d="M833.535 20.6312V36.0005L852.574 40.6798V14.7433L833.535 10.064V20.6312Z" fill="#F0F8FF"/>
<path d="M844.29 25.9483C844.009 25.9483 843.781 25.7204 843.781 25.4392C843.781 25.1581 844.009 24.9302 844.29 24.9302C844.571 24.9302 844.799 25.1581 844.799 25.4392C844.799 25.7204 844.571 25.9483 844.29 25.9483Z" fill="#07294A"/>
<path d="M836.471 25.9483C836.19 25.9483 835.962 25.7204 835.962 25.4392C835.962 25.1581 836.19 24.9302 836.471 24.9302C836.752 24.9302 836.98 25.1581 836.98 25.4392C836.98 25.7204 836.752 25.9483 836.471 25.9483Z" fill="#07294A"/>
<path d="M838.765 28.4759V20.6309H834.835" stroke="#07294A" stroke-width="0.450544" stroke-linecap="round" stroke-linejoin="round"/>
<path d="M845.249 20.6311H841.319" stroke="#07294A" stroke-width="0.450544" stroke-linecap="round" stroke-linejoin="round"/>
<path d="M851.32 24.6506V27.3749C852.79 27.3749 853.981 26.1836 853.981 24.714C853.981 24.6324 853.978 24.5516 853.97 24.4718C853.821 22.8195 851.32 22.9915 851.32 24.6506Z" fill="#F0F8FF"/>
<path d="M851.32 27.3748C852.79 27.3748 853.981 26.1835 853.981 24.7139" stroke="#07294A" stroke-width="0.450544" stroke-linecap="round" stroke-linejoin="round"/>
<path d="M840.484 30.41C841.198 30.41 841.883 30.1262 842.388 29.6212C842.893 29.1161 843.177 28.4311 843.177 27.7168" stroke="#79C9E7" stroke-width="0.450544" stroke-linecap="round" stroke-linejoin="round"/>
<path d="M833.535 36L852.574 40.6796" stroke="#07294A" stroke-width="0.450544" stroke-linecap="round" stroke-linejoin="round"/>
<path d="M838.765 28.4824L840.484 28.9049" stroke="#07294A" stroke-width="0.450544" stroke-linecap="round" stroke-linejoin="round"/>
<path d="M850.628 23.8939C850.628 23.8939 841.655 19.826 839.023 16.3564V18.7492C839.023 18.7492 834.178 16.9546 832.981 14.8608" stroke="#07294A" stroke-width="0.450544" stroke-linecap="round" stroke-linejoin="round"/>
<path d="M833.535 19.0487C833.535 19.0487 829.332 17.2541 830.469 13.3657C831.605 9.47728 840.484 6.48622 847.099 8.34067C847.099 8.34067 866.544 12.1393 852.574 32.4188" stroke="#07294A" stroke-width="0.450544" stroke-linecap="round" stroke-linejoin="round"/>
<path d="M812.382 68.2016V109.777L871.279 124.253V77.9494C871.279 61.5308 860.07 47.2334 844.126 43.3146H844.126C836.48 41.4353 828.394 43.1752 822.198 48.0331C816.001 52.8911 812.382 60.3278 812.382 68.2016V68.2016Z" fill="#F0F8FF"/>
<path d="M867.303 292.667C867.303 292.667 871.279 142.244 871.279 109.777" stroke="#07294A" stroke-width="0.450544" stroke-linecap="round" stroke-linejoin="round"/>
<path d="M821.96 112.131C821.96 112.131 814.714 230.393 835.179 286.386L830.904 292.666" stroke="#07294A" stroke-width="0.450544" stroke-linecap="round" stroke-linejoin="round"/>
<path d="M856.477 49.0205C856.477 49.0205 882.394 63.9147 877.847 95.9789C873.301 128.043 812.044 116.079 796.969 98.3718L795.772 90.7147C795.772 90.7147 787.261 80.2961 792.115 82.5143C796.969 84.7325 845.997 88.3218 845.997 88.3218L845.249 77.0754" stroke="#07294A" stroke-width="0.450544" stroke-linecap="round" stroke-linejoin="round"/>
<path d="M819.574 50.3955C819.574 50.3955 804.213 62.4684 799.873 84.0093" stroke="#07294A" stroke-width="0.450544" stroke-linecap="round" stroke-linejoin="round"/>
<path d="M809.724 116.008C809.724 116.008 786.201 121.702 775.912 95.0216C767.287 72.6578 773.997 62.0002 777.108 61.2824C780.219 60.5645 781.176 64.8716 781.176 64.8716" stroke="#07294A" stroke-width="0.450544" stroke-linecap="round" stroke-linejoin="round"/>
</g>
<defs>
<linearGradient id="paint0_linear_994_57790" x1="41.2798" y1="97.2228" x2="1158.72" y2="97.2228" gradientUnits="userSpaceOnUse">
<stop stop-color="#79C9E7"/>
<stop offset="0.2" stop-color="#74DAE1"/>
<stop offset="0.4" stop-color="#82E8D3"/>
<stop offset="0.6" stop-color="#A3F3C1"/>
<stop offset="0.8" stop-color="#CDFBB1"/>
<stop offset="1" stop-color="#FDFFAA"/>
</linearGradient>
<clipPath id="clip0_994_57790">
<rect width="1200" height="200" fill="white"/>
</clipPath>
</defs>
</svg>
