<svg width="1200" height="200" viewBox="0 0 1200 200" fill="none" xmlns="http://www.w3.org/2000/svg">
<g clip-path="url(#clip0_929_56249)">
<path fill-rule="evenodd" clip-rule="evenodd" d="M284.017 3.6377C269.251 3.6377 257.281 15.608 257.281 30.3741V30.3741C257.281 37.5408 251.471 43.3506 244.304 43.3506H56.3618C41.5958 43.3506 29.6255 55.3209 29.6255 70.087V145.097C29.6255 159.863 41.5958 171.834 56.3619 171.834H309.728C324.494 171.834 336.465 159.863 336.465 145.097V145.097C336.465 137.93 342.274 132.121 349.441 132.121H449.787C459.632 132.121 467.612 140.101 467.612 149.945V169.626C467.612 184.392 479.582 196.363 494.348 196.363H868.969C883.735 196.363 895.705 184.392 895.705 169.626V163.961C895.705 154.117 903.685 146.137 913.529 146.137H1143.64C1158.4 146.137 1170.38 134.167 1170.38 119.4V56.0704C1170.38 41.3043 1158.4 29.334 1143.64 29.334H769.018C754.252 29.334 742.282 41.3043 742.282 56.0704V56.0704C742.282 62.5924 736.995 67.8796 730.473 67.8796H581.944C572.1 67.8796 564.12 59.8994 564.12 50.0553V30.3741C564.12 15.608 552.149 3.6377 537.383 3.6377H284.017Z" fill="url(#paint0_linear_929_56249)"/>
<path d="M891.671 18.3402C887.935 18.3402 884.907 15.3116 884.907 11.5756C884.907 7.83965 887.935 4.81104 891.671 4.81104C895.407 4.81104 898.436 7.83965 898.436 11.5756C898.436 15.3116 895.407 18.3402 891.671 18.3402Z" fill="#F0F8FF"/>
<path d="M891.477 100.27C884.485 100.27 878.816 94.6009 878.816 87.6084C878.816 80.6158 884.485 74.9473 891.477 74.9473C898.47 74.9473 904.138 80.6158 904.138 87.6084C904.138 94.6009 898.47 100.27 891.477 100.27Z" fill="#07294A"/>
<path d="M891.477 11.7227H891.477C882.75 11.7227 874.379 15.1897 868.208 21.361C862.037 27.5324 858.57 35.9025 858.57 44.6301V81.2196H924.385V44.6301C924.385 35.9025 920.918 27.5324 914.746 21.361C908.575 15.1897 900.205 11.7227 891.477 11.7227Z" fill="#0071CB"/>
<path d="M852.034 81.2196V81.2196C855.644 81.2196 858.57 78.2935 858.57 74.6841V44.6301C858.57 35.9025 862.037 27.5324 868.208 21.361C874.379 15.1897 882.75 11.7227 891.477 11.7227H891.477C900.205 11.7227 908.575 15.1897 914.746 21.361C920.918 27.5324 924.385 35.9025 924.385 44.6301V74.6841C924.385 78.2935 927.311 81.2196 930.92 81.2196H930.92C933.085 81.2196 934.84 82.9747 934.84 85.1396V85.6032C934.84 87.7682 933.085 89.5233 930.92 89.5233H852.034C849.869 89.5233 848.114 87.7682 848.114 85.6033V85.1397C848.114 84.1 848.527 83.1029 849.262 82.3678C849.997 81.6326 850.995 81.2196 852.034 81.2196V81.2196Z" fill="#DFEFFF"/>
<path d="M852.034 81.2194C855.644 81.2194 858.57 78.2933 858.57 74.6838V44.6299" stroke="#07294A" stroke-width="0.464913"/>
<rect width="86.7262" height="8.30367" rx="4.12634" transform="matrix(-1 0 0 1 934.84 81.2192)" fill="#79C9E7"/>
<path d="M852.034 89.5232H930.92" stroke="#07294A" stroke-width="0.464913"/>
<path d="M1038.84 80.7217C1036.82 80.7217 1035.19 79.0906 1035.19 77.0784C1035.19 75.0662 1036.82 73.4351 1038.84 73.4351C1040.85 73.4351 1042.48 75.0662 1042.48 77.0784C1042.48 79.0906 1040.85 80.7217 1038.84 80.7217Z" fill="#79C9E7"/>
<path d="M1038.84 20.6274V66.6639" stroke="#07294A" stroke-width="0.464913"/>
<path d="M1038.84 56.5664L1058.42 76.1493H1019.25L1038.84 56.5664V56.5664Z" fill="#F0F8FF"/>
<path d="M1058.42 76.1493H1019.25L1038.84 56.5664" stroke="#07294A" stroke-width="0.464913"/>
<path d="M920.948 218.849C920.477 172.209 940.192 116.87 940.192 116.87L954.397 108.845L957.695 161.609L940.192 228.272L915.059 221.205L920.948 218.849Z" fill="#79C9E7"/>
<path d="M938.231 172.916C938.231 156.888 945.62 143.127 956.168 137.184L957.695 161.609L947.357 200.984C941.733 193.91 938.231 183.95 938.231 172.916Z" fill="#07294A"/>
<path d="M946.478 108.915C946.478 108.915 941.723 186.527 955.153 223.274L952.348 227.395H976.236C976.236 227.395 978.845 128.677 978.845 107.37L946.478 108.915Z" fill="#79C9E7"/>
<path d="M954.41 48.8643V58.9508L966.906 62.0218V45.0006L954.41 41.9292V48.8643V48.8643Z" fill="#F0F8FF"/>
<path d="M961.469 52.3542C961.284 52.3542 961.135 52.2046 961.135 52.0201C961.135 51.8356 961.284 51.686 961.469 51.686C961.653 51.686 961.803 51.8356 961.803 52.0201C961.803 52.2046 961.653 52.3542 961.469 52.3542Z" fill="#07294A"/>
<path d="M956.337 52.3542C956.153 52.3542 956.003 52.2046 956.003 52.0201C956.003 51.8356 956.153 51.686 956.337 51.686C956.522 51.686 956.671 51.8356 956.671 52.0201C956.671 52.2046 956.522 52.3542 956.337 52.3542Z" fill="#07294A"/>
<path d="M957.843 54.0134V48.8647H955.263" stroke="#07294A" stroke-width="0.464913"/>
<path d="M962.098 48.8645H959.519" stroke="#07294A" stroke-width="0.464913"/>
<path d="M966.083 51.5028V53.2908C967.047 53.2908 967.829 52.5089 967.829 51.5445C967.829 51.4909 967.826 51.4379 967.822 51.3855C967.724 50.3011 966.083 50.414 966.083 51.5028Z" fill="#F0F8FF"/>
<path d="M966.083 53.2907C967.047 53.2907 967.829 52.5089 967.829 51.5444" stroke="#07294A" stroke-width="0.464913"/>
<path d="M958.971 55.2826C959.44 55.2826 959.889 55.0964 960.221 54.7649C960.552 54.4335 960.738 53.9839 960.738 53.5151" stroke="#79C9E7" stroke-width="0.464913" stroke-linecap="round" stroke-linejoin="round"/>
<path d="M954.41 58.9512L966.906 62.0223" stroke="#07294A" stroke-width="0.464913"/>
<path d="M957.843 54.0174L958.971 54.2946" stroke="#07294A" stroke-width="0.464913" stroke-linecap="round"/>
<path d="M978.845 80.0841V107.369L940.192 116.87V86.4813C940.192 75.7062 947.548 66.3232 958.012 63.7514H958.012C963.03 62.518 968.337 63.6599 972.403 66.848C976.47 70.0362 978.845 74.9167 978.845 80.0841L978.845 80.0841Z" fill="#F0F8FF"/>
<path d="M946.478 108.914C946.478 108.914 941.723 186.526 955.153 223.273" stroke="#07294A" stroke-width="0.464913"/>
<path d="M966.083 51.5024C966.083 51.5024 962.328 50.1123 963.034 45.833H954.083" stroke="#07294A" stroke-width="0.464913"/>
<path d="M967.678 50.9689C967.678 50.9689 971.671 40.9649 962.445 41.3182C953.219 41.6716 952.63 41.8286 952.316 43.4382C952.002 45.0479 954.41 46.8145 954.41 46.8145" stroke="#07294A" stroke-width="0.464913"/>
<path d="M967.829 64.292C967.829 64.292 992.086 72.5689 995.855 95.6533C999.624 118.738 970.415 136.876 970.415 136.876L962.253 125.333L975.362 101.542L962.253 87.1733" stroke="#07294A" stroke-width="0.464913"/>
<path d="M970.415 136.876L959.421 121.329" stroke="#07294A" stroke-width="0.464913"/>
<path d="M948.249 68.8107C948.249 68.8107 931.548 77.5158 929.192 94.0047L923.539 72.5691C923.539 72.5691 925.895 67.858 923.539 67.3869C923.539 67.3869 923.775 57.6001 917.415 62.0224C911.055 66.4447 906.11 126.041 938.38 122.272" stroke="#07294A" stroke-width="0.464913"/>
<path d="M1068.22 162.112V227.977H1055.69V221.276H988.449V227.977H975.919V162.112H1068.22V162.112Z" fill="#F0F8FF"/>
<path d="M975.919 227.977V162.112" stroke="#07294A" stroke-width="0.464913"/>
<rect width="67.2423" height="15.2075" transform="matrix(-1 0 0 1 1055.69 173.69)" fill="#D1D1D1"/>
<path d="M988.449 173.69V188.898H1055.69" stroke="#07294A" stroke-width="0.464913"/>
<rect width="2.85141" height="2.85141" transform="matrix(-1 0 0 1 1023.5 179.869)" fill="#07294A"/>
<rect width="67.2423" height="15.2075" transform="matrix(-1 0 0 1 1055.69 192.542)" fill="#D1D1D1"/>
<path d="M988.449 192.542V207.749H1055.69" stroke="#07294A" stroke-width="0.464913"/>
<rect width="2.85141" height="2.85141" transform="matrix(-1 0 0 1 1023.5 198.72)" fill="#07294A"/>
<rect width="5.62424" height="38.1634" transform="matrix(-1 0 0 1 1066.75 123.919)" fill="#D1D1D1"/>
<path d="M1061.13 162.083H1066.75V123.919" stroke="#07294A" stroke-width="0.464913"/>
<path d="M1065.28 131.059H1061.13" stroke="#07294A" stroke-width="0.464913"/>
<path d="M1065.28 132.596H1061.13" stroke="#07294A" stroke-width="0.464913"/>
<path d="M1065.28 134.133H1061.13" stroke="#07294A" stroke-width="0.464913"/>
<rect width="5.62424" height="38.1634" transform="matrix(-1 0 0 1 1059.83 123.919)" fill="#F0F8FF"/>
<path d="M1054.21 162.083H1059.83V123.919" stroke="#07294A" stroke-width="0.464913"/>
<path d="M1058.36 131.059H1054.21" stroke="#07294A" stroke-width="0.464913"/>
<path d="M1058.36 132.596H1054.21" stroke="#07294A" stroke-width="0.464913"/>
<path d="M1058.36 134.133H1054.21" stroke="#07294A" stroke-width="0.464913"/>
<rect width="5.62424" height="38.1634" transform="matrix(-1 0 0 1 1052.91 123.919)" fill="#D1D1D1"/>
<path d="M1047.28 162.083H1052.91V123.919" stroke="#07294A" stroke-width="0.464913"/>
<path d="M1051.44 131.059H1047.28" stroke="#07294A" stroke-width="0.464913"/>
<path d="M1051.44 132.596H1047.28" stroke="#07294A" stroke-width="0.464913"/>
<path d="M1051.44 134.133H1047.28" stroke="#07294A" stroke-width="0.464913"/>
<rect width="5.62424" height="38.1634" transform="matrix(-1 0 0 1 1045.99 123.919)" fill="#F0F8FF"/>
<path d="M1040.36 162.083H1045.99V123.919" stroke="#07294A" stroke-width="0.464913"/>
<path d="M1044.51 131.059H1040.36" stroke="#07294A" stroke-width="0.464913"/>
<path d="M1044.51 132.596H1040.36" stroke="#07294A" stroke-width="0.464913"/>
<path d="M1044.51 134.133H1040.36" stroke="#07294A" stroke-width="0.464913"/>
<rect width="5.62424" height="38.1634" transform="matrix(-1 0 0 1 1039.07 123.919)" fill="#D1D1D1"/>
<path d="M1033.44 162.083H1039.07V123.919" stroke="#07294A" stroke-width="0.464913"/>
<path d="M1037.59 131.059H1033.44" stroke="#07294A" stroke-width="0.464913"/>
<path d="M1037.59 132.596H1033.44" stroke="#07294A" stroke-width="0.464913"/>
<path d="M1037.59 134.133H1033.44" stroke="#07294A" stroke-width="0.464913"/>
<rect width="5.62424" height="38.1634" transform="matrix(-1 0 0 1 1032.14 123.919)" fill="#F0F8FF"/>
<path d="M1026.52 162.083H1032.14V123.919" stroke="#07294A" stroke-width="0.464913"/>
<path d="M1030.67 131.059H1026.52" stroke="#07294A" stroke-width="0.464913"/>
<path d="M1030.67 132.596H1026.52" stroke="#07294A" stroke-width="0.464913"/>
<path d="M1030.67 134.133H1026.52" stroke="#07294A" stroke-width="0.464913"/>
<rect width="5.62424" height="38.1634" transform="matrix(-1 0 0 1 1025.22 123.919)" fill="#D1D1D1"/>
<path d="M1019.6 162.083H1025.22V123.919" stroke="#07294A" stroke-width="0.464913"/>
<path d="M1023.75 131.059H1019.6" stroke="#07294A" stroke-width="0.464913"/>
<path d="M1023.75 132.596H1019.6" stroke="#07294A" stroke-width="0.464913"/>
<path d="M1023.75 134.133H1019.6" stroke="#07294A" stroke-width="0.464913"/>
<rect width="5.62424" height="38.1634" transform="matrix(-1 0 0 1 1018.3 123.919)" fill="#F0F8FF"/>
<path d="M1012.68 162.083H1018.3V123.919" stroke="#07294A" stroke-width="0.464913"/>
<path d="M1016.83 131.059H1012.68" stroke="#07294A" stroke-width="0.464913"/>
<path d="M1016.83 132.596H1012.68" stroke="#07294A" stroke-width="0.464913"/>
<path d="M1016.83 134.133H1012.68" stroke="#07294A" stroke-width="0.464913"/>
<path d="M1011.95 125.455L1006.55 123.89L995.931 160.547L1001.33 162.112L1011.95 125.455Z" fill="#D1D1D1"/>
<path d="M995.931 160.547L1001.33 162.112L1011.95 125.455" stroke="#07294A" stroke-width="0.464913"/>
<path d="M1008.55 131.903L1004.56 130.748" stroke="#07294A" stroke-width="0.464913"/>
<path d="M1008.12 133.379L1004.13 132.224" stroke="#07294A" stroke-width="0.464913"/>
<path d="M1007.69 134.855L1003.71 133.7" stroke="#07294A" stroke-width="0.464913"/>
<path d="M153.55 53.9019V116.646H2.84351" stroke="#07294A" stroke-width="0.610972" stroke-linecap="round" stroke-linejoin="round"/>
<path d="M184.516 174.907V61.2329" stroke="#07294A" stroke-width="0.610972" stroke-linecap="round" stroke-linejoin="round"/>
<path d="M-75.4551 174.908H231.848" stroke="#07294A" stroke-width="0.610972" stroke-linecap="round" stroke-linejoin="round"/>
<path d="M78.1968 -20.6331V116.646" stroke="#07294A" stroke-width="0.610972" stroke-linecap="round" stroke-linejoin="round"/>
<path d="M78.1968 48.0064H155.261" stroke="#07294A" stroke-width="0.610972" stroke-linecap="round" stroke-linejoin="round"/>
<rect x="11.5422" y="77.5464" width="5.75775" height="39.0694" fill="#F0F8FF"/>
<path d="M17.3003 116.616H11.5425V77.5464" stroke="#07294A" stroke-width="0.610972" stroke-linecap="round" stroke-linejoin="round"/>
<path d="M13.05 84.8555H17.3" stroke="#07294A" stroke-width="0.610972" stroke-linecap="round" stroke-linejoin="round"/>
<path d="M13.05 86.4288H17.3" stroke="#07294A" stroke-width="0.610972" stroke-linecap="round" stroke-linejoin="round"/>
<path d="M13.05 88.002H17.3" stroke="#07294A" stroke-width="0.610972" stroke-linecap="round" stroke-linejoin="round"/>
<rect x="18.6282" y="77.5464" width="5.75775" height="39.0694" fill="#D1D1D1"/>
<path d="M24.3857 116.616H18.6279V77.5464" stroke="#07294A" stroke-width="0.610972" stroke-linecap="round" stroke-linejoin="round"/>
<path d="M20.136 84.8555H24.3859" stroke="#07294A" stroke-width="0.610972" stroke-linecap="round" stroke-linejoin="round"/>
<path d="M20.136 86.4288H24.3859" stroke="#07294A" stroke-width="0.610972" stroke-linecap="round" stroke-linejoin="round"/>
<path d="M20.136 88.002H24.3859" stroke="#07294A" stroke-width="0.610972" stroke-linecap="round" stroke-linejoin="round"/>
<rect x="25.7141" y="77.5464" width="5.75775" height="39.0694" fill="#F0F8FF"/>
<path d="M31.4719 116.616H25.7141V77.5464" stroke="#07294A" stroke-width="0.610972" stroke-linecap="round" stroke-linejoin="round"/>
<path d="M27.2219 84.8555H31.4718" stroke="#07294A" stroke-width="0.610972" stroke-linecap="round" stroke-linejoin="round"/>
<path d="M27.2219 86.4288H31.4718" stroke="#07294A" stroke-width="0.610972" stroke-linecap="round" stroke-linejoin="round"/>
<path d="M27.2219 88.002H31.4718" stroke="#07294A" stroke-width="0.610972" stroke-linecap="round" stroke-linejoin="round"/>
<rect x="32.8" y="77.5464" width="5.75775" height="39.0694" fill="#D1D1D1"/>
<path d="M38.5581 116.616H32.8003V77.5464" stroke="#07294A" stroke-width="0.610972" stroke-linecap="round" stroke-linejoin="round"/>
<path d="M34.3079 84.8555H38.5578" stroke="#07294A" stroke-width="0.610972" stroke-linecap="round" stroke-linejoin="round"/>
<path d="M34.3079 86.4288H38.5578" stroke="#07294A" stroke-width="0.610972" stroke-linecap="round" stroke-linejoin="round"/>
<path d="M34.3079 88.002H38.5578" stroke="#07294A" stroke-width="0.610972" stroke-linecap="round" stroke-linejoin="round"/>
<rect x="39.886" y="77.5464" width="5.75775" height="39.0694" fill="#F0F8FF"/>
<path d="M45.6436 116.616H39.8862V77.5464" stroke="#07294A" stroke-width="0.610972" stroke-linecap="round" stroke-linejoin="round"/>
<path d="M41.3938 84.8555H45.6437" stroke="#07294A" stroke-width="0.610972" stroke-linecap="round" stroke-linejoin="round"/>
<path d="M41.3938 86.4288H45.6437" stroke="#07294A" stroke-width="0.610972" stroke-linecap="round" stroke-linejoin="round"/>
<path d="M41.3938 88.002H45.6437" stroke="#07294A" stroke-width="0.610972" stroke-linecap="round" stroke-linejoin="round"/>
<rect x="46.3882" y="79.1182" width="5.75775" height="39.0694" transform="rotate(-16.1509 46.3882 79.1182)" fill="#D1D1D1"/>
<path d="M62.7867 115.044L57.2561 116.646L46.3882 79.1182" stroke="#07294A" stroke-width="0.610972" stroke-linecap="round" stroke-linejoin="round"/>
<path d="M49.8696 85.7193L53.9518 84.5371" stroke="#07294A" stroke-width="0.610972" stroke-linecap="round" stroke-linejoin="round"/>
<path d="M50.3074 87.2305L54.3896 86.0483" stroke="#07294A" stroke-width="0.610972" stroke-linecap="round" stroke-linejoin="round"/>
<path d="M50.7449 88.7418L54.8271 87.5596" stroke="#07294A" stroke-width="0.610972" stroke-linecap="round" stroke-linejoin="round"/>
<path d="M515.601 284.979L523.73 136.039H547.712C547.712 136.039 551.191 240.935 543.738 278.202L548.523 284.979H515.601Z" fill="#DFEFFF"/>
<path d="M540.371 135.322L506.146 132.977L499.922 135.512L496.998 284.98H528.787L525.425 278.956L540.371 135.322Z" fill="#F0F8FF"/>
<path d="M528.787 284.979L525.425 278.956L540.371 135.321" stroke="#07294A" stroke-width="0.36645" stroke-linecap="round" stroke-linejoin="round"/>
<path d="M540.831 63.4406V68.8429C540.831 73.0202 537.979 76.6578 533.922 77.6548L525.325 79.7678V58.6458L532.474 56.8889C534.487 56.3942 536.615 56.8522 538.246 58.1311C539.878 59.41 540.831 61.3678 540.831 63.4406V63.4406Z" fill="#F0F8FF"/>
<path d="M540.831 68.8428C540.831 73.0201 537.979 76.6576 533.922 77.6547L525.325 79.7676" stroke="#07294A" stroke-width="0.36645" stroke-linecap="round" stroke-linejoin="round"/>
<path d="M532.072 67.7706C531.843 67.7706 531.657 67.5849 531.657 67.356C531.657 67.127 531.843 66.9414 532.072 66.9414C532.301 66.9414 532.486 67.127 532.486 67.356C532.486 67.5849 532.301 67.7706 532.072 67.7706Z" fill="#07294A"/>
<path d="M538.439 67.7706C538.21 67.7706 538.025 67.5849 538.025 67.356C538.025 67.127 538.21 66.9414 538.439 66.9414C538.668 66.9414 538.854 67.127 538.854 67.356C538.854 67.5849 538.668 67.7706 538.439 67.7706Z" fill="#07294A"/>
<path d="M536.571 69.8296V63.4404H539.772" stroke="#07294A" stroke-width="0.36645" stroke-linecap="round" stroke-linejoin="round"/>
<path d="M531.291 63.4406H534.491" stroke="#07294A" stroke-width="0.36645" stroke-linecap="round" stroke-linejoin="round"/>
<path d="M526.347 66.7138V68.9325C525.15 68.9325 524.18 67.9623 524.18 66.7655C524.18 66.699 524.183 66.6333 524.189 66.5683C524.31 65.2226 526.347 65.3627 526.347 66.7138Z" fill="#F0F8FF"/>
<path d="M526.347 68.9326C525.15 68.9326 524.18 67.9624 524.18 66.7656" stroke="#07294A" stroke-width="0.36645" stroke-linecap="round" stroke-linejoin="round"/>
<path d="M534.821 70.5757C534.552 70.8448 534.187 70.996 533.807 70.996C533.426 70.996 533.061 70.8448 532.792 70.5757" stroke="#79C9E7" stroke-width="0.36645" stroke-linecap="round" stroke-linejoin="round"/>
<path d="M536.571 69.8345L535.171 70.1785" stroke="#07294A" stroke-width="0.36645" stroke-linecap="round" stroke-linejoin="round"/>
<path d="M547.712 102.181V136.039L499.748 147.828V110.119C499.748 96.7482 508.876 85.1048 521.86 81.9134H521.861C528.087 80.383 534.672 81.7999 539.719 85.7561C544.765 89.7122 547.712 95.7685 547.712 102.181V102.181Z" fill="#79C9E7"/>
<path d="M541.159 60.6H535.171L534.492 59.041L533.807 60.6H529.131C529.131 60.6 528.074 65.3213 526.127 66.0434" stroke="#07294A" stroke-width="0.36645" stroke-linecap="round" stroke-linejoin="round"/>
<path d="M540.831 66.0437C540.831 66.0437 547.643 56.5081 537.023 53.9748C526.402 51.4415 520.849 55.826 518.803 64.1079C516.756 72.3898 525.263 76.0923 525.263 76.0923" stroke="#07294A" stroke-width="0.36645" stroke-linecap="round" stroke-linejoin="round"/>
<path d="M540.572 70.9961C540.572 70.9961 548.717 74.5485 548.119 83.5733C547.98 85.5182 548.195 87.4722 548.755 89.3398C549.489 91.7397 550.008 95.1629 548.15 97.5276C545.012 101.522 538.668 82.3587 532.486 78.0075" stroke="#07294A" stroke-width="0.36645" stroke-linecap="round" stroke-linejoin="round"/>
<path d="M535.051 91.4194L541.93 127.245L539.397 133.87L533.028 128.414L533.453 91.6816L531.212 88.4663H536.571L535.051 91.4194Z" fill="#07294A"/>
<path d="M511.444 86.8218C511.444 86.8218 481.987 111.461 482.571 139.522C483.156 167.583 511.444 171.09 511.444 171.09L517.029 162.748L502.495 138.097L515.601 121.691" stroke="#07294A" stroke-width="0.36645" stroke-linecap="round" stroke-linejoin="round"/>
<path d="M511.444 171.091L521.058 156.729" stroke="#07294A" stroke-width="0.36645" stroke-linecap="round" stroke-linejoin="round"/>
<path d="M548.15 97.5278C548.15 97.5278 573.651 143.224 548.523 165.439" stroke="#07294A" stroke-width="0.36645" stroke-linecap="round" stroke-linejoin="round"/>
<path d="M452.667 283.278L460.796 134.338H484.778C484.778 134.338 488.257 239.234 480.804 276.501L485.589 283.278H452.667Z" fill="#DFEFFF"/>
<path d="M477.437 133.62L443.211 131.276L436.988 133.81L434.063 283.278H465.853L462.491 277.255L477.437 133.62Z" fill="#F0F8FF"/>
<path d="M465.853 283.278L462.491 277.255L477.437 133.62" stroke="#07294A" stroke-width="0.36645" stroke-linecap="round" stroke-linejoin="round"/>
<path d="M477.896 61.7394V67.1418C477.896 71.319 475.044 74.9566 470.988 75.9536L462.391 78.0666V56.9446L469.539 55.1877C471.552 54.693 473.681 55.151 475.312 56.4299C476.943 57.7088 477.896 59.6666 477.896 61.7394V61.7394Z" fill="#F0F8FF"/>
<path d="M477.896 67.1416C477.896 71.3189 475.044 74.9565 470.988 75.9535L462.391 78.0665" stroke="#07294A" stroke-width="0.36645" stroke-linecap="round" stroke-linejoin="round"/>
<path d="M469.137 66.0694C468.908 66.0694 468.723 65.8838 468.723 65.6548C468.723 65.4258 468.908 65.2402 469.137 65.2402C469.366 65.2402 469.552 65.4258 469.552 65.6548C469.552 65.8838 469.366 66.0694 469.137 66.0694Z" fill="#07294A"/>
<path d="M475.505 66.0694C475.276 66.0694 475.091 65.8838 475.091 65.6548C475.091 65.4258 475.276 65.2402 475.505 65.2402C475.734 65.2402 475.92 65.4258 475.92 65.6548C475.92 65.8838 475.734 66.0694 475.505 66.0694Z" fill="#07294A"/>
<path d="M473.637 68.1284V61.7393H476.838" stroke="#07294A" stroke-width="0.36645" stroke-linecap="round" stroke-linejoin="round"/>
<path d="M468.356 61.7394H471.557" stroke="#07294A" stroke-width="0.36645" stroke-linecap="round" stroke-linejoin="round"/>
<path d="M463.412 65.0127V67.2313C462.216 67.2313 461.245 66.2611 461.245 65.0643C461.245 64.9979 461.248 64.9321 461.254 64.8671C461.376 63.5215 463.412 63.6616 463.412 65.0127Z" fill="#F0F8FF"/>
<path d="M463.412 67.2314C462.216 67.2314 461.245 66.2613 461.245 65.0645" stroke="#07294A" stroke-width="0.36645" stroke-linecap="round" stroke-linejoin="round"/>
<path d="M471.887 68.8745C471.618 69.1436 471.253 69.2948 470.872 69.2948C470.492 69.2948 470.127 69.1436 469.858 68.8745" stroke="#79C9E7" stroke-width="0.36645" stroke-linecap="round" stroke-linejoin="round"/>
<path d="M473.637 68.1333L472.237 68.4774" stroke="#07294A" stroke-width="0.36645" stroke-linecap="round" stroke-linejoin="round"/>
<path d="M484.778 100.48V134.338L436.814 146.127V108.418C436.814 95.047 445.942 83.4036 458.926 80.2123H458.926C465.153 78.6818 471.738 80.0987 476.784 84.0549C481.83 88.0111 484.778 94.0674 484.778 100.48V100.48Z" fill="#79C9E7"/>
<path d="M478.225 58.8988H472.237L471.557 57.3398L470.872 58.8988H466.196C466.196 58.8988 465.139 63.6202 463.192 64.3422" stroke="#07294A" stroke-width="0.36645" stroke-linecap="round" stroke-linejoin="round"/>
<path d="M477.896 64.3426C477.896 64.3426 484.709 54.8069 474.088 52.2736C463.468 49.7403 457.914 54.1249 455.868 62.4068C453.822 70.6886 462.329 74.3911 462.329 74.3911" stroke="#07294A" stroke-width="0.36645" stroke-linecap="round" stroke-linejoin="round"/>
<path d="M477.637 69.2949C477.637 69.2949 485.782 72.8473 485.185 81.8721C485.045 83.817 485.261 85.771 485.821 87.6387C486.554 90.0385 487.074 93.4617 485.216 95.8264C482.078 99.8212 475.734 80.6576 469.552 76.3063" stroke="#07294A" stroke-width="0.36645" stroke-linecap="round" stroke-linejoin="round"/>
<path d="M472.116 89.7183L478.996 125.544L476.462 132.169L470.093 126.713L470.519 89.9805L468.278 86.7651H473.637L472.116 89.7183Z" fill="#07294A"/>
<path d="M448.51 85.1206C448.51 85.1206 419.052 109.759 419.637 137.82C420.222 165.881 448.51 169.389 448.51 169.389L454.094 161.047L439.561 136.396L452.667 119.99" stroke="#07294A" stroke-width="0.36645" stroke-linecap="round" stroke-linejoin="round"/>
<path d="M448.51 169.389L458.124 155.028" stroke="#07294A" stroke-width="0.36645" stroke-linecap="round" stroke-linejoin="round"/>
<path d="M485.216 95.8267C485.216 95.8267 510.716 141.523 485.589 163.738" stroke="#07294A" stroke-width="0.36645" stroke-linecap="round" stroke-linejoin="round"/>
<path d="M397.046 136.869L420.241 133.264C420.241 133.264 437.333 214.808 428.16 275.643L430.866 281.643H400.135L391.409 188.85L397.046 136.869Z" fill="#DFEFFF"/>
<path d="M412.471 135.174C412.471 135.174 418.349 231.121 401.746 276.548L405.214 281.643H375.683C375.683 281.643 372.457 159.604 372.457 133.264L412.471 135.174Z" fill="#F0F8FF"/>
<path d="M412.471 135.173C412.471 135.173 418.349 231.12 401.746 276.548L405.214 281.643" stroke="#07294A" stroke-width="0.36645" stroke-linecap="round" stroke-linejoin="round"/>
<path d="M391.409 60.938V73.4073L406.856 77.204V56.1614L391.409 52.3647V60.938Z" fill="#F0F8FF"/>
<path d="M400.135 65.2523C399.906 65.2523 399.722 65.0674 399.722 64.8393C399.722 64.6112 399.906 64.4263 400.135 64.4263C400.363 64.4263 400.548 64.6112 400.548 64.8393C400.548 65.0674 400.363 65.2523 400.135 65.2523Z" fill="#07294A"/>
<path d="M393.791 65.2523C393.563 65.2523 393.378 65.0674 393.378 64.8393C393.378 64.6112 393.563 64.4263 393.791 64.4263C394.019 64.4263 394.204 64.6112 394.204 64.8393C394.204 65.0674 394.019 65.2523 393.791 65.2523Z" fill="#07294A"/>
<path d="M395.652 67.3036V60.9385H392.463" stroke="#07294A" stroke-width="0.36645" stroke-linecap="round" stroke-linejoin="round"/>
<path d="M400.913 60.9381H397.724" stroke="#07294A" stroke-width="0.36645" stroke-linecap="round" stroke-linejoin="round"/>
<path d="M405.838 64.1995V66.4098C407.031 66.4098 407.997 65.4433 407.997 64.251C407.997 64.1847 407.994 64.1192 407.988 64.0545C407.867 62.7139 405.838 62.8535 405.838 64.1995Z" fill="#F0F8FF"/>
<path d="M405.838 66.4098C407.031 66.4098 407.997 65.4433 407.997 64.251" stroke="#07294A" stroke-width="0.36645" stroke-linecap="round" stroke-linejoin="round"/>
<path d="M397.047 68.8725C397.626 68.8725 398.182 68.6423 398.592 68.2325C399.001 67.8228 399.232 67.267 399.232 66.6875" stroke="#79C9E7" stroke-width="0.36645" stroke-linecap="round" stroke-linejoin="round"/>
<path d="M391.409 73.4072L406.855 77.2038" stroke="#07294A" stroke-width="0.36645" stroke-linecap="round" stroke-linejoin="round"/>
<path d="M395.652 67.3081L397.047 67.6509" stroke="#07294A" stroke-width="0.36645" stroke-linecap="round" stroke-linejoin="round"/>
<path d="M420.241 99.5329V133.264L372.457 145.008V107.441C372.457 94.1208 381.551 82.5212 394.487 79.3418H394.487C400.69 77.8171 407.25 79.2287 412.277 83.17C417.305 87.1113 420.241 93.1448 420.241 99.5329Z" fill="#79C9E7"/>
<path d="M391.409 59.8961C391.409 59.3706 385.706 50.0522 399.721 49.858C413.737 49.6639 406.918 63.1167 406.918 63.1167" stroke="#07294A" stroke-width="0.36645" stroke-linecap="round" stroke-linejoin="round"/>
<path d="M405.838 61.5305C405.838 61.5305 403.787 58.4729 403.642 57.2353C403.642 57.2353 393.615 57.3809 391.967 55.0513" stroke="#07294A" stroke-width="0.36645" stroke-linecap="round" stroke-linejoin="round"/>
<path d="M407.854 88.8121L414.708 124.503L412.184 131.103L405.838 125.667L406.263 89.0733L404.03 85.8701H409.369L407.854 88.8121Z" fill="#07294A"/>
<path d="M382.107 85.8701C382.107 85.8701 325.6 140.81 386.461 175.463L392.969 165.271L379.763 131.103L392.463 113.437" stroke="#07294A" stroke-width="0.36645" stroke-linecap="round" stroke-linejoin="round"/>
<path d="M386.461 175.463L399.105 155.662" stroke="#07294A" stroke-width="0.36645" stroke-linecap="round" stroke-linejoin="round"/>
<path d="M416.535 87.6719C416.535 87.6719 444.268 130.68 425.314 163.312" stroke="#07294A" stroke-width="0.36645" stroke-linecap="round" stroke-linejoin="round"/>
<path d="M328.191 135.267L351.386 131.662C351.386 131.662 368.477 213.206 359.305 274.041L362.01 280.041H331.279L322.553 187.248L328.191 135.267Z" fill="#DFEFFF"/>
<path d="M343.615 133.572C343.615 133.572 349.493 229.518 332.89 274.946L336.358 280.041H306.828C306.828 280.041 303.602 158.002 303.602 131.662L343.615 133.572Z" fill="#F0F8FF"/>
<path d="M343.615 133.571C343.615 133.571 349.493 229.518 332.89 274.946L336.358 280.041" stroke="#07294A" stroke-width="0.36645" stroke-linecap="round" stroke-linejoin="round"/>
<path d="M322.553 59.336V71.8052L338 75.6019V54.5594L322.553 50.7627V59.336Z" fill="#F0F8FF"/>
<path d="M331.279 63.6502C331.051 63.6502 330.866 63.4653 330.866 63.2372C330.866 63.0091 331.051 62.8242 331.279 62.8242C331.507 62.8242 331.692 63.0091 331.692 63.2372C331.692 63.4653 331.507 63.6502 331.279 63.6502Z" fill="#07294A"/>
<path d="M324.935 63.6502C324.707 63.6502 324.522 63.4653 324.522 63.2372C324.522 63.0091 324.707 62.8242 324.935 62.8242C325.163 62.8242 325.348 63.0091 325.348 63.2372C325.348 63.4653 325.163 63.6502 324.935 63.6502Z" fill="#07294A"/>
<path d="M326.796 65.7015V59.3364H323.608" stroke="#07294A" stroke-width="0.36645" stroke-linecap="round" stroke-linejoin="round"/>
<path d="M332.057 59.336H328.868" stroke="#07294A" stroke-width="0.36645" stroke-linecap="round" stroke-linejoin="round"/>
<path d="M336.983 62.5974V64.8078C338.175 64.8078 339.141 63.8412 339.141 62.6489C339.141 62.5827 339.138 62.5172 339.133 62.4524C339.012 61.1119 336.983 61.2514 336.983 62.5974Z" fill="#F0F8FF"/>
<path d="M336.983 64.8078C338.175 64.8078 339.141 63.8412 339.141 62.6489" stroke="#07294A" stroke-width="0.36645" stroke-linecap="round" stroke-linejoin="round"/>
<path d="M328.191 67.2705C328.77 67.2705 329.326 67.0403 329.736 66.6305C330.146 66.2207 330.376 65.6649 330.376 65.0854" stroke="#79C9E7" stroke-width="0.36645" stroke-linecap="round" stroke-linejoin="round"/>
<path d="M322.553 71.8052L338 75.6018" stroke="#07294A" stroke-width="0.36645" stroke-linecap="round" stroke-linejoin="round"/>
<path d="M326.796 65.7061L328.191 66.0488" stroke="#07294A" stroke-width="0.36645" stroke-linecap="round" stroke-linejoin="round"/>
<path d="M351.385 97.9308V131.662L303.601 143.406V105.839C303.601 92.5187 312.695 80.9191 325.631 77.7398H325.631C331.834 76.2151 338.394 77.6266 343.422 81.5679C348.449 85.5092 351.385 91.5428 351.385 97.9308Z" fill="#79C9E7"/>
<path d="M322.553 58.2941C322.553 57.7686 316.851 48.4501 330.866 48.256C344.881 48.0619 338.062 61.5147 338.062 61.5147" stroke="#07294A" stroke-width="0.36645" stroke-linecap="round" stroke-linejoin="round"/>
<path d="M336.982 59.9285C336.982 59.9285 334.932 56.8708 334.786 55.6332C334.786 55.6332 324.759 55.7788 323.111 53.4492" stroke="#07294A" stroke-width="0.36645" stroke-linecap="round" stroke-linejoin="round"/>
<path d="M338.998 87.2101L345.852 122.901L343.328 129.501L336.983 124.065L337.407 87.4713L335.174 84.2681H340.513L338.998 87.2101Z" fill="#07294A"/>
<path d="M313.252 84.2681C313.252 84.2681 256.744 139.208 317.605 173.861L324.114 163.669L310.908 129.501L323.608 111.835" stroke="#07294A" stroke-width="0.36645" stroke-linecap="round" stroke-linejoin="round"/>
<path d="M317.605 173.861L330.25 154.06" stroke="#07294A" stroke-width="0.36645" stroke-linecap="round" stroke-linejoin="round"/>
<path d="M347.679 86.0698C347.679 86.0698 375.413 129.078 356.458 161.71" stroke="#07294A" stroke-width="0.36645" stroke-linecap="round" stroke-linejoin="round"/>
<rect width="86.3623" height="165.415" transform="matrix(-1 0 0 1 733.697 0.141602)" fill="#79C9E7"/>
<path d="M668.236 82.8489C665.981 82.8489 664.153 81.0206 664.153 78.7653C664.153 76.5099 665.981 74.6816 668.236 74.6816C670.492 74.6816 672.32 76.5099 672.32 78.7653C672.32 81.0206 670.492 82.8489 668.236 82.8489Z" fill="#F0F8FF"/>
<path d="M733.697 165.556V0.141602H647.335" stroke="#07294A" stroke-width="0.28264" stroke-linecap="round" stroke-linejoin="round"/>
<path d="M761.596 165.556H619.435" stroke="#07294A" stroke-width="0.28264" stroke-linecap="round" stroke-linejoin="round"/>
</g>
<defs>
<linearGradient id="paint0_linear_929_56249" x1="600" y1="3.6377" x2="600" y2="196.363" gradientUnits="userSpaceOnUse">
<stop stop-color="#FDFFAA" stop-opacity="0"/>
<stop offset="1" stop-color="#FDFFAA"/>
</linearGradient>
<clipPath id="clip0_929_56249">
<rect width="1200" height="200" fill="white"/>
</clipPath>
</defs>
</svg>
