<svg width="1200" height="200" viewBox="0 0 1200 200" fill="none" xmlns="http://www.w3.org/2000/svg">
<g clip-path="url(#clip0_994_60791)">
<g opacity="0.5">
<path fill-rule="evenodd" clip-rule="evenodd" d="M959.164 75.9971C958.803 76.6221 957.901 76.6221 957.54 75.9971L931.199 30.374C924.339 18.4912 907.187 18.4912 900.327 30.374L891.429 45.7861C888.245 51.3009 882.36 54.6982 875.993 54.6982L763.811 54.6982C752.968 54.6982 746.192 66.4356 751.613 75.8255V75.8255C754.129 80.1833 754.129 85.5524 751.613 89.9103L741.88 106.769C735.765 117.359 720.479 117.359 714.364 106.768L712.024 102.715C706.949 93.9258 694.263 93.9258 689.188 102.715V102.715C684.113 111.505 671.427 111.505 666.352 102.715L654.065 81.4332C647.204 69.5504 630.053 69.5504 623.192 81.4332L611.813 101.142C604.953 113.025 587.801 113.025 580.941 101.142L578.43 96.7943C572.396 86.343 557.311 86.343 551.277 96.7943V96.7943C545.243 107.246 530.158 107.246 524.124 96.7943L523.453 95.6333C517.121 84.666 501.291 84.666 494.959 95.6333L479.235 122.868C476.051 128.383 470.167 131.781 463.799 131.781L426.948 131.781C420.58 131.781 414.695 128.383 411.511 122.868L379.863 68.051C373.002 56.1682 355.851 56.1682 348.99 68.0511L342.983 78.456C336.122 90.3388 318.971 90.3388 312.11 78.456L300.908 59.0535C294.048 47.1707 276.896 47.1707 270.036 59.0535L248.57 96.2329C241.71 108.116 250.285 122.969 264.007 122.969H296.524C305.75 122.969 311.517 132.957 306.904 140.947V140.947C302.29 148.937 308.057 158.925 317.283 158.925H406.267C412.635 158.925 418.519 162.322 421.703 167.837L426.451 176.06C433.312 187.943 450.463 187.943 457.324 176.06L465.353 162.153C465.548 161.816 465.907 161.609 466.295 161.609V161.609C467.133 161.609 467.656 162.515 467.238 163.241L462.524 171.404C460.011 175.758 463.153 181.2 468.18 181.2H550.234C555.261 181.2 558.403 175.758 555.889 171.404L553.062 166.506C551.805 164.33 553.376 161.609 555.889 161.609V161.609C558.403 161.609 559.973 158.888 558.717 156.711L557.138 153.976C555.179 150.584 557.627 146.344 561.544 146.344H606.463C606.719 146.344 606.878 146.067 606.751 145.846V145.846C606.623 145.625 606.782 145.349 607.038 145.349H648.268C655.515 145.349 660.044 153.194 656.421 159.47V159.47C652.797 165.746 657.327 173.591 664.573 173.591H740.532C746.049 173.591 749.496 167.62 746.738 162.842V162.842C743.98 158.065 747.428 152.094 752.944 152.094H785.356C791.724 152.094 797.608 155.491 800.792 161.006L805.908 169.867C812.768 181.75 829.92 181.75 836.78 169.867L875.269 103.202C878.453 97.6871 884.338 94.2898 890.706 94.2898H917.73C931.451 94.2898 940.027 109.143 933.166 121.026L923.074 138.507C916.213 150.389 924.789 165.243 938.51 165.243H981.441C995.162 165.243 1003.74 150.389 996.877 138.507L960.788 75.9971C960.427 75.3721 959.525 75.3721 959.164 75.9971V75.9971ZM1077.61 105.765C1084.47 93.8825 1101.62 93.8825 1108.48 105.765L1119.79 125.357C1126.65 137.24 1118.08 152.094 1104.36 152.094H1081.73C1068.01 152.094 1059.44 137.24 1066.3 125.357L1077.61 105.765ZM1041.03 134.695C1034.17 146.578 1017.02 146.578 1010.16 134.695L988.696 97.5155C981.835 85.6326 990.411 70.7791 1004.13 70.7791L1047.06 70.7791C1060.78 70.7791 1069.36 85.6326 1062.5 97.5154L1041.03 134.695ZM100.993 181.2C114.714 181.2 123.29 166.346 116.429 154.464L94.9635 117.284C88.103 105.401 70.9516 105.401 64.0911 117.284L42.6255 154.464C35.765 166.346 44.3407 181.2 58.0618 181.2H100.993ZM196.795 169.866C189.934 181.749 172.783 181.749 165.922 169.866L121.316 92.6056C114.455 80.7228 123.031 65.8692 136.752 65.8692L225.965 65.8692C239.686 65.8692 248.262 80.7228 241.401 92.6056L196.795 169.866Z" fill="url(#paint0_linear_994_60791)"/>
</g>
<rect width="55.9954" height="101.094" transform="matrix(-1 0 0 1 557.541 5.93066)" fill="#F0F8FF"/>
<path d="M529.543 5.2793V107.676" stroke="#07294A" stroke-width="0.529563"/>
<path d="M557.541 107.025V5.93066H501.546" stroke="#07294A" stroke-width="0.529563"/>
<path d="M496.145 39.3737H562.942" stroke="#07294A" stroke-width="0.529563"/>
<path d="M496.145 73.5818H562.942" stroke="#07294A" stroke-width="0.529563"/>
<rect width="55.9954" height="101.094" transform="matrix(-1 0 0 1 698.454 5.93066)" fill="#F0F8FF"/>
<path d="M670.457 5.2793V107.676" stroke="#07294A" stroke-width="0.529563"/>
<path d="M698.454 107.025V5.93066H642.459" stroke="#07294A" stroke-width="0.529563"/>
<path d="M637.058 39.3737H703.855" stroke="#07294A" stroke-width="0.529563"/>
<path d="M637.058 73.5818H703.855" stroke="#07294A" stroke-width="0.529563"/>
<path d="M614.642 177.91V230.768L618.13 238.28H594.214L586.469 164.227L614.642 177.91V177.91Z" fill="#DFEFFF"/>
<path d="M609.328 100.905L572.2 98.7529V139.005V238.28H597.299L594.214 232.751L609.328 100.905V100.905Z" fill="#F0F8FF"/>
<path d="M607.509 34.9235V39.8824C607.509 43.7169 604.891 47.0559 601.168 47.9711L593.276 49.9107V30.5222L599.838 28.9095C601.686 28.4554 603.639 28.8758 605.137 30.0497C606.634 31.2237 607.509 33.0208 607.509 34.9235V34.9235Z" fill="#F0F8FF"/>
<path d="M607.509 39.8823C607.509 43.7168 604.891 47.0558 601.168 47.971L593.276 49.9106" stroke="#07294A" stroke-width="0.529563"/>
<path d="M599.469 38.8983C599.259 38.8983 599.089 38.7279 599.089 38.5178C599.089 38.3076 599.259 38.1372 599.469 38.1372C599.679 38.1372 599.85 38.3076 599.85 38.5178C599.85 38.7279 599.679 38.8983 599.469 38.8983Z" fill="#07294A"/>
<path d="M605.314 38.8983C605.104 38.8983 604.933 38.7279 604.933 38.5178C604.933 38.3076 605.104 38.1372 605.314 38.1372C605.524 38.1372 605.695 38.3076 605.695 38.5178C605.695 38.7279 605.524 38.8983 605.314 38.8983Z" fill="#07294A"/>
<path d="M603.599 40.788V34.9233H606.537" stroke="#07294A" stroke-width="0.529563"/>
<path d="M598.752 34.9236H601.69" stroke="#07294A" stroke-width="0.529563"/>
<path d="M594.214 37.9284V39.9649C593.686 39.9649 593.18 39.7554 592.807 39.3823C592.434 39.0093 592.225 38.5033 592.225 37.9758C592.225 37.9147 592.227 37.8544 592.233 37.7947C592.344 36.5595 594.214 36.6881 594.214 37.9284Z" fill="#F0F8FF"/>
<path d="M594.214 39.9652C593.686 39.9652 593.18 39.7556 592.807 39.3826C592.434 39.0096 592.225 38.5036 592.225 37.9761" stroke="#07294A" stroke-width="0.529563"/>
<path d="M601.993 41.4731C601.479 41.9875 600.645 41.9875 600.13 41.4731" stroke="#79C9E7" stroke-width="0.529563" stroke-linecap="round" stroke-linejoin="round"/>
<path d="M603.599 40.793L602.314 41.1088" stroke="#07294A" stroke-width="0.529563" stroke-linecap="round"/>
<path d="M607.224 33.0609C607.224 33.0609 607.005 29.8023 604.054 30.0036C601.103 30.2048 596.877 29.9365 596.541 32.6196C596.206 35.3027 595.173 37.4492 594.214 37.4492" stroke="#07294A" stroke-width="0.529563"/>
<path d="M607.509 36.9307C607.509 36.9307 617.959 17.9967 599.469 16.6551C580.979 15.3136 572.278 39.8194 593.219 43.5757" stroke="#07294A" stroke-width="0.529563"/>
<path d="M592.779 41.4C592.779 42.1927 593.421 42.8352 594.214 42.8352C595.006 42.8352 595.649 42.1927 595.649 41.4C595.649 40.6074 595.006 39.9648 594.214 39.9648" stroke="#79C9E7" stroke-width="0.529563" stroke-linecap="round" stroke-linejoin="round"/>
<path d="M607.509 42.5008C607.995 42.9075 608.69 42.9472 609.219 42.5984C609.749 42.2496 609.986 41.5949 609.804 40.9878C609.622 40.3806 609.064 39.9648 608.43 39.9648" stroke="#79C9E7" stroke-width="0.529563" stroke-linecap="round" stroke-linejoin="round"/>
<path d="M572.2 70.4845V101.564L616.228 112.385V77.7713C616.228 65.4977 607.849 54.81 595.93 51.8805H595.93C590.214 50.4757 584.17 51.7763 579.537 55.4078C574.905 59.0393 572.2 64.5985 572.2 70.4845L572.2 70.4845Z" fill="#F0F8FF"/>
<path d="M572.2 101.564L616.228 112.385V180.46L549.315 169.922L572.2 101.564V101.564Z" fill="#79C9E7"/>
<path d="M597.299 238.28L594.214 232.751L602.717 158.579" stroke="#07294A" stroke-width="0.529563"/>
<path d="M578.514 56.271C578.514 56.271 557.492 74.4316 571.265 99.8318C585.039 125.232 629.399 88.9204 629.936 86.0584C630.473 83.1964 625.822 82.4809 621.887 84.6274C621.887 84.6274 622.423 81.6984 620.277 82.5368C618.13 83.3753 617.057 85.8796 617.057 85.8796L586.827 87.1317L590.764 70.4963" stroke="#07294A" stroke-width="0.529563"/>
<path d="M606.995 86.2967L620.277 51.3179L650.686 59.5852L631.904 101.564L615.1 98.1588" stroke="#07294A" stroke-width="0.529563"/>
<path d="M610.253 101.079V101.079C610.253 101.079 593.292 123.079 568.215 113.468L572.282 101.515C580.448 113.665 596.978 108.567 610.253 101.079Z" fill="#07294A"/>
<path d="M607.224 57.7949L615.12 64.897" stroke="#07294A" stroke-width="0.529563"/>
<path d="M643.483 75.6826C643.483 75.6826 648.45 94.3314 636.644 102.247C624.838 110.162 616.228 104.259 616.228 104.259" stroke="#07294A" stroke-width="0.529563"/>
<path d="M519.011 180.489V141.292C519.011 136.757 520.34 132.321 522.834 128.533V128.533C526.506 122.954 532.2 119.017 538.717 117.551L539.107 117.463C539.107 117.463 540.162 133.285 523.021 135.395" stroke="#07294A" stroke-width="0.529563"/>
<path d="M519.011 185.763V146.566C519.011 142.031 517.682 137.595 515.189 133.807V133.807C511.516 128.228 505.823 124.291 499.306 122.825L498.916 122.737C498.916 122.737 497.861 138.559 515.002 140.669" stroke="#07294A" stroke-width="0.529563"/>
<path d="M522.834 128.533V128.533C526.506 122.954 532.2 119.017 538.717 117.551L539.107 117.463C539.107 117.463 536.762 133.897 519.621 136.007L519.011 180.489V141.292C519.011 136.757 520.34 132.321 522.834 128.533Z" fill="#F0F8FF"/>
<path d="M498.916 122.737L499.306 122.825C505.823 124.291 511.516 128.228 515.189 133.807V133.807C517.682 137.595 519.011 142.031 519.011 146.566V185.763L518.036 139.911C500.895 137.801 498.916 122.737 498.916 122.737Z" fill="#F0F8FF"/>
<path d="M519.011 177.762V154.995C519.011 152.361 519.783 149.784 521.232 147.584V147.584C523.365 144.343 526.672 142.056 530.457 141.205L530.684 141.154C530.684 141.154 531.296 150.344 521.34 151.569" stroke="#07294A" stroke-width="0.529563"/>
<rect width="26.3747" height="63.6508" transform="matrix(-1 0 0 1 532.199 175.235)" fill="#79C9E7"/>
<path d="M679.387 178.937C658.582 178.937 641.717 162.071 641.717 141.266C641.717 120.461 658.582 103.596 679.387 103.596C700.192 103.596 717.058 120.461 717.058 141.266C717.058 162.071 700.192 178.937 679.387 178.937Z" fill="#79C9E7"/>
<path d="M717.058 141.266C717.058 120.461 700.192 103.596 679.387 103.596C658.582 103.596 641.717 120.461 641.717 141.266" stroke="#07294A" stroke-width="0.529563"/>
<rect width="32.0998" height="27.2459" transform="matrix(-1 0 0 1 695.437 165.313)" fill="#79C9E7"/>
<rect width="32.0998" height="11.2538" transform="matrix(-1 0 0 1 695.437 181.306)" fill="#07294A"/>
<path d="M679.387 89.042V98.0441" stroke="#07294A" stroke-width="0.529563"/>
<path d="M692.904 90.8213L690.574 99.5167" stroke="#07294A" stroke-width="0.529563"/>
<path d="M705.499 96.0386L700.998 103.835" stroke="#07294A" stroke-width="0.529563"/>
<path d="M716.315 104.338L709.95 110.703" stroke="#07294A" stroke-width="0.529563"/>
<path d="M724.615 115.154L716.819 119.655" stroke="#07294A" stroke-width="0.529563"/>
<path d="M729.832 127.75L721.137 130.079" stroke="#07294A" stroke-width="0.529563"/>
<path d="M637.638 130.079L628.942 127.75" stroke="#07294A" stroke-width="0.529563"/>
<path d="M641.956 119.655L634.16 115.154" stroke="#07294A" stroke-width="0.529563"/>
<path d="M648.824 110.703L642.459 104.338" stroke="#07294A" stroke-width="0.529563"/>
<path d="M657.776 103.835L653.275 96.0386" stroke="#07294A" stroke-width="0.529563"/>
<path d="M668.2 99.5167L665.871 90.8213" stroke="#07294A" stroke-width="0.529563"/>
</g>
<defs>
<linearGradient id="paint0_linear_994_60791" x1="40.2109" y1="103.217" x2="1122.21" y2="103.217" gradientUnits="userSpaceOnUse">
<stop stop-color="#79C9E7"/>
<stop offset="0.2" stop-color="#74DAE1"/>
<stop offset="0.4" stop-color="#82E8D3"/>
<stop offset="0.6" stop-color="#A3F3C1"/>
<stop offset="0.8" stop-color="#CDFBB1"/>
<stop offset="1" stop-color="#FDFFAA"/>
</linearGradient>
<clipPath id="clip0_994_60791">
<rect width="1200" height="200" fill="white"/>
</clipPath>
</defs>
</svg>
