<svg width="1200" height="200" viewBox="0 0 1200 200" fill="none" xmlns="http://www.w3.org/2000/svg">
<g clip-path="url(#clip0_994_18482)">
<g opacity="0.5">
<path fill-rule="evenodd" clip-rule="evenodd" d="M758.361 49.8724C758.361 63.1491 747.498 73.9119 734.097 73.9119C720.696 73.9119 709.833 63.1491 709.833 49.8724C709.833 36.5958 720.696 25.833 734.097 25.833C747.498 25.833 758.361 36.5958 758.361 49.8724ZM1134.59 88.7514C1151.49 88.7514 1165.18 75.1799 1165.18 58.4386C1165.18 41.6973 1151.49 28.1258 1134.59 28.1258C1117.69 28.1258 1103.99 41.6973 1103.99 58.4386C1103.99 61.5142 1104.45 64.4829 1105.31 67.2801C1106 69.5275 1103.6 72.4753 1101.25 72.4753V72.4753C1090.46 72.4753 1081.71 81.1455 1081.71 91.8406C1081.71 102.536 1090.46 111.206 1101.25 111.206C1112.05 111.206 1120.8 102.536 1120.8 91.8406V91.8406C1120.8 89.4322 1123.79 86.9099 1126.1 87.5708C1128.8 88.3396 1131.64 88.7514 1134.59 88.7514ZM60.1238 42.0417C46.275 42.0417 34.814 53.2683 34.814 67.1171C34.814 80.9659 46.275 92.1925 60.1238 92.1925C73.9726 92.1925 85.4336 80.9659 85.4336 67.1171C85.4336 53.2683 73.9726 42.0417 60.1238 42.0417ZM170.688 48.2139C154.414 48.2139 140.171 57.7603 133.541 71.5584C130.35 78.2005 120.591 83.1798 113.222 83.1798V83.1798C97.8627 83.1798 85.1513 95.6311 85.1513 110.991C85.1513 126.35 97.8627 138.802 113.222 138.802C114.754 138.802 116.26 138.678 117.729 138.44C131.754 136.165 156.48 129.652 170.688 129.652V129.652V129.652C182.528 129.652 200.309 137.529 206.649 147.528C216.649 163.301 234.365 173.786 254.553 173.786C270.06 173.786 284.109 167.6 294.322 157.583C305.286 146.83 330.333 138.083 345.595 139.784C347.692 140.018 349.824 140.138 351.984 140.138C383.205 140.138 408.514 115.063 408.514 84.1319C408.514 53.2006 383.205 28.1258 351.984 28.1258C336.477 28.1258 322.428 34.3118 312.215 44.3289C301.252 55.0817 276.204 63.8282 260.943 62.1273C258.845 61.8936 256.714 61.7736 254.553 61.7736C250.685 61.7736 246.908 62.1585 243.258 62.8918C228.452 65.8665 202.634 59.3608 189.138 52.5837C183.572 49.7888 177.298 48.2139 170.688 48.2139ZM740.299 108.574C740.299 78.8931 764.862 54.8322 794.543 54.8322C819.762 54.8322 841.287 72.204 847.188 95.6342C847.834 98.1997 850.213 99.9999 852.859 99.9999V99.9999C856.617 99.9999 860.268 100.509 863.741 101.462C864.705 101.727 865.678 100.999 865.678 99.9998V99.9998C865.678 64.0114 895.125 34.8371 931.45 34.8371C967.774 34.8371 997.222 64.0114 997.222 99.9998C997.222 135.988 967.774 165.163 931.45 165.163C925.738 165.163 920.197 164.441 914.913 163.086C902.987 160.026 887.85 165.222 878.123 172.77C871.126 178.2 862.336 181.438 852.859 181.438C842.633 181.438 833.21 177.669 825.973 171.445C818.75 165.233 808.718 161.297 799.226 162.114C797.681 162.247 796.119 162.315 794.543 162.315C764.862 162.315 740.299 138.254 740.299 108.574ZM309.203 163.532C309.203 149.683 320.664 138.457 334.513 138.457C348.362 138.457 359.823 149.683 359.823 163.532C359.823 177.381 348.362 188.608 334.513 188.608C320.664 188.608 309.203 177.381 309.203 163.532ZM1044.92 148.163C1044.92 146.576 1042.74 145.215 1041.37 146.014C1036.82 148.666 1031.52 150.188 1025.87 150.188C1008.97 150.188 995.271 136.616 995.271 119.875C995.271 103.133 1008.97 89.5619 1025.87 89.5619C1042.77 89.5619 1056.46 103.133 1056.46 119.875C1056.46 120.288 1056.46 120.699 1056.44 121.108C1056.3 124.464 1061.11 128.798 1064.47 128.798V128.798C1075.26 128.798 1084.01 137.468 1084.01 148.163C1084.01 158.858 1075.26 167.528 1064.47 167.528C1053.67 167.528 1044.92 158.858 1044.92 148.163V148.163ZM579.124 63.122C588.208 63.122 595.571 55.8264 595.571 46.8268C595.571 37.8273 588.208 30.5317 579.124 30.5317C570.04 30.5317 562.676 37.8273 562.676 46.8268C562.676 55.8264 570.04 63.122 579.124 63.122ZM460.507 188.607C491.727 188.607 517.037 163.533 517.037 132.601V132.601C517.037 130.911 519.265 129.898 520.568 130.975C527.629 136.813 536.716 140.325 546.631 140.325C555.885 140.325 564.418 137.265 571.255 132.111C572.222 131.382 573.767 132.198 573.767 133.409V133.409C573.767 146.685 584.63 157.448 598.031 157.448C611.431 157.448 622.295 146.685 622.295 133.409V133.409C622.295 132.58 623.369 132.094 623.967 132.668C633.47 141.78 646.418 147.387 660.687 147.387C689.851 147.387 713.493 123.964 713.493 95.0704C713.493 66.1767 689.851 42.7537 660.687 42.7537C631.523 42.7537 607.881 66.1767 607.881 95.0704C607.881 96.6402 607.951 98.1937 608.087 99.7283C608.482 104.159 602.479 109.369 598.031 109.369V109.369C597.935 109.369 597.84 109.37 597.744 109.371C593.305 109.422 587.333 104.44 587.333 100V100C587.333 77.7292 569.11 59.675 546.631 59.675C542.887 59.675 539.262 60.1758 535.818 61.1135C519.441 65.5732 478.156 76.7965 461.184 76.5991C460.959 76.5965 460.733 76.5952 460.507 76.5952C429.286 76.5952 403.977 101.67 403.977 132.601C403.977 163.533 429.286 188.607 460.507 188.607Z" fill="url(#paint0_linear_994_18482)"/>
</g>
<path d="M421.861 50.3564C421.861 50.3564 409.847 59.8439 405.426 73.8042" stroke="#07294A" stroke-width="0.450544" stroke-linecap="round" stroke-linejoin="round"/>
<path d="M409.68 121.723L446.462 105.436V159.486V292.792H410.891L415.034 285.368L409.68 121.723Z" fill="#DFEFFF"/>
<path d="M418.944 108.325L468.8 105.436V159.486V292.792H433.229L437.371 285.368L418.944 108.325Z" fill="#F0F8FF"/>
<path d="M412.659 212.786L468.8 211.194L468.597 194.621" fill="#07294A"/>
<path d="M468.8 67.4769V109.21L409.68 123.741V77.2616C409.68 60.7808 420.931 46.4293 436.935 42.4957H436.935C444.611 40.6092 452.727 42.3557 458.947 47.232C465.167 52.1084 468.8 59.5733 468.8 67.4769V67.4769Z" fill="#79C9E7"/>
<path d="M427.481 19.7256V26.3845C427.481 31.5333 430.997 36.017 435.997 37.2459L446.593 39.8503V13.8156L437.782 11.6501C435.301 11.0403 432.677 11.6048 430.667 13.1812C428.656 14.7575 427.481 17.1707 427.481 19.7256V19.7256Z" fill="#F0F8FF"/>
<path d="M427.481 26.3848C427.481 31.5336 430.997 36.0173 435.997 37.2462L446.593 39.8506" stroke="#07294A" stroke-width="0.450544" stroke-linecap="round" stroke-linejoin="round"/>
<path d="M438.278 25.0635C438.56 25.0635 438.789 24.8347 438.789 24.5525C438.789 24.2703 438.56 24.0415 438.278 24.0415C437.995 24.0415 437.767 24.2703 437.767 24.5525C437.767 24.8347 437.995 25.0635 438.278 25.0635Z" fill="#07294A"/>
<path d="M430.429 25.0635C430.711 25.0635 430.94 24.8347 430.94 24.5525C430.94 24.2703 430.711 24.0415 430.429 24.0415C430.147 24.0415 429.918 24.2703 429.918 24.5525C429.918 24.8347 430.147 25.0635 430.429 25.0635Z" fill="#07294A"/>
<path d="M432.731 27.6007V19.7256H428.786" stroke="#07294A" stroke-width="0.450544" stroke-linecap="round" stroke-linejoin="round"/>
<path d="M439.24 19.7256H435.295" stroke="#07294A" stroke-width="0.450544" stroke-linecap="round" stroke-linejoin="round"/>
<path d="M445.334 23.7606V26.4953C446.809 26.4953 448.005 25.2994 448.005 23.8243C448.005 23.7423 448.001 23.6613 447.994 23.5812C447.844 21.9225 445.334 22.0952 445.334 23.7606Z" fill="#F0F8FF"/>
<path d="M445.334 26.4952C446.809 26.4952 448.005 25.2994 448.005 23.8242" stroke="#07294A" stroke-width="0.450544" stroke-linecap="round" stroke-linejoin="round"/>
<path d="M434.888 28.521C435.22 28.8527 435.67 29.039 436.139 29.039C436.608 29.039 437.058 28.8527 437.389 28.521" stroke="#79C9E7" stroke-width="0.450544" stroke-linecap="round" stroke-linejoin="round"/>
<path d="M432.731 27.6069L434.457 28.031" stroke="#07294A" stroke-width="0.450544" stroke-linecap="round" stroke-linejoin="round"/>
<path d="M427.481 21.082C427.481 21.082 433.025 19.0844 434.102 15.2573C436.318 19.3705 440.111 22.4051 444.611 23.663" stroke="#07294A" stroke-width="0.450544" stroke-linecap="round" stroke-linejoin="round"/>
<path d="M427.482 25.16C427.482 25.16 420.652 15.5579 426.837 10.754C433.022 5.9502 439.807 8.23202 440.648 8.9526C440.648 8.9526 450.946 7.92426 455.269 18.4364C459.593 28.9486 473.237 26.4567 476.977 29.4759C477.158 29.6213 477.321 29.7878 477.463 29.9719C479.311 32.2878 481.827 33.9782 484.67 34.8133C489.945 36.464 496.008 39.79 494.09 46.1823C490.848 56.9909 444.932 50.1819 446.092 26.3847" stroke="#07294A" stroke-width="0.450544" stroke-linecap="round" stroke-linejoin="round"/>
<path d="M409.68 123.741V213.418L498.638 194.537L468.8 109.21" fill="#79C9E7"/>
<path d="M404.629 89.8518L394.858 67.7993L420.799 70.6816L411.911 92.0586L418.944 123.74L394.858 112.955L404.629 89.8518Z" fill="#F0F8FF"/>
<path d="M433.228 292.792L437.371 285.368L425.376 170.125" stroke="#07294A" stroke-width="0.450544" stroke-linecap="round" stroke-linejoin="round"/>
<path d="M462.279 50.3564C462.279 50.3564 487.332 77.8422 479.405 109.21C471.479 140.577 401.103 97.5832 400.863 89.4167C400.622 81.2501 412.152 86.5344 412.152 86.5344C412.152 86.5344 410.951 81.3478 413.353 82.7401C415.754 84.1324 416.955 87.0147 416.955 87.0147L452.264 91.5784L446.463 74.5248" stroke="#07294A" stroke-width="0.450544" stroke-linecap="round" stroke-linejoin="round"/>
<path d="M396.725 72.0133C396.725 72.0133 394.618 64.6769 393.176 69.4808C391.735 74.2846 385.73 96.3822 398.941 107.191" stroke="#07294A" stroke-width="0.450544" stroke-linecap="round" stroke-linejoin="round"/>
<path fill-rule="evenodd" clip-rule="evenodd" d="M400.355 47.4131C401.742 46.0946 402.42 44.8035 401.976 44.0354C401.533 43.2676 400.075 43.2107 398.241 43.7524C397.792 41.8908 397.013 40.6577 396.126 40.6577C395.239 40.6577 394.459 41.8908 394.011 43.7524C392.176 43.2107 390.719 43.2676 390.276 44.0354C389.832 44.8035 390.51 46.0946 391.897 47.4131C390.51 48.7316 389.832 50.0227 390.276 50.7908C390.719 51.5586 392.176 51.6156 394.011 51.0738C394.459 52.9354 395.239 54.1685 396.126 54.1685C397.013 54.1685 397.792 52.9354 398.241 51.0738C400.075 51.6156 401.533 51.5586 401.976 50.7908C402.42 50.0227 401.742 48.7316 400.355 47.4131Z" stroke="#07294A" stroke-width="0.450544" stroke-linecap="round" stroke-linejoin="round"/>
<path fill-rule="evenodd" clip-rule="evenodd" d="M405.087 60.9238C406.475 59.6053 407.153 58.3143 406.709 57.5462C406.266 56.7783 404.808 56.7214 402.973 57.2631C402.525 55.4016 401.746 54.1685 400.859 54.1685C399.972 54.1685 399.192 55.4016 398.744 57.2631C396.909 56.7214 395.452 56.7783 395.008 57.5462C394.565 58.3143 395.243 59.6053 396.63 60.9238C395.243 62.2424 394.565 63.5334 395.008 64.3015C395.452 65.0694 396.909 65.1263 398.744 64.5846C399.192 66.4461 399.972 67.6792 400.859 67.6792C401.746 67.6792 402.525 66.4461 402.973 64.5846C404.808 65.1263 406.266 65.0694 406.709 64.3015C407.153 63.5334 406.475 62.2424 405.087 60.9238Z" stroke="#07294A" stroke-width="0.450544" stroke-linecap="round" stroke-linejoin="round"/>
<path fill-rule="evenodd" clip-rule="evenodd" d="M415.317 46.8741C416.093 45.1246 416.224 43.6723 415.52 43.1328C414.816 42.5936 413.448 43.0997 411.961 44.3033C410.834 42.7558 409.641 41.9156 408.822 42.2556C408.003 42.5957 407.755 44.0333 408.055 45.9245C406.153 46.1275 404.828 46.7387 404.713 47.6178C404.598 48.4973 405.719 49.4299 407.506 50.1159C406.73 51.8655 406.599 53.3178 407.303 53.8572C408.006 54.3965 409.374 53.8904 410.861 52.6867C411.989 54.2343 413.181 55.0745 414.001 54.7344C414.82 54.3944 415.067 52.9567 414.768 51.0656C416.67 50.8626 417.994 50.2514 418.11 49.3722C418.225 48.4928 417.104 47.5602 415.317 46.8741Z" stroke="#07294A" stroke-width="0.450544" stroke-linecap="round" stroke-linejoin="round"/>
<path d="M739.701 124.407C739.701 124.407 612.03 244.943 805.597 253.546L812.05 261.611L821.19 219.672L753.979 199.401L764.268 114.822" fill="#DFEFFF"/>
<path d="M743.653 233.907C743.653 218.981 747.792 205.618 754.315 196.643L753.979 199.401L801.554 213.749C805.063 226.71 805.129 240.362 801.746 253.356C777.866 252.083 759.049 249.053 744.398 244.733C743.9 241.146 743.651 237.529 743.653 233.907V233.907Z" fill="#07294A"/>
<path d="M749.267 112.3C749.267 112.3 742.03 230.414 762.469 286.336L758.2 292.609H794.553C794.553 292.609 798.524 142.375 798.524 109.949L749.267 112.3Z" fill="#F0F8FF"/>
<path d="M760.827 20.9148V36.2647L779.843 40.9386V15.0347L760.827 10.3608V20.9148Z" fill="#F0F8FF"/>
<path d="M771.569 26.2254C771.288 26.2254 771.061 25.9977 771.061 25.7169C771.061 25.4361 771.288 25.2085 771.569 25.2085C771.85 25.2085 772.077 25.4361 772.077 25.7169C772.077 25.9977 771.85 26.2254 771.569 26.2254Z" fill="#07294A"/>
<path d="M763.76 26.2254C763.479 26.2254 763.251 25.9977 763.251 25.7169C763.251 25.4361 763.479 25.2085 763.76 25.2085C764.041 25.2085 764.268 25.4361 764.268 25.7169C764.268 25.9977 764.041 26.2254 763.76 26.2254Z" fill="#07294A"/>
<path d="M766.051 28.7501V20.9146H762.126" stroke="#07294A" stroke-width="0.450544" stroke-linecap="round" stroke-linejoin="round"/>
<path d="M772.527 20.9146H768.602" stroke="#07294A" stroke-width="0.450544" stroke-linecap="round" stroke-linejoin="round"/>
<path d="M761.515 19.6319H761.515" stroke="#07294A" stroke-width="0.450544" stroke-linecap="round" stroke-linejoin="round"/>
<path d="M778.59 24.9296V27.6506C780.058 27.6506 781.248 26.4608 781.248 24.993C781.248 24.9115 781.244 24.8308 781.237 24.7511C781.088 23.1008 778.59 23.2727 778.59 24.9296Z" fill="#F0F8FF"/>
<path d="M778.59 27.6503C780.058 27.6503 781.248 26.4604 781.248 24.9927" stroke="#07294A" stroke-width="0.450544" stroke-linecap="round" stroke-linejoin="round"/>
<path d="M767.768 30.6815C768.481 30.6815 769.165 30.3981 769.67 29.8937C770.174 29.3892 770.458 28.7051 770.458 27.9917" stroke="#79C9E7" stroke-width="0.450544" stroke-linecap="round" stroke-linejoin="round"/>
<path d="M775.87 39.9619L779.843 40.9383" stroke="#07294A" stroke-width="0.450544" stroke-linecap="round" stroke-linejoin="round"/>
<path d="M766.051 28.7563L767.768 29.1783" stroke="#07294A" stroke-width="0.450544" stroke-linecap="round" stroke-linejoin="round"/>
<path d="M798.524 68.4258V109.949L739.701 124.407V78.1613C739.701 61.7633 750.896 47.4839 766.82 43.5701H766.82C774.456 41.6931 782.532 43.4308 788.721 48.2826C794.91 53.1345 798.524 60.5619 798.524 68.4258V68.4258Z" fill="#79C9E7"/>
<path d="M749.267 112.3C749.267 112.3 742.03 230.414 762.469 286.336" stroke="#07294A" stroke-width="0.450544" stroke-linecap="round" stroke-linejoin="round"/>
<path d="M776.252 20.915C776.252 20.915 778.462 28.9792 775.863 30.682C773.264 32.3847 769.862 27.2654 764.416 30.0399C757.833 33.3938 760.827 22.1375 760.827 22.1375" stroke="#07294A" stroke-width="0.450544" stroke-linecap="round" stroke-linejoin="round"/>
<path d="M778.59 28.3739C778.59 28.3739 781.773 38.1279 773.916 40.9381C766.06 43.7483 755.839 39.1825 759.133 27.9917" stroke="#07294A" stroke-width="0.450544" stroke-linecap="round" stroke-linejoin="round"/>
<path d="M777.417 20.9147C777.417 20.9147 771.569 23.0633 766.051 16.6704C766.051 16.6704 763.79 19.8447 760.148 19.6317" stroke="#07294A" stroke-width="0.450544" stroke-linecap="round" stroke-linejoin="round"/>
<path d="M759.576 22.7131C759.576 22.7131 755.491 9.09815 766.051 7.91548C776.61 6.73282 781.117 13.3364 782.976 18.4049C784.834 23.4733 782.438 28.8017 779.919 31.037" stroke="#07294A" stroke-width="0.450544" stroke-linecap="round" stroke-linejoin="round"/>
<path d="M788.925 48.4468C788.925 48.4468 819.172 76.3568 817.26 111.01C815.349 145.662 746.043 116.984 743.892 105.513C741.741 94.0417 755.246 100.972 755.246 100.972C755.246 100.972 753.932 95.5951 755.246 96.551C756.561 97.507 759.792 101.092 759.792 101.092L789.777 101.45L783.636 84.4823" stroke="#07294A" stroke-width="0.450544" stroke-linecap="round" stroke-linejoin="round"/>
<path d="M764.268 101.145C764.268 101.145 764.427 80.1807 739.701 75.64C739.701 75.64 743.898 69.3967 741.445 67.1412C739.97 65.7845 737.631 67.5135 736.002 69.107C735.109 69.9777 733.704 70.0348 732.744 69.2394C731.816 68.4802 730.371 67.9388 728.239 68.6497C726.625 69.1874 725.995 70.078 725.838 70.9812C725.641 72.3119 724.413 73.2383 723.079 73.0618C721.291 72.8004 719.696 73.0684 720.711 75.2815C722.682 79.5832 726.446 79.5832 726.446 79.5832C726.446 79.5832 700.277 134.521 754.407 127.575" stroke="#07294A" stroke-width="0.450544" stroke-linecap="round" stroke-linejoin="round"/>
<path d="M721.546 114.822C721.546 114.822 720.173 132.638 729.314 138.374" stroke="#07294A" stroke-width="0.450544" stroke-linecap="round" stroke-linejoin="round"/>
<path d="M863.074 54.5822L888.438 52.9072C890.353 63.9143 882.017 97.0939 882.017 97.0939L862.117 80.1857C871.688 62.9572 863.074 54.5822 863.074 54.5822Z" fill="#79C9E7"/>
<path d="M897.63 109.777C897.63 109.777 844.022 218.904 911.179 223.899C978.336 228.894 997.206 171.173 997.206 171.173L1006.09 166.991L978.336 148.417L940.676 166.991L928.303 111.125" fill="#79C9E7"/>
<path d="M926.084 153.288C930.82 153.288 935.284 155.851 939.212 160.381L940.676 166.992L943.104 165.794C950.046 177.281 954.539 195.618 954.539 216.279C954.539 216.547 954.536 216.813 954.534 217.08C943.042 222.212 928.767 225.207 911.179 223.899C905.995 223.514 901.533 222.506 897.709 220.978C897.657 219.426 897.631 217.86 897.63 216.279C897.63 181.49 910.369 153.288 926.084 153.288Z" fill="#07294A"/>
<path d="M907.208 112.131C907.208 112.131 899.962 230.393 920.427 286.386L916.152 292.667H952.551C952.551 292.667 956.527 142.244 956.527 109.777L907.208 112.131Z" fill="#79C9E7"/>
<path d="M918.783 20.6312V36.0005L937.822 40.6798V14.7433L918.783 10.064V20.6312Z" fill="#F0F8FF"/>
<path d="M929.538 25.9483C929.257 25.9483 929.029 25.7204 929.029 25.4392C929.029 25.1581 929.257 24.9302 929.538 24.9302C929.819 24.9302 930.047 25.1581 930.047 25.4392C930.047 25.7204 929.819 25.9483 929.538 25.9483Z" fill="#07294A"/>
<path d="M921.719 25.9483C921.438 25.9483 921.21 25.7204 921.21 25.4392C921.21 25.1581 921.438 24.9302 921.719 24.9302C922 24.9302 922.228 25.1581 922.228 25.4392C922.228 25.7204 922 25.9483 921.719 25.9483Z" fill="#07294A"/>
<path d="M924.013 28.4759V20.6309H920.083" stroke="#07294A" stroke-width="0.450544" stroke-linecap="round" stroke-linejoin="round"/>
<path d="M930.497 20.6311H926.567" stroke="#07294A" stroke-width="0.450544" stroke-linecap="round" stroke-linejoin="round"/>
<path d="M936.568 24.6506V27.3749C938.038 27.3749 939.229 26.1836 939.229 24.714C939.229 24.6324 939.226 24.5516 939.218 24.4718C939.069 22.8195 936.568 22.9915 936.568 24.6506Z" fill="#F0F8FF"/>
<path d="M936.568 27.3748C938.038 27.3748 939.229 26.1835 939.229 24.7139" stroke="#07294A" stroke-width="0.450544" stroke-linecap="round" stroke-linejoin="round"/>
<path d="M925.732 30.41C926.446 30.41 927.131 30.1262 927.636 29.6212C928.141 29.1161 928.425 28.4311 928.425 27.7168" stroke="#79C9E7" stroke-width="0.450544" stroke-linecap="round" stroke-linejoin="round"/>
<path d="M918.783 36L937.822 40.6796" stroke="#07294A" stroke-width="0.450544" stroke-linecap="round" stroke-linejoin="round"/>
<path d="M924.013 28.4824L925.732 28.9049" stroke="#07294A" stroke-width="0.450544" stroke-linecap="round" stroke-linejoin="round"/>
<path d="M935.876 23.8939C935.876 23.8939 926.903 19.826 924.271 16.3564V18.7492C924.271 18.7492 919.426 16.9546 918.229 14.8608" stroke="#07294A" stroke-width="0.450544" stroke-linecap="round" stroke-linejoin="round"/>
<path d="M918.783 19.0487C918.783 19.0487 914.58 17.2541 915.717 13.3657C916.853 9.47728 925.732 6.48622 932.347 8.34067C932.347 8.34067 951.792 12.1393 937.822 32.4188" stroke="#07294A" stroke-width="0.450544" stroke-linecap="round" stroke-linejoin="round"/>
<path d="M897.63 68.2016V109.777L956.527 124.253V77.9494C956.527 61.5308 945.318 47.2334 929.374 43.3146H929.374C921.728 41.4353 913.642 43.1752 907.446 48.0331C901.249 52.8911 897.63 60.3278 897.63 68.2016V68.2016Z" fill="#F0F8FF"/>
<path d="M952.551 292.667C952.551 292.667 956.527 142.244 956.527 109.777" stroke="#07294A" stroke-width="0.450544" stroke-linecap="round" stroke-linejoin="round"/>
<path d="M907.208 112.131C907.208 112.131 899.962 230.393 920.427 286.386L916.152 292.666" stroke="#07294A" stroke-width="0.450544" stroke-linecap="round" stroke-linejoin="round"/>
<path d="M941.725 49.0205C941.725 49.0205 967.642 63.9147 963.095 95.9789C958.549 128.043 897.292 116.079 882.217 98.3718L881.02 90.7147C881.02 90.7147 872.509 80.2961 877.363 82.5143C882.217 84.7325 931.245 88.3218 931.245 88.3218L930.497 77.0754" stroke="#07294A" stroke-width="0.450544" stroke-linecap="round" stroke-linejoin="round"/>
<path d="M904.823 50.3955C904.823 50.3955 889.461 62.4684 885.121 84.0093" stroke="#07294A" stroke-width="0.450544" stroke-linecap="round" stroke-linejoin="round"/>
<path d="M894.972 116.008C894.972 116.008 871.449 121.702 861.16 95.0216C852.535 72.6578 859.245 62.0002 862.356 61.2824C865.467 60.5645 866.424 64.8716 866.424 64.8716" stroke="#07294A" stroke-width="0.450544" stroke-linecap="round" stroke-linejoin="round"/>
<path d="M553.836 284.578L564.651 111.682L591.707 108.687L599.795 143.385L597.696 206.283L582.383 292.022H550.046L553.836 284.578Z" fill="#79C9E7"/>
<path d="M573.43 110.81L615.038 107.959L622.604 111.041L626.159 292.749H587.513L591.599 285.427L573.43 110.81Z" fill="#79C9E7"/>
<path d="M605.403 23.4242V29.9918C605.403 35.0702 601.936 39.4924 597.005 40.7045L586.554 43.2732V17.5952L595.244 15.4593C597.691 14.8578 600.279 15.4147 602.262 16.9694C604.245 18.5242 605.403 20.9043 605.403 23.4242V23.4242Z" fill="#F0F8FF"/>
<path d="M605.403 29.9917C605.403 35.07 601.936 39.4922 597.005 40.7043L586.554 43.2731" stroke="#07294A" stroke-width="0.450544" stroke-linecap="round" stroke-linejoin="round"/>
<path d="M594.755 28.6887C594.477 28.6887 594.251 28.463 594.251 28.1847C594.251 27.9063 594.477 27.6807 594.755 27.6807C595.034 27.6807 595.259 27.9063 595.259 28.1847C595.259 28.463 595.034 28.6887 594.755 28.6887Z" fill="#07294A"/>
<path d="M602.496 28.6887C602.218 28.6887 601.992 28.463 601.992 28.1847C601.992 27.9063 602.218 27.6807 602.496 27.6807C602.775 27.6807 603 27.9063 603 28.1847C603 28.463 602.775 28.6887 602.496 28.6887Z" fill="#07294A"/>
<path d="M600.225 31.1912V23.4243H604.116" stroke="#07294A" stroke-width="0.450544" stroke-linecap="round" stroke-linejoin="round"/>
<path d="M593.806 23.4238H597.697" stroke="#07294A" stroke-width="0.450544" stroke-linecap="round" stroke-linejoin="round"/>
<path d="M587.795 27.4039V30.1011C586.34 30.1011 585.161 28.9216 585.161 27.4667C585.161 27.3858 585.165 27.3059 585.172 27.2269C585.319 25.591 587.795 25.7613 587.795 27.4039Z" fill="#F0F8FF"/>
<path d="M587.795 30.1007C586.34 30.1007 585.161 28.9213 585.161 27.4663" stroke="#07294A" stroke-width="0.450544" stroke-linecap="round" stroke-linejoin="round"/>
<path d="M598.098 32.0986C597.771 32.4258 597.327 32.6096 596.865 32.6096C596.402 32.6096 595.958 32.4258 595.631 32.0986" stroke="#79C9E7" stroke-width="0.450544" stroke-linecap="round" stroke-linejoin="round"/>
<path d="M600.226 31.1973L598.524 31.6156" stroke="#07294A" stroke-width="0.450544" stroke-linecap="round" stroke-linejoin="round"/>
<path d="M564.651 70.521V111.683L622.961 126.014V80.1716C622.961 63.9166 611.864 49.7617 596.079 45.882H596.079C588.509 44.0214 580.504 45.7439 574.369 50.5534C568.234 55.363 564.651 62.7257 564.651 70.521V70.521Z" fill="#F0F8FF"/>
<path d="M591.6 285.427L573.43 110.81" stroke="#07294A" stroke-width="0.450544" stroke-linecap="round" stroke-linejoin="round"/>
<path d="M606.247 26.0822C606.247 26.0822 619.928 19.4728 616.552 13.6095C613.176 7.74619 583.593 9.29186 572.933 19.8459C562.272 30.3999 579.951 31.6154 579.951 31.6154" stroke="#79C9E7" stroke-width="0.450544" stroke-linecap="round" stroke-linejoin="round"/>
<path d="M598.098 10.5087C598.098 10.5087 586.769 2.2579 581.628 14.4188" stroke="#79C9E7" stroke-width="0.450544" stroke-linecap="round" stroke-linejoin="round"/>
<path d="M605.403 24.9513C601.463 24.8554 597.941 22.4723 596.386 18.8511C596.386 18.8511 594.129 26.2542 587.795 26.4911" stroke="#07294A" stroke-width="0.450544" stroke-linecap="round" stroke-linejoin="round"/>
<path d="M582.942 23.4238C582.942 23.4238 579.21 29.5114 579.625 36.2039C581.718 37.4644 584.111 38.1394 586.554 38.1583" stroke="#07294A" stroke-width="0.450544" stroke-linecap="round" stroke-linejoin="round"/>
<path d="M610.192 52.9917C610.192 52.9917 639.561 77.8627 643.115 136.751C646.668 195.639 639.561 187.799 637.429 186.385C635.297 184.971 629.611 175.377 629.611 175.377C629.611 175.377 628.99 172.702 626.159 174.31C617.037 179.494 623.13 167.519 623.696 166.867L618.298 138.247C616.416 130.12 613.582 122.244 609.853 114.782L595.259 85.5753" stroke="#07294A" stroke-width="0.450544" stroke-linecap="round" stroke-linejoin="round"/>
<path d="M668.785 191.956C668.785 219.307 658.487 241.479 637.782 241.479C617.077 241.479 593.806 219.307 593.806 191.956H668.785Z" fill="#F0F8FF"/>
<path d="M668.785 191.956C668.785 219.307 658.487 241.479 637.782 241.479C617.077 241.479 593.806 219.307 593.806 191.956" stroke="#07294A" stroke-width="0.450544" stroke-linecap="round" stroke-linejoin="round"/>
<path d="M644.033 176.72C648.635 180.619 651.82 186.006 651.82 191.956" stroke="#07294A" stroke-width="0.450544" stroke-linecap="round" stroke-linejoin="round"/>
<path d="M610.771 191.956C610.771 182.441 614.375 174.367 621.613 171.512" stroke="#07294A" stroke-width="0.450544" stroke-linecap="round" stroke-linejoin="round"/>
<path d="M568.312 57.3672C568.312 57.3672 536.137 103.002 562.974 138.482" stroke="#07294A" stroke-width="0.450544" stroke-linecap="round" stroke-linejoin="round"/>
<path d="M29.6245 28.2793H104.756L136.431 67.8508H61.2996L29.6245 28.2793V28.2793Z" fill="#07294A"/>
<rect x="61.3076" y="67.8511" width="116.762" height="132.149" fill="#F0F8FF"/>
<rect x="178.071" y="67.8511" width="75.1311" height="132.149" fill="#DFEFFF"/>
<path d="M253.202 67.8511V200H61.3091" stroke="#07294A" stroke-width="1.13017"/>
<path d="M284.876 28.2793H209.746L178.071 67.8508H253.202L284.876 28.2793V28.2793Z" fill="#F0F8FF"/>
<path d="M253.201 67.8508L284.876 28.2793H209.745" stroke="#07294A" stroke-width="1.13017"/>
<rect x="102.949" y="67.8511" width="33.4818" height="38.7645" fill="#79C9E7"/>
<rect x="99.2539" y="153.038" width="40.8699" height="29.749" stroke="#07294A" stroke-width="0.5"/>
<rect x="99.5039" y="153.288" width="40.3699" height="14.6245" fill="#E04141"/>
<rect x="99.5039" y="167.912" width="40.3699" height="14.6245" fill="white"/>
</g>
<defs>
<linearGradient id="paint0_linear_994_18482" x1="34.814" y1="107.22" x2="1165.18" y2="107.22" gradientUnits="userSpaceOnUse">
<stop stop-color="#79C9E7"/>
<stop offset="0.2" stop-color="#74DAE1"/>
<stop offset="0.4" stop-color="#82E8D3"/>
<stop offset="0.6" stop-color="#A3F3C1"/>
<stop offset="0.8" stop-color="#CDFBB1"/>
<stop offset="1" stop-color="#FDFFAA"/>
</linearGradient>
<clipPath id="clip0_994_18482">
<rect width="1200" height="200" fill="white"/>
</clipPath>
</defs>
</svg>
