<svg width="1200" height="200" viewBox="0 0 1200 200" fill="none" xmlns="http://www.w3.org/2000/svg">
<g clip-path="url(#clip0_994_61724)">
<g opacity="0.5">
<path fill-rule="evenodd" clip-rule="evenodd" d="M250.419 30.374C250.419 15.608 262.389 3.6377 277.155 3.6377H531.083C545.849 3.6377 557.819 15.608 557.819 30.3741V50.0548C557.819 59.8989 565.799 67.879 575.643 67.879H732.17C732.454 67.879 732.737 67.8835 733.02 67.8923C743.896 68.2321 757.443 68.0175 766.797 62.4578C774.943 57.6161 784.447 54.8323 794.542 54.8323C819.762 54.8323 841.287 72.2041 847.188 95.6344C847.834 98.1998 850.213 100 852.859 100V100C856.617 100 860.267 100.509 863.741 101.462C864.704 101.727 865.677 100.999 865.677 100V100C865.677 64.0116 895.124 34.8372 931.449 34.8372C967.774 34.8372 997.221 64.0116 997.221 100C997.221 135.988 967.774 165.163 931.449 165.163C925.738 165.163 920.197 164.442 914.913 163.086C902.987 160.026 887.85 165.222 878.123 172.77C871.125 178.2 862.336 181.439 852.859 181.439C842.633 181.439 833.209 177.669 825.972 171.445C818.75 165.233 808.717 161.297 799.226 162.115C797.681 162.248 796.119 162.316 794.542 162.316C788.29 162.316 782.264 161.248 776.647 159.284C769.026 156.62 758.906 161.552 758.906 169.626V169.626C758.906 184.392 746.936 196.362 732.17 196.362H487.872C473.106 196.362 461.135 184.392 461.135 169.626V149.945C461.135 140.101 453.155 132.121 443.311 132.121H322.907C314.832 132.121 308.017 137.729 304.089 144.785C294.466 162.074 275.89 173.786 254.553 173.786C234.365 173.786 216.649 163.301 206.649 147.529C200.309 137.529 182.528 129.653 170.688 129.653V129.653V129.653C156.48 129.653 131.753 136.166 117.729 138.44C116.259 138.678 114.754 138.802 113.222 138.802C97.8625 138.802 85.1511 126.35 85.1511 110.991C85.1511 95.6313 97.8625 83.1799 113.222 83.1799V83.1799C120.591 83.1799 130.35 78.2006 133.541 71.5585C140.171 57.7604 154.414 48.2141 170.688 48.2141C179.612 48.2141 187.925 51.0849 194.707 55.9533C204.872 63.2494 224.748 68.5804 236.626 64.6484V64.6484C243.98 62.214 250.419 55.92 250.419 48.1735V30.374ZM60.1236 42.0418C46.2748 42.0418 34.8137 53.2685 34.8137 67.1172C34.8137 80.966 46.2748 92.1926 60.1236 92.1926C73.9723 92.1926 85.4334 80.966 85.4334 67.1172C85.4334 53.2685 73.9723 42.0418 60.1236 42.0418ZM309.203 163.532C309.203 149.684 320.664 138.457 334.513 138.457C348.362 138.457 359.823 149.684 359.823 163.532C359.823 177.381 348.362 188.608 334.513 188.608C320.664 188.608 309.203 177.381 309.203 163.532ZM1134.59 88.7516C1151.49 88.7516 1165.18 75.18 1165.18 58.4387C1165.18 41.6974 1151.49 28.1259 1134.59 28.1259C1117.69 28.1259 1103.99 41.6974 1103.99 58.4387C1103.99 61.5144 1104.45 64.483 1105.31 67.2802C1106 69.5276 1103.6 72.4754 1101.25 72.4754V72.4754C1090.46 72.4754 1081.7 81.1456 1081.7 91.8408C1081.7 102.536 1090.46 111.206 1101.25 111.206C1112.05 111.206 1120.8 102.536 1120.8 91.8408V91.8408C1120.8 89.4324 1123.79 86.91 1126.1 87.5709C1128.8 88.3397 1131.64 88.7516 1134.59 88.7516ZM1044.92 148.163C1044.92 146.576 1042.74 145.215 1041.37 146.015C1036.82 148.667 1031.52 150.188 1025.87 150.188C1008.97 150.188 995.271 136.616 995.271 119.875C995.271 103.134 1008.97 89.5621 1025.87 89.5621C1042.76 89.5621 1056.46 103.134 1056.46 119.875C1056.46 120.288 1056.45 120.699 1056.44 121.108C1056.3 124.465 1061.11 128.798 1064.47 128.798V128.798C1075.26 128.798 1084.01 137.468 1084.01 148.163C1084.01 158.858 1075.26 167.529 1064.47 167.529C1053.67 167.529 1044.92 158.858 1044.92 148.163V148.163ZM579.124 63.1221C588.207 63.1221 595.571 55.8265 595.571 46.8269C595.571 37.8274 588.207 30.5318 579.124 30.5318C570.04 30.5318 562.676 37.8274 562.676 46.8269C562.676 55.8265 570.04 63.1221 579.124 63.1221Z" fill="url(#paint0_linear_994_61724)"/>
</g>
<rect x="719.534" y="158.159" width="41.3207" height="8.89681" fill="#07294A"/>
<path d="M748.693 256.386V137.945L740.194 133.039L731.696 137.945V256.386" fill="#F0F8FF"/>
<path d="M748.693 256.386V137.945L740.194 133.039L731.696 137.945" stroke="#07294A" stroke-width="0.588"/>
<path d="M740.194 163.423C740.645 163.423 741.01 163.057 741.01 162.607C741.01 162.157 740.645 161.792 740.194 161.792C739.744 161.792 739.379 162.157 739.379 162.607C739.379 163.057 739.744 163.423 740.194 163.423Z" fill="#07294A"/>
<rect x="748.693" y="158.159" width="41.3207" height="8.89681" fill="#07294A"/>
<path d="M777.852 256.386V137.945L769.353 133.039L760.854 137.945V256.386" fill="#F0F8FF"/>
<path d="M777.852 256.386V137.945L769.353 133.039L760.854 137.945" stroke="#07294A" stroke-width="0.588"/>
<path d="M769.353 163.423C769.803 163.423 770.169 163.057 770.169 162.607C770.169 162.157 769.803 161.792 769.353 161.792C768.903 161.792 768.537 162.157 768.537 162.607C768.537 163.057 768.903 163.423 769.353 163.423Z" fill="#07294A"/>
<rect x="777.852" y="158.159" width="41.3207" height="8.89681" fill="#07294A"/>
<path d="M807.011 256.386V137.945L798.512 133.039L790.014 137.945V256.386" fill="#F0F8FF"/>
<path d="M807.011 256.386V137.945L798.512 133.039L790.014 137.945" stroke="#07294A" stroke-width="0.588"/>
<path d="M798.512 163.423C798.962 163.423 799.327 163.057 799.327 162.607C799.327 162.157 798.962 161.792 798.512 161.792C798.061 161.792 797.696 162.157 797.696 162.607C797.696 163.057 798.061 163.423 798.512 163.423Z" fill="#07294A"/>
<rect x="807.01" y="158.159" width="41.3207" height="8.89681" fill="#07294A"/>
<path d="M836.169 256.386V137.945L827.671 133.039L819.172 137.945V256.386" fill="#F0F8FF"/>
<path d="M836.169 256.386V137.945L827.671 133.039L819.172 137.945" stroke="#07294A" stroke-width="0.588"/>
<path d="M827.671 163.423C828.121 163.423 828.486 163.057 828.486 162.607C828.486 162.157 828.121 161.792 827.671 161.792C827.22 161.792 826.855 162.157 826.855 162.607C826.855 163.057 827.22 163.423 827.671 163.423Z" fill="#07294A"/>
<rect x="836.169" y="158.159" width="41.3207" height="8.89681" fill="#07294A"/>
<path d="M865.328 256.386V137.945L856.83 133.039L848.331 137.945V256.386" fill="#F0F8FF"/>
<path d="M865.328 256.386V137.945L856.83 133.039L848.331 137.945" stroke="#07294A" stroke-width="0.588"/>
<path d="M856.83 163.423C857.28 163.423 857.645 163.057 857.645 162.607C857.645 162.157 857.28 161.792 856.83 161.792C856.379 161.792 856.014 162.157 856.014 162.607C856.014 163.057 856.379 163.423 856.83 163.423Z" fill="#07294A"/>
<rect x="865.328" y="158.159" width="41.3207" height="8.89681" fill="#07294A"/>
<path d="M894.487 256.386V137.945L885.989 133.039L877.49 137.945V256.386" fill="#F0F8FF"/>
<path d="M894.487 256.386V137.945L885.989 133.039L877.49 137.945" stroke="#07294A" stroke-width="0.588"/>
<path d="M885.989 163.423C886.439 163.423 886.804 163.057 886.804 162.607C886.804 162.157 886.439 161.792 885.989 161.792C885.538 161.792 885.173 162.157 885.173 162.607C885.173 163.057 885.538 163.423 885.989 163.423Z" fill="#07294A"/>
<rect x="894.487" y="158.159" width="41.3207" height="8.89681" fill="#07294A"/>
<path d="M923.646 256.386V137.945L915.147 133.039L906.649 137.945V256.386" fill="#F0F8FF"/>
<path d="M923.646 256.386V137.945L915.147 133.039L906.649 137.945" stroke="#07294A" stroke-width="0.588"/>
<path d="M915.147 163.423C915.598 163.423 915.963 163.057 915.963 162.607C915.963 162.157 915.598 161.792 915.147 161.792C914.697 161.792 914.332 162.157 914.332 162.607C914.332 163.057 914.697 163.423 915.147 163.423Z" fill="#07294A"/>
<path d="M975.722 233.76L930.745 159.582L925.972 112L894.281 104.211C894.281 104.211 870.988 173.881 901.459 202.033C931.93 230.185 954.72 247.844 954.72 247.844V256.014L975.722 233.76Z" fill="#79C9E7"/>
<path d="M952.932 202.704C952.932 200.347 952.848 198.031 952.679 195.756L930.745 159.582L930.042 152.578C928.695 152.186 927.3 151.987 925.897 151.985C911.548 151.985 899.813 172.958 898.919 199.454C899.721 200.347 900.568 201.207 901.459 202.033C919.554 218.751 934.94 231.769 944.454 239.585C949.674 230.338 952.932 217.236 952.932 202.704Z" fill="#07294A"/>
<path d="M901.459 103.48L936.342 101.09L942.685 103.673L945.666 256.014H913.266L916.691 249.875L901.459 103.48V103.48Z" fill="#79C9E7"/>
<path d="M909.001 30.2173V35.7234C909.001 39.981 911.908 43.6885 916.042 44.7047L924.804 46.8583V25.3303L917.519 23.5396C915.467 23.0354 913.297 23.5022 911.635 24.8057C909.972 26.1091 909.001 28.1046 909.001 30.2172L909.001 30.2173Z" fill="#F0F8FF"/>
<path d="M909.001 35.7231C909.001 39.9807 911.908 43.6882 916.042 44.7044L924.804 46.858" stroke="#07294A" stroke-width="0.588"/>
<path d="M917.928 34.6307C918.162 34.6307 918.351 34.4416 918.351 34.2082C918.351 33.9748 918.162 33.7856 917.928 33.7856C917.695 33.7856 917.506 33.9748 917.506 34.2082C917.506 34.4416 917.695 34.6307 917.928 34.6307Z" fill="#07294A"/>
<path d="M911.438 34.6307C911.672 34.6307 911.861 34.4416 911.861 34.2082C911.861 33.9748 911.672 33.7856 911.438 33.7856C911.205 33.7856 911.016 33.9748 911.016 34.2082C911.016 34.4416 911.205 34.6307 911.438 34.6307Z" fill="#07294A"/>
<path d="M913.342 36.7291V30.2173H910.08" stroke="#07294A" stroke-width="0.588"/>
<path d="M918.724 30.2175H915.462" stroke="#07294A" stroke-width="0.588"/>
<path d="M923.763 33.5536V35.8149C924.983 35.8149 925.972 34.8261 925.972 33.6062C925.972 33.5385 925.969 33.4715 925.963 33.4052C925.839 32.0337 923.763 32.1765 923.763 33.5536Z" fill="#F0F8FF"/>
<path d="M923.763 35.8151C924.983 35.8151 925.972 34.8262 925.972 33.6064" stroke="#07294A" stroke-width="0.588"/>
<path d="M915.126 37.4897C915.697 38.0609 916.623 38.0609 917.194 37.4897" stroke="#79C9E7" stroke-width="0.588" stroke-linecap="round" stroke-linejoin="round"/>
<path d="M913.342 36.734L914.769 37.0847" stroke="#07294A" stroke-width="0.588" stroke-linecap="round"/>
<path d="M894.281 69.702V104.211L943.167 116.227V77.7929C943.167 64.165 933.864 52.2978 920.63 49.0452H920.63C914.283 47.4853 907.572 48.9294 902.428 52.9616C897.285 56.9939 894.281 63.1666 894.281 69.702L894.281 69.702Z" fill="#F0F8FF"/>
<path d="M913.266 256.014L916.691 249.875L901.459 103.479" stroke="#07294A" stroke-width="0.588"/>
<path d="M909.001 34.208C909.001 34.208 904.495 30.3619 906.382 25.3966C908.151 20.7431 917.509 17.6129 922.765 20.8951C923.506 21.3539 924.289 21.7425 925.102 22.0559C928.471 23.3689 937.001 28.5128 936.522 46.8579C935.926 69.6873 921.973 58.2671 923.264 53.1031C924.555 47.9392 925.45 43.6193 924.804 39.1505" stroke="#07294A" stroke-width="0.588"/>
<path d="M924.059 59.0249C924.059 59.0249 925.697 61.8055 929.67 62.1034" stroke="#79C9E7" stroke-width="0.588" stroke-linecap="round" stroke-linejoin="round"/>
<path d="M924.009 61.7627C924.009 61.7627 913.822 64.0946 913.204 75.1353C913.052 77.7496 912.35 80.3025 911.145 82.6276C909.458 85.8973 907.707 90.8993 909.495 95.473C912.476 103.096 930.579 81.0564 928.545 65.2724" stroke="#07294A" stroke-width="0.588"/>
<path d="M938.667 62.1035C938.667 62.1035 956.631 90.4426 947.694 108.318C938.756 126.193 890.295 107.523 897.445 90.244C897.445 90.244 893.075 86.4704 895.459 85.6759C897.842 84.8814 908.967 88.8391 908.967 88.8391" stroke="#07294A" stroke-width="0.588"/>
<path d="M919.499 91.0073L940.147 97.0286" stroke="#07294A" stroke-width="0.588"/>
<path d="M902.725 52.7354C902.725 52.7354 890.973 59.1745 891.685 84.8815C891.685 84.8815 889.699 62.6368 882.151 56.6784C874.604 50.72 868.574 54.1398 869.17 54.9343C869.766 55.7287 874.604 57.2742 874.604 57.2742C874.604 57.2742 871.029 60.2534 874.803 64.4243C874.803 64.4243 870.226 116.342 891.851 112.635" stroke="#07294A" stroke-width="0.588"/>
<path d="M738.867 120.11C751.615 120.11 761.949 109.776 761.949 97.029C761.949 84.2816 751.615 73.9478 738.867 73.9478C726.12 73.9478 715.786 84.2816 715.786 97.029C715.786 109.776 726.12 120.11 738.867 120.11Z" fill="#F0F8FF"/>
<path d="M731.663 120.11C744.41 120.11 754.744 109.776 754.744 97.029C754.744 84.2816 744.41 73.9478 731.663 73.9478C718.915 73.9478 708.581 84.2816 708.581 97.029C708.581 109.776 718.915 120.11 731.663 120.11Z" fill="#79C9E7"/>
<path d="M731.663 97.029C729.015 97.029 726.627 95.4339 725.614 92.9874C724.601 90.5409 725.161 87.7248 727.033 85.8524C728.906 83.9799 731.722 83.4198 734.168 84.4331C736.615 85.4465 738.21 87.8338 738.21 90.4819" stroke="white" stroke-width="0.588"/>
<path d="M731.663 97.0293C734.311 97.0293 736.698 98.6245 737.711 101.071C738.725 103.517 738.165 106.333 736.292 108.206C734.42 110.078 731.604 110.639 729.157 109.625C726.711 108.612 725.115 106.225 725.115 103.576" stroke="white" stroke-width="0.588"/>
<path d="M731.663 80.1753V113.883" stroke="white" stroke-width="0.588"/>
<rect x="817.523" y="106.77" width="45.2867" height="9.41883" fill="#79C9E7"/>
<path d="M862.81 106.77V116.189H817.523" stroke="#07294A" stroke-width="0.588"/>
<rect x="817.523" y="94.9336" width="45.2867" height="9.41883" fill="#79C9E7"/>
<path d="M862.81 94.9336V104.352H817.523" stroke="#07294A" stroke-width="0.588"/>
<rect x="817.523" y="83.0977" width="45.2867" height="9.41883" fill="#79C9E7"/>
<path d="M862.81 83.0977V92.5164H817.523" stroke="#07294A" stroke-width="0.588"/>
<rect x="817.523" y="71.2612" width="45.2867" height="9.41883" fill="#79C9E7"/>
<path d="M862.81 71.2612V80.68H817.523" stroke="#07294A" stroke-width="0.588"/>
<rect x="817.523" y="59.4248" width="45.2867" height="9.41883" fill="#79C9E7"/>
<path d="M862.81 59.4248V68.8435H817.523" stroke="#07294A" stroke-width="0.588"/>
<rect x="817.523" y="47.5884" width="45.2867" height="9.41883" fill="#79C9E7"/>
<path d="M862.81 47.5884V57.0071H817.523" stroke="#07294A" stroke-width="0.588"/>
<rect x="817.523" y="35.752" width="45.2867" height="9.41883" fill="#79C9E7"/>
<path d="M862.81 35.752V45.1711H817.523" stroke="#07294A" stroke-width="0.588"/>
<rect x="817.523" y="23.916" width="45.2867" height="9.41883" fill="#79C9E7"/>
<path d="M862.81 23.9155V33.3346H817.523" stroke="#07294A" stroke-width="0.588"/>
<rect x="817.523" y="12.0796" width="45.2867" height="9.41883" fill="#79C9E7"/>
<path d="M862.81 12.0796V21.4983H817.523" stroke="#07294A" stroke-width="0.588"/>
<rect x="767.093" y="106.77" width="45.2867" height="9.41883" fill="#79C9E7"/>
<path d="M812.379 106.77V116.189H767.093" stroke="#07294A" stroke-width="0.588"/>
<rect x="767.093" y="94.9336" width="45.2867" height="9.41883" fill="#79C9E7"/>
<path d="M812.379 94.9336V104.352H767.093" stroke="#07294A" stroke-width="0.588"/>
<rect x="767.093" y="83.0977" width="45.2867" height="9.41883" fill="#79C9E7"/>
<path d="M812.379 83.0977V92.5164H767.093" stroke="#07294A" stroke-width="0.588"/>
<rect x="767.093" y="71.2612" width="45.2867" height="9.41883" fill="#79C9E7"/>
<path d="M812.379 71.2612V80.68H767.093" stroke="#07294A" stroke-width="0.588"/>
<rect x="767.093" y="59.4248" width="45.2867" height="9.41883" fill="#79C9E7"/>
<path d="M812.379 59.4248V68.8435H767.093" stroke="#07294A" stroke-width="0.588"/>
<rect x="767.093" y="47.5884" width="45.2867" height="9.41883" fill="#79C9E7"/>
<path d="M812.379 47.5884V57.0071H767.093" stroke="#07294A" stroke-width="0.588"/>
<path d="M627.867 117.602C627.867 117.602 734.981 218.73 572.581 225.948L567.167 232.714L559.498 197.528L615.887 180.521L607.255 109.561" fill="#DFEFFF"/>
<path d="M624.551 209.472C624.551 196.949 621.079 185.737 615.606 178.207L615.887 180.521L575.973 192.559C573.029 203.433 572.973 214.887 575.812 225.789C595.847 224.72 611.634 222.179 623.926 218.554C624.344 215.545 624.553 212.51 624.551 209.472V209.472Z" fill="#07294A"/>
<path d="M619.841 107.445C619.841 107.445 625.913 206.54 608.765 253.458L612.347 258.721H581.847C581.847 258.721 578.515 132.677 578.515 105.472L619.841 107.445Z" fill="#F0F8FF"/>
<path d="M610.142 30.7735V43.6519L594.188 47.5732V25.8402L610.142 21.9189V30.7735Z" fill="#F0F8FF"/>
<path d="M601.13 35.2296C601.366 35.2296 601.557 35.0386 601.557 34.803C601.557 34.5674 601.366 34.3765 601.13 34.3765C600.894 34.3765 600.703 34.5674 600.703 34.803C600.703 35.0386 600.894 35.2296 601.13 35.2296Z" fill="#07294A"/>
<path d="M607.682 35.2296C607.917 35.2296 608.108 35.0386 608.108 34.803C608.108 34.5674 607.917 34.3765 607.682 34.3765C607.446 34.3765 607.255 34.5674 607.255 34.803C607.255 35.0386 607.446 35.2296 607.682 35.2296Z" fill="#07294A"/>
<path d="M605.76 37.3474V30.7734H609.053" stroke="#07294A" stroke-width="0.378" stroke-linecap="round" stroke-linejoin="round"/>
<path d="M600.326 30.7739H603.62" stroke="#07294A" stroke-width="0.378" stroke-linecap="round" stroke-linejoin="round"/>
<path d="M609.565 29.6973H609.565" stroke="#07294A" stroke-width="0.378" stroke-linecap="round" stroke-linejoin="round"/>
<path d="M595.239 34.1423V36.4251C594.008 36.4251 593.01 35.4268 593.01 34.1954C593.01 34.127 593.013 34.0594 593.019 33.9925C593.144 32.6079 595.239 32.7521 595.239 34.1423Z" fill="#F0F8FF"/>
<path d="M595.239 36.425C594.008 36.425 593.01 35.4267 593.01 34.1953" stroke="#07294A" stroke-width="0.378" stroke-linecap="round" stroke-linejoin="round"/>
<path d="M604.319 38.9681C603.721 38.9681 603.147 38.7304 602.723 38.3072C602.3 37.8839 602.062 37.3099 602.062 36.7114" stroke="#79C9E7" stroke-width="0.378" stroke-linecap="round" stroke-linejoin="round"/>
<path d="M597.521 46.7539L594.188 47.5731" stroke="#07294A" stroke-width="0.378" stroke-linecap="round" stroke-linejoin="round"/>
<path d="M605.76 37.3525L604.319 37.7066" stroke="#07294A" stroke-width="0.378" stroke-linecap="round" stroke-linejoin="round"/>
<path d="M578.515 70.6346V105.472L627.867 117.602V78.8025C627.867 65.0449 618.475 53.0647 605.115 49.781H605.115C598.708 48.2063 591.932 49.6641 586.74 53.7348C581.548 57.8054 578.515 64.0369 578.515 70.6346V70.6346Z" fill="#79C9E7"/>
<path d="M619.841 107.445C619.841 107.445 625.913 206.54 608.765 253.458" stroke="#07294A" stroke-width="0.378" stroke-linecap="round" stroke-linejoin="round"/>
<path d="M597.201 30.7739C597.201 30.7739 595.347 37.5396 597.527 38.9682C599.708 40.3968 602.562 36.1018 607.131 38.4296C612.654 41.2434 610.142 31.7996 610.142 31.7996" stroke="#07294A" stroke-width="0.378" stroke-linecap="round" stroke-linejoin="round"/>
<path d="M595.239 37.0321C595.239 37.0321 592.569 45.2156 599.16 47.5733C605.752 49.931 614.327 46.1004 611.563 36.7114" stroke="#07294A" stroke-width="0.378" stroke-linecap="round" stroke-linejoin="round"/>
<path d="M596.224 30.7738C596.224 30.7738 601.13 32.5764 605.76 27.2129C605.76 27.2129 607.656 29.876 610.712 29.6974" stroke="#07294A" stroke-width="0.378" stroke-linecap="round" stroke-linejoin="round"/>
<path d="M611.192 32.2827C611.192 32.2827 614.619 20.8599 605.76 19.8677C596.901 18.8755 593.119 24.4158 591.56 28.6681C590.001 32.9205 592.011 37.3909 594.124 39.2663" stroke="#07294A" stroke-width="0.378" stroke-linecap="round" stroke-linejoin="round"/>
<path d="M586.569 53.8726C586.569 53.8726 561.192 77.2887 562.796 106.362C564.4 135.435 622.546 111.374 624.351 101.75C626.155 92.126 614.825 97.9406 614.825 97.9406C614.825 97.9406 615.927 93.4293 614.825 94.2313C613.722 95.0333 611.01 98.0409 611.01 98.0409L585.854 98.3417L591.006 84.1058" stroke="#07294A" stroke-width="0.378" stroke-linecap="round" stroke-linejoin="round"/>
<path d="M607.255 98.086C607.255 98.086 607.122 80.497 627.867 76.6874C627.867 76.6874 624.346 71.4494 626.403 69.557C627.641 68.4188 629.603 69.8694 630.97 71.2063C631.719 71.9368 632.898 71.9847 633.704 71.3174C634.482 70.6804 635.694 70.2262 637.484 70.8226C638.837 71.2738 639.366 72.021 639.498 72.7787C639.663 73.8952 640.694 74.6724 641.812 74.5244C643.312 74.305 644.651 74.5299 643.799 76.3866C642.145 79.9957 638.987 79.9957 638.987 79.9957C638.987 79.9957 660.943 126.088 615.528 120.26" stroke="#07294A" stroke-width="0.378" stroke-linecap="round" stroke-linejoin="round"/>
<path d="M643.099 109.561C643.099 109.561 644.251 124.508 636.581 129.32" stroke="#07294A" stroke-width="0.378" stroke-linecap="round" stroke-linejoin="round"/>
<path d="M507.789 188.305L504.773 249.513L509.684 258.634H479.846L476.431 181.974" fill="#DFEFFF"/>
<path d="M502.216 104.26L466.912 101.841L460.492 104.455L457.475 258.634H490.267L486.8 252.421L502.216 104.26Z" fill="#F0F8FF"/>
<path d="M459.215 169.763L494.967 173.922L492.484 197.792C483.442 199.494 471.264 200.798 458.638 199.24L459.215 169.763Z" fill="#07294A"/>
<path d="M507.51 193.965C507.51 193.965 494.402 198.643 477.221 199.719L476.431 181.974L507.788 188.305L507.51 193.965Z" fill="#07294A"/>
<path d="M490.267 258.634L486.8 252.421L502.216 104.259" stroke="#07294A" stroke-width="0.378" stroke-linecap="round" stroke-linejoin="round"/>
<path d="M494.786 30.1127V35.6853C494.786 39.9942 491.844 43.7465 487.66 44.7749L478.792 46.9545V25.1668L486.166 23.3545C488.242 22.8442 490.438 23.3166 492.121 24.6358C493.803 25.955 494.786 27.9745 494.786 30.1127V30.1127Z" fill="#F0F8FF"/>
<path d="M494.786 35.6855C494.786 39.9945 491.844 43.7467 487.66 44.7752L478.792 46.9547" stroke="#07294A" stroke-width="0.378" stroke-linecap="round" stroke-linejoin="round"/>
<path d="M485.751 34.5794C485.515 34.5794 485.324 34.3879 485.324 34.1518C485.324 33.9156 485.515 33.7241 485.751 33.7241C485.987 33.7241 486.179 33.9156 486.179 34.1518C486.179 34.3879 485.987 34.5794 485.751 34.5794Z" fill="#07294A"/>
<path d="M492.32 34.5794C492.083 34.5794 491.892 34.3879 491.892 34.1518C491.892 33.9156 492.083 33.7241 492.32 33.7241C492.556 33.7241 492.747 33.9156 492.747 34.1518C492.747 34.3879 492.556 34.5794 492.32 34.5794Z" fill="#07294A"/>
<path d="M490.393 36.703V30.1128H493.694" stroke="#07294A" stroke-width="0.378" stroke-linecap="round" stroke-linejoin="round"/>
<path d="M484.946 30.1127H488.247" stroke="#07294A" stroke-width="0.378" stroke-linecap="round" stroke-linejoin="round"/>
<path d="M479.846 33.4893V35.7779C478.611 35.7779 477.61 34.7771 477.61 33.5426C477.61 33.474 477.613 33.4062 477.62 33.3391C477.745 31.9511 479.846 32.0956 479.846 33.4893Z" fill="#F0F8FF"/>
<path d="M479.846 35.7778C478.611 35.7778 477.61 34.777 477.61 33.5425" stroke="#07294A" stroke-width="0.378" stroke-linecap="round" stroke-linejoin="round"/>
<path d="M488.588 37.4731C488.31 37.7507 487.933 37.9067 487.541 37.9067C487.148 37.9067 486.772 37.7507 486.494 37.4731" stroke="#79C9E7" stroke-width="0.378" stroke-linecap="round" stroke-linejoin="round"/>
<path d="M490.393 36.708L488.949 37.0629" stroke="#07294A" stroke-width="0.378" stroke-linecap="round" stroke-linejoin="round"/>
<path d="M460.208 70.0739V104.999L509.684 117.16V78.2624C509.684 64.4701 500.268 52.4597 486.874 49.1678H486.874C480.451 47.5891 473.659 49.0507 468.453 53.1315C463.248 57.2124 460.208 63.4596 460.208 70.0739V70.0739Z" fill="#79C9E7"/>
<path d="M495.125 33.1007C489.999 33.0253 486.789 26.8442 486.789 26.8442C486.789 26.8442 484.517 33.3504 479.394 32.5848" stroke="#07294A" stroke-width="0.378" stroke-linecap="round" stroke-linejoin="round"/>
<path d="M492.32 42.2215L502.361 47.5734C502.361 47.5734 502.962 15.5767 481.371 20.2608C481.303 20.2756 481.233 20.2888 481.165 20.3003C480.281 20.4484 473.237 21.8898 473.943 30.1126C474.387 35.2698 478.792 37.9064 478.792 37.9064" stroke="#07294A" stroke-width="0.378" stroke-linecap="round" stroke-linejoin="round"/>
<path d="M499.12 97.5945C499.12 97.5945 498.987 79.9611 519.784 76.1419C519.784 76.1419 516.254 70.8908 518.317 68.9936C519.558 67.8525 521.525 69.3068 522.895 70.6471C523.646 71.3794 524.828 71.4274 525.636 70.7584C526.416 70.1198 527.631 69.6645 529.425 70.2624C530.782 70.7147 531.312 71.4638 531.444 72.2234C531.61 73.3427 532.643 74.1219 533.765 73.9734C535.268 73.7535 536.61 73.979 535.757 75.8404C534.098 79.4586 530.933 79.4586 530.933 79.4586C530.933 79.4586 552.943 125.667 507.414 119.824" stroke="#07294A" stroke-width="0.378" stroke-linecap="round" stroke-linejoin="round"/>
<path d="M460.208 105L495.125 106.595L509.684 117.16V194.034C509.684 194.034 441.455 192.527 421.857 174.134L460.208 105Z" fill="#79C9E7"/>
<path d="M466.928 54.4487C466.928 54.4487 450.453 68.8476 452.724 94.0495C454.994 119.251 488.597 121.976 512.436 107.672C536.276 93.3684 512.436 96.32 512.436 96.32C512.436 96.32 512.436 93.1414 511.528 93.3684C510.62 93.5954 507.896 97.2281 507.896 97.2281L472.25 93.8225L477.61 79.0646" stroke="#07294A" stroke-width="0.378" stroke-linecap="round" stroke-linejoin="round"/>
<path d="M514.264 77.6313C514.264 77.6313 507.604 63.5186 501.364 57.5435" stroke="#07294A" stroke-width="0.378" stroke-linecap="round" stroke-linejoin="round"/>
<path d="M350.996 117.602C350.996 117.602 458.111 218.73 295.71 225.948L290.297 232.714L282.628 197.528L339.017 180.521L330.385 109.561" fill="#DFEFFF"/>
<path d="M347.68 209.472C347.68 196.949 344.208 185.737 338.735 178.207L339.017 180.521L299.103 192.559C296.158 203.433 296.103 214.887 298.941 225.789C318.976 224.72 334.763 222.179 347.055 218.554C347.474 215.545 347.682 212.51 347.68 209.472V209.472Z" fill="#07294A"/>
<path d="M342.971 107.445C342.971 107.445 349.042 206.54 331.894 253.458L335.476 258.721H304.976C304.976 258.721 301.644 132.677 301.644 105.472L342.971 107.445Z" fill="#F0F8FF"/>
<path d="M333.272 30.7735V43.6519L317.318 47.5732V25.8402L333.272 21.9189V30.7735Z" fill="#F0F8FF"/>
<path d="M324.259 35.2296C324.495 35.2296 324.686 35.0386 324.686 34.803C324.686 34.5674 324.495 34.3765 324.259 34.3765C324.024 34.3765 323.833 34.5674 323.833 34.803C323.833 35.0386 324.024 35.2296 324.259 35.2296Z" fill="#07294A"/>
<path d="M330.811 35.2296C331.047 35.2296 331.238 35.0386 331.238 34.803C331.238 34.5674 331.047 34.3765 330.811 34.3765C330.576 34.3765 330.385 34.5674 330.385 34.803C330.385 35.0386 330.576 35.2296 330.811 35.2296Z" fill="#07294A"/>
<path d="M328.889 37.3474V30.7734H332.182" stroke="#07294A" stroke-width="0.378" stroke-linecap="round" stroke-linejoin="round"/>
<path d="M323.456 30.7739H326.749" stroke="#07294A" stroke-width="0.378" stroke-linecap="round" stroke-linejoin="round"/>
<path d="M332.695 29.6973H332.695" stroke="#07294A" stroke-width="0.378" stroke-linecap="round" stroke-linejoin="round"/>
<path d="M318.369 34.1423V36.4251C317.137 36.4251 316.139 35.4268 316.139 34.1954C316.139 34.127 316.142 34.0594 316.148 33.9925C316.273 32.6079 318.369 32.7521 318.369 34.1423Z" fill="#F0F8FF"/>
<path d="M318.369 36.425C317.137 36.425 316.139 35.4267 316.139 34.1953" stroke="#07294A" stroke-width="0.378" stroke-linecap="round" stroke-linejoin="round"/>
<path d="M327.449 38.9681C326.85 38.9681 326.276 38.7304 325.853 38.3072C325.43 37.8839 325.192 37.3099 325.192 36.7114" stroke="#79C9E7" stroke-width="0.378" stroke-linecap="round" stroke-linejoin="round"/>
<path d="M320.651 46.7539L317.318 47.5731" stroke="#07294A" stroke-width="0.378" stroke-linecap="round" stroke-linejoin="round"/>
<path d="M328.889 37.3525L327.449 37.7066" stroke="#07294A" stroke-width="0.378" stroke-linecap="round" stroke-linejoin="round"/>
<path d="M301.644 70.6346V105.472L350.996 117.602V78.8025C350.996 65.0449 341.604 53.0647 328.244 49.781H328.244C321.837 48.2063 315.062 49.6641 309.869 53.7348C304.677 57.8054 301.644 64.0369 301.644 70.6346V70.6346Z" fill="#79C9E7"/>
<path d="M342.971 107.445C342.971 107.445 349.042 206.54 331.894 253.458" stroke="#07294A" stroke-width="0.378" stroke-linecap="round" stroke-linejoin="round"/>
<path d="M320.331 30.7739C320.331 30.7739 318.476 37.5396 320.657 38.9682C322.837 40.3968 325.692 36.1018 330.261 38.4296C335.784 41.2434 333.272 31.7996 333.272 31.7996" stroke="#07294A" stroke-width="0.378" stroke-linecap="round" stroke-linejoin="round"/>
<path d="M318.369 37.0321C318.369 37.0321 315.699 45.2156 322.29 47.5733C328.881 49.931 337.457 46.1004 334.693 36.7114" stroke="#07294A" stroke-width="0.378" stroke-linecap="round" stroke-linejoin="round"/>
<path d="M319.353 30.7738C319.353 30.7738 324.259 32.5764 328.889 27.2129C328.889 27.2129 330.786 29.876 333.842 29.6974" stroke="#07294A" stroke-width="0.378" stroke-linecap="round" stroke-linejoin="round"/>
<path d="M334.321 32.2827C334.321 32.2827 337.748 20.8599 328.889 19.8677C320.03 18.8755 316.249 24.4158 314.689 28.6681C313.13 32.9205 315.14 37.3909 317.254 39.2663" stroke="#07294A" stroke-width="0.378" stroke-linecap="round" stroke-linejoin="round"/>
<path d="M309.698 53.8726C309.698 53.8726 284.321 77.2887 285.925 106.362C287.529 135.435 345.675 111.374 347.48 101.75C349.284 92.126 337.954 97.9406 337.954 97.9406C337.954 97.9406 339.057 93.4293 337.954 94.2313C336.851 95.0333 334.14 98.0409 334.14 98.0409L308.983 98.3417L314.135 84.1058" stroke="#07294A" stroke-width="0.378" stroke-linecap="round" stroke-linejoin="round"/>
<path d="M330.385 98.086C330.385 98.086 330.252 80.497 350.996 76.6874C350.996 76.6874 347.475 71.4494 349.533 69.557C350.77 68.4188 352.732 69.8694 354.1 71.2063C354.848 71.9368 356.028 71.9847 356.833 71.3174C357.611 70.6804 358.824 70.2262 360.613 70.8226C361.966 71.2738 362.495 72.021 362.627 72.7787C362.792 73.8952 363.823 74.6724 364.942 74.5244C366.442 74.305 367.78 74.5299 366.929 76.3866C365.275 79.9957 362.117 79.9957 362.117 79.9957C362.117 79.9957 384.072 126.088 338.658 120.26" stroke="#07294A" stroke-width="0.378" stroke-linecap="round" stroke-linejoin="round"/>
<path d="M366.228 109.561C366.228 109.561 367.38 124.508 359.711 129.32" stroke="#07294A" stroke-width="0.378" stroke-linecap="round" stroke-linejoin="round"/>
</g>
<defs>
<linearGradient id="paint0_linear_994_61724" x1="34.8137" y1="100" x2="1165.18" y2="100" gradientUnits="userSpaceOnUse">
<stop stop-color="#FFF2C5"/>
<stop offset="0.2" stop-color="#FFF4BF"/>
<stop offset="0.4" stop-color="#FFF7BA"/>
<stop offset="0.6" stop-color="#FFF9B4"/>
<stop offset="0.8" stop-color="#FFFCAF"/>
<stop offset="1" stop-color="#FDFFAA"/>
</linearGradient>
<clipPath id="clip0_994_61724">
<rect width="1200" height="200" fill="white"/>
</clipPath>
</defs>
</svg>
