<svg width="1026" height="171" viewBox="0 0 1026 171" fill="none" xmlns="http://www.w3.org/2000/svg">
<g clip-path="url(#clip0_1039_20722)">
<g opacity="0.5">
<path fill-rule="evenodd" clip-rule="evenodd" d="M214.108 25.9698C214.108 13.3448 224.343 3.11023 236.968 3.11023H454.076C466.701 3.11023 476.935 13.3448 476.935 25.9698V42.7967C476.935 51.2134 483.758 58.0365 492.175 58.0365H626.003C626.246 58.0365 626.488 58.0403 626.73 58.0478C636.03 58.3382 647.613 58.1549 655.612 53.4012C662.577 49.2617 670.702 46.8816 679.334 46.8816C700.897 46.8816 719.301 61.7352 724.346 81.7688C724.898 83.9613 726.931 85.4999 729.192 85.4999V85.4999C732.406 85.4999 735.528 85.9354 738.497 86.7507C739.322 86.9769 740.154 86.3547 740.154 85.4999V85.4999C740.154 54.7298 765.331 29.7857 796.389 29.7857C827.447 29.7857 852.624 54.7298 852.624 85.4999C852.624 116.27 827.447 141.214 796.389 141.214C791.506 141.214 786.768 140.597 782.25 139.438C772.053 136.822 759.11 141.265 750.793 147.719C744.81 152.361 737.295 155.13 729.192 155.13C720.449 155.13 712.392 151.907 706.204 146.585C700.029 141.274 691.452 137.909 683.337 138.608C682.017 138.722 680.681 138.78 679.334 138.78C673.987 138.78 668.835 137.867 664.032 136.188C657.516 133.91 648.863 138.127 648.863 145.03V145.03C648.863 157.655 638.628 167.89 626.003 167.89H417.128C404.503 167.89 394.269 157.655 394.269 145.03V128.203C394.269 119.787 387.446 112.963 379.029 112.963H276.084C269.179 112.963 263.352 117.758 259.994 123.791C251.767 138.573 235.884 148.587 217.641 148.587C200.38 148.587 185.232 139.622 176.682 126.136C171.262 117.586 156.061 110.853 145.938 110.853V110.853V110.853C133.79 110.853 112.647 116.422 100.656 118.366C99.3995 118.57 98.1124 118.675 96.8029 118.675C83.6705 118.675 72.8022 108.03 72.8022 94.8971C72.8022 81.7647 83.6705 71.1188 96.8029 71.1188V71.1188C103.104 71.1188 111.449 66.8609 114.178 61.1817C119.847 49.3847 132.024 41.2229 145.938 41.2229C153.568 41.2229 160.676 43.6774 166.475 47.8399C175.165 54.0782 192.158 58.6359 202.314 55.2741V55.2741C208.602 53.1925 214.108 47.8107 214.108 41.1868V25.9698ZM51.4055 35.9458C39.5649 35.9458 29.7656 45.5445 29.7656 57.3852C29.7656 69.2259 39.5649 78.8247 51.4055 78.8247C63.2462 78.8247 73.0455 69.2259 73.0455 57.3852C73.0455 45.5445 63.2462 35.9458 51.4055 35.9458ZM264.367 139.82C264.367 127.979 274.166 118.381 286.006 118.381C297.847 118.381 307.646 127.979 307.646 139.82C307.646 151.661 297.847 161.259 286.006 161.259C274.166 161.259 264.367 151.661 264.367 139.82ZM970.071 75.8826C984.518 75.8826 996.23 64.2789 996.23 49.9651C996.23 35.6513 984.518 24.0476 970.071 24.0476C955.623 24.0476 943.911 35.6513 943.911 49.9651C943.911 52.5953 944.306 55.134 945.041 57.526C945.632 59.447 943.579 61.9664 941.57 61.9664V61.9664C932.34 61.9664 924.857 69.3794 924.857 78.5237C924.857 87.6681 932.34 95.0811 941.57 95.0811C950.8 95.0811 958.282 87.6681 958.282 78.5237V78.5237C958.282 76.4647 960.837 74.3085 962.817 74.8734C965.121 75.5305 967.554 75.8826 970.071 75.8826ZM893.407 126.679C893.407 125.322 891.542 124.158 890.369 124.842C886.482 127.11 881.952 128.411 877.114 128.411C862.667 128.411 850.954 116.807 850.954 102.493C850.954 88.1793 862.667 76.5757 877.114 76.5757C891.562 76.5757 903.274 88.1793 903.274 102.493C903.274 102.846 903.267 103.197 903.253 103.546C903.137 106.416 907.247 110.122 910.119 110.122V110.122C919.349 110.122 926.831 117.535 926.831 126.679C926.831 135.824 919.349 143.237 910.119 143.237C900.889 143.237 893.407 135.824 893.407 126.679V126.679ZM495.149 53.9693C502.915 53.9693 509.211 47.7315 509.211 40.0369C509.211 32.3423 502.915 26.1046 495.149 26.1046C487.382 26.1046 481.086 32.3423 481.086 40.0369C481.086 47.7315 487.382 53.9693 495.149 53.9693Z" fill="#F6F6F6"/>
</g>
<path d="M359.535 150.751C395.524 150.751 424.699 121.576 424.699 85.5868C424.699 49.5978 395.524 20.423 359.535 20.423C323.546 20.423 294.371 49.5978 294.371 85.5868C294.371 121.576 323.546 150.751 359.535 150.751Z" fill="white"/>
<path d="M359.537 18.722V152.452" stroke="#07294A" stroke-width="0.522381" stroke-linecap="round" stroke-linejoin="round"/>
<path d="M426.401 85.5867H292.672" stroke="#07294A" stroke-width="0.522381" stroke-linecap="round" stroke-linejoin="round"/>
<path d="M294.371 85.5868C294.371 49.5978 323.546 20.423 359.535 20.423" stroke="#07294A" stroke-width="0.522381" stroke-linecap="round" stroke-linejoin="round"/>
<rect width="82.8674" height="88.9984" transform="matrix(-1 0 0 1 593.344 8.85034)" fill="#F0F8FF"/>
<path d="M510.477 8.85022V97.8486H593.344" stroke="#07294A" stroke-width="0.385215"/>
<rect width="37.2743" height="6.56402" transform="matrix(-1 0 0 1 570.547 6.02881)" fill="#79C9E7"/>
<path d="M551.909 8.70728C550.512 8.70728 549.38 7.57512 549.38 6.17853C549.38 4.78194 550.512 3.64978 551.909 3.64978C553.305 3.64978 554.438 4.78194 554.438 6.17853C554.438 7.57512 553.305 8.70728 551.909 8.70728Z" fill="#79C9E7"/>
<rect width="37.2743" height="6.56402" transform="matrix(-1 0 0 1 570.547 6.02881)" fill="#79C9E7"/>
<path d="M533.273 6.02869V12.5927H570.547" stroke="#07294A" stroke-width="0.385215"/>
<path d="M551.909 8.70728C550.512 8.70728 549.38 7.57512 549.38 6.17853C549.38 4.78194 550.512 3.64978 551.909 3.64978C553.305 3.64978 554.438 4.78194 554.438 6.17853C554.438 7.57512 553.305 8.70728 551.909 8.70728Z" fill="#79C9E7"/>
<path d="M551.913 97.8486V168.45" stroke="#07294A" stroke-width="0.385215"/>
<path d="M596.762 168.45H507.06" stroke="#07294A" stroke-width="0.385215"/>
<path d="M437.813 164.875V159.439L442.831 164.039L444.504 149.613L457.675 159.021L459.347 152.749L463.946 157.348V149.822L469.591 156.512L474.609 141.46L480.881 156.941L490.079 145.432L496.979 161.112V153.585L500.951 160.903L503.669 151.077L511.195 162.784L522.694 148.359L526.248 162.575L529.593 158.603L532.102 168.45H435.514L434.678 164.666L437.813 164.875V164.875Z" fill="#F6F6F6"/>
<path d="M537.547 168.45H429.233" stroke="#07294A" stroke-width="0.385215"/>
<path d="M462.924 68.0321L486.735 66.4666L492.901 90.7876L507.059 167.962H487.789L490.033 163.94L462.924 68.0321V68.0321Z" fill="#F0F8FF"/>
<path d="M459.825 163.704L458.654 119.79L477.391 123.303L473.04 167.962H457.027L459.825 163.704V163.704Z" fill="#DFEFFF"/>
<path d="M465.568 121.086L477.391 123.303L476.869 128.66C467.031 127.332 460.255 124.69 460.255 124.69L465.568 121.086Z" fill="#07294A"/>
<path d="M489.058 105.151C489.058 105.151 492.039 106.071 495.983 107.571L499.793 128.339C492.848 129.606 486.084 129.602 480.171 129.039L475.936 114.055L489.058 105.151Z" fill="#07294A"/>
<path d="M489.059 68.5114L512.508 117.135C512.508 117.135 484.697 131.773 457.032 123.868V73.5156L489.059 68.5114Z" fill="#79C9E7"/>
<path d="M480.332 20.0357V23.6429C480.332 26.4322 478.428 28.8611 475.719 29.5268L469.979 30.9377V16.8341L474.752 15.661C476.096 15.3307 477.517 15.6365 478.607 16.4904C479.696 17.3444 480.332 18.6516 480.332 20.0357L480.332 20.0357Z" fill="#F0F8FF"/>
<path d="M480.332 23.6428C480.332 26.4321 478.428 28.861 475.719 29.5267L469.979 30.9376" stroke="#07294A" stroke-width="0.385215"/>
<path d="M474.485 22.9271C474.332 22.9271 474.208 22.8031 474.208 22.6502C474.208 22.4973 474.332 22.3734 474.485 22.3734C474.638 22.3734 474.762 22.4973 474.762 22.6502C474.762 22.8031 474.638 22.9271 474.485 22.9271Z" fill="#07294A"/>
<path d="M478.735 22.9271C478.582 22.9271 478.458 22.8031 478.458 22.6502C478.458 22.4973 478.582 22.3734 478.735 22.3734C478.888 22.3734 479.012 22.4973 479.012 22.6502C479.012 22.8031 478.888 22.9271 478.735 22.9271Z" fill="#07294A"/>
<path d="M477.488 24.3017V20.0356H479.625" stroke="#07294A" stroke-width="0.385215"/>
<path d="M473.964 20.0357H476.102" stroke="#07294A" stroke-width="0.385215"/>
<path d="M470.664 22.2215V23.7029C470.28 23.7029 469.912 23.5505 469.641 23.2791C469.37 23.0078 469.217 22.6397 469.217 22.256C469.217 22.2116 469.219 22.1677 469.223 22.1243C469.304 21.2258 470.664 21.3193 470.664 22.2215Z" fill="#F0F8FF"/>
<path d="M470.664 23.7029C470.28 23.7029 469.912 23.5505 469.641 23.2791C469.37 23.0078 469.217 22.6397 469.217 22.256" stroke="#07294A" stroke-width="0.385215"/>
<path d="M476.32 24.8002C475.946 25.1743 475.339 25.1743 474.965 24.8002" stroke="#79C9E7" stroke-width="0.385215" stroke-linecap="round" stroke-linejoin="round"/>
<path d="M477.488 24.3051L476.554 24.5348" stroke="#07294A" stroke-width="0.385215" stroke-linecap="round"/>
<path d="M478.457 28.7401L478.622 28.815C479.686 29.3008 480.926 29.2016 481.9 28.5527C482.874 27.9038 483.443 26.7975 483.404 25.628C483.217 20.2467 481.951 12.7809 476.318 13.3152C476.318 13.3152 470.596 12.0038 468.303 17.2736C466.009 22.5433 468.823 25.0806 469.978 25.6661" stroke="#07294A" stroke-width="0.385215"/>
<path d="M480.457 21.4957C480.457 21.4957 476.136 20.7379 475.645 17.8428C475.645 17.8428 473.505 21.4285 470.518 21.7744" stroke="#07294A" stroke-width="0.385215"/>
<path d="M489.059 45.9033V68.5111L457.032 76.3828V51.2039C457.032 42.2759 463.127 34.5013 471.797 32.3704H471.797C475.955 31.3485 480.351 32.2946 483.721 34.9362C487.09 37.5778 489.059 41.6218 489.059 45.9033L489.059 45.9033Z" fill="#F0F8FF"/>
<path d="M512.508 117.135C512.508 117.135 484.697 131.772 457.032 123.868" stroke="#07294A" stroke-width="0.385215"/>
<path d="M465.625 35.0936C465.625 35.0936 449.932 46.0667 449.874 62.4078C449.788 86.1542 486.669 64.7499 487.863 60.8464L489.056 56.9429C489.056 56.9429 493.983 54.9139 492.812 54.1718C491.641 53.4297 457.03 60.7814 457.03 60.7814" stroke="#07294A" stroke-width="0.385215"/>
<path d="M483.409 35.0936C483.409 35.0936 492.423 41.524 496.132 58.3091C496.132 58.3091 502.182 49.927 504.329 46.7014C506.476 43.4758 508.232 45.6227 508.232 45.6227C508.232 45.6227 510.731 41.9144 512.507 43.4758C514.283 45.0372 509.533 71.8151 492.195 75.0161" stroke="#07294A" stroke-width="0.385215"/>
<path d="M490.716 56.2142L527.031 38.3363" stroke="#07294A" stroke-width="0.385215"/>
<rect width="42.314" height="42.314" transform="matrix(-1 0 0 1 582.879 23.2675)" fill="#79C9E7"/>
<path d="M568.559 44.4244C568.559 48.202 565.497 51.2643 561.719 51.2643C557.941 51.2643 554.879 48.202 554.879 44.4244C554.879 40.6467 557.941 37.5844 561.719 37.5844C565.497 37.5844 568.559 40.6467 568.559 44.4244ZM560.685 41.939C560.555 41.8459 560.383 41.8335 560.241 41.9067C560.098 41.98 560.009 42.1267 560.009 42.2869V46.5619C560.009 46.722 560.098 46.8687 560.241 46.942C560.383 47.0152 560.555 47.0028 560.685 46.9097L563.677 44.7722C563.79 44.692 563.856 44.5624 563.856 44.4244C563.856 44.2863 563.79 44.1567 563.677 44.0765L560.685 41.939Z" fill="white"/>
</g>
<defs>
<clipPath id="clip0_1039_20722">
<rect width="1026" height="171" fill="white"/>
</clipPath>
</defs>
</svg>
