<svg width="1200" height="200" viewBox="0 0 1200 200" fill="none" xmlns="http://www.w3.org/2000/svg">
<g clip-path="url(#clip0_928_55593)">
<path d="M153.55 53.9019V116.646H2.84326" stroke="#07294A" stroke-width="0.610972" stroke-linecap="round" stroke-linejoin="round"/>
<path d="M184.516 174.908V61.2332" stroke="#07294A" stroke-width="0.610972" stroke-linecap="round" stroke-linejoin="round"/>
<path d="M-75.4551 174.908H231.848" stroke="#07294A" stroke-width="0.610972" stroke-linecap="round" stroke-linejoin="round"/>
<path d="M78.1966 -20.6331V116.646" stroke="#07294A" stroke-width="0.610972" stroke-linecap="round" stroke-linejoin="round"/>
<path d="M78.1965 48.0061H155.26" stroke="#07294A" stroke-width="0.610972" stroke-linecap="round" stroke-linejoin="round"/>
<rect x="11.5422" y="77.5464" width="5.75775" height="39.0694" fill="#F0F8FF"/>
<path d="M17.3 116.616H11.5422V77.5464" stroke="#07294A" stroke-width="0.610972" stroke-linecap="round" stroke-linejoin="round"/>
<path d="M13.05 84.8553H17.3" stroke="#07294A" stroke-width="0.610972" stroke-linecap="round" stroke-linejoin="round"/>
<path d="M13.05 86.4288H17.3" stroke="#07294A" stroke-width="0.610972" stroke-linecap="round" stroke-linejoin="round"/>
<path d="M13.05 88.0022H17.3" stroke="#07294A" stroke-width="0.610972" stroke-linecap="round" stroke-linejoin="round"/>
<rect x="18.6282" y="77.5464" width="5.75775" height="39.0694" fill="#D1D1D1"/>
<path d="M24.3857 116.616H18.6279V77.5464" stroke="#07294A" stroke-width="0.610972" stroke-linecap="round" stroke-linejoin="round"/>
<path d="M20.136 84.8553H24.3859" stroke="#07294A" stroke-width="0.610972" stroke-linecap="round" stroke-linejoin="round"/>
<path d="M20.136 86.4288H24.3859" stroke="#07294A" stroke-width="0.610972" stroke-linecap="round" stroke-linejoin="round"/>
<path d="M20.136 88.0022H24.3859" stroke="#07294A" stroke-width="0.610972" stroke-linecap="round" stroke-linejoin="round"/>
<rect x="25.7141" y="77.5464" width="5.75775" height="39.0694" fill="#F0F8FF"/>
<path d="M31.4719 116.616H25.7141V77.5464" stroke="#07294A" stroke-width="0.610972" stroke-linecap="round" stroke-linejoin="round"/>
<path d="M27.2219 84.8553H31.4718" stroke="#07294A" stroke-width="0.610972" stroke-linecap="round" stroke-linejoin="round"/>
<path d="M27.2219 86.4288H31.4718" stroke="#07294A" stroke-width="0.610972" stroke-linecap="round" stroke-linejoin="round"/>
<path d="M27.2219 88.0022H31.4718" stroke="#07294A" stroke-width="0.610972" stroke-linecap="round" stroke-linejoin="round"/>
<rect x="32.8" y="77.5464" width="5.75775" height="39.0694" fill="#D1D1D1"/>
<path d="M38.5578 116.616H32.8V77.5464" stroke="#07294A" stroke-width="0.610972" stroke-linecap="round" stroke-linejoin="round"/>
<path d="M34.3079 84.8553H38.5578" stroke="#07294A" stroke-width="0.610972" stroke-linecap="round" stroke-linejoin="round"/>
<path d="M34.3079 86.4288H38.5578" stroke="#07294A" stroke-width="0.610972" stroke-linecap="round" stroke-linejoin="round"/>
<path d="M34.3079 88.0022H38.5578" stroke="#07294A" stroke-width="0.610972" stroke-linecap="round" stroke-linejoin="round"/>
<rect x="39.886" y="77.5464" width="5.75775" height="39.0694" fill="#F0F8FF"/>
<path d="M45.6436 116.616H39.8862V77.5464" stroke="#07294A" stroke-width="0.610972" stroke-linecap="round" stroke-linejoin="round"/>
<path d="M41.3938 84.8553H45.6437" stroke="#07294A" stroke-width="0.610972" stroke-linecap="round" stroke-linejoin="round"/>
<path d="M41.3938 86.4288H45.6437" stroke="#07294A" stroke-width="0.610972" stroke-linecap="round" stroke-linejoin="round"/>
<path d="M41.3938 88.0022H45.6437" stroke="#07294A" stroke-width="0.610972" stroke-linecap="round" stroke-linejoin="round"/>
<rect x="46.3879" y="79.1182" width="5.75775" height="39.0694" transform="rotate(-16.1509 46.3879 79.1182)" fill="#D1D1D1"/>
<path d="M62.7867 115.044L57.2561 116.646L46.3882 79.1182" stroke="#07294A" stroke-width="0.610972" stroke-linecap="round" stroke-linejoin="round"/>
<path d="M49.8694 85.7193L53.9516 84.5371" stroke="#07294A" stroke-width="0.610972" stroke-linecap="round" stroke-linejoin="round"/>
<path d="M50.3071 87.2305L54.3893 86.0483" stroke="#07294A" stroke-width="0.610972" stroke-linecap="round" stroke-linejoin="round"/>
<path d="M50.7449 88.7418L54.8271 87.5596" stroke="#07294A" stroke-width="0.610972" stroke-linecap="round" stroke-linejoin="round"/>
<path fill-rule="evenodd" clip-rule="evenodd" d="M1092.54 108.521C1092.05 109.378 1090.81 109.378 1090.32 108.521L1054.19 45.9551C1044.79 29.6595 1021.27 29.6595 1011.86 45.9552L999.655 67.0907C995.288 74.6535 987.219 79.3125 978.486 79.3125L824.644 79.3124C809.775 79.3124 800.482 95.4086 807.917 108.286V108.286C811.367 114.262 811.367 121.625 807.917 127.601L794.569 150.72C786.184 165.244 765.22 165.244 756.834 150.72L753.625 145.162C746.666 133.108 729.268 133.108 722.309 145.162V145.162C715.35 157.215 697.952 157.215 690.992 145.162L674.142 115.976C664.734 99.6802 641.213 99.6802 631.805 115.976L616.2 143.004C606.791 159.3 583.271 159.3 573.862 143.004L570.42 137.041C562.145 122.709 541.458 122.709 533.183 137.041V137.041C524.908 151.374 504.221 151.374 495.946 137.041L495.026 135.449C486.343 120.409 464.634 120.409 455.951 135.449L434.387 172.798C430.021 180.361 421.951 185.02 413.218 185.02L362.682 185.02C353.949 185.02 345.88 180.361 341.513 172.798L298.111 97.6238C288.703 81.3281 265.182 81.3281 255.774 97.6238L247.536 111.893C238.127 128.188 214.607 128.188 205.198 111.893L189.836 85.2849C180.428 68.9892 156.907 68.9893 147.499 85.2849L118.062 136.271C108.654 152.567 120.414 172.937 139.231 172.937H183.824C196.476 172.937 204.384 186.633 198.058 197.591V197.591C191.732 208.548 199.64 222.245 212.292 222.245H334.322C343.054 222.245 351.124 226.904 355.49 234.467L362.001 245.744C371.41 262.04 394.93 262.04 404.339 245.744L415.35 226.672C415.617 226.21 416.109 225.926 416.642 225.926V225.926C417.791 225.926 418.508 227.169 417.934 228.164L411.471 239.359C408.024 245.329 412.332 252.792 419.226 252.792H531.752C538.646 252.792 542.955 245.329 539.508 239.359L535.63 232.642C533.907 229.657 536.061 225.926 539.508 225.926V225.926C542.954 225.926 545.109 222.194 543.385 219.209L541.22 215.459C538.534 210.807 541.891 204.992 547.263 204.992H608.863C609.213 204.992 609.432 204.613 609.257 204.31V204.31C609.082 204.006 609.301 203.628 609.651 203.628H666.193C676.131 203.628 682.342 214.386 677.373 222.993V222.993C672.404 231.599 678.615 242.358 688.554 242.358H792.721C800.286 242.358 805.014 234.169 801.231 227.617V227.617C797.449 221.066 802.177 212.877 809.742 212.877H854.19C862.923 212.877 870.992 217.536 875.359 225.099L882.374 237.25C891.783 253.546 915.304 253.546 924.712 237.25L977.494 145.829C981.861 138.266 989.93 133.607 998.663 133.607H1035.72C1054.54 133.607 1066.3 153.976 1056.89 170.272L1043.05 194.244C1033.64 210.54 1045.4 230.909 1064.22 230.909H1123.09C1141.91 230.909 1153.67 210.54 1144.26 194.244L1094.77 108.521C1094.28 107.664 1093.04 107.664 1092.54 108.521V108.521ZM1254.97 149.344C1264.38 133.048 1287.9 133.048 1297.31 149.344L1312.82 176.212C1322.23 192.508 1310.47 212.877 1291.65 212.877H1260.63C1241.81 212.877 1230.05 192.508 1239.46 176.212L1254.97 149.344ZM1204.82 189.017C1195.41 205.313 1171.89 205.313 1162.48 189.017L1133.04 138.03C1123.63 121.735 1135.39 101.365 1154.21 101.365L1213.09 101.365C1231.9 101.365 1243.66 121.735 1234.25 138.03L1204.82 189.017ZM-84.3205 252.792C-65.5039 252.792 -53.7435 232.422 -63.1518 216.127L-92.5888 165.14C-101.997 148.845 -125.518 148.845 -134.926 165.14L-164.363 216.127C-173.772 232.422 -162.011 252.792 -143.195 252.792H-84.3205ZM47.0588 237.25C37.6505 253.545 14.1297 253.545 4.72143 237.25L-56.4504 131.297C-65.8587 115.001 -54.0983 94.6317 -35.2817 94.6317L87.062 94.6317C105.879 94.6318 117.639 115.001 108.231 131.297L47.0588 237.25Z" fill="url(#paint0_linear_928_55593)"/>
<rect width="59.9418" height="108.219" transform="matrix(-1 0 0 1 194.448 1.5918)" fill="#F0F8FF"/>
<path d="M164.477 0.894775V110.508" stroke="#07294A" stroke-width="0.566885"/>
<path d="M194.448 109.811V1.59155H134.507" stroke="#07294A" stroke-width="0.566885"/>
<path d="M128.725 37.3919H200.23" stroke="#07294A" stroke-width="0.566885"/>
<path d="M128.725 74.0108H200.23" stroke="#07294A" stroke-width="0.566885"/>
<rect width="59.9418" height="108.219" transform="matrix(-1 0 0 1 345.293 1.5918)" fill="#F0F8FF"/>
<path d="M315.322 0.894775V110.508" stroke="#07294A" stroke-width="0.566885"/>
<path d="M345.293 109.811V1.59155H285.351" stroke="#07294A" stroke-width="0.566885"/>
<path d="M279.57 37.3919H351.074" stroke="#07294A" stroke-width="0.566885"/>
<path d="M279.57 74.0108H351.074" stroke="#07294A" stroke-width="0.566885"/>
<path d="M255.574 185.692V242.275L259.307 250.317H233.706L225.415 171.044L255.574 185.692V185.692Z" fill="#DFEFFF"/>
<path d="M249.885 103.26L210.14 100.956V144.045V250.317H237.008L233.706 244.398L249.885 103.26V103.26Z" fill="#F0F8FF"/>
<path d="M247.938 32.628V37.9364C247.938 42.0411 245.136 45.6155 241.149 46.5952L232.702 48.6714V27.9166L239.726 26.1902C241.704 25.7041 243.796 26.1541 245.399 27.4108C247.001 28.6675 247.938 30.5912 247.938 32.628H247.938Z" fill="#F0F8FF"/>
<path d="M247.938 37.9365C247.938 42.0412 245.136 45.6156 241.149 46.5953L232.702 48.6715" stroke="#07294A" stroke-width="0.566885"/>
<path d="M239.331 36.8833C239.106 36.8833 238.924 36.701 238.924 36.476C238.924 36.251 239.106 36.0686 239.331 36.0686C239.556 36.0686 239.739 36.251 239.739 36.476C239.739 36.701 239.556 36.8833 239.331 36.8833Z" fill="#07294A"/>
<path d="M245.588 36.8833C245.363 36.8833 245.181 36.701 245.181 36.476C245.181 36.251 245.363 36.0686 245.588 36.0686C245.813 36.0686 245.995 36.251 245.995 36.476C245.995 36.701 245.813 36.8833 245.588 36.8833Z" fill="#07294A"/>
<path d="M243.753 38.9061V32.6282H246.898" stroke="#07294A" stroke-width="0.566885"/>
<path d="M238.564 32.6282H241.709" stroke="#07294A" stroke-width="0.566885"/>
<path d="M233.705 35.8449V38.025C233.141 38.025 232.599 37.8006 232.2 37.4013C231.8 37.002 231.576 36.4604 231.576 35.8956C231.576 35.8303 231.579 35.7657 231.585 35.7018C231.704 34.3796 233.705 34.5172 233.705 35.8449Z" fill="#F0F8FF"/>
<path d="M233.705 38.0248C233.141 38.0248 232.599 37.8005 232.2 37.4012C231.8 37.0018 231.576 36.4602 231.576 35.8955" stroke="#07294A" stroke-width="0.566885"/>
<path d="M242.033 39.6394C241.482 40.19 240.589 40.19 240.039 39.6394" stroke="#79C9E7" stroke-width="0.566885" stroke-linecap="round" stroke-linejoin="round"/>
<path d="M243.752 38.9111L242.377 39.2492" stroke="#07294A" stroke-width="0.566885" stroke-linecap="round"/>
<path d="M247.633 30.6341C247.633 30.6341 247.399 27.146 244.239 27.3614C241.08 27.5768 236.556 27.2896 236.197 30.1618C235.838 33.034 234.732 35.3318 233.705 35.3318" stroke="#07294A" stroke-width="0.566885"/>
<path d="M247.938 34.7767C247.938 34.7767 259.124 14.5083 239.331 13.0722C219.538 11.6361 210.224 37.869 232.641 41.8901" stroke="#07294A" stroke-width="0.566885"/>
<path d="M232.169 39.5612C232.169 40.4097 232.857 41.0976 233.705 41.0976C234.554 41.0976 235.242 40.4097 235.242 39.5612C235.242 38.7127 234.554 38.0249 233.705 38.0249" stroke="#79C9E7" stroke-width="0.566885" stroke-linecap="round" stroke-linejoin="round"/>
<path d="M247.937 40.7396C248.458 41.175 249.202 41.2175 249.769 40.8441C250.335 40.4707 250.59 39.7699 250.395 39.1199C250.2 38.47 249.602 38.0249 248.923 38.0249" stroke="#79C9E7" stroke-width="0.566885" stroke-linecap="round" stroke-linejoin="round"/>
<path d="M210.14 70.6953V103.965L257.271 115.549V78.4956C257.271 65.3571 248.301 53.916 235.543 50.7801H235.543C229.424 49.2763 222.954 50.6686 217.995 54.556C213.036 58.4434 210.14 64.3945 210.14 70.6952L210.14 70.6953Z" fill="#F0F8FF"/>
<path d="M210.14 103.965L257.271 115.549V188.422L185.642 177.141L210.14 103.965V103.965Z" fill="#79C9E7"/>
<path d="M237.008 250.317L233.706 244.398L242.808 164.998" stroke="#07294A" stroke-width="0.566885"/>
<path d="M216.899 55.4802C216.899 55.4802 194.395 74.9207 209.14 102.111C223.884 129.301 271.371 90.4307 271.945 87.367C272.52 84.3033 267.541 83.5374 263.329 85.8351C263.329 85.8351 263.903 82.6997 261.605 83.5972C259.308 84.4948 258.159 87.1755 258.159 87.1755L225.798 88.5159L230.013 70.7081" stroke="#07294A" stroke-width="0.566885"/>
<path d="M247.387 87.6218L261.605 50.1777L294.157 59.0278L274.052 103.965L256.063 100.32" stroke="#07294A" stroke-width="0.566885"/>
<path d="M250.876 103.446V103.446C250.876 103.446 232.719 126.996 205.874 116.708L210.228 103.913C218.969 116.92 236.664 111.462 250.876 103.446Z" fill="#07294A"/>
<path d="M247.633 57.1113L256.086 64.714" stroke="#07294A" stroke-width="0.566885"/>
<path d="M286.447 76.2598C286.447 76.2598 291.764 96.2229 279.126 104.696C266.488 113.169 257.271 106.85 257.271 106.85" stroke="#07294A" stroke-width="0.566885"/>
<path d="M153.203 188.453V146.493C153.203 141.639 154.626 136.89 157.295 132.835V132.835C161.226 126.863 167.321 122.648 174.297 121.079L174.715 120.985C174.715 120.985 175.844 137.922 157.495 140.181" stroke="#07294A" stroke-width="0.566885"/>
<path d="M153.203 194.098V152.139C153.203 147.284 151.781 142.536 149.111 138.481V138.481C145.18 132.508 139.085 128.294 132.109 126.724L131.691 126.63C131.691 126.63 130.562 143.568 148.911 145.826" stroke="#07294A" stroke-width="0.566885"/>
<path d="M157.295 132.835V132.835C161.226 126.863 167.321 122.648 174.297 121.079L174.715 120.985C174.715 120.985 172.205 138.577 153.856 140.836L153.203 188.453V146.493C153.203 141.639 154.626 136.89 157.295 132.835Z" fill="#F0F8FF"/>
<path d="M131.691 126.631L132.109 126.725C139.085 128.294 145.18 132.509 149.111 138.481V138.481C151.781 142.536 153.203 147.285 153.203 152.139V194.099L152.159 145.015C133.81 142.756 131.691 126.631 131.691 126.631Z" fill="#F0F8FF"/>
<path d="M153.203 185.533V161.161C153.203 158.342 154.029 155.584 155.58 153.228V153.228C157.863 149.759 161.403 147.311 165.455 146.4L165.698 146.345C165.698 146.345 166.354 156.183 155.696 157.495" stroke="#07294A" stroke-width="0.566885"/>
<rect width="28.2335" height="68.1368" transform="matrix(-1 0 0 1 167.32 182.829)" fill="#79C9E7"/>
<path d="M324.882 186.791C302.611 186.791 284.556 168.736 284.556 146.465C284.556 124.194 302.611 106.14 324.882 106.14C347.153 106.14 365.207 124.194 365.207 146.465C365.207 168.736 347.153 186.791 324.882 186.791Z" fill="#79C9E7"/>
<path d="M365.207 146.465C365.207 124.194 347.153 106.14 324.882 106.14C302.611 106.14 284.556 124.194 284.556 146.465" stroke="#07294A" stroke-width="0.566885"/>
<rect width="34.3621" height="29.1662" transform="matrix(-1 0 0 1 342.063 172.208)" fill="#79C9E7"/>
<rect width="34.3621" height="12.0469" transform="matrix(-1 0 0 1 342.063 189.327)" fill="#07294A"/>
<path d="M324.882 90.5603V100.197" stroke="#07294A" stroke-width="0.566885"/>
<path d="M339.351 92.4653L336.857 101.774" stroke="#07294A" stroke-width="0.566885"/>
<path d="M352.834 98.0503L348.016 106.396" stroke="#07294A" stroke-width="0.566885"/>
<path d="M364.412 106.935L357.598 113.749" stroke="#07294A" stroke-width="0.566885"/>
<path d="M373.297 118.513L364.951 123.331" stroke="#07294A" stroke-width="0.566885"/>
<path d="M378.882 131.996L369.573 134.49" stroke="#07294A" stroke-width="0.566885"/>
<path d="M280.19 134.49L270.882 131.996" stroke="#07294A" stroke-width="0.566885"/>
<path d="M284.812 123.331L276.467 118.513" stroke="#07294A" stroke-width="0.566885"/>
<path d="M292.165 113.749L285.351 106.935" stroke="#07294A" stroke-width="0.566885"/>
<path d="M301.748 106.396L296.929 98.0503" stroke="#07294A" stroke-width="0.566885"/>
<path d="M312.906 101.774L310.412 92.4653" stroke="#07294A" stroke-width="0.566885"/>
<path d="M954.54 102.739C971.756 102.739 985.712 88.783 985.712 71.5671C985.712 54.3513 971.756 40.395 954.54 40.395C937.324 40.395 923.368 54.3513 923.368 71.5671C923.368 88.783 937.324 102.739 954.54 102.739Z" fill="#F0F8FF"/>
<rect x="944.81" y="40.395" width="8.84218" height="62.3442" fill="#F0F8FF"/>
<path d="M944.81 102.739C962.026 102.739 975.982 88.783 975.982 71.5671C975.982 54.3513 962.026 40.395 944.81 40.395C927.594 40.395 913.638 54.3513 913.638 71.5671C913.638 88.783 927.594 102.739 944.81 102.739Z" fill="#79C9E7"/>
<path d="M944.81 71.5669C941.234 71.5669 938.009 69.4126 936.641 66.1085C935.272 62.8044 936.029 59.0012 938.558 56.4724C941.086 53.9436 944.89 53.1871 948.194 54.5557C951.498 55.9243 953.652 59.1484 953.652 62.7248" stroke="white" stroke-width="0.794118"/>
<path d="M944.811 71.5669C948.387 71.5669 951.611 73.7212 952.98 77.0253C954.349 80.3294 953.592 84.1326 951.063 86.6614C948.534 89.1903 944.731 89.9468 941.427 88.5782C938.123 87.2096 935.969 83.9854 935.969 80.4091" stroke="white" stroke-width="0.794118"/>
<path d="M944.81 48.8052V94.3289" stroke="white" stroke-width="0.794118"/>
<rect x="1005.76" y="185.503" width="61.1616" height="12.7205" fill="#79C9E7"/>
<path d="M1066.92 185.503V198.224H1005.76" stroke="#07294A" stroke-width="0.794118"/>
<rect x="1005.76" y="169.518" width="61.1616" height="12.7205" fill="#79C9E7"/>
<path d="M1066.92 169.518V182.238H1005.76" stroke="#07294A" stroke-width="0.794118"/>
<rect x="1005.76" y="153.532" width="61.1616" height="12.7205" fill="#79C9E7"/>
<path d="M1066.92 153.532V166.253H1005.76" stroke="#07294A" stroke-width="0.794118"/>
<rect x="1005.76" y="137.547" width="61.1616" height="12.7205" fill="#79C9E7"/>
<path d="M1066.92 137.547V150.267H1005.76" stroke="#07294A" stroke-width="0.794118"/>
<rect x="1005.76" y="121.562" width="61.1616" height="12.7205" fill="#79C9E7"/>
<path d="M1066.92 121.561V134.282H1005.76" stroke="#07294A" stroke-width="0.794118"/>
<rect x="1005.76" y="105.576" width="61.1616" height="12.7205" fill="#79C9E7"/>
<path d="M1066.92 105.576V118.297H1005.76" stroke="#07294A" stroke-width="0.794118"/>
<rect x="1005.76" y="89.5906" width="61.1616" height="12.7205" fill="#79C9E7"/>
<path d="M1066.92 89.5906V102.311H1005.76" stroke="#07294A" stroke-width="0.794118"/>
<rect x="1005.76" y="73.6052" width="61.1616" height="12.7205" fill="#79C9E7"/>
<path d="M1066.92 73.6052V86.3256H1005.76" stroke="#07294A" stroke-width="0.794118"/>
<rect x="937.65" y="185.503" width="61.1616" height="12.7205" fill="#79C9E7"/>
<path d="M998.812 185.503V198.224H937.65" stroke="#07294A" stroke-width="0.794118"/>
<rect x="937.65" y="169.518" width="61.1616" height="12.7205" fill="#79C9E7"/>
<path d="M998.812 169.518V182.238H937.65" stroke="#07294A" stroke-width="0.794118"/>
<rect x="937.65" y="153.532" width="61.1616" height="12.7205" fill="#79C9E7"/>
<path d="M998.812 153.532V166.253H937.65" stroke="#07294A" stroke-width="0.794118"/>
<rect x="937.65" y="137.547" width="61.1616" height="12.7205" fill="#79C9E7"/>
<path d="M998.812 137.547V150.267H937.65" stroke="#07294A" stroke-width="0.794118"/>
<rect x="937.65" y="121.562" width="61.1616" height="12.7205" fill="#79C9E7"/>
<path d="M998.812 121.561V134.282H937.65" stroke="#07294A" stroke-width="0.794118"/>
<path d="M574.23 120.973L497.948 147.94L574.23 174.908L650.512 147.94L574.23 120.973V120.973Z" fill="#07294A"/>
<path d="M574.23 87.5664L497.948 114.534L574.23 141.501L650.512 114.534L574.23 87.5664V87.5664Z" fill="#F0F8FF"/>
<path d="M574.23 54.1602L497.948 81.1279L574.23 108.096L650.512 81.1279L574.23 54.1602V54.1602Z" fill="#79C9E7"/>
<path d="M769.662 34.9177C741.264 34.9177 718.243 57.9387 718.243 86.3365C718.243 114.734 741.264 137.755 769.662 137.755C798.059 137.755 821.08 114.734 821.08 86.3365H769.662V34.9177Z" fill="#F0F8FF"/>
<path d="M718.243 86.3362C718.243 114.734 741.264 137.755 769.662 137.755C798.059 137.755 821.08 114.734 821.08 86.3362" stroke="#07294A" stroke-width="0.63852"/>
<path d="M821.081 86.3362H769.662L811.045 116.854C817.579 108.022 821.097 97.3223 821.081 86.3362Z" fill="#07294A"/>
<path d="M769.662 19.3669V86.3363H836.631C836.631 68.5749 829.576 51.541 817.016 38.9818C804.457 26.4226 787.423 19.3669 769.662 19.3669Z" fill="#79C9E7"/>
<rect x="804.22" y="189.011" width="23.9136" height="23.9136" transform="rotate(180 804.22 189.011)" fill="#79C9E7"/>
<path d="M810.777 166.9L792.263 148.386L773.75 166.9H810.777V166.9Z" fill="#79C9E7"/>
</g>
<defs>
<linearGradient id="paint0_linear_928_55593" x1="574.23" y1="33.7334" x2="574.23" y2="257.966" gradientUnits="userSpaceOnUse">
<stop stop-color="#FDFFAA" stop-opacity="0"/>
<stop offset="1" stop-color="#FDFFAA"/>
</linearGradient>
<clipPath id="clip0_928_55593">
<rect width="1200" height="200" fill="white"/>
</clipPath>
</defs>
</svg>
