<svg width="1200" height="200" viewBox="0 0 1200 200" fill="none" xmlns="http://www.w3.org/2000/svg">
<g clip-path="url(#clip0_928_55308)">
<path fill-rule="evenodd" clip-rule="evenodd" d="M1092.54 108.521C1092.05 109.378 1090.81 109.378 1090.32 108.521L1054.19 45.9551C1044.79 29.6595 1021.27 29.6595 1011.86 45.9552L999.655 67.0907C995.289 74.6535 987.219 79.3125 978.486 79.3125L824.644 79.3124C809.775 79.3124 800.482 95.4086 807.917 108.285V108.285C811.367 114.262 811.367 121.625 807.917 127.601L794.569 150.72C786.184 165.244 765.22 165.244 756.834 150.72L753.625 145.162C746.666 133.108 729.268 133.108 722.309 145.162V145.162C715.35 157.215 697.952 157.215 690.992 145.162L674.142 115.976C664.734 99.6802 641.213 99.6802 631.805 115.976L616.2 143.004C606.791 159.3 583.271 159.3 573.862 143.004L570.42 137.041C562.145 122.709 541.458 122.709 533.183 137.041V137.041C524.908 151.374 504.221 151.374 495.946 137.041L495.026 135.449C486.343 120.409 464.634 120.409 455.951 135.449L434.387 172.798C430.021 180.361 421.951 185.02 413.218 185.02L362.682 185.02C353.949 185.02 345.88 180.361 341.513 172.798L298.111 97.6238C288.703 81.3281 265.182 81.3281 255.774 97.6238L247.536 111.893C238.127 128.188 214.607 128.188 205.198 111.893L189.836 85.2849C180.428 68.9892 156.907 68.9893 147.499 85.2849L118.062 136.271C108.654 152.567 120.414 172.937 139.231 172.937H183.824C196.476 172.937 204.384 186.633 198.058 197.591V197.591C191.732 208.548 199.64 222.245 212.292 222.245H334.322C343.054 222.245 351.124 226.904 355.49 234.467L362.001 245.744C371.41 262.04 394.93 262.04 404.339 245.744L415.35 226.672C415.617 226.21 416.109 225.926 416.642 225.926V225.926C417.791 225.926 418.508 227.169 417.934 228.164L411.471 239.359C408.024 245.329 412.332 252.792 419.226 252.792H531.752C538.646 252.792 542.955 245.329 539.508 239.359L535.63 232.642C533.907 229.657 536.061 225.926 539.508 225.926V225.926C542.954 225.926 545.109 222.194 543.385 219.209L541.22 215.459C538.534 210.807 541.891 204.992 547.263 204.992H608.863C609.213 204.992 609.432 204.613 609.257 204.31V204.31C609.082 204.006 609.301 203.628 609.651 203.628H666.193C676.131 203.628 682.342 214.386 677.373 222.993V222.993C672.404 231.599 678.615 242.358 688.554 242.358H792.721C800.286 242.358 805.014 234.169 801.231 227.617V227.617C797.449 221.066 802.177 212.877 809.742 212.877H854.19C862.923 212.877 870.992 217.536 875.359 225.099L882.375 237.25C891.783 253.546 915.304 253.546 924.712 237.25L977.494 145.829C981.861 138.266 989.93 133.607 998.663 133.607H1035.72C1054.54 133.607 1066.3 153.976 1056.89 170.272L1043.05 194.244C1033.64 210.54 1045.4 230.909 1064.22 230.909H1123.09C1141.91 230.909 1153.67 210.54 1144.26 194.244L1094.77 108.521C1094.28 107.664 1093.04 107.664 1092.54 108.521V108.521ZM1254.97 149.344C1264.38 133.048 1287.9 133.048 1297.31 149.344L1312.82 176.212C1322.23 192.508 1310.47 212.877 1291.65 212.877H1260.63C1241.81 212.877 1230.05 192.508 1239.46 176.212L1254.97 149.344ZM1204.82 189.017C1195.41 205.313 1171.89 205.313 1162.48 189.017L1133.04 138.03C1123.63 121.735 1135.39 101.365 1154.21 101.365L1213.09 101.365C1231.9 101.365 1243.66 121.735 1234.25 138.03L1204.82 189.017ZM-84.3205 252.792C-65.5039 252.792 -53.7435 232.422 -63.1518 216.127L-92.5888 165.14C-101.997 148.845 -125.518 148.845 -134.926 165.14L-164.363 216.127C-173.772 232.422 -162.011 252.792 -143.195 252.792H-84.3205ZM47.0588 237.25C37.6505 253.545 14.1297 253.545 4.72143 237.25L-56.4504 131.297C-65.8587 115.001 -54.0983 94.6317 -35.2817 94.6317L87.062 94.6317C105.879 94.6318 117.639 115.001 108.231 131.297L47.0588 237.25Z" fill="url(#paint0_linear_928_55308)"/>
<path d="M263.366 151.891C263.366 151.891 402.603 283.346 191.5 292.728L184.463 301.524L174.494 255.785L247.794 233.679L236.573 141.438" fill="#DFEFFF"/>
<path d="M252.933 138.687C252.933 138.687 260.826 267.5 238.535 328.489L243.191 335.33H203.545C203.545 335.33 199.214 171.487 199.214 136.123L252.933 138.687Z" fill="#F0F8FF"/>
<path d="M240.325 39.0229V55.7635L219.587 60.8607V32.6102L240.325 27.5129V39.0229Z" fill="#F0F8FF"/>
<path d="M228.611 44.815C228.917 44.815 229.165 44.5668 229.165 44.2605C229.165 43.9543 228.917 43.7061 228.611 43.7061C228.304 43.7061 228.056 43.9543 228.056 44.2605C228.056 44.5668 228.304 44.815 228.611 44.815Z" fill="#07294A"/>
<path d="M237.127 44.815C237.433 44.815 237.682 44.5668 237.682 44.2605C237.682 43.9543 237.433 43.7061 237.127 43.7061C236.821 43.7061 236.573 43.9543 236.573 44.2605C236.573 44.5668 236.821 44.815 237.127 44.815Z" fill="#07294A"/>
<path d="M234.629 47.5684V39.0229H238.91" stroke="#07294A" stroke-width="0.491359" stroke-linecap="round" stroke-linejoin="round"/>
<path d="M227.566 39.0231H231.847" stroke="#07294A" stroke-width="0.491359" stroke-linecap="round" stroke-linejoin="round"/>
<path d="M239.576 37.6239H239.576" stroke="#07294A" stroke-width="0.491359" stroke-linecap="round" stroke-linejoin="round"/>
<path d="M220.953 43.4015V46.3689C219.353 46.3689 218.055 45.0713 218.055 43.4706C218.055 43.3816 218.059 43.2937 218.067 43.2068C218.229 41.407 220.953 41.5944 220.953 43.4015Z" fill="#F0F8FF"/>
<path d="M220.953 46.3688C219.353 46.3688 218.055 45.0712 218.055 43.4705" stroke="#07294A" stroke-width="0.491359" stroke-linecap="round" stroke-linejoin="round"/>
<path d="M232.756 49.6747C231.978 49.6747 231.232 49.3656 230.682 48.8155C230.132 48.2654 229.823 47.5192 229.823 46.7412" stroke="#79C9E7" stroke-width="0.491359" stroke-linecap="round" stroke-linejoin="round"/>
<path d="M223.92 59.7957L219.587 60.8605" stroke="#07294A" stroke-width="0.491359" stroke-linecap="round" stroke-linejoin="round"/>
<path d="M234.629 47.575L232.756 48.0351" stroke="#07294A" stroke-width="0.491359" stroke-linecap="round" stroke-linejoin="round"/>
<path d="M199.214 90.838V136.123L263.366 151.891V101.455C263.366 83.572 251.157 67.999 233.79 63.7306H233.79C225.462 61.6836 216.655 63.5787 209.905 68.8701C203.156 74.1614 199.214 82.2617 199.214 90.838V90.838Z" fill="#79C9E7"/>
<path d="M252.933 138.687C252.933 138.687 260.825 267.5 238.535 328.489" stroke="#07294A" stroke-width="0.491359" stroke-linecap="round" stroke-linejoin="round"/>
<path d="M223.504 39.0229C223.504 39.0229 221.093 47.8176 223.927 49.6746C226.762 51.5317 230.473 45.9486 236.412 48.9745C243.591 52.6322 240.325 40.3562 240.325 40.3562" stroke="#07294A" stroke-width="0.491359" stroke-linecap="round" stroke-linejoin="round"/>
<path d="M220.953 47.1581C220.953 47.1581 217.483 57.7957 226.051 60.8605C234.618 63.9252 245.766 58.9458 242.173 46.7412" stroke="#07294A" stroke-width="0.491359" stroke-linecap="round" stroke-linejoin="round"/>
<path d="M222.233 39.023C222.233 39.023 228.611 41.3663 234.629 34.3943C234.629 34.3943 237.094 37.8561 241.067 37.6238" stroke="#07294A" stroke-width="0.491359" stroke-linecap="round" stroke-linejoin="round"/>
<path d="M241.69 40.9844C241.69 40.9844 246.145 26.1361 234.629 24.8463C223.113 23.5565 218.198 30.7583 216.171 36.2859C214.144 41.8136 216.757 47.6246 219.504 50.0625" stroke="#07294A" stroke-width="0.491359" stroke-linecap="round" stroke-linejoin="round"/>
<path d="M209.683 69.0493C209.683 69.0493 176.695 99.4877 178.78 137.28C180.865 175.072 256.449 143.796 258.795 131.285C261.141 118.775 246.412 126.333 246.412 126.333C246.412 126.333 247.846 120.469 246.412 121.511C244.979 122.554 241.454 126.463 241.454 126.463L208.753 126.854L215.45 108.349" stroke="#07294A" stroke-width="0.491359" stroke-linecap="round" stroke-linejoin="round"/>
<path d="M236.573 126.522C236.573 126.522 236.4 103.658 263.366 98.7059C263.366 98.7059 258.789 91.8971 261.463 89.4372C263.072 87.9577 265.623 89.8433 267.4 91.5811C268.373 92.5307 269.906 92.593 270.953 91.7255C271.965 90.8975 273.541 90.3071 275.866 91.0824C277.626 91.6688 278.313 92.6401 278.485 93.6251C278.699 95.0763 280.039 96.0867 281.493 95.8942C283.443 95.6091 285.183 95.9014 284.076 98.315C281.926 103.006 277.821 103.006 277.821 103.006C277.821 103.006 306.361 162.921 247.327 155.346" stroke="#07294A" stroke-width="0.491359" stroke-linecap="round" stroke-linejoin="round"/>
<path d="M283.166 141.438C283.166 141.438 284.663 160.867 274.694 167.122" stroke="#07294A" stroke-width="0.491359" stroke-linecap="round" stroke-linejoin="round"/>
<path d="M361.606 70.3506C361.606 70.3506 374.339 80.4057 379.024 95.2012" stroke="#07294A" stroke-width="0.4775" stroke-linecap="round" stroke-linejoin="round"/>
<path d="M374.516 145.986L335.532 128.725V186.009V327.291H373.232L368.841 319.422L374.516 145.986Z" fill="#DFEFFF"/>
<path d="M364.697 131.788L311.858 128.725V186.009V327.291H349.558L345.167 319.422L364.697 131.788Z" fill="#F0F8FF"/>
<path d="M311.858 88.4951V132.725L374.516 148.125V98.8651C374.516 81.3983 362.591 66.1881 345.629 62.0192H345.629C337.495 60.0199 328.893 61.8708 322.301 67.0389C315.709 72.207 311.858 80.1186 311.858 88.4951V88.4951Z" fill="#79C9E7"/>
<path d="M355.649 37.8872V44.9445C355.649 50.4014 351.924 55.1533 346.625 56.4557L335.394 59.216V31.6236L344.732 29.3285C347.362 28.6822 350.142 29.2806 352.273 30.9512C354.404 32.6219 355.649 35.1794 355.649 37.8872V37.8872Z" fill="#F0F8FF"/>
<path d="M355.649 44.9443C355.649 50.4013 351.924 55.1531 346.625 56.4556L335.394 59.2158" stroke="#07294A" stroke-width="0.4775" stroke-linecap="round" stroke-linejoin="round"/>
<path d="M344.207 43.5441C343.908 43.5441 343.666 43.3016 343.666 43.0025C343.666 42.7034 343.908 42.4609 344.207 42.4609C344.506 42.4609 344.749 42.7034 344.749 43.0025C344.749 43.3016 344.506 43.5441 344.207 43.5441Z" fill="#07294A"/>
<path d="M352.526 43.5441C352.226 43.5441 351.984 43.3016 351.984 43.0025C351.984 42.7034 352.226 42.4609 352.526 42.4609C352.825 42.4609 353.067 42.7034 353.067 43.0025C353.067 43.3016 352.825 43.5441 352.526 43.5441Z" fill="#07294A"/>
<path d="M350.085 46.2333V37.887H354.266" stroke="#07294A" stroke-width="0.4775" stroke-linecap="round" stroke-linejoin="round"/>
<path d="M343.187 37.8872H347.368" stroke="#07294A" stroke-width="0.4775" stroke-linecap="round" stroke-linejoin="round"/>
<path d="M336.728 42.1635V45.0618C335.165 45.0618 333.897 43.7944 333.897 42.231C333.897 42.1442 333.901 42.0583 333.909 41.9733C334.068 40.2155 336.728 40.3985 336.728 42.1635Z" fill="#F0F8FF"/>
<path d="M336.728 45.0618C335.165 45.0618 333.897 43.7944 333.897 42.231" stroke="#07294A" stroke-width="0.4775" stroke-linecap="round" stroke-linejoin="round"/>
<path d="M347.799 47.2085C347.448 47.56 346.971 47.7575 346.474 47.7575C345.976 47.7575 345.5 47.56 345.148 47.2085" stroke="#79C9E7" stroke-width="0.4775" stroke-linecap="round" stroke-linejoin="round"/>
<path d="M350.085 46.24L348.256 46.6895" stroke="#07294A" stroke-width="0.4775" stroke-linecap="round" stroke-linejoin="round"/>
<path d="M355.649 39.3248C355.649 39.3248 349.774 37.2077 348.632 33.1516C346.284 37.5109 342.264 40.7271 337.495 42.0602" stroke="#07294A" stroke-width="0.4775" stroke-linecap="round" stroke-linejoin="round"/>
<path d="M355.649 43.6465C355.649 43.6465 362.887 33.4699 356.333 28.3786C349.778 23.2874 342.586 25.7057 341.695 26.4694C341.695 26.4694 330.781 25.3795 326.199 36.5206C321.617 47.6617 307.157 45.0208 303.193 48.2207C303 48.3747 302.827 48.5512 302.677 48.7463C300.719 51.2007 298.052 52.9924 295.039 53.8774C289.449 55.6269 283.023 59.1518 285.055 65.9266C288.492 77.3819 337.155 70.1654 335.925 44.9445" stroke="#07294A" stroke-width="0.4775" stroke-linecap="round" stroke-linejoin="round"/>
<path d="M374.516 148.125V243.168L280.235 223.157L311.858 132.725" fill="#79C9E7"/>
<path d="M379.869 112.209L390.225 88.8372L362.732 91.8919L372.151 114.548L364.697 148.125L390.225 136.695L379.869 112.209Z" fill="#F0F8FF"/>
<path d="M349.558 327.291L345.167 319.423L357.88 197.284" stroke="#07294A" stroke-width="0.4775" stroke-linecap="round" stroke-linejoin="round"/>
<path d="M318.77 70.3506C318.77 70.3506 292.218 99.4809 300.619 132.725C309.019 165.97 383.606 120.403 383.861 111.748C384.115 103.093 371.896 108.693 371.896 108.693C371.896 108.693 373.169 103.196 370.624 104.672C368.078 106.147 366.805 109.202 366.805 109.202L329.384 114.039L335.533 95.9649" stroke="#07294A" stroke-width="0.4775" stroke-linecap="round" stroke-linejoin="round"/>
<path d="M388.246 93.3031C388.246 93.3031 390.48 85.5279 392.007 90.6191C393.534 95.7104 399.898 119.13 385.897 130.585" stroke="#07294A" stroke-width="0.4775" stroke-linecap="round" stroke-linejoin="round"/>
<path fill-rule="evenodd" clip-rule="evenodd" d="M384.399 67.2311C382.929 65.8337 382.211 64.4654 382.681 63.6513C383.151 62.8375 384.695 62.7772 386.64 63.3514C387.115 61.3784 387.941 60.0715 388.881 60.0715C389.821 60.0715 390.647 61.3784 391.122 63.3514C393.067 62.7772 394.611 62.8375 395.081 63.6513C395.551 64.4654 394.833 65.8337 393.363 67.2311C394.833 68.6285 395.551 69.9968 395.081 70.8109C394.612 71.6247 393.067 71.685 391.122 71.1108C390.647 73.0838 389.821 74.3907 388.881 74.3907C387.941 74.3907 387.115 73.0838 386.64 71.1108C384.695 71.685 383.151 71.6247 382.681 70.8109C382.211 69.9968 382.929 68.6285 384.399 67.2311Z" stroke="#07294A" stroke-width="0.4775" stroke-linecap="round" stroke-linejoin="round"/>
<path fill-rule="evenodd" clip-rule="evenodd" d="M379.383 81.5504C377.913 80.153 377.194 78.7847 377.664 77.9707C378.134 77.1569 379.679 77.0965 381.623 77.6707C382.098 75.6978 382.924 74.3909 383.865 74.3909C384.805 74.3909 385.631 75.6978 386.106 77.6707C388.05 77.0965 389.595 77.1569 390.065 77.9707C390.535 78.7847 389.817 80.153 388.346 81.5504C389.817 82.9478 390.535 84.3162 390.065 85.1302C389.595 85.944 388.05 86.0043 386.106 85.4302C385.631 87.4031 384.805 88.71 383.865 88.71C382.924 88.71 382.098 87.4031 381.623 85.4302C379.679 86.0043 378.134 85.944 377.664 85.1302C377.194 84.3162 377.913 82.9478 379.383 81.5504Z" stroke="#07294A" stroke-width="0.4775" stroke-linecap="round" stroke-linejoin="round"/>
<path fill-rule="evenodd" clip-rule="evenodd" d="M368.541 66.6598C367.719 64.8056 367.58 63.2664 368.326 62.6947C369.072 62.1232 370.522 62.6595 372.098 63.9352C373.293 62.2951 374.557 61.4046 375.425 61.765C376.294 62.1254 376.555 63.6491 376.238 65.6534C378.254 65.8685 379.658 66.5163 379.78 67.448C379.902 68.3801 378.714 69.3685 376.82 70.0956C377.642 71.9498 377.782 73.489 377.035 74.0607C376.289 74.6323 374.84 74.0959 373.264 72.8202C372.069 74.4603 370.805 75.3508 369.936 74.9904C369.068 74.63 368.806 73.1063 369.124 71.102C367.107 70.8869 365.704 70.2391 365.582 69.3074C365.46 68.3753 366.648 67.3869 368.541 66.6598Z" stroke="#07294A" stroke-width="0.4775" stroke-linecap="round" stroke-linejoin="round"/>
<path d="M782.998 76.7852L706.716 103.752L782.998 130.72L859.28 103.752L782.998 76.7852V76.7852Z" fill="#07294A"/>
<path d="M706.716 103.752L782.998 130.72L859.28 103.752" stroke="#07294A" stroke-width="0.723091"/>
<path d="M782.998 43.3789L706.716 70.3467L782.998 97.3139L859.28 70.3467L782.998 43.3789V43.3789Z" fill="#F0F8FF"/>
<path d="M706.716 70.3467L782.998 97.314L859.28 70.3467" stroke="#07294A" stroke-width="0.723091"/>
<path d="M782.998 9.97266L706.716 36.9404L782.998 63.9082L859.28 36.9404L782.998 9.97266V9.97266Z" fill="#79C9E7"/>
<path d="M706.716 36.9404L782.998 63.9082L859.28 36.9404" stroke="#07294A" stroke-width="0.723091"/>
<path d="M742.508 282.831L753.327 292.226L782.179 255.333L795.162 266.199L863.685 176.097L924.274 282.831L940.864 264.499L971.159 314.24H717.262L742.508 282.831V282.831Z" fill="#F6F6F6"/>
<path d="M909.1 126.645C909.1 126.645 859.835 211.074 843.35 294.601L837.274 298.175L866.329 307.802C866.329 307.802 930.692 210.722 934.539 198.397C938.386 186.073 931.791 126.645 931.791 126.645" fill="#79C9E7"/>
<path d="M921.859 164.833C921.859 164.833 913.953 205.367 916.118 230.676C924.412 217.335 931.148 206.005 933.659 200.567L921.859 164.833Z" fill="#07294A"/>
<path d="M923.354 35.6508V51.3386L942.787 56.1151V29.641L923.354 24.8645V35.6508V35.6508Z" fill="#F0F8FF"/>
<path d="M934.332 41.0785C934.619 41.0785 934.851 40.8459 934.851 40.5589C934.851 40.2719 934.619 40.0393 934.332 40.0393C934.045 40.0393 933.812 40.2719 933.812 40.5589C933.812 40.8459 934.045 41.0785 934.332 41.0785Z" fill="#07294A"/>
<path d="M926.351 41.0785C926.638 41.0785 926.87 40.8459 926.87 40.5589C926.87 40.2719 926.638 40.0393 926.351 40.0393C926.064 40.0393 925.831 40.2719 925.831 40.5589C925.831 40.8459 926.064 41.0785 926.351 41.0785Z" fill="#07294A"/>
<path d="M928.692 43.6587V35.6509H924.68" stroke="#07294A" stroke-width="0.723091"/>
<path d="M935.311 35.6509H931.299" stroke="#07294A" stroke-width="0.723091"/>
<path d="M941.507 39.7539V42.5347C942.228 42.5347 942.919 42.2486 943.428 41.7392C943.937 41.2299 944.223 40.539 944.223 39.8187C944.223 39.7353 944.22 39.6529 944.212 39.5714C944.06 37.8848 941.507 38.0604 941.507 39.7539Z" fill="#F0F8FF"/>
<path d="M941.507 42.5347C942.228 42.5347 942.919 42.2485 943.428 41.7392C943.937 41.2298 944.223 40.539 944.223 39.8186" stroke="#07294A" stroke-width="0.723091"/>
<path d="M939.159 55.2234L942.787 56.1152" stroke="#07294A" stroke-width="0.723091"/>
<path d="M928.692 43.665L930.446 44.0962" stroke="#07294A" stroke-width="0.723091" stroke-linecap="round"/>
<path d="M923.354 40.0393C923.354 40.0393 919.452 51.4779 924.68 55.2233C929.908 58.9688 945.453 56.7866 941.236 41.4354" stroke="#07294A" stroke-width="0.723091"/>
<path d="M925.662 43.8699C925.516 44.1037 925.503 44.3975 925.628 44.6433C925.754 44.8891 926 45.0507 926.275 45.0686C927.399 45.3195 929.098 43.1074 930.568 44.3117C930.568 44.3117 930.897 42.612 934.557 43.6287C938.217 44.6453 936.961 42.2288 936.961 42.2288" stroke="#07294A" stroke-width="0.723091"/>
<path d="M930.131 45.8389C931.51 46.4733 933.143 45.8695 933.777 44.4902" stroke="#79C9E7" stroke-width="0.723091" stroke-linecap="round" stroke-linejoin="round"/>
<path d="M921.955 30.1238C921.955 30.1238 923.273 35.7911 935.311 32.4241C935.311 32.4241 936.038 35.5107 938.11 35.6509C940.183 35.7911 940.096 37.8631 940.096 37.8631" stroke="#07294A" stroke-width="0.723091"/>
<path d="M923.353 35.6509C923.353 35.6509 910.788 24.8114 925.547 24.2619C940.305 23.7123 948.296 28.2887 942.865 38.3959" stroke="#07294A" stroke-width="0.723091"/>
<path d="M909.1 84.2076V126.645L969.218 141.421V94.1573C969.218 77.3985 957.777 62.8048 941.502 58.8049H941.502C933.698 56.8866 925.444 58.6625 919.12 63.6211C912.795 68.5797 909.1 76.1706 909.1 84.2076L909.1 84.2076Z" fill="#F0F8FF"/>
<path d="M969.218 141.421L921.955 129.804C921.955 129.804 918.774 244.699 937.435 307.097L934.332 313.324H965.312C965.312 313.324 971.476 166.558 969.218 141.421Z" fill="#79C9E7"/>
<path d="M921.955 129.804C921.955 129.804 918.774 244.699 937.435 307.097" stroke="#07294A" stroke-width="0.723091"/>
<path d="M950.369 62.2629C950.369 62.2629 986.528 83.6131 985.429 119.151C984.33 154.688 958.685 168.976 958.685 168.976" stroke="#07294A" stroke-width="0.723091"/>
<path d="M949.159 149.376C949.159 149.376 954.471 168.793 963.447 172.823" stroke="#07294A" stroke-width="0.723091"/>
<path d="M944.223 98.1455L963.447 121.593L949.641 150.982" stroke="#07294A" stroke-width="0.723091"/>
<path d="M950.859 148.39L963.447 121.593L948.706 103.613V103.613C948.706 103.613 957.687 130.491 950.859 148.39Z" fill="#07294A"/>
<path d="M915.743 66.7866L889.979 87.1911C889.979 87.1911 860.282 49.3508 853.721 47.3431C847.159 45.3353 839.172 49.5413 839.172 49.5413V52.0263L846.769 53.4076C846.769 53.4076 845.65 62.2501 850.485 66.3941C850.485 66.3941 865.472 121.177 887.976 121.349C903.363 121.467 909.1 117.197 909.1 117.197" stroke="#07294A" stroke-width="0.723091"/>
<path d="M1100.31 53.9019V116.646H949.604" stroke="#07294A" stroke-width="0.610972" stroke-linecap="round" stroke-linejoin="round"/>
<path d="M1131.28 174.908V61.2332" stroke="#07294A" stroke-width="0.610972" stroke-linecap="round" stroke-linejoin="round"/>
<path d="M871.305 174.908H1178.61" stroke="#07294A" stroke-width="0.610972" stroke-linecap="round" stroke-linejoin="round"/>
<path d="M1024.96 -20.6331V116.646" stroke="#07294A" stroke-width="0.610972" stroke-linecap="round" stroke-linejoin="round"/>
<path d="M1024.96 48.0061H1102.02" stroke="#07294A" stroke-width="0.610972" stroke-linecap="round" stroke-linejoin="round"/>
<rect x="958.303" y="77.5464" width="5.75775" height="39.0694" fill="#F0F8FF"/>
<path d="M964.061 116.616H958.303V77.5464" stroke="#07294A" stroke-width="0.610972" stroke-linecap="round" stroke-linejoin="round"/>
<path d="M959.811 84.8553H964.06" stroke="#07294A" stroke-width="0.610972" stroke-linecap="round" stroke-linejoin="round"/>
<path d="M959.811 86.4288H964.06" stroke="#07294A" stroke-width="0.610972" stroke-linecap="round" stroke-linejoin="round"/>
<path d="M959.811 88.0022H964.06" stroke="#07294A" stroke-width="0.610972" stroke-linecap="round" stroke-linejoin="round"/>
<rect x="965.389" y="77.5464" width="5.75775" height="39.0694" fill="#D1D1D1"/>
<path d="M971.146 116.616H965.389V77.5464" stroke="#07294A" stroke-width="0.610972" stroke-linecap="round" stroke-linejoin="round"/>
<path d="M966.896 84.8553H971.146" stroke="#07294A" stroke-width="0.610972" stroke-linecap="round" stroke-linejoin="round"/>
<path d="M966.896 86.4288H971.146" stroke="#07294A" stroke-width="0.610972" stroke-linecap="round" stroke-linejoin="round"/>
<path d="M966.896 88.0022H971.146" stroke="#07294A" stroke-width="0.610972" stroke-linecap="round" stroke-linejoin="round"/>
<rect x="972.475" y="77.5464" width="5.75775" height="39.0694" fill="#F0F8FF"/>
<path d="M978.232 116.616H972.475V77.5464" stroke="#07294A" stroke-width="0.610972" stroke-linecap="round" stroke-linejoin="round"/>
<path d="M973.982 84.8553H978.232" stroke="#07294A" stroke-width="0.610972" stroke-linecap="round" stroke-linejoin="round"/>
<path d="M973.982 86.4288H978.232" stroke="#07294A" stroke-width="0.610972" stroke-linecap="round" stroke-linejoin="round"/>
<path d="M973.982 88.0022H978.232" stroke="#07294A" stroke-width="0.610972" stroke-linecap="round" stroke-linejoin="round"/>
<rect x="979.561" y="77.5464" width="5.75775" height="39.0694" fill="#D1D1D1"/>
<path d="M985.319 116.616H979.561V77.5464" stroke="#07294A" stroke-width="0.610972" stroke-linecap="round" stroke-linejoin="round"/>
<path d="M981.068 84.8553H985.318" stroke="#07294A" stroke-width="0.610972" stroke-linecap="round" stroke-linejoin="round"/>
<path d="M981.068 86.4288H985.318" stroke="#07294A" stroke-width="0.610972" stroke-linecap="round" stroke-linejoin="round"/>
<path d="M981.068 88.0022H985.318" stroke="#07294A" stroke-width="0.610972" stroke-linecap="round" stroke-linejoin="round"/>
<rect x="986.646" y="77.5464" width="5.75775" height="39.0694" fill="#F0F8FF"/>
<path d="M992.404 116.616H986.647V77.5464" stroke="#07294A" stroke-width="0.610972" stroke-linecap="round" stroke-linejoin="round"/>
<path d="M988.154 84.8553H992.404" stroke="#07294A" stroke-width="0.610972" stroke-linecap="round" stroke-linejoin="round"/>
<path d="M988.154 86.4288H992.404" stroke="#07294A" stroke-width="0.610972" stroke-linecap="round" stroke-linejoin="round"/>
<path d="M988.154 88.0022H992.404" stroke="#07294A" stroke-width="0.610972" stroke-linecap="round" stroke-linejoin="round"/>
<rect x="993.149" y="79.1182" width="5.75775" height="39.0694" transform="rotate(-16.1509 993.149 79.1182)" fill="#D1D1D1"/>
<path d="M1009.55 115.044L1004.02 116.646L993.149 79.1182" stroke="#07294A" stroke-width="0.610972" stroke-linecap="round" stroke-linejoin="round"/>
<path d="M996.63 85.7193L1000.71 84.5371" stroke="#07294A" stroke-width="0.610972" stroke-linecap="round" stroke-linejoin="round"/>
<path d="M997.068 87.2305L1001.15 86.0483" stroke="#07294A" stroke-width="0.610972" stroke-linecap="round" stroke-linejoin="round"/>
<path d="M997.505 88.7418L1001.59 87.5596" stroke="#07294A" stroke-width="0.610972" stroke-linecap="round" stroke-linejoin="round"/>
<path d="M537.921 102.739C555.137 102.739 569.093 88.783 569.093 71.5671C569.093 54.3513 555.137 40.395 537.921 40.395C520.705 40.395 506.749 54.3513 506.749 71.5671C506.749 88.783 520.705 102.739 537.921 102.739Z" fill="#F0F8FF"/>
<rect x="528.191" y="40.395" width="8.84218" height="62.3442" fill="#F0F8FF"/>
<path d="M528.191 102.739C545.407 102.739 559.363 88.783 559.363 71.5671C559.363 54.3513 545.407 40.395 528.191 40.395C510.975 40.395 497.019 54.3513 497.019 71.5671C497.019 88.783 510.975 102.739 528.191 102.739Z" fill="#79C9E7"/>
<path d="M528.191 71.5669C524.615 71.5669 521.39 69.4126 520.022 66.1085C518.653 62.8044 519.41 59.0012 521.938 56.4724C524.467 53.9436 528.27 53.1871 531.575 54.5557C534.879 55.9243 537.033 59.1484 537.033 62.7248" stroke="white" stroke-width="0.794118"/>
<path d="M528.192 71.5669C531.768 71.5669 534.992 73.7212 536.361 77.0253C537.729 80.3294 536.973 84.1326 534.444 86.6614C531.915 89.1903 528.112 89.9468 524.808 88.5782C521.504 87.2096 519.349 83.9854 519.349 80.4091" stroke="white" stroke-width="0.794118"/>
<path d="M528.191 48.8052V94.3289" stroke="white" stroke-width="0.794118"/>
<rect x="589.14" y="185.503" width="61.1616" height="12.7205" fill="#79C9E7"/>
<path d="M650.302 185.503V198.224H589.14" stroke="#07294A" stroke-width="0.794118"/>
<rect x="589.14" y="169.518" width="61.1616" height="12.7205" fill="#79C9E7"/>
<path d="M650.302 169.518V182.238H589.14" stroke="#07294A" stroke-width="0.794118"/>
<rect x="589.14" y="153.532" width="61.1616" height="12.7205" fill="#79C9E7"/>
<path d="M650.302 153.532V166.253H589.14" stroke="#07294A" stroke-width="0.794118"/>
<rect x="589.14" y="137.547" width="61.1616" height="12.7205" fill="#79C9E7"/>
<path d="M650.302 137.547V150.267H589.14" stroke="#07294A" stroke-width="0.794118"/>
<rect x="589.14" y="121.562" width="61.1616" height="12.7205" fill="#79C9E7"/>
<path d="M650.302 121.561V134.282H589.14" stroke="#07294A" stroke-width="0.794118"/>
<rect x="589.14" y="105.576" width="61.1616" height="12.7205" fill="#79C9E7"/>
<path d="M650.302 105.576V118.297H589.14" stroke="#07294A" stroke-width="0.794118"/>
<rect x="589.14" y="89.5906" width="61.1616" height="12.7205" fill="#79C9E7"/>
<path d="M650.302 89.5906V102.311H589.14" stroke="#07294A" stroke-width="0.794118"/>
<rect x="589.14" y="73.6052" width="61.1616" height="12.7205" fill="#79C9E7"/>
<path d="M650.302 73.6052V86.3256H589.14" stroke="#07294A" stroke-width="0.794118"/>
<rect x="521.031" y="185.503" width="61.1616" height="12.7205" fill="#79C9E7"/>
<path d="M582.192 185.503V198.224H521.031" stroke="#07294A" stroke-width="0.794118"/>
<rect x="521.031" y="169.518" width="61.1616" height="12.7205" fill="#79C9E7"/>
<path d="M582.192 169.518V182.238H521.031" stroke="#07294A" stroke-width="0.794118"/>
<rect x="521.031" y="153.532" width="61.1616" height="12.7205" fill="#79C9E7"/>
<path d="M582.192 153.532V166.253H521.031" stroke="#07294A" stroke-width="0.794118"/>
<rect x="521.031" y="137.547" width="61.1616" height="12.7205" fill="#79C9E7"/>
<path d="M582.192 137.547V150.267H521.031" stroke="#07294A" stroke-width="0.794118"/>
<rect x="521.031" y="121.562" width="61.1616" height="12.7205" fill="#79C9E7"/>
<path d="M582.192 121.561V134.282H521.031" stroke="#07294A" stroke-width="0.794118"/>
</g>
<defs>
<linearGradient id="paint0_linear_928_55308" x1="574.23" y1="33.7334" x2="574.23" y2="257.966" gradientUnits="userSpaceOnUse">
<stop stop-color="#FDFFAA" stop-opacity="0"/>
<stop offset="1" stop-color="#FDFFAA"/>
</linearGradient>
<clipPath id="clip0_928_55308">
<rect width="1200" height="200" fill="white"/>
</clipPath>
</defs>
</svg>
