<svg width="1200" height="200" viewBox="0 0 1200 200" fill="none" xmlns="http://www.w3.org/2000/svg">
<g clip-path="url(#clip0_981_57895)">
<g opacity="0.5">
<path fill-rule="evenodd" clip-rule="evenodd" d="M250.419 30.374C250.419 15.608 262.389 3.6377 277.155 3.6377H531.083C545.849 3.6377 557.819 15.608 557.819 30.3741V50.0548C557.819 59.8989 565.799 67.879 575.643 67.879H732.17C732.454 67.879 732.737 67.8835 733.02 67.8923C743.896 68.2321 757.443 68.0175 766.797 62.4578C774.943 57.6161 784.447 54.8323 794.542 54.8323C819.762 54.8323 841.287 72.2041 847.188 95.6344C847.834 98.1998 850.213 100 852.859 100V100C856.617 100 860.267 100.509 863.741 101.462C864.704 101.727 865.677 100.999 865.677 100V100C865.677 64.0116 895.124 34.8372 931.449 34.8372C967.774 34.8372 997.221 64.0116 997.221 100C997.221 135.988 967.774 165.163 931.449 165.163C925.738 165.163 920.197 164.442 914.913 163.086C902.987 160.026 887.85 165.222 878.123 172.77C871.125 178.2 862.336 181.439 852.859 181.439C842.633 181.439 833.209 177.669 825.972 171.445C818.75 165.233 808.717 161.297 799.226 162.115C797.681 162.248 796.119 162.316 794.542 162.316C788.29 162.316 782.264 161.248 776.647 159.284C769.026 156.62 758.906 161.552 758.906 169.626V169.626C758.906 184.392 746.936 196.362 732.17 196.362H487.872C473.106 196.362 461.135 184.392 461.135 169.626V149.945C461.135 140.101 453.155 132.121 443.311 132.121H322.907C314.832 132.121 308.017 137.729 304.089 144.785C294.466 162.074 275.89 173.786 254.553 173.786C234.365 173.786 216.649 163.301 206.649 147.529C200.309 137.529 182.528 129.653 170.688 129.653V129.653V129.653C156.48 129.653 131.753 136.166 117.729 138.44C116.259 138.678 114.754 138.802 113.222 138.802C97.8625 138.802 85.1511 126.35 85.1511 110.991C85.1511 95.6313 97.8625 83.1799 113.222 83.1799V83.1799C120.591 83.1799 130.35 78.2006 133.541 71.5585C140.171 57.7604 154.414 48.2141 170.688 48.2141C179.612 48.2141 187.925 51.0849 194.707 55.9533C204.872 63.2494 224.748 68.5804 236.626 64.6484V64.6484C243.98 62.214 250.419 55.92 250.419 48.1735V30.374ZM60.1236 42.0418C46.2748 42.0418 34.8137 53.2685 34.8137 67.1172C34.8137 80.966 46.2748 92.1926 60.1236 92.1926C73.9723 92.1926 85.4334 80.966 85.4334 67.1172C85.4334 53.2685 73.9723 42.0418 60.1236 42.0418ZM309.203 163.532C309.203 149.684 320.664 138.457 334.513 138.457C348.362 138.457 359.823 149.684 359.823 163.532C359.823 177.381 348.362 188.608 334.513 188.608C320.664 188.608 309.203 177.381 309.203 163.532ZM1134.59 88.7516C1151.49 88.7516 1165.18 75.18 1165.18 58.4387C1165.18 41.6974 1151.49 28.1259 1134.59 28.1259C1117.69 28.1259 1103.99 41.6974 1103.99 58.4387C1103.99 61.5144 1104.45 64.483 1105.31 67.2802C1106 69.5276 1103.6 72.4754 1101.25 72.4754V72.4754C1090.46 72.4754 1081.7 81.1456 1081.7 91.8408C1081.7 102.536 1090.46 111.206 1101.25 111.206C1112.05 111.206 1120.8 102.536 1120.8 91.8408V91.8408C1120.8 89.4324 1123.79 86.91 1126.1 87.5709C1128.8 88.3397 1131.64 88.7516 1134.59 88.7516ZM1044.92 148.163C1044.92 146.576 1042.74 145.215 1041.37 146.015C1036.82 148.667 1031.52 150.188 1025.87 150.188C1008.97 150.188 995.271 136.616 995.271 119.875C995.271 103.134 1008.97 89.5621 1025.87 89.5621C1042.76 89.5621 1056.46 103.134 1056.46 119.875C1056.46 120.288 1056.45 120.699 1056.44 121.108C1056.3 124.465 1061.11 128.798 1064.47 128.798V128.798C1075.26 128.798 1084.01 137.468 1084.01 148.163C1084.01 158.858 1075.26 167.529 1064.47 167.529C1053.67 167.529 1044.92 158.858 1044.92 148.163V148.163ZM579.124 63.1221C588.207 63.1221 595.571 55.8265 595.571 46.8269C595.571 37.8274 588.207 30.5318 579.124 30.5318C570.04 30.5318 562.676 37.8274 562.676 46.8269C562.676 55.8265 570.04 63.1221 579.124 63.1221Z" fill="url(#paint0_linear_981_57895)"/>
</g>
<path d="M312.769 259.983H291.629V251.039H270.029V240.468L253.945 226.239H229.588V185.177H197.878V134.357L157.897 169.728V237.216H136.757V267.111H128.025V258.763H112.4V275.458H323.339V269.334L312.769 259.983V259.983Z" fill="#F6F6F6"/>
<rect x="200.323" y="195.464" width="2.8881" height="2.55499" fill="white"/>
<rect x="207.351" y="195.464" width="2.8881" height="2.55499" fill="white"/>
<rect x="214.378" y="195.464" width="2.8881" height="2.55499" fill="white"/>
<path d="M304.235 115.862C304.235 115.862 254.59 184.881 302.692 259.896L303.856 274.797L332.917 259.311L316.697 198.486L339.337 159.032L323.015 106.319" fill="#DFEFFF"/>
<path d="M310.95 101.783L358.142 102.613L357.711 149.767V274.797H320.961L324.846 267.833L310.95 101.783V101.783Z" fill="#F0F8FF"/>
<path d="M339.379 18.6841V33.1538L321.455 37.5594V13.141L339.379 8.73535V18.6841V18.6841Z" fill="#F0F8FF"/>
<path d="M329.254 23.6905C329.519 23.6905 329.733 23.4759 329.733 23.2112C329.733 22.9465 329.519 22.7319 329.254 22.7319C328.989 22.7319 328.775 22.9465 328.775 23.2112C328.775 23.4759 328.989 23.6905 329.254 23.6905Z" fill="#07294A"/>
<path d="M336.615 23.6905C336.88 23.6905 337.094 23.4759 337.094 23.2112C337.094 22.9465 336.88 22.7319 336.615 22.7319C336.35 22.7319 336.136 22.9465 336.136 23.2112C336.136 23.4759 336.35 23.6905 336.615 23.6905Z" fill="#07294A"/>
<path d="M334.456 26.0701V18.6841H338.156" stroke="#07294A" stroke-width="0.666944"/>
<path d="M328.351 18.6843H332.051" stroke="#07294A" stroke-width="0.666944"/>
<path d="M322.635 22.4689V25.0338C321.971 25.0338 321.333 24.7699 320.864 24.3001C320.394 23.8303 320.13 23.1931 320.13 22.5287C320.13 22.4518 320.133 22.3758 320.14 22.3006C320.28 20.745 322.635 20.907 322.635 22.4689Z" fill="#F0F8FF"/>
<path d="M322.635 25.0335C321.971 25.0335 321.333 24.7696 320.864 24.2997C320.394 23.8299 320.13 23.1927 320.13 22.5283" stroke="#07294A" stroke-width="0.666944"/>
<path d="M332.837 27.891C331.437 27.891 330.302 26.7558 330.302 25.3555" stroke="#79C9E7" stroke-width="0.666944" stroke-linecap="round" stroke-linejoin="round"/>
<path d="M339.38 33.1538L321.455 37.5595" stroke="#07294A" stroke-width="0.666944"/>
<path d="M334.456 26.0763L332.837 26.474" stroke="#07294A" stroke-width="0.666944" stroke-linecap="round"/>
<path d="M322.892 21.867C322.892 21.867 326.384 18.6005 326.44 15.4466C326.44 15.4466 339.619 17.4178 341.59 16.8546L340.182 14.1512C341.766 13.5345 343.292 12.7807 344.744 11.8984C344.744 11.8984 327.792 0.0713043 320.076 12.518C320.076 12.518 314.912 14.996 320.254 21.867" stroke="#07294A" stroke-width="0.666944"/>
<path d="M358.142 63.4706V102.613L302.692 116.241V72.6477C302.692 57.1902 313.245 43.7297 328.256 40.0403H328.256C335.454 38.271 343.067 39.909 348.901 44.4826C354.734 49.0562 358.142 56.0577 358.142 63.4706L358.142 63.4706Z" fill="#79C9E7"/>
<path d="M349.306 89.5071C341.661 98.2983 325.059 97.3356 308.904 92.3629C312.03 98.522 320.479 102.938 330.417 102.938C343.014 102.938 353.227 95.8457 353.227 87.0974C353.226 86.2796 353.137 85.4643 352.959 84.666C351.858 86.3643 350.637 87.982 349.306 89.5071Z" fill="#07294A"/>
<path d="M324.846 267.833L310.95 101.783" stroke="#07294A" stroke-width="0.666944"/>
<path d="M354.683 51.002C354.683 51.002 366.204 70.0769 349.306 89.5072C332.408 108.937 271.754 80.7213 268.881 66.8667C266.009 53.012 268.206 54.1947 271.416 57.067C274.626 59.9393 276.316 59.2635 276.316 59.2635C276.316 59.2635 276.822 53.8568 278.512 55.3774C280.202 56.8981 280.709 59.7704 280.709 59.7704L321.454 70.5838L331.569 53.8568" stroke="#07294A" stroke-width="0.666944"/>
<path d="M319.085 43.7969C319.085 43.7969 304.04 53.1635 297.865 64.3235" stroke="#07294A" stroke-width="0.666944"/>
<path d="M278.568 77.7861C278.568 77.7861 256.998 79.7637 246.185 81.5659C235.371 83.3681 247.536 85.6209 247.536 85.6209C247.536 85.6209 253.168 93.731 262.855 90.5771C262.855 90.5771 282.605 100.039 302.692 94.8574" stroke="#07294A" stroke-width="0.666944"/>
<rect x="109.218" y="122.345" width="132.487" height="96.0658" fill="#D1D1D1"/>
<path d="M241.706 122.345V218.411" stroke="#07294A" stroke-width="0.666944"/>
<path d="M130.73 155.265L129.551 151.305C127.689 145.045 121.933 140.752 115.401 140.752H86.1118L109.218 218.41H241.706L222.917 155.265H130.73Z" fill="#F0F8FF"/>
<path d="M241.706 218.411L222.917 155.265H130.729" stroke="#07294A" stroke-width="0.666944"/>
<path d="M157.53 13.0547V104.687H227.897V38.2951L202.657 13.0547H157.53V13.0547Z" fill="#D1D1D1"/>
<path d="M157.53 104.687H227.897V38.2949" stroke="#07294A" stroke-width="0.666944"/>
<path d="M170.05 52.0242H199.437" stroke="#07294A" stroke-width="0.666944"/>
<path d="M170.05 58.2122H199.437" stroke="#07294A" stroke-width="0.666944"/>
<path d="M170.05 64.3992H199.437" stroke="#07294A" stroke-width="0.666944"/>
<path d="M170.05 70.5872H184.744" stroke="#07294A" stroke-width="0.666944"/>
<path d="M132.556 -3.94922V87.6833H202.924V21.2912L177.683 -3.94922H132.556V-3.94922Z" fill="#F0F8FF"/>
<path d="M132.556 87.6831H202.924V21.291" stroke="#07294A" stroke-width="0.666944"/>
<path d="M202.924 21.2912L177.683 -3.94922V21.2912H202.924V21.2912Z" fill="#79C9E7"/>
<path d="M153.047 35.0203H182.433" stroke="#07294A" stroke-width="0.666944"/>
<path d="M153.047 41.2083H182.433" stroke="#07294A" stroke-width="0.666944"/>
<path d="M153.047 47.3958H182.433" stroke="#07294A" stroke-width="0.666944"/>
<path d="M153.047 53.5833H167.74" stroke="#07294A" stroke-width="0.666944"/>
<path d="M631.394 280.514C632.446 223.131 655.687 113.939 655.687 113.939L677.275 116.137L690.45 189.613L655.687 292.779L626.722 285.953L631.394 280.514Z" fill="#79C9E7"/>
<path d="M685.529 162.17L690.45 189.614L672.056 244.201C667.232 234.915 664.41 223.693 664.41 211.605C664.41 190.678 672.863 172.346 685.529 162.17Z" fill="#07294A"/>
<path d="M664.41 113.078L705.506 110.263L712.978 113.306L716.49 292.78H678.319L682.355 285.547L664.41 113.078Z" fill="#79C9E7"/>
<path d="M695 26.7667V33.2535C695 38.2694 691.576 42.6372 686.705 43.8344L676.382 46.3715V21.0093L684.966 18.8997C687.383 18.3057 689.939 18.8557 691.897 20.3913C693.856 21.9269 695 24.2777 695 26.7667V26.7667Z" fill="#F0F8FF"/>
<path d="M695 33.2534C695 38.2693 691.576 42.6371 686.705 43.8343L676.382 46.3714" stroke="#07294A" stroke-width="0.450544" stroke-linecap="round" stroke-linejoin="round"/>
<path d="M684.483 31.9663C684.208 31.9663 683.985 31.7434 683.985 31.4685C683.985 31.1936 684.208 30.9707 684.483 30.9707C684.758 30.9707 684.981 31.1936 684.981 31.4685C684.981 31.7434 684.758 31.9663 684.483 31.9663Z" fill="#07294A"/>
<path d="M692.129 31.9663C691.854 31.9663 691.631 31.7434 691.631 31.4685C691.631 31.1936 691.854 30.9707 692.129 30.9707C692.404 30.9707 692.627 31.1936 692.627 31.4685C692.627 31.7434 692.404 31.9663 692.129 31.9663Z" fill="#07294A"/>
<path d="M689.886 34.438V26.7666H693.729" stroke="#07294A" stroke-width="0.450544" stroke-linecap="round" stroke-linejoin="round"/>
<path d="M683.545 26.7668H687.389" stroke="#07294A" stroke-width="0.450544" stroke-linecap="round" stroke-linejoin="round"/>
<path d="M677.609 30.6977V33.3617C676.172 33.3617 675.007 32.1968 675.007 30.7597C675.007 30.6799 675.01 30.6009 675.017 30.5229C675.163 28.9071 677.609 29.0753 677.609 30.6977Z" fill="#F0F8FF"/>
<path d="M677.609 33.3613C676.172 33.3613 675.007 32.1963 675.007 30.7593" stroke="#07294A" stroke-width="0.450544" stroke-linecap="round" stroke-linejoin="round"/>
<path d="M687.785 35.3345C687.462 35.6576 687.023 35.8391 686.566 35.8391C686.109 35.8391 685.671 35.6576 685.348 35.3345" stroke="#79C9E7" stroke-width="0.450544" stroke-linecap="round" stroke-linejoin="round"/>
<path d="M689.886 34.4443L688.205 34.8575" stroke="#07294A" stroke-width="0.450544" stroke-linecap="round" stroke-linejoin="round"/>
<path d="M655.686 73.2841V113.939L713.28 128.095V82.816C713.28 66.761 702.319 52.7802 686.728 48.9481H686.728C679.251 47.1104 671.344 48.8118 665.285 53.5622C659.226 58.3126 655.686 65.5847 655.686 73.2841Z" fill="#F0F8FF"/>
<path d="M695 30.7596C695 30.7596 705.505 17.6874 691.631 14.704C677.758 11.7207 674.423 13.5633 673.02 16.7222C671.616 19.881 669.391 34.6222 676.382 36.7281" stroke="#07294A" stroke-width="0.450544" stroke-linecap="round" stroke-linejoin="round"/>
<path d="M694.327 26.7667C690.081 26.441 686.125 24.4875 683.286 21.314C683.286 21.314 682.174 27.9826 678.197 28.5091L677.609 29.6205" stroke="#07294A" stroke-width="0.450544" stroke-linecap="round" stroke-linejoin="round"/>
<path d="M682.233 12.5104C682.233 12.5104 682.672 7.68443 675.827 7.77218C668.983 7.85992 661.633 16.9674 671.538 24.9612" stroke="#07294A" stroke-width="0.450544" stroke-linecap="round" stroke-linejoin="round"/>
<path d="M682.355 285.547L664.41 113.078" stroke="#07294A" stroke-width="0.450544" stroke-linecap="round" stroke-linejoin="round"/>
<path d="M696.269 52.8599C696.269 52.8599 727.445 68.7548 734.816 100.694C742.187 132.633 702.526 161.765 702.526 161.765L692.129 147.375L708.492 111.925L689.046 85.9529" stroke="#07294A" stroke-width="0.450544" stroke-linecap="round" stroke-linejoin="round"/>
<path d="M702.526 161.765L685.861 138.699" stroke="#07294A" stroke-width="0.450544" stroke-linecap="round" stroke-linejoin="round"/>
<path d="M664.41 54.2826C663.193 55.3968 646.018 69.808 644.614 97.5355L637.243 69.106C637.243 69.106 642.508 61.3844 637.243 60.3315C637.243 60.3315 638.296 47.8456 630.926 52.8601C623.555 57.8746 609.005 126.844 652.431 129.914" stroke="#07294A" stroke-width="0.450544" stroke-linecap="round" stroke-linejoin="round"/>
<path d="M804.292 53.2456C804.292 53.2456 798.021 59.1046 789.059 66.6326" stroke="#07294A" stroke-width="0.450544" stroke-linecap="round" stroke-linejoin="round"/>
<path d="M794.047 124.487C794.047 124.487 760.033 222.73 794.047 280.263L790.424 290.479L819.645 278.112L815.988 196.384C815.988 196.384 839.057 145.227 836.786 135.318C834.514 125.409 833.984 110.931 833.984 110.931" fill="#DFEFFF"/>
<path d="M803.613 112.38C803.613 112.38 796.377 230.494 816.816 286.416L812.546 292.689H848.899C848.899 292.689 852.871 142.455 852.871 110.029L803.613 112.38Z" fill="#F0F8FF"/>
<path d="M813.563 20.9948V36.3445L832.579 41.0183V15.1144L813.563 10.4409V20.9948Z" fill="#F0F8FF"/>
<path d="M824.305 26.3054C824.024 26.3054 823.797 26.0778 823.797 25.797C823.797 25.5162 824.024 25.2886 824.305 25.2886C824.586 25.2886 824.813 25.5162 824.813 25.797C824.813 26.0778 824.586 26.3054 824.305 26.3054Z" fill="#07294A"/>
<path d="M816.496 26.3054C816.215 26.3054 815.988 26.0778 815.988 25.797C815.988 25.5162 816.215 25.2886 816.496 25.2886C816.777 25.2886 817.004 25.5162 817.004 25.797C817.004 26.0778 816.777 26.3054 816.496 26.3054Z" fill="#07294A"/>
<path d="M818.787 28.8303V20.9951H814.862" stroke="#07294A" stroke-width="0.450544" stroke-linecap="round" stroke-linejoin="round"/>
<path d="M825.263 20.9947H821.338" stroke="#07294A" stroke-width="0.450544" stroke-linecap="round" stroke-linejoin="round"/>
<path d="M831.327 25.0097V27.7307C832.794 27.7307 833.984 26.5408 833.984 25.0731C833.984 24.9915 833.981 24.9109 833.973 24.8312C833.824 23.1809 831.327 23.3527 831.327 25.0097Z" fill="#F0F8FF"/>
<path d="M831.327 27.7303C832.794 27.7303 833.984 26.5405 833.984 25.0728" stroke="#07294A" stroke-width="0.450544" stroke-linecap="round" stroke-linejoin="round"/>
<path d="M820.504 30.7616C821.989 30.7616 823.194 29.5573 823.194 28.0718" stroke="#79C9E7" stroke-width="0.450544" stroke-linecap="round" stroke-linejoin="round"/>
<path d="M813.563 36.3447L832.579 41.0184" stroke="#07294A" stroke-width="0.450544" stroke-linecap="round" stroke-linejoin="round"/>
<path d="M818.787 28.8364L820.504 29.2584" stroke="#07294A" stroke-width="0.450544" stroke-linecap="round" stroke-linejoin="round"/>
<path d="M831.326 24.6307C831.326 24.6307 828.903 20.2095 828.783 18.2378L828.126 20.9946C828.126 20.9946 823.645 19.612 820.897 16.2065V19.7116C820.897 19.7116 815.61 18.5963 814.251 15.0713V18.3573C814.251 18.3573 812.592 17.2222 812.174 15.4895" stroke="#79C9E7" stroke-width="0.450544" stroke-linecap="round" stroke-linejoin="round"/>
<path d="M813.563 21.3449C813.563 21.3449 803.902 11.0952 817.004 8.26046C826.394 6.22909 831.326 11.2478 831.326 11.2478C831.326 11.2478 834.579 12.8012 835.893 15.43C837.208 18.0588 837.748 24.8101 832.579 29.8288" stroke="#79C9E7" stroke-width="0.450544" stroke-linecap="round" stroke-linejoin="round"/>
<path d="M852.871 68.5059V110.029L794.047 124.487V78.2413C794.047 61.8434 805.242 47.564 821.166 43.6501H821.166C828.803 41.7732 836.878 43.5109 843.067 48.3627C849.256 53.2145 852.871 60.642 852.871 68.5059V68.5059Z" fill="#79C9E7"/>
<path d="M813.563 99.8585C813.563 99.8585 813.531 65.6594 794.047 65.4406C774.564 65.2219 781.344 42.8979 781.344 42.8979L749.412 50.1305C749.412 50.1305 744.162 80.7508 771.065 89.9317C784.812 94.6233 778.93 126.618 778.93 126.618L814.251 122.526V117.81" fill="#F0F8FF"/>
<path d="M749.412 50.1309C749.412 50.1309 744.162 80.7512 771.065 89.9321C784.812 94.6237 778.93 126.618 778.93 126.618" stroke="#07294A" stroke-width="0.450544" stroke-linecap="round" stroke-linejoin="round"/>
<path d="M847.832 53.2456C847.832 53.2456 866.311 77.4466 866.072 105.886C865.833 134.325 821.86 131.696 805.131 108.993C805.131 108.993 794.137 101.345 795.81 99.6722C797.483 97.9993 804.806 99.5987 804.806 99.5987C804.806 99.5987 803.458 95.729 805.489 96.6849C807.52 97.6408 810.243 99.638 810.243 99.638L836.943 101.412L830.855 76.4907" stroke="#07294A" stroke-width="0.450544" stroke-linecap="round" stroke-linejoin="round"/>
<path d="M803.613 112.38C803.613 112.38 796.377 230.494 816.816 286.416" stroke="#07294A" stroke-width="0.450544" stroke-linecap="round" stroke-linejoin="round"/>
<path d="M847.832 53.2456C847.832 53.2456 866.311 77.4466 866.072 105.886C865.833 134.325 821.86 131.696 805.131 108.993C805.131 108.993 794.137 101.345 795.81 99.6722C797.483 97.9993 804.806 99.5987 804.806 99.5987C804.806 99.5987 803.458 95.729 805.489 96.6849C807.52 97.6408 810.243 99.638 810.243 99.638L836.943 101.412L830.855 76.4907" stroke="#07294A" stroke-width="0.450544" stroke-linecap="round" stroke-linejoin="round"/>
<path d="M852.39 124.938V145.078C823.892 138.385 809.592 114.012 809.592 114.012L809.593 114.012C821.229 124.994 839.752 129.294 852.39 124.938Z" fill="#07294A"/>
<path d="M784.399 120.404C784.399 120.404 763.786 126.14 759.664 116.64C755.541 107.141 762.89 80.9718 762.89 80.9718C762.89 80.9718 760.739 76.3116 761.815 75.057C762.89 73.8023 763.965 75.057 763.965 75.057C763.965 75.057 765.668 66.812 768.267 67.4393C770.866 68.0667 772.685 82.5734 773.667 92.6874" stroke="#07294A" stroke-width="0.450544" stroke-linecap="round" stroke-linejoin="round"/>
<path d="M881.073 77.2158C881.103 79.8506 881.291 82.4811 881.636 85.0934C885.552 89.6704 895.403 99.852 908.564 104.687C909.806 103.541 910.929 102.273 911.919 100.904L911.917 100.902C899.49 93.7503 887.132 83.0993 881.081 77.2227L881.073 77.2158Z" fill="#F0F8FF"/>
<path d="M876.069 66.4046L871.543 45.563H885.666L889.106 64.413" fill="#79C9E7"/>
<path d="M871.543 45.563H885.666L887.936 58.0017" stroke="#07294A" stroke-width="0.450544" stroke-linecap="round" stroke-linejoin="round"/>
<path d="M941.925 104.419L910.454 108.213C910.454 108.213 862.383 140.823 881.393 183.732C900.403 226.641 914.525 241.306 914.525 241.306V252.169L935.966 241.849L923.686 173.955L935.966 158.747L941.925 104.419Z" fill="#79C9E7"/>
<path d="M919.765 107.323L969.874 104.419V158.743V292.726H930.493L934.657 285.265L919.765 107.323Z" fill="#79C9E7"/>
<path d="M934.656 285.265L919.765 107.324" stroke="#07294A" stroke-width="0.450544" stroke-linecap="round" stroke-linejoin="round"/>
<path d="M910.454 66.2677V108.213L969.874 122.817V76.102C969.874 59.5376 958.566 45.1132 942.48 41.1596H942.48C934.766 39.2636 926.608 41.0189 920.357 45.92C914.105 50.8211 910.454 58.3239 910.454 66.2677V66.2677Z" fill="#F0F8FF"/>
<path d="M923.688 18.2742V24.9668C923.688 30.1418 927.22 34.6482 932.246 35.8834L942.896 38.501V12.3342L934.04 10.1577C931.547 9.54474 928.91 10.1122 926.889 11.6965C924.868 13.2809 923.688 15.7063 923.688 18.2742V18.2742Z" fill="#F0F8FF"/>
<path d="M923.688 24.9668C923.686 30.1422 927.22 34.6493 932.246 35.8833L933.292 36.1404" stroke="#07294A" stroke-width="0.450544" stroke-linecap="round" stroke-linejoin="round"/>
<path d="M934.538 23.639C934.822 23.639 935.052 23.4091 935.052 23.1254C935.052 22.8418 934.822 22.6118 934.538 22.6118C934.254 22.6118 934.024 22.8418 934.024 23.1254C934.024 23.4091 934.254 23.639 934.538 23.639Z" fill="#07294A"/>
<path d="M926.65 23.639C926.933 23.639 927.163 23.4091 927.163 23.1254C927.163 22.8418 926.933 22.6118 926.65 22.6118C926.366 22.6118 926.136 22.8418 926.136 23.1254C926.136 23.4091 926.366 23.639 926.65 23.639Z" fill="#07294A"/>
<path d="M928.964 26.1891V18.2739H924.999" stroke="#07294A" stroke-width="0.450544" stroke-linecap="round" stroke-linejoin="round"/>
<path d="M935.506 18.2743H931.541" stroke="#07294A" stroke-width="0.450544" stroke-linecap="round" stroke-linejoin="round"/>
<path d="M941.631 22.3299V25.0785C943.114 25.0785 944.315 23.8766 944.315 22.3939C944.315 22.3115 944.312 22.2301 944.304 22.1496C944.154 20.4825 941.631 20.6561 941.631 22.3299Z" fill="#F0F8FF"/>
<path d="M941.631 25.0781C943.114 25.0781 944.315 23.8762 944.315 22.3936" stroke="#07294A" stroke-width="0.450544" stroke-linecap="round" stroke-linejoin="round"/>
<path d="M931.132 27.1138C931.465 27.4471 931.917 27.6344 932.389 27.6344C932.86 27.6344 933.312 27.4471 933.646 27.1138" stroke="#79C9E7" stroke-width="0.450544" stroke-linecap="round" stroke-linejoin="round"/>
<path d="M928.964 26.1953L930.698 26.6216" stroke="#07294A" stroke-width="0.450544" stroke-linecap="round" stroke-linejoin="round"/>
<path d="M923.688 20.9831C923.688 20.9831 932.297 20.5375 934.665 14.0189C934.718 13.8815 934.854 13.7949 935.001 13.8056C935.148 13.8163 935.271 13.9218 935.303 14.0655C935.837 16.3785 937.433 20.746 941.925 21.4719" stroke="#07294A" stroke-width="0.450544" stroke-linecap="round" stroke-linejoin="round"/>
<path d="M923.687 23.1254C923.687 23.1254 918.996 19.9933 921.711 14.2598C924.427 8.52629 934.808 5.44394 940.542 9.91222C940.542 9.91222 952.159 8.5154 950.983 24.967C949.806 41.4185 951.435 44.7681 946.999 45.4923C942.563 46.2166 931.099 41.2375 934.025 36.9826C936.951 32.7277 942.896 24.7619 942.896 24.7619" stroke="#07294A" stroke-width="0.450544" stroke-linecap="round" stroke-linejoin="round"/>
<path d="M922.843 22.3936C922.843 22.3936 917.608 35.0813 919.177 37.8575C920.746 40.6337 928.49 39.2456 928.49 39.2456" stroke="#07294A" stroke-width="0.450544" stroke-linecap="round" stroke-linejoin="round"/>
<path d="M965.874 73.7675C965.874 73.7675 955.891 100.531 938.112 107.324C920.333 114.116 882.614 79.5992 877.759 73.7675C873.8 69.0117 872.448 59.5243 877.759 59.7657C883.07 60.0071 887.898 63.6282 887.898 63.6282C887.898 63.6282 887.898 58.7899 889.83 59.7606C890.602 60.1489 891.375 61.0771 892.024 62.0512C893.502 64.2351 895.545 65.9773 897.935 67.0925L928.489 81.6085L940.164 57.3516" stroke="#07294A" stroke-width="0.450544" stroke-linecap="round" stroke-linejoin="round"/>
<path d="M938.112 107.323C931.313 109.921 921.597 106.474 911.918 100.904C915.737 107.707 924.338 112.453 934.344 112.453C947.894 112.453 958.879 103.753 958.879 93.0197C958.913 91.5676 958.676 90.1218 958.179 88.7568C953.475 96.0933 946.704 104.041 938.112 107.323Z" fill="#07294A"/>
<path d="M918.883 47.1675C918.883 47.1675 906.366 59.0412 903.711 70.629" stroke="#07294A" stroke-width="0.450544" stroke-linecap="round" stroke-linejoin="round"/>
<path d="M881.072 77.2158C881.072 77.2158 880.943 100.078 891.761 107.323C902.579 114.569 911.918 100.904 911.918 100.904" stroke="#07294A" stroke-width="0.450544" stroke-linecap="round" stroke-linejoin="round"/>
<path d="M897.193 66.4046C897.193 66.4046 896.831 52.8855 892.968 50.23C889.106 47.5745 886.089 47.8819 886.213 48.5614C886.337 49.241 888.864 51.6785 890.675 52.7648" stroke="#07294A" stroke-width="0.450544" stroke-linecap="round" stroke-linejoin="round"/>
</g>
<defs>
<linearGradient id="paint0_linear_981_57895" x1="34.8137" y1="100" x2="1165.18" y2="100" gradientUnits="userSpaceOnUse">
<stop stop-color="#79C9E7"/>
<stop offset="0.2" stop-color="#74DAE1"/>
<stop offset="0.4" stop-color="#82E8D3"/>
<stop offset="0.6" stop-color="#A3F3C1"/>
<stop offset="0.8" stop-color="#CDFBB1"/>
<stop offset="1" stop-color="#FDFFAA"/>
</linearGradient>
<clipPath id="clip0_981_57895">
<rect width="1200" height="200" fill="white"/>
</clipPath>
</defs>
</svg>
