<svg width="1200" height="200" viewBox="0 0 1200 200" fill="none" xmlns="http://www.w3.org/2000/svg">
<g clip-path="url(#clip0_994_61435)">
<g opacity="0.5">
<path fill-rule="evenodd" clip-rule="evenodd" d="M250.419 30.374C250.419 15.608 262.389 3.6377 277.155 3.6377H531.083C545.849 3.6377 557.819 15.608 557.819 30.3741V50.0548C557.819 59.8989 565.799 67.879 575.643 67.879H732.17C732.454 67.879 732.737 67.8835 733.02 67.8923C743.896 68.2321 757.443 68.0175 766.797 62.4578C774.943 57.6161 784.447 54.8323 794.542 54.8323C819.762 54.8323 841.287 72.2041 847.188 95.6344C847.834 98.1998 850.213 100 852.859 100V100C856.617 100 860.267 100.509 863.741 101.462C864.704 101.727 865.677 100.999 865.677 100V100C865.677 64.0116 895.124 34.8372 931.449 34.8372C967.774 34.8372 997.221 64.0116 997.221 100C997.221 135.988 967.774 165.163 931.449 165.163C925.738 165.163 920.197 164.442 914.913 163.086C902.987 160.026 887.85 165.222 878.123 172.77C871.125 178.2 862.336 181.439 852.859 181.439C842.633 181.439 833.209 177.669 825.972 171.445C818.75 165.233 808.717 161.297 799.226 162.115C797.681 162.248 796.119 162.316 794.542 162.316C788.29 162.316 782.264 161.248 776.647 159.284C769.026 156.62 758.906 161.552 758.906 169.626V169.626C758.906 184.392 746.936 196.362 732.17 196.362H487.872C473.106 196.362 461.135 184.392 461.135 169.626V149.945C461.135 140.101 453.155 132.121 443.311 132.121H322.907C314.832 132.121 308.017 137.729 304.089 144.785C294.466 162.074 275.89 173.786 254.553 173.786C234.365 173.786 216.649 163.301 206.649 147.529C200.309 137.529 182.528 129.653 170.688 129.653V129.653V129.653C156.48 129.653 131.753 136.166 117.729 138.44C116.259 138.678 114.754 138.802 113.222 138.802C97.8625 138.802 85.1511 126.35 85.1511 110.991C85.1511 95.6313 97.8625 83.1799 113.222 83.1799V83.1799C120.591 83.1799 130.35 78.2006 133.541 71.5585C140.171 57.7604 154.414 48.2141 170.688 48.2141C179.612 48.2141 187.925 51.0849 194.707 55.9533C204.872 63.2494 224.748 68.5804 236.626 64.6484V64.6484C243.98 62.214 250.419 55.92 250.419 48.1735V30.374ZM60.1236 42.0418C46.2748 42.0418 34.8137 53.2685 34.8137 67.1172C34.8137 80.966 46.2748 92.1926 60.1236 92.1926C73.9723 92.1926 85.4334 80.966 85.4334 67.1172C85.4334 53.2685 73.9723 42.0418 60.1236 42.0418ZM309.203 163.532C309.203 149.684 320.664 138.457 334.513 138.457C348.362 138.457 359.823 149.684 359.823 163.532C359.823 177.381 348.362 188.608 334.513 188.608C320.664 188.608 309.203 177.381 309.203 163.532ZM1134.59 88.7516C1151.49 88.7516 1165.18 75.18 1165.18 58.4387C1165.18 41.6974 1151.49 28.1259 1134.59 28.1259C1117.69 28.1259 1103.99 41.6974 1103.99 58.4387C1103.99 61.5144 1104.45 64.483 1105.31 67.2802C1106 69.5276 1103.6 72.4754 1101.25 72.4754V72.4754C1090.46 72.4754 1081.7 81.1456 1081.7 91.8408C1081.7 102.536 1090.46 111.206 1101.25 111.206C1112.05 111.206 1120.8 102.536 1120.8 91.8408V91.8408C1120.8 89.4324 1123.79 86.91 1126.1 87.5709C1128.8 88.3397 1131.64 88.7516 1134.59 88.7516ZM1044.92 148.163C1044.92 146.576 1042.74 145.215 1041.37 146.015C1036.82 148.667 1031.52 150.188 1025.87 150.188C1008.97 150.188 995.271 136.616 995.271 119.875C995.271 103.134 1008.97 89.5621 1025.87 89.5621C1042.76 89.5621 1056.46 103.134 1056.46 119.875C1056.46 120.288 1056.45 120.699 1056.44 121.108C1056.3 124.465 1061.11 128.798 1064.47 128.798V128.798C1075.26 128.798 1084.01 137.468 1084.01 148.163C1084.01 158.858 1075.26 167.529 1064.47 167.529C1053.67 167.529 1044.92 158.858 1044.92 148.163V148.163ZM579.124 63.1221C588.207 63.1221 595.571 55.8265 595.571 46.8269C595.571 37.8274 588.207 30.5318 579.124 30.5318C570.04 30.5318 562.676 37.8274 562.676 46.8269C562.676 55.8265 570.04 63.1221 579.124 63.1221Z" fill="url(#paint0_linear_994_61435)"/>
</g>
<path d="M754.658 100.519L729.469 92.5034L728.67 252.322H757.787L754.658 245.329C768.739 194.834 754.658 100.519 754.658 100.519Z" fill="#79C9E7"/>
<path d="M747.387 198.77C747.387 161.338 739.788 130.994 730.414 130.994C730.029 130.996 729.647 131.048 729.276 131.149L728.67 252.322H740.818C744.815 239.922 747.387 220.547 747.387 198.77Z" fill="#07294A"/>
<path d="M746.354 102.473C746.354 102.473 752.368 200.633 735.382 247.109L738.93 252.322H708.718C708.718 252.322 705.772 132.122 705.772 105.174L746.354 102.473Z" fill="#79C9E7"/>
<path d="M739.938 26.5246V39.2815L724.135 43.1656V21.6376L739.938 17.7534V26.5246V26.5246Z" fill="#F0F8FF"/>
<path d="M729.469 33.2015C729.469 33.2015 733.318 31.9353 734.584 33.8718C734.584 33.8718 736.19 32.0704 738.258 33.5243" stroke="#79C9E7" stroke-width="0.588" stroke-linecap="round" stroke-linejoin="round"/>
<path d="M731.011 30.9383C731.244 30.9383 731.433 30.7492 731.433 30.5158C731.433 30.2824 731.244 30.0933 731.011 30.0933C730.778 30.0933 730.588 30.2824 730.588 30.5158C730.588 30.7492 730.778 30.9383 731.011 30.9383Z" fill="#07294A"/>
<path d="M737.501 30.9383C737.734 30.9383 737.923 30.7492 737.923 30.5158C737.923 30.2824 737.734 30.0933 737.501 30.0933C737.268 30.0933 737.078 30.2824 737.078 30.5158C737.078 30.7492 737.268 30.9383 737.501 30.9383Z" fill="#07294A"/>
<path d="M735.597 33.0367V26.5249H738.859" stroke="#07294A" stroke-width="0.588"/>
<path d="M730.215 26.5246H733.477" stroke="#07294A" stroke-width="0.588"/>
<path d="M725.176 29.8612V32.1225C723.956 32.1225 722.967 31.1337 722.967 29.9139C722.967 29.8461 722.97 29.7791 722.976 29.7128C723.1 28.3413 725.176 28.4841 725.176 29.8612Z" fill="#F0F8FF"/>
<path d="M725.176 32.1227C723.956 32.1227 722.967 31.1339 722.967 29.9141" stroke="#07294A" stroke-width="0.588"/>
<path d="M733.677 34.642C732.987 34.642 732.428 34.0826 732.428 33.3926" stroke="#79C9E7" stroke-width="0.588" stroke-linecap="round" stroke-linejoin="round"/>
<path d="M728.67 42.0513L724.135 43.1659" stroke="#07294A" stroke-width="0.588"/>
<path d="M735.597 33.0416L734.17 33.3923" stroke="#07294A" stroke-width="0.588" stroke-linecap="round"/>
<path d="M754.658 66.0101V100.519L705.772 112.535V74.101C705.772 60.4731 715.075 48.606 728.309 45.3533H728.309C734.656 43.7934 741.367 45.2375 746.511 49.2697C751.654 53.302 754.658 59.4747 754.658 66.0101L754.658 66.0101Z" fill="#F0F8FF"/>
<path d="M725.953 30.516C725.953 30.516 723.569 38.3405 729.13 42.4121C734.308 46.2029 742.47 43.9835 740.538 35.1164C740.137 33.2659 739.936 31.3778 739.938 29.4844V28.9561" stroke="#79C9E7" stroke-width="0.588" stroke-linecap="round" stroke-linejoin="round"/>
<path d="M724.071 28.7551C724.071 28.7551 718.814 19.1275 726.909 17.3928C726.909 17.3928 730.201 13.281 734.883 15.2726C739.566 17.2643 741.815 15.8663 741.879 17.7539C741.943 19.6414 742.173 22.7895 739.938 24.3957" stroke="#79C9E7" stroke-width="0.588" stroke-linecap="round" stroke-linejoin="round"/>
<path d="M727.343 28.7534L728.67 23.345C728.67 23.345 738.332 23.4939 739.938 20.8623" stroke="#79C9E7" stroke-width="0.588" stroke-linecap="round" stroke-linejoin="round"/>
<path d="M746.354 102.473C746.354 102.473 752.368 200.633 735.382 247.109L738.93 252.322" stroke="#07294A" stroke-width="0.588"/>
<path d="M715.79 51.9004C715.79 51.9004 707.581 84.3195 717.512 96.4349C727.442 108.55 773.918 101.4 787.423 88.2918C787.423 88.2918 792.19 87.1001 793.183 84.7167C793.183 84.7167 797.751 88.0932 797.553 85.9084C797.354 83.7237 795.765 76.9153 787.622 78.6313C779.479 80.3472 739.938 81.1417 739.938 81.1417L740.828 64.061" stroke="#07294A" stroke-width="0.588"/>
<path d="M752.405 56.4531C752.405 56.4531 758.377 68.03 757.607 80.6436" stroke="#07294A" stroke-width="0.588"/>
<path d="M755.669 108.002C755.669 108.002 771.583 114.322 778.311 94.2559" stroke="#07294A" stroke-width="0.588"/>
<path d="M763.006 80.4409C763.006 80.4409 779.867 71.7322 782.458 75.382L785.049 79.0317" stroke="#07294A" stroke-width="0.588"/>
<path d="M920.587 14.728H812.08V84.013L777.19 118.903V252.322H763.006" stroke="#07294A" stroke-width="0.588"/>
<rect x="816.788" y="132.246" width="119.191" height="69.6042" fill="#07294A"/>
<rect x="801.396" y="116.854" width="119.191" height="69.6042" fill="#F0F8FF"/>
<path d="M920.587 116.892V186.496L801.396 186.42" stroke="#07294A" stroke-width="0.588"/>
<path d="M860.991 173.564C873.091 173.564 882.899 163.755 882.899 151.656C882.899 139.556 873.091 129.747 860.991 129.747C848.891 129.747 839.083 139.556 839.083 151.656C839.083 163.755 848.891 173.564 860.991 173.564Z" fill="#79C9E7"/>
<path d="M814.832 177.544C817.301 177.544 819.302 175.543 819.302 173.074C819.302 170.605 817.301 168.604 814.832 168.604C812.364 168.604 810.362 170.605 810.362 173.074C810.362 175.543 812.364 177.544 814.832 177.544Z" fill="#D1D1D1"/>
<path d="M907.15 134.707C909.618 134.707 911.62 132.706 911.62 130.237C911.62 127.768 909.618 125.767 907.15 125.767C904.681 125.767 902.679 127.768 902.679 130.237C902.679 132.706 904.681 134.707 907.15 134.707Z" fill="#D1D1D1"/>
<path d="M907.15 177.544C909.618 177.544 911.62 175.543 911.62 173.074C911.62 170.605 909.618 168.604 907.15 168.604C904.681 168.604 902.679 170.605 902.679 173.074C902.679 175.543 904.681 177.544 907.15 177.544Z" fill="#D1D1D1"/>
<path d="M814.832 134.707C817.301 134.707 819.302 132.706 819.302 130.237C819.302 127.768 817.301 125.767 814.832 125.767C812.364 125.767 810.362 127.768 810.362 130.237C810.362 132.706 812.364 134.707 814.832 134.707Z" fill="#D1D1D1"/>
<path d="M860.991 151.656C857.559 151.656 854.776 148.873 854.776 145.441C854.776 142.009 857.559 139.227 860.991 139.227C864.423 139.227 867.205 142.009 867.205 145.441" stroke="white" stroke-width="0.588"/>
<path d="M860.991 151.656C863.504 151.656 865.77 153.17 866.732 155.492C867.694 157.814 867.162 160.487 865.385 162.265C863.608 164.042 860.935 164.574 858.613 163.612C856.29 162.65 854.776 160.384 854.776 157.87" stroke="white" stroke-width="0.588"/>
<path d="M860.991 135.658V167.653" stroke="white" stroke-width="0.588"/>
<path d="M627.867 117.602C627.867 117.602 734.981 218.73 572.581 225.948L567.167 232.714L559.498 197.528L615.887 180.521L607.255 109.561" fill="#DFEFFF"/>
<path d="M624.551 209.472C624.551 196.949 621.079 185.737 615.606 178.207L615.887 180.521L575.973 192.559C573.029 203.433 572.973 214.887 575.812 225.789C595.847 224.72 611.634 222.179 623.926 218.554C624.344 215.545 624.553 212.51 624.551 209.472V209.472Z" fill="#07294A"/>
<path d="M619.841 107.445C619.841 107.445 625.913 206.54 608.765 253.458L612.347 258.721H581.847C581.847 258.721 578.515 132.677 578.515 105.472L619.841 107.445Z" fill="#F0F8FF"/>
<path d="M610.142 30.7735V43.6519L594.188 47.5732V25.8402L610.142 21.9189V30.7735Z" fill="#F0F8FF"/>
<path d="M601.13 35.2296C601.366 35.2296 601.557 35.0386 601.557 34.803C601.557 34.5674 601.366 34.3765 601.13 34.3765C600.894 34.3765 600.703 34.5674 600.703 34.803C600.703 35.0386 600.894 35.2296 601.13 35.2296Z" fill="#07294A"/>
<path d="M607.682 35.2296C607.917 35.2296 608.108 35.0386 608.108 34.803C608.108 34.5674 607.917 34.3765 607.682 34.3765C607.446 34.3765 607.255 34.5674 607.255 34.803C607.255 35.0386 607.446 35.2296 607.682 35.2296Z" fill="#07294A"/>
<path d="M605.76 37.3474V30.7734H609.053" stroke="#07294A" stroke-width="0.378" stroke-linecap="round" stroke-linejoin="round"/>
<path d="M600.326 30.7739H603.62" stroke="#07294A" stroke-width="0.378" stroke-linecap="round" stroke-linejoin="round"/>
<path d="M609.565 29.6973H609.565" stroke="#07294A" stroke-width="0.378" stroke-linecap="round" stroke-linejoin="round"/>
<path d="M595.239 34.1423V36.4251C594.008 36.4251 593.01 35.4268 593.01 34.1954C593.01 34.127 593.013 34.0594 593.019 33.9925C593.144 32.6079 595.239 32.7521 595.239 34.1423Z" fill="#F0F8FF"/>
<path d="M595.239 36.425C594.008 36.425 593.01 35.4267 593.01 34.1953" stroke="#07294A" stroke-width="0.378" stroke-linecap="round" stroke-linejoin="round"/>
<path d="M604.319 38.9681C603.721 38.9681 603.147 38.7304 602.723 38.3072C602.3 37.8839 602.062 37.3099 602.062 36.7114" stroke="#79C9E7" stroke-width="0.378" stroke-linecap="round" stroke-linejoin="round"/>
<path d="M597.521 46.7539L594.188 47.5731" stroke="#07294A" stroke-width="0.378" stroke-linecap="round" stroke-linejoin="round"/>
<path d="M605.76 37.3525L604.319 37.7066" stroke="#07294A" stroke-width="0.378" stroke-linecap="round" stroke-linejoin="round"/>
<path d="M578.515 70.6346V105.472L627.867 117.602V78.8025C627.867 65.0449 618.475 53.0647 605.115 49.781H605.115C598.708 48.2063 591.932 49.6641 586.74 53.7348C581.548 57.8054 578.515 64.0369 578.515 70.6346V70.6346Z" fill="#79C9E7"/>
<path d="M619.841 107.445C619.841 107.445 625.913 206.54 608.765 253.458" stroke="#07294A" stroke-width="0.378" stroke-linecap="round" stroke-linejoin="round"/>
<path d="M597.201 30.7739C597.201 30.7739 595.347 37.5396 597.527 38.9682C599.708 40.3968 602.562 36.1018 607.131 38.4296C612.654 41.2434 610.142 31.7996 610.142 31.7996" stroke="#07294A" stroke-width="0.378" stroke-linecap="round" stroke-linejoin="round"/>
<path d="M595.239 37.0321C595.239 37.0321 592.569 45.2156 599.16 47.5733C605.752 49.931 614.327 46.1004 611.563 36.7114" stroke="#07294A" stroke-width="0.378" stroke-linecap="round" stroke-linejoin="round"/>
<path d="M596.224 30.7738C596.224 30.7738 601.13 32.5764 605.76 27.2129C605.76 27.2129 607.656 29.876 610.712 29.6974" stroke="#07294A" stroke-width="0.378" stroke-linecap="round" stroke-linejoin="round"/>
<path d="M611.192 32.2827C611.192 32.2827 614.619 20.8599 605.76 19.8677C596.9 18.8755 593.119 24.4158 591.56 28.6681C590.001 32.9205 592.011 37.3909 594.124 39.2663" stroke="#07294A" stroke-width="0.378" stroke-linecap="round" stroke-linejoin="round"/>
<path d="M586.569 53.8726C586.569 53.8726 561.192 77.2887 562.796 106.362C564.4 135.435 622.546 111.374 624.351 101.75C626.155 92.126 614.825 97.9406 614.825 97.9406C614.825 97.9406 615.927 93.4293 614.825 94.2313C613.722 95.0333 611.01 98.0409 611.01 98.0409L585.854 98.3417L591.006 84.1058" stroke="#07294A" stroke-width="0.378" stroke-linecap="round" stroke-linejoin="round"/>
<path d="M607.255 98.086C607.255 98.086 607.122 80.497 627.867 76.6874C627.867 76.6874 624.346 71.4494 626.403 69.557C627.641 68.4188 629.603 69.8694 630.97 71.2063C631.719 71.9368 632.898 71.9847 633.704 71.3174C634.482 70.6804 635.694 70.2262 637.484 70.8226C638.837 71.2738 639.366 72.021 639.498 72.7787C639.663 73.8952 640.694 74.6724 641.812 74.5244C643.312 74.305 644.651 74.5299 643.799 76.3866C642.145 79.9957 638.987 79.9957 638.987 79.9957C638.987 79.9957 660.943 126.088 615.528 120.26" stroke="#07294A" stroke-width="0.378" stroke-linecap="round" stroke-linejoin="round"/>
<path d="M643.099 109.561C643.099 109.561 644.251 124.508 636.581 129.32" stroke="#07294A" stroke-width="0.378" stroke-linecap="round" stroke-linejoin="round"/>
<path d="M507.789 188.305L504.773 249.513L509.684 258.634H479.846L476.431 181.974" fill="#DFEFFF"/>
<path d="M502.216 104.26L466.912 101.841L460.492 104.455L457.475 258.634H490.266L486.799 252.421L502.216 104.26Z" fill="#F0F8FF"/>
<path d="M459.214 169.763L494.967 173.922L492.484 197.792C483.442 199.494 471.264 200.798 458.638 199.24L459.214 169.763Z" fill="#07294A"/>
<path d="M507.51 193.965C507.51 193.965 494.402 198.643 477.221 199.719L476.431 181.974L507.788 188.305L507.51 193.965Z" fill="#07294A"/>
<path d="M490.266 258.634L486.799 252.421L502.216 104.259" stroke="#07294A" stroke-width="0.378" stroke-linecap="round" stroke-linejoin="round"/>
<path d="M494.786 30.1127V35.6853C494.786 39.9942 491.844 43.7465 487.66 44.7749L478.792 46.9545V25.1668L486.166 23.3545C488.242 22.8442 490.438 23.3166 492.121 24.6358C493.803 25.955 494.786 27.9745 494.786 30.1127V30.1127Z" fill="#F0F8FF"/>
<path d="M494.786 35.6855C494.786 39.9945 491.844 43.7467 487.66 44.7752L478.792 46.9547" stroke="#07294A" stroke-width="0.378" stroke-linecap="round" stroke-linejoin="round"/>
<path d="M485.751 34.5794C485.515 34.5794 485.324 34.3879 485.324 34.1518C485.324 33.9156 485.515 33.7241 485.751 33.7241C485.987 33.7241 486.179 33.9156 486.179 34.1518C486.179 34.3879 485.987 34.5794 485.751 34.5794Z" fill="#07294A"/>
<path d="M492.32 34.5794C492.083 34.5794 491.892 34.3879 491.892 34.1518C491.892 33.9156 492.083 33.7241 492.32 33.7241C492.556 33.7241 492.747 33.9156 492.747 34.1518C492.747 34.3879 492.556 34.5794 492.32 34.5794Z" fill="#07294A"/>
<path d="M490.393 36.703V30.1128H493.694" stroke="#07294A" stroke-width="0.378" stroke-linecap="round" stroke-linejoin="round"/>
<path d="M484.946 30.1127H488.247" stroke="#07294A" stroke-width="0.378" stroke-linecap="round" stroke-linejoin="round"/>
<path d="M479.846 33.4893V35.7779C478.611 35.7779 477.61 34.7771 477.61 33.5426C477.61 33.474 477.613 33.4062 477.62 33.3391C477.745 31.9511 479.846 32.0956 479.846 33.4893Z" fill="#F0F8FF"/>
<path d="M479.846 35.7778C478.611 35.7778 477.61 34.777 477.61 33.5425" stroke="#07294A" stroke-width="0.378" stroke-linecap="round" stroke-linejoin="round"/>
<path d="M488.587 37.4731C488.31 37.7507 487.933 37.9067 487.541 37.9067C487.148 37.9067 486.772 37.7507 486.494 37.4731" stroke="#79C9E7" stroke-width="0.378" stroke-linecap="round" stroke-linejoin="round"/>
<path d="M490.393 36.708L488.949 37.0629" stroke="#07294A" stroke-width="0.378" stroke-linecap="round" stroke-linejoin="round"/>
<path d="M460.208 70.0739V104.999L509.684 117.16V78.2624C509.684 64.4701 500.268 52.4597 486.874 49.1678H486.874C480.451 47.5891 473.659 49.0507 468.453 53.1315C463.248 57.2124 460.208 63.4596 460.208 70.0739V70.0739Z" fill="#79C9E7"/>
<path d="M495.125 33.1007C489.999 33.0253 486.789 26.8442 486.789 26.8442C486.789 26.8442 484.517 33.3504 479.393 32.5848" stroke="#07294A" stroke-width="0.378" stroke-linecap="round" stroke-linejoin="round"/>
<path d="M492.32 42.2215L502.361 47.5734C502.361 47.5734 502.962 15.5767 481.371 20.2608C481.303 20.2756 481.233 20.2888 481.165 20.3003C480.281 20.4484 473.237 21.8898 473.943 30.1126C474.387 35.2698 478.792 37.9064 478.792 37.9064" stroke="#07294A" stroke-width="0.378" stroke-linecap="round" stroke-linejoin="round"/>
<path d="M499.12 97.5945C499.12 97.5945 498.987 79.9611 519.784 76.1419C519.784 76.1419 516.254 70.8908 518.317 68.9936C519.558 67.8525 521.525 69.3068 522.895 70.6471C523.646 71.3794 524.828 71.4274 525.636 70.7584C526.416 70.1198 527.631 69.6645 529.425 70.2624C530.782 70.7147 531.312 71.4638 531.444 72.2234C531.61 73.3427 532.643 74.1219 533.765 73.9734C535.268 73.7535 536.61 73.979 535.757 75.8404C534.098 79.4586 530.933 79.4586 530.933 79.4586C530.933 79.4586 552.943 125.667 507.414 119.824" stroke="#07294A" stroke-width="0.378" stroke-linecap="round" stroke-linejoin="round"/>
<path d="M460.208 105L495.125 106.595L509.684 117.16V194.034C509.684 194.034 441.455 192.527 421.857 174.134L460.208 105Z" fill="#79C9E7"/>
<path d="M466.928 54.4487C466.928 54.4487 450.453 68.8476 452.724 94.0495C454.994 119.251 488.597 121.976 512.436 107.672C536.276 93.3684 512.436 96.32 512.436 96.32C512.436 96.32 512.436 93.1414 511.528 93.3684C510.62 93.5954 507.895 97.2281 507.895 97.2281L472.25 93.8225L477.61 79.0646" stroke="#07294A" stroke-width="0.378" stroke-linecap="round" stroke-linejoin="round"/>
<path d="M514.264 77.6313C514.264 77.6313 507.604 63.5186 501.364 57.5435" stroke="#07294A" stroke-width="0.378" stroke-linecap="round" stroke-linejoin="round"/>
<path d="M350.996 117.602C350.996 117.602 458.111 218.73 295.71 225.948L290.297 232.714L282.628 197.528L339.017 180.521L330.385 109.561" fill="#DFEFFF"/>
<path d="M347.68 209.472C347.68 196.949 344.208 185.737 338.735 178.207L339.017 180.521L299.103 192.559C296.158 203.433 296.103 214.887 298.941 225.789C318.976 224.72 334.763 222.179 347.055 218.554C347.474 215.545 347.682 212.51 347.68 209.472V209.472Z" fill="#07294A"/>
<path d="M342.971 107.445C342.971 107.445 349.042 206.54 331.894 253.458L335.476 258.721H304.976C304.976 258.721 301.644 132.677 301.644 105.472L342.971 107.445Z" fill="#F0F8FF"/>
<path d="M333.272 30.7735V43.6519L317.318 47.5732V25.8402L333.272 21.9189V30.7735Z" fill="#F0F8FF"/>
<path d="M324.259 35.2296C324.495 35.2296 324.686 35.0386 324.686 34.803C324.686 34.5674 324.495 34.3765 324.259 34.3765C324.024 34.3765 323.833 34.5674 323.833 34.803C323.833 35.0386 324.024 35.2296 324.259 35.2296Z" fill="#07294A"/>
<path d="M330.811 35.2296C331.047 35.2296 331.238 35.0386 331.238 34.803C331.238 34.5674 331.047 34.3765 330.811 34.3765C330.576 34.3765 330.385 34.5674 330.385 34.803C330.385 35.0386 330.576 35.2296 330.811 35.2296Z" fill="#07294A"/>
<path d="M328.889 37.3474V30.7734H332.182" stroke="#07294A" stroke-width="0.378" stroke-linecap="round" stroke-linejoin="round"/>
<path d="M323.456 30.7739H326.749" stroke="#07294A" stroke-width="0.378" stroke-linecap="round" stroke-linejoin="round"/>
<path d="M332.695 29.6973H332.695" stroke="#07294A" stroke-width="0.378" stroke-linecap="round" stroke-linejoin="round"/>
<path d="M318.369 34.1423V36.4251C317.137 36.4251 316.139 35.4268 316.139 34.1954C316.139 34.127 316.142 34.0594 316.148 33.9925C316.273 32.6079 318.369 32.7521 318.369 34.1423Z" fill="#F0F8FF"/>
<path d="M318.369 36.425C317.137 36.425 316.139 35.4267 316.139 34.1953" stroke="#07294A" stroke-width="0.378" stroke-linecap="round" stroke-linejoin="round"/>
<path d="M327.449 38.9681C326.85 38.9681 326.276 38.7304 325.853 38.3072C325.43 37.8839 325.192 37.3099 325.192 36.7114" stroke="#79C9E7" stroke-width="0.378" stroke-linecap="round" stroke-linejoin="round"/>
<path d="M320.65 46.7539L317.318 47.5731" stroke="#07294A" stroke-width="0.378" stroke-linecap="round" stroke-linejoin="round"/>
<path d="M328.889 37.3525L327.449 37.7066" stroke="#07294A" stroke-width="0.378" stroke-linecap="round" stroke-linejoin="round"/>
<path d="M301.644 70.6346V105.472L350.996 117.602V78.8025C350.996 65.0449 341.604 53.0647 328.244 49.781H328.244C321.837 48.2063 315.062 49.6641 309.869 53.7348C304.677 57.8054 301.644 64.0369 301.644 70.6346V70.6346Z" fill="#79C9E7"/>
<path d="M342.971 107.445C342.971 107.445 349.042 206.54 331.894 253.458" stroke="#07294A" stroke-width="0.378" stroke-linecap="round" stroke-linejoin="round"/>
<path d="M320.331 30.7739C320.331 30.7739 318.476 37.5396 320.657 38.9682C322.837 40.3968 325.692 36.1018 330.261 38.4296C335.784 41.2434 333.272 31.7996 333.272 31.7996" stroke="#07294A" stroke-width="0.378" stroke-linecap="round" stroke-linejoin="round"/>
<path d="M318.369 37.0321C318.369 37.0321 315.699 45.2156 322.29 47.5733C328.881 49.931 337.457 46.1004 334.693 36.7114" stroke="#07294A" stroke-width="0.378" stroke-linecap="round" stroke-linejoin="round"/>
<path d="M319.353 30.7738C319.353 30.7738 324.259 32.5764 328.889 27.2129C328.889 27.2129 330.786 29.876 333.842 29.6974" stroke="#07294A" stroke-width="0.378" stroke-linecap="round" stroke-linejoin="round"/>
<path d="M334.321 32.2827C334.321 32.2827 337.748 20.8599 328.889 19.8677C320.03 18.8755 316.249 24.4158 314.689 28.6681C313.13 32.9205 315.14 37.3909 317.254 39.2663" stroke="#07294A" stroke-width="0.378" stroke-linecap="round" stroke-linejoin="round"/>
<path d="M309.698 53.8726C309.698 53.8726 284.321 77.2887 285.925 106.362C287.529 135.435 345.675 111.374 347.48 101.75C349.284 92.126 337.954 97.9406 337.954 97.9406C337.954 97.9406 339.057 93.4293 337.954 94.2313C336.851 95.0333 334.14 98.0409 334.14 98.0409L308.983 98.3417L314.135 84.1058" stroke="#07294A" stroke-width="0.378" stroke-linecap="round" stroke-linejoin="round"/>
<path d="M330.385 98.086C330.385 98.086 330.252 80.497 350.996 76.6874C350.996 76.6874 347.475 71.4494 349.533 69.557C350.77 68.4188 352.732 69.8694 354.1 71.2063C354.848 71.9368 356.028 71.9847 356.833 71.3174C357.611 70.6804 358.824 70.2262 360.613 70.8226C361.966 71.2738 362.495 72.021 362.627 72.7787C362.792 73.8952 363.823 74.6724 364.942 74.5244C366.442 74.305 367.78 74.5299 366.929 76.3866C365.275 79.9957 362.117 79.9957 362.117 79.9957C362.117 79.9957 384.072 126.088 338.658 120.26" stroke="#07294A" stroke-width="0.378" stroke-linecap="round" stroke-linejoin="round"/>
<path d="M366.228 109.561C366.228 109.561 367.38 124.508 359.711 129.32" stroke="#07294A" stroke-width="0.378" stroke-linecap="round" stroke-linejoin="round"/>
<rect x="842.28" y="42.9155" width="40.8699" height="29.749" stroke="#07294A" stroke-width="0.5"/>
<rect x="842.53" y="43.1655" width="40.3699" height="14.6245" fill="#E04141"/>
<rect x="842.53" y="57.79" width="40.3699" height="14.6245" fill="white"/>
</g>
<defs>
<linearGradient id="paint0_linear_994_61435" x1="34.8137" y1="100" x2="1165.18" y2="100" gradientUnits="userSpaceOnUse">
<stop stop-color="#FFF2C5"/>
<stop offset="0.2" stop-color="#FFF4BF"/>
<stop offset="0.4" stop-color="#FFF7BA"/>
<stop offset="0.6" stop-color="#FFF9B4"/>
<stop offset="0.8" stop-color="#FFFCAF"/>
<stop offset="1" stop-color="#FDFFAA"/>
</linearGradient>
<clipPath id="clip0_994_61435">
<rect width="1200" height="200" fill="white"/>
</clipPath>
</defs>
</svg>
