<svg width="1200" height="200" viewBox="0 0 1200 200" fill="none" xmlns="http://www.w3.org/2000/svg">
<g clip-path="url(#clip0_981_57462)">
<g opacity="0.5">
<path fill-rule="evenodd" clip-rule="evenodd" d="M758.361 49.8724C758.361 63.1491 747.498 73.9119 734.097 73.9119C720.696 73.9119 709.833 63.1491 709.833 49.8724C709.833 36.5958 720.696 25.833 734.097 25.833C747.498 25.833 758.361 36.5958 758.361 49.8724ZM1134.59 88.7514C1151.49 88.7514 1165.18 75.1799 1165.18 58.4386C1165.18 41.6973 1151.49 28.1258 1134.59 28.1258C1117.69 28.1258 1103.99 41.6973 1103.99 58.4386C1103.99 61.5143 1104.45 64.4829 1105.31 67.2801C1106 69.5275 1103.6 72.4753 1101.25 72.4753V72.4753C1090.46 72.4753 1081.7 81.1455 1081.7 91.8406C1081.7 102.536 1090.46 111.206 1101.25 111.206C1112.05 111.206 1120.8 102.536 1120.8 91.8406V91.8406C1120.8 89.4323 1123.79 86.9099 1126.1 87.5708C1128.8 88.3396 1131.64 88.7514 1134.59 88.7514ZM60.1238 42.0417C46.275 42.0417 34.814 53.2683 34.814 67.1171C34.814 80.9659 46.275 92.1925 60.1238 92.1925C73.9726 92.1925 85.4336 80.9659 85.4336 67.1171C85.4336 53.2683 73.9726 42.0417 60.1238 42.0417ZM170.688 48.2139C154.414 48.2139 140.171 57.7603 133.541 71.5584C130.35 78.2005 120.591 83.1798 113.222 83.1798V83.1798C97.8627 83.1798 85.1513 95.6311 85.1513 110.991C85.1513 126.35 97.8627 138.802 113.222 138.802C114.754 138.802 116.26 138.678 117.729 138.44C131.754 136.165 156.48 129.652 170.688 129.652V129.652V129.652C182.528 129.652 200.309 137.529 206.649 147.528C216.649 163.301 234.365 173.786 254.553 173.786C270.06 173.786 284.109 167.6 294.322 157.583C305.286 146.83 330.333 138.083 345.595 139.784C347.692 140.018 349.824 140.138 351.984 140.138C383.205 140.138 408.514 115.063 408.514 84.1319C408.514 53.2006 383.205 28.1258 351.984 28.1258C336.477 28.1258 322.428 34.3118 312.215 44.3289C301.252 55.0817 276.204 63.8282 260.943 62.1273C258.845 61.8936 256.714 61.7736 254.553 61.7736C250.685 61.7736 246.908 62.1585 243.258 62.8918C228.452 65.8665 202.634 59.3608 189.138 52.5837C183.572 49.7888 177.298 48.2139 170.688 48.2139ZM740.298 108.574C740.298 78.8931 764.862 54.8322 794.542 54.8322C819.762 54.8322 841.287 72.204 847.188 95.6342C847.834 98.1997 850.213 99.9999 852.859 99.9999V99.9999C856.617 99.9999 860.267 100.509 863.741 101.462C864.704 101.727 865.677 100.999 865.677 99.9998V99.9998C865.677 64.0114 895.124 34.8371 931.449 34.8371C967.774 34.8371 997.221 64.0114 997.221 99.9998C997.221 135.988 967.774 165.163 931.449 165.163C925.738 165.163 920.197 164.441 914.913 163.086C902.987 160.026 887.85 165.222 878.123 172.77C871.125 178.2 862.336 181.438 852.859 181.438C842.633 181.438 833.209 177.669 825.972 171.445C818.75 165.233 808.717 161.297 799.226 162.114C797.681 162.247 796.119 162.315 794.542 162.315C764.862 162.315 740.298 138.254 740.298 108.574ZM309.203 163.532C309.203 149.683 320.664 138.457 334.513 138.457C348.362 138.457 359.823 149.683 359.823 163.532C359.823 177.381 348.362 188.608 334.513 188.608C320.664 188.608 309.203 177.381 309.203 163.532ZM1044.92 148.163C1044.92 146.576 1042.74 145.215 1041.37 146.014C1036.82 148.666 1031.52 150.188 1025.87 150.188C1008.97 150.188 995.271 136.616 995.271 119.875C995.271 103.133 1008.97 89.5619 1025.87 89.5619C1042.76 89.5619 1056.46 103.133 1056.46 119.875C1056.46 120.288 1056.45 120.699 1056.44 121.108C1056.3 124.464 1061.11 128.798 1064.47 128.798V128.798C1075.26 128.798 1084.01 137.468 1084.01 148.163C1084.01 158.858 1075.26 167.528 1064.47 167.528C1053.67 167.528 1044.92 158.858 1044.92 148.163V148.163ZM579.123 63.122C588.207 63.122 595.571 55.8264 595.571 46.8268C595.571 37.8273 588.207 30.5317 579.123 30.5317C570.04 30.5317 562.676 37.8273 562.676 46.8268C562.676 55.8264 570.04 63.122 579.123 63.122ZM460.506 188.607C491.727 188.607 517.036 163.533 517.036 132.601V132.601C517.036 130.911 519.265 129.898 520.568 130.975C527.628 136.813 536.715 140.325 546.631 140.325C555.885 140.325 564.418 137.265 571.255 132.111C572.222 131.382 573.766 132.198 573.766 133.409V133.409C573.766 146.685 584.629 157.448 598.03 157.448C611.431 157.448 622.294 146.685 622.294 133.409V133.409C622.294 132.58 623.368 132.094 623.967 132.668C633.47 141.78 646.417 147.387 660.686 147.387C689.85 147.387 713.492 123.964 713.492 95.0704C713.492 66.1767 689.85 42.7537 660.686 42.7537C631.522 42.7537 607.881 66.1767 607.881 95.0704C607.881 96.6402 607.95 98.1937 608.087 99.7283C608.482 104.159 602.479 109.369 598.03 109.369V109.369C597.935 109.369 597.839 109.37 597.744 109.371C593.304 109.422 587.333 104.44 587.333 100V100C587.333 77.7292 569.11 59.675 546.631 59.675C542.887 59.675 539.261 60.1758 535.818 61.1135C519.441 65.5732 478.156 76.7965 461.183 76.5991C460.958 76.5965 460.732 76.5952 460.506 76.5952C429.286 76.5952 403.977 101.67 403.977 132.601C403.977 163.533 429.286 188.607 460.506 188.607Z" fill="url(#paint0_linear_981_57462)"/>
</g>
<path d="M128.406 7.69469L128.406 7.69465C139.943 -3.84164 158.647 -3.84164 170.183 7.69465L213.927 51.4382L172.15 93.2149L128.406 49.4713C122.866 43.9314 119.754 36.4176 119.754 28.583C119.754 20.7484 122.866 13.2346 128.406 7.69469Z" fill="#79C9E7"/>
<path d="M172.228 93.2148L130.451 51.4382L174.194 7.69461C179.734 2.15468 187.248 -0.957619 195.083 -0.95762C202.917 -0.957622 210.431 2.15467 215.971 7.6946L215.971 7.69464C221.511 13.2346 224.623 20.7483 224.623 28.583C224.623 36.4176 221.511 43.9313 215.971 49.4713L172.228 93.2148L172.228 93.2148Z" fill="#79C9E7"/>
<path d="M213.927 51.438L172.15 93.2147" stroke="#07294A" stroke-width="0.666944"/>
<path d="M172.228 93.215L215.971 49.4714C221.511 43.9315 224.623 36.4178 224.623 28.5831C224.623 20.7485 221.511 13.2347 215.971 7.69482" stroke="#07294A" stroke-width="0.666944"/>
<rect x="119.957" y="185.48" width="37.0088" height="7.96841" fill="#07294A"/>
<path d="M146.073 273.458V167.376L138.461 162.981L130.85 167.376V273.458" fill="#F0F8FF"/>
<path d="M146.073 273.458V167.376L138.461 162.981L130.85 167.376" stroke="#07294A" stroke-width="0.666944"/>
<path d="M138.461 190.195C138.864 190.195 139.191 189.868 139.191 189.465C139.191 189.061 138.864 188.734 138.461 188.734C138.057 188.734 137.73 189.061 137.73 189.465C137.73 189.868 138.057 190.195 138.461 190.195Z" fill="#07294A"/>
<rect x="146.073" y="185.48" width="37.0088" height="7.96841" fill="#07294A"/>
<path d="M172.189 273.458V167.376L164.577 162.981L156.965 167.376V273.458" fill="#F0F8FF"/>
<path d="M172.189 273.458V167.376L164.577 162.981L156.965 167.376" stroke="#07294A" stroke-width="0.666944"/>
<path d="M164.577 190.195C164.981 190.195 165.308 189.868 165.308 189.465C165.308 189.061 164.981 188.734 164.577 188.734C164.174 188.734 163.847 189.061 163.847 189.465C163.847 189.868 164.174 190.195 164.577 190.195Z" fill="#07294A"/>
<rect x="172.189" y="185.48" width="37.0088" height="7.96841" fill="#07294A"/>
<path d="M198.305 273.458V167.376L190.694 162.981L183.082 167.376V273.458" fill="#F0F8FF"/>
<path d="M198.305 273.458V167.376L190.694 162.981L183.082 167.376" stroke="#07294A" stroke-width="0.666944"/>
<path d="M190.693 190.195C191.097 190.195 191.424 189.868 191.424 189.465C191.424 189.061 191.097 188.734 190.693 188.734C190.29 188.734 189.963 189.061 189.963 189.465C189.963 189.868 190.29 190.195 190.693 190.195Z" fill="#07294A"/>
<rect x="198.305" y="185.48" width="37.0088" height="7.96841" fill="#07294A"/>
<path d="M224.421 273.458V167.376L216.809 162.981L209.198 167.376V273.458" fill="#F0F8FF"/>
<path d="M224.421 273.458V167.376L216.809 162.981L209.198 167.376" stroke="#07294A" stroke-width="0.666944"/>
<path d="M216.81 190.195C217.213 190.195 217.54 189.868 217.54 189.465C217.54 189.061 217.213 188.734 216.81 188.734C216.406 188.734 216.079 189.061 216.079 189.465C216.079 189.868 216.406 190.195 216.81 190.195Z" fill="#07294A"/>
<rect x="224.421" y="185.48" width="37.0088" height="7.96841" fill="#07294A"/>
<path d="M250.537 273.458V167.376L242.926 162.981L235.314 167.376V273.458" fill="#F0F8FF"/>
<path d="M250.537 273.458V167.376L242.926 162.981L235.314 167.376" stroke="#07294A" stroke-width="0.666944"/>
<path d="M242.926 190.195C243.329 190.195 243.656 189.868 243.656 189.465C243.656 189.061 243.329 188.734 242.926 188.734C242.522 188.734 242.195 189.061 242.195 189.465C242.195 189.868 242.522 190.195 242.926 190.195Z" fill="#07294A"/>
<rect x="250.537" y="185.48" width="37.0088" height="7.96841" fill="#07294A"/>
<path d="M276.653 273.458V167.376L269.042 162.981L261.43 167.376V273.458" fill="#F0F8FF"/>
<path d="M276.653 273.458V167.376L269.042 162.981L261.43 167.376" stroke="#07294A" stroke-width="0.666944"/>
<path d="M269.042 190.195C269.445 190.195 269.772 189.868 269.772 189.465C269.772 189.061 269.445 188.734 269.042 188.734C268.639 188.734 268.312 189.061 268.312 189.465C268.312 189.868 268.639 190.195 269.042 190.195Z" fill="#07294A"/>
<rect x="276.653" y="185.48" width="37.0088" height="7.96841" fill="#07294A"/>
<path d="M302.769 273.458V167.376L295.158 162.981L287.546 167.376V273.458" fill="#F0F8FF"/>
<path d="M302.769 273.458V167.376L295.158 162.981L287.546 167.376" stroke="#07294A" stroke-width="0.666944"/>
<path d="M295.158 190.195C295.561 190.195 295.888 189.868 295.888 189.465C295.888 189.061 295.561 188.734 295.158 188.734C294.754 188.734 294.427 189.061 294.427 189.465C294.427 189.868 294.754 190.195 295.158 190.195Z" fill="#07294A"/>
<path d="M228.903 186.521L202.207 222.669L193.822 224.463L221.131 244.643L274.692 193.956" fill="#F6F6F6"/>
<path d="M290.681 194.217C290.681 194.217 288.827 243.345 288.994 266.999L283.489 272.614H318.085L324.859 200.3" fill="#DFEFFF"/>
<path d="M317.855 16.5013V22.7467C317.855 27.5759 314.558 31.7812 309.868 32.9338L299.93 35.3765V10.9583L308.193 8.92715C310.521 8.3552 312.981 8.88471 314.867 10.3632C316.753 11.8417 317.855 14.105 317.855 16.5013L317.855 16.5013Z" fill="#F0F8FF"/>
<path d="M317.855 22.7466C317.855 27.5758 314.558 31.781 309.868 32.9337L299.93 35.3764" stroke="#07294A" stroke-width="0.666944"/>
<path d="M307.729 21.5074C307.993 21.5074 308.208 21.2928 308.208 21.0281C308.208 20.7634 307.993 20.5488 307.729 20.5488C307.464 20.5488 307.25 20.7634 307.25 21.0281C307.25 21.2928 307.464 21.5074 307.729 21.5074Z" fill="#07294A"/>
<path d="M315.09 21.5074C315.355 21.5074 315.569 21.2928 315.569 21.0281C315.569 20.7634 315.355 20.5488 315.09 20.5488C314.825 20.5488 314.611 20.7634 314.611 21.0281C314.611 21.2928 314.825 21.5074 315.09 21.5074Z" fill="#07294A"/>
<path d="M312.931 23.8875V16.5015H316.631" stroke="#07294A" stroke-width="0.666944"/>
<path d="M306.826 16.5012H310.526" stroke="#07294A" stroke-width="0.666944"/>
<path d="M301.11 20.2858V22.8507C299.727 22.8507 298.605 21.7291 298.605 20.3455C298.605 20.2687 298.608 20.1927 298.615 20.1175C298.756 18.5619 301.11 18.7239 301.11 20.2858Z" fill="#F0F8FF"/>
<path d="M301.11 22.8509C299.727 22.8509 298.605 21.7293 298.605 20.3457" stroke="#07294A" stroke-width="0.666944"/>
<path d="M310.907 24.7505C310.26 25.3983 309.209 25.3983 308.562 24.7505" stroke="#79C9E7" stroke-width="0.666944" stroke-linecap="round" stroke-linejoin="round"/>
<path d="M312.93 23.8932L311.312 24.2909" stroke="#07294A" stroke-width="0.666944" stroke-linecap="round"/>
<path d="M301.11 19.0293C301.11 19.0293 312.39 20.0204 315.569 12.9805C315.569 12.9805 316.059 16.8665 317.854 17.486" stroke="#07294A" stroke-width="0.666944"/>
<path d="M317.855 21.028C317.855 21.028 322.973 14.5571 318.354 8.024C313.736 1.49091 303.937 4.53217 303.937 4.53217C303.937 4.53217 292.785 9.14632 276.678 8.6978C270.2 8.51744 266.929 10.462 265.332 12.8516C262.459 17.0674 258.225 20.1683 253.338 21.6354C250.062 22.656 247.692 24.7796 249.194 29.0614C252.798 39.3378 293.123 34.269 300.557 30.1013" stroke="#07294A" stroke-width="0.666944"/>
<path d="M334.365 61.2875V100.43L278.915 114.058V70.4646C278.915 55.0071 289.468 41.5466 304.479 37.8572H304.479C311.677 36.0879 319.29 37.7259 325.124 42.2995C330.957 46.8731 334.365 53.8745 334.365 61.2874L334.365 61.2875Z" fill="#F0F8FF"/>
<path d="M334.365 100.43L278.915 114.058L224.526 186.522L324.86 218.537C324.86 218.537 338.098 131.672 334.365 100.43Z" fill="#79C9E7"/>
<path d="M224.526 186.521L324.86 218.537" stroke="#07294A" stroke-width="0.666944"/>
<path d="M334.365 100.43L278.915 114.058" stroke="#07294A" stroke-width="0.666944"/>
<path d="M292.093 43.7929L267.472 65.7432C267.472 65.7432 227.454 35.846 208.981 38.5493V41.6842L215.064 45.9835C215.064 45.9835 213.938 54.7694 222.949 56.1211C222.949 56.1211 246.925 105.232 278.915 89.9129" stroke="#07294A" stroke-width="0.666944"/>
<path d="M324.242 41.6426C324.242 41.6426 360.594 72.116 342.121 99.3748C323.649 126.634 282.873 88.1108 282.873 88.1108C282.873 88.1108 275.214 85.4075 276.34 79.3249L271.384 74.1435L274.087 70.3138L321.846 82.9294L312.931 72.116" stroke="#07294A" stroke-width="0.666944"/>
<path d="M286.141 90.9736C285.572 98.5531 292.223 107.342 302.749 112.031C314.581 117.302 326.99 115.472 331.191 108.045C315.212 113.369 294.139 97.6647 286.141 90.9736Z" fill="#07294A"/>
<path d="M221.131 244.644L274.693 193.956" stroke="#07294A" stroke-width="0.666944"/>
<path d="M118.301 111.502C108.505 111.485 100.55 119.412 100.533 129.208L136.006 129.271C136.024 119.475 128.097 111.52 118.301 111.502V111.502Z" fill="#F0F8FF"/>
<path d="M155.25 119.193C149.665 119.183 145.13 123.702 145.12 129.287L165.344 129.323C165.354 123.738 160.835 119.203 155.25 119.193V119.193Z" fill="#F0F8FF"/>
<path d="M136.039 110.723C125.796 110.705 117.477 118.994 117.458 129.238L154.554 129.304C154.572 119.06 146.283 110.741 136.039 110.723V110.723Z" fill="#F0F8FF"/>
<path d="M97.2734 129.202L170.183 129.332" stroke="#07294A" stroke-width="0.666944"/>
<path d="M231.016 98.2349C238.187 98.2221 244.01 104.025 244.023 111.195L218.056 111.241C218.043 104.071 223.846 98.2476 231.016 98.2349V98.2349Z" fill="#F0F8FF"/>
<path d="M203.97 103.864C208.058 103.857 211.378 107.165 211.385 111.253L196.581 111.28C196.573 107.191 199.881 103.872 203.97 103.864Z" fill="#F0F8FF"/>
<path d="M218.032 97.6646C225.53 97.6512 231.619 103.719 231.633 111.217L204.479 111.266C204.466 103.767 210.533 97.6779 218.032 97.6646Z" fill="#F0F8FF"/>
<path d="M246.408 111.191L193.039 111.286" stroke="#07294A" stroke-width="0.666944"/>
<path d="M633.609 63.7167C633.609 63.7167 617.132 59.0092 610.252 62.6303C610.252 62.6303 609.347 76.3908 614.96 80.0119C620.572 83.6331 632.884 83.0899 630.168 68.0621C630.168 68.0621 636.324 68.9674 633.609 63.7167Z" fill="#79C9E7"/>
<path d="M661.851 108.097C661.851 108.097 631.31 195.872 659.554 221.4C687.797 246.928 739.396 236.608 739.396 236.608L748.087 240.953L743.199 202.933L697.828 194.242L692.15 105.992" fill="#DFEFFF"/>
<path d="M683.641 201.2C692.641 201.2 699.936 188.122 699.936 171.99C699.936 155.857 692.641 142.779 683.641 142.779C674.641 142.779 667.346 155.857 667.346 171.99C667.346 188.122 674.641 201.2 683.641 201.2Z" fill="#07294A"/>
<path d="M671.162 107.208L721.271 104.304V158.628V292.611H681.889L686.053 285.149L671.162 107.208Z" fill="#F0F8FF"/>
<path d="M672.942 18.159V24.8516C672.942 30.0266 676.475 34.533 681.5 35.7682L692.15 38.3858V12.219L683.295 10.0424C680.801 9.42951 678.164 9.99694 676.143 11.5813C674.122 13.1656 672.942 15.591 672.942 18.1589V18.159Z" fill="#F0F8FF"/>
<path d="M672.942 24.8516C672.942 30.0266 676.475 34.533 681.5 35.7681L692.15 38.3858" stroke="#07294A" stroke-width="0.450544" stroke-linecap="round" stroke-linejoin="round"/>
<path d="M683.793 23.5238C684.076 23.5238 684.306 23.2938 684.306 23.0102C684.306 22.7265 684.076 22.4966 683.793 22.4966C683.509 22.4966 683.279 22.7265 683.279 23.0102C683.279 23.2938 683.509 23.5238 683.793 23.5238Z" fill="#07294A"/>
<path d="M675.904 23.5238C676.188 23.5238 676.418 23.2938 676.418 23.0102C676.418 22.7265 676.188 22.4966 675.904 22.4966C675.62 22.4966 675.39 22.7265 675.39 23.0102C675.39 23.2938 675.62 23.5238 675.904 23.5238Z" fill="#07294A"/>
<path d="M678.218 26.074V18.1592" stroke="#07294A" stroke-width="0.450544" stroke-linecap="round" stroke-linejoin="round"/>
<path d="M684.76 18.1591H680.795" stroke="#07294A" stroke-width="0.450544" stroke-linecap="round" stroke-linejoin="round"/>
<path d="M680.386 26.9985C680.72 27.3319 681.172 27.5192 681.643 27.5192C682.115 27.5192 682.567 27.3319 682.9 26.9985" stroke="#79C9E7" stroke-width="0.450544" stroke-linecap="round" stroke-linejoin="round"/>
<path d="M678.219 26.0801L679.953 26.5063" stroke="#07294A" stroke-width="0.450544" stroke-linecap="round" stroke-linejoin="round"/>
<path d="M672.942 18.8145C672.942 18.8145 680.371 18.9352 681.643 13.9259C681.643 13.9259 683.217 18.9352 687.684 18.4524L688.468 34.5666L701.444 37.2221C701.444 37.2221 703.736 14.0102 689.356 8.70664C684.352 6.88262 678.76 7.7951 674.596 11.115C673.017 12.3375 671.737 13.9025 670.851 15.692C667.942 21.7758 668.008 31.6188 668.008 31.6188L672.942 32.0256" stroke="#79C9E7" stroke-width="0.450544" stroke-linecap="round" stroke-linejoin="round"/>
<path d="M661.851 66.1525V108.097L721.271 122.702V75.9868C721.271 59.4223 709.963 44.998 693.877 41.0444H693.877C686.163 39.1484 678.005 40.9037 671.754 45.8048C665.502 50.7059 661.851 58.2087 661.851 66.1524V66.1525Z" fill="#79C9E7"/>
<path d="M686.053 285.149L671.162 107.208" stroke="#07294A" stroke-width="0.450544" stroke-linecap="round" stroke-linejoin="round"/>
<path d="M708.742 48.6982C708.742 48.6982 734.458 68.741 738.321 107.208C742.183 145.676 706.454 150.021 706.454 150.021L700.419 136.019L717.414 114.775L696.216 74.4596" stroke="#07294A" stroke-width="0.450544" stroke-linecap="round" stroke-linejoin="round"/>
<path d="M706.454 150.022L697.537 129.332" stroke="#07294A" stroke-width="0.450544" stroke-linecap="round" stroke-linejoin="round"/>
<path d="M669.705 47.5928C669.705 47.5928 653.344 60.3715 652.62 92.4792C652.62 92.4792 642.722 65.5277 635.238 61.9065C627.755 58.2853 627.755 58.7682 630.652 62.8721C633.548 66.9761 633.307 67.9418 633.307 67.9418C633.307 67.9418 634.031 72.6995 635.721 72.4933" stroke="#07294A" stroke-width="0.450544" stroke-linecap="round" stroke-linejoin="round"/>
<path d="M630.652 62.8717C630.652 62.8717 621.719 59.7334 620.512 64.5616C619.305 69.3898 630.652 77.5978 630.652 77.5978C630.652 77.5978 628.831 127.973 657.383 122.702" stroke="#07294A" stroke-width="0.450544" stroke-linecap="round" stroke-linejoin="round"/>
<path d="M780.19 100.13C780.19 100.13 784.354 119.146 771.091 116.082C757.827 113.019 747.372 71.0936 757.409 66.2542C767.446 61.4147 780.605 71.3179 779.455 77.4658C778.305 83.6137 780.19 100.13 780.19 100.13Z" fill="#F0F8FF"/>
<path d="M780.19 100.13C780.19 100.13 784.354 119.146 771.091 116.083C757.827 113.02 747.372 71.0938 757.409 66.2544" stroke="#07294A" stroke-width="0.450544" stroke-linecap="round" stroke-linejoin="round"/>
<path d="M752.569 277.756C752.569 220.223 784.764 124.477 784.764 124.477L805.2 110.019L815.762 174.678L779.566 292.678L744.617 282.753L752.569 277.756Z" fill="#DFEFFF"/>
<path d="M788.776 183.91C788.776 161.51 796.849 142.008 808.771 131.878L815.762 174.678L800.064 225.855C793.088 215.106 788.776 200.281 788.776 183.91Z" fill="#07294A"/>
<path d="M793.979 109.139L835.953 106.264L843.585 109.372L847.172 292.678H808.186L812.308 285.292L793.979 109.139Z" fill="#F0F8FF"/>
<path d="M822.926 20.9846V27.61C822.926 32.733 819.429 37.1941 814.454 38.4168L803.911 41.0082V15.1043L812.677 12.9497C815.146 12.3429 817.756 12.9046 819.757 14.4731C821.757 16.0415 822.926 18.4425 822.926 20.9846V20.9846Z" fill="#F0F8FF"/>
<path d="M822.926 27.6104C822.926 32.7333 819.429 37.1944 814.454 38.4172L803.911 41.0085" stroke="#07294A" stroke-width="0.450544" stroke-linecap="round" stroke-linejoin="round"/>
<path d="M812.184 26.2957C811.904 26.2957 811.676 26.068 811.676 25.7872C811.676 25.5064 811.904 25.2788 812.184 25.2788C812.465 25.2788 812.693 25.5064 812.693 25.7872C812.693 26.068 812.465 26.2957 812.184 26.2957Z" fill="#07294A"/>
<path d="M819.994 26.2957C819.713 26.2957 819.485 26.068 819.485 25.7872C819.485 25.5064 819.713 25.2788 819.994 25.2788C820.274 25.2788 820.502 25.5064 820.502 25.7872C820.502 26.068 820.274 26.2957 819.994 26.2957Z" fill="#07294A"/>
<path d="M817.702 28.8201V20.9849H821.628" stroke="#07294A" stroke-width="0.450544" stroke-linecap="round" stroke-linejoin="round"/>
<path d="M811.227 20.9849H815.152" stroke="#07294A" stroke-width="0.450544" stroke-linecap="round" stroke-linejoin="round"/>
<path d="M805.163 24.9995V27.7204C803.695 27.7204 802.505 26.5306 802.505 25.0628C802.505 24.9813 802.509 24.9007 802.516 24.8209C802.665 23.1707 805.163 23.3425 805.163 24.9995Z" fill="#F0F8FF"/>
<path d="M805.163 27.7206C803.695 27.7206 802.505 26.5307 802.505 25.063" stroke="#07294A" stroke-width="0.450544" stroke-linecap="round" stroke-linejoin="round"/>
<path d="M815.556 29.7358C815.226 30.0659 814.779 30.2513 814.312 30.2513C813.845 30.2513 813.398 30.0659 813.068 29.7358" stroke="#79C9E7" stroke-width="0.450544" stroke-linecap="round" stroke-linejoin="round"/>
<path d="M817.702 28.8262L815.986 29.2481" stroke="#07294A" stroke-width="0.450544" stroke-linecap="round" stroke-linejoin="round"/>
<path d="M843.587 68.4956V110.019L784.764 124.477V78.2311C784.764 61.8331 795.958 47.5537 811.883 43.6399H811.883C819.519 41.7629 827.595 43.5006 833.784 48.3524C839.972 53.2043 843.587 60.6317 843.587 68.4956V68.4956Z" fill="#79C9E7"/>
<path d="M823.329 24.9025C814.068 23.7 812.693 16.1274 812.693 16.1274C812.693 16.1274 813.47 23.8347 804.27 24.2529" stroke="#07294A" stroke-width="0.450544" stroke-linecap="round" stroke-linejoin="round"/>
<path d="M804.27 32.8355C804.27 32.8355 792.081 18.4574 806.48 9.70456C818.679 2.28892 830.498 18.1204 828.795 25.787C827.093 33.4537 821.628 32.8229 821.628 32.8229" stroke="#07294A" stroke-width="0.450544" stroke-linecap="round" stroke-linejoin="round"/>
<path d="M830.618 24.9023C830.618 24.9023 830.259 28.3752 828.108 30.8846" stroke="#79C9E7" stroke-width="0.450544" stroke-linecap="round" stroke-linejoin="round"/>
<path d="M831.942 26.2956C831.942 26.2956 841.065 25.6664 842.417 33.5507C843.768 41.435 846.359 41.0084 846.359 41.0084C846.359 41.0084 830.278 43.9674 828.964 31.6017" stroke="#07294A" stroke-width="0.450544" stroke-linecap="round" stroke-linejoin="round"/>
<path d="M812.308 285.292L793.979 109.139" stroke="#07294A" stroke-width="0.450544" stroke-linecap="round" stroke-linejoin="round"/>
<path d="M835.047 49.4111C835.047 49.4111 861.546 65.7765 869.672 85.8512C877.229 104.522 822.181 122.985 787.608 106.444C783.025 104.229 779.775 99.9593 778.861 94.952L778.858 94.9326C778.858 94.9326 771.688 91.5869 773.839 89.675C775.99 87.7631 835.497 83.6826 835.497 83.6826L824.504 72.9461" stroke="#07294A" stroke-width="0.450544" stroke-linecap="round" stroke-linejoin="round"/>
<path d="M795.326 52.9155C795.326 52.9155 783.677 65.4248 776.547 88.9613" stroke="#07294A" stroke-width="0.450544" stroke-linecap="round" stroke-linejoin="round"/>
<path d="M781.821 133.603C781.821 133.603 764.997 131.975 753.526 111.183C742.054 90.3917 751.434 72.7068 753.526 78.6217L755.617 84.5366" stroke="#07294A" stroke-width="0.450544" stroke-linecap="round" stroke-linejoin="round"/>
<path d="M773.182 79.3984C772.159 79.3984 771.33 78.2482 771.33 76.8293C771.33 75.4105 772.159 74.2603 773.182 74.2603C774.205 74.2603 775.034 75.4105 775.034 76.8293C775.034 78.2482 774.205 79.3984 773.182 79.3984Z" fill="#79C9E7"/>
<path d="M766.727 76.0766C765.705 76.0766 764.875 74.9264 764.875 73.5076C764.875 72.0887 765.705 70.9385 766.727 70.9385C767.75 70.9385 768.58 72.0887 768.58 73.5076C768.58 74.9264 767.75 76.0766 766.727 76.0766Z" fill="#79C9E7"/>
<path d="M759.978 77.4658C758.955 77.4658 758.126 76.3156 758.126 74.8967C758.126 73.4779 758.955 72.3276 759.978 72.3276C761.001 72.3276 761.83 73.4779 761.83 74.8967C761.83 76.3156 761.001 77.4658 759.978 77.4658Z" fill="#79C9E7"/>
<path d="M761.412 86.2515C760.389 86.2515 759.56 85.1012 759.56 83.6824C759.56 82.2635 760.389 81.1133 761.412 81.1133C762.435 81.1133 763.264 82.2635 763.264 83.6824C763.264 85.1012 762.435 86.2515 761.412 86.2515Z" fill="white"/>
<path d="M874.082 285.499C872.469 229.579 897.475 124.62 897.475 124.62L931.628 101.072V210.76L899.451 292.821H869.34L874.082 285.499Z" fill="#79C9E7"/>
<path d="M897.475 211C897.475 169.275 909.885 135.451 925.194 135.451C927.493 135.49 929.73 136.203 931.628 137.501V210.76L908.162 270.605C901.658 256.78 897.475 235.222 897.475 211Z" fill="#07294A"/>
<path d="M907.622 112.513C907.622 112.513 900.385 230.626 920.824 286.549L916.555 292.822H952.908C952.908 292.822 956.879 142.588 956.879 110.162L907.622 112.513Z" fill="#79C9E7"/>
<path d="M917.379 21.1277V36.4776L936.395 41.1511V15.2472L917.379 10.5737V21.1277Z" fill="#F0F8FF"/>
<path d="M928.121 26.4382C927.84 26.4382 927.612 26.2106 927.612 25.9298C927.612 25.649 927.84 25.4214 928.121 25.4214C928.402 25.4214 928.629 25.649 928.629 25.9298C928.629 26.2106 928.402 26.4382 928.121 26.4382Z" fill="#07294A"/>
<path d="M920.312 26.4382C920.031 26.4382 919.803 26.2106 919.803 25.9298C919.803 25.649 920.031 25.4214 920.312 25.4214C920.592 25.4214 920.82 25.649 920.82 25.9298C920.82 26.2106 920.592 26.4382 920.312 26.4382Z" fill="#07294A"/>
<path d="M922.603 28.9627V21.1274H918.677" stroke="#07294A" stroke-width="0.450544" stroke-linecap="round" stroke-linejoin="round"/>
<path d="M929.079 21.1275H925.153" stroke="#07294A" stroke-width="0.450544" stroke-linecap="round" stroke-linejoin="round"/>
<path d="M935.142 25.142V27.863C936.61 27.863 937.8 26.6732 937.8 25.2054C937.8 25.1239 937.796 25.0432 937.789 24.9635C937.64 23.3132 935.142 23.4851 935.142 25.142Z" fill="#F0F8FF"/>
<path d="M935.142 27.8632C936.61 27.8632 937.8 26.6733 937.8 25.2056" stroke="#07294A" stroke-width="0.450544" stroke-linecap="round" stroke-linejoin="round"/>
<path d="M924.319 30.8944C925.033 30.8944 925.717 30.611 926.221 30.1066C926.726 29.6021 927.009 28.918 927.009 28.2046" stroke="#79C9E7" stroke-width="0.450544" stroke-linecap="round" stroke-linejoin="round"/>
<path d="M931.629 39.9795L936.395 41.1509" stroke="#07294A" stroke-width="0.450544" stroke-linecap="round" stroke-linejoin="round"/>
<path d="M922.603 28.9692L924.32 29.3912" stroke="#07294A" stroke-width="0.450544" stroke-linecap="round" stroke-linejoin="round"/>
<path d="M934.392 27.8631C934.392 27.8631 936.005 40.6399 926.326 40.8789C916.647 41.1179 915.841 34.6056 917.379 26.7788" stroke="#07294A" stroke-width="0.450544" stroke-linecap="round" stroke-linejoin="round"/>
<path d="M937.336 24.0818C937.336 24.0818 940.904 13.8736 935.826 9.69133C930.747 5.50909 914.914 9.09386 915.512 13.2163C916.109 17.3388 930.389 17.6376 930.389 17.6376C930.389 17.6376 930.687 21.5808 932.719 22.238C932.719 22.238 932.958 26.1053 932.121 28.2045" stroke="#07294A" stroke-width="0.450544" stroke-linecap="round" stroke-linejoin="round"/>
<path d="M956.299 68.6387V110.162L897.475 124.62V78.3742C897.475 61.9762 908.67 47.6968 924.594 43.783H924.594C932.231 41.906 940.306 43.6437 946.495 48.4955C952.684 53.3474 956.299 60.7748 956.299 68.6387V68.6387Z" fill="#F0F8FF"/>
<path d="M910.657 92.635L906.378 77.085L890.359 79.0566L897.475 103.075L912.405 101.072" fill="#79C9E7"/>
<path d="M907.622 112.513C907.622 112.513 900.385 230.626 920.824 286.549" stroke="#07294A" stroke-width="0.450544" stroke-linecap="round" stroke-linejoin="round"/>
<path d="M947.79 49.584C947.79 49.584 977.409 82.7755 971.195 110.162C964.982 137.548 901.947 112.631 900.484 101.071C899.022 89.512 910.254 96.9205 910.254 96.9205C910.254 96.9205 909.545 90.7369 911.695 93.1267C913.845 95.5166 915.474 97.4375 915.474 97.4375L940.844 94.5307L934.492 80.4306" stroke="#07294A" stroke-width="0.450544" stroke-linecap="round" stroke-linejoin="round"/>
<path d="M890.359 75.5289C896.274 78.4537 897.475 73.6796 897.475 73.6796C898.498 74.038 901.746 77.6552 901.382 73.6796C901.219 71.4086 899.661 69.4786 897.475 68.8401C897.475 68.8401 881.934 64.9343 880.68 83.8253C879.425 102.716 888.397 114.779 897.475 111.499" stroke="#07294A" stroke-width="0.450544" stroke-linecap="round" stroke-linejoin="round"/>
<path d="M911.345 50.1631C904.636 55.0255 899.066 61.2914 895.024 68.5247" stroke="#07294A" stroke-width="0.450544" stroke-linecap="round" stroke-linejoin="round"/>
</g>
<defs>
<linearGradient id="paint0_linear_981_57462" x1="34.814" y1="107.22" x2="1165.18" y2="107.22" gradientUnits="userSpaceOnUse">
<stop stop-color="#79C9E7"/>
<stop offset="0.2" stop-color="#74DAE1"/>
<stop offset="0.4" stop-color="#82E8D3"/>
<stop offset="0.6" stop-color="#A3F3C1"/>
<stop offset="0.8" stop-color="#CDFBB1"/>
<stop offset="1" stop-color="#FDFFAA"/>
</linearGradient>
<clipPath id="clip0_981_57462">
<rect width="1200" height="200" fill="white"/>
</clipPath>
</defs>
</svg>
