<svg width="1200" height="541" viewBox="0 0 1200 541" fill="none" xmlns="http://www.w3.org/2000/svg">
<g clip-path="url(#clip0_873_63295)">
<path fill-rule="evenodd" clip-rule="evenodd" d="M817.171 262.923C817.171 281.13 802.273 295.89 783.896 295.89C765.518 295.89 750.621 281.13 750.621 262.923C750.621 244.716 765.518 229.956 783.896 229.956C802.273 229.956 817.171 244.716 817.171 262.923ZM1333.11 316.24C1356.29 316.24 1375.07 297.629 1375.07 274.67C1375.07 251.712 1356.29 233.1 1333.11 233.1C1309.94 233.1 1291.16 251.712 1291.16 274.67C1291.16 278.888 1291.79 282.959 1292.97 286.795C1293.92 289.877 1290.62 293.919 1287.4 293.919V293.919C1272.59 293.919 1260.59 305.809 1260.59 320.476C1260.59 335.143 1272.59 347.033 1287.4 347.033C1302.2 347.033 1314.2 335.143 1314.2 320.476V320.476C1314.2 317.173 1318.3 313.715 1321.48 314.621C1325.17 315.675 1329.08 316.24 1333.11 316.24ZM-140.367 252.184C-159.358 252.184 -175.076 267.58 -175.076 286.572C-175.076 305.563 -159.358 320.959 -140.367 320.959C-121.375 320.959 -105.658 305.563 -105.658 286.572C-105.658 267.58 -121.375 252.184 -140.367 252.184ZM11.2568 260.648C-11.0602 260.648 -30.5928 273.74 -39.6846 292.662C-44.0611 301.771 -57.4438 308.599 -67.5494 308.599V308.599C-88.6129 308.599 -106.045 325.675 -106.045 346.738C-106.045 367.802 -88.6129 384.877 -67.5494 384.877C-65.4485 384.877 -63.3838 384.707 -61.3689 384.38C-42.136 381.262 -8.22734 372.33 11.2568 372.33V372.33V372.33C27.4942 372.33 51.878 383.131 60.5725 396.844C74.2861 418.475 98.5817 432.853 126.267 432.853C147.533 432.853 166.798 424.369 180.805 410.632C195.839 395.886 230.188 383.892 251.117 386.225C253.993 386.545 256.917 386.71 259.88 386.71C302.694 386.71 337.402 352.323 337.402 309.905C337.402 267.487 302.694 233.1 259.88 233.1C238.614 233.1 219.348 241.584 205.342 255.321C190.307 270.066 155.959 282.061 135.029 279.728C132.153 279.408 129.229 279.243 126.267 279.243C120.962 279.243 115.782 279.771 110.777 280.777C90.4723 284.856 55.0662 275.934 36.5586 266.641C28.926 262.808 20.3211 260.648 11.2568 260.648ZM792.4 343.424C792.4 302.721 826.085 269.724 866.788 269.724C901.374 269.724 930.892 293.547 938.984 325.678C939.87 329.197 943.133 331.665 946.761 331.665V331.665C951.915 331.665 956.921 332.364 961.684 333.671C963.006 334.034 964.34 333.036 964.34 331.665V331.665C964.34 282.312 1004.72 242.304 1054.54 242.304C1104.35 242.304 1144.73 282.312 1144.73 331.665C1144.73 381.019 1104.35 421.027 1054.54 421.027C1046.71 421.027 1039.11 420.038 1031.86 418.179C1015.51 413.983 994.747 421.108 981.407 431.46C971.811 438.907 959.758 443.347 946.761 443.347C932.738 443.347 919.815 438.178 909.89 429.642C899.986 421.123 886.227 415.727 873.211 416.847C871.093 417.03 868.951 417.123 866.788 417.123C826.085 417.123 792.4 384.127 792.4 343.424ZM201.212 418.791C201.212 399.8 216.929 384.404 235.921 384.404C254.912 384.404 270.63 399.8 270.63 418.791C270.63 437.783 254.912 453.179 235.921 453.179C216.929 453.179 201.212 437.783 201.212 418.791ZM1210.15 397.715C1210.15 395.539 1207.16 393.672 1205.28 394.768C1199.04 398.405 1191.78 400.491 1184.02 400.491C1160.85 400.491 1142.06 381.88 1142.06 358.921C1142.06 335.963 1160.85 317.352 1184.02 317.352C1207.19 317.352 1225.98 335.963 1225.98 358.921C1225.98 359.488 1225.97 360.051 1225.94 360.612C1225.76 365.215 1232.35 371.158 1236.95 371.158V371.158C1251.76 371.158 1263.76 383.048 1263.76 397.715C1263.76 412.382 1251.76 424.272 1236.95 424.272C1222.15 424.272 1210.15 412.382 1210.15 397.715V397.715ZM571.371 281.092C583.828 281.092 593.926 271.087 593.926 258.746C593.926 246.404 583.828 236.399 571.371 236.399C558.914 236.399 548.816 246.404 548.816 258.746C548.816 271.087 558.914 281.092 571.371 281.092ZM408.704 453.179C451.519 453.179 486.227 418.792 486.227 376.374V376.374C486.227 374.056 489.283 372.666 491.07 374.144C500.753 382.149 513.214 386.966 526.812 386.966C539.503 386.966 551.204 382.77 560.58 375.702C561.906 374.702 564.024 375.821 564.024 377.482V377.482C564.024 395.689 578.922 410.448 597.299 410.448C615.676 410.448 630.574 395.689 630.574 377.482V377.482C630.574 376.344 632.046 375.678 632.867 376.466C645.9 388.961 663.655 396.651 683.223 396.651C723.218 396.651 755.639 364.53 755.639 324.906C755.639 285.282 723.218 253.161 683.223 253.161C643.229 253.161 610.808 285.282 610.808 324.906C610.808 327.058 610.903 329.189 611.091 331.293C611.632 337.37 603.4 344.515 597.299 344.515V344.515C597.168 344.515 597.037 344.516 596.907 344.517C590.819 344.587 582.629 337.755 582.629 331.666V331.666C582.629 301.124 557.639 276.365 526.812 276.365C521.678 276.365 516.705 277.052 511.984 278.338C489.525 284.454 432.907 299.845 409.632 299.575C409.323 299.571 409.014 299.569 408.704 299.569C365.889 299.569 331.181 333.956 331.181 376.374C331.181 418.792 365.889 453.179 408.704 453.179Z" fill="url(#paint0_linear_873_63295)"/>
<path d="M807.223 176.276C807.223 176.276 949.86 310.941 733.602 320.552L726.393 329.563L716.181 282.707L791.271 260.061L779.776 165.567" fill="#DFEFFF"/>
<path d="M802.808 298.612C802.808 281.936 798.184 267.006 790.896 256.979L791.271 260.061L738.12 276.091C734.199 290.571 734.125 305.823 737.905 320.341C764.584 318.918 785.607 315.533 801.975 310.706C802.532 306.699 802.81 302.658 802.808 298.612V298.612Z" fill="#07294A"/>
<path d="M796.536 162.75C796.536 162.75 804.621 294.709 781.786 357.186L786.556 364.194H745.941C745.941 364.194 741.504 196.35 741.504 160.123L796.536 162.75Z" fill="#F0F8FF"/>
<path d="M783.62 60.6514V77.8008L762.376 83.0225V54.0821L783.62 48.8604V60.6514Z" fill="#F0F8FF"/>
<path d="M771.619 66.585C771.933 66.585 772.187 66.3307 772.187 66.017C772.187 65.7033 771.933 65.449 771.619 65.449C771.306 65.449 771.051 65.7033 771.051 66.017C771.051 66.3307 771.306 66.585 771.619 66.585Z" fill="#07294A"/>
<path d="M780.344 66.585C780.657 66.585 780.912 66.3307 780.912 66.017C780.912 65.7033 780.657 65.449 780.344 65.449C780.03 65.449 779.776 65.7033 779.776 66.017C779.776 66.3307 780.03 66.585 780.344 66.585Z" fill="#07294A"/>
<path d="M777.784 69.4055V60.6514H782.17" stroke="#07294A" stroke-width="0.503358" stroke-linecap="round" stroke-linejoin="round"/>
<path d="M770.549 60.6517H774.934" stroke="#07294A" stroke-width="0.503358" stroke-linecap="round" stroke-linejoin="round"/>
<path d="M782.852 59.2183H782.852" stroke="#07294A" stroke-width="0.503358" stroke-linecap="round" stroke-linejoin="round"/>
<path d="M763.775 65.1369V68.1768C762.135 68.1768 760.806 66.8475 760.806 65.2077C760.806 65.1166 760.81 65.0265 760.818 64.9375C760.984 63.0937 763.775 63.2857 763.775 65.1369Z" fill="#F0F8FF"/>
<path d="M763.775 68.1769C762.135 68.1769 760.806 66.8476 760.806 65.2078" stroke="#07294A" stroke-width="0.503358" stroke-linecap="round" stroke-linejoin="round"/>
<path d="M775.866 71.5635C775.069 71.5635 774.305 71.2469 773.741 70.6833C773.178 70.1197 772.861 69.3554 772.861 68.5583" stroke="#79C9E7" stroke-width="0.503358" stroke-linecap="round" stroke-linejoin="round"/>
<path d="M766.814 81.9316L762.375 83.0225" stroke="#07294A" stroke-width="0.503358" stroke-linecap="round" stroke-linejoin="round"/>
<path d="M777.784 69.4124L775.866 69.8838" stroke="#07294A" stroke-width="0.503358" stroke-linecap="round" stroke-linejoin="round"/>
<path d="M741.504 113.732V160.123L807.223 176.276V124.609C807.223 106.289 794.716 90.3354 776.925 85.9627H776.925C768.393 83.8657 759.371 85.8071 752.457 91.2277C745.543 96.6483 741.504 104.946 741.504 113.732V113.732Z" fill="#79C9E7"/>
<path d="M796.536 162.75C796.536 162.75 804.621 294.709 781.786 357.186" stroke="#07294A" stroke-width="0.503358" stroke-linecap="round" stroke-linejoin="round"/>
<path d="M766.388 60.6516C766.388 60.6516 763.918 69.6611 766.822 71.5634C769.725 73.4658 773.527 67.7464 779.611 70.8462C786.966 74.5932 783.62 62.0174 783.62 62.0174" stroke="#07294A" stroke-width="0.503358" stroke-linecap="round" stroke-linejoin="round"/>
<path d="M763.775 68.9854C763.775 68.9854 760.219 79.8828 768.996 83.0224C777.774 86.162 789.193 81.061 785.512 68.5583" stroke="#07294A" stroke-width="0.503358" stroke-linecap="round" stroke-linejoin="round"/>
<path d="M765.086 60.6517C765.086 60.6517 771.619 63.0521 777.784 55.9099C777.784 55.9099 780.31 59.4563 784.379 59.2183" stroke="#07294A" stroke-width="0.503358" stroke-linecap="round" stroke-linejoin="round"/>
<path d="M785.018 62.6608C785.018 62.6608 789.581 47.4499 777.784 46.1286C765.987 44.8073 760.952 52.185 758.876 57.8476C756.799 63.5102 759.476 69.4631 762.29 71.9605" stroke="#07294A" stroke-width="0.503358" stroke-linecap="round" stroke-linejoin="round"/>
<path d="M752.229 91.4111C752.229 91.4111 718.436 122.593 720.572 161.308C722.708 200.023 800.138 167.983 802.541 155.167C804.944 142.351 789.856 150.094 789.856 150.094C789.856 150.094 791.324 144.086 789.856 145.154C788.387 146.222 784.776 150.227 784.776 150.227L751.277 150.628L758.137 131.671" stroke="#07294A" stroke-width="0.503358" stroke-linecap="round" stroke-linejoin="round"/>
<path d="M779.776 150.287C779.776 150.287 779.599 126.865 807.223 121.792C807.223 121.792 802.534 114.817 805.274 112.297C806.922 110.781 809.535 112.713 811.356 114.493C812.353 115.466 813.923 115.53 814.995 114.641C816.032 113.793 817.646 113.188 820.029 113.982C821.831 114.583 822.535 115.578 822.711 116.587C822.931 118.074 824.303 119.109 825.793 118.912C827.791 118.62 829.573 118.919 828.439 121.392C826.237 126.197 822.031 126.197 822.031 126.197C822.031 126.197 851.268 187.575 790.793 179.815" stroke="#07294A" stroke-width="0.503358" stroke-linecap="round" stroke-linejoin="round"/>
<path d="M827.506 165.567C827.506 165.567 829.04 185.471 818.827 191.879" stroke="#07294A" stroke-width="0.503358" stroke-linecap="round" stroke-linejoin="round"/>
<path d="M717.904 540.221H923.381L844.602 364.858H717.904V540.221V540.221Z" fill="#79C9E7"/>
<rect x="1008.38" y="540.221" width="134.007" height="25.0519" transform="rotate(-180 1008.38 540.221)" fill="#F0F8FF"/>
<rect x="986.001" y="515.169" width="134.007" height="25.0519" transform="rotate(-180 986.001 515.169)" fill="#F0F8FF"/>
<rect x="963.625" y="490.117" width="134.007" height="25.0519" transform="rotate(-180 963.625 490.117)" fill="#F0F8FF"/>
<rect x="941.249" y="465.065" width="134.007" height="25.0519" transform="rotate(-180 941.249 465.065)" fill="#F0F8FF"/>
<rect x="918.874" y="440.013" width="134.007" height="25.0519" transform="rotate(-180 918.874 440.013)" fill="#F0F8FF"/>
<rect x="896.498" y="414.961" width="134.007" height="25.0519" transform="rotate(-180 896.498 414.961)" fill="#F0F8FF"/>
<rect x="874.122" y="389.909" width="134.007" height="25.0519" transform="rotate(-180 874.122 389.909)" fill="#F0F8FF"/>
<path d="M1008.38 515.169H874.37V540.221H1008.38" stroke="#07294A" stroke-width="1.06306" stroke-linecap="round" stroke-linejoin="round"/>
<path d="M986.001 490.117H851.994V515.169H986.001" stroke="#07294A" stroke-width="1.06306" stroke-linecap="round" stroke-linejoin="round"/>
<path d="M963.625 465.065H829.618V490.117H963.625" stroke="#07294A" stroke-width="1.06306" stroke-linecap="round" stroke-linejoin="round"/>
<path d="M941.25 440.013H807.243V465.065H941.25" stroke="#07294A" stroke-width="1.06306" stroke-linecap="round" stroke-linejoin="round"/>
<path d="M918.874 414.961H784.867V440.013H918.874" stroke="#07294A" stroke-width="1.06306" stroke-linecap="round" stroke-linejoin="round"/>
<path d="M896.498 389.909H762.491V414.961" stroke="#07294A" stroke-width="1.06306" stroke-linecap="round" stroke-linejoin="round"/>
<path d="M874.122 364.858H740.115V389.909H874.122" stroke="#07294A" stroke-width="1.06306" stroke-linecap="round" stroke-linejoin="round"/>
<path d="M1016.33 540.221H709.954" stroke="#07294A" stroke-width="1.06306" stroke-linecap="round" stroke-linejoin="round"/>
<path d="M906.623 338.362V364.858H880.127" stroke="#07294A" stroke-width="1.06306" stroke-linecap="round" stroke-linejoin="round"/>
<path d="M819.658 277.893L906.622 364.857" stroke="#07294A" stroke-width="1.06306" stroke-linecap="round" stroke-linejoin="round"/>
<path d="M281.955 364.312H724.062V541H145.417L281.955 364.312Z" fill="#79C9E7"/>
<path d="M650.223 180.239C650.223 180.239 707.804 260.291 652.013 347.297L650.663 364.58L616.956 346.619L635.769 276.07L609.509 230.309L628.441 169.17" fill="#DFEFFF"/>
<path d="M642.435 163.909L587.699 164.871L588.199 219.563V364.58H630.824L626.317 356.503L642.435 163.909Z" fill="#F0F8FF"/>
<path d="M609.461 67.5265V84.3093L630.251 89.4189V61.0972L609.461 55.9875V67.5265Z" fill="#F0F8FF"/>
<path d="M621.205 73.333C620.898 73.333 620.649 73.0841 620.649 72.7771C620.649 72.4701 620.898 72.2212 621.205 72.2212C621.512 72.2212 621.761 72.4701 621.761 72.7771C621.761 73.0841 621.512 73.333 621.205 73.333Z" fill="#07294A"/>
<path d="M612.667 73.333C612.36 73.333 612.111 73.0841 612.111 72.7771C612.111 72.4701 612.36 72.2212 612.667 72.2212C612.974 72.2212 613.223 72.4701 613.223 72.7771C613.223 73.0841 612.974 73.333 612.667 73.333Z" fill="#07294A"/>
<path d="M615.172 76.0932V67.5266H610.88" stroke="#07294A" stroke-width="0.491359" stroke-linecap="round" stroke-linejoin="round"/>
<path d="M622.252 67.5265H617.961" stroke="#07294A" stroke-width="0.491359" stroke-linecap="round" stroke-linejoin="round"/>
<path d="M628.882 71.9159V74.8908C630.486 74.8908 631.787 73.5899 631.787 71.9852C631.787 71.896 631.783 71.8078 631.775 71.7207C631.613 69.9164 628.882 70.1042 628.882 71.9159Z" fill="#F0F8FF"/>
<path d="M628.882 74.8907C630.486 74.8907 631.787 73.5898 631.787 71.9851" stroke="#07294A" stroke-width="0.491359" stroke-linecap="round" stroke-linejoin="round"/>
<path d="M617.049 78.205C618.673 78.205 619.99 76.8884 619.99 75.2642" stroke="#79C9E7" stroke-width="0.491359" stroke-linecap="round" stroke-linejoin="round"/>
<path d="M609.461 84.3091L630.251 89.419" stroke="#07294A" stroke-width="0.491359" stroke-linecap="round" stroke-linejoin="round"/>
<path d="M615.172 76.1001L617.049 76.5614" stroke="#07294A" stroke-width="0.491359" stroke-linecap="round" stroke-linejoin="round"/>
<path d="M628.584 71.2183C628.584 71.2183 624.534 67.4296 624.468 63.7715C624.468 63.7715 609.183 66.0578 606.896 65.4046L608.53 62.2691C606.693 61.5537 604.923 60.6794 603.238 59.6562C603.238 59.6562 622.901 45.9384 631.85 60.3747C631.85 60.3747 637.839 63.2489 631.644 71.2183" stroke="#07294A" stroke-width="0.491359" stroke-linecap="round" stroke-linejoin="round"/>
<path d="M587.699 119.472V164.871L652.013 180.678V130.116C652.013 112.188 639.773 96.5755 622.363 92.2964H622.363C614.013 90.2442 605.184 92.1441 598.418 97.4488C591.651 102.753 587.699 110.874 587.699 119.472V119.472Z" fill="#79C9E7"/>
<path d="M597.947 149.671C606.814 159.867 626.071 158.751 644.808 152.983C641.183 160.127 631.383 165.248 619.856 165.248C605.245 165.248 593.4 157.023 593.4 146.876C593.4 145.927 593.504 144.982 593.711 144.056C594.988 146.026 596.404 147.902 597.947 149.671V149.671Z" fill="#07294A"/>
<path d="M626.317 356.503L642.435 163.909" stroke="#07294A" stroke-width="0.491359" stroke-linecap="round" stroke-linejoin="round"/>
<path d="M591.71 105.01C591.71 105.01 578.348 127.134 597.947 149.671C617.546 172.207 687.896 139.48 691.228 123.411C694.559 107.342 692.012 108.713 688.288 112.045C684.565 115.376 682.605 114.592 682.605 114.592C682.605 114.592 682.017 108.321 680.058 110.085C678.098 111.849 677.51 115.18 677.51 115.18L630.251 127.722L618.519 108.321" stroke="#07294A" stroke-width="0.491359" stroke-linecap="round" stroke-linejoin="round"/>
<path d="M632.999 96.6536C632.999 96.6536 650.449 107.517 657.611 120.461" stroke="#07294A" stroke-width="0.491359" stroke-linecap="round" stroke-linejoin="round"/>
<path d="M679.993 136.076C679.993 136.076 705.011 138.37 717.553 140.46C730.095 142.551 715.985 145.164 715.985 145.164C715.985 145.164 709.453 154.57 698.218 150.912C698.218 150.912 675.311 161.886 652.013 155.877" stroke="#07294A" stroke-width="0.491359" stroke-linecap="round" stroke-linejoin="round"/>
<path d="M497.665 166.505C497.665 166.505 544.036 270.258 534.129 343.101L542.014 348.557L509.381 358.464L465.198 239.585L477.858 156.836" fill="#DFEFFF"/>
<path d="M497.665 166.505C497.665 166.505 513.432 201.785 524.614 245.642C508.291 249.606 490.102 251.823 470.92 251.823C470.527 251.823 470.136 251.817 469.743 251.815L465.198 239.585L477.858 156.836L497.665 166.505Z" fill="#79C9E7"/>
<path d="M470.217 206.778C487.165 207.942 500.718 234.435 500.718 266.952C500.718 283.722 497.112 298.888 491.297 309.806L465.198 239.585L470.217 206.778Z" fill="#07294A"/>
<path d="M487.298 169.053C487.298 169.053 495.141 297.062 472.989 357.67L477.616 364.468H438.217C438.217 364.468 433.913 201.647 433.913 166.505L487.298 169.053Z" fill="#F0F8FF"/>
<path d="M487.298 169.053C487.298 169.053 495.141 297.062 472.989 357.67" stroke="#07294A" stroke-width="0.491359" stroke-linecap="round" stroke-linejoin="round"/>
<path d="M488.17 251.214C482.528 251.612 476.778 251.815 470.92 251.823C459.024 251.837 447.144 250.959 435.379 249.197C434.575 213.679 433.913 180.281 433.913 166.505L487.298 169.053C487.298 169.053 489.617 206.92 488.17 251.214Z" fill="#79C9E7"/>
<path d="M458.606 70.0107V86.6467L479.215 91.7121V63.6379L458.606 58.5725V70.0107Z" fill="#F0F8FF"/>
<path d="M470.248 75.7664C469.944 75.7664 469.697 75.5197 469.697 75.2153C469.697 74.911 469.944 74.6643 470.248 74.6643C470.552 74.6643 470.799 74.911 470.799 75.2153C470.799 75.5197 470.552 75.7664 470.248 75.7664Z" fill="#07294A"/>
<path d="M461.784 75.7664C461.48 75.7664 461.233 75.5197 461.233 75.2153C461.233 74.911 461.48 74.6643 461.784 74.6643C462.089 74.6643 462.335 74.911 462.335 75.2153C462.335 75.5197 462.089 75.7664 461.784 75.7664Z" fill="#07294A"/>
<path d="M464.268 78.5022V70.0105H460.013" stroke="#07294A" stroke-width="0.491359" stroke-linecap="round" stroke-linejoin="round"/>
<path d="M471.286 70.0107H467.032" stroke="#07294A" stroke-width="0.491359" stroke-linecap="round" stroke-linejoin="round"/>
<path d="M477.858 74.3616V77.3106C479.448 77.3106 480.738 76.021 480.738 74.4303C480.738 74.3419 480.734 74.2546 480.726 74.1682C480.565 72.3796 477.858 72.5658 477.858 74.3616Z" fill="#F0F8FF"/>
<path d="M477.858 77.3107C479.448 77.3107 480.738 76.0211 480.738 74.4304" stroke="#07294A" stroke-width="0.491359" stroke-linecap="round" stroke-linejoin="round"/>
<path d="M466.128 80.5958C467.738 80.5958 469.043 79.2907 469.043 77.6807" stroke="#79C9E7" stroke-width="0.491359" stroke-linecap="round" stroke-linejoin="round"/>
<path d="M458.606 86.6465L479.215 91.7117" stroke="#07294A" stroke-width="0.491359" stroke-linecap="round" stroke-linejoin="round"/>
<path d="M464.268 78.5093L466.128 78.9666" stroke="#07294A" stroke-width="0.491359" stroke-linecap="round" stroke-linejoin="round"/>
<path d="M497.665 121.502V166.505L433.913 182.174V132.053C433.913 114.281 446.046 98.8057 463.304 94.5639H463.304C471.581 92.5297 480.333 94.413 487.04 99.6713C493.747 104.93 497.665 112.979 497.665 121.502V121.502Z" fill="#F0F8FF"/>
<path d="M479.215 80.5958C480.478 78.7 481.576 76.6991 482.497 74.6153C485.37 67.9713 482.313 60.2567 475.67 57.3829C468.63 54.2985 457.93 50.9471 455.461 57.6742C451.705 67.905 475.275 66.757 475.275 66.757C475.275 66.757 474.078 72.5116 477.217 72.917" stroke="#07294A" stroke-width="0.491359" stroke-linecap="round" stroke-linejoin="round"/>
<path d="M445.616 104.367C445.616 104.367 408.899 134.988 410.971 175.652C413.043 216.316 453.319 216.057 453.319 216.057C453.319 216.057 456.9 208.676 458.606 198.186" stroke="#07294A" stroke-width="0.491359" stroke-linecap="round" stroke-linejoin="round"/>
<path d="M453.319 137.961L440.11 169.436L458.057 201.166" stroke="#07294A" stroke-width="0.491359" stroke-linecap="round" stroke-linejoin="round"/>
<path d="M488.645 102.871C488.645 102.871 507.063 114.986 512.243 160.212C512.243 160.212 528.82 121.261 536.59 114.267C544.36 107.274 552.13 104.367 552.13 104.367V109.864L546.95 114.785C546.95 114.785 553.684 128.095 543.065 131.542C543.065 131.542 539.164 207.5 510.293 198.828" stroke="#07294A" stroke-width="0.491359" stroke-linecap="round" stroke-linejoin="round"/>
<path d="M354.751 181.389C354.751 181.389 385.727 240.18 378.708 265.015C371.689 289.849 282.195 313.246 282.195 313.246L275.176 323.775L262.307 267.622L310.268 244.224L311.796 165.661" fill="#DFEFFF"/>
<path d="M351.376 288.001C351.376 258.711 336.535 234.965 318.229 234.965C315.556 234.972 312.908 235.475 310.419 236.45L310.268 244.224L293.717 252.299C288.352 261.722 285.081 274.25 285.081 288.001C285.046 295.961 286.2 303.88 288.506 311.498C301.013 307.92 329.619 299.16 351.375 288.149C351.375 288.1 351.376 288.051 351.376 288.001Z" fill="#07294A"/>
<path d="M344.345 168.218C344.345 168.218 352.217 296.709 329.982 357.544L334.627 364.368H295.08C295.08 364.368 290.76 200.936 290.76 165.661L344.345 168.218Z" fill="#F0F8FF"/>
<path d="M332.483 68.8039V85.5025L311.796 90.5869V62.4072L332.483 57.3228V68.8039Z" fill="#F0F8FF"/>
<path d="M320.797 74.5813C321.102 74.5813 321.35 74.3337 321.35 74.0282C321.35 73.7227 321.102 73.4751 320.797 73.4751C320.492 73.4751 320.244 73.7227 320.244 74.0282C320.244 74.3337 320.492 74.5813 320.797 74.5813Z" fill="#07294A"/>
<path d="M329.292 74.5813C329.598 74.5813 329.845 74.3337 329.845 74.0282C329.845 73.7227 329.598 73.4751 329.292 73.4751C328.987 73.4751 328.739 73.7227 328.739 74.0282C328.739 74.3337 328.987 74.5813 329.292 74.5813Z" fill="#07294A"/>
<path d="M326.8 77.328V68.804H331.07" stroke="#07294A" stroke-width="0.491359" stroke-linecap="round" stroke-linejoin="round"/>
<path d="M319.755 68.8039H324.025" stroke="#07294A" stroke-width="0.491359" stroke-linecap="round" stroke-linejoin="round"/>
<path d="M313.159 73.1713V76.1313C311.562 76.1313 310.268 74.8369 310.268 73.2402C310.268 73.1515 310.272 73.0638 310.28 72.977C310.442 71.1818 313.159 71.3687 313.159 73.1713Z" fill="#F0F8FF"/>
<path d="M313.159 76.1313C311.562 76.1313 310.268 74.8369 310.268 73.2402" stroke="#07294A" stroke-width="0.491359" stroke-linecap="round" stroke-linejoin="round"/>
<path d="M324.932 79.4291C323.316 79.4291 322.006 78.119 322.006 76.5029" stroke="#79C9E7" stroke-width="0.491359" stroke-linecap="round" stroke-linejoin="round"/>
<path d="M332.483 85.5024L311.796 90.5867" stroke="#07294A" stroke-width="0.491359" stroke-linecap="round" stroke-linejoin="round"/>
<path d="M326.8 77.3345L324.932 77.7935" stroke="#07294A" stroke-width="0.491359" stroke-linecap="round" stroke-linejoin="round"/>
<path d="M311.036 71.8567C311.036 71.8567 304.746 57.5072 318.33 57.3228C318.33 57.3228 329.639 51.1588 334.254 55.0585C338.869 58.9582 332.483 65.8477 332.483 65.8477" stroke="#07294A" stroke-width="0.491359" stroke-linecap="round" stroke-linejoin="round"/>
<path d="M313.093 72.7137C313.093 72.7137 315.275 70.8523 316.38 66.8876C316.38 66.8876 330.126 65.0678 332.483 60.7781" stroke="#07294A" stroke-width="0.491359" stroke-linecap="round" stroke-linejoin="round"/>
<path d="M290.76 120.489V165.661L354.751 181.389V131.08C354.751 113.241 342.573 97.7075 325.25 93.4498H325.25C316.942 91.4079 308.157 93.2983 301.424 98.5764C294.692 103.854 290.76 111.934 290.76 120.489V120.489Z" fill="#79C9E7"/>
<path d="M344.345 168.219C344.345 168.219 352.217 296.709 329.982 357.544" stroke="#07294A" stroke-width="0.491359" stroke-linecap="round" stroke-linejoin="round"/>
<path d="M307.668 94.8362C307.668 94.8362 286.252 102.468 281.818 138.159C281.818 138.159 252.151 94.0622 239.515 96.3899C226.88 98.7175 227.212 102.708 229.872 103.373C232.532 104.038 236.523 103.04 236.523 103.04C236.523 103.04 231.073 113.108 244.836 113.349C244.836 113.349 244.503 177.193 278.753 181.183C313.003 185.173 319.755 147.931 319.755 147.931" stroke="#07294A" stroke-width="0.491359" stroke-linecap="round" stroke-linejoin="round"/>
<path d="M345.698 106.187C345.698 106.187 357.723 122.467 363.962 138.159C363.962 138.159 368.122 94.8473 371.762 92.6316C375.401 90.4159 376.441 93.7957 376.441 93.7957C376.441 93.7957 390.22 87.1178 389.96 90.5867C389.7 94.0557 380.594 103.42 380.594 103.42C380.594 103.42 391.78 148.132 382.681 160.091C373.582 172.05 354.751 172.31 354.751 172.31" stroke="#07294A" stroke-width="0.491359" stroke-linecap="round" stroke-linejoin="round"/>
<path d="M483.492 538.099C483.492 538.099 489.845 526.858 473.717 524.414C464.133 522.933 454.327 524.116 445.37 527.835C445.37 527.835 456.611 514.151 439.017 508.286C421.422 502.421 403.339 516.106 403.339 516.106C403.339 516.106 420.934 483.36 407.249 480.917C393.564 478.473 386.233 492.646 386.233 492.646C386.233 492.646 387.7 452.081 359.353 451.104C331.006 450.126 333.939 502.91 333.939 502.91C333.939 502.91 321.72 479.45 301.193 478.473C280.667 477.495 290.93 517.769 290.93 517.769C290.93 517.769 287.02 508.286 273.336 507.308C259.651 506.331 260.628 517.801 260.628 517.801C260.628 517.801 243.034 493.135 223.485 494.601C203.935 496.067 212.244 520.504 212.244 520.504C192.206 519.038 187.807 541 187.807 541H497.665L483.492 538.099Z" fill="#07294A"/>
<path d="M1127.23 477.712C1124.8 470.935 1117.71 479.887 1117.71 479.887C1117.71 479.887 1126.26 461.736 1117.71 457.621C1113.5 455.591 1111.28 457.979 1110.11 460.92C1114.49 434.529 1115.43 383.628 1097.79 381.855C1078.51 379.919 1085.11 428.815 1085.11 428.815C1085.11 428.815 1079.78 414.776 1073 421.069C1066.23 427.363 1079.3 468.514 1079.3 468.514C1077.84 464.157 1070.1 460.768 1067.19 468.514C1064.29 476.26 1075.42 492.72 1075.42 492.72L1113.67 499.014C1113.67 499.014 1129.65 484.49 1127.23 477.712Z" fill="#07294A"/>
<path d="M1124.38 539.683H1069.61L1057.5 490.744H1136.49L1124.38 539.683V539.683Z" fill="#79C9E7"/>
<path d="M1008.56 539.683H1191.19" stroke="#07294A" stroke-width="0.363095" stroke-linecap="round" stroke-linejoin="round"/>
<path d="M1057.5 490.744H1136.49" stroke="#07294A" stroke-width="0.363095" stroke-linecap="round" stroke-linejoin="round"/>
<path d="M209.291 307.048H68.7065V354.423H209.291L222.967 330.735L209.291 307.048V307.048Z" fill="#79C9E7"/>
<path d="M68.7065 354.422H209.291L222.967 330.735" fill="#79C9E7"/>
<path d="M54.8168 433.899H195.401V386.524H54.8168L41.1409 410.211L54.8168 433.899V433.899Z" fill="#07294A"/>
<path d="M195.401 386.524H54.8168L41.1409 410.211" fill="#07294A"/>
<path d="M132.054 285.985C136.35 285.985 139.833 282.502 139.833 278.206C139.833 273.91 136.35 270.427 132.054 270.427C127.758 270.427 124.275 273.91 124.275 278.206C124.275 282.502 127.758 285.985 132.054 285.985Z" fill="#F0F8FF"/>
<path d="M2.07178 540.808H262.036" stroke="#07294A" stroke-width="0.516853" stroke-linecap="round" stroke-linejoin="round"/>
<path d="M132.054 285.985V540.808" stroke="#07294A" stroke-width="0.516853" stroke-linecap="round" stroke-linejoin="round"/>
<path fill-rule="evenodd" clip-rule="evenodd" d="M132.054 285.985C136.35 285.985 139.833 282.502 139.833 278.206C139.833 273.91 136.35 270.427 132.054 270.427C127.758 270.427 124.275 273.91 124.275 278.206C124.275 282.502 127.758 285.985 132.054 285.985Z" stroke="#07294A" stroke-width="0.516853" stroke-linecap="round" stroke-linejoin="round"/>
</g>
<defs>
<linearGradient id="paint0_linear_873_63295" x1="599.999" y1="229.956" x2="599.999" y2="453.179" gradientUnits="userSpaceOnUse">
<stop stop-color="#FDFFAA" stop-opacity="0"/>
<stop offset="1" stop-color="#FDFFAA"/>
</linearGradient>
<clipPath id="clip0_873_63295">
<rect width="1200" height="541" fill="white"/>
</clipPath>
</defs>
</svg>
