<svg width="1200" height="200" viewBox="0 0 1200 200" fill="none" xmlns="http://www.w3.org/2000/svg">
<g clip-path="url(#clip0_929_55865)">
<path d="M153.55 53.9019V116.646H2.84326" stroke="#07294A" stroke-width="0.610972" stroke-linecap="round" stroke-linejoin="round"/>
<path d="M184.516 174.907V61.2329" stroke="#07294A" stroke-width="0.610972" stroke-linecap="round" stroke-linejoin="round"/>
<path d="M-75.4551 174.908H231.848" stroke="#07294A" stroke-width="0.610972" stroke-linecap="round" stroke-linejoin="round"/>
<path d="M78.1963 -20.6331V116.646" stroke="#07294A" stroke-width="0.610972" stroke-linecap="round" stroke-linejoin="round"/>
<path d="M78.1968 48.0064H155.261" stroke="#07294A" stroke-width="0.610972" stroke-linecap="round" stroke-linejoin="round"/>
<rect x="11.542" y="77.5464" width="5.75775" height="39.0694" fill="#F0F8FF"/>
<path d="M17.3003 116.616H11.5425V77.5464" stroke="#07294A" stroke-width="0.610972" stroke-linecap="round" stroke-linejoin="round"/>
<path d="M13.0498 84.8555H17.2997" stroke="#07294A" stroke-width="0.610972" stroke-linecap="round" stroke-linejoin="round"/>
<path d="M13.0498 86.4288H17.2997" stroke="#07294A" stroke-width="0.610972" stroke-linecap="round" stroke-linejoin="round"/>
<path d="M13.0498 88.002H17.2997" stroke="#07294A" stroke-width="0.610972" stroke-linecap="round" stroke-linejoin="round"/>
<rect x="18.6279" y="77.5464" width="5.75775" height="39.0694" fill="#D1D1D1"/>
<path d="M24.3857 116.616H18.6279V77.5464" stroke="#07294A" stroke-width="0.610972" stroke-linecap="round" stroke-linejoin="round"/>
<path d="M20.1357 84.8555H24.3857" stroke="#07294A" stroke-width="0.610972" stroke-linecap="round" stroke-linejoin="round"/>
<path d="M20.1357 86.4288H24.3857" stroke="#07294A" stroke-width="0.610972" stroke-linecap="round" stroke-linejoin="round"/>
<path d="M20.1357 88.002H24.3857" stroke="#07294A" stroke-width="0.610972" stroke-linecap="round" stroke-linejoin="round"/>
<rect x="25.7139" y="77.5464" width="5.75775" height="39.0694" fill="#F0F8FF"/>
<path d="M31.4717 116.616H25.7139V77.5464" stroke="#07294A" stroke-width="0.610972" stroke-linecap="round" stroke-linejoin="round"/>
<path d="M27.2217 84.8555H31.4716" stroke="#07294A" stroke-width="0.610972" stroke-linecap="round" stroke-linejoin="round"/>
<path d="M27.2217 86.4288H31.4716" stroke="#07294A" stroke-width="0.610972" stroke-linecap="round" stroke-linejoin="round"/>
<path d="M27.2217 88.002H31.4716" stroke="#07294A" stroke-width="0.610972" stroke-linecap="round" stroke-linejoin="round"/>
<rect x="32.7998" y="77.5464" width="5.75775" height="39.0694" fill="#D1D1D1"/>
<path d="M38.5581 116.616H32.8003V77.5464" stroke="#07294A" stroke-width="0.610972" stroke-linecap="round" stroke-linejoin="round"/>
<path d="M34.3076 84.8555H38.5575" stroke="#07294A" stroke-width="0.610972" stroke-linecap="round" stroke-linejoin="round"/>
<path d="M34.3076 86.4288H38.5575" stroke="#07294A" stroke-width="0.610972" stroke-linecap="round" stroke-linejoin="round"/>
<path d="M34.3076 88.002H38.5575" stroke="#07294A" stroke-width="0.610972" stroke-linecap="round" stroke-linejoin="round"/>
<rect x="39.8857" y="77.5464" width="5.75775" height="39.0694" fill="#F0F8FF"/>
<path d="M45.6436 116.616H39.8862V77.5464" stroke="#07294A" stroke-width="0.610972" stroke-linecap="round" stroke-linejoin="round"/>
<path d="M41.3936 84.8555H45.6435" stroke="#07294A" stroke-width="0.610972" stroke-linecap="round" stroke-linejoin="round"/>
<path d="M41.3936 86.4288H45.6435" stroke="#07294A" stroke-width="0.610972" stroke-linecap="round" stroke-linejoin="round"/>
<path d="M41.3936 88.002H45.6435" stroke="#07294A" stroke-width="0.610972" stroke-linecap="round" stroke-linejoin="round"/>
<rect x="46.3882" y="79.1182" width="5.75775" height="39.0694" transform="rotate(-16.1509 46.3882 79.1182)" fill="#D1D1D1"/>
<path d="M62.7867 115.044L57.2561 116.646L46.3882 79.1182" stroke="#07294A" stroke-width="0.610972" stroke-linecap="round" stroke-linejoin="round"/>
<path d="M49.8696 85.7193L53.9518 84.5371" stroke="#07294A" stroke-width="0.610972" stroke-linecap="round" stroke-linejoin="round"/>
<path d="M50.3071 87.2305L54.3893 86.0483" stroke="#07294A" stroke-width="0.610972" stroke-linecap="round" stroke-linejoin="round"/>
<path d="M50.7446 88.7418L54.8268 87.5596" stroke="#07294A" stroke-width="0.610972" stroke-linecap="round" stroke-linejoin="round"/>
<path fill-rule="evenodd" clip-rule="evenodd" d="M284.017 3.6377C269.251 3.6377 257.281 15.608 257.281 30.3741V30.3741C257.281 37.5408 251.471 43.3506 244.304 43.3506H56.3623C41.5963 43.3506 29.626 55.3209 29.626 70.087V145.097C29.626 159.863 41.5963 171.834 56.3624 171.834H309.729C324.495 171.834 336.465 159.863 336.465 145.097V145.097C336.465 137.93 342.275 132.121 349.442 132.121H449.788C459.632 132.121 467.612 140.101 467.612 149.945V169.626C467.612 184.392 479.582 196.363 494.349 196.363H868.969C883.735 196.363 895.706 184.392 895.706 169.626V163.961C895.706 154.117 903.686 146.137 913.53 146.137H1143.64C1158.41 146.137 1170.38 134.167 1170.38 119.4V56.0704C1170.38 41.3043 1158.41 29.334 1143.64 29.334H769.018C754.252 29.334 742.282 41.3043 742.282 56.0704V56.0704C742.282 62.5924 736.995 67.8796 730.473 67.8796H581.944C572.1 67.8796 564.12 59.8994 564.12 50.0553V30.3741C564.12 15.608 552.15 3.6377 537.384 3.6377H284.017Z" fill="url(#paint0_linear_929_55865)"/>
<rect width="121.948" height="130.971" transform="matrix(-1 0 0 1 358.14 14.8867)" fill="#F0F8FF"/>
<path d="M236.192 14.8867V145.857H358.14" stroke="#07294A" stroke-width="0.566885"/>
<rect width="54.853" height="9.65965" transform="matrix(-1 0 0 1 324.592 10.7349)" fill="#79C9E7"/>
<path d="M297.166 14.6765C295.111 14.6765 293.445 13.0104 293.445 10.9552C293.445 8.89998 295.111 7.23389 297.166 7.23389C299.221 7.23389 300.887 8.89998 300.887 10.9552C300.887 13.0104 299.221 14.6765 297.166 14.6765Z" fill="#79C9E7"/>
<rect width="54.853" height="9.65965" transform="matrix(-1 0 0 1 324.592 10.7349)" fill="#79C9E7"/>
<path d="M269.739 10.7344V20.394H324.592" stroke="#07294A" stroke-width="0.566885"/>
<path d="M297.166 14.6765C295.111 14.6765 293.445 13.0104 293.445 10.9552C293.445 8.89998 295.111 7.23389 297.166 7.23389C299.221 7.23389 300.887 8.89998 300.887 10.9552C300.887 13.0104 299.221 14.6765 297.166 14.6765Z" fill="#79C9E7"/>
<path d="M297.166 145.857V249.754" stroke="#07294A" stroke-width="0.566885"/>
<path d="M166.215 101.979L201.255 99.6753L210.33 135.466L231.164 249.036H202.806L206.109 243.117L166.215 101.979V101.979Z" fill="#F0F8FF"/>
<path d="M161.656 242.77L159.933 178.146L187.506 183.315L181.104 249.036H157.539L161.656 242.77V242.77Z" fill="#DFEFFF"/>
<path d="M170.107 180.054L187.506 183.316L186.738 191.199C172.26 189.246 162.289 185.358 162.289 185.358L170.107 180.054Z" fill="#07294A"/>
<path d="M204.67 156.604C204.67 156.604 209.056 157.957 214.861 160.165L220.467 190.728C210.247 192.592 200.294 192.586 191.592 191.757L185.359 169.706L204.67 156.604Z" fill="#07294A"/>
<path d="M204.669 102.684L239.177 174.239C239.177 174.239 198.25 195.78 157.538 184.148V110.048L204.669 102.684Z" fill="#79C9E7"/>
<path d="M191.83 31.3473V36.6557C191.83 40.7604 189.028 44.3347 185.042 45.3144L176.594 47.3907V26.6358L183.618 24.9094C185.596 24.4233 187.688 24.8734 189.291 26.13C190.894 27.3867 191.83 29.3104 191.83 31.3473L191.83 31.3473Z" fill="#F0F8FF"/>
<path d="M191.83 36.6558C191.83 40.7604 189.028 44.3348 185.042 45.3145L176.594 47.3908" stroke="#07294A" stroke-width="0.566885"/>
<path d="M183.224 35.6023C182.999 35.6023 182.817 35.42 182.817 35.195C182.817 34.97 182.999 34.7876 183.224 34.7876C183.449 34.7876 183.631 34.97 183.631 35.195C183.631 35.42 183.449 35.6023 183.224 35.6023Z" fill="#07294A"/>
<path d="M189.481 35.6023C189.256 35.6023 189.073 35.42 189.073 35.195C189.073 34.97 189.256 34.7876 189.481 34.7876C189.706 34.7876 189.888 34.97 189.888 35.195C189.888 35.42 189.706 35.6023 189.481 35.6023Z" fill="#07294A"/>
<path d="M187.645 37.6251V31.3472H190.79" stroke="#07294A" stroke-width="0.566885"/>
<path d="M182.457 31.3475H185.602" stroke="#07294A" stroke-width="0.566885"/>
<path d="M177.598 34.5641V36.7442C177.033 36.7442 176.492 36.5199 176.092 36.1205C175.693 35.7212 175.469 35.1796 175.469 34.6149C175.469 34.5495 175.472 34.4849 175.478 34.4211C175.597 33.0988 177.598 33.2365 177.598 34.5641Z" fill="#F0F8FF"/>
<path d="M177.598 36.7441C177.033 36.7441 176.492 36.5197 176.092 36.1204C175.693 35.7211 175.469 35.1795 175.469 34.6147" stroke="#07294A" stroke-width="0.566885"/>
<path d="M185.926 38.3589C185.375 38.9095 184.482 38.9095 183.932 38.3589" stroke="#79C9E7" stroke-width="0.566885" stroke-linecap="round" stroke-linejoin="round"/>
<path d="M187.645 37.6301L186.269 37.9682" stroke="#07294A" stroke-width="0.566885" stroke-linecap="round"/>
<path d="M189.073 44.1571L189.315 44.2673C190.882 44.9822 192.707 44.8362 194.14 43.8813C195.573 42.9264 196.41 41.2984 196.353 39.5773C196.077 31.6582 194.215 20.6715 185.925 21.4578C185.925 21.4578 177.504 19.5279 174.13 27.2829C170.755 35.0378 174.894 38.7717 176.594 39.6334" stroke="#07294A" stroke-width="0.566885"/>
<path d="M192.009 33.4957C192.009 33.4957 185.65 32.3806 184.928 28.1201C184.928 28.1201 181.778 33.3969 177.383 33.9059" stroke="#07294A" stroke-width="0.566885"/>
<path d="M204.669 69.4142V102.684L157.538 114.268V77.2146C157.538 64.0761 166.508 52.635 179.267 49.4991H179.267C185.386 47.9953 191.856 49.3875 196.814 53.275C201.773 57.1624 204.669 63.1135 204.669 69.4142L204.669 69.4142Z" fill="#F0F8FF"/>
<path d="M239.177 174.239C239.177 174.239 198.25 195.78 157.538 184.148" stroke="#07294A" stroke-width="0.566885"/>
<path d="M170.187 53.5068C170.187 53.5068 147.094 69.6549 147.007 93.7026C146.881 128.648 201.156 97.1492 202.913 91.4048L204.669 85.6604C204.669 85.6604 211.919 82.6745 210.196 81.5824C208.473 80.4904 157.538 91.3091 157.538 91.3091" stroke="#07294A" stroke-width="0.566885"/>
<path d="M196.357 53.5068C196.357 53.5068 209.622 62.9698 215.079 87.6709C215.079 87.6709 223.983 75.3357 227.142 70.5889C230.302 65.8421 232.887 69.0015 232.887 69.0015C232.887 69.0015 236.564 63.5443 239.177 65.8421C241.791 68.1398 234.8 107.546 209.286 112.257" stroke="#07294A" stroke-width="0.566885"/>
<path d="M207.114 84.588L260.556 58.2788" stroke="#07294A" stroke-width="0.566885"/>
<rect width="62.2695" height="62.2695" transform="matrix(-1 0 0 1 342.735 36.103)" fill="#79C9E7"/>
<rect width="2.80422" height="31.0467" transform="matrix(-1 0 0 1 313.003 51.7148)" fill="white"/>
<path d="M296.077 65.8359V68.6402H327.124V65.8359L296.077 65.8359Z" fill="white"/>
<path d="M947.259 188.716C947.259 188.716 989.748 201.211 1007.93 182.811C1026.1 164.412 1009.98 108.059 989.776 111.868C969.576 115.677 958.193 170.295 958.193 170.295C958.193 170.295 913.063 175.95 947.259 188.716Z" fill="#79C9E7"/>
<path d="M1002.46 179.073C988.498 193.208 954.532 187.832 939.535 184.58C937.976 184.254 936.566 183.424 935.524 182.219C930.57 176.399 944.037 172.838 952.294 171.258C952.494 171.22 952.689 171.183 952.878 171.148L952.879 171.148C952.91 171.142 952.941 171.136 952.972 171.131C956.119 170.551 958.638 168.186 959.414 165.082C959.428 165.026 959.442 164.97 959.456 164.914C959.47 164.858 959.484 164.802 959.498 164.745C959.516 164.673 959.535 164.601 959.553 164.528C959.567 164.475 959.58 164.421 959.594 164.367C959.617 164.275 959.641 164.182 959.665 164.089C959.674 164.053 959.683 164.018 959.692 163.981C959.724 163.855 959.757 163.727 959.79 163.598C959.804 163.546 959.817 163.494 959.831 163.442C959.852 163.358 959.874 163.274 959.896 163.189C959.911 163.133 959.925 163.076 959.94 163.019C959.962 162.935 959.985 162.85 960.007 162.764C960.022 162.705 960.038 162.646 960.053 162.586C960.078 162.495 960.102 162.402 960.126 162.309C960.14 162.259 960.153 162.209 960.166 162.158C960.203 162.019 960.24 161.878 960.278 161.737C960.293 161.683 960.307 161.629 960.321 161.576C960.347 161.48 960.373 161.384 960.399 161.287C960.415 161.227 960.431 161.167 960.447 161.107C960.473 161.013 960.498 160.918 960.524 160.824C960.541 160.76 960.559 160.697 960.576 160.633C960.603 160.532 960.631 160.43 960.659 160.328C960.674 160.275 960.688 160.222 960.703 160.169C960.745 160.016 960.787 159.861 960.83 159.706C960.844 159.657 960.858 159.608 960.871 159.559C960.902 159.448 960.933 159.336 960.964 159.224C960.982 159.16 961.001 159.095 961.019 159.03C961.047 158.928 961.076 158.825 961.105 158.722C961.123 158.658 961.141 158.594 961.159 158.53C961.191 158.419 961.222 158.308 961.254 158.196C961.271 158.139 961.287 158.081 961.303 158.024C961.35 157.859 961.397 157.694 961.445 157.528C961.456 157.49 961.467 157.452 961.478 157.414C961.517 157.28 961.556 157.146 961.595 157.011C961.612 156.95 961.63 156.889 961.648 156.827C961.682 156.712 961.715 156.597 961.749 156.481C961.768 156.416 961.788 156.35 961.807 156.285C961.841 156.17 961.875 156.055 961.909 155.939C961.928 155.875 961.947 155.81 961.966 155.745C962.018 155.571 962.071 155.395 962.123 155.219C962.126 155.209 962.129 155.199 962.132 155.189C962.183 155.021 962.234 154.852 962.285 154.682C962.305 154.616 962.325 154.55 962.345 154.484C962.381 154.368 962.416 154.252 962.452 154.135C962.474 154.062 962.497 153.988 962.519 153.915C962.555 153.796 962.592 153.677 962.629 153.558C962.649 153.493 962.669 153.427 962.69 153.362C962.737 153.208 962.785 153.054 962.834 152.899C962.844 152.866 962.854 152.833 962.864 152.8C962.922 152.616 962.98 152.431 963.039 152.245C963.058 152.183 963.078 152.122 963.098 152.06C963.138 151.932 963.179 151.804 963.22 151.675C963.243 151.603 963.266 151.53 963.29 151.458C963.329 151.334 963.369 151.211 963.409 151.087C963.431 151.017 963.454 150.947 963.477 150.876C963.524 150.73 963.572 150.582 963.62 150.435C963.635 150.39 963.65 150.345 963.664 150.299C963.727 150.109 963.79 149.917 963.853 149.725C963.872 149.668 963.891 149.611 963.911 149.553C963.957 149.415 964.003 149.276 964.049 149.137C964.073 149.066 964.097 148.994 964.121 148.923C964.164 148.795 964.207 148.666 964.251 148.538C964.275 148.465 964.3 148.393 964.324 148.32C964.372 148.18 964.42 148.04 964.468 147.899C964.488 147.841 964.507 147.783 964.527 147.725C964.594 147.531 964.661 147.336 964.729 147.14C964.746 147.09 964.764 147.04 964.782 146.989C964.834 146.839 964.886 146.689 964.939 146.539C964.963 146.47 964.988 146.401 965.012 146.331C965.059 146.197 965.107 146.062 965.155 145.927C965.18 145.856 965.205 145.786 965.23 145.715C965.281 145.573 965.332 145.432 965.383 145.29C965.405 145.229 965.427 145.167 965.449 145.106C965.521 144.907 965.593 144.707 965.666 144.508C965.678 144.473 965.692 144.438 965.704 144.402C965.766 144.235 965.827 144.068 965.889 143.9C965.914 143.833 965.939 143.766 965.964 143.699C966.015 143.562 966.066 143.425 966.117 143.287C966.144 143.215 966.172 143.142 966.199 143.069C966.251 142.93 966.303 142.792 966.356 142.653C966.381 142.587 966.406 142.52 966.432 142.453C966.507 142.255 966.583 142.057 966.659 141.859C966.665 141.845 966.67 141.83 966.676 141.815C966.75 141.624 966.824 141.433 966.898 141.242C966.924 141.177 966.949 141.113 966.974 141.048C967.029 140.908 967.084 140.768 967.14 140.628C967.169 140.555 967.198 140.481 967.227 140.408C967.281 140.273 967.335 140.138 967.389 140.003C967.417 139.932 967.446 139.861 967.474 139.79C967.541 139.624 967.608 139.458 967.675 139.293C967.69 139.256 967.705 139.218 967.721 139.181C967.802 138.982 967.884 138.782 967.967 138.582C967.993 138.52 968.019 138.457 968.045 138.395C968.103 138.255 968.162 138.114 968.22 137.974C968.252 137.899 968.283 137.825 968.314 137.75C968.37 137.619 968.426 137.487 968.482 137.355C968.513 137.282 968.544 137.209 968.575 137.136C968.642 136.98 968.709 136.825 968.776 136.669C968.795 136.625 968.815 136.58 968.834 136.535C968.92 136.336 969.008 136.137 969.095 135.938C969.119 135.883 969.144 135.827 969.169 135.772C969.233 135.626 969.298 135.481 969.363 135.336C969.394 135.265 969.426 135.194 969.458 135.123C969.517 134.991 969.577 134.859 969.637 134.727C969.669 134.656 969.701 134.585 969.734 134.514C969.8 134.369 969.866 134.225 969.933 134.08C969.958 134.026 969.983 133.972 970.008 133.917C970.099 133.721 970.19 133.526 970.282 133.331C970.303 133.285 970.325 133.24 970.346 133.195C970.418 133.044 970.49 132.893 970.562 132.742C970.595 132.674 970.628 132.605 970.661 132.536C970.723 132.407 970.785 132.278 970.848 132.149C970.882 132.078 970.917 132.007 970.952 131.937C971.018 131.8 971.085 131.664 971.153 131.528C971.182 131.47 971.21 131.411 971.239 131.353C971.335 131.162 971.43 130.972 971.526 130.782C971.543 130.748 971.561 130.714 971.578 130.68C971.659 130.522 971.739 130.364 971.82 130.208C971.852 130.144 971.885 130.081 971.918 130.018C971.985 129.889 972.052 129.761 972.119 129.633C972.155 129.565 972.19 129.496 972.226 129.428C972.295 129.299 972.363 129.17 972.432 129.041C972.464 128.981 972.496 128.922 972.528 128.862C972.628 128.676 972.729 128.49 972.83 128.305L972.835 128.296C972.934 128.115 973.034 127.934 973.135 127.754C973.168 127.696 973.2 127.638 973.233 127.58C973.304 127.454 973.375 127.328 973.446 127.202C973.483 127.137 973.521 127.072 973.558 127.007C973.628 126.885 973.698 126.763 973.769 126.641C973.804 126.581 973.839 126.521 973.874 126.461C973.964 126.308 974.054 126.156 974.144 126.004C974.159 125.978 974.175 125.952 974.19 125.926C974.295 125.75 974.4 125.576 974.506 125.402C974.539 125.349 974.572 125.296 974.604 125.243C974.679 125.121 974.754 124.999 974.83 124.878C974.869 124.816 974.908 124.754 974.947 124.691C975.019 124.576 975.091 124.462 975.164 124.348C975.202 124.289 975.239 124.229 975.277 124.171C975.362 124.039 975.447 123.908 975.532 123.778C975.557 123.74 975.582 123.701 975.607 123.663C975.716 123.497 975.825 123.332 975.936 123.168C975.965 123.124 975.995 123.08 976.025 123.036C976.107 122.915 976.189 122.794 976.272 122.675C976.311 122.618 976.35 122.561 976.39 122.504C976.465 122.396 976.54 122.288 976.616 122.181C976.656 122.124 976.696 122.068 976.736 122.012C976.819 121.895 976.903 121.778 976.986 121.663C977.017 121.621 977.048 121.578 977.078 121.536C977.192 121.381 977.306 121.226 977.42 121.074C977.446 121.039 977.473 121.005 977.499 120.97C977.588 120.852 977.678 120.734 977.768 120.617C977.808 120.564 977.849 120.512 977.889 120.46C977.967 120.36 978.045 120.26 978.124 120.161C978.166 120.108 978.208 120.055 978.25 120.002C978.333 119.899 978.416 119.796 978.499 119.694C978.535 119.65 978.571 119.606 978.606 119.563C978.724 119.42 978.842 119.279 978.961 119.139C978.98 119.116 978.999 119.094 979.018 119.072C979.119 118.954 979.219 118.837 979.321 118.721C979.361 118.674 979.402 118.629 979.442 118.583C979.524 118.491 979.605 118.399 979.687 118.308C979.731 118.26 979.775 118.211 979.819 118.163C979.903 118.071 979.987 117.98 980.071 117.89C980.11 117.848 980.15 117.806 980.189 117.764C980.31 117.636 980.432 117.509 980.554 117.384L980.565 117.372C980.686 117.249 980.807 117.127 980.928 117.008C980.968 116.968 981.008 116.93 981.048 116.891C981.134 116.807 981.22 116.723 981.307 116.641C981.352 116.598 981.397 116.555 981.442 116.513C981.527 116.433 981.613 116.354 981.699 116.276C981.741 116.237 981.783 116.198 981.826 116.159C981.934 116.062 982.042 115.966 982.151 115.871C982.17 115.855 982.189 115.837 982.208 115.821C982.335 115.711 982.463 115.603 982.591 115.497C982.629 115.465 982.667 115.434 982.705 115.403C982.797 115.328 982.888 115.254 982.98 115.181C983.027 115.144 983.073 115.107 983.12 115.071C983.207 115.003 983.294 114.936 983.382 114.87C983.427 114.835 983.472 114.801 983.517 114.768C983.619 114.692 983.722 114.617 983.824 114.543C983.854 114.522 983.883 114.501 983.912 114.48C984.043 114.387 984.175 114.296 984.307 114.208C984.342 114.184 984.378 114.161 984.414 114.137C984.512 114.073 984.61 114.009 984.708 113.946C984.755 113.916 984.802 113.887 984.85 113.857C984.939 113.802 985.029 113.747 985.12 113.693C985.167 113.664 985.214 113.636 985.262 113.608C985.361 113.55 985.461 113.493 985.561 113.438C985.597 113.417 985.633 113.396 985.67 113.376C985.805 113.302 985.941 113.23 986.077 113.16C986.107 113.145 986.137 113.13 986.167 113.115C986.274 113.061 986.382 113.009 986.49 112.957C986.537 112.935 986.584 112.913 986.632 112.891C986.725 112.848 986.818 112.806 986.911 112.765C986.96 112.743 987.01 112.722 987.06 112.701C987.158 112.659 987.257 112.619 987.356 112.579C987.397 112.563 987.439 112.545 987.48 112.529C987.62 112.475 987.76 112.423 987.9 112.374C987.921 112.366 987.942 112.36 987.963 112.353C988.083 112.311 988.203 112.272 988.324 112.234C988.371 112.219 988.419 112.205 988.466 112.19C988.563 112.161 988.659 112.133 988.756 112.106C988.807 112.092 988.858 112.079 988.909 112.065C989.008 112.039 989.107 112.015 989.206 111.991C989.252 111.98 989.298 111.969 989.344 111.958C989.486 111.926 989.629 111.896 989.773 111.869L989.776 111.868L989.78 111.867C989.925 111.84 990.07 111.817 990.214 111.795C990.264 111.788 990.314 111.782 990.363 111.776C990.459 111.763 990.555 111.751 990.651 111.741C990.711 111.735 990.77 111.73 990.83 111.725C990.915 111.718 991 111.711 991.085 111.706C991.149 111.702 991.213 111.698 991.277 111.695C991.357 111.692 991.437 111.69 991.517 111.688C991.584 111.687 991.651 111.685 991.718 111.685C991.793 111.685 991.868 111.687 991.943 111.688C992.231 111.694 992.519 111.711 992.806 111.742C992.856 111.747 992.906 111.751 992.957 111.757C993.052 111.768 993.147 111.782 993.242 111.795C993.283 111.801 993.324 111.807 993.365 111.814C993.465 111.829 993.564 111.846 993.663 111.865C993.695 111.87 993.727 111.877 993.758 111.883C993.867 111.904 993.975 111.926 994.083 111.95C994.091 111.952 994.099 111.954 994.107 111.956C994.75 112.104 995.379 112.304 995.988 112.555C1009.69 125.882 1016.9 164.455 1002.46 179.073Z" fill="#07294A"/>
<path d="M947.259 188.716C947.259 188.716 989.748 201.21 1007.93 182.811" stroke="#07294A" stroke-width="0.28753" stroke-linecap="round" stroke-linejoin="round"/>
<path d="M977.592 192.854V250.519" stroke="#07294A" stroke-width="0.28753" stroke-linecap="round" stroke-linejoin="round"/>
<path d="M846.915 188.716C846.915 188.716 889.403 201.211 907.581 182.811C925.758 164.412 909.632 108.059 889.432 111.868C869.232 115.677 857.849 170.295 857.849 170.295C857.849 170.295 812.719 175.95 846.915 188.716Z" fill="#79C9E7"/>
<path d="M835.609 182.683C827.078 174.151 857.849 170.295 857.849 170.295C857.849 170.295 856.46 180.988 845.317 184.816C841.93 185.98 838.142 185.216 835.609 182.683Z" fill="#07294A"/>
<path d="M846.915 188.716C846.915 188.716 889.404 201.21 907.581 182.811" stroke="#07294A" stroke-width="0.28753" stroke-linecap="round" stroke-linejoin="round"/>
<path d="M877.248 192.854V250.519" stroke="#07294A" stroke-width="0.28753" stroke-linecap="round" stroke-linejoin="round"/>
<path d="M746.571 188.716C746.571 188.716 789.06 201.211 807.237 182.811C825.414 164.412 809.288 108.059 789.088 111.868C768.888 115.677 757.505 170.295 757.505 170.295C757.505 170.295 712.375 175.95 746.571 188.716Z" fill="#79C9E7"/>
<path d="M735.265 182.683C726.734 174.151 757.505 170.295 757.505 170.295C757.505 170.295 756.116 180.988 744.974 184.816C741.586 185.98 737.798 185.216 735.265 182.683Z" fill="#07294A"/>
<path d="M746.571 188.716C746.571 188.716 789.06 201.21 807.237 182.811" stroke="#07294A" stroke-width="0.28753" stroke-linecap="round" stroke-linejoin="round"/>
<path d="M776.904 192.854V250.519" stroke="#07294A" stroke-width="0.28753" stroke-linecap="round" stroke-linejoin="round"/>
<path d="M681.716 172.727L635.466 214.155L614.939 297.272L581.476 289.176L587.081 283.223C587.081 283.223 588.368 158.225 642.672 138.155" fill="#DFEFFF"/>
<rect width="52.1758" height="18.7113" rx="7.80942" transform="matrix(-1 0 0 1 707.265 171.674)" fill="#79C9E7"/>
<path d="M664.445 190.386H697.91" stroke="#07294A" stroke-width="0.450544" stroke-linecap="round" stroke-linejoin="round"/>
<path d="M678.484 36.0484V51.4565L659.397 56.148V30.1461L678.484 25.4546V36.0484Z" fill="#F0F8FF"/>
<path d="M676.293 43.8705C676.463 44.082 676.508 44.3672 676.414 44.6213C676.319 44.8753 676.097 45.0607 675.83 45.1093C674.763 45.4811 672.855 43.5149 671.557 44.856C671.557 44.856 671.044 43.235 667.588 44.6405C664.131 46.0461 665.084 43.5464 665.084 43.5464" stroke="#79C9E7" stroke-width="0.450544" stroke-linecap="round" stroke-linejoin="round"/>
<path d="M667.702 41.3791C667.42 41.3791 667.192 41.1506 667.192 40.8688C667.192 40.5869 667.42 40.3584 667.702 40.3584C667.984 40.3584 668.212 40.5869 668.212 40.8688C668.212 41.1506 667.984 41.3791 667.702 41.3791Z" fill="#07294A"/>
<path d="M675.541 41.3791C675.259 41.3791 675.03 41.1506 675.03 40.8688C675.03 40.5869 675.259 40.3584 675.541 40.3584C675.823 40.3584 676.051 40.5869 676.051 40.8688C676.051 41.1506 675.823 41.3791 675.541 41.3791Z" fill="#07294A"/>
<path d="M673.241 43.9136V36.0483H677.181" stroke="#07294A" stroke-width="0.450544" stroke-linecap="round" stroke-linejoin="round"/>
<path d="M666.741 36.0486H670.681" stroke="#07294A" stroke-width="0.450544" stroke-linecap="round" stroke-linejoin="round"/>
<path d="M660.654 40.0782V42.8095C659.181 42.8095 657.986 41.6151 657.986 40.1418C657.986 40.06 657.99 39.9791 657.997 39.899C658.147 38.2425 660.654 38.415 660.654 40.0782Z" fill="#F0F8FF"/>
<path d="M660.654 42.8097C659.181 42.8097 657.986 41.6154 657.986 40.1421" stroke="#07294A" stroke-width="0.450544" stroke-linecap="round" stroke-linejoin="round"/>
<path d="M665.518 54.6431L659.397 56.1476" stroke="#07294A" stroke-width="0.450544" stroke-linecap="round" stroke-linejoin="round"/>
<path d="M673.241 43.9194L671.518 44.343" stroke="#07294A" stroke-width="0.450544" stroke-linecap="round" stroke-linejoin="round"/>
<path d="M678.484 42.1946C678.484 42.1946 682.919 51.6702 676.051 54.6688C669.183 57.6674 659.382 50.0997 660.654 41.3794" stroke="#79C9E7" stroke-width="0.450544" stroke-linecap="round" stroke-linejoin="round"/>
<path d="M679.198 31.8193C679.198 31.8193 677.675 34.6433 672.379 34.7606V33.0188C670.032 34.4581 667.318 35.1871 664.565 35.1178V33.7384C664.565 33.7384 661.267 37.4431 663.905 40.3586" stroke="#79C9E7" stroke-width="0.450544" stroke-linecap="round" stroke-linejoin="round"/>
<path d="M671.158 46.9566C670.051 46.9566 669.153 46.059 669.153 44.9517" stroke="#79C9E7" stroke-width="0.450544" stroke-linecap="round" stroke-linejoin="round"/>
<path d="M678.484 39.5259C678.484 39.5259 686.196 26.2121 677.794 24.5929C669.393 22.9736 663.635 26.7519 663.635 26.7519C663.635 26.7519 650.93 29.3292 659.397 38.7456" stroke="#79C9E7" stroke-width="0.450544" stroke-linecap="round" stroke-linejoin="round"/>
<path d="M694.487 83.7394V125.42L635.441 139.932V93.5117C635.441 77.0517 646.678 62.7183 662.662 58.7897H662.662C670.328 56.9056 678.434 58.6498 684.646 63.52C690.858 68.3902 694.487 75.8458 694.487 83.7394V83.7394Z" fill="#79C9E7"/>
<path d="M694.487 125.42C694.487 125.42 704.746 196.503 629.181 185.17L628.822 244.919H592.27L597.876 240.043C597.876 240.043 565.491 150.804 635.441 139.932" fill="#F0F8FF"/>
<path d="M694.487 125.42C694.487 125.42 704.746 196.503 629.181 185.17L628.822 244.919" stroke="#07294A" stroke-width="0.450544" stroke-linecap="round" stroke-linejoin="round"/>
<path d="M681.177 190.386V308.77" stroke="#07294A" stroke-width="0.450544" stroke-linecap="round" stroke-linejoin="round"/>
<path d="M681.716 61.5298C681.716 61.5298 706.186 75.5989 703.067 109.423C699.949 143.248 646.245 122.137 631.596 111.582C631.596 111.582 623.665 105.778 625.584 96.3074L620.982 93.2003L622.225 90.472L677.181 98.9833L675.03 85.6743" stroke="#07294A" stroke-width="0.450544" stroke-linecap="round" stroke-linejoin="round"/>
<path d="M692.251 125.681C687.955 132.306 675.409 135.148 661.869 132.04C649.693 129.246 640.34 122.471 637.869 115.437C651.955 123.086 677.63 132.015 692.251 125.681Z" fill="#07294A"/>
<path d="M654.76 61.7548L618.386 78.4778C618.386 78.4778 609.99 45.3183 600.155 43.5466C590.319 41.7749 590.39 42.8097 590.39 42.8097L590.948 45.4122L595.625 46.9566C595.625 46.9566 593.438 57.7422 599.195 58.0347C599.195 58.0347 581.317 123.319 636.315 114.572" stroke="#07294A" stroke-width="0.450544" stroke-linecap="round" stroke-linejoin="round"/>
</g>
<defs>
<linearGradient id="paint0_linear_929_55865" x1="600.001" y1="3.6377" x2="600.001" y2="196.363" gradientUnits="userSpaceOnUse">
<stop stop-color="#FDFFAA" stop-opacity="0"/>
<stop offset="1" stop-color="#FDFFAA"/>
</linearGradient>
<clipPath id="clip0_929_55865">
<rect width="1200" height="200" fill="white"/>
</clipPath>
</defs>
</svg>
