<svg width="1200" height="200" viewBox="0 0 1200 200" fill="none" xmlns="http://www.w3.org/2000/svg">
<g clip-path="url(#clip0_981_56852)">
<g opacity="0.5">
<path fill-rule="evenodd" clip-rule="evenodd" d="M930.926 30.3741C930.926 15.608 942.897 3.6377 957.663 3.6377H1015.59C1030.36 3.6377 1042.33 15.608 1042.33 30.3741V56.0696C1042.33 57.8653 1043.91 59.2416 1045.7 59.2416V59.2416H1103.63C1118.4 59.2416 1130.37 71.2119 1130.37 85.978V143.907V143.907C1130.37 145.244 1131.62 146.304 1132.94 146.109C1134.02 145.95 1135.13 145.867 1136.25 145.867C1148.66 145.867 1158.72 155.928 1158.72 168.338C1158.72 180.748 1148.66 190.808 1136.25 190.808C1127.56 190.808 1120.02 185.876 1116.29 178.659C1113.99 174.222 1108.63 170.643 1103.63 170.643V170.643H1045.7C1030.94 170.643 1018.97 158.673 1018.97 143.907V118.211C1018.97 116.415 1017.39 115.039 1015.59 115.039V115.039H957.663V115.039C950.496 115.039 933.365 122.785 933.365 129.952V146.283C933.365 161.049 921.395 173.02 906.629 173.02H848.7C833.934 173.02 821.964 161.049 821.964 146.283V116.599C821.964 110.646 815.275 106.604 809.322 106.604V106.604H769.757C768.96 106.604 768.172 106.569 767.392 106.5C767.265 106.489 767.155 106.59 767.155 106.718V106.718V164.072C767.155 178.838 755.184 190.808 740.418 190.808H683.065C668.299 190.808 656.329 178.838 656.329 164.072V164.072C656.329 160.875 652.004 159.069 649.209 160.62C645.371 162.751 640.953 163.964 636.252 163.964H591.128C576.362 163.964 564.391 151.994 564.391 137.228V137.228C564.391 135.855 562.23 135.29 561.396 136.381C556.51 142.775 548.806 146.9 540.138 146.9H495.014C492.992 146.9 491.023 146.676 489.129 146.25C486.852 145.739 484.362 147.725 484.362 150.059V150.059V164.072C484.362 178.838 472.392 190.808 457.625 190.808H443.613C428.847 190.808 416.877 178.838 416.877 164.072V164.072C416.877 161.508 413.941 159.912 411.551 160.838C408.555 162 405.297 162.637 401.89 162.637H351.967C347.661 162.637 343.593 161.619 339.99 159.811C336.622 158.121 331.299 160.303 331.299 164.072V164.072C331.299 178.838 319.328 190.808 304.562 190.808H246.634C231.868 190.808 219.897 178.838 219.897 164.072V134.815C219.897 128.041 211.661 123.485 204.888 123.485V123.485H146.959V123.485C141.006 123.485 134.317 127.527 134.317 133.48V138.69C134.317 153.456 122.347 165.426 107.581 165.426H68.0162C53.2501 165.426 41.2798 153.456 41.2798 138.69V99.1248C41.2798 84.3587 53.2501 72.3884 68.0161 72.3884H107.581V72.3884C113.534 72.3884 120.223 68.3462 120.223 62.3931V38.82C120.223 24.0539 132.193 12.0836 146.959 12.0836H204.888C219.654 12.0836 231.624 24.0539 231.624 38.82V68.0766C231.624 74.8504 239.86 79.4065 246.634 79.4065V79.4065H304.562C311.737 79.4065 318.252 82.2329 323.055 86.833C323.832 87.578 325.231 87.0549 325.231 85.978V85.978C325.231 71.2119 337.201 59.2416 351.967 59.2416H401.89C416.656 59.2416 428.626 71.2119 428.626 85.978V112.005C428.626 118.772 436.847 123.323 443.613 123.323V123.323H457.625C459.647 123.323 461.616 123.547 463.51 123.973C465.787 124.484 468.277 122.498 468.277 120.164V120.164V79.8362C468.277 65.0701 480.248 53.0998 495.014 53.0998H501.855C511.699 53.0998 519.68 45.1197 519.68 35.2756V32.9361C519.68 18.17 531.65 6.19971 546.416 6.19971H591.54C606.306 6.19971 618.276 18.17 618.276 32.9361V52.34C618.276 62.184 626.408 70.1642 636.252 70.1642V70.1642C640.075 70.1642 643.71 70.9665 646.999 72.4118C656.08 76.4029 673.145 79.982 683.065 79.982V79.982H740.418C741.262 79.982 742.096 80.021 742.919 80.0974C742.974 80.1025 743.021 80.0593 743.021 80.0043V80.0043C743.021 79.9586 743.021 79.9129 743.021 79.8672V40.3023C743.021 25.5362 754.991 13.5659 769.757 13.5659H809.322C824.088 13.5659 836.058 25.5362 836.058 40.3023V51.6229C836.058 57.5759 842.747 61.6181 848.7 61.6181V61.6181H906.629V61.6181C913.795 61.6181 930.926 53.872 930.926 46.7055V30.3741Z" fill="url(#paint0_linear_981_56852)"/>
</g>
<path d="M284.812 106.553H305.569C305.569 106.553 327.879 220.75 321.025 268.729L328.598 273.592L294.452 281.176L274.079 185.571L284.812 106.553Z" fill="#DFEFFF"/>
<path d="M296.757 200.268C296.757 217.505 293.088 233.361 286.94 245.926L274.078 185.571L279.859 143.02C290.171 156.561 296.757 177.175 296.757 200.268Z" fill="#07294A"/>
<path d="M296.758 105.712L249.334 102.963V154.376V281.176H283.17L279.229 274.114L296.758 105.712Z" fill="#F0F8FF"/>
<path d="M279.229 274.114L296.757 105.712" stroke="#07294A" stroke-width="0.432886" stroke-linecap="round" stroke-linejoin="round"/>
<path d="M293.015 21.436V27.7699C293.015 32.6675 289.672 36.9323 284.916 38.1013L274.836 40.5786V15.8144L283.217 13.7546C285.577 13.1745 288.073 13.7115 289.986 15.2109C291.898 16.7104 293.015 19.0057 293.015 21.436V21.436Z" fill="#F0F8FF"/>
<path d="M293.015 27.77C293.015 32.6676 289.672 36.9324 284.916 38.1014L274.836 40.5787" stroke="#07294A" stroke-width="0.432886" stroke-linecap="round" stroke-linejoin="round"/>
<path d="M282.746 26.5131C282.478 26.5131 282.26 26.2955 282.26 26.0271C282.26 25.7586 282.478 25.541 282.746 25.541C283.015 25.541 283.232 25.7586 283.232 26.0271C283.232 26.2955 283.015 26.5131 282.746 26.5131Z" fill="#07294A"/>
<path d="M290.212 26.5131C289.943 26.5131 289.726 26.2955 289.726 26.0271C289.726 25.7586 289.943 25.541 290.212 25.541C290.48 25.541 290.698 25.7586 290.698 26.0271C290.698 26.2955 290.48 26.5131 290.212 26.5131Z" fill="#07294A"/>
<path d="M288.022 28.9265V21.436H291.774" stroke="#07294A" stroke-width="0.432886" stroke-linecap="round" stroke-linejoin="round"/>
<path d="M281.831 21.436H285.583" stroke="#07294A" stroke-width="0.432886" stroke-linecap="round" stroke-linejoin="round"/>
<path d="M276.034 25.2738V27.8751C274.631 27.8751 273.493 26.7376 273.493 25.3344C273.493 25.2565 273.497 25.1794 273.504 25.1032C273.646 23.5255 276.034 23.6897 276.034 25.2738Z" fill="#F0F8FF"/>
<path d="M276.034 27.8751C274.631 27.8751 273.493 26.7376 273.493 25.3345" stroke="#07294A" stroke-width="0.432886" stroke-linecap="round" stroke-linejoin="round"/>
<path d="M285.97 29.8018C285.654 30.1173 285.227 30.2945 284.78 30.2945C284.334 30.2945 283.906 30.1173 283.591 29.8018" stroke="#79C9E7" stroke-width="0.432886" stroke-linecap="round" stroke-linejoin="round"/>
<path d="M288.022 28.9326L286.38 29.336" stroke="#07294A" stroke-width="0.432886" stroke-linecap="round" stroke-linejoin="round"/>
<path d="M293.015 24.7231C293.015 24.7231 286.289 21.8102 284.49 17.9976V20.5678C284.49 20.5678 281.191 19.7968 280.121 18.2546C280.121 18.2546 279.557 23.9521 275.919 24.7231" stroke="#07294A" stroke-width="0.432886" stroke-linecap="round" stroke-linejoin="round"/>
<path d="M274.837 33.0052C274.837 33.0052 266.327 26.6937 270.354 17.1836C274.38 7.67354 284.661 10.4152 293.915 11.2719C298.789 11.7233 304.924 9.96337 309.638 8.19673C314.096 6.51406 319.128 8.01853 321.931 11.8717V11.8717C321.931 11.8717 329.984 8.18759 331.869 17.0979C333.754 26.0083 314.509 42.5869 288.833 36.2253" stroke="#07294A" stroke-width="0.432886" stroke-linecap="round" stroke-linejoin="round"/>
<path d="M305.569 66.8568V106.553L249.334 120.375V76.1639C249.334 60.4874 260.036 46.8363 275.26 43.0946H275.26C282.56 41.3003 290.281 42.9615 296.197 47.5999C302.113 52.2382 305.569 59.3389 305.569 66.8568V66.8568Z" fill="#79C9E7"/>
<path d="M290.455 71.9619L352.131 97.4735C358.619 100.157 364.316 104.453 368.681 109.952L377.779 121.416L359.73 121.407C354.378 121.404 349.077 120.36 344.124 118.333L281.859 92.8559C278.532 91.4948 276.052 88.6317 275.179 85.1451C274.306 81.6584 275.144 77.9643 277.436 75.1959V75.1959C280.597 71.3792 285.876 70.0678 290.455 71.9619Z" fill="#F0F8FF"/>
<path d="M377.779 121.416L359.73 121.407C354.378 121.404 349.077 120.36 344.124 118.333L281.859 92.856" stroke="#07294A" stroke-width="0.432886" stroke-linecap="round" stroke-linejoin="round"/>
<path d="M260.071 51.3452C260.071 51.3452 239.461 66.3615 238.776 98.9185C238.09 131.476 305.569 86.0671 305.569 86.0671C305.569 86.0671 310.058 86.279 311.6 81.3751C311.6 81.3751 314.513 81.2077 314.171 79.9533C313.828 78.6989 305.946 73.901 292.752 74.5865C279.557 75.2719 257.11 83.6681 257.11 83.6681" stroke="#07294A" stroke-width="0.432886" stroke-linecap="round" stroke-linejoin="round"/>
<path d="M377.779 121.416L366.429 121.41C367.017 118.078 368.434 114.948 370.55 112.308L377.779 121.416Z" fill="#07294A"/>
<path d="M300.032 51.3452C300.032 51.3452 311.625 65.4465 320.066 84.2102" stroke="#07294A" stroke-width="0.432886" stroke-linecap="round" stroke-linejoin="round"/>
<path d="M331.997 113.371C331.997 113.371 319.285 121.823 306.574 116.862" stroke="#07294A" stroke-width="0.432886" stroke-linecap="round" stroke-linejoin="round"/>
<path d="M343.929 94.9776C343.929 94.9776 342.857 85.8487 336.732 87.2096C330.607 88.5706 331.145 90.841 331.996 91.0245C332.848 91.2079 336.539 91.0245 336.539 91.0245L338.79 91.9555" stroke="#07294A" stroke-width="0.432886" stroke-linecap="round" stroke-linejoin="round"/>
<path d="M667.854 283.519L674.24 109.962L717.386 115.541L699.798 292.851H662.47L667.854 283.519Z" fill="#DFEFFF"/>
<path d="M682.98 109.08L732.648 106.201V160.047V292.85H693.613L697.741 285.454L682.98 109.08Z" fill="#F0F8FF"/>
<path d="M693.613 292.85L697.741 285.454L682.98 109.08" stroke="#07294A" stroke-width="0.450544" stroke-linecap="round" stroke-linejoin="round"/>
<path d="M674.24 68.3857V109.961L733.137 124.437V78.1334C733.137 61.7149 721.928 47.4175 705.984 43.4987H705.984C698.338 41.6194 690.252 43.3593 684.056 48.2172C677.859 53.0752 674.24 60.5119 674.24 68.3857V68.3857Z" fill="#79C9E7"/>
<path d="M726.066 114.823C726.396 115.126 729.471 123.384 732.916 132.83L732.649 155.561C729.786 133.846 710.307 91.6646 710.307 91.6646V91.6646C715.997 100.157 725.518 114.322 726.066 114.823Z" fill="#07294A"/>
<path d="M717.824 20.8149V27.4486C717.824 32.578 714.322 37.0447 709.341 38.269L698.785 40.8636V14.9272L707.562 12.7698C710.034 12.1623 712.648 12.7247 714.651 14.2951C716.654 15.8655 717.824 18.2695 717.824 20.8148V20.8149Z" fill="#F0F8FF"/>
<path d="M717.824 27.4487C717.824 32.5782 714.322 37.0449 709.341 38.2692L698.785 40.8638" stroke="#07294A" stroke-width="0.450544" stroke-linecap="round" stroke-linejoin="round"/>
<path d="M707.069 26.1324C706.788 26.1324 706.56 25.9045 706.56 25.6233C706.56 25.3422 706.788 25.1143 707.069 25.1143C707.35 25.1143 707.578 25.3422 707.578 25.6233C707.578 25.9045 707.35 26.1324 707.069 26.1324Z" fill="#07294A"/>
<path d="M714.888 26.1324C714.607 26.1324 714.379 25.9045 714.379 25.6233C714.379 25.3422 714.607 25.1143 714.888 25.1143C715.169 25.1143 715.397 25.3422 715.397 25.6233C715.397 25.9045 715.169 26.1324 714.888 26.1324Z" fill="#07294A"/>
<path d="M712.594 28.66V20.8149H716.524" stroke="#07294A" stroke-width="0.450544" stroke-linecap="round" stroke-linejoin="round"/>
<path d="M706.11 20.8152H710.04" stroke="#07294A" stroke-width="0.450544" stroke-linecap="round" stroke-linejoin="round"/>
<path d="M700.039 24.8346V27.559C698.569 27.559 697.378 26.3677 697.378 24.8981C697.378 24.8164 697.382 24.7357 697.389 24.6559C697.538 23.0035 700.039 23.1756 700.039 24.8346Z" fill="#F0F8FF"/>
<path d="M700.039 27.5589C698.569 27.5589 697.378 26.3675 697.378 24.8979" stroke="#07294A" stroke-width="0.450544" stroke-linecap="round" stroke-linejoin="round"/>
<path d="M710.445 29.5771C710.115 29.9076 709.666 30.0932 709.199 30.0932C708.732 30.0932 708.284 29.9076 707.953 29.5771" stroke="#79C9E7" stroke-width="0.450544" stroke-linecap="round" stroke-linejoin="round"/>
<path d="M712.594 28.6665L710.875 29.089" stroke="#07294A" stroke-width="0.450544" stroke-linecap="round" stroke-linejoin="round"/>
<path d="M700.039 25.1144C700.039 25.1144 711.527 23.3564 713.502 15.1011C713.502 15.1011 713.054 20.4252 717.824 21.2028" stroke="#07294A" stroke-width="0.450544" stroke-linecap="round" stroke-linejoin="round"/>
<path d="M698.708 33.3467C698.708 33.3467 690.171 22.519 694.897 14.8021C699.623 7.08513 713.023 4.45299 718.826 13.486C724.628 22.519 729.294 25.2708 732.106 27.1253C734.356 28.6093 740.973 33.0049 742.485 38.6871C743.231 41.428 744.718 43.9105 746.781 45.8631C748.493 47.5056 749.81 49.9052 748.617 53.0877C746.104 59.7877 714.933 53.9434 711.735 37.3793" stroke="#07294A" stroke-width="0.450544" stroke-linecap="round" stroke-linejoin="round"/>
<path d="M726.066 56.8184C726.066 56.8184 753.279 92.2107 759.022 135.282C764.764 178.353 752.621 177.456 750.108 177.815C747.596 178.174 744.006 168.483 744.006 168.483C744.006 168.483 739.4 168.603 740.597 166.688C741.793 164.774 743.049 160.945 743.049 160.945C743.049 160.945 726.849 115.541 726.066 114.823C725.282 114.105 706.11 85.3911 706.11 85.3911" stroke="#07294A" stroke-width="0.450544" stroke-linecap="round" stroke-linejoin="round"/>
<path d="M784.146 187.327L775.532 223.219H719.181L710.207 187.327H784.146Z" fill="#79C9E7"/>
<path d="M765.961 187.327C765.961 187.327 768.356 168.781 759.86 165.132" stroke="#07294A" stroke-width="0.450544" stroke-linecap="round" stroke-linejoin="round"/>
<path d="M741.099 168.075C741.099 168.075 735.811 172.491 736.529 187.327" stroke="#07294A" stroke-width="0.450544" stroke-linecap="round" stroke-linejoin="round"/>
<path d="M767.875 197.616L764.764 211.016" stroke="#FDFEFF" stroke-width="0.450544"/>
<path d="M757.642 197.616L754.532 211.016" stroke="#FDFEFF" stroke-width="0.450544"/>
<path d="M747.41 197.616L744.299 211.016" stroke="#FDFEFF" stroke-width="0.450544"/>
<path d="M680.348 51.7743C680.348 51.7743 667.638 63.0991 659.742 77.0973C659.742 77.0973 659.598 52.7289 660.316 49.319C660.316 49.319 663.906 46.0887 664.085 43.7557C664.264 41.4226 661.752 42.7461 661.752 42.7461C661.752 42.7461 665.521 36.936 663.547 35.6798C661.573 34.4235 653.317 39.3726 645.6 56.8186C637.883 74.2645 633.427 125.053 674.24 106.927" stroke="#07294A" stroke-width="0.450544" stroke-linecap="round" stroke-linejoin="round"/>
<path d="M781.042 277.912C786.979 215.844 823.841 124.009 823.841 124.009L856.064 104.121L852.502 153.776L847.7 201.172L806.948 292.847L769.708 281.15L781.042 277.912Z" fill="#DFEFFF"/>
<path d="M833.443 111.856C833.443 111.856 826.179 230.416 846.695 286.55L842.41 292.847H878.9C878.9 292.847 882.887 142.045 882.887 109.496L833.443 111.856Z" fill="#F0F8FF"/>
<path d="M846.397 20.1251V35.5328L865.484 40.2243V14.2224L846.397 9.53125V20.1251Z" fill="#F0F8FF"/>
<path d="M857.179 25.4558C856.897 25.4558 856.669 25.2273 856.669 24.9454C856.669 24.6636 856.897 24.4351 857.179 24.4351C857.461 24.4351 857.69 24.6636 857.69 24.9454C857.69 25.2273 857.461 25.4558 857.179 25.4558Z" fill="#07294A"/>
<path d="M849.341 25.4558C849.059 25.4558 848.83 25.2273 848.83 24.9454C848.83 24.6636 849.059 24.4351 849.341 24.4351C849.623 24.4351 849.851 24.6636 849.851 24.9454C849.851 25.2273 849.623 25.4558 849.341 25.4558Z" fill="#07294A"/>
<path d="M851.64 27.9899V20.125H847.7" stroke="#07294A" stroke-width="0.450544" stroke-linecap="round" stroke-linejoin="round"/>
<path d="M858.141 20.1252H854.201" stroke="#07294A" stroke-width="0.450544" stroke-linecap="round" stroke-linejoin="round"/>
<path d="M864.227 24.1549V26.8861C865.701 26.8861 866.895 25.6918 866.895 24.2185C866.895 24.1366 866.891 24.0557 866.884 23.9757C866.735 22.3192 864.227 22.4916 864.227 24.1549Z" fill="#F0F8FF"/>
<path d="M864.227 26.8864C865.701 26.8864 866.895 25.692 866.895 24.2188" stroke="#07294A" stroke-width="0.450544" stroke-linecap="round" stroke-linejoin="round"/>
<path d="M853.364 29.929C854.08 29.929 854.767 29.6445 855.273 29.1382C855.779 28.6318 856.064 27.9451 856.064 27.229" stroke="#79C9E7" stroke-width="0.450544" stroke-linecap="round" stroke-linejoin="round"/>
<path d="M846.397 35.5332L865.484 40.2246" stroke="#07294A" stroke-width="0.450544" stroke-linecap="round" stroke-linejoin="round"/>
<path d="M851.64 27.9966L853.364 28.4201" stroke="#07294A" stroke-width="0.450544" stroke-linecap="round" stroke-linejoin="round"/>
<path d="M845.749 13.437C845.749 13.437 850.502 16.9754 859.978 15.8959C859.978 15.8959 859.978 22.1437 863.336 24.0574" stroke="#07294A" stroke-width="0.450544" stroke-linecap="round" stroke-linejoin="round"/>
<path d="M845.749 21.4733C845.749 21.4733 838.008 11.3979 849.203 8.57925C860.398 5.76056 865.555 11.278 865.555 11.278C865.555 11.278 876.145 13.0172 864.913 32.3882" stroke="#07294A" stroke-width="0.450544" stroke-linecap="round" stroke-linejoin="round"/>
<path d="M882.887 67.8156V109.496L823.841 124.009V77.5879C823.841 61.1279 835.078 46.7945 851.062 42.8658H851.062C858.728 40.9818 866.834 42.726 873.046 47.5962C879.258 52.4664 882.887 59.9219 882.887 67.8156V67.8156Z" fill="#79C9E7"/>
<path d="M833.443 111.856C833.443 111.856 826.179 230.417 846.695 286.551" stroke="#07294A" stroke-width="0.450544" stroke-linecap="round" stroke-linejoin="round"/>
<path d="M876.688 51.0742C876.688 51.0742 908.857 93.754 895.636 118.928C882.415 144.102 818.632 106.214 817.912 99.4972C817.193 92.7803 832.194 96.3786 832.194 96.3786C832.194 96.3786 830.386 84.1443 838.063 96.1387L866.895 99.2573L857.54 76.7077" stroke="#07294A" stroke-width="0.450544" stroke-linecap="round" stroke-linejoin="round"/>
<path d="M863.757 91.6934L866.895 99.2574L845.282 96.9196C850.305 94.2864 856.673 92.4295 863.757 91.6934Z" fill="#07294A"/>
<path d="M882.708 127.196C882.659 130.416 882.601 133.89 882.535 137.576C867.303 137.451 847.497 129.214 838.557 120.392L838.553 120.393C838.439 120.281 838.33 120.168 838.22 120.055C838.19 120.025 838.16 119.995 838.131 119.965C837.981 119.811 837.835 119.656 837.691 119.501C837.666 119.473 837.639 119.445 837.613 119.417C837.469 119.26 837.329 119.102 837.192 118.944C837.17 118.919 837.147 118.893 837.125 118.868C836.987 118.708 836.853 118.547 836.723 118.387C836.704 118.364 836.685 118.342 836.667 118.319C836.535 118.155 836.407 117.991 836.283 117.827C836.269 117.808 836.254 117.79 836.241 117.771C836.115 117.603 835.994 117.436 835.877 117.268C835.867 117.253 835.856 117.238 835.846 117.223C835.727 117.052 835.614 116.881 835.505 116.711C835.498 116.699 835.49 116.688 835.483 116.676C835.372 116.502 835.267 116.327 835.167 116.153L835.154 116.131C835.052 115.954 834.956 115.777 834.865 115.6L834.858 115.586C834.766 115.406 834.68 115.227 834.6 115.049L834.597 115.044C834.178 114.143 833.917 113.176 833.827 112.186C848.032 120.463 868.692 129.088 882.708 127.196Z" fill="#07294A"/>
<path d="M841.014 96.4579L840.538 95.0023C839.385 91.4767 836.371 88.8823 832.713 88.2673L812.903 84.9366C809.702 84.3984 806.538 86.0759 805.188 89.0275V89.0275C805.123 89.1697 804.972 89.2518 804.817 89.2287L763.457 83.06L762.935 81.2873C762.718 80.5497 761.996 80.0799 761.234 80.1799L752.861 81.2779C752.13 81.3738 751.583 81.9971 751.583 82.7347V83.7435C751.583 84.3472 751.952 84.8894 752.514 85.1106L759.57 87.8889C760.526 88.2655 761.616 87.975 762.258 87.1724L763.098 86.1234L804.489 93.2907C804.596 93.3092 804.688 93.376 804.739 93.4718L804.895 93.7649C807.587 98.8261 812.442 102.381 818.08 103.42L821.886 104.121" stroke="#07294A" stroke-width="0.450544" stroke-linecap="round" stroke-linejoin="round"/>
<path d="M843.142 45.8408C843.142 45.8408 826.248 53.019 801.42 88.2424" stroke="#07294A" stroke-width="0.450544" stroke-linecap="round" stroke-linejoin="round"/>
<path d="M823.841 113.171C823.841 113.171 795.123 123.246 787.206 115.81C779.29 108.373 776.891 88.2422 776.891 88.2422" stroke="#07294A" stroke-width="0.450544" stroke-linecap="round" stroke-linejoin="round"/>
<path d="M776.891 85.0637C776.891 85.0637 775.152 67.7719 775.332 62.7342C775.332 62.7342 772.359 64.3535 769.707 63.4539C769.707 63.4539 767.955 66.3326 766.696 66.1527C765.437 65.9727 765.976 60.0355 770.834 53.9183C775.692 47.8012 797.331 47.8407 803.694 85.0637" stroke="#07294A" stroke-width="0.450544" stroke-linecap="round" stroke-linejoin="round"/>
<path d="M982.011 107.475L940.119 112.715C940.119 112.715 889.102 196.991 887.045 260.737L880.84 264.578L913.474 277.509L942.941 207.412C942.941 207.412 979.853 182.709 982.011 153.125C984.169 123.542 982.011 107.475 982.011 107.475Z" fill="#79C9E7"/>
<path d="M978.96 165.967C975.072 154.093 968.721 146.357 961.544 146.357C949.711 146.357 940.118 167.386 940.118 193.327C940.104 199.11 940.604 204.883 941.61 210.578L942.941 207.413C942.941 207.413 969.661 189.526 978.96 165.967Z" fill="#07294A"/>
<path d="M949.542 115.032C949.542 115.032 942.413 231.391 962.549 286.483L958.343 292.662H994.156C994.156 292.662 998.068 144.66 998.068 112.715L949.542 115.032Z" fill="#79C9E7"/>
<path d="M959.979 177.109C956.864 170.203 959.936 162.08 966.841 158.965L1029.18 130.841C1036.09 127.726 1044.21 130.798 1047.32 137.704L1049.31 142.099C1052.42 149.004 1049.35 157.127 1042.44 160.242L980.105 188.366C973.2 191.481 965.077 188.409 961.962 181.504L959.979 177.109Z" fill="#F0F8FF"/>
<path d="M1048.32 139.901C1051.98 148.02 1048.37 157.571 1040.25 161.233L982.303 187.374" stroke="#07294A" stroke-width="0.450544" stroke-linecap="round" stroke-linejoin="round"/>
<path d="M976.752 25.003V40.1247L958.019 44.7291V19.2099L976.752 14.6055V25.003Z" fill="#F0F8FF"/>
<path d="M966.17 30.2352C966.447 30.2352 966.671 30.0109 966.671 29.7343C966.671 29.4577 966.447 29.2334 966.17 29.2334C965.893 29.2334 965.669 29.4577 965.669 29.7343C965.669 30.0109 965.893 30.2352 966.17 30.2352Z" fill="#07294A"/>
<path d="M973.863 30.2352C974.14 30.2352 974.364 30.0109 974.364 29.7343C974.364 29.4577 974.14 29.2334 973.863 29.2334C973.587 29.2334 973.362 29.4577 973.362 29.7343C973.362 30.0109 973.587 30.2352 973.863 30.2352Z" fill="#07294A"/>
<path d="M971.606 32.7218V25.0029H975.473" stroke="#07294A" stroke-width="0.450544" stroke-linecap="round" stroke-linejoin="round"/>
<path d="M965.227 25.0032H969.094" stroke="#07294A" stroke-width="0.450544" stroke-linecap="round" stroke-linejoin="round"/>
<path d="M959.253 28.9582V31.6387C957.807 31.6387 956.635 30.4666 956.635 29.0206C956.635 28.9403 956.638 28.8608 956.645 28.7823C956.792 27.1565 959.253 27.3258 959.253 28.9582Z" fill="#F0F8FF"/>
<path d="M959.253 31.6386C957.807 31.6386 956.635 30.4665 956.635 29.0205" stroke="#07294A" stroke-width="0.450544" stroke-linecap="round" stroke-linejoin="round"/>
<path d="M969.915 34.625C969.212 34.625 968.538 34.3458 968.041 33.8488C967.544 33.3519 967.265 32.6779 967.265 31.9751" stroke="#79C9E7" stroke-width="0.450544" stroke-linecap="round" stroke-linejoin="round"/>
<path d="M976.752 40.125L958.019 44.7293" stroke="#07294A" stroke-width="0.450544" stroke-linecap="round" stroke-linejoin="round"/>
<path d="M971.606 32.728L969.915 33.1437" stroke="#07294A" stroke-width="0.450544" stroke-linecap="round" stroke-linejoin="round"/>
<path d="M940.119 71.8083V112.715L998.068 126.958V81.3992C998.068 65.2448 987.04 51.1775 971.352 47.3218H971.352C963.829 45.4727 955.874 47.1846 949.777 51.9643C943.68 56.7441 940.119 64.0612 940.119 71.8083V71.8083Z" fill="#F0F8FF"/>
<path d="M949.542 115.031C949.542 115.031 942.413 231.39 962.549 286.482" stroke="#07294A" stroke-width="0.450544" stroke-linecap="round" stroke-linejoin="round"/>
<path d="M958.89 28.0383C958.89 28.0383 960.763 26.7258 961.528 23.7393C961.528 23.7393 965.161 23.578 965.669 21.3414C965.669 21.3414 968.125 22.2243 969.094 20.7528C969.094 20.7528 971.593 22.5774 972.829 20.7528C972.829 20.7528 974.791 22.4597 975.772 20.7528C975.772 20.7528 977.832 21.518 977.949 19.0459" stroke="#07294A" stroke-width="0.450544" stroke-linecap="round" stroke-linejoin="round"/>
<path d="M956.792 27.7558C956.792 27.7558 957.43 12.9242 978.09 16.8089L977.629 14.4978C977.476 13.7358 976.862 13.1512 976.094 13.0359C971.905 12.3988 958.751 11.3234 955.252 22.165C955.341 23.4536 955.616 24.7224 956.069 25.932" stroke="#79C9E7" stroke-width="0.450544" stroke-linecap="round" stroke-linejoin="round"/>
<path d="M956.147 20.014C956.147 20.014 955.989 19.5329 955.785 18.9081C955.349 17.6644 954.464 16.629 953.303 16.0061C952.679 15.6521 952.198 14.8899 952.581 13.2775C953.405 9.80487 969.171 3.02516 975.473 12.9483" stroke="#79C9E7" stroke-width="0.450544" stroke-linecap="round" stroke-linejoin="round"/>
<path d="M985.933 54.8584C985.933 54.8584 1017.38 83.4959 1019.5 131.525C1021.62 179.554 1001.14 188.382 1000.08 185.557C999.021 182.732 998.068 172.844 998.068 172.844C998.068 172.844 993.017 176.375 993.37 173.55C993.723 170.725 997.265 163.684 997.265 163.684L993.829 129.94C992.838 120.21 989.048 110.975 982.917 103.354L973.193 91.2653" stroke="#07294A" stroke-width="0.450544" stroke-linecap="round" stroke-linejoin="round"/>
<path d="M945.574 56.1372C945.574 56.1372 935.066 66.3095 931.905 88.6759C928.743 111.042 927.802 135.017 927.802 135.017" stroke="#07294A" stroke-width="0.450544" stroke-linecap="round" stroke-linejoin="round"/>
<rect x="435.701" y="1.55518" width="102.313" height="184.717" fill="#F0F8FF"/>
<path d="M486.858 0.365234V187.462" stroke="#07294A" stroke-width="0.730845" stroke-linecap="round" stroke-linejoin="round"/>
<path d="M435.701 186.272V1.55518H538.014" stroke="#07294A" stroke-width="0.730845" stroke-linecap="round" stroke-linejoin="round"/>
<path d="M547.883 62.6616H425.833" stroke="#07294A" stroke-width="0.730845" stroke-linecap="round" stroke-linejoin="round"/>
<path d="M547.883 125.166H425.833" stroke="#07294A" stroke-width="0.730845" stroke-linecap="round" stroke-linejoin="round"/>
<rect x="29.9885" y="8.13672" width="148.042" height="191.518" fill="#79C9E7"/>
<rect x="187.662" y="76.6416" width="15.6848" height="34.9468" fill="#F0F8FF"/>
<path d="M192.658 89.2996L195.504 86.4526L198.351 89.2996" fill="white"/>
<path d="M192.658 89.2996L195.504 86.4526L198.351 89.2996" stroke="#07294A" stroke-width="0.412758" stroke-linecap="round" stroke-linejoin="round"/>
<path d="M198.351 98.9307L195.504 101.777L192.658 98.9307" fill="white"/>
<path d="M198.351 98.9307L195.504 101.777L192.658 98.9307" stroke="#07294A" stroke-width="0.412758" stroke-linecap="round" stroke-linejoin="round"/>
<rect x="29.9885" y="8.13672" width="148.042" height="191.518" stroke="#07294A" stroke-width="0.412758" stroke-linecap="round" stroke-linejoin="round"/>
<path d="M29.9885 199.655V8.13672H178.031" stroke="#07294A" stroke-width="0.412758" stroke-linecap="round" stroke-linejoin="round"/>
<path d="M104.01 8.13672V199.655" stroke="#07294A" stroke-width="0.412758" stroke-linecap="round" stroke-linejoin="round"/>
<path d="M0.206299 199.655H207.813" stroke="#07294A" stroke-width="0.412758" stroke-linecap="round" stroke-linejoin="round"/>
<path d="M203.347 76.6421V111.589H187.662" stroke="#07294A" stroke-width="0.412758" stroke-linecap="round" stroke-linejoin="round"/>
</g>
<defs>
<linearGradient id="paint0_linear_981_56852" x1="41.2798" y1="97.2228" x2="1158.72" y2="97.2228" gradientUnits="userSpaceOnUse">
<stop stop-color="#79C9E7"/>
<stop offset="0.2" stop-color="#74DAE1"/>
<stop offset="0.4" stop-color="#82E8D3"/>
<stop offset="0.6" stop-color="#A3F3C1"/>
<stop offset="0.8" stop-color="#CDFBB1"/>
<stop offset="1" stop-color="#FDFFAA"/>
</linearGradient>
<clipPath id="clip0_981_56852">
<rect width="1200" height="200" fill="white"/>
</clipPath>
</defs>
</svg>
