<svg width="1200" height="200" viewBox="0 0 1200 200" fill="none" xmlns="http://www.w3.org/2000/svg">
<g clip-path="url(#clip0_985_58629)">
<path fill-rule="evenodd" clip-rule="evenodd" d="M758.361 49.8724C758.361 63.1491 747.498 73.9119 734.097 73.9119C720.696 73.9119 709.833 63.1491 709.833 49.8724C709.833 36.5958 720.696 25.833 734.097 25.833C747.498 25.833 758.361 36.5958 758.361 49.8724ZM1134.59 88.7514C1151.49 88.7514 1165.18 75.1799 1165.18 58.4386C1165.18 41.6973 1151.49 28.1258 1134.59 28.1258C1117.69 28.1258 1103.99 41.6973 1103.99 58.4386C1103.99 61.5143 1104.45 64.4829 1105.31 67.2801C1106 69.5275 1103.6 72.4753 1101.25 72.4753V72.4753C1090.46 72.4753 1081.7 81.1455 1081.7 91.8406C1081.7 102.536 1090.46 111.206 1101.25 111.206C1112.05 111.206 1120.8 102.536 1120.8 91.8406V91.8406C1120.8 89.4323 1123.79 86.9099 1126.1 87.5708C1128.8 88.3396 1131.64 88.7514 1134.59 88.7514ZM60.1238 42.0417C46.275 42.0417 34.814 53.2683 34.814 67.1171C34.814 80.9659 46.275 92.1925 60.1238 92.1925C73.9726 92.1925 85.4336 80.9659 85.4336 67.1171C85.4336 53.2683 73.9726 42.0417 60.1238 42.0417ZM170.688 48.2139C154.414 48.2139 140.171 57.7603 133.541 71.5584C130.35 78.2005 120.591 83.1797 113.222 83.1797V83.1797C97.8627 83.1797 85.1513 95.6311 85.1513 110.991C85.1513 126.35 97.8627 138.802 113.222 138.802C114.754 138.802 116.26 138.678 117.729 138.44C131.754 136.165 156.48 129.652 170.688 129.652V129.652V129.652C182.528 129.652 200.309 137.529 206.649 147.528C216.649 163.301 234.365 173.786 254.553 173.786C270.06 173.786 284.109 167.6 294.322 157.583C305.286 146.83 330.333 138.083 345.595 139.784C347.692 140.018 349.824 140.138 351.984 140.138C383.205 140.138 408.514 115.063 408.514 84.1319C408.514 53.2006 383.205 28.1258 351.984 28.1258C336.477 28.1258 322.428 34.3118 312.215 44.3289C301.252 55.0817 276.204 63.8282 260.943 62.1273C258.845 61.8936 256.714 61.7736 254.553 61.7736C250.685 61.7736 246.908 62.1585 243.258 62.8918C228.452 65.8665 202.634 59.3608 189.138 52.5837C183.572 49.7888 177.298 48.2139 170.688 48.2139ZM740.298 108.574C740.298 78.8931 764.862 54.8322 794.542 54.8322C819.762 54.8322 841.287 72.204 847.188 95.6342C847.834 98.1997 850.213 99.9999 852.859 99.9999V99.9999C856.617 99.9999 860.267 100.509 863.741 101.462C864.704 101.727 865.677 100.999 865.677 99.9998V99.9998C865.677 64.0114 895.124 34.8371 931.449 34.8371C967.774 34.8371 997.221 64.0114 997.221 99.9998C997.221 135.988 967.774 165.163 931.449 165.163C925.738 165.163 920.197 164.441 914.913 163.086C902.987 160.026 887.85 165.222 878.123 172.77C871.125 178.2 862.336 181.438 852.859 181.438C842.633 181.438 833.209 177.669 825.972 171.445C818.75 165.233 808.717 161.297 799.226 162.114C797.681 162.247 796.119 162.315 794.542 162.315C764.862 162.315 740.298 138.254 740.298 108.574ZM309.203 163.532C309.203 149.683 320.664 138.457 334.513 138.457C348.362 138.457 359.823 149.683 359.823 163.532C359.823 177.381 348.362 188.608 334.513 188.608C320.664 188.608 309.203 177.381 309.203 163.532ZM1044.92 148.163C1044.92 146.576 1042.74 145.215 1041.37 146.014C1036.82 148.666 1031.52 150.188 1025.87 150.188C1008.97 150.188 995.271 136.616 995.271 119.875C995.271 103.133 1008.97 89.5619 1025.87 89.5619C1042.76 89.5619 1056.46 103.133 1056.46 119.875C1056.46 120.288 1056.45 120.699 1056.44 121.108C1056.3 124.464 1061.11 128.798 1064.47 128.798V128.798C1075.26 128.798 1084.01 137.468 1084.01 148.163C1084.01 158.858 1075.26 167.528 1064.47 167.528C1053.67 167.528 1044.92 158.858 1044.92 148.163V148.163ZM579.123 63.122C588.207 63.122 595.571 55.8264 595.571 46.8268C595.571 37.8273 588.207 30.5317 579.123 30.5317C570.04 30.5317 562.676 37.8273 562.676 46.8268C562.676 55.8264 570.04 63.122 579.123 63.122ZM460.506 188.607C491.727 188.607 517.036 163.533 517.036 132.601V132.601C517.036 130.911 519.265 129.898 520.568 130.975C527.628 136.813 536.715 140.325 546.631 140.325C555.885 140.325 564.418 137.265 571.255 132.111C572.222 131.382 573.766 132.198 573.766 133.409V133.409C573.766 146.685 584.629 157.448 598.03 157.448C611.431 157.448 622.294 146.685 622.294 133.409V133.409C622.294 132.58 623.368 132.094 623.967 132.668C633.47 141.78 646.417 147.387 660.686 147.387C689.85 147.387 713.492 123.964 713.492 95.0704C713.492 66.1767 689.85 42.7537 660.686 42.7537C631.522 42.7537 607.88 66.1767 607.88 95.0704C607.88 96.6402 607.95 98.1937 608.087 99.7283C608.482 104.159 602.479 109.369 598.03 109.369V109.369C597.935 109.369 597.839 109.37 597.744 109.371C593.304 109.422 587.333 104.44 587.333 100V100C587.333 77.7292 569.11 59.675 546.631 59.675C542.887 59.675 539.261 60.1758 535.818 61.1135C519.441 65.5732 478.156 76.7965 461.183 76.5991C460.958 76.5965 460.732 76.5952 460.506 76.5952C429.286 76.5952 403.977 101.67 403.977 132.601C403.977 163.533 429.286 188.607 460.506 188.607Z" fill="url(#paint0_linear_985_58629)"/>
<path d="M185.139 37.7775L171.703 35.1838L214.365 14.6416L196.356 47.067L192.16 42.5078L189.036 48.0371L187.06 41.0405" fill="#79C9E7"/>
<path d="M130.789 292.569L128.714 92.7974L101.162 128.49C101.162 128.49 94.859 232.838 101.162 285.363L93.7222 292.569H130.789Z" fill="#DFEFFF"/>
<path d="M110.493 116.68C110.493 116.68 103.434 231.899 123.372 286.45L119.208 292.569H154.67C154.67 292.569 158.544 146.018 158.544 114.387L110.493 116.68Z" fill="#F0F8FF"/>
<path d="M137.437 27.5345V42.5079L118.887 47.0672V21.7982L137.437 17.2393V27.5345Z" fill="#F0F8FF"/>
<path d="M126.958 32.7146C127.232 32.7146 127.454 32.4925 127.454 32.2186C127.454 31.9447 127.232 31.7227 126.958 31.7227C126.684 31.7227 126.462 31.9447 126.462 32.2186C126.462 32.4925 126.684 32.7146 126.958 32.7146Z" fill="#07294A"/>
<path d="M134.576 32.7146C134.85 32.7146 135.072 32.4925 135.072 32.2186C135.072 31.9447 134.85 31.7227 134.576 31.7227C134.302 31.7227 134.08 31.9447 134.08 32.2186C134.08 32.4925 134.302 32.7146 134.576 32.7146Z" fill="#07294A"/>
<path d="M132.341 35.1774V27.5342H136.17" stroke="#07294A" stroke-width="0.450544" stroke-linecap="round" stroke-linejoin="round"/>
<path d="M126.024 27.5342H129.853" stroke="#07294A" stroke-width="0.450544" stroke-linecap="round" stroke-linejoin="round"/>
<path d="M120.109 31.4507V34.1049C118.677 34.1049 117.517 32.9443 117.517 31.5125C117.517 31.433 117.52 31.3543 117.527 31.2765C117.672 29.6667 120.109 29.8343 120.109 31.4507Z" fill="#F0F8FF"/>
<path d="M120.109 34.1047C118.677 34.1047 117.517 32.944 117.517 31.5122" stroke="#07294A" stroke-width="0.450544" stroke-linecap="round" stroke-linejoin="round"/>
<path d="M130.666 37.0619C129.217 37.0619 128.042 35.8871 128.042 34.438" stroke="#79C9E7" stroke-width="0.450544" stroke-linecap="round" stroke-linejoin="round"/>
<path d="M137.437 42.5078L118.887 47.0669" stroke="#07294A" stroke-width="0.450544" stroke-linecap="round" stroke-linejoin="round"/>
<path d="M132.341 35.1836L130.667 35.5952" stroke="#07294A" stroke-width="0.450544" stroke-linecap="round" stroke-linejoin="round"/>
<path d="M158.544 73.881V114.387L101.162 128.49V83.3778C101.162 67.3818 112.082 53.4524 127.616 49.6344H127.616C135.066 47.8035 142.943 49.4986 148.98 54.2315C155.017 58.9644 158.544 66.2098 158.544 73.881V73.881Z" fill="#79C9E7"/>
<path d="M110.493 116.68C110.493 116.68 103.434 231.898 123.372 286.45L119.208 292.569" stroke="#07294A" stroke-width="0.450544" stroke-linecap="round" stroke-linejoin="round"/>
<path d="M137.437 25.5405C137.437 25.5405 144.078 22.9761 139.998 11.9025C137.449 4.98398 133.93 8.12111 131.649 11.4494C130.116 13.6583 127.709 15.1022 125.038 15.4135C120.954 15.9084 115.795 18.45 118.317 28.6877" stroke="#07294A" stroke-width="0.450544" stroke-linecap="round" stroke-linejoin="round"/>
<path d="M120.109 31.4504C120.109 31.4504 123.271 29.0662 121.96 24.3453C121.96 24.3453 137.177 23.4766 137.437 18.2285" stroke="#07294A" stroke-width="0.450544" stroke-linecap="round" stroke-linejoin="round"/>
<path d="M141.323 50.1339C141.323 50.1339 158.544 55.3804 169.558 83.7547C169.558 83.7547 179.334 43.0786 181.669 40.6934C185.283 37.0022 190.353 34.399 188.721 38.129C187.09 41.8591 185.458 42.5078 185.458 42.5078C185.458 42.5078 189.887 46.1507 186.856 48.9006" stroke="#07294A" stroke-width="0.450544" stroke-linecap="round" stroke-linejoin="round"/>
<path d="M191.538 35.1778C191.986 34.749 198.163 48.5035 190.354 56.3133C190.354 56.3133 204.341 164.717 136.17 99.4418" stroke="#07294A" stroke-width="0.450544" stroke-linecap="round" stroke-linejoin="round"/>
<path d="M109.281 62.3742C109.281 62.3742 102.931 66.5705 95.7041 95.4782L92.2072 65.1717C92.2072 65.1717 95.7041 62.141 95.7041 57.7116C95.7041 57.7116 101.066 54.681 99.4342 53.5153C97.8023 52.3497 90.8084 54.681 87.7778 57.7116C84.7471 60.7423 78.2196 93.8463 80.784 110.865C83.3484 127.883 93.7987 134.225 101.162 128.49" stroke="#07294A" stroke-width="0.450544" stroke-linecap="round" stroke-linejoin="round"/>
<path d="M139.234 102.31C139.234 102.31 144.377 135.805 158.127 145.774V116.68C158.127 116.68 140.455 103.437 139.234 102.31Z" fill="#07294A"/>
<path d="M1105.7 124.458L1080.39 98.623L1067.84 292.66H1105.7L1100.11 285.031C1100.46 255.277 1105.7 124.458 1105.7 124.458Z" fill="#DFEFFF"/>
<path d="M1096.64 109.12L1054.66 106.245L1047.03 109.353L1043.44 292.659H1082.43L1078.31 285.273L1096.64 109.12Z" fill="#F0F8FF"/>
<path d="M1082.43 292.66L1078.31 285.273L1096.64 109.12" stroke="#07294A" stroke-width="0.450544" stroke-linecap="round" stroke-linejoin="round"/>
<path d="M1063.05 20.9656V27.591C1063.05 32.7139 1066.55 37.175 1071.53 38.3978L1082.07 40.9891V15.0853L1073.3 12.9306C1070.83 12.3239 1068.22 12.8856 1066.22 14.454C1064.22 16.0224 1063.05 18.4235 1063.05 20.9656V20.9656Z" fill="#F0F8FF"/>
<path d="M1063.05 27.5913C1063.05 32.7143 1066.55 37.1754 1071.53 38.3981L1082.07 40.9895" stroke="#07294A" stroke-width="0.450544" stroke-linecap="round" stroke-linejoin="round"/>
<path d="M1073.8 26.2766C1074.08 26.2766 1074.3 26.049 1074.3 25.7682C1074.3 25.4874 1074.08 25.2598 1073.8 25.2598C1073.51 25.2598 1073.29 25.4874 1073.29 25.7682C1073.29 26.049 1073.51 26.2766 1073.8 26.2766Z" fill="#07294A"/>
<path d="M1065.99 26.2766C1066.27 26.2766 1066.49 26.049 1066.49 25.7682C1066.49 25.4874 1066.27 25.2598 1065.99 25.2598C1065.71 25.2598 1065.48 25.4874 1065.48 25.7682C1065.48 26.049 1065.71 26.2766 1065.99 26.2766Z" fill="#07294A"/>
<path d="M1068.28 28.8011V20.9658H1064.35" stroke="#07294A" stroke-width="0.450544" stroke-linecap="round" stroke-linejoin="round"/>
<path d="M1074.75 20.9659H1070.83" stroke="#07294A" stroke-width="0.450544" stroke-linecap="round" stroke-linejoin="round"/>
<path d="M1080.82 24.9804V27.7014C1082.28 27.7014 1083.47 26.5115 1083.47 25.0438C1083.47 24.9623 1083.47 24.8816 1083.46 24.8019C1083.31 23.1516 1080.82 23.3234 1080.82 24.9804Z" fill="#F0F8FF"/>
<path d="M1080.82 27.7015C1082.28 27.7015 1083.47 26.5117 1083.47 25.0439" stroke="#07294A" stroke-width="0.450544" stroke-linecap="round" stroke-linejoin="round"/>
<path d="M1070.42 29.7168C1070.75 30.0468 1071.2 30.2322 1071.67 30.2322C1072.13 30.2322 1072.58 30.0468 1072.91 29.7168" stroke="#79C9E7" stroke-width="0.450544" stroke-linecap="round" stroke-linejoin="round"/>
<path d="M1068.28 28.8071L1069.99 29.2291" stroke="#07294A" stroke-width="0.450544" stroke-linecap="round" stroke-linejoin="round"/>
<path d="M1046.87 68.4766V110L1105.7 124.458V78.212C1105.7 61.8141 1094.5 47.5347 1078.58 43.6208H1078.58C1070.94 41.7439 1062.87 43.4816 1056.68 48.3334C1050.49 53.1852 1046.87 60.6127 1046.87 68.4766V68.4766Z" fill="#79C9E7"/>
<path d="M1082.15 35.292C1082.15 35.292 1079.72 41.8043 1085.65 45.6878C1091.24 49.3492 1095.85 36.6543 1092.98 27.6325C1092.81 27.109 1092.73 26.5621 1092.73 26.0124C1092.77 22.4756 1091.77 8.74508 1074.3 7.80878C1062.63 7.1833 1053.04 15.7051 1062.65 25.2596" stroke="#07294A" stroke-width="0.450544" stroke-linecap="round" stroke-linejoin="round"/>
<path d="M1063.05 20.9655C1063.05 20.9655 1066.77 21.61 1068.56 16.5913C1068.56 16.5913 1074.19 24.4181 1080.82 23.2231L1081.29 23.9532" stroke="#07294A" stroke-width="0.450544" stroke-linecap="round" stroke-linejoin="round"/>
<path d="M1092.58 45.8994C1092.58 45.8994 1092.77 49.2331 1086.1 47.9949" stroke="#79C9E7" stroke-width="0.450544" stroke-linecap="round" stroke-linejoin="round"/>
<path d="M1093.86 49.1533C1093.86 49.1533 1097.6 64.0301 1090.43 62.0585C1083.26 60.0869 1087.92 51.1249 1087.92 51.1249" stroke="#07294A" stroke-width="0.450544" stroke-linecap="round" stroke-linejoin="round"/>
<path d="M1019.79 31.4659L1033.57 28.807L989.834 7.74902L1008.3 40.9892L1012.6 36.3153L1015.8 41.9836L1017.83 34.8112" fill="#79C9E7"/>
<path d="M1064.71 44.1335C1064.71 44.1335 1047.06 49.5118 1035.77 78.599C1035.77 78.599 1025.75 36.9009 1023.35 34.4558C1019.65 30.6718 1014.45 28.0032 1016.12 31.827C1017.8 35.6507 1019.47 36.3158 1019.47 36.3158C1019.47 36.3158 1014.93 40.0502 1018.03 42.8691" stroke="#07294A" stroke-width="0.450544" stroke-linecap="round" stroke-linejoin="round"/>
<path d="M1013.24 28.8011C1012.78 28.3615 1006.44 42.4616 1014.45 50.4676C1014.45 50.4676 1000.11 161.595 1069.99 94.6798" stroke="#07294A" stroke-width="0.450544" stroke-linecap="round" stroke-linejoin="round"/>
<path d="M1066.14 98.272C1066.14 98.272 1060.97 131.957 1046.87 142.176V112.351C1046.87 112.351 1064.88 99.4274 1066.14 98.272Z" fill="#07294A"/>
<path d="M1099.97 58.8379C1099.97 58.8379 1131.01 101.491 1105.7 145.942" stroke="#07294A" stroke-width="0.450544" stroke-linecap="round" stroke-linejoin="round"/>
<path d="M222.174 12.6966C368.045 -15.25 530.196 35.418 549.846 96.0116C569.496 156.605 475.675 177.311 467.401 119.945C459.126 62.5788 682.632 167.378 735.146 73.7803C787.659 -19.8173 982.389 7.25454 982.389 7.25454" stroke="#0A4070" stroke-width="2" stroke-dasharray="4 6"/>
</g>
<defs>
<linearGradient id="paint0_linear_985_58629" x1="34.814" y1="107.22" x2="1165.18" y2="107.22" gradientUnits="userSpaceOnUse">
<stop stop-color="#FFF2C5"/>
<stop offset="0.2" stop-color="#FFF4BF"/>
<stop offset="0.4" stop-color="#FFF7BA"/>
<stop offset="0.6" stop-color="#FFF9B4"/>
<stop offset="0.8" stop-color="#FFFCAF"/>
<stop offset="1" stop-color="#FDFFAA"/>
</linearGradient>
<clipPath id="clip0_985_58629">
<rect width="1200" height="200" fill="white"/>
</clipPath>
</defs>
</svg>
