<svg width="1200" height="200" viewBox="0 0 1200 200" fill="none" xmlns="http://www.w3.org/2000/svg">
<g clip-path="url(#clip0_981_58071)">
<g opacity="0.5">
<path fill-rule="evenodd" clip-rule="evenodd" d="M466.119 75.9969C465.758 76.6218 464.856 76.6218 464.495 75.9969L438.155 30.374C431.294 18.4912 414.143 18.4912 407.282 30.374L398.384 45.7861C395.2 51.301 389.316 54.6983 382.948 54.6983L270.766 54.6982C259.924 54.6982 253.148 66.4354 258.569 75.8251V75.8251C261.085 80.1828 261.085 85.5518 258.569 89.9096L248.835 106.769C242.721 117.36 227.434 117.36 221.319 106.769L218.979 102.716C213.904 93.9259 201.218 93.9259 196.143 102.716V102.716C191.068 111.505 178.382 111.505 173.307 102.716L161.019 81.4332C154.159 69.5504 137.008 69.5504 130.147 81.4333L118.768 101.142C111.908 113.025 94.7563 113.025 87.8958 101.142L87.2453 100.015C80.3847 88.1324 63.2334 88.1324 56.3728 100.015L45.0613 119.607C38.2008 131.49 46.7765 146.344 60.4976 146.344H113.419C113.674 146.344 113.834 146.067 113.706 145.846V145.846C113.578 145.625 113.738 145.349 113.993 145.349H155.223C162.47 145.349 166.999 153.194 163.376 159.47V159.47C159.752 165.746 164.282 173.591 171.528 173.591H247.488C253.004 173.591 256.451 167.62 253.693 162.842V162.842C250.935 158.065 254.383 152.094 259.899 152.094H292.312C298.68 152.094 304.564 155.491 307.748 161.006L312.864 169.867C319.724 181.75 336.876 181.75 343.736 169.867L382.225 103.202C385.409 97.6871 391.294 94.2898 397.662 94.2898H424.685C438.406 94.2898 446.981 109.143 440.121 121.026L430.029 138.507C423.168 150.389 431.744 165.243 445.465 165.243H484.686C488.78 165.243 491.339 169.676 489.292 173.222V173.222C487.245 176.768 489.804 181.2 493.899 181.2H572.557C580.026 181.2 584.694 173.115 580.959 166.647V166.647C577.225 160.179 581.893 152.094 589.362 152.094H622.106C628.474 152.094 634.359 155.491 637.543 161.006L642.659 169.867C649.519 181.75 666.671 181.75 673.531 169.867L695.462 131.882C698.646 126.367 704.53 122.97 710.898 122.97H754.022C763.248 122.97 769.014 132.957 764.401 140.947V140.947C759.788 148.938 765.555 158.925 774.781 158.925H863.764C870.132 158.925 876.016 162.323 879.2 167.837L883.948 176.061C890.809 187.944 907.96 187.944 914.82 176.061L918.019 170.521C921.203 165.007 927.087 161.609 933.455 161.609H988.168C1001.89 161.609 1010.46 146.756 1003.6 134.873L982.139 97.6936C975.278 85.8108 958.127 85.8108 951.266 97.6936L936.731 122.869C933.547 128.384 927.663 131.781 921.295 131.781L884.445 131.781C878.077 131.781 872.193 128.384 869.009 122.869L837.36 68.0515C830.5 56.1686 813.348 56.1686 806.488 68.0515L800.48 78.4568C793.62 90.3396 776.468 90.3396 769.608 78.4568L757.498 57.4816C751.041 46.2976 734.898 46.2976 728.441 57.4816V57.4816C725.444 62.6722 719.906 65.8697 713.912 65.8697L601.352 65.8697C593.025 65.8697 587.82 74.8842 591.984 82.0958V82.0958C593.916 85.4427 593.916 89.5663 591.984 92.9132L579.268 114.938C573.009 125.778 557.363 125.778 551.105 114.938V114.938C544.847 104.098 529.201 104.098 522.942 114.938L521.804 116.91C515.039 128.627 498.128 128.627 491.363 116.91L467.742 75.9969C467.381 75.372 466.479 75.372 466.119 75.9969V75.9969ZM1004.13 70.7797C990.411 70.7797 981.836 85.6332 988.696 97.5161L1010.16 134.695C1017.02 146.578 1034.17 146.578 1041.03 134.695L1062.5 97.516C1069.36 85.6332 1060.78 70.7797 1047.06 70.7797L1004.13 70.7797ZM1080.48 117.285C1087.34 105.402 1104.49 105.402 1111.35 117.285L1132.82 154.464C1139.68 166.347 1131.1 181.2 1117.38 181.2H1074.45C1060.73 181.2 1052.15 166.347 1059.01 154.464L1080.48 117.285Z" fill="url(#paint0_linear_981_58071)"/>
</g>
<path d="M440.671 99.2627C440.671 99.2627 512.056 167.111 527.425 209.377L537.686 212.255L514.919 231.632L459.695 181.544C459.695 181.544 421.937 164.298 414.173 141.53C406.409 118.762 405.174 105.683 405.174 105.683" fill="#79C9E7"/>
<path d="M414.173 141.53C418.321 153.693 431.027 164.278 441.964 171.502C443.721 164.354 444.591 157.016 444.552 149.656C444.552 124.312 434.928 103.766 423.055 103.766C416.901 103.766 411.352 109.288 407.433 118.135C409.275 126.044 411.524 133.853 414.173 141.53V141.53Z" fill="#07294A"/>
<path d="M432.053 101.381C432.053 101.381 438.572 207.792 420.158 258.174L424.005 263.826H391.253C391.253 263.826 387.675 128.476 387.675 99.2627L432.053 101.381Z" fill="#79C9E7"/>
<path d="M421.177 19.0493V32.8785L404.046 37.089V13.7515L421.177 9.54102V19.0493Z" fill="#FFFBEA"/>
<path d="M411.5 23.8341C411.753 23.8341 411.958 23.629 411.958 23.376C411.958 23.123 411.753 22.918 411.5 22.918C411.247 22.918 411.042 23.123 411.042 23.376C411.042 23.629 411.247 23.8341 411.5 23.8341Z" fill="#07294A"/>
<path d="M418.535 23.8341C418.788 23.8341 418.993 23.629 418.993 23.376C418.993 23.123 418.788 22.918 418.535 22.918C418.282 22.918 418.077 23.123 418.077 23.376C418.077 23.629 418.282 23.8341 418.535 23.8341Z" fill="#07294A"/>
<path d="M416.471 26.1083V19.0493H420.007" stroke="#07294A" stroke-width="0.405908" stroke-linecap="round" stroke-linejoin="round"/>
<path d="M410.637 19.0492H414.173" stroke="#07294A" stroke-width="0.405908" stroke-linecap="round" stroke-linejoin="round"/>
<path d="M405.174 22.6662V25.1176C403.852 25.1176 402.78 24.0457 402.78 22.7233C402.78 22.6499 402.783 22.5772 402.789 22.5054C402.923 21.0186 405.174 21.1734 405.174 22.6662Z" fill="#FFFBEA"/>
<path d="M405.174 25.1174C403.852 25.1174 402.78 24.0455 402.78 22.7231" stroke="#07294A" stroke-width="0.405908" stroke-linecap="round" stroke-linejoin="round"/>
<path d="M414.924 27.8486C413.586 27.8486 412.501 26.7637 412.501 25.4253" stroke="#79C9E7" stroke-width="0.405908" stroke-linecap="round" stroke-linejoin="round"/>
<path d="M421.177 32.8784L404.046 37.0891" stroke="#07294A" stroke-width="0.405908" stroke-linecap="round" stroke-linejoin="round"/>
<path d="M416.471 26.1138L414.924 26.4939" stroke="#07294A" stroke-width="0.405908" stroke-linecap="round" stroke-linejoin="round"/>
<path d="M440.671 61.8533V99.2629L387.675 112.288V70.6243C387.675 55.8509 397.761 42.9862 412.107 39.4601H412.107C418.987 37.7691 426.263 39.3346 431.839 43.7058C437.414 48.077 440.671 54.7685 440.671 61.8533V61.8533Z" fill="#FFFBEA"/>
<path d="M432.053 101.381C432.053 101.381 438.573 207.792 420.158 258.174" stroke="#07294A" stroke-width="0.405908" stroke-linecap="round" stroke-linejoin="round"/>
<path d="M405.174 22.6661C405.174 22.6661 407.166 18.737 406.197 15.8303L408.215 18.3333C408.215 18.3333 417.741 16.234 418.993 11.874L421.177 14.2155L421.618 13.0851" stroke="#07294A" stroke-width="0.405908" stroke-linecap="round" stroke-linejoin="round"/>
<path d="M403.613 21.4651C403.613 21.4651 398.446 13.8117 404.501 8.80578C410.557 3.79987 423.798 10.8243 423.798 10.8243C423.798 10.8243 421.796 17.8932 421.177 17.8932" stroke="#07294A" stroke-width="0.405908" stroke-linecap="round" stroke-linejoin="round"/>
<path d="M401.558 44.1963C401.558 44.1963 362.355 68.5538 335.872 104.403C309.389 140.251 329.09 123.78 329.09 123.78C329.09 123.78 340.07 125.072 341.039 117.321C341.039 117.321 394.059 80.1804 405.174 81.1493" stroke="#07294A" stroke-width="0.405908" stroke-linecap="round" stroke-linejoin="round"/>
<path d="M420.008 38.7824C420.008 38.7824 480.377 35.8908 504.556 41.5326C530.393 47.5612 510.369 50.2532 510.369 50.2532C510.369 50.2532 508.216 56.9277 500.896 52.5037C500.896 52.5037 456.65 59.4791 440.671 66.5083" stroke="#07294A" stroke-width="0.405908" stroke-linecap="round" stroke-linejoin="round"/>
<path d="M638.88 53.2456C638.88 53.2456 632.609 59.1046 623.647 66.6326" stroke="#07294A" stroke-width="0.450544" stroke-linecap="round" stroke-linejoin="round"/>
<path d="M628.636 124.487C628.636 124.487 594.621 222.73 628.636 280.263L625.013 290.479L654.234 278.112L650.576 196.384C650.576 196.384 673.646 145.227 671.374 135.318C669.103 125.409 668.573 110.931 668.573 110.931" fill="#DFEFFF"/>
<path d="M638.202 112.38C638.202 112.38 630.965 230.494 651.404 286.416L647.135 292.689H683.488C683.488 292.689 687.459 142.455 687.459 110.029L638.202 112.38Z" fill="#F0F8FF"/>
<path d="M648.152 20.9948V36.3445L667.168 41.0183V15.1144L648.152 10.4409V20.9948Z" fill="#F0F8FF"/>
<path d="M658.894 26.3054C658.613 26.3054 658.385 26.0778 658.385 25.797C658.385 25.5162 658.613 25.2886 658.894 25.2886C659.175 25.2886 659.402 25.5162 659.402 25.797C659.402 26.0778 659.175 26.3054 658.894 26.3054Z" fill="#07294A"/>
<path d="M651.085 26.3054C650.804 26.3054 650.576 26.0778 650.576 25.797C650.576 25.5162 650.804 25.2886 651.085 25.2886C651.366 25.2886 651.593 25.5162 651.593 25.797C651.593 26.0778 651.366 26.3054 651.085 26.3054Z" fill="#07294A"/>
<path d="M653.375 28.8303V20.9951H649.451" stroke="#07294A" stroke-width="0.450544" stroke-linecap="round" stroke-linejoin="round"/>
<path d="M659.852 20.9947H655.926" stroke="#07294A" stroke-width="0.450544" stroke-linecap="round" stroke-linejoin="round"/>
<path d="M665.915 25.0097V27.7307C667.383 27.7307 668.573 26.5408 668.573 25.0731C668.573 24.9915 668.569 24.9109 668.562 24.8312C668.413 23.1809 665.915 23.3527 665.915 25.0097Z" fill="#F0F8FF"/>
<path d="M665.915 27.7303C667.383 27.7303 668.573 26.5405 668.573 25.0728" stroke="#07294A" stroke-width="0.450544" stroke-linecap="round" stroke-linejoin="round"/>
<path d="M655.092 30.7616C656.578 30.7616 657.782 29.5573 657.782 28.0718" stroke="#79C9E7" stroke-width="0.450544" stroke-linecap="round" stroke-linejoin="round"/>
<path d="M648.152 36.3447L667.168 41.0184" stroke="#07294A" stroke-width="0.450544" stroke-linecap="round" stroke-linejoin="round"/>
<path d="M653.376 28.8364L655.093 29.2584" stroke="#07294A" stroke-width="0.450544" stroke-linecap="round" stroke-linejoin="round"/>
<path d="M665.915 24.6307C665.915 24.6307 663.492 20.2095 663.372 18.2378L662.715 20.9946C662.715 20.9946 658.234 19.612 655.486 16.2065V19.7116C655.486 19.7116 650.199 18.5963 648.839 15.0713V18.3573C648.839 18.3573 647.181 17.2222 646.763 15.4895" stroke="#79C9E7" stroke-width="0.450544" stroke-linecap="round" stroke-linejoin="round"/>
<path d="M648.152 21.3449C648.152 21.3449 638.491 11.0952 651.593 8.26046C660.982 6.22909 665.915 11.2478 665.915 11.2478C665.915 11.2478 669.168 12.8012 670.482 15.43C671.796 18.0588 672.337 24.8101 667.168 29.8288" stroke="#79C9E7" stroke-width="0.450544" stroke-linecap="round" stroke-linejoin="round"/>
<path d="M687.459 68.5059V110.029L628.636 124.487V78.2413C628.636 61.8434 639.831 47.564 655.755 43.6501H655.755C663.392 41.7732 671.467 43.5109 677.656 48.3627C683.845 53.2145 687.459 60.642 687.459 68.5059V68.5059Z" fill="#79C9E7"/>
<path d="M648.152 99.8585C648.152 99.8585 648.119 65.6594 628.636 65.4406C609.153 65.2219 615.933 42.8979 615.933 42.8979L584 50.1305C584 50.1305 578.751 80.7508 605.653 89.9317C619.401 94.6233 613.518 126.618 613.518 126.618L648.839 122.526V117.81" fill="#F0F8FF"/>
<path d="M584 50.1309C584 50.1309 578.751 80.7512 605.653 89.9321C619.401 94.6237 613.518 126.618 613.518 126.618" stroke="#07294A" stroke-width="0.450544" stroke-linecap="round" stroke-linejoin="round"/>
<path d="M682.421 53.2456C682.421 53.2456 700.899 77.4466 700.66 105.886C700.421 134.325 656.448 131.696 639.719 108.993C639.719 108.993 628.726 101.345 630.399 99.6722C632.072 97.9993 639.395 99.5987 639.395 99.5987C639.395 99.5987 638.046 95.729 640.078 96.6849C642.109 97.6408 644.832 99.638 644.832 99.638L671.532 101.412L665.444 76.4907" stroke="#07294A" stroke-width="0.450544" stroke-linecap="round" stroke-linejoin="round"/>
<path d="M638.202 112.38C638.202 112.38 630.965 230.494 651.404 286.416" stroke="#07294A" stroke-width="0.450544" stroke-linecap="round" stroke-linejoin="round"/>
<path d="M682.421 53.2456C682.421 53.2456 700.899 77.4466 700.66 105.886C700.421 134.325 656.448 131.696 639.719 108.993C639.719 108.993 628.726 101.345 630.399 99.6722C632.072 97.9993 639.395 99.5987 639.395 99.5987C639.395 99.5987 638.046 95.729 640.078 96.6849C642.109 97.6408 644.832 99.638 644.832 99.638L671.532 101.412L665.444 76.4907" stroke="#07294A" stroke-width="0.450544" stroke-linecap="round" stroke-linejoin="round"/>
<path d="M686.979 124.938V145.078C658.48 138.385 644.181 114.012 644.181 114.012L644.182 114.012C655.818 124.994 674.341 129.294 686.979 124.938Z" fill="#07294A"/>
<path d="M618.987 120.404C618.987 120.404 598.375 126.14 594.252 116.64C590.13 107.141 597.479 80.9718 597.479 80.9718C597.479 80.9718 595.328 76.3116 596.403 75.057C597.479 73.8023 598.554 75.057 598.554 75.057C598.554 75.057 600.257 66.812 602.856 67.4393C605.455 68.0667 607.274 82.5734 608.256 92.6874" stroke="#07294A" stroke-width="0.450544" stroke-linecap="round" stroke-linejoin="round"/>
<path d="M708.671 285.499C707.058 229.579 732.064 124.62 732.064 124.62L766.217 101.072V210.76L734.039 292.821H703.929L708.671 285.499Z" fill="#79C9E7"/>
<path d="M732.064 211C732.064 169.275 744.474 135.451 759.783 135.451C762.082 135.49 764.319 136.203 766.217 137.501V210.76L742.751 270.605C736.247 256.78 732.064 235.222 732.064 211Z" fill="#07294A"/>
<path d="M742.21 112.513C742.21 112.513 734.974 230.626 755.413 286.549L751.143 292.822H787.496C787.496 292.822 791.468 142.588 791.468 110.162L742.21 112.513Z" fill="#79C9E7"/>
<path d="M751.968 21.1277V36.4776L770.983 41.1511V15.2472L751.968 10.5737V21.1277Z" fill="#FFFBEA"/>
<path d="M762.709 26.4382C762.429 26.4382 762.201 26.2106 762.201 25.9298C762.201 25.649 762.429 25.4214 762.709 25.4214C762.99 25.4214 763.218 25.649 763.218 25.9298C763.218 26.2106 762.99 26.4382 762.709 26.4382Z" fill="#07294A"/>
<path d="M754.9 26.4382C754.62 26.4382 754.392 26.2106 754.392 25.9298C754.392 25.649 754.62 25.4214 754.9 25.4214C755.181 25.4214 755.409 25.649 755.409 25.9298C755.409 26.2106 755.181 26.4382 754.9 26.4382Z" fill="#07294A"/>
<path d="M757.191 28.9627V21.1274H753.266" stroke="#07294A" stroke-width="0.450544" stroke-linecap="round" stroke-linejoin="round"/>
<path d="M763.667 21.1275H759.742" stroke="#07294A" stroke-width="0.450544" stroke-linecap="round" stroke-linejoin="round"/>
<path d="M769.731 25.142V27.863C771.199 27.863 772.388 26.6732 772.388 25.2054C772.388 25.1239 772.385 25.0432 772.378 24.9635C772.229 23.3132 769.731 23.4851 769.731 25.142Z" fill="#FFFBEA"/>
<path d="M769.731 27.8632C771.199 27.8632 772.388 26.6733 772.388 25.2056" stroke="#07294A" stroke-width="0.450544" stroke-linecap="round" stroke-linejoin="round"/>
<path d="M758.908 30.8944C759.622 30.8944 760.306 30.611 760.81 30.1066C761.315 29.6021 761.598 28.918 761.598 28.2046" stroke="#79C9E7" stroke-width="0.450544" stroke-linecap="round" stroke-linejoin="round"/>
<path d="M766.217 39.9795L770.983 41.1509" stroke="#07294A" stroke-width="0.450544" stroke-linecap="round" stroke-linejoin="round"/>
<path d="M757.191 28.9692L758.908 29.3912" stroke="#07294A" stroke-width="0.450544" stroke-linecap="round" stroke-linejoin="round"/>
<path d="M768.98 27.8631C768.98 27.8631 770.593 40.6399 760.915 40.8789C751.236 41.1179 750.43 34.6056 751.968 26.7788" stroke="#07294A" stroke-width="0.450544" stroke-linecap="round" stroke-linejoin="round"/>
<path d="M771.925 24.0818C771.925 24.0818 775.493 13.8736 770.414 9.69133C765.336 5.50909 749.503 9.09386 750.1 13.2163C750.698 17.3388 764.977 17.6376 764.977 17.6376C764.977 17.6376 765.276 21.5808 767.307 22.238C767.307 22.238 767.546 26.1053 766.71 28.2045" stroke="#07294A" stroke-width="0.450544" stroke-linecap="round" stroke-linejoin="round"/>
<path d="M790.887 68.6387V110.162L732.064 124.62V78.3742C732.064 61.9762 743.259 47.6968 759.183 43.783H759.183C766.819 41.906 774.895 43.6437 781.084 48.4955C787.272 53.3474 790.887 60.7748 790.887 68.6387V68.6387Z" fill="#FFFBEA"/>
<path d="M745.245 92.635L740.966 77.085L724.947 79.0566L732.064 103.075L746.994 101.072" fill="#79C9E7"/>
<path d="M742.21 112.513C742.21 112.513 734.974 230.626 755.413 286.549" stroke="#07294A" stroke-width="0.450544" stroke-linecap="round" stroke-linejoin="round"/>
<path d="M782.379 49.584C782.379 49.584 811.998 82.7755 805.784 110.162C799.57 137.548 736.535 112.631 735.073 101.071C733.611 89.512 744.843 96.9205 744.843 96.9205C744.843 96.9205 744.133 90.7369 746.283 93.1267C748.433 95.5166 750.063 97.4375 750.063 97.4375L775.433 94.5307L769.081 80.4306" stroke="#07294A" stroke-width="0.450544" stroke-linecap="round" stroke-linejoin="round"/>
<path d="M724.947 75.5289C730.862 78.4537 732.064 73.6796 732.064 73.6796C733.086 74.038 736.334 77.6552 735.97 73.6796C735.807 71.4086 734.249 69.4786 732.064 68.8401C732.064 68.8401 716.523 64.9343 715.268 83.8253C714.014 102.716 722.985 114.779 732.064 111.499" stroke="#07294A" stroke-width="0.450544" stroke-linecap="round" stroke-linejoin="round"/>
<path d="M745.934 50.1631C739.224 55.0255 733.655 61.2914 729.613 68.5247" stroke="#07294A" stroke-width="0.450544" stroke-linecap="round" stroke-linejoin="round"/>
</g>
<defs>
<linearGradient id="paint0_linear_981_58071" x1="588.938" y1="199.175" x2="588.938" y2="21.4619" gradientUnits="userSpaceOnUse">
<stop stop-color="#79C9E7"/>
<stop offset="0.2" stop-color="#74DAE1"/>
<stop offset="0.4" stop-color="#82E8D3"/>
<stop offset="0.6" stop-color="#A3F3C1"/>
<stop offset="0.8" stop-color="#CDFBB1"/>
<stop offset="1" stop-color="#FDFFAA"/>
</linearGradient>
<clipPath id="clip0_981_58071">
<rect width="1200" height="200" fill="white"/>
</clipPath>
</defs>
</svg>
