<svg width="1200" height="200" viewBox="0 0 1200 200" fill="none" xmlns="http://www.w3.org/2000/svg">
<g clip-path="url(#clip0_981_56598)">
<path d="M153.55 53.9014V116.645H2.84326" stroke="#07294A" stroke-width="0.610972" stroke-linecap="round" stroke-linejoin="round"/>
<path d="M184.516 174.907V61.2324" stroke="#07294A" stroke-width="0.610972" stroke-linecap="round" stroke-linejoin="round"/>
<path d="M-75.4551 174.907H231.848" stroke="#07294A" stroke-width="0.610972" stroke-linecap="round" stroke-linejoin="round"/>
<path d="M78.1963 -20.6333V116.645" stroke="#07294A" stroke-width="0.610972" stroke-linecap="round" stroke-linejoin="round"/>
<path d="M78.1968 48.0059H155.261" stroke="#07294A" stroke-width="0.610972" stroke-linecap="round" stroke-linejoin="round"/>
<rect x="11.542" y="77.5459" width="5.75775" height="39.0694" fill="#F0F8FF"/>
<path d="M17.3003 116.615H11.5425V77.5459" stroke="#07294A" stroke-width="0.610972" stroke-linecap="round" stroke-linejoin="round"/>
<path d="M13.0498 84.855H17.2997" stroke="#07294A" stroke-width="0.610972" stroke-linecap="round" stroke-linejoin="round"/>
<path d="M13.0498 86.4283H17.2997" stroke="#07294A" stroke-width="0.610972" stroke-linecap="round" stroke-linejoin="round"/>
<path d="M13.0498 88.002H17.2997" stroke="#07294A" stroke-width="0.610972" stroke-linecap="round" stroke-linejoin="round"/>
<rect x="18.6279" y="77.5459" width="5.75775" height="39.0694" fill="#D1D1D1"/>
<path d="M24.3857 116.615H18.6279V77.5459" stroke="#07294A" stroke-width="0.610972" stroke-linecap="round" stroke-linejoin="round"/>
<path d="M20.1357 84.855H24.3857" stroke="#07294A" stroke-width="0.610972" stroke-linecap="round" stroke-linejoin="round"/>
<path d="M20.1357 86.4283H24.3857" stroke="#07294A" stroke-width="0.610972" stroke-linecap="round" stroke-linejoin="round"/>
<path d="M20.1357 88.002H24.3857" stroke="#07294A" stroke-width="0.610972" stroke-linecap="round" stroke-linejoin="round"/>
<rect x="25.7139" y="77.5459" width="5.75775" height="39.0694" fill="#F0F8FF"/>
<path d="M31.4717 116.615H25.7139V77.5459" stroke="#07294A" stroke-width="0.610972" stroke-linecap="round" stroke-linejoin="round"/>
<path d="M27.2217 84.855H31.4716" stroke="#07294A" stroke-width="0.610972" stroke-linecap="round" stroke-linejoin="round"/>
<path d="M27.2217 86.4283H31.4716" stroke="#07294A" stroke-width="0.610972" stroke-linecap="round" stroke-linejoin="round"/>
<path d="M27.2217 88.002H31.4716" stroke="#07294A" stroke-width="0.610972" stroke-linecap="round" stroke-linejoin="round"/>
<rect x="32.7998" y="77.5459" width="5.75775" height="39.0694" fill="#D1D1D1"/>
<path d="M38.5581 116.615H32.8003V77.5459" stroke="#07294A" stroke-width="0.610972" stroke-linecap="round" stroke-linejoin="round"/>
<path d="M34.3076 84.855H38.5575" stroke="#07294A" stroke-width="0.610972" stroke-linecap="round" stroke-linejoin="round"/>
<path d="M34.3076 86.4283H38.5575" stroke="#07294A" stroke-width="0.610972" stroke-linecap="round" stroke-linejoin="round"/>
<path d="M34.3076 88.002H38.5575" stroke="#07294A" stroke-width="0.610972" stroke-linecap="round" stroke-linejoin="round"/>
<rect x="39.8857" y="77.5459" width="5.75775" height="39.0694" fill="#F0F8FF"/>
<path d="M45.6436 116.615H39.8862V77.5459" stroke="#07294A" stroke-width="0.610972" stroke-linecap="round" stroke-linejoin="round"/>
<path d="M41.3936 84.855H45.6435" stroke="#07294A" stroke-width="0.610972" stroke-linecap="round" stroke-linejoin="round"/>
<path d="M41.3936 86.4283H45.6435" stroke="#07294A" stroke-width="0.610972" stroke-linecap="round" stroke-linejoin="round"/>
<path d="M41.3936 88.002H45.6435" stroke="#07294A" stroke-width="0.610972" stroke-linecap="round" stroke-linejoin="round"/>
<rect x="46.3882" y="79.1177" width="5.75775" height="39.0694" transform="rotate(-16.1509 46.3882 79.1177)" fill="#D1D1D1"/>
<path d="M62.7867 115.043L57.2561 116.645L46.3882 79.1177" stroke="#07294A" stroke-width="0.610972" stroke-linecap="round" stroke-linejoin="round"/>
<path d="M49.8696 85.7188L53.9518 84.5366" stroke="#07294A" stroke-width="0.610972" stroke-linecap="round" stroke-linejoin="round"/>
<path d="M50.3071 87.23L54.3893 86.0479" stroke="#07294A" stroke-width="0.610972" stroke-linecap="round" stroke-linejoin="round"/>
<path d="M50.7446 88.7418L54.8268 87.5596" stroke="#07294A" stroke-width="0.610972" stroke-linecap="round" stroke-linejoin="round"/>
<g opacity="0.5">
<path fill-rule="evenodd" clip-rule="evenodd" d="M959.164 75.9971C958.803 76.6221 957.901 76.6221 957.54 75.9971L931.2 30.374C924.339 18.4912 907.188 18.4912 900.327 30.3741L891.429 45.7861C888.245 51.3009 882.361 54.6982 875.993 54.6982L763.811 54.6982C752.969 54.6982 746.192 66.4356 751.614 75.8256V75.8256C754.13 80.1835 754.13 85.5526 751.614 89.9105L741.881 106.769C735.766 117.359 720.479 117.359 714.364 106.768L712.025 102.716C706.95 93.9259 694.263 93.9259 689.188 102.716V102.716C684.114 111.505 671.427 111.505 666.352 102.716L654.065 81.4332C647.204 69.5504 630.053 69.5504 623.192 81.4332L611.813 101.142C604.953 113.025 587.801 113.025 580.941 101.142L578.43 96.7942C572.396 86.3429 557.311 86.3429 551.277 96.7942V96.7942C545.243 107.245 530.158 107.245 524.124 96.7941L523.454 95.6332C517.122 84.6659 501.292 84.6659 494.96 95.6332L479.236 122.868C476.052 128.383 470.167 131.78 463.799 131.78L426.948 131.78C420.58 131.78 414.696 128.383 411.512 122.868L379.863 68.051C373.003 56.1682 355.851 56.1682 348.991 68.051L342.983 78.456C336.123 90.3388 318.971 90.3388 312.111 78.456L300.909 59.0535C294.048 47.1707 276.897 47.1707 270.036 59.0535L248.571 96.2329C241.71 108.116 250.286 122.969 264.007 122.969H296.525C305.751 122.969 311.517 132.957 306.904 140.947V140.947C302.291 148.937 308.057 158.925 317.284 158.925H406.268C412.636 158.925 418.52 162.322 421.704 167.837L426.452 176.06C433.312 187.943 450.464 187.943 457.324 176.06L465.354 162.153C465.548 161.816 465.907 161.609 466.296 161.609V161.609C467.133 161.609 467.656 162.515 467.238 163.24L462.524 171.404C460.011 175.758 463.153 181.2 468.18 181.2H550.234C555.261 181.2 558.403 175.758 555.89 171.404L553.062 166.507C551.805 164.33 553.376 161.609 555.89 161.609V161.609C558.403 161.609 559.974 158.888 558.717 156.711L557.138 153.976C555.18 150.584 557.628 146.344 561.545 146.344H606.464C606.719 146.344 606.878 146.067 606.751 145.846V145.846C606.623 145.625 606.783 145.349 607.038 145.349H648.268C655.515 145.349 660.045 153.194 656.421 159.47V159.47C652.798 165.746 657.327 173.591 664.574 173.591H740.533C746.049 173.591 749.497 167.62 746.739 162.842V162.842C743.981 158.065 747.428 152.094 752.944 152.094H785.356C791.724 152.094 797.608 155.491 800.792 161.006L805.908 169.867C812.769 181.75 829.92 181.75 836.781 169.867L875.27 103.202C878.454 97.6871 884.338 94.2898 890.706 94.2898H917.73C931.452 94.2898 940.027 109.143 933.167 121.026L923.074 138.507C916.214 150.389 924.789 165.243 938.511 165.243H981.442C995.163 165.243 1003.74 150.389 996.878 138.507L960.788 75.9971C960.427 75.3721 959.525 75.3721 959.164 75.9971V75.9971ZM1077.61 105.765C1084.47 93.8824 1101.62 93.8825 1108.48 105.765L1119.79 125.357C1126.65 137.24 1118.08 152.094 1104.36 152.094H1081.73C1068.01 152.094 1059.44 137.24 1066.3 125.357L1077.61 105.765ZM1041.03 134.695C1034.17 146.578 1017.02 146.578 1010.16 134.695L988.696 97.5154C981.836 85.6326 990.411 70.7791 1004.13 70.7791L1047.06 70.7791C1060.78 70.7791 1069.36 85.6326 1062.5 97.5154L1041.03 134.695ZM100.993 181.2C114.714 181.2 123.29 166.346 116.43 154.464L94.964 117.284C88.1035 105.401 70.9521 105.401 64.0915 117.284L42.626 154.464C35.7655 166.346 44.3412 181.2 58.0623 181.2H100.993ZM196.795 169.866C189.934 181.749 172.783 181.749 165.923 169.866L121.316 92.6056C114.455 80.7227 123.031 65.8692 136.752 65.8692L225.965 65.8692C239.686 65.8692 248.262 80.7228 241.402 92.6056L196.795 169.866Z" fill="url(#paint0_linear_981_56598)"/>
</g>
<path d="M207.554 106.553H228.311C228.311 106.553 250.621 220.75 243.767 268.729L251.34 273.592L217.193 281.176L196.82 185.571L207.554 106.553Z" fill="#DFEFFF"/>
<path d="M219.499 200.268C219.499 217.505 215.83 233.361 209.682 245.926L196.82 185.571L202.6 143.02C212.912 156.561 219.499 177.175 219.499 200.268Z" fill="#07294A"/>
<path d="M219.499 105.712L172.075 102.963V154.376V281.176H205.911L201.97 274.114L219.499 105.712Z" fill="#F0F8FF"/>
<path d="M201.971 274.114L219.499 105.712" stroke="#07294A" stroke-width="0.432886" stroke-linecap="round" stroke-linejoin="round"/>
<path d="M215.757 21.436V27.7699C215.757 32.6675 212.414 36.9323 207.658 38.1013L197.578 40.5786V15.8144L205.959 13.7546C208.319 13.1745 210.815 13.7115 212.728 15.2109C214.64 16.7104 215.757 19.0057 215.757 21.436V21.436Z" fill="#F0F8FF"/>
<path d="M215.757 27.77C215.757 32.6676 212.414 36.9324 207.658 38.1014L197.578 40.5787" stroke="#07294A" stroke-width="0.432886" stroke-linecap="round" stroke-linejoin="round"/>
<path d="M205.488 26.5131C205.22 26.5131 205.002 26.2955 205.002 26.0271C205.002 25.7586 205.22 25.541 205.488 25.541C205.757 25.541 205.974 25.7586 205.974 26.0271C205.974 26.2955 205.757 26.5131 205.488 26.5131Z" fill="#07294A"/>
<path d="M212.953 26.5131C212.685 26.5131 212.467 26.2955 212.467 26.0271C212.467 25.7586 212.685 25.541 212.953 25.541C213.222 25.541 213.439 25.7586 213.439 26.0271C213.439 26.2955 213.222 26.5131 212.953 26.5131Z" fill="#07294A"/>
<path d="M210.763 28.9265V21.436H214.516" stroke="#07294A" stroke-width="0.432886" stroke-linecap="round" stroke-linejoin="round"/>
<path d="M204.572 21.436H208.325" stroke="#07294A" stroke-width="0.432886" stroke-linecap="round" stroke-linejoin="round"/>
<path d="M198.775 25.2738V27.8751C197.372 27.8751 196.235 26.7376 196.235 25.3344C196.235 25.2565 196.238 25.1794 196.245 25.1032C196.387 23.5255 198.775 23.6897 198.775 25.2738Z" fill="#F0F8FF"/>
<path d="M198.775 27.8751C197.372 27.8751 196.235 26.7376 196.235 25.3345" stroke="#07294A" stroke-width="0.432886" stroke-linecap="round" stroke-linejoin="round"/>
<path d="M208.711 29.8018C208.396 30.1173 207.968 30.2945 207.522 30.2945C207.076 30.2945 206.648 30.1173 206.332 29.8018" stroke="#79C9E7" stroke-width="0.432886" stroke-linecap="round" stroke-linejoin="round"/>
<path d="M210.763 28.9326L209.122 29.336" stroke="#07294A" stroke-width="0.432886" stroke-linecap="round" stroke-linejoin="round"/>
<path d="M215.757 24.7231C215.757 24.7231 209.031 21.8102 207.232 17.9976V20.5678C207.232 20.5678 203.933 19.7968 202.862 18.2546C202.862 18.2546 202.299 23.9521 198.661 24.7231" stroke="#07294A" stroke-width="0.432886" stroke-linecap="round" stroke-linejoin="round"/>
<path d="M197.578 33.0052C197.578 33.0052 189.068 26.6937 193.095 17.1836C197.122 7.67354 207.403 10.4152 216.656 11.2719C221.531 11.7233 227.665 9.96337 232.38 8.19673C236.837 6.51406 241.87 8.01853 244.672 11.8717V11.8717C244.672 11.8717 252.726 8.18759 254.611 17.0979C256.496 26.0083 237.251 42.5869 211.575 36.2253" stroke="#07294A" stroke-width="0.432886" stroke-linecap="round" stroke-linejoin="round"/>
<path d="M228.311 66.8568V106.553L172.076 120.375V76.1639C172.076 60.4874 182.778 46.8363 198.001 43.0946H198.001C205.302 41.3003 213.022 42.9615 218.939 47.5999C224.855 52.2382 228.311 59.3389 228.311 66.8568V66.8568Z" fill="#79C9E7"/>
<path d="M213.196 71.9619L274.872 97.4735C281.361 100.157 287.057 104.453 291.422 109.952L300.521 121.416L282.472 121.407C277.12 121.404 271.819 120.36 266.866 118.333L204.601 92.8559C201.274 91.4948 198.794 88.6317 197.92 85.1451C197.047 81.6584 197.885 77.9643 200.178 75.1959V75.1959C203.338 71.3792 208.617 70.0678 213.196 71.9619Z" fill="#F0F8FF"/>
<path d="M300.521 121.416L282.472 121.407C277.12 121.404 271.819 120.36 266.866 118.333L204.601 92.856" stroke="#07294A" stroke-width="0.432886" stroke-linecap="round" stroke-linejoin="round"/>
<path d="M182.813 51.3452C182.813 51.3452 162.203 66.3615 161.517 98.9185C160.832 131.476 228.311 86.0671 228.311 86.0671C228.311 86.0671 232.8 86.279 234.342 81.3751C234.342 81.3751 237.255 81.2077 236.912 79.9533C236.57 78.6989 228.687 73.901 215.493 74.5865C202.299 75.2719 179.852 83.6681 179.852 83.6681" stroke="#07294A" stroke-width="0.432886" stroke-linecap="round" stroke-linejoin="round"/>
<path d="M300.521 121.416L289.171 121.41C289.759 118.078 291.176 114.948 293.292 112.308L300.521 121.416Z" fill="#07294A"/>
<path d="M222.774 51.3452C222.774 51.3452 234.366 65.4465 242.808 84.2102" stroke="#07294A" stroke-width="0.432886" stroke-linecap="round" stroke-linejoin="round"/>
<path d="M254.738 113.371C254.738 113.371 242.027 121.823 229.316 116.862" stroke="#07294A" stroke-width="0.432886" stroke-linecap="round" stroke-linejoin="round"/>
<path d="M266.671 94.9776C266.671 94.9776 265.599 85.8487 259.474 87.2096C253.349 88.5706 253.887 90.841 254.738 91.0245C255.59 91.2079 259.281 91.0245 259.281 91.0245L261.532 91.9555" stroke="#07294A" stroke-width="0.432886" stroke-linecap="round" stroke-linejoin="round"/>
<path d="M649.339 49.3208C649.339 49.3208 632.787 62.647 629.912 66.7799C629.912 66.7799 619.669 50.7875 614.818 52.9438C609.966 55.1001 604.935 59.772 606.552 60.1314C608.169 60.4908 610.685 59.5923 610.685 59.5923C610.685 59.5923 611.203 65.3424 614.089 64.983" stroke="#07294A" stroke-width="0.450544" stroke-linecap="round" stroke-linejoin="round"/>
<path d="M684.502 112.067C684.502 112.067 691.757 230.477 671.266 286.541L675.546 292.829H639.102C639.102 292.829 635.12 142.217 635.12 109.709L684.502 112.067Z" fill="#79C9E7"/>
<path d="M665.575 188.971L663.854 104.341L694.092 109.71C694.092 109.71 723.514 199.213 697.64 221.314C671.766 243.414 625.947 246.649 625.947 246.649L620.018 255.812L614.088 215.384L665.575 188.971Z" fill="#79C9E7"/>
<path d="M614.088 215.384L665.575 188.971" stroke="#07294A" stroke-width="0.450544" stroke-linecap="round" stroke-linejoin="round"/>
<path d="M694.092 109.709C694.092 109.709 723.514 199.212 697.64 221.313C671.766 243.414 625.947 246.648 625.947 246.648" stroke="#07294A" stroke-width="0.450544" stroke-linecap="round" stroke-linejoin="round"/>
<path d="M658.618 20.4511V35.8394L677.681 40.525V14.5558L658.618 9.87061V20.4511Z" fill="#F0F8FF"/>
<path d="M669.386 25.7753C669.105 25.7753 668.877 25.5471 668.877 25.2656C668.877 24.9841 669.105 24.7559 669.386 24.7559C669.668 24.7559 669.896 24.9841 669.896 25.2656C669.896 25.5471 669.668 25.7753 669.386 25.7753Z" fill="#07294A"/>
<path d="M661.557 25.7753C661.276 25.7753 661.048 25.5471 661.048 25.2656C661.048 24.9841 661.276 24.7559 661.557 24.7559C661.839 24.7559 662.067 24.9841 662.067 25.2656C662.067 25.5471 661.839 25.7753 661.557 25.7753Z" fill="#07294A"/>
<path d="M663.854 28.3061V20.4512H659.919" stroke="#07294A" stroke-width="0.450544" stroke-linecap="round" stroke-linejoin="round"/>
<path d="M670.346 20.4512H666.411" stroke="#07294A" stroke-width="0.450544" stroke-linecap="round" stroke-linejoin="round"/>
<path d="M676.425 24.4755V27.2033C677.897 27.2033 679.09 26.0104 679.09 24.539C679.09 24.4573 679.086 24.3764 679.079 24.2965C678.929 22.6421 676.425 22.8143 676.425 24.4755Z" fill="#F0F8FF"/>
<path d="M676.425 27.2033C677.897 27.2033 679.09 26.0105 679.09 24.5391" stroke="#07294A" stroke-width="0.450544" stroke-linecap="round" stroke-linejoin="round"/>
<path d="M665.575 30.2425C667.065 30.2425 668.272 29.0352 668.272 27.5459" stroke="#79C9E7" stroke-width="0.450544" stroke-linecap="round" stroke-linejoin="round"/>
<path d="M658.618 35.8394L677.681 40.5248" stroke="#07294A" stroke-width="0.450544" stroke-linecap="round" stroke-linejoin="round"/>
<path d="M663.854 28.3125L665.575 28.7355" stroke="#07294A" stroke-width="0.450544" stroke-linecap="round" stroke-linejoin="round"/>
<path d="M676.425 24.4759C676.425 24.4759 673.816 22.0374 673.936 15.8081H658.617" stroke="#07294A" stroke-width="0.450544" stroke-linecap="round" stroke-linejoin="round"/>
<path d="M658.618 18.6232C658.618 18.6232 654.829 16.5269 656.985 8.56061C656.985 8.56061 673.756 4.84702 678.728 13.5919L679.626 10.4174C679.626 10.4174 687.775 24.6129 677.681 31.6208" stroke="#07294A" stroke-width="0.450544" stroke-linecap="round" stroke-linejoin="round"/>
<path d="M694.092 68.0816V109.71L635.12 124.204V77.8416C635.12 61.4023 646.343 47.0869 662.307 43.1632H662.307C669.963 41.2816 678.059 43.0236 684.263 47.8877C690.468 52.7517 694.092 60.1979 694.092 68.0816V68.0816Z" fill="#F0F8FF"/>
<path d="M640.453 88.047L632.068 54.6807C632.068 54.6807 615.537 56.3578 611.943 66.66C611.943 66.66 604.036 61.1495 596.13 63.3058L609.307 99.0042L630.476 103.678" fill="#79C9E7"/>
<path d="M687.431 50.8311C687.431 50.8311 708.017 68.3375 695.319 105.953C682.621 143.568 615.622 99.4543 616.495 87.5044C617.064 79.7179 625.947 85.815 625.947 85.815C625.947 85.815 626.168 81.0907 627.845 83.8507C629.522 86.6108 629.972 87.9811 629.972 87.9811L668.272 88.2232L668.379 70.973" stroke="#07294A" stroke-width="0.450544" stroke-linecap="round" stroke-linejoin="round"/>
<path d="M614.088 88.5225C614.088 88.5225 611.943 117.453 635.662 114.937" stroke="#07294A" stroke-width="0.450544" stroke-linecap="round" stroke-linejoin="round"/>
<path d="M746.685 215.203V283.176L742.199 292.837H772.955L782.914 197.606L746.685 215.203Z" fill="#DFEFFF"/>
<path d="M753.518 116.177L801.264 113.41V165.172V292.837H768.987L772.955 285.727L753.518 116.177Z" fill="#F0F8FF"/>
<path d="M755.858 31.3268V37.7038C755.858 42.6348 759.224 46.9287 764.013 48.1056L774.161 50.5998V25.6669L765.723 23.593C763.347 23.009 760.834 23.5497 758.908 25.0593C756.983 26.569 755.858 28.88 755.858 31.3268V31.3268Z" fill="#F0F8FF"/>
<path d="M755.858 37.7041C755.858 42.6351 759.224 46.9289 764.013 48.1059L774.161 50.6" stroke="#07294A" stroke-width="0.450544" stroke-linecap="round" stroke-linejoin="round"/>
<path d="M766.197 36.4387C766.467 36.4387 766.686 36.2196 766.686 35.9493C766.686 35.6791 766.467 35.46 766.197 35.46C765.927 35.46 765.708 35.6791 765.708 35.9493C765.708 36.2196 765.927 36.4387 766.197 36.4387Z" fill="#07294A"/>
<path d="M758.681 36.4387C758.951 36.4387 759.17 36.2196 759.17 35.9493C759.17 35.6791 758.951 35.46 758.681 35.46C758.41 35.46 758.191 35.6791 758.191 35.9493C758.191 36.2196 758.41 36.4387 758.681 36.4387Z" fill="#07294A"/>
<path d="M760.886 38.8687V31.3271H757.108" stroke="#07294A" stroke-width="0.450544" stroke-linecap="round" stroke-linejoin="round"/>
<path d="M767.119 31.3273H763.341" stroke="#07294A" stroke-width="0.450544" stroke-linecap="round" stroke-linejoin="round"/>
<path d="M772.955 35.1912V37.8102C774.368 37.8102 775.513 36.6649 775.513 35.2522C775.513 35.1737 775.51 35.0961 775.503 35.0194C775.359 33.4309 772.955 33.5963 772.955 35.1912Z" fill="#F0F8FF"/>
<path d="M772.955 37.8099C774.368 37.8099 775.513 36.6647 775.513 35.252" stroke="#07294A" stroke-width="0.450544" stroke-linecap="round" stroke-linejoin="round"/>
<path d="M762.951 39.75C763.269 40.0677 763.7 40.2461 764.149 40.2461C764.598 40.2461 765.029 40.0677 765.347 39.75" stroke="#79C9E7" stroke-width="0.450544" stroke-linecap="round" stroke-linejoin="round"/>
<path d="M760.885 38.8745L762.538 39.2807" stroke="#07294A" stroke-width="0.450544" stroke-linecap="round" stroke-linejoin="round"/>
<path d="M756.224 28.9318C756.224 28.9318 756.505 24.7415 760.301 25.0003C764.096 25.2591 769.531 24.914 769.962 28.3644C770.393 31.8148 771.721 34.5751 772.955 34.5751" stroke="#07294A" stroke-width="0.450544" stroke-linecap="round" stroke-linejoin="round"/>
<path d="M755.858 33.908C755.858 33.908 742.42 9.55955 766.197 7.83436C789.974 6.10916 801.164 37.6228 774.234 42.4533" stroke="#07294A" stroke-width="0.450544" stroke-linecap="round" stroke-linejoin="round"/>
<path d="M774.801 39.6557C774.801 40.675 773.974 41.5013 772.955 41.5013C771.936 41.5013 771.109 40.675 771.109 39.6557C771.109 38.6364 771.936 37.8101 772.955 37.8101" stroke="#79C9E7" stroke-width="0.450544" stroke-linecap="round" stroke-linejoin="round"/>
<path d="M755.858 41.0712C755.233 41.5942 754.339 41.6453 753.658 41.1967C752.978 40.7482 752.672 39.9063 752.906 39.1255C753.14 38.3448 753.859 37.8101 754.674 37.8101" stroke="#79C9E7" stroke-width="0.450544" stroke-linecap="round" stroke-linejoin="round"/>
<path d="M801.264 77.0572V117.024L744.646 130.94V86.4277C744.646 70.6444 755.421 56.9003 770.748 53.1331H770.748C778.099 51.3265 785.871 52.9991 791.828 57.6691C797.785 62.339 801.264 69.488 801.264 77.0571V77.0572Z" fill="#F0F8FF"/>
<path d="M801.264 117.024L744.646 130.94V218.481L830.694 204.93L801.264 117.024Z" fill="#79C9E7"/>
<path d="M768.987 292.837L772.955 285.726L762.02 190.343" stroke="#07294A" stroke-width="0.450544" stroke-linecap="round" stroke-linejoin="round"/>
<path d="M793.144 58.7793C793.144 58.7793 820.178 82.1331 802.466 114.797C784.754 147.461 727.708 100.765 727.018 97.0848C726.327 93.4044 732.308 92.4843 737.369 95.2446C737.369 95.2446 736.679 91.478 739.439 92.5562C742.199 93.6345 743.579 96.8548 743.579 96.8548L782.454 98.465L777.391 77.0726" stroke="#07294A" stroke-width="0.450544" stroke-linecap="round" stroke-linejoin="round"/>
<path d="M756.519 97.3906L739.439 52.4092L700.334 63.0409L724.487 117.024L746.097 112.645" stroke="#07294A" stroke-width="0.450544" stroke-linecap="round" stroke-linejoin="round"/>
<path d="M752.329 116.4V116.4C752.329 116.4 774.141 144.691 806.389 132.332L801.159 116.962C790.658 132.586 769.401 126.03 752.329 116.4Z" fill="#07294A"/>
<path d="M756.224 60.7388L746.07 69.8718" stroke="#07294A" stroke-width="0.450544" stroke-linecap="round" stroke-linejoin="round"/>
<path d="M709.596 83.7417C709.596 83.7417 703.21 107.723 718.391 117.902C733.573 128.081 744.646 120.49 744.646 120.49" stroke="#07294A" stroke-width="0.450544" stroke-linecap="round" stroke-linejoin="round"/>
<path d="M838.981 77.2158C839.011 79.8506 839.199 82.4811 839.544 85.0934C843.46 89.6704 853.311 99.852 866.472 104.687C867.714 103.541 868.838 102.273 869.827 100.904L869.825 100.902C857.399 93.7503 845.041 83.0993 838.99 77.2227L838.981 77.2158Z" fill="#F0F8FF"/>
<path d="M833.978 66.4046L829.451 45.563H843.574L847.014 64.413" fill="#79C9E7"/>
<path d="M829.451 45.563H843.574L845.844 58.0017" stroke="#07294A" stroke-width="0.450544" stroke-linecap="round" stroke-linejoin="round"/>
<path d="M899.833 104.419L868.362 108.213C868.362 108.213 820.291 140.823 839.302 183.732C858.312 226.641 872.434 241.306 872.434 241.306V252.169L893.874 241.849L881.594 173.955L893.874 158.747L899.833 104.419Z" fill="#79C9E7"/>
<path d="M877.673 107.323L927.782 104.419V158.743V292.726H888.401L892.565 285.265L877.673 107.323Z" fill="#79C9E7"/>
<path d="M892.565 285.265L877.673 107.324" stroke="#07294A" stroke-width="0.450544" stroke-linecap="round" stroke-linejoin="round"/>
<path d="M868.362 66.2677V108.213L927.782 122.817V76.102C927.782 59.5376 916.474 45.1132 900.388 41.1596H900.388C892.674 39.2636 884.517 41.0189 878.265 45.92C872.013 50.8211 868.362 58.3239 868.362 66.2677V66.2677Z" fill="#F0F8FF"/>
<path d="M881.596 18.2742V24.9668C881.596 30.1418 885.129 34.6482 890.154 35.8834L900.804 38.501V12.3342L891.949 10.1577C889.455 9.54474 886.818 10.1122 884.797 11.6965C882.776 13.2809 881.596 15.7063 881.596 18.2742V18.2742Z" fill="#F0F8FF"/>
<path d="M881.596 24.9668C881.594 30.1422 885.128 34.6493 890.154 35.8833L891.2 36.1404" stroke="#07294A" stroke-width="0.450544" stroke-linecap="round" stroke-linejoin="round"/>
<path d="M892.446 23.639C892.73 23.639 892.96 23.4091 892.96 23.1254C892.96 22.8418 892.73 22.6118 892.446 22.6118C892.163 22.6118 891.933 22.8418 891.933 23.1254C891.933 23.4091 892.163 23.639 892.446 23.639Z" fill="#07294A"/>
<path d="M884.558 23.639C884.841 23.639 885.071 23.4091 885.071 23.1254C885.071 22.8418 884.841 22.6118 884.558 22.6118C884.274 22.6118 884.044 22.8418 884.044 23.1254C884.044 23.4091 884.274 23.639 884.558 23.639Z" fill="#07294A"/>
<path d="M886.872 26.1891V18.2739H882.907" stroke="#07294A" stroke-width="0.450544" stroke-linecap="round" stroke-linejoin="round"/>
<path d="M893.414 18.2743H889.449" stroke="#07294A" stroke-width="0.450544" stroke-linecap="round" stroke-linejoin="round"/>
<path d="M899.539 22.3299V25.0785C901.022 25.0785 902.224 23.8766 902.224 22.3939C902.224 22.3115 902.22 22.2301 902.213 22.1496C902.062 20.4825 899.539 20.6561 899.539 22.3299Z" fill="#F0F8FF"/>
<path d="M899.539 25.0781C901.022 25.0781 902.224 23.8762 902.224 22.3936" stroke="#07294A" stroke-width="0.450544" stroke-linecap="round" stroke-linejoin="round"/>
<path d="M889.04 27.1138C889.373 27.4471 889.826 27.6344 890.297 27.6344C890.768 27.6344 891.221 27.4471 891.554 27.1138" stroke="#79C9E7" stroke-width="0.450544" stroke-linecap="round" stroke-linejoin="round"/>
<path d="M886.872 26.1953L888.606 26.6216" stroke="#07294A" stroke-width="0.450544" stroke-linecap="round" stroke-linejoin="round"/>
<path d="M881.596 20.9831C881.596 20.9831 890.205 20.5375 892.573 14.0189C892.626 13.8815 892.763 13.7949 892.909 13.8056C893.056 13.8163 893.179 13.9218 893.211 14.0655C893.746 16.3785 895.341 20.746 899.833 21.4719" stroke="#07294A" stroke-width="0.450544" stroke-linecap="round" stroke-linejoin="round"/>
<path d="M881.596 23.1254C881.596 23.1254 876.904 19.9933 879.62 14.2598C882.336 8.52629 892.716 5.44394 898.45 9.91222C898.45 9.91222 910.068 8.5154 908.891 24.967C907.714 41.4185 909.343 44.7681 904.907 45.4923C900.472 46.2166 889.007 41.2375 891.933 36.9826C894.859 32.7277 900.804 24.7619 900.804 24.7619" stroke="#07294A" stroke-width="0.450544" stroke-linecap="round" stroke-linejoin="round"/>
<path d="M880.751 22.3936C880.751 22.3936 875.516 35.0813 877.085 37.8575C878.654 40.6337 886.398 39.2456 886.398 39.2456" stroke="#07294A" stroke-width="0.450544" stroke-linecap="round" stroke-linejoin="round"/>
<path d="M923.782 73.7675C923.782 73.7675 913.799 100.531 896.02 107.324C878.241 114.116 840.522 79.5992 835.667 73.7675C831.709 69.0117 830.356 59.5243 835.667 59.7657C840.978 60.0071 845.807 63.6282 845.807 63.6282C845.807 63.6282 845.807 58.7899 847.738 59.7606C848.51 60.1489 849.283 61.0771 849.932 62.0512C851.41 64.2351 853.453 65.9773 855.843 67.0925L886.398 81.6085L898.072 57.3516" stroke="#07294A" stroke-width="0.450544" stroke-linecap="round" stroke-linejoin="round"/>
<path d="M896.02 107.323C889.221 109.921 879.505 106.474 869.827 100.904C873.645 107.707 882.246 112.453 892.252 112.453C905.803 112.453 916.788 103.753 916.788 93.0197C916.822 91.5676 916.584 90.1218 916.087 88.7568C911.384 96.0933 904.612 104.041 896.02 107.323Z" fill="#07294A"/>
<path d="M876.791 47.1675C876.791 47.1675 864.275 59.0412 861.619 70.629" stroke="#07294A" stroke-width="0.450544" stroke-linecap="round" stroke-linejoin="round"/>
<path d="M838.981 77.2158C838.981 77.2158 838.851 100.078 849.669 107.323C860.487 114.569 869.827 100.904 869.827 100.904" stroke="#07294A" stroke-width="0.450544" stroke-linecap="round" stroke-linejoin="round"/>
<path d="M855.101 66.4046C855.101 66.4046 854.739 52.8855 850.876 50.23C847.014 47.5745 843.997 47.8819 844.121 48.5614C844.245 49.241 846.772 51.6785 848.583 52.7648" stroke="#07294A" stroke-width="0.450544" stroke-linecap="round" stroke-linejoin="round"/>
</g>
<defs>
<linearGradient id="paint0_linear_981_56598" x1="40.2114" y1="103.217" x2="1122.21" y2="103.217" gradientUnits="userSpaceOnUse">
<stop stop-color="#79C9E7"/>
<stop offset="0.2" stop-color="#74DAE1"/>
<stop offset="0.4" stop-color="#82E8D3"/>
<stop offset="0.6" stop-color="#A3F3C1"/>
<stop offset="0.8" stop-color="#CDFBB1"/>
<stop offset="1" stop-color="#FDFFAA"/>
</linearGradient>
<clipPath id="clip0_981_56598">
<rect width="1200" height="200" fill="white"/>
</clipPath>
</defs>
</svg>
