<svg width="1200" height="200" viewBox="0 0 1200 200" fill="none" xmlns="http://www.w3.org/2000/svg">
<g clip-path="url(#clip0_981_56260)">
<path d="M153.55 53.9014V116.645H2.84351" stroke="#07294A" stroke-width="0.610972" stroke-linecap="round" stroke-linejoin="round"/>
<path d="M184.516 174.907V61.2324" stroke="#07294A" stroke-width="0.610972" stroke-linecap="round" stroke-linejoin="round"/>
<path d="M-75.4551 174.907H231.848" stroke="#07294A" stroke-width="0.610972" stroke-linecap="round" stroke-linejoin="round"/>
<path d="M78.1968 -20.6333V116.645" stroke="#07294A" stroke-width="0.610972" stroke-linecap="round" stroke-linejoin="round"/>
<path d="M78.1968 48.0059H155.261" stroke="#07294A" stroke-width="0.610972" stroke-linecap="round" stroke-linejoin="round"/>
<rect x="11.5422" y="77.5459" width="5.75775" height="39.0694" fill="#F0F8FF"/>
<path d="M17.3003 116.615H11.5425V77.5459" stroke="#07294A" stroke-width="0.610972" stroke-linecap="round" stroke-linejoin="round"/>
<path d="M13.05 84.855H17.3" stroke="#07294A" stroke-width="0.610972" stroke-linecap="round" stroke-linejoin="round"/>
<path d="M13.05 86.4283H17.3" stroke="#07294A" stroke-width="0.610972" stroke-linecap="round" stroke-linejoin="round"/>
<path d="M13.05 88.002H17.3" stroke="#07294A" stroke-width="0.610972" stroke-linecap="round" stroke-linejoin="round"/>
<rect x="18.6282" y="77.5459" width="5.75775" height="39.0694" fill="#D1D1D1"/>
<path d="M24.3857 116.615H18.6279V77.5459" stroke="#07294A" stroke-width="0.610972" stroke-linecap="round" stroke-linejoin="round"/>
<path d="M20.136 84.855H24.3859" stroke="#07294A" stroke-width="0.610972" stroke-linecap="round" stroke-linejoin="round"/>
<path d="M20.136 86.4283H24.3859" stroke="#07294A" stroke-width="0.610972" stroke-linecap="round" stroke-linejoin="round"/>
<path d="M20.136 88.002H24.3859" stroke="#07294A" stroke-width="0.610972" stroke-linecap="round" stroke-linejoin="round"/>
<rect x="25.7141" y="77.5459" width="5.75775" height="39.0694" fill="#F0F8FF"/>
<path d="M31.4719 116.615H25.7141V77.5459" stroke="#07294A" stroke-width="0.610972" stroke-linecap="round" stroke-linejoin="round"/>
<path d="M27.2219 84.855H31.4718" stroke="#07294A" stroke-width="0.610972" stroke-linecap="round" stroke-linejoin="round"/>
<path d="M27.2219 86.4283H31.4718" stroke="#07294A" stroke-width="0.610972" stroke-linecap="round" stroke-linejoin="round"/>
<path d="M27.2219 88.002H31.4718" stroke="#07294A" stroke-width="0.610972" stroke-linecap="round" stroke-linejoin="round"/>
<rect x="32.8" y="77.5459" width="5.75775" height="39.0694" fill="#D1D1D1"/>
<path d="M38.5581 116.615H32.8003V77.5459" stroke="#07294A" stroke-width="0.610972" stroke-linecap="round" stroke-linejoin="round"/>
<path d="M34.3079 84.855H38.5578" stroke="#07294A" stroke-width="0.610972" stroke-linecap="round" stroke-linejoin="round"/>
<path d="M34.3079 86.4283H38.5578" stroke="#07294A" stroke-width="0.610972" stroke-linecap="round" stroke-linejoin="round"/>
<path d="M34.3079 88.002H38.5578" stroke="#07294A" stroke-width="0.610972" stroke-linecap="round" stroke-linejoin="round"/>
<rect x="39.886" y="77.5459" width="5.75775" height="39.0694" fill="#F0F8FF"/>
<path d="M45.6436 116.615H39.8862V77.5459" stroke="#07294A" stroke-width="0.610972" stroke-linecap="round" stroke-linejoin="round"/>
<path d="M41.3938 84.855H45.6437" stroke="#07294A" stroke-width="0.610972" stroke-linecap="round" stroke-linejoin="round"/>
<path d="M41.3938 86.4283H45.6437" stroke="#07294A" stroke-width="0.610972" stroke-linecap="round" stroke-linejoin="round"/>
<path d="M41.3938 88.002H45.6437" stroke="#07294A" stroke-width="0.610972" stroke-linecap="round" stroke-linejoin="round"/>
<rect x="46.3882" y="79.1177" width="5.75775" height="39.0694" transform="rotate(-16.1509 46.3882 79.1177)" fill="#D1D1D1"/>
<path d="M62.7867 115.043L57.2561 116.645L46.3882 79.1177" stroke="#07294A" stroke-width="0.610972" stroke-linecap="round" stroke-linejoin="round"/>
<path d="M49.8696 85.7188L53.9518 84.5366" stroke="#07294A" stroke-width="0.610972" stroke-linecap="round" stroke-linejoin="round"/>
<path d="M50.3071 87.23L54.3893 86.0479" stroke="#07294A" stroke-width="0.610972" stroke-linecap="round" stroke-linejoin="round"/>
<path d="M50.7449 88.7418L54.8271 87.5596" stroke="#07294A" stroke-width="0.610972" stroke-linecap="round" stroke-linejoin="round"/>
<g opacity="0.5">
<path fill-rule="evenodd" clip-rule="evenodd" d="M930.926 30.3741C930.926 15.608 942.897 3.6377 957.663 3.6377H1015.59C1030.36 3.6377 1042.33 15.608 1042.33 30.3741V56.0696C1042.33 57.8653 1043.91 59.2416 1045.7 59.2416V59.2416H1103.63C1118.4 59.2416 1130.37 71.2119 1130.37 85.978V143.907V143.907C1130.37 145.244 1131.62 146.304 1132.94 146.109C1134.02 145.95 1135.13 145.867 1136.25 145.867C1148.66 145.867 1158.72 155.928 1158.72 168.338C1158.72 180.748 1148.66 190.808 1136.25 190.808C1127.56 190.808 1120.02 185.876 1116.29 178.659C1113.99 174.222 1108.63 170.643 1103.63 170.643V170.643H1045.7C1030.94 170.643 1018.97 158.673 1018.97 143.907V118.211C1018.97 116.415 1017.39 115.039 1015.59 115.039V115.039H957.663V115.039C950.496 115.039 933.365 122.785 933.365 129.952V146.283C933.365 161.049 921.395 173.02 906.629 173.02H848.7C833.934 173.02 821.964 161.049 821.964 146.283V116.599C821.964 110.646 815.275 106.604 809.322 106.604V106.604H769.757C768.96 106.604 768.172 106.569 767.392 106.5C767.265 106.489 767.155 106.59 767.155 106.718V106.718V164.072C767.155 178.838 755.184 190.808 740.418 190.808H683.065C674.869 190.808 667.535 187.121 662.631 181.314C656.686 174.276 649.391 166.545 640.177 166.545H421.268C417.906 166.545 414.666 167.639 411.53 168.852C408.54 170.009 405.289 170.643 401.89 170.643H343.961C329.195 170.643 317.225 158.673 317.225 143.907V118.212C317.225 116.416 315.646 115.039 313.85 115.039V115.039H255.921V115.039C248.754 115.039 231.624 122.785 231.624 129.952V146.283C231.624 161.049 219.654 173.02 204.888 173.02H146.959C132.193 173.02 120.223 161.049 120.223 146.283V116.599C120.223 110.646 113.534 106.604 107.581 106.604V106.604H68.0162C53.2501 106.604 41.2798 94.6333 41.2798 79.8672V40.3023C41.2798 25.5362 53.2501 13.5659 68.0161 13.5659H107.581C122.347 13.5659 134.317 25.5362 134.317 40.3023V51.6228C134.317 57.5759 141.006 61.6181 146.959 61.6181V61.6181H204.888V61.6181C212.055 61.6181 229.185 53.8725 229.185 46.7056V30.3741C229.185 15.608 241.155 3.6377 255.921 3.6377H313.85C328.616 3.6377 340.586 15.608 340.586 30.3741V56.0691C340.586 57.8651 342.165 59.2416 343.961 59.2416V59.2416H368.388C377.119 59.2416 384.163 52.2747 389.987 45.7691C394.883 40.3011 401.996 36.8601 409.913 36.8601H663.84C678.606 36.8601 690.576 48.8304 690.576 63.5965V63.5965C690.576 72.646 697.912 79.982 706.962 79.982H740.418C741.262 79.982 742.096 80.021 742.919 80.0974C742.974 80.1025 743.021 80.0593 743.021 80.0043V80.0043C743.021 79.9586 743.021 79.9129 743.021 79.8672V40.3023C743.021 25.5362 754.991 13.5659 769.757 13.5659H809.322C824.088 13.5659 836.058 25.5362 836.058 40.3023V51.6229C836.058 57.5759 842.747 61.6181 848.7 61.6181V61.6181H906.629V61.6181C913.795 61.6181 930.926 53.872 930.926 46.7055V30.3741Z" fill="url(#paint0_linear_981_56260)"/>
</g>
<path d="M308.092 235.465C295.739 155.69 223.415 121.083 223.415 121.083L193.288 136.647C192.227 136.647 198.935 165.225 198.935 165.225L243.562 184.993L284.888 248.903L316.326 238.038L308.092 235.465Z" fill="#DFEFFF"/>
<path d="M246.074 135.57C228.975 127.269 208.628 129.534 193.773 141.392C195.248 149.516 198.935 165.225 198.935 165.225L243.562 184.994L261.402 212.583C276.131 195.967 277.928 171.553 265.791 152.959C259.651 146.691 253.061 140.879 246.074 135.57Z" fill="#07294A"/>
<path d="M269.192 167.58C267.742 126.783 219.089 120.252 219.089 120.252L162.783 106.413C162.783 106.413 153.497 167.924 224.524 168.953L190.936 235.465L221.807 248.903L219.089 239.582C219.089 239.582 270.058 191.943 269.192 167.58Z" fill="#F0F8FF"/>
<path d="M162.783 106.413C162.783 106.413 153.497 167.924 224.524 168.953L190.936 235.465" stroke="#07294A" stroke-width="0.432886" stroke-linecap="round" stroke-linejoin="round"/>
<path d="M162.783 66.6662V106.412L219.088 120.252V75.985C219.088 60.2889 208.373 46.6207 193.13 42.8743H193.13C185.821 41.0777 178.091 42.741 172.167 47.3852C166.243 52.0294 162.783 59.1389 162.783 66.6662V66.6662Z" fill="#79C9E7"/>
<path d="M179.388 21.1886V27.5304C179.388 32.4341 182.736 36.7043 187.498 37.8747L197.59 40.3551V15.56L189.198 13.4975C186.835 12.9167 184.336 13.4544 182.421 14.9557C180.506 16.457 179.388 18.7553 179.388 21.1886V21.1886Z" fill="#F0F8FF"/>
<path d="M179.388 27.5308C179.388 32.4345 182.736 36.7047 187.498 37.8751L197.59 40.3555" stroke="#07294A" stroke-width="0.432886" stroke-linecap="round" stroke-linejoin="round"/>
<path d="M189.67 26.2722C189.939 26.2722 190.157 26.0543 190.157 25.7855C190.157 25.5167 189.939 25.2988 189.67 25.2988C189.401 25.2988 189.183 25.5167 189.183 25.7855C189.183 26.0543 189.401 26.2722 189.67 26.2722Z" fill="#07294A"/>
<path d="M182.195 26.2722C182.464 26.2722 182.682 26.0543 182.682 25.7855C182.682 25.5167 182.464 25.2988 182.195 25.2988C181.926 25.2988 181.708 25.5167 181.708 25.7855C181.708 26.0543 181.926 26.2722 182.195 26.2722Z" fill="#07294A"/>
<path d="M184.388 28.6888V21.189H180.631" stroke="#07294A" stroke-width="0.432886" stroke-linecap="round" stroke-linejoin="round"/>
<path d="M190.587 21.1887H186.829" stroke="#07294A" stroke-width="0.432886" stroke-linecap="round" stroke-linejoin="round"/>
<path d="M196.391 25.0318V27.6363C197.796 27.6363 198.935 26.4974 198.935 25.0924C198.935 25.0144 198.931 24.9372 198.924 24.8609C198.782 23.2812 196.391 23.4457 196.391 25.0318Z" fill="#F0F8FF"/>
<path d="M196.391 27.6361C197.796 27.6361 198.935 26.4972 198.935 25.0923" stroke="#07294A" stroke-width="0.432886" stroke-linecap="round" stroke-linejoin="round"/>
<path d="M186.442 29.5649C186.758 29.8808 187.187 30.0583 187.633 30.0583C188.08 30.0583 188.509 29.8808 188.824 29.5649" stroke="#79C9E7" stroke-width="0.432886" stroke-linecap="round" stroke-linejoin="round"/>
<path d="M184.388 28.6948L186.031 29.0987" stroke="#07294A" stroke-width="0.432886" stroke-linecap="round" stroke-linejoin="round"/>
<path d="M179.003 24.036C179.003 24.036 183.529 21.6789 184.296 17.6923C184.305 17.6311 184.356 17.5847 184.417 17.58C184.479 17.5753 184.536 17.6136 184.555 17.6725C185.11 19.4005 187.412 23.945 196.391 25.0315" stroke="#07294A" stroke-width="0.432886" stroke-linecap="round" stroke-linejoin="round"/>
<path d="M179.388 26.3641C179.388 26.3641 174.885 24.3791 175.686 19.1177C176.486 13.8563 191.927 -0.479881 202.336 13.265C212.744 27.0098 229.958 52.9736 229.958 52.9736L218.599 54.7196C213.34 55.528 207.99 53.9994 203.952 50.5344C199.913 47.0695 197.59 42.0138 197.59 36.6928V29.565" stroke="#07294A" stroke-width="0.432886" stroke-linecap="round" stroke-linejoin="round"/>
<path d="M326.611 96.8567H237.019L243.164 43.1099H332.756L326.611 96.8567Z" fill="#F0F8FF"/>
<path fill-rule="evenodd" clip-rule="evenodd" d="M323.053 92.2717H233.461L239.607 38.5249H329.199L323.053 92.2717Z" stroke="#07294A" stroke-width="0.432886" stroke-linecap="round" stroke-linejoin="round"/>
<path d="M284.387 112.649L286.717 92.272H272.388L270.058 112.649H284.387Z" fill="#07294A"/>
<path d="M207.892 112.649H330.492" stroke="#07294A" stroke-width="0.432886" stroke-linecap="round" stroke-linejoin="round"/>
<path d="M170.384 48.8203C170.384 48.8203 147.175 67.8804 141.342 98.6865C135.508 129.493 181.761 122.09 203.792 113.022" stroke="#07294A" stroke-width="0.432886" stroke-linecap="round" stroke-linejoin="round"/>
<path d="M165.876 96.8563C165.876 96.8563 218.204 87.6066 221.807 110.523" stroke="#07294A" stroke-width="0.432886" stroke-linecap="round" stroke-linejoin="round"/>
<path d="M205.486 48.8203C205.486 48.8203 221.908 65.7661 226.239 96.8564C226.239 96.8564 242.896 97.4294 243.562 110.523" stroke="#07294A" stroke-width="0.432886" stroke-linecap="round" stroke-linejoin="round"/>
<path d="M160.696 58.8627C160.696 58.8627 153.232 43.3659 147.056 56.7481C140.879 70.1304 113.891 158.316 142.371 173.071C170.851 187.825 212.498 179.722 212.498 179.722" stroke="#07294A" stroke-width="0.432886" stroke-linecap="round" stroke-linejoin="round"/>
<path d="M181.024 181.942V281.254H147.056" stroke="#07294A" stroke-width="0.432886" stroke-linecap="round" stroke-linejoin="round"/>
<path d="M633.537 215.203V283.176L629.052 292.837H659.808L669.766 197.606L633.537 215.203Z" fill="#DFEFFF"/>
<path d="M640.37 116.177L688.117 113.41V165.172V292.837H655.84L659.807 285.727L640.37 116.177Z" fill="#F0F8FF"/>
<path d="M642.71 31.3268V37.7038C642.71 42.6348 646.077 46.9287 650.865 48.1056L661.013 50.5998V25.6669L652.575 23.593C650.199 23.009 647.686 23.5497 645.761 25.0593C643.835 26.569 642.71 28.88 642.71 31.3268V31.3268Z" fill="#F0F8FF"/>
<path d="M642.71 37.7041C642.71 42.6351 646.077 46.9289 650.865 48.1059L661.013 50.6" stroke="#07294A" stroke-width="0.450544" stroke-linecap="round" stroke-linejoin="round"/>
<path d="M653.049 36.4387C653.32 36.4387 653.539 36.2196 653.539 35.9493C653.539 35.6791 653.32 35.46 653.049 35.46C652.779 35.46 652.56 35.6791 652.56 35.9493C652.56 36.2196 652.779 36.4387 653.049 36.4387Z" fill="#07294A"/>
<path d="M645.533 36.4387C645.803 36.4387 646.022 36.2196 646.022 35.9493C646.022 35.6791 645.803 35.46 645.533 35.46C645.263 35.46 645.044 35.6791 645.044 35.9493C645.044 36.2196 645.263 36.4387 645.533 36.4387Z" fill="#07294A"/>
<path d="M647.738 38.8687V31.3271H643.96" stroke="#07294A" stroke-width="0.450544" stroke-linecap="round" stroke-linejoin="round"/>
<path d="M653.971 31.3273H650.193" stroke="#07294A" stroke-width="0.450544" stroke-linecap="round" stroke-linejoin="round"/>
<path d="M659.808 35.1912V37.8102C661.22 37.8102 662.366 36.6649 662.366 35.2522C662.366 35.1737 662.362 35.0961 662.355 35.0194C662.212 33.4309 659.808 33.5963 659.808 35.1912Z" fill="#F0F8FF"/>
<path d="M659.808 37.8099C661.22 37.8099 662.366 36.6647 662.366 35.252" stroke="#07294A" stroke-width="0.450544" stroke-linecap="round" stroke-linejoin="round"/>
<path d="M649.804 39.75C650.121 40.0677 650.552 40.2461 651.002 40.2461C651.451 40.2461 651.882 40.0677 652.199 39.75" stroke="#79C9E7" stroke-width="0.450544" stroke-linecap="round" stroke-linejoin="round"/>
<path d="M647.738 38.8745L649.391 39.2807" stroke="#07294A" stroke-width="0.450544" stroke-linecap="round" stroke-linejoin="round"/>
<path d="M643.076 28.9318C643.076 28.9318 643.358 24.7415 647.153 25.0003C650.949 25.2591 656.383 24.914 656.814 28.3644C657.246 31.8148 658.574 34.5751 659.808 34.5751" stroke="#07294A" stroke-width="0.450544" stroke-linecap="round" stroke-linejoin="round"/>
<path d="M642.71 33.908C642.71 33.908 629.272 9.55955 653.049 7.83436C676.827 6.10916 688.016 37.6228 661.087 42.4533" stroke="#07294A" stroke-width="0.450544" stroke-linecap="round" stroke-linejoin="round"/>
<path d="M661.653 39.6557C661.653 40.675 660.827 41.5013 659.808 41.5013C658.788 41.5013 657.962 40.675 657.962 39.6557C657.962 38.6364 658.788 37.8101 659.808 37.8101" stroke="#79C9E7" stroke-width="0.450544" stroke-linecap="round" stroke-linejoin="round"/>
<path d="M642.711 41.0712C642.086 41.5942 641.191 41.6453 640.511 41.1967C639.83 40.7482 639.524 39.9063 639.759 39.1255C639.993 38.3448 640.711 37.8101 641.526 37.8101" stroke="#79C9E7" stroke-width="0.450544" stroke-linecap="round" stroke-linejoin="round"/>
<path d="M688.117 77.0572V117.024L631.498 130.94V86.4277C631.498 70.6444 642.274 56.9003 657.601 53.1331H657.601C664.951 51.3265 672.724 52.9991 678.681 57.6691C684.637 62.339 688.117 69.488 688.117 77.0571V77.0572Z" fill="#F0F8FF"/>
<path d="M688.117 117.024L631.498 130.94V218.481L717.546 204.93L688.117 117.024Z" fill="#79C9E7"/>
<path d="M655.84 292.837L659.807 285.726L648.873 190.343" stroke="#07294A" stroke-width="0.450544" stroke-linecap="round" stroke-linejoin="round"/>
<path d="M679.997 58.7793C679.997 58.7793 707.031 82.1331 689.319 114.797C671.607 147.461 614.56 100.765 613.87 97.0848C613.18 93.4044 619.161 92.4843 624.221 95.2446C624.221 95.2446 623.531 91.478 626.291 92.5562C629.052 93.6345 630.432 96.8548 630.432 96.8548L669.306 98.465L664.244 77.0726" stroke="#07294A" stroke-width="0.450544" stroke-linecap="round" stroke-linejoin="round"/>
<path d="M643.372 97.3906L626.291 52.4092L587.187 63.0409L611.34 117.024L632.949 112.645" stroke="#07294A" stroke-width="0.450544" stroke-linecap="round" stroke-linejoin="round"/>
<path d="M639.181 116.4V116.4C639.181 116.4 660.993 144.691 693.242 132.332L688.011 116.962C677.51 132.586 656.253 126.03 639.181 116.4Z" fill="#07294A"/>
<path d="M643.076 60.7388L632.922 69.8718" stroke="#07294A" stroke-width="0.450544" stroke-linecap="round" stroke-linejoin="round"/>
<path d="M596.449 83.7417C596.449 83.7417 590.062 107.723 605.244 117.902C620.426 128.081 631.498 120.49 631.498 120.49" stroke="#07294A" stroke-width="0.450544" stroke-linecap="round" stroke-linejoin="round"/>
<path d="M746.685 215.203V283.176L742.199 292.837H772.955L782.914 197.606L746.685 215.203Z" fill="#DFEFFF"/>
<path d="M753.518 116.177L801.265 113.41V165.172V292.837H768.987L772.955 285.727L753.518 116.177Z" fill="#F0F8FF"/>
<path d="M755.858 31.3268V37.7038C755.858 42.6348 759.224 46.9287 764.013 48.1056L774.161 50.5998V25.6669L765.723 23.593C763.347 23.009 760.834 23.5497 758.908 25.0593C756.983 26.569 755.858 28.88 755.858 31.3268V31.3268Z" fill="#F0F8FF"/>
<path d="M755.858 37.7041C755.858 42.6351 759.224 46.9289 764.013 48.1059L774.161 50.6" stroke="#07294A" stroke-width="0.450544" stroke-linecap="round" stroke-linejoin="round"/>
<path d="M766.197 36.4387C766.467 36.4387 766.686 36.2196 766.686 35.9493C766.686 35.6791 766.467 35.46 766.197 35.46C765.927 35.46 765.708 35.6791 765.708 35.9493C765.708 36.2196 765.927 36.4387 766.197 36.4387Z" fill="#07294A"/>
<path d="M758.681 36.4387C758.951 36.4387 759.17 36.2196 759.17 35.9493C759.17 35.6791 758.951 35.46 758.681 35.46C758.41 35.46 758.191 35.6791 758.191 35.9493C758.191 36.2196 758.41 36.4387 758.681 36.4387Z" fill="#07294A"/>
<path d="M760.886 38.8687V31.3271H757.108" stroke="#07294A" stroke-width="0.450544" stroke-linecap="round" stroke-linejoin="round"/>
<path d="M767.119 31.3273H763.341" stroke="#07294A" stroke-width="0.450544" stroke-linecap="round" stroke-linejoin="round"/>
<path d="M772.955 35.1912V37.8102C774.368 37.8102 775.513 36.6649 775.513 35.2522C775.513 35.1737 775.51 35.0961 775.503 35.0194C775.359 33.4309 772.955 33.5963 772.955 35.1912Z" fill="#F0F8FF"/>
<path d="M772.955 37.8099C774.368 37.8099 775.513 36.6647 775.513 35.252" stroke="#07294A" stroke-width="0.450544" stroke-linecap="round" stroke-linejoin="round"/>
<path d="M762.951 39.75C763.269 40.0677 763.7 40.2461 764.149 40.2461C764.598 40.2461 765.029 40.0677 765.347 39.75" stroke="#79C9E7" stroke-width="0.450544" stroke-linecap="round" stroke-linejoin="round"/>
<path d="M760.886 38.8745L762.538 39.2807" stroke="#07294A" stroke-width="0.450544" stroke-linecap="round" stroke-linejoin="round"/>
<path d="M756.224 28.9318C756.224 28.9318 756.506 24.7415 760.301 25.0003C764.096 25.2591 769.531 24.914 769.962 28.3644C770.393 31.8148 771.722 34.5751 772.955 34.5751" stroke="#07294A" stroke-width="0.450544" stroke-linecap="round" stroke-linejoin="round"/>
<path d="M755.858 33.908C755.858 33.908 742.42 9.55955 766.197 7.83436C789.974 6.10916 801.164 37.6228 774.234 42.4533" stroke="#07294A" stroke-width="0.450544" stroke-linecap="round" stroke-linejoin="round"/>
<path d="M774.801 39.6557C774.801 40.675 773.975 41.5013 772.955 41.5013C771.936 41.5013 771.11 40.675 771.11 39.6557C771.11 38.6364 771.936 37.8101 772.955 37.8101" stroke="#79C9E7" stroke-width="0.450544" stroke-linecap="round" stroke-linejoin="round"/>
<path d="M755.858 41.0712C755.233 41.5942 754.339 41.6453 753.658 41.1967C752.978 40.7482 752.672 39.9063 752.906 39.1255C753.14 38.3448 753.859 37.8101 754.674 37.8101" stroke="#79C9E7" stroke-width="0.450544" stroke-linecap="round" stroke-linejoin="round"/>
<path d="M801.264 77.0572V117.024L744.646 130.94V86.4277C744.646 70.6444 755.421 56.9003 770.748 53.1331H770.748C778.099 51.3265 785.871 52.9991 791.828 57.6691C797.785 62.339 801.264 69.488 801.264 77.0571V77.0572Z" fill="#F0F8FF"/>
<path d="M801.265 117.024L744.646 130.94V218.481L830.694 204.93L801.265 117.024Z" fill="#79C9E7"/>
<path d="M768.987 292.837L772.955 285.726L762.02 190.343" stroke="#07294A" stroke-width="0.450544" stroke-linecap="round" stroke-linejoin="round"/>
<path d="M793.144 58.7793C793.144 58.7793 820.178 82.1331 802.466 114.797C784.754 147.461 727.708 100.765 727.018 97.0848C726.328 93.4044 732.308 92.4843 737.369 95.2446C737.369 95.2446 736.679 91.478 739.439 92.5562C742.199 93.6345 743.58 96.8548 743.58 96.8548L782.454 98.465L777.391 77.0726" stroke="#07294A" stroke-width="0.450544" stroke-linecap="round" stroke-linejoin="round"/>
<path d="M756.519 97.3906L739.439 52.4092L700.335 63.0409L724.487 117.024L746.097 112.645" stroke="#07294A" stroke-width="0.450544" stroke-linecap="round" stroke-linejoin="round"/>
<path d="M752.329 116.4V116.4C752.329 116.4 774.141 144.691 806.389 132.332L801.159 116.962C790.658 132.586 769.401 126.03 752.329 116.4Z" fill="#07294A"/>
<path d="M756.224 60.7388L746.07 69.8718" stroke="#07294A" stroke-width="0.450544" stroke-linecap="round" stroke-linejoin="round"/>
<path d="M709.596 83.7417C709.596 83.7417 703.21 107.723 718.392 117.902C733.573 128.081 744.646 120.49 744.646 120.49" stroke="#07294A" stroke-width="0.450544" stroke-linecap="round" stroke-linejoin="round"/>
<path d="M859.832 215.203V283.176L855.347 292.837H886.103L896.061 197.606L859.832 215.203Z" fill="#DFEFFF"/>
<path d="M866.666 116.177L914.412 113.41V165.172V292.837H882.135L886.103 285.727L866.666 116.177Z" fill="#F0F8FF"/>
<path d="M869.006 31.3268V37.7038C869.006 42.6348 872.372 46.9287 877.16 48.1056L887.308 50.5998V25.6669L878.87 23.593C876.494 23.009 873.982 23.5497 872.056 25.0593C870.13 26.569 869.006 28.88 869.006 31.3268V31.3268Z" fill="#F0F8FF"/>
<path d="M869.006 37.7041C869.006 42.6351 872.372 46.9289 877.16 48.1059L887.308 50.6" stroke="#07294A" stroke-width="0.450544" stroke-linecap="round" stroke-linejoin="round"/>
<path d="M879.345 36.4387C879.615 36.4387 879.834 36.2196 879.834 35.9493C879.834 35.6791 879.615 35.46 879.345 35.46C879.074 35.46 878.855 35.6791 878.855 35.9493C878.855 36.2196 879.074 36.4387 879.345 36.4387Z" fill="#07294A"/>
<path d="M871.828 36.4387C872.098 36.4387 872.317 36.2196 872.317 35.9493C872.317 35.6791 872.098 35.46 871.828 35.46C871.558 35.46 871.339 35.6791 871.339 35.9493C871.339 36.2196 871.558 36.4387 871.828 36.4387Z" fill="#07294A"/>
<path d="M874.033 38.8687V31.3271H870.255" stroke="#07294A" stroke-width="0.450544" stroke-linecap="round" stroke-linejoin="round"/>
<path d="M880.267 31.3273H876.488" stroke="#07294A" stroke-width="0.450544" stroke-linecap="round" stroke-linejoin="round"/>
<path d="M886.103 35.1912V37.8102C887.516 37.8102 888.661 36.6649 888.661 35.2522C888.661 35.1737 888.657 35.0961 888.65 35.0194C888.507 33.4309 886.103 33.5963 886.103 35.1912Z" fill="#F0F8FF"/>
<path d="M886.103 37.8099C887.516 37.8099 888.661 36.6647 888.661 35.252" stroke="#07294A" stroke-width="0.450544" stroke-linecap="round" stroke-linejoin="round"/>
<path d="M876.099 39.75C876.417 40.0677 876.847 40.2461 877.297 40.2461C877.746 40.2461 878.177 40.0677 878.494 39.75" stroke="#79C9E7" stroke-width="0.450544" stroke-linecap="round" stroke-linejoin="round"/>
<path d="M874.033 38.8745L875.686 39.2807" stroke="#07294A" stroke-width="0.450544" stroke-linecap="round" stroke-linejoin="round"/>
<path d="M869.372 28.9318C869.372 28.9318 869.653 24.7415 873.449 25.0003C877.244 25.2591 882.678 24.914 883.11 28.3644C883.541 31.8148 884.869 34.5751 886.103 34.5751" stroke="#07294A" stroke-width="0.450544" stroke-linecap="round" stroke-linejoin="round"/>
<path d="M869.006 33.908C869.006 33.908 855.567 9.55955 879.345 7.83436C903.122 6.10916 914.311 37.6228 887.382 42.4533" stroke="#07294A" stroke-width="0.450544" stroke-linecap="round" stroke-linejoin="round"/>
<path d="M887.948 39.6557C887.948 40.675 887.122 41.5013 886.103 41.5013C885.084 41.5013 884.257 40.675 884.257 39.6557C884.257 38.6364 885.084 37.8101 886.103 37.8101" stroke="#79C9E7" stroke-width="0.450544" stroke-linecap="round" stroke-linejoin="round"/>
<path d="M869.006 41.0712C868.381 41.5942 867.487 41.6453 866.806 41.1967C866.125 40.7482 865.82 39.9063 866.054 39.1255C866.288 38.3448 867.006 37.8101 867.822 37.8101" stroke="#79C9E7" stroke-width="0.450544" stroke-linecap="round" stroke-linejoin="round"/>
<path d="M914.412 77.0572V117.024L857.794 130.94V86.4277C857.794 70.6444 868.569 56.9003 883.896 53.1331H883.896C891.246 51.3265 899.019 52.9991 904.976 57.6691C910.933 62.339 914.412 69.488 914.412 77.0571V77.0572Z" fill="#F0F8FF"/>
<path d="M914.412 117.024L857.794 130.94V218.481L943.842 204.93L914.412 117.024Z" fill="#79C9E7"/>
<path d="M882.135 292.837L886.103 285.726L875.168 190.343" stroke="#07294A" stroke-width="0.450544" stroke-linecap="round" stroke-linejoin="round"/>
<path d="M906.292 58.7793C906.292 58.7793 933.326 82.1331 915.614 114.797C897.902 147.461 840.855 100.765 840.165 97.0848C839.475 93.4044 845.456 92.4843 850.516 95.2446C850.516 95.2446 849.826 91.478 852.587 92.5562C855.347 93.6345 856.727 96.8548 856.727 96.8548L895.602 98.465L890.539 77.0726" stroke="#07294A" stroke-width="0.450544" stroke-linecap="round" stroke-linejoin="round"/>
<path d="M869.667 97.3906L852.587 52.4092L813.482 63.0409L837.635 117.024L859.244 112.645" stroke="#07294A" stroke-width="0.450544" stroke-linecap="round" stroke-linejoin="round"/>
<path d="M865.476 116.4V116.4C865.476 116.4 887.288 144.691 919.537 132.332L914.307 116.962C903.805 132.586 882.548 126.03 865.476 116.4Z" fill="#07294A"/>
<path d="M869.372 60.7388L859.218 69.8718" stroke="#07294A" stroke-width="0.450544" stroke-linecap="round" stroke-linejoin="round"/>
<path d="M822.744 83.7417C822.744 83.7417 816.357 107.723 831.539 117.902C846.721 128.081 857.794 120.49 857.794 120.49" stroke="#07294A" stroke-width="0.450544" stroke-linecap="round" stroke-linejoin="round"/>
</g>
<defs>
<linearGradient id="paint0_linear_981_56260" x1="41.2798" y1="97.2228" x2="1158.72" y2="97.2228" gradientUnits="userSpaceOnUse">
<stop stop-color="#79C9E7"/>
<stop offset="0.2" stop-color="#74DAE1"/>
<stop offset="0.4" stop-color="#82E8D3"/>
<stop offset="0.6" stop-color="#A3F3C1"/>
<stop offset="0.8" stop-color="#CDFBB1"/>
<stop offset="1" stop-color="#FDFFAA"/>
</linearGradient>
<clipPath id="clip0_981_56260">
<rect width="1200" height="200" fill="white"/>
</clipPath>
</defs>
</svg>
