<svg width="1200" height="200" viewBox="0 0 1200 200" fill="none" xmlns="http://www.w3.org/2000/svg">
<g clip-path="url(#clip0_981_56009)">
<path d="M153.55 53.9014V116.645H2.84351" stroke="#07294A" stroke-width="0.610972" stroke-linecap="round" stroke-linejoin="round"/>
<path d="M184.516 174.907V61.2329" stroke="#07294A" stroke-width="0.610972" stroke-linecap="round" stroke-linejoin="round"/>
<path d="M-75.4551 174.907H231.848" stroke="#07294A" stroke-width="0.610972" stroke-linecap="round" stroke-linejoin="round"/>
<path d="M78.1968 -20.6333V116.645" stroke="#07294A" stroke-width="0.610972" stroke-linecap="round" stroke-linejoin="round"/>
<path d="M78.1968 48.0059H155.261" stroke="#07294A" stroke-width="0.610972" stroke-linecap="round" stroke-linejoin="round"/>
<rect x="11.5422" y="77.5464" width="5.75775" height="39.0694" fill="#F0F8FF"/>
<path d="M17.3003 116.616H11.5425V77.5464" stroke="#07294A" stroke-width="0.610972" stroke-linecap="round" stroke-linejoin="round"/>
<path d="M13.05 84.855H17.3" stroke="#07294A" stroke-width="0.610972" stroke-linecap="round" stroke-linejoin="round"/>
<path d="M13.05 86.4288H17.3" stroke="#07294A" stroke-width="0.610972" stroke-linecap="round" stroke-linejoin="round"/>
<path d="M13.05 88.002H17.3" stroke="#07294A" stroke-width="0.610972" stroke-linecap="round" stroke-linejoin="round"/>
<rect x="18.6282" y="77.5464" width="5.75775" height="39.0694" fill="#D1D1D1"/>
<path d="M24.3857 116.616H18.6279V77.5464" stroke="#07294A" stroke-width="0.610972" stroke-linecap="round" stroke-linejoin="round"/>
<path d="M20.136 84.855H24.3859" stroke="#07294A" stroke-width="0.610972" stroke-linecap="round" stroke-linejoin="round"/>
<path d="M20.136 86.4288H24.3859" stroke="#07294A" stroke-width="0.610972" stroke-linecap="round" stroke-linejoin="round"/>
<path d="M20.136 88.002H24.3859" stroke="#07294A" stroke-width="0.610972" stroke-linecap="round" stroke-linejoin="round"/>
<rect x="25.7141" y="77.5464" width="5.75775" height="39.0694" fill="#F0F8FF"/>
<path d="M31.4719 116.616H25.7141V77.5464" stroke="#07294A" stroke-width="0.610972" stroke-linecap="round" stroke-linejoin="round"/>
<path d="M27.2219 84.855H31.4718" stroke="#07294A" stroke-width="0.610972" stroke-linecap="round" stroke-linejoin="round"/>
<path d="M27.2219 86.4288H31.4718" stroke="#07294A" stroke-width="0.610972" stroke-linecap="round" stroke-linejoin="round"/>
<path d="M27.2219 88.002H31.4718" stroke="#07294A" stroke-width="0.610972" stroke-linecap="round" stroke-linejoin="round"/>
<rect x="32.8" y="77.5464" width="5.75775" height="39.0694" fill="#D1D1D1"/>
<path d="M38.5581 116.616H32.8003V77.5464" stroke="#07294A" stroke-width="0.610972" stroke-linecap="round" stroke-linejoin="round"/>
<path d="M34.3079 84.855H38.5578" stroke="#07294A" stroke-width="0.610972" stroke-linecap="round" stroke-linejoin="round"/>
<path d="M34.3079 86.4288H38.5578" stroke="#07294A" stroke-width="0.610972" stroke-linecap="round" stroke-linejoin="round"/>
<path d="M34.3079 88.002H38.5578" stroke="#07294A" stroke-width="0.610972" stroke-linecap="round" stroke-linejoin="round"/>
<rect x="39.886" y="77.5464" width="5.75775" height="39.0694" fill="#F0F8FF"/>
<path d="M45.6436 116.616H39.8862V77.5464" stroke="#07294A" stroke-width="0.610972" stroke-linecap="round" stroke-linejoin="round"/>
<path d="M41.3938 84.855H45.6437" stroke="#07294A" stroke-width="0.610972" stroke-linecap="round" stroke-linejoin="round"/>
<path d="M41.3938 86.4288H45.6437" stroke="#07294A" stroke-width="0.610972" stroke-linecap="round" stroke-linejoin="round"/>
<path d="M41.3938 88.002H45.6437" stroke="#07294A" stroke-width="0.610972" stroke-linecap="round" stroke-linejoin="round"/>
<rect x="46.3882" y="79.1182" width="5.75775" height="39.0694" transform="rotate(-16.1509 46.3882 79.1182)" fill="#D1D1D1"/>
<path d="M62.7867 115.044L57.2561 116.646L46.3882 79.1182" stroke="#07294A" stroke-width="0.610972" stroke-linecap="round" stroke-linejoin="round"/>
<path d="M49.8696 85.7188L53.9518 84.5366" stroke="#07294A" stroke-width="0.610972" stroke-linecap="round" stroke-linejoin="round"/>
<path d="M50.3071 87.2305L54.3893 86.0483" stroke="#07294A" stroke-width="0.610972" stroke-linecap="round" stroke-linejoin="round"/>
<path d="M50.7449 88.7418L54.8271 87.5596" stroke="#07294A" stroke-width="0.610972" stroke-linecap="round" stroke-linejoin="round"/>
<g opacity="0.5">
<path fill-rule="evenodd" clip-rule="evenodd" d="M284.017 3.6377C269.251 3.6377 257.281 15.608 257.281 30.3741V30.3741C257.281 37.5408 251.471 43.3506 244.304 43.3506H56.3618C41.5958 43.3506 29.6255 55.3209 29.6255 70.087V145.097C29.6255 159.863 41.5958 171.834 56.3619 171.834H309.728C324.494 171.834 336.465 159.863 336.465 145.097V145.097C336.465 137.93 342.274 132.121 349.441 132.121H449.787C459.632 132.121 467.612 140.101 467.612 149.945V169.626C467.612 184.392 479.582 196.363 494.348 196.363H868.969C883.735 196.363 895.705 184.392 895.705 169.626V163.961C895.705 154.117 903.685 146.137 913.529 146.137H1143.64C1158.4 146.137 1170.38 134.167 1170.38 119.4V56.0704C1170.38 41.3043 1158.4 29.334 1143.64 29.334H769.018C754.252 29.334 742.282 41.3043 742.282 56.0704V56.0704C742.282 62.5924 736.995 67.8796 730.473 67.8796H581.944C572.1 67.8796 564.12 59.8994 564.12 50.0553V30.3741C564.12 15.608 552.149 3.6377 537.383 3.6377H284.017Z" fill="url(#paint0_linear_981_56009)"/>
</g>
<path d="M213.156 105.949L184.933 107.759L217.483 165.55L193.06 232.973L224.392 252.935L224.087 242.949C224.087 242.949 245.347 219.901 261.515 167.958C277.683 116.015 213.156 105.949 213.156 105.949Z" fill="#DFEFFF"/>
<path d="M236.977 158.67L217.713 155.23L212.852 157.327L217.484 165.55L212.451 179.442V179.442C212.451 179.442 233.043 187.811 244.6 210.535C245.554 208.625 246.518 206.626 247.493 204.537C244.382 187.603 236.977 158.67 236.977 158.67Z" fill="#07294A"/>
<path d="M326.851 96.369H237.034L243.195 42.4873H333.011L326.851 96.369Z" fill="#F0F8FF"/>
<path fill-rule="evenodd" clip-rule="evenodd" d="M323.284 91.7728H233.468L239.628 37.8911H329.445L323.284 91.7728Z" stroke="#07294A" stroke-width="0.432886" stroke-linecap="round" stroke-linejoin="round"/>
<path d="M284.521 112.2L286.857 91.7725H272.492L270.156 112.2H284.521Z" fill="#07294A"/>
<path d="M286.282 231.597C286.282 231.597 279.985 109.679 196.388 110.069L156.709 119.823C156.709 119.823 146.845 173.925 229.399 170.829L259.326 248.224L291.831 236.873L286.282 231.597Z" fill="#F0F8FF"/>
<path d="M286.283 231.597C286.283 231.597 279.985 109.679 196.388 110.069" stroke="#07294A" stroke-width="0.432886" stroke-linecap="round" stroke-linejoin="round"/>
<path d="M156.709 119.823C156.709 119.823 146.845 173.925 229.399 170.829L259.326 248.224" stroke="#07294A" stroke-width="0.432886" stroke-linecap="round" stroke-linejoin="round"/>
<path d="M194.057 20.5109V35.2407L175.809 39.7257V14.8683L194.057 10.3833V20.5109Z" fill="#F0F8FF"/>
<path d="M183.749 25.6071C184.018 25.6071 184.237 25.3887 184.237 25.1192C184.237 24.8498 184.018 24.6313 183.749 24.6313C183.479 24.6313 183.261 24.8498 183.261 25.1192C183.261 25.3887 183.479 25.6071 183.749 25.6071Z" fill="#07294A"/>
<path d="M191.243 25.6071C191.512 25.6071 191.73 25.3887 191.73 25.1192C191.73 24.8498 191.512 24.6313 191.243 24.6313C190.973 24.6313 190.755 24.8498 190.755 25.1192C190.755 25.3887 190.973 25.6071 191.243 25.6071Z" fill="#07294A"/>
<path d="M189.044 28.0298V20.5107H192.811" stroke="#07294A" stroke-width="0.432886" stroke-linecap="round" stroke-linejoin="round"/>
<path d="M182.83 20.5114H186.597" stroke="#07294A" stroke-width="0.432886" stroke-linecap="round" stroke-linejoin="round"/>
<path d="M177.011 24.3636V26.9746C175.603 26.9746 174.461 25.8328 174.461 24.4244C174.461 24.3461 174.464 24.2688 174.471 24.1923C174.614 22.6087 177.011 22.7735 177.011 24.3636Z" fill="#F0F8FF"/>
<path d="M177.011 26.9745C175.603 26.9745 174.461 25.8328 174.461 24.4243" stroke="#07294A" stroke-width="0.432886" stroke-linecap="round" stroke-linejoin="round"/>
<path d="M187.397 29.8834C185.971 29.8834 184.815 28.7278 184.815 27.3022" stroke="#79C9E7" stroke-width="0.432886" stroke-linecap="round" stroke-linejoin="round"/>
<path d="M194.057 35.2407L175.809 39.7256" stroke="#07294A" stroke-width="0.432886" stroke-linecap="round" stroke-linejoin="round"/>
<path d="M189.044 28.0361L187.396 28.441" stroke="#07294A" stroke-width="0.432886" stroke-linecap="round" stroke-linejoin="round"/>
<path d="M213.157 66.1027V105.949L156.709 119.822V75.4449C156.709 59.7094 167.452 46.0068 182.733 42.2511H182.733C190.061 40.45 197.81 42.1174 203.749 46.7733C209.688 51.4291 213.157 58.5565 213.157 66.1027V66.1027Z" fill="#79C9E7"/>
<path d="M177.011 23.0845C178.411 21.3662 179.408 19.3563 179.929 17.2023C179.929 17.2023 190.755 20.7712 195.194 14.7943C197.206 12.0852 196.27 9.44168 195.326 7.88004C195.183 7.63239 194.921 7.47754 194.636 7.47183C194.35 7.46642 194.082 7.61098 193.93 7.8529C193.491 8.62196 192.456 9.25277 190.034 8.34441C185.952 6.81356 177.456 7.31242 176.102 12.4723C176.102 12.4723 170.082 14.1493 175.253 23.1581" stroke="#07294A" stroke-width="0.432886" stroke-linecap="round" stroke-linejoin="round"/>
<path d="M207.834 112.2H330.742" stroke="#07294A" stroke-width="0.432886" stroke-linecap="round" stroke-linejoin="round"/>
<path d="M170.232 48.2119C170.232 48.2119 146.965 67.3198 141.117 98.2032C135.269 129.087 181.638 121.666 203.724 112.575" stroke="#07294A" stroke-width="0.432886" stroke-linecap="round" stroke-linejoin="round"/>
<path d="M165.712 96.3687C165.712 96.3687 218.171 87.0958 221.783 110.069" stroke="#07294A" stroke-width="0.432886" stroke-linecap="round" stroke-linejoin="round"/>
<path d="M205.422 48.2119C205.422 48.2119 221.885 65.2002 226.227 96.3686C226.227 96.3686 242.926 96.943 243.594 110.069" stroke="#07294A" stroke-width="0.432886" stroke-linecap="round" stroke-linejoin="round"/>
<path d="M160.519 58.2797C160.519 58.2797 153.037 42.7439 146.845 56.1598C140.653 69.5756 113.597 157.982 142.149 172.774C170.7 187.566 212.451 179.442 212.451 179.442" stroke="#07294A" stroke-width="0.432886" stroke-linecap="round" stroke-linejoin="round"/>
<path d="M180.899 181.668V281.229H146.845" stroke="#07294A" stroke-width="0.432886" stroke-linecap="round" stroke-linejoin="round"/>
<path d="M681.716 172.728L635.466 214.155L614.939 297.273L581.476 289.177L587.081 283.223C587.081 283.223 588.368 158.226 642.672 138.155" fill="#DFEFFF"/>
<rect width="52.1758" height="18.7113" rx="7.80942" transform="matrix(-1 0 0 1 707.265 171.675)" fill="#79C9E7"/>
<path d="M664.445 190.386H697.91" stroke="#07294A" stroke-width="0.450544" stroke-linecap="round" stroke-linejoin="round"/>
<path d="M678.484 36.0484V51.4565L659.397 56.148V30.1461L678.484 25.4546V36.0484Z" fill="#F0F8FF"/>
<path d="M676.293 43.871C676.463 44.0825 676.508 44.3677 676.414 44.6217C676.319 44.8758 676.097 45.0612 675.83 45.1098C674.763 45.4816 672.855 43.5154 671.557 44.8565C671.557 44.8565 671.044 43.2355 667.588 44.641C664.131 46.0466 665.084 43.5469 665.084 43.5469" stroke="#79C9E7" stroke-width="0.450544" stroke-linecap="round" stroke-linejoin="round"/>
<path d="M667.702 41.3796C667.42 41.3796 667.192 41.1511 667.192 40.8692C667.192 40.5874 667.42 40.3589 667.702 40.3589C667.984 40.3589 668.212 40.5874 668.212 40.8692C668.212 41.1511 667.984 41.3796 667.702 41.3796Z" fill="#07294A"/>
<path d="M675.541 41.3796C675.259 41.3796 675.03 41.1511 675.03 40.8692C675.03 40.5874 675.259 40.3589 675.541 40.3589C675.823 40.3589 676.051 40.5874 676.051 40.8692C676.051 41.1511 675.823 41.3796 675.541 41.3796Z" fill="#07294A"/>
<path d="M673.241 43.9141V36.0488H677.181" stroke="#07294A" stroke-width="0.450544" stroke-linecap="round" stroke-linejoin="round"/>
<path d="M666.741 36.0486H670.681" stroke="#07294A" stroke-width="0.450544" stroke-linecap="round" stroke-linejoin="round"/>
<path d="M660.654 40.0787V42.81C659.181 42.81 657.986 41.6156 657.986 40.1423C657.986 40.0605 657.99 39.9795 657.997 39.8995C658.147 38.243 660.654 38.4155 660.654 40.0787Z" fill="#F0F8FF"/>
<path d="M660.654 42.8097C659.181 42.8097 657.986 41.6154 657.986 40.1421" stroke="#07294A" stroke-width="0.450544" stroke-linecap="round" stroke-linejoin="round"/>
<path d="M665.518 54.6436L659.397 56.1481" stroke="#07294A" stroke-width="0.450544" stroke-linecap="round" stroke-linejoin="round"/>
<path d="M673.241 43.9199L671.518 44.3435" stroke="#07294A" stroke-width="0.450544" stroke-linecap="round" stroke-linejoin="round"/>
<path d="M678.484 42.1946C678.484 42.1946 682.919 51.6702 676.051 54.6688C669.183 57.6674 659.382 50.0997 660.654 41.3794" stroke="#79C9E7" stroke-width="0.450544" stroke-linecap="round" stroke-linejoin="round"/>
<path d="M679.198 31.8198C679.198 31.8198 677.675 34.6438 672.379 34.7611V33.0193C670.032 34.4585 667.318 35.1876 664.565 35.1183V33.7389C664.565 33.7389 661.267 37.4436 663.905 40.3591" stroke="#79C9E7" stroke-width="0.450544" stroke-linecap="round" stroke-linejoin="round"/>
<path d="M671.158 46.9566C670.051 46.9566 669.153 46.059 669.153 44.9517" stroke="#79C9E7" stroke-width="0.450544" stroke-linecap="round" stroke-linejoin="round"/>
<path d="M678.484 39.5259C678.484 39.5259 686.196 26.2121 677.794 24.5929C669.393 22.9736 663.635 26.7519 663.635 26.7519C663.635 26.7519 650.93 29.3292 659.397 38.7456" stroke="#79C9E7" stroke-width="0.450544" stroke-linecap="round" stroke-linejoin="round"/>
<path d="M694.487 83.7394V125.42L635.441 139.932V93.5117C635.441 77.0517 646.678 62.7183 662.662 58.7897H662.662C670.328 56.9056 678.434 58.6498 684.646 63.52C690.858 68.3902 694.487 75.8458 694.487 83.7394V83.7394Z" fill="#79C9E7"/>
<path d="M694.487 125.42C694.487 125.42 704.746 196.503 629.181 185.17L628.822 244.919H592.27L597.876 240.043C597.876 240.043 565.491 150.804 635.441 139.932" fill="#F0F8FF"/>
<path d="M694.487 125.42C694.487 125.42 704.746 196.503 629.181 185.17L628.822 244.919" stroke="#07294A" stroke-width="0.450544" stroke-linecap="round" stroke-linejoin="round"/>
<path d="M681.177 190.386V308.771" stroke="#07294A" stroke-width="0.450544" stroke-linecap="round" stroke-linejoin="round"/>
<path d="M681.716 61.5303C681.716 61.5303 706.186 75.5994 703.067 109.424C699.949 143.248 646.245 122.138 631.596 111.583C631.596 111.583 623.665 105.779 625.584 96.3079L620.982 93.2008L622.225 90.4725L677.181 98.9838L675.03 85.6748" stroke="#07294A" stroke-width="0.450544" stroke-linecap="round" stroke-linejoin="round"/>
<path d="M692.251 125.682C687.955 132.306 675.409 135.148 661.869 132.041C649.693 129.246 640.34 122.472 637.869 115.437C651.955 123.087 677.63 132.015 692.251 125.682Z" fill="#07294A"/>
<path d="M654.76 61.7548L618.386 78.4778C618.386 78.4778 609.99 45.3183 600.155 43.5466C590.319 41.7749 590.39 42.8097 590.39 42.8097L590.948 45.4122L595.625 46.9566C595.625 46.9566 593.438 57.7422 599.195 58.0347C599.195 58.0347 581.317 123.319 636.315 114.572" stroke="#07294A" stroke-width="0.450544" stroke-linecap="round" stroke-linejoin="round"/>
<path d="M802.159 172.728L755.909 214.155L735.382 297.273L701.919 289.177L707.524 283.223C707.524 283.223 708.812 158.226 763.116 138.155" fill="#DFEFFF"/>
<rect width="52.1758" height="18.7113" rx="7.80942" transform="matrix(-1 0 0 1 827.708 171.675)" fill="#79C9E7"/>
<path d="M784.889 190.386H818.353" stroke="#07294A" stroke-width="0.450544" stroke-linecap="round" stroke-linejoin="round"/>
<path d="M798.927 36.0484V51.4565L779.84 56.148V30.1461L798.927 25.4546V36.0484Z" fill="#F0F8FF"/>
<path d="M796.736 43.871C796.906 44.0825 796.952 44.3677 796.857 44.6217C796.762 44.8758 796.541 45.0612 796.274 45.1098C795.206 45.4816 793.299 43.5154 792.001 44.8565C792.001 44.8565 791.487 43.2355 788.031 44.641C784.575 46.0466 785.527 43.5469 785.527 43.5469" stroke="#79C9E7" stroke-width="0.450544" stroke-linecap="round" stroke-linejoin="round"/>
<path d="M788.145 41.3796C787.864 41.3796 787.635 41.1511 787.635 40.8692C787.635 40.5874 787.864 40.3589 788.145 40.3589C788.427 40.3589 788.656 40.5874 788.656 40.8692C788.656 41.1511 788.427 41.3796 788.145 41.3796Z" fill="#07294A"/>
<path d="M795.984 41.3796C795.702 41.3796 795.474 41.1511 795.474 40.8692C795.474 40.5874 795.702 40.3589 795.984 40.3589C796.266 40.3589 796.494 40.5874 796.494 40.8692C796.494 41.1511 796.266 41.3796 795.984 41.3796Z" fill="#07294A"/>
<path d="M793.684 43.9141V36.0488H797.625" stroke="#07294A" stroke-width="0.450544" stroke-linecap="round" stroke-linejoin="round"/>
<path d="M787.184 36.0486H791.124" stroke="#07294A" stroke-width="0.450544" stroke-linecap="round" stroke-linejoin="round"/>
<path d="M781.097 40.0787V42.81C779.624 42.81 778.43 41.6156 778.43 40.1423C778.43 40.0605 778.433 39.9795 778.441 39.8995C778.59 38.243 781.097 38.4155 781.097 40.0787Z" fill="#F0F8FF"/>
<path d="M781.097 42.8097C779.624 42.8097 778.43 41.6154 778.43 40.1421" stroke="#07294A" stroke-width="0.450544" stroke-linecap="round" stroke-linejoin="round"/>
<path d="M785.962 54.6436L779.84 56.1481" stroke="#07294A" stroke-width="0.450544" stroke-linecap="round" stroke-linejoin="round"/>
<path d="M793.684 43.9199L791.961 44.3435" stroke="#07294A" stroke-width="0.450544" stroke-linecap="round" stroke-linejoin="round"/>
<path d="M798.928 42.1946C798.928 42.1946 803.363 51.6702 796.494 54.6688C789.626 57.6674 779.825 50.0997 781.097 41.3794" stroke="#79C9E7" stroke-width="0.450544" stroke-linecap="round" stroke-linejoin="round"/>
<path d="M799.642 31.8198C799.642 31.8198 798.118 34.6438 792.823 34.7611V33.0193C790.475 34.4585 787.761 35.1876 785.008 35.1183V33.7389C785.008 33.7389 781.71 37.4436 784.349 40.3591" stroke="#79C9E7" stroke-width="0.450544" stroke-linecap="round" stroke-linejoin="round"/>
<path d="M791.601 46.9566C790.494 46.9566 789.596 46.059 789.596 44.9517" stroke="#79C9E7" stroke-width="0.450544" stroke-linecap="round" stroke-linejoin="round"/>
<path d="M798.928 39.5259C798.928 39.5259 806.639 26.2121 798.238 24.5929C789.836 22.9736 784.079 26.7519 784.079 26.7519C784.079 26.7519 771.374 29.3292 779.84 38.7456" stroke="#79C9E7" stroke-width="0.450544" stroke-linecap="round" stroke-linejoin="round"/>
<path d="M814.93 83.7394V125.42L755.884 139.932V93.5117C755.884 77.0517 767.121 62.7183 783.106 58.7897H783.106C790.771 56.9056 798.877 58.6498 805.089 63.52C811.302 68.3902 814.93 75.8458 814.93 83.7394V83.7394Z" fill="#79C9E7"/>
<path d="M814.93 125.42C814.93 125.42 825.19 196.503 749.625 185.17L749.265 244.919H712.714L718.319 240.043C718.319 240.043 685.934 150.804 755.884 139.932" fill="#F0F8FF"/>
<path d="M814.93 125.42C814.93 125.42 825.19 196.503 749.625 185.17L749.265 244.919" stroke="#07294A" stroke-width="0.450544" stroke-linecap="round" stroke-linejoin="round"/>
<path d="M801.621 190.386V308.771" stroke="#07294A" stroke-width="0.450544" stroke-linecap="round" stroke-linejoin="round"/>
<path d="M802.159 61.5303C802.159 61.5303 826.629 75.5994 823.511 109.424C820.392 143.248 766.688 122.138 752.039 111.583C752.039 111.583 744.108 105.779 746.028 96.3079L741.425 93.2008L742.668 90.4725L797.624 98.9838L795.474 85.6748" stroke="#07294A" stroke-width="0.450544" stroke-linecap="round" stroke-linejoin="round"/>
<path d="M812.694 125.682C808.398 132.306 795.852 135.148 782.313 132.041C770.136 129.246 760.784 122.472 758.313 115.437C772.398 123.087 798.073 132.015 812.694 125.682Z" fill="#07294A"/>
<path d="M775.204 61.7548L738.83 78.4778C738.83 78.4778 730.434 45.3183 720.598 43.5466C710.763 41.7749 710.834 42.8097 710.834 42.8097L711.391 45.4122L716.068 46.9566C716.068 46.9566 713.881 57.7422 719.639 58.0347C719.639 58.0347 701.76 123.319 756.758 114.572" stroke="#07294A" stroke-width="0.450544" stroke-linecap="round" stroke-linejoin="round"/>
<rect width="51.784" height="18.5708" rx="7.80942" transform="matrix(-1 0 0 1 957.667 172.789)" fill="#79C9E7"/>
<path d="M915.168 191.36H948.381" stroke="#07294A" stroke-width="0.450544" stroke-linecap="round" stroke-linejoin="round"/>
<path d="M931.775 191.36V308.855" stroke="#07294A" stroke-width="0.450544" stroke-linecap="round" stroke-linejoin="round"/>
<path d="M863.377 136.719C863.377 136.719 805.155 156.027 783.193 222.45L773.551 226.735L804.62 236.377L854.973 182.074L890.555 158.388" fill="#DFEFFF"/>
<path d="M841.949 251.357C826.455 145.49 880.149 141.285 880.149 141.285L904.967 182.074L880.386 181.019L873.65 262.921L837.208 259.571L841.949 251.357Z" fill="#F0F8FF"/>
<path d="M841.949 251.357C826.455 145.49 880.149 141.285 880.149 141.285" stroke="#07294A" stroke-width="0.450544" stroke-linecap="round" stroke-linejoin="round"/>
<path d="M892.562 126.881L951.164 141.285C951.164 141.285 955.04 186.241 892.562 182.074L858.723 134.702L892.562 126.881Z" fill="#F0F8FF"/>
<path d="M892.562 182.074L858.722 134.702" stroke="#07294A" stroke-width="0.450544" stroke-linecap="round" stroke-linejoin="round"/>
<path d="M951.164 141.285C951.164 141.285 955.04 186.241 892.562 182.074" stroke="#07294A" stroke-width="0.450544" stroke-linecap="round" stroke-linejoin="round"/>
<path d="M933.519 38.1811V44.7816C933.519 49.8853 930.034 54.3297 925.078 55.5479L914.574 58.1295V32.3229L923.308 30.1763C925.767 29.5718 928.368 30.1314 930.361 31.694C932.354 33.2565 933.519 35.6485 933.519 38.1811V38.1811Z" fill="#F0F8FF"/>
<path d="M933.519 44.7817C933.519 49.8855 930.034 54.3298 925.078 55.548L914.574 58.1296" stroke="#07294A" stroke-width="0.450544" stroke-linecap="round" stroke-linejoin="round"/>
<path d="M922.817 43.472C922.538 43.472 922.311 43.2453 922.311 42.9655C922.311 42.6858 922.538 42.459 922.817 42.459C923.097 42.459 923.324 42.6858 923.324 42.9655C923.324 43.2453 923.097 43.472 922.817 43.472Z" fill="#07294A"/>
<path d="M930.597 43.472C930.317 43.472 930.091 43.2453 930.091 42.9655C930.091 42.6858 930.317 42.459 930.597 42.459C930.877 42.459 931.104 42.6858 931.104 42.9655C931.104 43.2453 930.877 43.472 930.597 43.472Z" fill="#07294A"/>
<path d="M928.315 45.987V38.1812H932.225" stroke="#07294A" stroke-width="0.450544" stroke-linecap="round" stroke-linejoin="round"/>
<path d="M921.863 38.181H925.774" stroke="#07294A" stroke-width="0.450544" stroke-linecap="round" stroke-linejoin="round"/>
<path d="M915.822 42.181V44.8917C914.36 44.8917 913.175 43.7063 913.175 42.2441C913.175 42.1629 913.178 42.0826 913.185 42.0031C913.334 40.359 915.822 40.5302 915.822 42.181Z" fill="#F0F8FF"/>
<path d="M915.822 44.8917C914.36 44.8917 913.175 43.7064 913.175 42.2441" stroke="#07294A" stroke-width="0.450544" stroke-linecap="round" stroke-linejoin="round"/>
<path d="M926.177 46.8994C925.848 47.2282 925.402 47.4129 924.937 47.4129C924.472 47.4129 924.026 47.2282 923.697 46.8994" stroke="#79C9E7" stroke-width="0.450544" stroke-linecap="round" stroke-linejoin="round"/>
<path d="M928.315 45.9932L926.604 46.4135" stroke="#07294A" stroke-width="0.450544" stroke-linecap="round" stroke-linejoin="round"/>
<path d="M934.065 35.4126L919.304 36.1269C919.304 36.1269 918.459 40.9645 915.822 41.4838" stroke="#79C9E7" stroke-width="0.450544" stroke-linecap="round" stroke-linejoin="round"/>
<path d="M934.065 48.15L940.731 45.9871C940.731 45.9871 940.374 20.77 918.946 24.5794C918.946 24.5794 905.375 25.125 903.947 39.7673C902.518 54.4097 902.741 55.3472 902.741 55.3472L914.575 52.5547" stroke="#79C9E7" stroke-width="0.450544" stroke-linecap="round" stroke-linejoin="round"/>
<path d="M892.562 85.5138V126.881L951.164 141.285V95.2127C951.164 78.8763 940.012 64.6505 924.147 60.7514H924.147C916.539 58.8815 908.494 60.6126 902.329 65.4462C896.163 70.2799 892.562 77.6794 892.562 85.5138V85.5138Z" fill="#79C9E7"/>
<path d="M934.065 64.8589C934.065 64.8589 972.82 87.9961 986.747 122.815C1000.67 157.633 930.553 136.219 930.553 136.219C930.553 136.219 919.149 136.963 914.863 131.599L909.665 131.085L910.28 128.623L953.612 119.1L933.519 100.643" stroke="#07294A" stroke-width="0.450544" stroke-linecap="round" stroke-linejoin="round"/>
<path d="M953.612 119.1L937.719 122.593C949.314 118.305 936.955 103.8 936.952 103.797L953.612 119.1Z" fill="#07294A"/>
<path d="M928.979 124.514C929.466 124.163 930.804 123.845 933.245 123.576L928.979 124.514Z" fill="#07294A"/>
<path d="M897.59 70.3003L880.149 96.7197C880.149 96.7197 874.329 65.2922 866.234 62.4351C858.139 59.5781 854.329 58.1294 854.329 58.1294L853.423 60.9885L857.187 64.859C857.187 64.859 853.533 72.911 859.646 74.8157C859.646 74.8157 841.554 126.201 878.417 130.15" stroke="#07294A" stroke-width="0.450544" stroke-linecap="round" stroke-linejoin="round"/>
</g>
<defs>
<linearGradient id="paint0_linear_981_56009" x1="29.6255" y1="100" x2="1170.38" y2="100" gradientUnits="userSpaceOnUse">
<stop stop-color="#79C9E7"/>
<stop offset="0.2" stop-color="#74DAE1"/>
<stop offset="0.4" stop-color="#82E8D3"/>
<stop offset="0.6" stop-color="#A3F3C1"/>
<stop offset="0.8" stop-color="#CDFBB1"/>
<stop offset="1" stop-color="#FDFFAA"/>
</linearGradient>
<clipPath id="clip0_981_56009">
<rect width="1200" height="200" fill="white"/>
</clipPath>
</defs>
</svg>
