<svg width="1200" height="200" viewBox="0 0 1200 200" fill="none" xmlns="http://www.w3.org/2000/svg">
<g clip-path="url(#clip0_994_62066)">
<g opacity="0.5">
<path fill-rule="evenodd" clip-rule="evenodd" d="M250.419 30.374C250.419 15.608 262.39 3.6377 277.156 3.6377H531.083C545.849 3.6377 557.819 15.608 557.819 30.3741V50.0548C557.819 59.8989 565.799 67.879 575.643 67.879H732.17C732.454 67.879 732.738 67.8835 733.02 67.8923C743.896 68.2321 757.443 68.0175 766.797 62.4578C774.944 57.6161 784.447 54.8323 794.543 54.8323C819.762 54.8323 841.287 72.2041 847.188 95.6344C847.834 98.1998 850.213 100 852.859 100V100C856.617 100 860.268 100.509 863.741 101.462C864.705 101.727 865.678 100.999 865.678 100V100C865.678 64.0116 895.125 34.8372 931.45 34.8372C967.774 34.8372 997.222 64.0116 997.222 100C997.222 135.988 967.774 165.163 931.45 165.163C925.738 165.163 920.197 164.442 914.913 163.086C902.987 160.026 887.85 165.222 878.123 172.77C871.126 178.2 862.336 181.439 852.859 181.439C842.633 181.439 833.21 177.669 825.973 171.445C818.75 165.233 808.718 161.297 799.226 162.115C797.681 162.248 796.119 162.316 794.543 162.316C788.29 162.316 782.264 161.248 776.647 159.284C769.026 156.62 758.906 161.552 758.906 169.626V169.626C758.906 184.392 746.936 196.362 732.17 196.362H487.872C473.106 196.362 461.136 184.392 461.136 169.626V149.945C461.136 140.101 453.156 132.121 443.311 132.121H322.908C314.832 132.121 308.017 137.729 304.089 144.785C294.467 162.074 275.89 173.786 254.553 173.786C234.365 173.786 216.649 163.301 206.649 147.529C200.309 137.529 182.528 129.653 170.688 129.653V129.653V129.653C156.48 129.653 131.754 136.166 117.729 138.44C116.26 138.678 114.754 138.802 113.222 138.802C97.8627 138.802 85.1513 126.35 85.1513 110.991C85.1513 95.6313 97.8627 83.1799 113.222 83.1799V83.1799C120.591 83.1799 130.35 78.2006 133.541 71.5585C140.171 57.7604 154.414 48.2141 170.688 48.2141C179.612 48.2141 187.925 51.0849 194.708 55.9533C204.872 63.2494 224.749 68.5804 236.627 64.6484V64.6484C243.981 62.214 250.419 55.92 250.419 48.1735V30.374ZM60.1238 42.0418C46.275 42.0418 34.814 53.2685 34.814 67.1172C34.814 80.966 46.275 92.1926 60.1238 92.1926C73.9726 92.1926 85.4336 80.966 85.4336 67.1172C85.4336 53.2685 73.9726 42.0418 60.1238 42.0418ZM309.203 163.532C309.203 149.684 320.664 138.457 334.513 138.457C348.362 138.457 359.823 149.684 359.823 163.532C359.823 177.381 348.362 188.608 334.513 188.608C320.664 188.608 309.203 177.381 309.203 163.532ZM1134.59 88.7516C1151.49 88.7516 1165.18 75.18 1165.18 58.4387C1165.18 41.6974 1151.49 28.1259 1134.59 28.1259C1117.69 28.1259 1103.99 41.6974 1103.99 58.4387C1103.99 61.5144 1104.45 64.483 1105.31 67.2802C1106 69.5276 1103.6 72.4754 1101.25 72.4754V72.4754C1090.46 72.4754 1081.71 81.1456 1081.71 91.8408C1081.71 102.536 1090.46 111.206 1101.25 111.206C1112.05 111.206 1120.8 102.536 1120.8 91.8408V91.8408C1120.8 89.4324 1123.79 86.91 1126.1 87.5709C1128.8 88.3397 1131.64 88.7516 1134.59 88.7516ZM1044.92 148.163C1044.92 146.576 1042.74 145.215 1041.37 146.015C1036.82 148.667 1031.52 150.188 1025.87 150.188C1008.97 150.188 995.271 136.616 995.271 119.875C995.271 103.134 1008.97 89.5621 1025.87 89.5621C1042.77 89.5621 1056.46 103.134 1056.46 119.875C1056.46 120.288 1056.46 120.699 1056.44 121.108C1056.3 124.465 1061.11 128.798 1064.47 128.798V128.798C1075.26 128.798 1084.01 137.468 1084.01 148.163C1084.01 158.858 1075.26 167.529 1064.47 167.529C1053.67 167.529 1044.92 158.858 1044.92 148.163V148.163ZM579.124 63.1221C588.208 63.1221 595.571 55.8265 595.571 46.8269C595.571 37.8274 588.208 30.5318 579.124 30.5318C570.04 30.5318 562.676 37.8274 562.676 46.8269C562.676 55.8265 570.04 63.1221 579.124 63.1221Z" fill="url(#paint0_linear_994_62066)"/>
</g>
<path d="M415.038 117.602C415.038 117.602 522.153 218.73 359.752 225.948L354.339 232.714L346.67 197.528L403.059 180.521L394.427 109.561" fill="#DFEFFF"/>
<path d="M411.722 209.472C411.722 196.949 408.25 185.737 402.777 178.207L403.059 180.521L363.145 192.559C360.2 203.433 360.145 214.887 362.983 225.789C383.018 224.72 398.805 222.179 411.097 218.554C411.516 215.545 411.724 212.51 411.722 209.472V209.472Z" fill="#07294A"/>
<path d="M407.013 107.445C407.013 107.445 413.084 206.54 395.936 253.458L399.518 258.721H369.019C369.019 258.721 365.687 132.677 365.687 105.472L407.013 107.445Z" fill="#F0F8FF"/>
<path d="M397.314 30.7735V43.6519L381.36 47.5732V25.8402L397.314 21.9189V30.7735Z" fill="#F0F8FF"/>
<path d="M388.302 35.2296C388.537 35.2296 388.728 35.0386 388.728 34.803C388.728 34.5674 388.537 34.3765 388.302 34.3765C388.066 34.3765 387.875 34.5674 387.875 34.803C387.875 35.0386 388.066 35.2296 388.302 35.2296Z" fill="#07294A"/>
<path d="M394.853 35.2296C395.089 35.2296 395.28 35.0386 395.28 34.803C395.28 34.5674 395.089 34.3765 394.853 34.3765C394.618 34.3765 394.427 34.5674 394.427 34.803C394.427 35.0386 394.618 35.2296 394.853 35.2296Z" fill="#07294A"/>
<path d="M392.931 37.3474V30.7734H396.224" stroke="#07294A" stroke-width="0.378" stroke-linecap="round" stroke-linejoin="round"/>
<path d="M387.498 30.7739H390.791" stroke="#07294A" stroke-width="0.378" stroke-linecap="round" stroke-linejoin="round"/>
<path d="M396.737 29.6973H396.737" stroke="#07294A" stroke-width="0.378" stroke-linecap="round" stroke-linejoin="round"/>
<path d="M382.411 34.1423V36.4251C381.179 36.4251 380.181 35.4268 380.181 34.1954C380.181 34.127 380.184 34.0594 380.19 33.9925C380.315 32.6079 382.411 32.7521 382.411 34.1423Z" fill="#F0F8FF"/>
<path d="M382.411 36.425C381.179 36.425 380.181 35.4267 380.181 34.1953" stroke="#07294A" stroke-width="0.378" stroke-linecap="round" stroke-linejoin="round"/>
<path d="M391.491 38.9681C390.893 38.9681 390.319 38.7304 389.895 38.3072C389.472 37.8839 389.234 37.3099 389.234 36.7114" stroke="#79C9E7" stroke-width="0.378" stroke-linecap="round" stroke-linejoin="round"/>
<path d="M384.693 46.7539L381.36 47.5731" stroke="#07294A" stroke-width="0.378" stroke-linecap="round" stroke-linejoin="round"/>
<path d="M392.931 37.3525L391.491 37.7066" stroke="#07294A" stroke-width="0.378" stroke-linecap="round" stroke-linejoin="round"/>
<path d="M365.687 70.6346V105.472L415.039 117.602V78.8025C415.039 65.0449 405.646 53.0647 392.286 49.781H392.286C385.879 48.2063 379.104 49.6641 373.912 53.7348C368.719 57.8054 365.687 64.0369 365.687 70.6346V70.6346Z" fill="#79C9E7"/>
<path d="M407.013 107.445C407.013 107.445 413.085 206.54 395.937 253.458" stroke="#07294A" stroke-width="0.378" stroke-linecap="round" stroke-linejoin="round"/>
<path d="M384.373 30.7739C384.373 30.7739 382.518 37.5396 384.699 38.9682C386.879 40.3968 389.734 36.1018 394.303 38.4296C399.826 41.2434 397.314 31.7996 397.314 31.7996" stroke="#07294A" stroke-width="0.378" stroke-linecap="round" stroke-linejoin="round"/>
<path d="M382.411 37.0321C382.411 37.0321 379.741 45.2156 386.332 47.5733C392.923 49.931 401.499 46.1004 398.735 36.7114" stroke="#07294A" stroke-width="0.378" stroke-linecap="round" stroke-linejoin="round"/>
<path d="M383.396 30.7738C383.396 30.7738 388.302 32.5764 392.931 27.2129C392.931 27.2129 394.828 29.876 397.884 29.6974" stroke="#07294A" stroke-width="0.378" stroke-linecap="round" stroke-linejoin="round"/>
<path d="M398.363 32.2827C398.363 32.2827 401.79 20.8599 392.931 19.8677C384.072 18.8755 380.291 24.4158 378.732 28.6681C377.172 32.9205 379.182 37.3909 381.296 39.2663" stroke="#07294A" stroke-width="0.378" stroke-linecap="round" stroke-linejoin="round"/>
<path d="M373.741 53.8726C373.741 53.8726 348.363 77.2887 349.967 106.362C351.572 135.435 409.718 111.374 411.522 101.75C413.327 92.126 401.997 97.9406 401.997 97.9406C401.997 97.9406 403.099 93.4293 401.997 94.2313C400.894 95.0333 398.182 98.0409 398.182 98.0409L373.026 98.3417L378.178 84.1058" stroke="#07294A" stroke-width="0.378" stroke-linecap="round" stroke-linejoin="round"/>
<path d="M394.427 98.086C394.427 98.086 394.294 80.497 415.038 76.6874C415.038 76.6874 411.517 71.4494 413.575 69.557C414.813 68.4188 416.775 69.8694 418.142 71.2063C418.891 71.9368 420.07 71.9847 420.875 71.3174C421.654 70.6804 422.866 70.2262 424.655 70.8226C426.009 71.2738 426.537 72.021 426.669 72.7787C426.835 73.8952 427.865 74.6724 428.984 74.5244C430.484 74.305 431.822 74.5299 430.971 76.3866C429.317 79.9957 426.159 79.9957 426.159 79.9957C426.159 79.9957 448.114 126.088 402.7 120.26" stroke="#07294A" stroke-width="0.378" stroke-linecap="round" stroke-linejoin="round"/>
<path d="M430.27 109.561C430.27 109.561 431.422 124.508 423.753 129.32" stroke="#07294A" stroke-width="0.378" stroke-linecap="round" stroke-linejoin="round"/>
<path d="M779.251 188.305L782.266 249.513L777.355 258.634H807.193L810.608 181.974" fill="#DFEFFF"/>
<path d="M784.823 104.26L820.127 101.841L826.547 104.455L829.564 258.634H796.773L800.24 252.421L784.823 104.26Z" fill="#F0F8FF"/>
<path d="M827.825 169.762L792.072 173.922L794.555 197.791C803.598 199.494 815.775 200.797 828.401 199.239L827.825 169.762Z" fill="#07294A"/>
<path d="M779.529 193.965C779.529 193.965 792.637 198.643 809.818 199.719L810.608 181.974L779.25 188.305L779.529 193.965Z" fill="#07294A"/>
<path d="M796.773 258.634L800.24 252.421L784.823 104.259" stroke="#07294A" stroke-width="0.378" stroke-linecap="round" stroke-linejoin="round"/>
<path d="M792.253 30.1127V35.6853C792.253 39.9942 795.195 43.7465 799.379 44.7749L808.247 46.9545V25.1668L800.873 23.3545C798.797 22.8442 796.601 23.3166 794.919 24.6358C793.236 25.955 792.253 27.9745 792.253 30.1127V30.1127Z" fill="#F0F8FF"/>
<path d="M792.253 35.6855C792.253 39.9945 795.195 43.7467 799.379 44.7752L808.247 46.9547" stroke="#07294A" stroke-width="0.378" stroke-linecap="round" stroke-linejoin="round"/>
<path d="M801.288 34.5794C801.524 34.5794 801.715 34.3879 801.715 34.1518C801.715 33.9156 801.524 33.7241 801.288 33.7241C801.052 33.7241 800.86 33.9156 800.86 34.1518C800.86 34.3879 801.052 34.5794 801.288 34.5794Z" fill="#07294A"/>
<path d="M794.719 34.5794C794.956 34.5794 795.147 34.3879 795.147 34.1518C795.147 33.9156 794.956 33.7241 794.719 33.7241C794.483 33.7241 794.292 33.9156 794.292 34.1518C794.292 34.3879 794.483 34.5794 794.719 34.5794Z" fill="#07294A"/>
<path d="M796.647 36.703V30.1128H793.345" stroke="#07294A" stroke-width="0.378" stroke-linecap="round" stroke-linejoin="round"/>
<path d="M802.093 30.1127H798.792" stroke="#07294A" stroke-width="0.378" stroke-linecap="round" stroke-linejoin="round"/>
<path d="M807.193 33.4893V35.7779C808.428 35.7779 809.429 34.7771 809.429 33.5426C809.429 33.474 809.426 33.4062 809.42 33.3391C809.294 31.9511 807.193 32.0956 807.193 33.4893Z" fill="#F0F8FF"/>
<path d="M807.193 35.7778C808.428 35.7778 809.429 34.777 809.429 33.5425" stroke="#07294A" stroke-width="0.378" stroke-linecap="round" stroke-linejoin="round"/>
<path d="M798.452 37.4731C798.729 37.7507 799.106 37.9067 799.498 37.9067C799.891 37.9067 800.267 37.7507 800.545 37.4731" stroke="#79C9E7" stroke-width="0.378" stroke-linecap="round" stroke-linejoin="round"/>
<path d="M796.646 36.708L798.09 37.0629" stroke="#07294A" stroke-width="0.378" stroke-linecap="round" stroke-linejoin="round"/>
<path d="M826.832 70.0739V104.999L777.355 117.16V78.2624C777.355 64.4701 786.771 52.4597 800.165 49.1678H800.165C806.588 47.5891 813.38 49.0507 818.586 53.1315C823.791 57.2124 826.832 63.4596 826.832 70.0739V70.0739Z" fill="#79C9E7"/>
<path d="M791.914 33.1007C797.04 33.0253 800.25 26.8442 800.25 26.8442C800.25 26.8442 802.522 33.3504 807.646 32.5848" stroke="#07294A" stroke-width="0.378" stroke-linecap="round" stroke-linejoin="round"/>
<path d="M794.72 42.2215L784.678 47.5734C784.678 47.5734 784.077 15.5767 805.668 20.2608C805.736 20.2756 805.806 20.2888 805.874 20.3003C806.758 20.4484 813.802 21.8898 813.096 30.1126C812.652 35.2698 808.247 37.9064 808.247 37.9064" stroke="#07294A" stroke-width="0.378" stroke-linecap="round" stroke-linejoin="round"/>
<path d="M787.919 97.5945C787.919 97.5945 788.052 79.9611 767.255 76.1419C767.255 76.1419 770.785 70.8908 768.722 68.9936C767.482 67.8525 765.514 69.3068 764.144 70.6471C763.393 71.3794 762.211 71.4274 761.404 70.7584C760.623 70.1198 759.408 69.6645 757.614 70.2624C756.257 70.7147 755.727 71.4638 755.595 72.2234C755.429 73.3427 754.396 74.1219 753.274 73.9734C751.771 73.7535 750.429 73.979 751.282 75.8404C752.941 79.4586 756.107 79.4586 756.107 79.4586C756.107 79.4586 734.096 125.667 779.625 119.824" stroke="#07294A" stroke-width="0.378" stroke-linecap="round" stroke-linejoin="round"/>
<path d="M826.832 105L791.914 106.595L777.355 117.16V194.034C777.355 194.034 845.584 192.527 865.182 174.134L826.832 105Z" fill="#79C9E7"/>
<path d="M820.111 54.4487C820.111 54.4487 836.585 68.8476 834.315 94.0495C832.045 119.251 798.442 121.976 774.602 107.672C750.763 93.3684 774.602 96.32 774.602 96.32C774.602 96.32 774.602 93.1414 775.511 93.3684C776.419 93.5954 779.143 97.2281 779.143 97.2281L814.789 93.8225L809.429 79.0646" stroke="#07294A" stroke-width="0.378" stroke-linecap="round" stroke-linejoin="round"/>
<path d="M772.775 77.6313C772.775 77.6313 779.435 63.5186 785.675 57.5435" stroke="#07294A" stroke-width="0.378" stroke-linecap="round" stroke-linejoin="round"/>
<path d="M609.528 194.915V188.37L603.488 193.908L601.475 176.541L585.618 187.867L583.605 180.317L578.068 185.854V176.793L571.272 184.847L565.232 166.726L557.681 185.363L546.607 171.507L538.301 190.384V181.323L533.519 190.132L530.247 178.303L521.186 192.398L507.344 175.031L503.065 192.146L499.038 187.364L496.018 199.218H612.297L613.304 194.663L609.528 194.915V194.915Z" fill="#F6F6F6"/>
<path d="M489.462 199.218H619.859" stroke="#07294A" stroke-width="0.463751"/>
<path d="M628.492 109.232L587.469 125.897V19.4938L628.492 2.82812V109.232V109.232Z" fill="#F0F8FF"/>
<path d="M669.515 125.897L628.492 109.232V2.82812L669.515 19.4938V125.897V125.897Z" fill="#DFEFFF"/>
<path d="M628.492 109.232L587.469 125.898" stroke="#07294A" stroke-width="0.463751"/>
<path d="M669.515 125.898L628.492 109.232" stroke="#07294A" stroke-width="0.463751"/>
<path d="M710.538 109.232L669.515 125.897V19.4938L710.538 2.82812V109.232V109.232Z" fill="#79C9E7"/>
<path d="M584.258 193.599C584.258 193.599 579.752 103.027 575.322 78.4839L546.091 82.4116L561.326 198.21H587.147L584.258 193.599Z" fill="#DFEFFF"/>
<path d="M575.419 139.43C572.214 133.878 562.81 133.145 553.309 137.28L556.914 164.684C558.906 163.951 560.831 163.049 562.667 161.986C573.344 155.822 579.053 145.723 575.419 139.43Z" fill="#07294A"/>
<path d="M536.765 87.9609C536.765 87.9609 533.48 122.237 553.535 131.4L512.267 154.661L521.077 176.159L524.249 168.758C524.249 168.758 576.057 160.652 578.876 140.211C581.696 119.77 562.575 81.6172 562.575 81.6172" fill="#F0F8FF"/>
<path d="M524.25 168.758C524.25 168.758 576.057 160.652 578.877 140.211C581.696 119.77 562.575 81.6172 562.575 81.6172" stroke="#07294A" stroke-width="0.463751"/>
<path d="M550.112 20.1257V30.187L562.576 33.2504V16.2714L550.112 13.208V20.1257V20.1257Z" fill="#F0F8FF"/>
<path d="M557.152 23.6065C557.336 23.6065 557.485 23.4573 557.485 23.2732C557.485 23.0891 557.336 22.9399 557.152 22.9399C556.968 22.9399 556.819 23.0891 556.819 23.2732C556.819 23.4573 556.968 23.6065 557.152 23.6065Z" fill="#07294A"/>
<path d="M552.033 23.6065C552.218 23.6065 552.367 23.4573 552.367 23.2732C552.367 23.0891 552.218 22.9399 552.033 22.9399C551.849 22.9399 551.7 23.0891 551.7 23.2732C551.7 23.4573 551.849 23.6065 552.033 23.6065Z" fill="#07294A"/>
<path d="M553.535 25.2613V20.1255H550.962" stroke="#07294A" stroke-width="0.463751"/>
<path d="M557.78 20.1259H555.207" stroke="#07294A" stroke-width="0.463751"/>
<path d="M561.754 22.757V24.5405C562.216 24.5405 562.659 24.357 562.986 24.0303C563.313 23.7036 563.496 23.2605 563.496 22.7985C563.496 22.7451 563.494 22.6922 563.489 22.64C563.392 21.5583 561.754 21.6709 561.754 22.757Z" fill="#F0F8FF"/>
<path d="M561.754 24.5408C562.216 24.5408 562.659 24.3572 562.986 24.0306C563.313 23.7039 563.496 23.2608 563.496 22.7988" stroke="#07294A" stroke-width="0.463751"/>
<path d="M554.661 26.5277C555.634 26.5277 556.424 25.7384 556.424 24.7646" stroke="#79C9E7" stroke-width="0.463751" stroke-linecap="round" stroke-linejoin="round"/>
<path d="M550.111 30.187L562.575 33.2504" stroke="#07294A" stroke-width="0.463751"/>
<path d="M553.535 25.2654L554.66 25.542" stroke="#07294A" stroke-width="0.463751" stroke-linecap="round"/>
<path d="M550.111 20.1258L549.215 11.353L564.136 12.8803L562.625 21.8837" stroke="#07294A" stroke-width="0.463751"/>
<path d="M550.962 15.21C550.962 15.21 554.796 18.6953 559.926 17.9904C559.926 17.9904 560.254 21.3974 561.754 22.1807" stroke="#07294A" stroke-width="0.463751"/>
<path d="M575.322 51.2672V78.4841L536.766 87.9606V57.6484C536.766 46.9002 544.103 37.5406 554.541 34.9753H554.541C559.546 33.745 564.84 34.884 568.896 38.0642C572.953 41.2443 575.322 46.1127 575.322 51.2672L575.322 51.2672Z" fill="#79C9E7"/>
<path d="M544.219 40.5454C544.219 40.5454 527.892 55.1154 528.127 74.8526C528.324 91.3831 567.198 77.7518 579.825 72.8861C582.302 71.9304 584.262 69.9733 585.22 67.4965L586.624 63.8709L590.628 62.2427V60.0497L551.705 65.0623L556.493 53.7839" stroke="#07294A" stroke-width="0.463751"/>
<path d="M538.132 82.7357C541.157 84.1829 545.26 85.074 549.782 85.074C558.491 85.074 565.655 81.7751 566.529 77.5454C557.209 80.478 546.022 83.2405 538.132 82.7357Z" fill="#07294A"/>
<path d="M589.775 58.9776C592.938 52.3942 598.137 42.1695 600.654 40.5456C602.879 39.1005 605.534 38.4652 608.173 38.7462V40.5456L605.353 42.1923C605.353 42.1923 607.233 47.3616 603.473 49.5546C603.473 49.5546 602.622 97.7018 575.322 78.4842" stroke="#07294A" stroke-width="0.463751"/>
<path d="M573.045 42.8135L584.644 60.7272" stroke="#07294A" stroke-width="0.463751"/>
<path d="M628.492 137.082C638.278 137.082 646.21 129.149 646.21 119.364C646.21 109.578 638.278 101.645 628.492 101.645C618.706 101.645 610.773 109.578 610.773 119.364C610.773 129.149 618.706 137.082 628.492 137.082Z" fill="#79C9E7"/>
<path d="M646.21 119.364C646.21 129.149 638.277 137.082 628.492 137.082" stroke="#07294A" stroke-width="0.463751"/>
<path d="M614.98 119.363C614.98 115.78 616.404 112.343 618.938 109.809C621.472 107.276 624.908 105.852 628.492 105.852" stroke="white" stroke-width="0.463751"/>
<path d="M628.492 137.082V199.218" stroke="#07294A" stroke-width="0.463751"/>
<path d="M608.631 199.218H648.353" stroke="#07294A" stroke-width="0.463751"/>
</g>
<defs>
<linearGradient id="paint0_linear_994_62066" x1="34.814" y1="100" x2="1165.18" y2="100" gradientUnits="userSpaceOnUse">
<stop stop-color="#FFF2C5"/>
<stop offset="0.2" stop-color="#FFF4BF"/>
<stop offset="0.4" stop-color="#FFF7BA"/>
<stop offset="0.6" stop-color="#FFF9B4"/>
<stop offset="0.8" stop-color="#FFFCAF"/>
<stop offset="1" stop-color="#FDFFAA"/>
</linearGradient>
<clipPath id="clip0_994_62066">
<rect width="1200" height="200" fill="white"/>
</clipPath>
</defs>
</svg>
