<svg width="252" height="159" viewBox="0 0 252 159" fill="none" xmlns="http://www.w3.org/2000/svg">
<g clip-path="url(#clip0_288_3415)">
<rect width="252" height="158" transform="translate(0 0.102539)" fill="white"/>
<path d="M183.348 45.8965L162.068 44.4913C160.462 53.726 167.455 81.5633 167.455 81.5633L184.151 67.3776C176.121 52.9231 183.348 45.8965 183.348 45.8965Z" fill="#79C9E7"/>
<path d="M154.357 92.2043C154.357 92.2043 199.333 183.76 142.989 187.951C86.6457 192.142 70.8137 143.714 70.8137 143.714L63.3633 140.206L86.6457 124.622L118.242 140.206L128.623 93.3346" fill="#79C9E7"/>
<path d="M130.484 128.709C126.511 128.709 122.766 130.86 119.471 134.66L118.242 140.206L116.205 139.201C110.381 148.838 106.611 164.224 106.611 181.558C106.611 181.783 106.614 182.006 106.615 182.23C116.257 186.535 128.233 189.048 142.99 187.951C147.339 187.627 151.082 186.782 154.291 185.5C154.335 184.198 154.357 182.884 154.357 181.558C154.357 152.37 143.669 128.709 130.484 128.709Z" fill="#07294A"/>
<path d="M146.322 94.1793C146.322 94.1793 152.401 193.399 135.231 240.376L138.818 245.646H108.28C108.28 245.646 104.943 119.444 104.943 92.2043L146.322 94.1793Z" fill="#79C9E7"/>
<path d="M136.61 17.4117V30.3064L120.637 34.2323V12.4719L136.61 8.54602V17.4117Z" fill="#F0F8FF"/>
<path d="M127.585 21.873C127.821 21.873 128.012 21.6818 128.012 21.4459C128.012 21.21 127.821 21.0188 127.585 21.0188C127.349 21.0188 127.158 21.21 127.158 21.4459C127.158 21.6818 127.349 21.873 127.585 21.873Z" fill="#07294A"/>
<path d="M134.146 21.873C134.382 21.873 134.573 21.6818 134.573 21.4459C134.573 21.21 134.382 21.0188 134.146 21.0188C133.91 21.0188 133.719 21.21 133.719 21.4459C133.719 21.6818 133.91 21.873 134.146 21.873Z" fill="#07294A"/>
<path d="M132.223 23.9937V17.4117H135.52" stroke="#07294A" stroke-width="0.378" stroke-linecap="round" stroke-linejoin="round"/>
<path d="M126.781 17.4117H130.079" stroke="#07294A" stroke-width="0.378" stroke-linecap="round" stroke-linejoin="round"/>
<path d="M121.688 20.7842V23.0699C120.455 23.0699 119.455 22.0704 119.455 20.8374C119.455 20.7689 119.458 20.7012 119.464 20.6342C119.589 19.2479 121.688 19.3922 121.688 20.7842Z" fill="#F0F8FF"/>
<path d="M121.688 23.0699C120.455 23.0699 119.455 22.0704 119.455 20.8374" stroke="#07294A" stroke-width="0.378" stroke-linecap="round" stroke-linejoin="round"/>
<path d="M130.779 25.6164C130.18 25.6164 129.605 25.3783 129.181 24.9546C128.758 24.5308 128.52 23.9561 128.52 23.3568" stroke="#79C9E7" stroke-width="0.378" stroke-linecap="round" stroke-linejoin="round"/>
<path d="M136.611 30.3063L120.637 34.2324" stroke="#07294A" stroke-width="0.378" stroke-linecap="round" stroke-linejoin="round"/>
<path d="M132.221 23.999L130.779 24.3534" stroke="#07294A" stroke-width="0.378" stroke-linecap="round" stroke-linejoin="round"/>
<path d="M122.268 20.1494C122.268 20.1494 129.796 16.7365 132.004 13.8255V15.8331C132.004 15.8331 136.07 14.3274 137.073 12.5708" stroke="#07294A" stroke-width="0.378" stroke-linecap="round" stroke-linejoin="round"/>
<path d="M136.609 16.0841C136.609 16.0841 140.135 14.5784 139.182 11.3161C138.228 8.05383 130.779 5.54437 125.229 7.10023C125.229 7.10023 108.915 10.2872 120.635 27.3014" stroke="#07294A" stroke-width="0.378" stroke-linecap="round" stroke-linejoin="round"/>
<path d="M154.357 57.3229V92.2043L104.943 104.349V65.5011C104.943 51.7262 114.347 39.7309 127.724 36.4431H127.724C134.139 34.8664 140.923 36.3261 146.122 40.4018C151.321 44.4776 154.357 50.7169 154.357 57.3229V57.3229Z" fill="#F0F8FF"/>
<path d="M108.28 245.646C108.28 245.646 104.943 119.444 104.943 92.2043" stroke="#07294A" stroke-width="0.378" stroke-linecap="round" stroke-linejoin="round"/>
<path d="M146.321 94.1794C146.321 94.1794 152.4 193.399 135.23 240.376L138.817 245.646" stroke="#07294A" stroke-width="0.378" stroke-linecap="round" stroke-linejoin="round"/>
<path d="M117.361 41.23C117.361 41.23 95.617 53.726 99.4314 80.6274C103.246 107.529 154.64 97.491 167.287 82.635L168.291 76.2108C168.291 76.2108 175.432 67.4698 171.359 69.3308C167.287 71.1918 126.153 74.2032 126.153 74.2032L126.781 64.7676" stroke="#07294A" stroke-width="0.378" stroke-linecap="round" stroke-linejoin="round"/>
<path d="M148.322 42.3837C148.322 42.3837 161.21 52.5127 164.852 70.5852" stroke="#07294A" stroke-width="0.378" stroke-linecap="round" stroke-linejoin="round"/>
<path d="M156.586 97.4316C156.586 97.4316 176.321 102.209 184.954 79.8244C192.19 61.0615 186.56 52.1199 183.95 51.5177C181.34 50.9154 180.537 54.529 180.537 54.529" stroke="#07294A" stroke-width="0.378" stroke-linecap="round" stroke-linejoin="round"/>
</g>
<defs>
<clipPath id="clip0_288_3415">
<rect width="252" height="158" fill="white" transform="translate(0 0.102539)"/>
</clipPath>
</defs>
</svg>
