<svg width="252" height="159" viewBox="0 0 252 159" fill="none" xmlns="http://www.w3.org/2000/svg">
<g clip-path="url(#clip0_288_3383)">
<rect width="252" height="158" transform="translate(0 0.102539)" fill="white"/>
<path d="M91.2533 105.74C91.2533 105.74 68.7646 163 75.0329 185.387C81.3012 207.774 147.566 161.657 147.566 161.657L156.521 166.134L145.328 136.136L106.657 145.986L113.92 85.5416" fill="#79C9E7"/>
<path d="M123.662 19.561V32.3431L107.828 36.235V14.6646L123.662 10.7727V19.561Z" fill="#F0F8FF"/>
<path d="M114.718 23.9836C114.952 23.9836 115.142 23.794 115.142 23.5602C115.142 23.3264 114.952 23.1368 114.718 23.1368C114.484 23.1368 114.295 23.3264 114.295 23.5602C114.295 23.794 114.484 23.9836 114.718 23.9836Z" fill="#07294A"/>
<path d="M121.22 23.9836C121.454 23.9836 121.644 23.794 121.644 23.5602C121.644 23.3264 121.454 23.1368 121.22 23.1368C120.986 23.1368 120.797 23.3264 120.797 23.5602C120.797 23.794 120.986 23.9836 121.22 23.9836Z" fill="#07294A"/>
<path d="M119.312 26.0856V19.5612H122.581" stroke="#07294A" stroke-width="0.378" stroke-linecap="round" stroke-linejoin="round"/>
<path d="M113.92 19.5611H117.189" stroke="#07294A" stroke-width="0.378" stroke-linecap="round" stroke-linejoin="round"/>
<path d="M108.871 22.9043V25.17C107.649 25.17 106.658 24.1793 106.658 22.957C106.658 22.8891 106.661 22.822 106.667 22.7556C106.791 21.3814 108.871 21.5245 108.871 22.9043Z" fill="#F0F8FF"/>
<path d="M108.871 25.17C107.649 25.17 106.658 24.1792 106.658 22.957" stroke="#07294A" stroke-width="0.378" stroke-linecap="round" stroke-linejoin="round"/>
<path d="M117.882 27.6942C116.645 27.6942 115.643 26.6914 115.643 25.4543" stroke="#79C9E7" stroke-width="0.378" stroke-linecap="round" stroke-linejoin="round"/>
<path d="M123.662 32.3431L107.828 36.235" stroke="#07294A" stroke-width="0.378" stroke-linecap="round" stroke-linejoin="round"/>
<path d="M119.312 26.0909L117.883 26.4423" stroke="#07294A" stroke-width="0.378" stroke-linecap="round" stroke-linejoin="round"/>
<path d="M109.242 19.5612C109.242 19.5612 116.448 18.5653 117.882 15.8041L118.597 18.0429C118.597 18.0429 121.499 17.1474 122.581 15.1324L123.662 18.1921" stroke="#07294A" stroke-width="0.378" stroke-linecap="round" stroke-linejoin="round"/>
<path d="M123.661 21.028C123.661 21.028 132.65 6.625 116.452 8.88687L118.597 6.625C118.597 6.625 113.57 7.44589 110.884 10.3563C110.884 10.3563 100.269 12.424 106.994 22.0618" stroke="#07294A" stroke-width="0.378" stroke-linecap="round" stroke-linejoin="round"/>
<path d="M140.237 59.1241V93.701L91.2539 105.74V67.2309C91.2539 53.5762 100.576 41.6856 113.836 38.4265H113.836C120.195 36.8635 126.92 38.3105 132.073 42.3507C137.227 46.3909 140.237 52.5757 140.237 59.1241V59.1241Z" fill="#F0F8FF"/>
<path d="M101.011 103.342C101.011 103.342 93.1928 194.013 110.213 240.58L106.657 245.803H136.929C136.929 245.803 140.236 120.702 140.236 93.7009" fill="#79C9E7"/>
<path d="M101.011 103.342C101.011 103.342 93.1928 194.013 110.213 240.58" stroke="#07294A" stroke-width="0.378" stroke-linecap="round" stroke-linejoin="round"/>
<path d="M132.133 42.3987C132.133 42.3987 137.786 45.8405 149.41 63.3041C149.41 63.3041 171.756 38.5526 176.93 37.8002C182.104 37.0478 187.278 37.8002 187.278 37.8002V40.6299L183.497 42.0229C183.497 42.0229 186.283 47.9931 180.114 50.3811C180.114 50.3811 160.372 122.6 130.322 89.3658" stroke="#07294A" stroke-width="0.378" stroke-linecap="round" stroke-linejoin="round"/>
<path d="M100.366 45.8406C100.366 45.8406 70.8599 66.3015 65.2878 86.799C59.7156 107.296 113.199 95.3562 113.92 94.5602C114.641 93.7642 117.883 85.5417 117.883 85.5417L121.644 83.4159V79.8339L87.4768 80.2319" stroke="#07294A" stroke-width="0.378" stroke-linecap="round" stroke-linejoin="round"/>
<path d="M91.2539 100.804C94.2036 102.018 97.365 102.635 100.555 102.62C111.144 102.62 119.728 96.1602 119.728 88.192C119.726 87.0411 119.545 85.8976 119.191 84.8025L117.883 85.5416C117.883 85.5416 114.641 93.7641 113.92 94.5601C113.597 94.9165 102.696 97.5067 91.2539 98.4193V100.804Z" fill="#07294A"/>
</g>
<defs>
<clipPath id="clip0_288_3383">
<rect width="252" height="158" fill="white" transform="translate(0 0.102539)"/>
</clipPath>
</defs>
</svg>
