<svg width="252" height="159" viewBox="0 0 252 159" fill="none" xmlns="http://www.w3.org/2000/svg">
<g clip-path="url(#clip0_536_61685)">
<path d="M165.11 239.632C166.464 192.716 145.484 104.657 145.484 104.657L116.83 84.9003V176.927L143.827 245.775H169.089L165.11 239.632Z" fill="#79C9E7"/>
<path d="M145.484 177.128C145.484 142.122 135.072 113.744 122.228 113.744C120.299 113.777 118.422 114.375 116.83 115.464V176.927L136.518 227.136C141.975 215.537 145.484 197.451 145.484 177.128Z" fill="#07294A"/>
<path d="M136.973 94.4995C136.973 94.4995 143.044 193.595 125.896 240.513L129.478 245.776H98.9785C98.9785 245.776 95.6465 119.732 95.6465 92.527L136.973 94.4995Z" fill="#79C9E7"/>
<path d="M128.786 17.8283V30.7068L112.832 34.6277V12.8947L128.786 8.97375V17.8283Z" fill="#F0F8FF"/>
<path d="M119.774 22.2839C120.01 22.2839 120.201 22.0929 120.201 21.8574C120.201 21.6218 120.01 21.4308 119.774 21.4308C119.539 21.4308 119.348 21.6218 119.348 21.8574C119.348 22.0929 119.539 22.2839 119.774 22.2839Z" fill="#07294A"/>
<path d="M126.325 22.2839C126.561 22.2839 126.752 22.0929 126.752 21.8574C126.752 21.6218 126.561 21.4308 126.325 21.4308C126.089 21.4308 125.898 21.6218 125.898 21.8574C125.898 22.0929 126.089 22.2839 126.325 22.2839Z" fill="#07294A"/>
<path d="M124.404 24.402V17.8284H127.698" stroke="#07294A" stroke-width="0.378" stroke-linecap="round" stroke-linejoin="round"/>
<path d="M118.971 17.8284H122.264" stroke="#07294A" stroke-width="0.378" stroke-linecap="round" stroke-linejoin="round"/>
<path d="M113.884 21.1966V23.4794C112.653 23.4794 111.654 22.4812 111.654 21.2497C111.654 21.1813 111.657 21.1137 111.663 21.0468C111.788 19.6622 113.884 19.8064 113.884 21.1966Z" fill="#F0F8FF"/>
<path d="M113.884 23.4794C112.653 23.4794 111.654 22.4812 111.654 21.2498" stroke="#07294A" stroke-width="0.378" stroke-linecap="round" stroke-linejoin="round"/>
<path d="M122.964 26.0226C122.365 26.0226 121.791 25.7848 121.368 25.3616C120.945 24.9384 120.707 24.3644 120.707 23.7659" stroke="#79C9E7" stroke-width="0.378" stroke-linecap="round" stroke-linejoin="round"/>
<path d="M116.831 33.6449L112.832 34.6277" stroke="#07294A" stroke-width="0.378" stroke-linecap="round" stroke-linejoin="round"/>
<path d="M124.403 24.4073L122.963 24.7614" stroke="#07294A" stroke-width="0.378" stroke-linecap="round" stroke-linejoin="round"/>
<path d="M114.512 23.4794C114.512 23.4794 113.159 34.199 121.279 34.3995C129.4 34.6 130.076 29.1362 128.785 22.5697" stroke="#07294A" stroke-width="0.378" stroke-linecap="round" stroke-linejoin="round"/>
<path d="M112.041 20.3071C112.041 20.3071 109.048 11.7425 113.309 8.23363C117.569 4.72479 130.853 7.73236 130.352 11.1911C129.85 14.6498 117.87 14.9004 117.87 14.9004C117.87 14.9004 117.619 18.2087 115.915 18.7601C115.915 18.7601 115.715 22.0047 116.416 23.7659" stroke="#07294A" stroke-width="0.378" stroke-linecap="round" stroke-linejoin="round"/>
<path d="M96.1328 57.6894V92.527L145.485 104.657V65.8573C145.485 52.0997 136.093 40.1195 122.733 36.8358H122.732C116.325 35.2611 109.55 36.7189 104.358 40.7896C99.1657 44.8602 96.1328 51.0917 96.1328 57.6894V57.6894Z" fill="#F0F8FF"/>
<path d="M134.426 77.8221L138.016 64.7759L151.456 66.43L145.485 86.5808L132.959 84.9004" fill="#79C9E7"/>
<path d="M136.973 94.4995C136.973 94.4995 143.045 193.595 125.896 240.513" stroke="#07294A" stroke-width="0.378" stroke-linecap="round" stroke-linejoin="round"/>
<path d="M103.271 41.7031C103.271 41.7031 78.4218 69.5503 83.6349 92.5269C88.848 115.504 141.733 94.5985 142.96 84.9003C144.187 75.2022 134.764 81.4178 134.764 81.4178C134.764 81.4178 135.359 76.2298 133.555 78.2349C131.751 80.2399 130.384 81.8515 130.384 81.8515L109.099 79.4127L114.428 67.583" stroke="#07294A" stroke-width="0.378" stroke-linecap="round" stroke-linejoin="round"/>
<path d="M151.456 63.4702C146.493 65.9241 145.485 61.9187 145.485 61.9187C144.627 62.2194 141.902 65.2542 142.207 61.9187C142.344 60.0134 143.651 58.3941 145.485 57.8584C145.485 57.8584 158.523 54.5815 159.576 70.4308C160.629 86.28 153.102 96.4005 145.485 93.6485" stroke="#07294A" stroke-width="0.378" stroke-linecap="round" stroke-linejoin="round"/>
<path d="M133.848 42.189C139.477 46.2685 144.149 51.5254 147.541 57.5941" stroke="#07294A" stroke-width="0.378" stroke-linecap="round" stroke-linejoin="round"/>
</g>
<defs>
<clipPath id="clip0_536_61685">
<rect width="252" height="158" fill="white" transform="translate(0 0.102539)"/>
</clipPath>
</defs>
</svg>
