<svg width="514" height="482" viewBox="0 0 514 482" fill="none" xmlns="http://www.w3.org/2000/svg">
<g clip-path="url(#clip0_560_11475)">
<path fill-rule="evenodd" clip-rule="evenodd" d="M508.5 2.5C508.5 3.8799 509.62 5 511 5C512.382 5 513.5 3.8799 513.5 2.5C513.5 1.11838 512.382 0 511 0C509.62 0 508.5 1.11838 508.5 2.5Z" fill="#FFE585"/>
<path fill-rule="evenodd" clip-rule="evenodd" d="M462.5 2.5C462.5 3.8799 463.62 5 465 5C466.382 5 467.5 3.8799 467.5 2.5C467.5 1.11838 466.382 0 465 0C463.62 0 462.5 1.11838 462.5 2.5Z" fill="#FFE585"/>
<path fill-rule="evenodd" clip-rule="evenodd" d="M416.5 2.5C416.5 3.8799 417.62 5 419 5C420.382 5 421.5 3.8799 421.5 2.5C421.5 1.11838 420.382 0 419 0C417.62 0 416.5 1.11838 416.5 2.5Z" fill="#FFE585"/>
<path fill-rule="evenodd" clip-rule="evenodd" d="M370.5 2.5C370.5 3.8799 371.62 5 373.001 5C374.38 5 375.5 3.8799 375.5 2.5C375.5 1.11838 374.38 0 373.001 0C371.62 0 370.5 1.11838 370.5 2.5Z" fill="#FFE585"/>
<path fill-rule="evenodd" clip-rule="evenodd" d="M323.5 2.5C323.5 3.8799 324.62 5 326.001 5C327.38 5 328.5 3.8799 328.5 2.5C328.5 1.11838 327.38 0 326.001 0C324.62 0 323.5 1.11838 323.5 2.5Z" fill="#FFE585"/>
<path fill-rule="evenodd" clip-rule="evenodd" d="M277.5 2.5C277.5 3.8799 278.618 5 280 5C281.38 5 282.5 3.8799 282.5 2.5C282.5 1.11838 281.38 0 280 0C278.618 0 277.5 1.11838 277.5 2.5Z" fill="#FFE585"/>
<path fill-rule="evenodd" clip-rule="evenodd" d="M231.5 2.5C231.5 3.8799 232.618 5 234 5C235.38 5 236.5 3.8799 236.5 2.5C236.5 1.11838 235.38 0 234 0C232.618 0 231.5 1.11838 231.5 2.5Z" fill="#FFE585"/>
<path fill-rule="evenodd" clip-rule="evenodd" d="M185.5 2.5C185.5 3.8799 186.618 5 188 5C189.382 5 190.5 3.8799 190.5 2.5C190.5 1.11838 189.382 0 188 0C186.618 0 185.5 1.11838 185.5 2.5Z" fill="#FFE585"/>
<path fill-rule="evenodd" clip-rule="evenodd" d="M139.5 2.5C139.5 3.8799 140.62 5 142 5C143.382 5 144.5 3.8799 144.5 2.5C144.5 1.11838 143.382 0 142 0C140.62 0 139.5 1.11838 139.5 2.5Z" fill="#FFE585"/>
<path fill-rule="evenodd" clip-rule="evenodd" d="M92.5 2.5C92.5 3.8799 93.6201 5 95 5C96.3816 5 97.5 3.8799 97.5 2.5C97.5 1.11838 96.3816 0 95 0C93.6201 0 92.5 1.11838 92.5 2.5Z" fill="#FFE585"/>
<path fill-rule="evenodd" clip-rule="evenodd" d="M46.5 2.5C46.5 3.8799 47.6201 5 49 5C50.3816 5 51.5 3.8799 51.5 2.5C51.5 1.11838 50.3816 0 49 0C47.6201 0 46.5 1.11838 46.5 2.5Z" fill="#FFE585"/>
<path fill-rule="evenodd" clip-rule="evenodd" d="M0.5 2.5C0.5 3.8799 1.6201 5 3 5C4.38162 5 5.5 3.8799 5.5 2.5C5.5 1.11838 4.38162 0 3 0C1.6201 0 0.5 1.11838 0.5 2.5Z" fill="#FFE585"/>
<path fill-rule="evenodd" clip-rule="evenodd" d="M508.5 55.5C508.5 56.8799 509.62 58 511 58C512.382 58 513.5 56.8799 513.5 55.5C513.5 54.1184 512.382 53 511 53C509.62 53 508.5 54.1184 508.5 55.5Z" fill="#FFE585"/>
<path fill-rule="evenodd" clip-rule="evenodd" d="M462.5 55.5C462.5 56.8799 463.62 58 465 58C466.382 58 467.5 56.8799 467.5 55.5C467.5 54.1184 466.382 53 465 53C463.62 53 462.5 54.1184 462.5 55.5Z" fill="#FFE585"/>
<path fill-rule="evenodd" clip-rule="evenodd" d="M416.5 55.5C416.5 56.8799 417.62 58 419 58C420.382 58 421.5 56.8799 421.5 55.5C421.5 54.1184 420.382 53 419 53C417.62 53 416.5 54.1184 416.5 55.5Z" fill="#FFE585"/>
<path fill-rule="evenodd" clip-rule="evenodd" d="M370.5 55.5C370.5 56.8799 371.62 58 373.001 58C374.38 58 375.5 56.8799 375.5 55.5C375.5 54.1184 374.38 53 373.001 53C371.62 53 370.5 54.1184 370.5 55.5Z" fill="#FFE585"/>
<path fill-rule="evenodd" clip-rule="evenodd" d="M323.5 55.5C323.5 56.8799 324.62 58 326.001 58C327.38 58 328.5 56.8799 328.5 55.5C328.5 54.1184 327.38 53 326.001 53C324.62 53 323.5 54.1184 323.5 55.5Z" fill="#FFE585"/>
<path fill-rule="evenodd" clip-rule="evenodd" d="M277.5 55.5C277.5 56.8799 278.618 58 280 58C281.38 58 282.5 56.8799 282.5 55.5C282.5 54.1184 281.38 53 280 53C278.618 53 277.5 54.1184 277.5 55.5Z" fill="#FFE585"/>
<path fill-rule="evenodd" clip-rule="evenodd" d="M231.5 55.5C231.5 56.8799 232.618 58 234 58C235.38 58 236.5 56.8799 236.5 55.5C236.5 54.1184 235.38 53 234 53C232.618 53 231.5 54.1184 231.5 55.5Z" fill="#FFE585"/>
<path fill-rule="evenodd" clip-rule="evenodd" d="M185.5 55.5C185.5 56.8799 186.618 58 188 58C189.382 58 190.5 56.8799 190.5 55.5C190.5 54.1184 189.382 53 188 53C186.618 53 185.5 54.1184 185.5 55.5Z" fill="#FFE585"/>
<path fill-rule="evenodd" clip-rule="evenodd" d="M139.5 55.5C139.5 56.8799 140.62 58 142 58C143.382 58 144.5 56.8799 144.5 55.5C144.5 54.1184 143.382 53 142 53C140.62 53 139.5 54.1184 139.5 55.5Z" fill="#FFE585"/>
<path fill-rule="evenodd" clip-rule="evenodd" d="M92.5 55.5C92.5 56.8799 93.6201 58 95 58C96.3816 58 97.5 56.8799 97.5 55.5C97.5 54.1184 96.3816 53 95 53C93.6201 53 92.5 54.1184 92.5 55.5Z" fill="#FFE585"/>
<path fill-rule="evenodd" clip-rule="evenodd" d="M46.5 55.5C46.5 56.8799 47.6201 58 49 58C50.3816 58 51.5 56.8799 51.5 55.5C51.5 54.1184 50.3816 53 49 53C47.6201 53 46.5 54.1184 46.5 55.5Z" fill="#FFE585"/>
<path fill-rule="evenodd" clip-rule="evenodd" d="M0.5 55.5C0.5 56.8799 1.6201 58 3 58C4.38162 58 5.5 56.8799 5.5 55.5C5.5 54.1184 4.38162 53 3 53C1.6201 53 0.5 54.1184 0.5 55.5Z" fill="#FFE585"/>
<path fill-rule="evenodd" clip-rule="evenodd" d="M508.5 108.5C508.5 109.88 509.62 111 511 111C512.382 111 513.5 109.88 513.5 108.5C513.5 107.118 512.382 106 511 106C509.62 106 508.5 107.118 508.5 108.5Z" fill="#FFE585"/>
<path fill-rule="evenodd" clip-rule="evenodd" d="M462.5 108.5C462.5 109.88 463.62 111 465 111C466.382 111 467.5 109.88 467.5 108.5C467.5 107.118 466.382 106 465 106C463.62 106 462.5 107.118 462.5 108.5Z" fill="#FFE585"/>
<path fill-rule="evenodd" clip-rule="evenodd" d="M416.5 108.5C416.5 109.88 417.62 111 419 111C420.382 111 421.5 109.88 421.5 108.5C421.5 107.118 420.382 106 419 106C417.62 106 416.5 107.118 416.5 108.5Z" fill="#FFE585"/>
<path fill-rule="evenodd" clip-rule="evenodd" d="M370.5 108.5C370.5 109.88 371.62 111 373.001 111C374.38 111 375.5 109.88 375.5 108.5C375.5 107.118 374.38 106 373.001 106C371.62 106 370.5 107.118 370.5 108.5Z" fill="#FFE585"/>
<path fill-rule="evenodd" clip-rule="evenodd" d="M323.5 108.5C323.5 109.88 324.62 111 326.001 111C327.38 111 328.5 109.88 328.5 108.5C328.5 107.118 327.38 106 326.001 106C324.62 106 323.5 107.118 323.5 108.5Z" fill="#FFE585"/>
<path fill-rule="evenodd" clip-rule="evenodd" d="M277.5 108.5C277.5 109.88 278.618 111 280 111C281.38 111 282.5 109.88 282.5 108.5C282.5 107.118 281.38 106 280 106C278.618 106 277.5 107.118 277.5 108.5Z" fill="#FFE585"/>
<path fill-rule="evenodd" clip-rule="evenodd" d="M231.5 108.5C231.5 109.88 232.618 111 234 111C235.38 111 236.5 109.88 236.5 108.5C236.5 107.118 235.38 106 234 106C232.618 106 231.5 107.118 231.5 108.5Z" fill="#FFE585"/>
<path fill-rule="evenodd" clip-rule="evenodd" d="M185.5 108.5C185.5 109.88 186.618 111 188 111C189.382 111 190.5 109.88 190.5 108.5C190.5 107.118 189.382 106 188 106C186.618 106 185.5 107.118 185.5 108.5Z" fill="#FFE585"/>
<path fill-rule="evenodd" clip-rule="evenodd" d="M139.5 108.5C139.5 109.88 140.62 111 142 111C143.382 111 144.5 109.88 144.5 108.5C144.5 107.118 143.382 106 142 106C140.62 106 139.5 107.118 139.5 108.5Z" fill="#FFE585"/>
<path fill-rule="evenodd" clip-rule="evenodd" d="M92.5 108.5C92.5 109.88 93.6201 111 95 111C96.3816 111 97.5 109.88 97.5 108.5C97.5 107.118 96.3816 106 95 106C93.6201 106 92.5 107.118 92.5 108.5Z" fill="#FFE585"/>
<path fill-rule="evenodd" clip-rule="evenodd" d="M46.5 108.5C46.5 109.88 47.6201 111 49 111C50.3816 111 51.5 109.88 51.5 108.5C51.5 107.118 50.3816 106 49 106C47.6201 106 46.5 107.118 46.5 108.5Z" fill="#FFE585"/>
<path fill-rule="evenodd" clip-rule="evenodd" d="M0.5 108.5C0.5 109.88 1.6201 111 3 111C4.38162 111 5.5 109.88 5.5 108.5C5.5 107.118 4.38162 106 3 106C1.6201 106 0.5 107.118 0.5 108.5Z" fill="#FFE585"/>
<path fill-rule="evenodd" clip-rule="evenodd" d="M508.5 161.5C508.5 162.88 509.62 164 511 164C512.382 164 513.5 162.88 513.5 161.5C513.5 160.118 512.382 159 511 159C509.62 159 508.5 160.118 508.5 161.5Z" fill="#FFE585"/>
<path fill-rule="evenodd" clip-rule="evenodd" d="M462.5 161.5C462.5 162.88 463.62 164 465 164C466.382 164 467.5 162.88 467.5 161.5C467.5 160.118 466.382 159 465 159C463.62 159 462.5 160.118 462.5 161.5Z" fill="#FFE585"/>
<path fill-rule="evenodd" clip-rule="evenodd" d="M416.5 161.5C416.5 162.88 417.62 164 419 164C420.382 164 421.5 162.88 421.5 161.5C421.5 160.118 420.382 159 419 159C417.62 159 416.5 160.118 416.5 161.5Z" fill="#FFE585"/>
<path fill-rule="evenodd" clip-rule="evenodd" d="M370.5 161.5C370.5 162.88 371.62 164 373.001 164C374.38 164 375.5 162.88 375.5 161.5C375.5 160.118 374.38 159 373.001 159C371.62 159 370.5 160.118 370.5 161.5Z" fill="#FFE585"/>
<path fill-rule="evenodd" clip-rule="evenodd" d="M323.5 161.5C323.5 162.88 324.62 164 326.001 164C327.38 164 328.5 162.88 328.5 161.5C328.5 160.118 327.38 159 326.001 159C324.62 159 323.5 160.118 323.5 161.5Z" fill="#FFE585"/>
<path fill-rule="evenodd" clip-rule="evenodd" d="M277.5 161.5C277.5 162.88 278.618 164 280 164C281.38 164 282.5 162.88 282.5 161.5C282.5 160.118 281.38 159 280 159C278.618 159 277.5 160.118 277.5 161.5Z" fill="#FFE585"/>
<path fill-rule="evenodd" clip-rule="evenodd" d="M231.5 161.5C231.5 162.88 232.618 164 234 164C235.38 164 236.5 162.88 236.5 161.5C236.5 160.118 235.38 159 234 159C232.618 159 231.5 160.118 231.5 161.5Z" fill="#FFE585"/>
<path fill-rule="evenodd" clip-rule="evenodd" d="M185.5 161.5C185.5 162.88 186.618 164 188 164C189.382 164 190.5 162.88 190.5 161.5C190.5 160.118 189.382 159 188 159C186.618 159 185.5 160.118 185.5 161.5Z" fill="#FFE585"/>
<path fill-rule="evenodd" clip-rule="evenodd" d="M139.5 161.5C139.5 162.88 140.62 164 142 164C143.382 164 144.5 162.88 144.5 161.5C144.5 160.118 143.382 159 142 159C140.62 159 139.5 160.118 139.5 161.5Z" fill="#FFE585"/>
<path fill-rule="evenodd" clip-rule="evenodd" d="M92.5 161.5C92.5 162.88 93.6201 164 95 164C96.3816 164 97.5 162.88 97.5 161.5C97.5 160.118 96.3816 159 95 159C93.6201 159 92.5 160.118 92.5 161.5Z" fill="#FFE585"/>
<path fill-rule="evenodd" clip-rule="evenodd" d="M46.5 161.5C46.5 162.88 47.6201 164 49 164C50.3816 164 51.5 162.88 51.5 161.5C51.5 160.118 50.3816 159 49 159C47.6201 159 46.5 160.118 46.5 161.5Z" fill="#FFE585"/>
<path fill-rule="evenodd" clip-rule="evenodd" d="M0.5 161.5C0.5 162.88 1.6201 164 3 164C4.38162 164 5.5 162.88 5.5 161.5C5.5 160.118 4.38162 159 3 159C1.6201 159 0.5 160.118 0.5 161.5Z" fill="#FFE585"/>
<path fill-rule="evenodd" clip-rule="evenodd" d="M508.5 214.5C508.5 215.88 509.62 217 511 217C512.382 217 513.5 215.88 513.5 214.5C513.5 213.118 512.382 212 511 212C509.62 212 508.5 213.118 508.5 214.5Z" fill="#FFE585"/>
<path fill-rule="evenodd" clip-rule="evenodd" d="M462.5 214.5C462.5 215.88 463.62 217 465 217C466.382 217 467.5 215.88 467.5 214.5C467.5 213.118 466.382 212 465 212C463.62 212 462.5 213.118 462.5 214.5Z" fill="#FFE585"/>
<path fill-rule="evenodd" clip-rule="evenodd" d="M416.5 214.5C416.5 215.88 417.62 217 419 217C420.382 217 421.5 215.88 421.5 214.5C421.5 213.118 420.382 212 419 212C417.62 212 416.5 213.118 416.5 214.5Z" fill="#FFE585"/>
<path fill-rule="evenodd" clip-rule="evenodd" d="M370.5 214.5C370.5 215.88 371.62 217 373.001 217C374.38 217 375.5 215.88 375.5 214.5C375.5 213.118 374.38 212 373.001 212C371.62 212 370.5 213.118 370.5 214.5Z" fill="#FFE585"/>
<path fill-rule="evenodd" clip-rule="evenodd" d="M323.5 214.5C323.5 215.88 324.62 217 326.001 217C327.38 217 328.5 215.88 328.5 214.5C328.5 213.118 327.38 212 326.001 212C324.62 212 323.5 213.118 323.5 214.5Z" fill="#FFE585"/>
<path fill-rule="evenodd" clip-rule="evenodd" d="M277.5 214.5C277.5 215.88 278.618 217 280 217C281.38 217 282.5 215.88 282.5 214.5C282.5 213.118 281.38 212 280 212C278.618 212 277.5 213.118 277.5 214.5Z" fill="#FFE585"/>
<path fill-rule="evenodd" clip-rule="evenodd" d="M231.5 214.5C231.5 215.88 232.618 217 234 217C235.38 217 236.5 215.88 236.5 214.5C236.5 213.118 235.38 212 234 212C232.618 212 231.5 213.118 231.5 214.5Z" fill="#FFE585"/>
<path fill-rule="evenodd" clip-rule="evenodd" d="M185.5 214.5C185.5 215.88 186.618 217 188 217C189.382 217 190.5 215.88 190.5 214.5C190.5 213.118 189.382 212 188 212C186.618 212 185.5 213.118 185.5 214.5Z" fill="#FFE585"/>
<path fill-rule="evenodd" clip-rule="evenodd" d="M139.5 214.5C139.5 215.88 140.62 217 142 217C143.382 217 144.5 215.88 144.5 214.5C144.5 213.118 143.382 212 142 212C140.62 212 139.5 213.118 139.5 214.5Z" fill="#FFE585"/>
<path fill-rule="evenodd" clip-rule="evenodd" d="M92.5 214.5C92.5 215.88 93.6201 217 95 217C96.3816 217 97.5 215.88 97.5 214.5C97.5 213.118 96.3816 212 95 212C93.6201 212 92.5 213.118 92.5 214.5Z" fill="#FFE585"/>
<path fill-rule="evenodd" clip-rule="evenodd" d="M46.5 214.5C46.5 215.88 47.6201 217 49 217C50.3816 217 51.5 215.88 51.5 214.5C51.5 213.118 50.3816 212 49 212C47.6201 212 46.5 213.118 46.5 214.5Z" fill="#FFE585"/>
<path fill-rule="evenodd" clip-rule="evenodd" d="M0.5 214.5C0.5 215.88 1.6201 217 3 217C4.38162 217 5.5 215.88 5.5 214.5C5.5 213.118 4.38162 212 3 212C1.6201 212 0.5 213.118 0.5 214.5Z" fill="#FFE585"/>
<path fill-rule="evenodd" clip-rule="evenodd" d="M508.5 267.5C508.5 268.882 509.62 270 511 270C512.382 270 513.5 268.882 513.5 267.5C513.5 266.118 512.382 265 511 265C509.62 265 508.5 266.118 508.5 267.5Z" fill="#FFE585"/>
<path fill-rule="evenodd" clip-rule="evenodd" d="M462.5 267.5C462.5 268.882 463.62 270 465 270C466.382 270 467.5 268.882 467.5 267.5C467.5 266.118 466.382 265 465 265C463.62 265 462.5 266.118 462.5 267.5Z" fill="#FFE585"/>
<path fill-rule="evenodd" clip-rule="evenodd" d="M416.5 267.5C416.5 268.882 417.62 270 419 270C420.382 270 421.5 268.882 421.5 267.5C421.5 266.118 420.382 265 419 265C417.62 265 416.5 266.118 416.5 267.5Z" fill="#FFE585"/>
<path fill-rule="evenodd" clip-rule="evenodd" d="M370.5 267.5C370.5 268.882 371.62 270 373.001 270C374.38 270 375.5 268.882 375.5 267.5C375.5 266.118 374.38 265 373.001 265C371.62 265 370.5 266.118 370.5 267.5Z" fill="#FFE585"/>
<path fill-rule="evenodd" clip-rule="evenodd" d="M323.5 267.5C323.5 268.882 324.62 270 326.001 270C327.38 270 328.5 268.882 328.5 267.5C328.5 266.118 327.38 265 326.001 265C324.62 265 323.5 266.118 323.5 267.5Z" fill="#FFE585"/>
<path fill-rule="evenodd" clip-rule="evenodd" d="M277.5 267.5C277.5 268.882 278.618 270 280 270C281.38 270 282.5 268.882 282.5 267.5C282.5 266.118 281.38 265 280 265C278.618 265 277.5 266.118 277.5 267.5Z" fill="#FFE585"/>
<path fill-rule="evenodd" clip-rule="evenodd" d="M231.5 267.5C231.5 268.882 232.618 270 234 270C235.38 270 236.5 268.882 236.5 267.5C236.5 266.118 235.38 265 234 265C232.618 265 231.5 266.118 231.5 267.5Z" fill="#FFE585"/>
<path fill-rule="evenodd" clip-rule="evenodd" d="M185.5 267.5C185.5 268.882 186.618 270 188 270C189.382 270 190.5 268.882 190.5 267.5C190.5 266.118 189.382 265 188 265C186.618 265 185.5 266.118 185.5 267.5Z" fill="#FFE585"/>
<path fill-rule="evenodd" clip-rule="evenodd" d="M139.5 267.5C139.5 268.882 140.62 270 142 270C143.382 270 144.5 268.882 144.5 267.5C144.5 266.118 143.382 265 142 265C140.62 265 139.5 266.118 139.5 267.5Z" fill="#FFE585"/>
<path fill-rule="evenodd" clip-rule="evenodd" d="M92.5 267.5C92.5 268.882 93.6201 270 95 270C96.3816 270 97.5 268.882 97.5 267.5C97.5 266.118 96.3816 265 95 265C93.6201 265 92.5 266.118 92.5 267.5Z" fill="#FFE585"/>
<path fill-rule="evenodd" clip-rule="evenodd" d="M46.5 267.5C46.5 268.882 47.6201 270 49 270C50.3816 270 51.5 268.882 51.5 267.5C51.5 266.118 50.3816 265 49 265C47.6201 265 46.5 266.118 46.5 267.5Z" fill="#FFE585"/>
<path fill-rule="evenodd" clip-rule="evenodd" d="M0.5 267.5C0.5 268.882 1.6201 270 3 270C4.38162 270 5.5 268.882 5.5 267.5C5.5 266.118 4.38162 265 3 265C1.6201 265 0.5 266.118 0.5 267.5Z" fill="#FFE585"/>
<path fill-rule="evenodd" clip-rule="evenodd" d="M508.5 320.5C508.5 321.882 509.62 323 511 323C512.382 323 513.5 321.882 513.5 320.5C513.5 319.118 512.382 318 511 318C509.62 318 508.5 319.118 508.5 320.5Z" fill="#FFE585"/>
<path fill-rule="evenodd" clip-rule="evenodd" d="M462.5 320.5C462.5 321.882 463.62 323 465 323C466.382 323 467.5 321.882 467.5 320.5C467.5 319.118 466.382 318 465 318C463.62 318 462.5 319.118 462.5 320.5Z" fill="#FFE585"/>
<path fill-rule="evenodd" clip-rule="evenodd" d="M416.5 320.5C416.5 321.882 417.62 323 419 323C420.382 323 421.5 321.882 421.5 320.5C421.5 319.118 420.382 318 419 318C417.62 318 416.5 319.118 416.5 320.5Z" fill="#FFE585"/>
<path fill-rule="evenodd" clip-rule="evenodd" d="M370.5 320.5C370.5 321.882 371.62 323 373.001 323C374.38 323 375.5 321.882 375.5 320.5C375.5 319.118 374.38 318 373.001 318C371.62 318 370.5 319.118 370.5 320.5Z" fill="#FFE585"/>
<path fill-rule="evenodd" clip-rule="evenodd" d="M323.5 320.5C323.5 321.882 324.62 323 326.001 323C327.38 323 328.5 321.882 328.5 320.5C328.5 319.118 327.38 318 326.001 318C324.62 318 323.5 319.118 323.5 320.5Z" fill="#FFE585"/>
<path fill-rule="evenodd" clip-rule="evenodd" d="M277.5 320.5C277.5 321.882 278.618 323 280 323C281.38 323 282.5 321.882 282.5 320.5C282.5 319.118 281.38 318 280 318C278.618 318 277.5 319.118 277.5 320.5Z" fill="#FFE585"/>
<path fill-rule="evenodd" clip-rule="evenodd" d="M231.5 320.5C231.5 321.882 232.618 323 234 323C235.38 323 236.5 321.882 236.5 320.5C236.5 319.118 235.38 318 234 318C232.618 318 231.5 319.118 231.5 320.5Z" fill="#FFE585"/>
<path fill-rule="evenodd" clip-rule="evenodd" d="M185.5 320.5C185.5 321.882 186.618 323 188 323C189.382 323 190.5 321.882 190.5 320.5C190.5 319.118 189.382 318 188 318C186.618 318 185.5 319.118 185.5 320.5Z" fill="#FFE585"/>
<path fill-rule="evenodd" clip-rule="evenodd" d="M139.5 320.5C139.5 321.882 140.62 323 142 323C143.382 323 144.5 321.882 144.5 320.5C144.5 319.118 143.382 318 142 318C140.62 318 139.5 319.118 139.5 320.5Z" fill="#FFE585"/>
<path fill-rule="evenodd" clip-rule="evenodd" d="M92.5 320.5C92.5 321.882 93.6201 323 95 323C96.3816 323 97.5 321.882 97.5 320.5C97.5 319.118 96.3816 318 95 318C93.6201 318 92.5 319.118 92.5 320.5Z" fill="#FFE585"/>
<path fill-rule="evenodd" clip-rule="evenodd" d="M46.5 320.5C46.5 321.882 47.6201 323 49 323C50.3816 323 51.5 321.882 51.5 320.5C51.5 319.118 50.3816 318 49 318C47.6201 318 46.5 319.118 46.5 320.5Z" fill="#FFE585"/>
<path fill-rule="evenodd" clip-rule="evenodd" d="M0.5 320.5C0.5 321.882 1.6201 323 3 323C4.38162 323 5.5 321.882 5.5 320.5C5.5 319.118 4.38162 318 3 318C1.6201 318 0.5 319.118 0.5 320.5Z" fill="#FFE585"/>
<path fill-rule="evenodd" clip-rule="evenodd" d="M508.5 373.5C508.5 374.882 509.62 376 511 376C512.382 376 513.5 374.882 513.5 373.5C513.5 372.12 512.382 371 511 371C509.62 371 508.5 372.12 508.5 373.5Z" fill="#FFE585"/>
<path fill-rule="evenodd" clip-rule="evenodd" d="M462.5 373.5C462.5 374.882 463.62 376 465 376C466.382 376 467.5 374.882 467.5 373.5C467.5 372.12 466.382 371 465 371C463.62 371 462.5 372.12 462.5 373.5Z" fill="#FFE585"/>
<path fill-rule="evenodd" clip-rule="evenodd" d="M416.5 373.5C416.5 374.882 417.62 376 419 376C420.382 376 421.5 374.882 421.5 373.5C421.5 372.12 420.382 371 419 371C417.62 371 416.5 372.12 416.5 373.5Z" fill="#FFE585"/>
<path fill-rule="evenodd" clip-rule="evenodd" d="M370.5 373.5C370.5 374.882 371.62 376 373.001 376C374.38 376 375.5 374.882 375.5 373.5C375.5 372.12 374.38 371 373.001 371C371.62 371 370.5 372.12 370.5 373.5Z" fill="#FFE585"/>
<path fill-rule="evenodd" clip-rule="evenodd" d="M323.5 373.5C323.5 374.882 324.62 376 326.001 376C327.38 376 328.5 374.882 328.5 373.5C328.5 372.12 327.38 371 326.001 371C324.62 371 323.5 372.12 323.5 373.5Z" fill="#FFE585"/>
<path fill-rule="evenodd" clip-rule="evenodd" d="M277.5 373.5C277.5 374.882 278.618 376 280 376C281.38 376 282.5 374.882 282.5 373.5C282.5 372.12 281.38 371 280 371C278.618 371 277.5 372.12 277.5 373.5Z" fill="#FFE585"/>
<path fill-rule="evenodd" clip-rule="evenodd" d="M231.5 373.5C231.5 374.882 232.618 376 234 376C235.38 376 236.5 374.882 236.5 373.5C236.5 372.12 235.38 371 234 371C232.618 371 231.5 372.12 231.5 373.5Z" fill="#FFE585"/>
<path fill-rule="evenodd" clip-rule="evenodd" d="M185.5 373.5C185.5 374.882 186.618 376 188 376C189.382 376 190.5 374.882 190.5 373.5C190.5 372.12 189.382 371 188 371C186.618 371 185.5 372.12 185.5 373.5Z" fill="#FFE585"/>
<path fill-rule="evenodd" clip-rule="evenodd" d="M139.5 373.5C139.5 374.882 140.62 376 142 376C143.382 376 144.5 374.882 144.5 373.5C144.5 372.12 143.382 371 142 371C140.62 371 139.5 372.12 139.5 373.5Z" fill="#FFE585"/>
<path fill-rule="evenodd" clip-rule="evenodd" d="M92.5 373.5C92.5 374.882 93.6201 376 95 376C96.3816 376 97.5 374.882 97.5 373.5C97.5 372.12 96.3816 371 95 371C93.6201 371 92.5 372.12 92.5 373.5Z" fill="#FFE585"/>
<path fill-rule="evenodd" clip-rule="evenodd" d="M46.5 373.5C46.5 374.882 47.6201 376 49 376C50.3816 376 51.5 374.882 51.5 373.5C51.5 372.12 50.3816 371 49 371C47.6201 371 46.5 372.12 46.5 373.5Z" fill="#FFE585"/>
<path fill-rule="evenodd" clip-rule="evenodd" d="M0.5 373.5C0.5 374.882 1.6201 376 3 376C4.38162 376 5.5 374.882 5.5 373.5C5.5 372.12 4.38162 371 3 371C1.6201 371 0.5 372.12 0.5 373.5Z" fill="#FFE585"/>
<path fill-rule="evenodd" clip-rule="evenodd" d="M508.5 426.5C508.5 427.882 509.62 429 511 429C512.382 429 513.5 427.882 513.5 426.5C513.5 425.12 512.382 424 511 424C509.62 424 508.5 425.12 508.5 426.5Z" fill="#FFE585"/>
<path fill-rule="evenodd" clip-rule="evenodd" d="M462.5 426.5C462.5 427.882 463.62 429 465 429C466.382 429 467.5 427.882 467.5 426.5C467.5 425.12 466.382 424 465 424C463.62 424 462.5 425.12 462.5 426.5Z" fill="#FFE585"/>
<path fill-rule="evenodd" clip-rule="evenodd" d="M416.5 426.5C416.5 427.882 417.62 429 419 429C420.382 429 421.5 427.882 421.5 426.5C421.5 425.12 420.382 424 419 424C417.62 424 416.5 425.12 416.5 426.5Z" fill="#FFE585"/>
<path fill-rule="evenodd" clip-rule="evenodd" d="M370.5 426.5C370.5 427.882 371.62 429 373.001 429C374.38 429 375.5 427.882 375.5 426.5C375.5 425.12 374.38 424 373.001 424C371.62 424 370.5 425.12 370.5 426.5Z" fill="#FFE585"/>
<path fill-rule="evenodd" clip-rule="evenodd" d="M323.5 426.5C323.5 427.882 324.62 429 326.001 429C327.38 429 328.5 427.882 328.5 426.5C328.5 425.12 327.38 424 326.001 424C324.62 424 323.5 425.12 323.5 426.5Z" fill="#FFE585"/>
<path fill-rule="evenodd" clip-rule="evenodd" d="M277.5 426.5C277.5 427.882 278.618 429 280 429C281.38 429 282.5 427.882 282.5 426.5C282.5 425.12 281.38 424 280 424C278.618 424 277.5 425.12 277.5 426.5Z" fill="#FFE585"/>
<path fill-rule="evenodd" clip-rule="evenodd" d="M231.5 426.5C231.5 427.882 232.618 429 234 429C235.38 429 236.5 427.882 236.5 426.5C236.5 425.12 235.38 424 234 424C232.618 424 231.5 425.12 231.5 426.5Z" fill="#FFE585"/>
<path fill-rule="evenodd" clip-rule="evenodd" d="M185.5 426.5C185.5 427.882 186.618 429 188 429C189.382 429 190.5 427.882 190.5 426.5C190.5 425.12 189.382 424 188 424C186.618 424 185.5 425.12 185.5 426.5Z" fill="#FFE585"/>
<path fill-rule="evenodd" clip-rule="evenodd" d="M139.5 426.5C139.5 427.882 140.62 429 142 429C143.382 429 144.5 427.882 144.5 426.5C144.5 425.12 143.382 424 142 424C140.62 424 139.5 425.12 139.5 426.5Z" fill="#FFE585"/>
<path fill-rule="evenodd" clip-rule="evenodd" d="M92.5 426.5C92.5 427.882 93.6201 429 95 429C96.3816 429 97.5 427.882 97.5 426.5C97.5 425.12 96.3816 424 95 424C93.6201 424 92.5 425.12 92.5 426.5Z" fill="#FFE585"/>
<path fill-rule="evenodd" clip-rule="evenodd" d="M46.5 426.5C46.5 427.882 47.6201 429 49 429C50.3816 429 51.5 427.882 51.5 426.5C51.5 425.12 50.3816 424 49 424C47.6201 424 46.5 425.12 46.5 426.5Z" fill="#FFE585"/>
<path fill-rule="evenodd" clip-rule="evenodd" d="M0.5 426.5C0.5 427.882 1.6201 429 3 429C4.38162 429 5.5 427.882 5.5 426.5C5.5 425.12 4.38162 424 3 424C1.6201 424 0.5 425.12 0.5 426.5Z" fill="#FFE585"/>
<path fill-rule="evenodd" clip-rule="evenodd" d="M508.5 479.5C508.5 480.882 509.62 482 511 482C512.382 482 513.5 480.882 513.5 479.5C513.5 478.12 512.382 477 511 477C509.62 477 508.5 478.12 508.5 479.5Z" fill="#FFE585"/>
<path fill-rule="evenodd" clip-rule="evenodd" d="M462.5 479.5C462.5 480.882 463.62 482 465 482C466.382 482 467.5 480.882 467.5 479.5C467.5 478.12 466.382 477 465 477C463.62 477 462.5 478.12 462.5 479.5Z" fill="#FFE585"/>
<path fill-rule="evenodd" clip-rule="evenodd" d="M416.5 479.5C416.5 480.882 417.62 482 419 482C420.382 482 421.5 480.882 421.5 479.5C421.5 478.12 420.382 477 419 477C417.62 477 416.5 478.12 416.5 479.5Z" fill="#FFE585"/>
<path fill-rule="evenodd" clip-rule="evenodd" d="M370.5 479.5C370.5 480.882 371.62 482 373.001 482C374.38 482 375.5 480.882 375.5 479.5C375.5 478.12 374.38 477 373.001 477C371.62 477 370.5 478.12 370.5 479.5Z" fill="#FFE585"/>
<path fill-rule="evenodd" clip-rule="evenodd" d="M323.5 479.5C323.5 480.882 324.62 482 326.001 482C327.38 482 328.5 480.882 328.5 479.5C328.5 478.12 327.38 477 326.001 477C324.62 477 323.5 478.12 323.5 479.5Z" fill="#FFE585"/>
<path fill-rule="evenodd" clip-rule="evenodd" d="M277.5 479.5C277.5 480.882 278.618 482 280 482C281.38 482 282.5 480.882 282.5 479.5C282.5 478.12 281.38 477 280 477C278.618 477 277.5 478.12 277.5 479.5Z" fill="#FFE585"/>
<path fill-rule="evenodd" clip-rule="evenodd" d="M231.5 479.5C231.5 480.882 232.618 482 234 482C235.38 482 236.5 480.882 236.5 479.5C236.5 478.12 235.38 477 234 477C232.618 477 231.5 478.12 231.5 479.5Z" fill="#FFE585"/>
<path fill-rule="evenodd" clip-rule="evenodd" d="M185.5 479.5C185.5 480.882 186.618 482 188 482C189.382 482 190.5 480.882 190.5 479.5C190.5 478.12 189.382 477 188 477C186.618 477 185.5 478.12 185.5 479.5Z" fill="#FFE585"/>
<path fill-rule="evenodd" clip-rule="evenodd" d="M139.5 479.5C139.5 480.882 140.62 482 142 482C143.382 482 144.5 480.882 144.5 479.5C144.5 478.12 143.382 477 142 477C140.62 477 139.5 478.12 139.5 479.5Z" fill="#FFE585"/>
<path fill-rule="evenodd" clip-rule="evenodd" d="M92.5 479.5C92.5 480.882 93.6201 482 95 482C96.3816 482 97.5 480.882 97.5 479.5C97.5 478.12 96.3816 477 95 477C93.6201 477 92.5 478.12 92.5 479.5Z" fill="#FFE585"/>
<path fill-rule="evenodd" clip-rule="evenodd" d="M46.5 479.5C46.5 480.882 47.6201 482 49 482C50.3816 482 51.5 480.882 51.5 479.5C51.5 478.12 50.3816 477 49 477C47.6201 477 46.5 478.12 46.5 479.5Z" fill="#FFE585"/>
<path fill-rule="evenodd" clip-rule="evenodd" d="M0.5 479.5C0.5 480.882 1.6201 482 3 482C4.38162 482 5.5 480.882 5.5 479.5C5.5 478.12 4.38162 477 3 477C1.6201 477 0.5 478.12 0.5 479.5Z" fill="#FFE585"/>
</g>
<defs>
<clipPath id="clip0_560_11475">
<rect width="513" height="482" fill="white" transform="translate(0.5)"/>
</clipPath>
</defs>
</svg>
