<svg width="210" height="189" viewBox="0 0 210 189" fill="none" xmlns="http://www.w3.org/2000/svg">
<g clip-path="url(#clip0_980_7829)">
<rect width="210" height="188" transform="translate(0 0.102539)" fill="white"/>
<path fill-rule="evenodd" clip-rule="evenodd" d="M242.368 77.224C242.368 64.4544 252.72 54.1026 265.489 54.1026C278.259 54.1026 288.611 64.4544 288.611 77.224V77.224C288.611 78.8395 290.639 80.117 292.098 79.4218C295.108 77.987 298.477 77.1839 302.034 77.1839C314.803 77.1839 325.155 87.5356 325.155 100.305C325.155 113.075 314.803 123.427 302.034 123.427C289.264 123.427 278.913 113.075 278.913 100.305V100.305C278.913 98.6897 276.884 97.4123 275.426 98.1074C272.416 99.5422 269.046 100.345 265.489 100.345C252.72 100.345 242.368 89.9936 242.368 77.224ZM-71.0333 57.6084C-83.8029 57.6084 -94.1547 67.9602 -94.1547 80.7298V80.7298C-94.1547 81.8012 -98.8361 84.7133 -99.8161 84.2802C-102.201 83.2263 -104.839 82.641 -107.614 82.641C-118.278 82.641 -126.924 91.2864 -126.924 101.951C-126.924 112.616 -118.278 121.261 -107.614 121.261C-96.9493 121.261 -88.3039 112.616 -88.3039 101.951V101.951C-88.3039 101.086 -84.9158 99.2415 -84.2052 99.7349C-80.4678 102.33 -75.9282 103.851 -71.0333 103.851C-58.2637 103.851 -47.9119 93.4994 -47.9119 80.7298C-47.9119 67.9602 -58.2637 57.6084 -71.0333 57.6084ZM220.26 78.1702C207.49 78.1702 197.139 88.522 197.139 101.292C197.139 114.061 207.49 124.413 220.26 124.413C233.03 124.413 243.381 114.061 243.381 101.292C243.381 88.522 233.03 78.1702 220.26 78.1702ZM164.368 77.5338C164.368 66.8692 173.013 58.2238 183.678 58.2238C194.342 58.2238 202.988 66.8692 202.988 77.5338C202.988 88.1984 194.342 96.8438 183.678 96.8438C173.013 96.8438 164.368 88.1984 164.368 77.5338ZM327.599 113.142C322.447 113.142 318.271 117.318 318.271 122.47C318.271 127.621 322.447 131.797 327.599 131.797C332.75 131.797 336.926 127.621 336.926 122.47C336.926 117.318 332.75 113.142 327.599 113.142ZM138.539 127.879C133.265 124.321 118.042 120.654 111.68 120.654V120.654H109.689C98.9366 120.654 90.2203 111.938 90.2203 101.186V101.186C90.2203 101.043 89.9938 101.001 89.9422 101.134C87.1225 108.411 80.0551 113.571 71.7826 113.571H69.7915C59.0395 113.571 50.3233 104.855 50.3233 94.1026C50.3233 83.3506 59.0395 74.6343 69.7915 74.6343V74.6343C70.8235 74.6343 71.6506 73.7952 71.7483 72.7679C72.6877 62.8915 81.0058 55.1661 91.1283 55.1661H93.1193C103.871 55.1661 112.588 63.8823 112.588 74.6343C112.588 76.9849 112.171 79.2381 111.408 81.3242C111.338 81.5142 111.477 81.7178 111.68 81.7178V81.7178C112.509 81.7178 113.325 81.7696 114.127 81.8702C121.972 82.8541 143.479 85.7931 151.385 85.7931V85.7931C164.089 85.7931 174.387 96.0914 174.387 108.795C174.387 121.499 164.089 131.797 151.385 131.797C146.628 131.797 142.207 130.353 138.539 127.879ZM91.4916 94.2516C91.5189 94.1801 91.4664 94.1026 91.3899 94.1026H91.3589C91.2992 94.1026 91.2509 94.1515 91.2505 94.2112V94.2112C91.2499 94.3364 91.447 94.3686 91.4916 94.2516V94.2516ZM-29.6587 85.5542C-42.4283 85.5542 -52.78 95.906 -52.78 108.676C-52.78 121.445 -42.4283 131.797 -29.6587 131.797C-25.1074 131.797 -20.8633 130.482 -17.2855 128.211C-12.1605 124.958 6.33425 120.103 12.4044 120.103V120.103C24.2563 120.103 33.8642 110.495 33.8642 98.6436C33.8642 86.7917 24.2563 77.1838 12.4044 77.1838C9.71034 77.1838 7.13221 77.6802 4.75653 78.5866C-1.45681 80.9572 -23.0084 85.5542 -29.6587 85.5542V85.5542ZM28.9866 117.791C28.9866 110.055 35.2575 103.784 42.9931 103.784C50.7287 103.784 56.9996 110.055 56.9996 117.791C56.9996 125.526 50.7287 131.797 42.9931 131.797C35.2575 131.797 28.9866 125.526 28.9866 117.791Z" fill="url(#paint0_linear_980_7829)"/>
<path d="M67.9812 115.285L85.6752 97.222L94.4473 232.884H67.9812L71.8905 227.55C71.6399 206.748 67.9812 115.285 67.9812 115.285Z" fill="#DFEFFF"/>
<path d="M74.3158 104.561L103.662 102.551L108.998 104.724L111.506 232.883H84.2485L87.1305 227.719L74.3158 104.561Z" fill="#F0F8FF"/>
<path d="M84.2489 232.883L87.1309 227.719L74.3161 104.561" stroke="#07294A" stroke-width="0.315" stroke-linecap="round" stroke-linejoin="round"/>
<path d="M97.7969 42.9276V47.5597C97.7969 51.1415 95.3516 54.2605 91.8734 55.1154L84.5021 56.9271V38.8163L90.6313 37.3099C92.3572 36.8857 94.1824 37.2784 95.5811 38.375C96.9799 39.4715 97.7969 41.1502 97.7969 42.9276V42.9276Z" fill="#F0F8FF"/>
<path d="M97.7969 47.5597C97.7969 51.1414 95.3516 54.2605 91.8734 55.1153L84.5021 56.9271" stroke="#07294A" stroke-width="0.315" stroke-linecap="round" stroke-linejoin="round"/>
<path d="M90.2871 46.6406C90.0908 46.6406 89.9316 46.4814 89.9316 46.2851C89.9316 46.0888 90.0908 45.9296 90.2871 45.9296C90.4834 45.9296 90.6426 46.0888 90.6426 46.2851C90.6426 46.4814 90.4834 46.6406 90.2871 46.6406Z" fill="#07294A"/>
<path d="M95.7461 46.6406C95.5498 46.6406 95.3906 46.4814 95.3906 46.2851C95.3906 46.0888 95.5498 45.9296 95.7461 45.9296C95.9424 45.9296 96.1016 46.0888 96.1016 46.2851C96.1016 46.4814 95.9424 46.6406 95.7461 46.6406Z" fill="#07294A"/>
<path d="M94.1443 48.4057V42.9277H96.8887" stroke="#07294A" stroke-width="0.315" stroke-linecap="round" stroke-linejoin="round"/>
<path d="M89.6169 42.9276H92.3613" stroke="#07294A" stroke-width="0.315" stroke-linecap="round" stroke-linejoin="round"/>
<path d="M85.377 45.7344V47.6368C84.3508 47.6368 83.5189 46.8049 83.5189 45.7787C83.5189 45.7217 83.5214 45.6654 83.5265 45.6096C83.6306 44.4558 85.377 44.5759 85.377 45.7344Z" fill="#F0F8FF"/>
<path d="M85.377 47.6368C84.3508 47.6368 83.5189 46.8049 83.5189 45.7787" stroke="#07294A" stroke-width="0.315" stroke-linecap="round" stroke-linejoin="round"/>
<path d="M92.6426 49.0457C92.4118 49.2765 92.0989 49.4061 91.7726 49.4061C91.4463 49.4061 91.1333 49.2765 90.9026 49.0457" stroke="#79C9E7" stroke-width="0.315" stroke-linecap="round" stroke-linejoin="round"/>
<path d="M94.1445 48.41L92.9442 48.7051" stroke="#07294A" stroke-width="0.315" stroke-linecap="round" stroke-linejoin="round"/>
<path d="M109.109 76.1451V105.176L67.9827 115.285V82.9517C67.9827 71.4869 75.8096 61.5034 86.9429 58.7671H86.943C92.2822 57.4548 97.9282 58.6697 102.255 62.0619C106.582 65.4541 109.109 70.647 109.109 76.145V76.1451Z" fill="#79C9E7"/>
<path d="M84.4489 52.9438C84.4489 52.9438 86.1464 57.497 82.0005 60.2121C78.0918 62.772 74.8687 53.8963 76.8766 47.5887C76.9937 47.2227 77.0517 46.8403 77.0482 46.456C77.0232 43.9832 77.7168 34.3835 89.9315 33.7288C98.0909 33.2915 104.8 39.2496 98.0786 45.9296" stroke="#07294A" stroke-width="0.315" stroke-linecap="round" stroke-linejoin="round"/>
<path d="M97.7969 42.9275C97.7969 42.9275 95.2002 43.3781 93.9471 39.8693C93.9471 39.8693 90.0083 45.3414 85.3778 44.5059L85.0478 45.0163" stroke="#07294A" stroke-width="0.315" stroke-linecap="round" stroke-linejoin="round"/>
<path d="M77.1533 60.3602C77.1533 60.3602 77.0201 62.6909 81.6816 61.8252" stroke="#79C9E7" stroke-width="0.315" stroke-linecap="round" stroke-linejoin="round"/>
<path d="M76.2606 62.6349C76.2606 62.6349 73.6452 73.0361 78.6578 71.6577C83.6704 70.2792 80.4122 64.0134 80.4122 64.0134" stroke="#07294A" stroke-width="0.315" stroke-linecap="round" stroke-linejoin="round"/>
<path d="M128.041 50.2689L118.411 48.4099L148.988 33.6871L136.081 56.9271L133.073 53.6594L130.834 57.6224L129.418 52.6078" fill="#79C9E7"/>
<path d="M96.6372 59.1253C96.6372 59.1253 108.979 62.8856 116.874 83.222C116.874 83.222 123.881 54.0686 125.554 52.3591C128.144 49.7135 131.778 47.8477 130.608 50.5211C129.439 53.1945 128.269 53.6595 128.269 53.6595C128.269 53.6595 131.444 56.2705 129.272 58.2413" stroke="#07294A" stroke-width="0.315" stroke-linecap="round" stroke-linejoin="round"/>
<path d="M132.627 48.4056C132.948 48.0983 137.376 57.9565 131.778 63.5539C131.778 63.5539 141.803 141.249 92.9438 94.465" stroke="#07294A" stroke-width="0.315" stroke-linecap="round" stroke-linejoin="round"/>
<path d="M95.6427 96.9765C95.6427 96.9765 99.2542 120.528 109.109 127.672V106.82C109.109 106.82 96.5181 97.7843 95.6427 96.9765Z" fill="#07294A"/>
<path d="M71.9883 69.4059C71.9883 69.4059 50.2872 99.227 67.9811 130.305" stroke="#07294A" stroke-width="0.315" stroke-linecap="round" stroke-linejoin="round"/>
</g>
<defs>
<linearGradient id="paint0_linear_980_7829" x1="105.001" y1="54.1026" x2="105.001" y2="131.797" gradientUnits="userSpaceOnUse">
<stop stop-color="#FDFFAA" stop-opacity="0"/>
<stop offset="1" stop-color="#FDFFAA"/>
</linearGradient>
<clipPath id="clip0_980_7829">
<rect width="210" height="188" fill="white" transform="translate(0 0.102539)"/>
</clipPath>
</defs>
</svg>
