<svg width="252" height="159" viewBox="0 0 252 159" fill="none" xmlns="http://www.w3.org/2000/svg">
<g clip-path="url(#clip0_222_31673)">
<rect width="252" height="158" transform="translate(0 0.102539)" fill="white"/>
<path d="M133.194 109.066C133.194 109.066 180.978 145.2 174.425 162.673C167.873 180.147 135.109 197.621 135.109 197.621L133.194 207.668L114.525 187.137L133.194 154.373C133.194 154.373 117.094 150.005 114.525 142.142C111.957 134.279 105.918 98.2993 105.918 98.2993" fill="#79C9E7"/>
<path d="M114.828 33.2303C117.455 33.2303 119.585 31.1003 119.585 28.4729C119.585 25.8455 117.455 23.7156 114.828 23.7156C112.2 23.7156 110.07 25.8455 110.07 28.4729C110.07 31.1003 112.2 33.2303 114.828 33.2303Z" fill="#79C9E7"/>
<path d="M125.424 99.2303C125.424 99.2303 131.303 195.191 114.697 240.625L118.166 245.721H88.6309C88.6309 245.721 85.4043 123.665 85.4043 97.3202L125.424 99.2303Z" fill="#79C9E7"/>
<path d="M117.211 24.9842V37.4552L101.762 41.2525V20.2069L117.211 16.4097V24.9842Z" fill="#F0F8FF"/>
<path d="M108.483 29.2989C108.712 29.2989 108.896 29.114 108.896 28.8859C108.896 28.6577 108.712 28.4728 108.483 28.4728C108.255 28.4728 108.07 28.6577 108.07 28.8859C108.07 29.114 108.255 29.2989 108.483 29.2989Z" fill="#07294A"/>
<path d="M114.827 29.2989C115.055 29.2989 115.24 29.114 115.24 28.8859C115.24 28.6577 115.055 28.4728 114.827 28.4728C114.599 28.4728 114.414 28.6577 114.414 28.8859C114.414 29.114 114.599 29.2989 114.827 29.2989Z" fill="#07294A"/>
<path d="M112.967 31.3501V24.9841H116.156" stroke="#07294A" stroke-width="0.378" stroke-linecap="round" stroke-linejoin="round"/>
<path d="M107.705 24.9842H110.894" stroke="#07294A" stroke-width="0.378" stroke-linecap="round" stroke-linejoin="round"/>
<path d="M102.778 28.2459V30.4566C101.586 30.4566 100.619 29.4899 100.619 28.2974C100.619 28.2312 100.622 28.1657 100.628 28.1009C100.749 26.7601 102.778 26.8997 102.778 28.2459Z" fill="#F0F8FF"/>
<path d="M102.778 30.4565C101.586 30.4565 100.619 29.4898 100.619 28.2974" stroke="#07294A" stroke-width="0.378" stroke-linecap="round" stroke-linejoin="round"/>
<path d="M111.572 32.9193C110.992 32.9193 110.437 32.6891 110.027 32.2793C109.617 31.8694 109.387 31.3136 109.387 30.734" stroke="#79C9E7" stroke-width="0.378" stroke-linecap="round" stroke-linejoin="round"/>
<path d="M117.211 37.4552L101.762 41.2523" stroke="#07294A" stroke-width="0.378" stroke-linecap="round" stroke-linejoin="round"/>
<path d="M112.967 31.3551L111.572 31.6979" stroke="#07294A" stroke-width="0.378" stroke-linecap="round" stroke-linejoin="round"/>
<path d="M103.098 27.6956C103.098 27.6956 104.797 26.4983 104.505 23.9418C104.214 21.3854 104.501 19.0246 108.484 18.5546C111.383 18.2572 114.296 18.1165 117.211 18.1332" stroke="#07294A" stroke-width="0.378" stroke-linecap="round" stroke-linejoin="round"/>
<path d="M117.21 23.9419C117.21 23.9419 124.904 10.0755 110.154 7.16302C95.4038 4.25058 90.6052 13.6554 91.5448 20.9243C92.5642 28.8098 97.5829 31.1178 101.699 32.4284" stroke="#07294A" stroke-width="0.378" stroke-linecap="round" stroke-linejoin="round"/>
<path d="M85.4043 63.5845V97.3202L133.195 109.066V71.4941C133.195 58.1716 124.1 46.5703 111.163 43.3905H111.163C104.958 41.8656 98.3973 43.2773 93.3693 47.2192C88.3412 51.1611 85.4043 57.1955 85.4043 63.5845V63.5845Z" fill="#F0F8FF"/>
<path d="M99.8706 33.2303C102.498 33.2303 104.628 31.1003 104.628 28.4729C104.628 25.8455 102.498 23.7156 99.8706 23.7156C97.2432 23.7156 95.1133 25.8455 95.1133 28.4729C95.1133 31.1003 97.2432 33.2303 99.8706 33.2303Z" fill="#79C9E7"/>
<path d="M104.628 28.4728C104.626 31.0987 102.497 33.2264 99.8706 33.2264C97.2447 33.2264 95.1153 31.0987 95.1133 28.4728" stroke="#07294A" stroke-width="0.378" stroke-linecap="round" stroke-linejoin="round"/>
<path d="M125.424 99.2303C125.424 99.2303 131.303 195.191 114.697 240.625" stroke="#07294A" stroke-width="0.378" stroke-linecap="round" stroke-linejoin="round"/>
<path d="M92.3831 48.0438C92.3831 48.0438 79.6035 56.9658 77.2736 80.2653C74.9436 103.565 104.068 123.952 134.94 90.1676C134.94 90.1676 143.968 83.469 144.26 77.9353C144.551 72.4017 133.195 79.1472 133.195 79.1472C133.195 79.1472 136.401 77.3528 133.195 77.0616C129.989 76.7704 129.406 80.0711 129.406 80.0711L101.761 84.7796L105.919 67.3049" stroke="#07294A" stroke-width="0.378" stroke-linecap="round" stroke-linejoin="round"/>
<path d="M85.6953 101.987V120.455C107.515 125.549 119.987 102.665 119.987 102.665C106.015 110.888 93.533 108.845 85.6953 101.987Z" fill="#07294A"/>
<path d="M133.195 77.0616C134.634 77.1923 134.78 77.6261 134.505 78.0643L134.944 78.1905C136.542 77.3664 138.948 76.2534 140.915 75.882L141.93 66.7704H132.808L131.633 77.24C132.134 77.0652 132.667 77.0043 133.195 77.0616Z" fill="#07294A"/>
<path d="M99.4084 33.2302C99.4084 33.2302 95.331 57.257 107.175 55.5096C119.019 53.7621 136.491 49.5876 134.843 67.1593" stroke="#07294A" stroke-width="0.378" stroke-linecap="round" stroke-linejoin="round"/>
<path d="M116.652 45.3427C116.652 45.3427 142.416 54.1504 146.105 55.7037C146.105 55.7037 145.922 34.6387 144.266 33.2302C142.61 31.8217 139.503 26.4958 142.804 24.9842C142.804 24.9842 140.086 18.0333 141.93 18.1318C143.775 18.2303 144.163 21.1427 146.881 21.7252C149.6 22.3077 178.336 63.6643 163.385 75.9229C152.836 84.5726 141.93 83.2773 141.93 83.2773" stroke="#07294A" stroke-width="0.378" stroke-linecap="round" stroke-linejoin="round"/>
</g>
<defs>
<clipPath id="clip0_222_31673">
<rect width="252" height="158" fill="white" transform="translate(0 0.102539)"/>
</clipPath>
</defs>
</svg>
