<svg width="252" height="159" viewBox="0 0 252 159" fill="none" xmlns="http://www.w3.org/2000/svg">
<g clip-path="url(#clip0_222_31678)">
<rect width="252" height="158" transform="translate(0 0.102539)" fill="white"/>
<path d="M81.5728 104.521L102.806 82.8457L113.332 245.64H81.5728L86.2639 239.239C85.9632 214.276 81.5728 104.521 81.5728 104.521Z" fill="#DFEFFF"/>
<path d="M89.1746 91.6525L124.39 89.2401L130.793 91.848L133.803 245.639H101.094L104.552 239.442L89.1746 91.6525Z" fill="#F0F8FF"/>
<path d="M101.094 245.639L104.553 239.442L89.175 91.6525" stroke="#07294A" stroke-width="0.378" stroke-linecap="round" stroke-linejoin="round"/>
<path d="M117.352 17.6924V23.251C117.352 27.5491 114.417 31.2919 110.243 32.3178L101.398 34.4919V12.7589L108.753 10.9512C110.824 10.4421 113.014 10.9134 114.693 12.2293C116.371 13.5452 117.352 15.5596 117.352 17.6924V17.6924Z" fill="#F0F8FF"/>
<path d="M117.352 23.251C117.352 27.5491 114.417 31.2919 110.243 32.3178L101.398 34.4918" stroke="#07294A" stroke-width="0.378" stroke-linecap="round" stroke-linejoin="round"/>
<path d="M108.339 22.148C108.103 22.148 107.912 21.957 107.912 21.7214C107.912 21.4858 108.103 21.2949 108.339 21.2949C108.575 21.2949 108.766 21.4858 108.766 21.7214C108.766 21.957 108.575 22.148 108.339 22.148Z" fill="#07294A"/>
<path d="M114.89 22.148C114.654 22.148 114.463 21.957 114.463 21.7214C114.463 21.4858 114.654 21.2949 114.89 21.2949C115.125 21.2949 115.316 21.4858 115.316 21.7214C115.316 21.957 115.125 22.148 114.89 22.148Z" fill="#07294A"/>
<path d="M112.968 24.2661V17.6925H116.262" stroke="#07294A" stroke-width="0.378" stroke-linecap="round" stroke-linejoin="round"/>
<path d="M107.535 17.6924H110.828" stroke="#07294A" stroke-width="0.378" stroke-linecap="round" stroke-linejoin="round"/>
<path d="M102.447 21.0606V23.3434C101.216 23.3434 100.218 22.3452 100.218 21.1138C100.218 21.0454 100.221 20.9777 100.227 20.9108C100.352 19.5263 102.447 19.6704 102.447 21.0606Z" fill="#F0F8FF"/>
<path d="M102.447 23.3434C101.216 23.3434 100.218 22.3452 100.218 21.1138" stroke="#07294A" stroke-width="0.378" stroke-linecap="round" stroke-linejoin="round"/>
<path d="M111.168 25.0342C110.891 25.3111 110.516 25.4667 110.124 25.4667C109.732 25.4667 109.357 25.3111 109.08 25.0342" stroke="#79C9E7" stroke-width="0.378" stroke-linecap="round" stroke-linejoin="round"/>
<path d="M112.969 24.2714L111.528 24.6254" stroke="#07294A" stroke-width="0.378" stroke-linecap="round" stroke-linejoin="round"/>
<path d="M130.926 57.5535V92.391L81.5738 104.521V65.7214C81.5738 51.9637 90.966 39.9835 104.326 36.6999H104.326C110.733 35.1251 117.508 36.583 122.701 40.6536C127.893 44.7243 130.926 50.9558 130.926 57.5535V57.5535Z" fill="#79C9E7"/>
<path d="M101.333 29.7119C101.333 29.7119 103.37 35.1757 98.3948 38.4339C93.7043 41.5057 89.8365 30.8549 92.2461 23.2857C92.3866 22.8465 92.4561 22.3876 92.452 21.9265C92.422 18.9592 93.2543 7.43945 107.912 6.6539C117.703 6.12914 125.754 13.2788 117.688 21.2949" stroke="#07294A" stroke-width="0.378" stroke-linecap="round" stroke-linejoin="round"/>
<path d="M117.352 17.6924C117.352 17.6924 114.236 18.2331 112.732 14.0225C112.732 14.0225 108.005 20.589 102.449 19.5865L102.053 20.199" stroke="#07294A" stroke-width="0.378" stroke-linecap="round" stroke-linejoin="round"/>
<path d="M92.5797 38.6116C92.5797 38.6116 92.4198 41.4085 98.0137 40.3696" stroke="#79C9E7" stroke-width="0.378" stroke-linecap="round" stroke-linejoin="round"/>
<path d="M91.5092 41.3412C91.5092 41.3412 88.3707 53.8227 94.3859 52.1685C100.401 50.5143 96.4912 42.9954 96.4912 42.9954" stroke="#07294A" stroke-width="0.378" stroke-linecap="round" stroke-linejoin="round"/>
<path d="M153.645 26.502L142.089 24.2712L178.781 6.60388L163.292 34.4919L159.683 30.5706L156.996 35.3262L155.297 29.3086" fill="#79C9E7"/>
<path d="M115.96 37.1296C115.96 37.1296 130.771 41.642 140.244 66.0458C140.244 66.0458 148.652 31.0617 150.66 29.0102C153.768 25.8355 158.129 23.5966 156.725 26.8047C155.322 30.0127 153.918 30.5707 153.918 30.5707C153.918 30.5707 157.728 33.7039 155.121 36.0689" stroke="#07294A" stroke-width="0.378" stroke-linecap="round" stroke-linejoin="round"/>
<path d="M159.148 24.2661C159.533 23.8974 164.846 35.7271 158.129 42.444C158.129 42.444 170.16 135.679 111.528 79.5374" stroke="#07294A" stroke-width="0.378" stroke-linecap="round" stroke-linejoin="round"/>
<path d="M114.766 82.5511C114.766 82.5511 119.1 110.813 130.926 119.386V94.3636C130.926 94.3636 115.816 83.5205 114.766 82.5511Z" fill="#07294A"/>
<path d="M86.3828 49.4664C86.3828 49.4664 60.3415 85.2518 81.5742 122.546" stroke="#07294A" stroke-width="0.378" stroke-linecap="round" stroke-linejoin="round"/>
</g>
<defs>
<clipPath id="clip0_222_31678">
<rect width="252" height="158" fill="white" transform="translate(0 0.102539)"/>
</clipPath>
</defs>
</svg>
