<svg width="252" height="159" viewBox="0 0 252 159" fill="none" xmlns="http://www.w3.org/2000/svg">
<g clip-path="url(#clip0_222_31668)">
<rect width="252" height="158" transform="translate(0 0.102539)" fill="white"/>
<path d="M136.018 97.5733L95.9589 95.2513V138.679V245.788H123.039L119.71 239.823L136.018 97.5733Z" fill="#F0F8FF"/>
<path d="M134.055 26.3854V31.7357C134.055 35.8727 131.23 39.4752 127.213 40.4626L118.699 42.5552V21.6369L125.778 19.8969C127.772 19.4069 129.88 19.8605 131.495 21.1271C133.111 22.3937 134.055 24.3326 134.055 26.3854V26.3854Z" fill="#F0F8FF"/>
<path d="M134.055 31.7356C134.055 35.8726 131.23 39.4751 127.213 40.4625L118.699 42.5551" stroke="#07294A" stroke-width="0.378" stroke-linecap="round" stroke-linejoin="round"/>
<path d="M125.38 30.6741C125.154 30.6741 124.97 30.4902 124.97 30.2635C124.97 30.0367 125.154 29.8529 125.38 29.8529C125.607 29.8529 125.791 30.0367 125.791 30.2635C125.791 30.4902 125.607 30.6741 125.38 30.6741Z" fill="#07294A"/>
<path d="M131.687 30.6741C131.46 30.6741 131.277 30.4902 131.277 30.2635C131.277 30.0367 131.46 29.8529 131.687 29.8529C131.914 29.8529 132.098 30.0367 132.098 30.2635C132.098 30.4902 131.914 30.6741 131.687 30.6741Z" fill="#07294A"/>
<path d="M129.836 32.7126V26.3854H133.006" stroke="#07294A" stroke-width="0.378" stroke-linecap="round" stroke-linejoin="round"/>
<path d="M124.608 26.3853H127.777" stroke="#07294A" stroke-width="0.378" stroke-linecap="round" stroke-linejoin="round"/>
<path d="M119.711 29.6273V31.8246C118.526 31.8246 117.565 30.8637 117.565 29.6785C117.565 29.6126 117.568 29.5475 117.574 29.4831C117.694 28.1505 119.711 28.2892 119.711 29.6273Z" fill="#F0F8FF"/>
<path d="M119.711 31.8246C118.526 31.8246 117.565 30.8637 117.565 29.6785" stroke="#07294A" stroke-width="0.378" stroke-linecap="round" stroke-linejoin="round"/>
<path d="M128.104 33.452C127.837 33.7185 127.476 33.8683 127.099 33.8683C126.722 33.8683 126.36 33.7185 126.094 33.452" stroke="#79C9E7" stroke-width="0.378" stroke-linecap="round" stroke-linejoin="round"/>
<path d="M129.838 32.7178L128.452 33.0585" stroke="#07294A" stroke-width="0.378" stroke-linecap="round" stroke-linejoin="round"/>
<path d="M133.748 24.3758C133.748 24.3758 133.512 20.8602 130.328 21.0773C127.143 21.2944 122.584 21.0049 122.222 23.8997C121.86 26.7946 120.746 29.1104 119.711 29.1104" stroke="#07294A" stroke-width="0.378" stroke-linecap="round" stroke-linejoin="round"/>
<path d="M134.056 28.5509C134.056 28.5509 145.331 8.12296 125.382 6.67554C105.433 5.22813 96.0454 31.6676 118.639 35.7203" stroke="#07294A" stroke-width="0.378" stroke-linecap="round" stroke-linejoin="round"/>
<path d="M118.163 33.373C118.163 34.2282 118.856 34.9215 119.711 34.9215C120.567 34.9215 121.26 34.2282 121.26 33.373C121.26 32.5178 120.567 31.8246 119.711 31.8246" stroke="#79C9E7" stroke-width="0.378" stroke-linecap="round" stroke-linejoin="round"/>
<path d="M134.055 34.5606C134.58 34.9995 135.33 35.0423 135.901 34.6659C136.472 34.2896 136.729 33.5833 136.532 32.9282C136.336 32.2732 135.733 31.8246 135.049 31.8246" stroke="#79C9E7" stroke-width="0.378" stroke-linecap="round" stroke-linejoin="round"/>
<path d="M95.9609 64.7522V98.2839L143.463 109.959V72.614C143.463 59.372 134.423 47.8409 121.564 44.6803H121.563C115.397 43.1646 108.875 44.5679 103.878 48.4859C98.88 52.4039 95.9609 58.4018 95.9609 64.7522V64.7522Z" fill="#F0F8FF"/>
<path d="M95.9607 98.2839L143.463 109.959V183.405L71.2699 172.036L95.9607 98.2839Z" fill="#79C9E7"/>
<path d="M102.772 49.4174C102.772 49.4174 80.0906 69.0109 94.9507 96.4153C109.811 123.82 157.672 84.643 158.251 81.5552C158.83 78.4673 153.812 77.6954 149.567 80.0112C149.567 80.0112 150.146 76.8511 147.83 77.7557C145.514 78.6603 144.356 81.3622 144.356 81.3622L111.741 82.7131L115.988 64.7651" stroke="#07294A" stroke-width="0.378" stroke-linecap="round" stroke-linejoin="round"/>
<path d="M133.5 81.8119L147.831 44.0731L180.639 52.993L160.375 98.284L142.245 94.6102" stroke="#07294A" stroke-width="0.378" stroke-linecap="round" stroke-linejoin="round"/>
<path d="M137.016 97.7604C137.016 97.7604 118.716 121.496 91.6596 111.127L96.0477 98.2316C104.858 111.34 122.692 105.839 137.016 97.7604Z" fill="#07294A"/>
<path d="M133.748 51.0613L142.268 58.7238" stroke="#07294A" stroke-width="0.378" stroke-linecap="round" stroke-linejoin="round"/>
<path d="M172.868 70.3606C172.868 70.3606 178.226 90.4809 165.489 99.0207C152.751 107.56 143.462 101.192 143.462 101.192" stroke="#07294A" stroke-width="0.378" stroke-linecap="round" stroke-linejoin="round"/>
</g>
<defs>
<clipPath id="clip0_222_31668">
<rect width="252" height="158" fill="white" transform="translate(0 0.102539)"/>
</clipPath>
</defs>
</svg>
