<svg width="210" height="189" viewBox="0 0 210 189" fill="none" xmlns="http://www.w3.org/2000/svg">
<g clip-path="url(#clip0_983_58580)">
<rect width="210" height="188" transform="translate(0 0.102539)" fill="none"/>
<path fill-rule="evenodd" clip-rule="evenodd" d="M242.366 65.2009C242.366 59.0715 247.335 54.1026 253.464 54.1026H277.511C283.64 54.1026 288.609 59.0715 288.609 65.2009V75.8669C288.609 76.6125 289.264 77.1839 290.01 77.1839V77.1839H314.056C320.185 77.1839 325.154 82.1527 325.154 88.2821V112.328V112.328C325.154 112.883 325.675 113.323 326.224 113.242C326.672 113.176 327.13 113.142 327.596 113.142C332.747 113.142 336.923 117.318 336.923 122.47C336.923 127.621 332.747 131.797 327.596 131.797C323.989 131.797 320.86 129.75 319.308 126.754C318.354 124.912 316.13 123.427 314.056 123.427V123.427H290.01C283.88 123.427 278.911 118.458 278.911 112.328V101.662C278.911 100.917 278.256 100.345 277.511 100.345V100.345H253.464V100.345C250.489 100.345 243.379 103.561 243.379 106.536V113.315C243.379 119.444 238.41 124.413 232.28 124.413H208.234C202.105 124.413 197.136 119.444 197.136 113.315V100.993C197.136 98.5217 194.359 96.8438 191.888 96.8438V96.8438H175.465C175.134 96.8438 174.807 96.8293 174.483 96.8009C174.43 96.7963 174.384 96.8382 174.384 96.8914V96.8914V120.699C174.384 126.828 169.415 131.797 163.286 131.797H139.479C133.349 131.797 128.38 126.828 128.38 120.699V120.699C128.38 119.372 126.585 118.622 125.425 119.266C123.832 120.151 121.998 120.654 120.047 120.654H101.316C95.1863 120.654 90.2175 115.685 90.2175 109.556V109.556C90.2175 108.986 89.32 108.752 88.9738 109.205C86.9459 111.859 83.7478 113.571 80.1497 113.571H61.4187C60.5796 113.571 59.7623 113.478 58.9765 113.301C58.0312 113.089 56.9976 113.913 56.9976 114.882V114.882V120.699C56.9976 126.828 52.0288 131.797 45.8994 131.797H40.0829C33.9535 131.797 28.9846 126.828 28.9846 120.699V120.699C28.9846 119.635 27.7658 118.972 26.7737 119.357C25.5298 119.839 24.1773 120.103 22.7631 120.103H2.04007C0.252788 120.103 -1.43582 119.681 -2.93133 118.93C-4.32939 118.229 -6.53922 119.134 -6.53922 120.699V120.699C-6.53922 126.828 -11.5081 131.797 -17.6375 131.797H-41.6837C-47.8131 131.797 -52.782 126.828 -52.782 120.699V108.554C-52.782 105.742 -56.2004 103.851 -59.0121 103.851V103.851H-83.0584V103.851C-85.5295 103.851 -88.3058 105.529 -88.3058 108V110.163C-88.3058 116.292 -93.2747 121.261 -99.4041 121.261H-115.828C-121.957 121.261 -126.926 116.292 -126.926 110.163V93.7393C-126.926 87.6099 -121.957 82.641 -115.828 82.641H-99.4041V82.641C-96.933 82.641 -94.1566 80.9631 -94.1566 78.492V68.7067C-94.1566 62.5773 -89.1878 57.6084 -83.0584 57.6084H-59.0121C-52.8827 57.6084 -47.9139 62.5773 -47.9139 68.7067V80.8514C-47.9139 83.6631 -44.4954 85.5542 -41.6837 85.5542V85.5542H-17.6375C-14.6591 85.5542 -11.9548 86.7274 -9.96137 88.6369C-9.63858 88.9461 -9.05819 88.729 -9.05819 88.2821V88.2821C-9.05819 82.1527 -4.08932 77.1838 2.04007 77.1838H22.7631C28.8925 77.1838 33.8613 82.1527 33.8613 88.2821V99.0857C33.8613 101.895 37.2739 103.784 40.0829 103.784V103.784H45.8994C46.7384 103.784 47.5558 103.877 48.3416 104.054C49.2868 104.266 50.3204 103.441 50.3204 102.473V102.473V85.7326C50.3204 79.6032 55.2893 74.6343 61.4187 74.6343H64.2592C68.3454 74.6343 71.658 71.3218 71.658 67.2355V66.2644C71.658 60.135 76.6269 55.1661 82.7563 55.1661H101.487C107.617 55.1661 112.586 60.135 112.586 66.2644V74.319C112.586 78.4053 115.96 81.7178 120.047 81.7178V81.7178C121.634 81.7178 123.143 82.0509 124.508 82.6508C128.277 84.3075 135.361 85.7931 139.479 85.7931V85.7931H163.286C163.617 85.7931 163.944 85.8076 164.268 85.836C164.321 85.8406 164.367 85.7987 164.367 85.7455V85.7455V69.3221C164.367 63.1927 169.336 58.2238 175.465 58.2238H191.888C198.018 58.2238 202.987 63.1927 202.987 69.3221V74.0212C202.987 76.4923 205.763 78.1702 208.234 78.1702V78.1702H232.28V78.1702C235.255 78.1702 242.366 74.955 242.366 71.98V65.2009Z" fill="url(#paint0_linear_983_58580)"/>
<path d="M58.0457 124.358L80.4861 101.45L91.6113 273.503H58.0457L63.0036 266.739C62.6857 240.356 58.0457 124.358 58.0457 124.358Z" fill="#DFEFFF"/>
<path d="M66.0796 110.757L103.298 108.208L110.066 110.964L113.246 273.503H78.6768L82.332 266.953L66.0796 110.757Z" fill="#F0F8FF"/>
<path d="M78.6769 273.503L82.332 266.953L66.0797 110.757" stroke="#07294A" stroke-width="0.3995" stroke-linecap="round" stroke-linejoin="round"/>
<path d="M95.8594 32.5905V38.4652C95.8594 43.0078 92.7582 46.9635 88.3469 48.0477L78.9982 50.3455V27.3764L86.7716 25.4658C88.9605 24.9278 91.2753 25.4259 93.0493 26.8166C94.8232 28.2074 95.8594 30.3364 95.8594 32.5905V32.5905Z" fill="#F0F8FF"/>
<path d="M95.8594 38.4652C95.8594 43.0078 92.7582 46.9635 88.3469 48.0477L78.9982 50.3454" stroke="#07294A" stroke-width="0.3995" stroke-linecap="round" stroke-linejoin="round"/>
<path d="M86.3343 37.2995C86.0853 37.2995 85.8835 37.0977 85.8835 36.8487C85.8835 36.5997 86.0853 36.3979 86.3343 36.3979C86.5833 36.3979 86.7852 36.5997 86.7852 36.8487C86.7852 37.0977 86.5833 37.2995 86.3343 37.2995Z" fill="#07294A"/>
<path d="M93.2582 37.2995C93.0092 37.2995 92.8073 37.0977 92.8073 36.8487C92.8073 36.5997 93.0092 36.3979 93.2582 36.3979C93.5071 36.3979 93.709 36.5997 93.709 36.8487C93.709 37.0977 93.5071 37.2995 93.2582 37.2995Z" fill="#07294A"/>
<path d="M91.2264 39.5381V32.5906H94.707" stroke="#07294A" stroke-width="0.3995" stroke-linecap="round" stroke-linejoin="round"/>
<path d="M85.4843 32.5905H88.9648" stroke="#07294A" stroke-width="0.3995" stroke-linecap="round" stroke-linejoin="round"/>
<path d="M80.1074 36.1503V38.563C78.806 38.563 77.7509 37.5079 77.7509 36.2065C77.7509 36.1342 77.7541 36.0627 77.7606 35.992C77.8926 34.5287 80.1074 34.681 80.1074 36.1503Z" fill="#F0F8FF"/>
<path d="M80.1074 38.563C78.806 38.563 77.7509 37.5079 77.7509 36.2065" stroke="#07294A" stroke-width="0.3995" stroke-linecap="round" stroke-linejoin="round"/>
<path d="M89.3242 40.3499C89.0316 40.6425 88.6347 40.8069 88.2209 40.8069C87.807 40.8069 87.4101 40.6425 87.1175 40.3499" stroke="#79C9E7" stroke-width="0.3995" stroke-linecap="round" stroke-linejoin="round"/>
<path d="M91.2266 39.5436L89.7043 39.9178" stroke="#07294A" stroke-width="0.3995" stroke-linecap="round" stroke-linejoin="round"/>
<path d="M110.205 74.7187V111.538L58.046 124.358V83.3513C58.046 68.8111 67.9725 56.1495 82.0924 52.679H82.0925C88.8639 51.0147 96.0245 52.5555 101.512 56.8577C107 61.1598 110.205 67.7458 110.205 74.7187V74.7187Z" fill="#79C9E7"/>
<path d="M78.9296 45.2937C78.9296 45.2937 81.0824 51.0682 75.8244 54.5117C70.8672 57.7583 66.7794 46.5017 69.326 38.502C69.4745 38.0378 69.548 37.5528 69.5436 37.0655C69.5119 33.9294 70.3916 21.7544 85.8829 20.9242C96.2312 20.3696 104.74 27.9259 96.2155 36.3979" stroke="#07294A" stroke-width="0.3995" stroke-linecap="round" stroke-linejoin="round"/>
<path d="M95.8594 32.5905C95.8594 32.5905 92.5662 33.1619 90.9769 28.7119C90.9769 28.7119 85.9815 35.6519 80.1088 34.5923L79.6903 35.2397" stroke="#07294A" stroke-width="0.3995" stroke-linecap="round" stroke-linejoin="round"/>
<path d="M69.6788 54.6995C69.6788 54.6995 69.5099 57.6555 75.4219 56.5576" stroke="#79C9E7" stroke-width="0.3995" stroke-linecap="round" stroke-linejoin="round"/>
<path d="M68.5473 57.5844C68.5473 57.5844 65.2304 70.7757 71.5876 69.0275C77.9449 67.2792 73.8127 59.3327 73.8127 59.3327" stroke="#07294A" stroke-width="0.3995" stroke-linecap="round" stroke-linejoin="round"/>
<path d="M134.217 41.9011L122.004 39.5435L160.783 20.8713L144.413 50.3455L140.599 46.2012L137.759 51.2272L135.963 44.8674" fill="#79C9E7"/>
<path d="M94.3895 53.1333C94.3895 53.1333 110.043 57.9023 120.055 83.6941C120.055 83.6941 128.941 46.7201 131.064 44.552C134.348 41.1968 138.957 38.8305 137.474 42.221C135.99 45.6116 134.507 46.2013 134.507 46.2013C134.507 46.2013 138.533 49.5126 135.778 52.0122" stroke="#07294A" stroke-width="0.3995" stroke-linecap="round" stroke-linejoin="round"/>
<path d="M140.033 39.5381C140.44 39.1483 146.056 51.651 138.957 58.7499C138.957 58.7499 151.672 157.288 89.7052 97.9531" stroke="#07294A" stroke-width="0.3995" stroke-linecap="round" stroke-linejoin="round"/>
<path d="M93.1259 101.138C93.1259 101.138 97.7062 131.007 110.205 140.068V113.623C110.205 113.623 94.2361 102.163 93.1259 101.138Z" fill="#07294A"/>
<path d="M63.1289 66.1718C63.1289 66.1718 35.6064 103.993 58.0468 143.408" stroke="#07294A" stroke-width="0.3995" stroke-linecap="round" stroke-linejoin="round"/>
</g>
<defs>
<linearGradient id="paint0_linear_983_58580" x1="104.999" y1="54.1026" x2="104.999" y2="131.797" gradientUnits="userSpaceOnUse">
<stop stop-color="#FDFFAA" stop-opacity="0"/>
<stop offset="1" stop-color="#FDFFAA"/>
</linearGradient>
<clipPath id="clip0_983_58580">
<rect width="210" height="188" fill="white" transform="translate(0 0.102539)"/>
</clipPath>
</defs>
</svg>
