<svg width="252" height="159" viewBox="0 0 252 159" fill="none" xmlns="http://www.w3.org/2000/svg">
<g clip-path="url(#clip0_536_61737)">
<path d="M92.752 64.8855C92.7772 67.096 92.935 69.303 93.2245 71.4946C96.5101 75.3347 104.775 83.8769 115.817 87.9331C116.859 86.9716 117.801 85.9084 118.631 84.7593L118.63 84.7582C108.204 78.7577 97.8361 69.8217 92.7595 64.8913L92.752 64.8855Z" fill="#F0F8FF"/>
<path d="M88.5554 55.8148L84.7578 38.329H96.6064L99.4926 54.1438" fill="#79C9E7"/>
<path d="M84.7578 38.329H96.6064L98.511 48.7649" stroke="#07294A" stroke-width="0.378" stroke-linecap="round" stroke-linejoin="round"/>
<path d="M143.806 87.7085L117.402 90.8913C117.402 90.8913 77.072 118.251 93.0213 154.251C108.971 190.251 120.819 202.555 120.819 202.555V211.668L138.807 203.01L128.504 146.049L138.807 133.289L143.806 87.7085Z" fill="#79C9E7"/>
<path d="M125.215 90.1454L167.256 87.7085V133.286V245.696H134.215L137.709 239.435L125.215 90.1454Z" fill="#79C9E7"/>
<path d="M137.709 239.435L125.215 90.1454" stroke="#07294A" stroke-width="0.378" stroke-linecap="round" stroke-linejoin="round"/>
<path d="M117.402 55.7V90.8913L167.255 103.144V63.9509C167.255 50.0535 157.768 37.9517 144.272 34.6347H144.272C137.8 33.044 130.956 34.5167 125.711 38.6286C120.466 42.7406 117.402 49.0353 117.402 55.7V55.7Z" fill="#F0F8FF"/>
<path d="M128.506 15.4343V21.0493C128.506 25.391 131.47 29.1718 135.686 30.2081L144.622 32.4043V10.4507L137.192 8.62461C135.1 8.11038 132.887 8.58645 131.192 9.91569C129.496 11.2449 128.506 13.2798 128.506 15.4343V15.4343Z" fill="#F0F8FF"/>
<path d="M128.506 21.0493C128.505 25.3914 131.469 29.1728 135.686 30.2081L136.564 30.4238" stroke="#07294A" stroke-width="0.378" stroke-linecap="round" stroke-linejoin="round"/>
<path d="M137.609 19.9352C137.847 19.9352 138.04 19.7422 138.04 19.5043C138.04 19.2663 137.847 19.0734 137.609 19.0734C137.371 19.0734 137.178 19.2663 137.178 19.5043C137.178 19.7422 137.371 19.9352 137.609 19.9352Z" fill="#07294A"/>
<path d="M130.991 19.9352C131.229 19.9352 131.422 19.7422 131.422 19.5043C131.422 19.2663 131.229 19.0734 130.991 19.0734C130.753 19.0734 130.561 19.2663 130.561 19.5043C130.561 19.7422 130.753 19.9352 130.991 19.9352Z" fill="#07294A"/>
<path d="M132.932 22.0749V15.4342H129.605" stroke="#07294A" stroke-width="0.378" stroke-linecap="round" stroke-linejoin="round"/>
<path d="M138.42 15.4343H135.094" stroke="#07294A" stroke-width="0.378" stroke-linecap="round" stroke-linejoin="round"/>
<path d="M143.561 18.8367V21.1427C144.804 21.1427 145.813 20.1343 145.813 18.8904C145.813 18.8213 145.81 18.753 145.804 18.6854C145.677 17.2868 143.561 17.4324 143.561 18.8367Z" fill="#F0F8FF"/>
<path d="M143.561 21.1428C144.804 21.1428 145.813 20.1344 145.813 18.8905" stroke="#07294A" stroke-width="0.378" stroke-linecap="round" stroke-linejoin="round"/>
<path d="M134.752 22.8506C135.032 23.1303 135.411 23.2874 135.807 23.2874C136.202 23.2874 136.581 23.1303 136.861 22.8506" stroke="#79C9E7" stroke-width="0.378" stroke-linecap="round" stroke-linejoin="round"/>
<path d="M132.934 22.0801L134.389 22.4377" stroke="#07294A" stroke-width="0.378" stroke-linecap="round" stroke-linejoin="round"/>
<path d="M128.506 17.707C128.506 17.707 135.729 17.3332 137.716 11.8642C137.76 11.7489 137.875 11.6762 137.998 11.6852C138.121 11.6942 138.224 11.7827 138.251 11.9032C138.7 13.8439 140.038 17.5081 143.807 18.1171" stroke="#07294A" stroke-width="0.378" stroke-linecap="round" stroke-linejoin="round"/>
<path d="M128.506 19.5043C128.506 19.5043 124.57 16.8765 126.848 12.0662C129.127 7.25586 137.836 4.66982 142.647 8.41865C142.647 8.41865 152.394 7.24673 151.406 21.0493C150.419 34.852 151.786 37.6622 148.065 38.2698C144.343 38.8775 134.724 34.7001 137.179 31.1303C139.634 27.5605 144.622 20.8773 144.622 20.8773" stroke="#07294A" stroke-width="0.378" stroke-linecap="round" stroke-linejoin="round"/>
<path d="M127.797 18.8905C127.797 18.8905 123.404 29.5353 124.721 31.8645C126.037 34.1938 132.534 33.0291 132.534 33.0291" stroke="#07294A" stroke-width="0.378" stroke-linecap="round" stroke-linejoin="round"/>
<path d="M163.9 61.9923C163.9 61.9923 155.524 84.4464 140.608 90.1454C125.692 95.8444 94.0456 66.8851 89.9728 61.9923C86.6515 58.0023 85.517 50.0425 89.9728 50.245C94.4287 50.4475 98.4795 53.4856 98.4795 53.4856C98.4795 53.4856 98.4795 49.4264 100.1 50.2408C100.748 50.5665 101.396 51.3453 101.941 52.1625C103.181 53.9948 104.895 55.4565 106.9 56.3921L132.535 68.5708L142.329 48.2196" stroke="#07294A" stroke-width="0.378" stroke-linecap="round" stroke-linejoin="round"/>
<path d="M140.609 90.1454C134.904 92.3249 126.753 89.4331 118.633 84.7593C121.836 90.467 129.052 94.4493 137.447 94.4493C148.816 94.4493 158.032 87.1496 158.032 78.1449C158.061 76.9265 157.862 75.7136 157.445 74.5684C153.498 80.7236 147.818 87.3912 140.609 90.1454Z" fill="#07294A"/>
<path d="M124.475 39.6754C124.475 39.6754 113.974 49.6373 111.746 59.3593" stroke="#07294A" stroke-width="0.378" stroke-linecap="round" stroke-linejoin="round"/>
<path d="M92.752 64.8855C92.752 64.8855 92.6436 84.0665 101.72 90.1454C110.796 96.2243 118.631 84.7593 118.631 84.7593" stroke="#07294A" stroke-width="0.378" stroke-linecap="round" stroke-linejoin="round"/>
<path d="M106.278 55.8149C106.278 55.8149 105.974 44.4726 102.733 42.2447C99.4927 40.0167 96.9616 40.2746 97.0656 40.8448C97.1696 41.4149 99.2902 43.4599 100.809 44.3713" stroke="#07294A" stroke-width="0.378" stroke-linecap="round" stroke-linejoin="round"/>
</g>
<defs>
<clipPath id="clip0_536_61737">
<rect width="252" height="158" fill="white" transform="translate(0 0.102539)"/>
</clipPath>
</defs>
</svg>
